<svg width="180" height="180" viewBox="0 0 180 180" fill="none" xmlns="http://www.w3.org/2000/svg">
    <circle cx="91.8" cy="90" r="83" fill="#EBEFF4" fill-opacity=".95"/>
    <path d="M171.733 91.935H111.53v39.91h60.203v-39.91z" fill="#F7F9FC" fill-opacity=".95"/>
    <path d="M174.66 87.426h-65.835v4.284h65.84v-4.208l-.005-.076z" fill="#7CA7EE"/>
    <path d="M174.665 134.551h-65.84a.226.226 0 0 1-.225-.226v-46.9c0-.123.101-.225.225-.225h65.84c.124 0 .225.102.225.226v46.899a.226.226 0 0 1-.225.226zm-65.614-.451h65.388V87.651h-65.388V134.1z"
          fill="#7CA7EE"/>
    <path d="M112.478 89.608a.945.945 0 1 1-1.89 0 .945.945 0 0 1 1.89 0zM115.531 89.608c0 .521-.424.945-.945.945a.946.946 0 0 1 0-1.89c.521 0 .945.422.945.945zM118.582 89.608a.946.946 0 0 1-1.89 0 .946.946 0 0 1 1.89 0z"
          fill="#fff"/>
    <path d="M111.599 26.266h-53.4v35.4h53.4v-35.4z" fill="#FCFCFC"/>
    <path d="M110.799 61.266h-50.6v-33.4c0-.11.09-.2.2-.2.11 0 .2.09.2.2v33h50.2c.11 0 .2.09.2.2a.2.2 0 0 1-.2.2z"
          fill="#A9C8F9"/>
    <path d="M72.399 49.466h-6.6v6.2h6.6v-6.2zM83 44.466h-6.4v11.2H83v-11.2zM93.8 37.866h-6.6v17.8h6.6v-17.8zM104.399 32.266h-6.4v23.4h6.4v-23.4z"
          fill="#A9C8F9"/>
    <path d="M114.196 22.266H55.8v3.8h58.4v-3.732l-.004-.068z" fill="#7CA7EE"/>
    <path d="M114.2 64.066H55.8a.2.2 0 0 1-.2-.2v-41.6c0-.11.09-.2.2-.2h58.4c.11 0 .2.09.2.2v41.6a.2.2 0 0 1-.2.2zm-58.2-.4h58v-41.2H56v41.2z"
          fill="#7CA7EE"/>
    <path d="M59.04 24.202a.839.839 0 0 1-1.677 0 .839.839 0 0 1 1.676 0zM61.747 24.202a.839.839 0 0 1-1.676 0 .839.839 0 0 1 1.676 0zM64.453 24.202a.839.839 0 0 1-1.676 0 .839.839 0 0 1 1.676 0z"
          fill="#FCFCFC"/>
    <path d="M106.458 23.784 101.42 7l-14.63 9.648 4.014 1.456c-1.032 3.528-3.104 8.458-7.366 13.026-8.572 9.188-19.694 10.138-22.312 10.292 1.928.628 15.39 4.764 28.208-3.274 7.722-4.842 11.432-11.732 13.088-15.83l4.036 1.466z"
          fill="#2976E7"/>
    <path d="M50.4 46.466H9.8v34.6h40.6v-34.6z" fill="#A9C8F9"/>
    <path d="M45.6 41.666H5v34.6h40.6v-34.6z" fill="#FCFCFC"/>
    <path d="M22.234 51.67a8.479 8.479 0 0 1 2.212-.616l-.052-4.006a12.481 12.481 0 0 0-10.162 7.266l3.772 1.348a8.462 8.462 0 0 1 4.23-3.992zM17.43 61.87a8.476 8.476 0 0 1-.131-4.238l-3.772-1.348c-.612 2.3-.576 4.786.224 7.17l3.68-1.584z"
          fill="#2256AA"/>
    <path d="m37.456 55.52-3.68 1.586c1.188 4.064-.818 8.484-4.804 10.2-3.986 1.718-8.576.142-10.714-3.512l-3.68 1.586c3.024 5.67 9.966 8.176 15.97 5.588 6.008-2.59 8.952-9.356 6.908-15.448z"
          fill="#0056D5"/>
    <path d="M26.54 51.028a8.531 8.531 0 0 1 6.408 4.154l3.68-1.586c-2.068-3.874-5.962-6.272-10.14-6.574l.052 4.006z"
          fill="#2976E7"/>
    <path d="M96 78.102H61v27.6h35v-27.6z" fill="#FCFCFC"/>
    <path d="M96.6 105.902H61v-23.4h.4v23h35.2v.4z" fill="#FCFCFC"/>
    <path d="M83.938 90.258a.2.2 0 0 1-.102-.372l4.204-2.512a.2.2 0 1 1 .204.344L84.04 90.23a.212.212 0 0 1-.102.028zM81.276 89.586a.203.203 0 0 1-.168-.09l-5.696-8.672a.198.198 0 0 1 .058-.276.203.203 0 0 1 .278.058l5.696 8.672a.2.2 0 0 1-.168.308zM68.674 83.958a.197.197 0 0 1-.158-.078.198.198 0 0 1 .036-.28l4.426-3.418a.198.198 0 0 1 .28.036.198.198 0 0 1-.036.28l-4.426 3.418a.2.2 0 0 1-.122.042z"
          fill="#2256AA"/>
    <path d="M69.062 84.9a1.823 1.823 0 1 1-3.648 0 1.823 1.823 0 1 1 3.648 0zM74.594 81.048a1.824 1.824 0 1 0 0-3.648 1.824 1.824 0 0 0 0 3.648zM84.154 90.93a1.823 1.823 0 1 1-3.648 0 1.823 1.823 0 1 1 3.648 0zM91.57 86.676a1.823 1.823 0 1 1-3.648 0 1.823 1.823 0 1 1 3.648 0z"
          fill="#2256AA"/>
    <path d="M69.6 89.702H65v12.4h4.6v-12.4zM77.2 87.102h-4.6v15h4.6v-15zM84.6 94.102H80v8h4.6v-8zM92 91.702h-4.4v10.4H92v-10.4z"
          fill="#7CA7EE"/>
    <path d="M63.695 93.308s-1.574 2.705-.416 4.895c.454.86 1.123 1.238 1.857 1.723.76.5 5.75 3.783 6.763 8.07.21.886.55 2.327-.1 3.607-1.379 2.732-6.197 2.64-11.994 2.732-14.833.233-16.605 1.379-25.894.198-6.767-.859-9.599-1.929-11.115-4.344-1.055-1.681-1.506-3.966-.914-7.034 1.922-9.946 13.183-9.51 17.443-13.496 4.26-3.985 7.264-8.12 14.596-8.44 7.333-.322 15.536 3.603 14.738 9.911-.027.199-.107.974-.692 1.593-1.295 1.38-3.874.696-4.272.585z"
          fill="#141C2B"/>
    <path d="M24.038 110.231a.376.376 0 0 1-.2-.057c-3.862-2.366-5.478-5.705-4.55-9.4 1.253-5.005 7.077-9.51 12.713-9.843 8.88-.52 11.653-4.363 11.684-4.402a.385.385 0 0 1 .531-.095c.172.122.214.36.096.531-.119.172-3.019 4.184-12.266 4.727-5.334.313-10.836 4.554-12.017 9.265-.836 3.344.658 6.385 4.211 8.559.18.111.237.344.126.528a.389.389 0 0 1-.328.187z"
          fill="#141C2B"/>
    <path d="M17.714 129.397s-4.64 19.762-.99 43.613l59.351-.234s-4.44-22.604-4.436-34.228l-53.925-9.151z" fill="#fff"/>
    <path d="M11.945 136.462s-1.892 22.414 12.227 24.729c14.118 2.32 11.918-23.525 11.918-23.525l-24.145-1.204z"
          fill="#E2A18D"/>
    <path d="M8.8 139.225s17.362 1.096 29.203 6.805c11.842 5.712 46.647.309 55.832-8.426 0 0-10.305-29.41-43.253-29.364-32.944.05-39.184 16.369-41.782 30.985z"
          fill="#fff"/>
    <path d="M93.04 129.397s10.802 18.493-1.257 23.976c-15.364 6.981-24.576-8.539-24.576-8.539l25.834-15.437z"
          fill="#E2A18D"/>
    <path d="M81.96 149.086H53.19l14.535-33.624h28.768L81.96 149.086z" fill="#141C2B" fill-opacity=".95"/>
    <path d="M81.491 123.696c.233-1.704 4.111-1.934 7.875-1.869 2.763.046 5.907.306 5.907 2.526 0 2.583-3.893 2.579-6.427 2.365-3.76-.321-7.58-1.356-7.355-3.022z"
          fill="#E2A18D"/>
    <path d="M80.245 127.578c.252-1.8 4.482-2.04 8.59-1.972 3.014.05 6.442.325 6.442 2.667 0 2.725-4.246 2.721-7.008 2.496-4.104-.337-8.272-1.433-8.024-3.191z"
          fill="#E2A18D"/>
    <path d="M80.1 132.239c.145-1.872 3.863-2.281 7.485-2.365 2.66-.061 5.693.092 5.796 2.522.119 2.824-3.626 2.976-6.071 2.847-3.63-.195-7.352-1.173-7.21-3.004z"
          fill="#E2A18D"/>
    <path d="M81.032 136.148c.111-1.551 3.03-1.883 5.873-1.944 2.086-.046 4.47.087 4.555 2.097.099 2.339-2.84 2.461-4.761 2.346-2.85-.168-5.774-.985-5.667-2.499z"
          fill="#E2A18D"/>
    <path d="M87.39 139.041c-.306 0-.627-.012-.967-.031a.384.384 0 0 1-.359-.405.381.381 0 0 1 .405-.359c2.09.122 3.538-.153 4.196-.799.297-.294.431-.664.412-1.134-.019-.425-.156-.757-.424-1.009l-.508-.485.688-.161c1.509-.355 2.22-1.089 2.17-2.247-.027-.611-.267-1.07-.741-1.41l-.738-.527.894-.157c.386-.068.73-.16 1.028-.271a.385.385 0 0 1 .493.226.385.385 0 0 1-.225.493 6.04 6.04 0 0 1-.455.149c.313.405.485.897.508 1.471.042.982-.325 2.235-2.2 2.865.167.302.26.65.278 1.04.03.687-.187 1.264-.638 1.711-.714.688-1.994 1.04-3.817 1.04zM93.84 126.703h-.019l-7.99-.409a.383.383 0 0 1 .038-.764l7.99.409c.21.011.375.191.363.401a.385.385 0 0 1-.382.363z"
          fill="#141C2B"/>
    <path d="M92.709 131.047h-.023l-7.768-.493a.38.38 0 0 1-.356-.405.376.376 0 0 1 .406-.355l7.768.493a.38.38 0 0 1 .355.405.386.386 0 0 1-.382.355zM91.008 135.392h-.019l-7.928-.363a.381.381 0 0 1 .034-.761l7.929.363a.381.381 0 0 1-.016.761z"
          fill="#141C2B"/>
    <path d="M45.615 117.178c-9.4 7.133-30.289 36.536-30.289 36.536l5.777 6.61 2.228.94c7.245 3.057 15.616-.042 19.12-7.08l10.504-21.696s1.922.478 2.724-.263c.967-.895 1.128-2.721 1.128-2.721s1.21-.306 1.662-1.639c.408-1.204-.444-2.117-.444-2.117s1.01-1.425.329-2.873c-1.009-2.155-5.162-2.92-5.162-2.92s9.98.872 9.858-1.753c-.115-2.415-13.958-3.665-17.435-1.024z"
          fill="#E2A18D"/>
    <path d="M17.469 151.123a.38.38 0 0 1-.31-.607 549.457 549.457 0 0 1 6.859-9.217.383.383 0 0 1 .607.463 531.815 531.815 0 0 0-6.847 9.201.375.375 0 0 1-.31.16zM58.006 126.126a.376.376 0 0 1-.313-.164c-.447-.642-1.444-1.808-3.133-2.381a6.243 6.243 0 0 0-3.072-.233.386.386 0 0 1-.444-.309.388.388 0 0 1 .31-.444 7.034 7.034 0 0 1 3.45.26c1.895.642 3.015 1.949 3.515 2.667a.384.384 0 0 1-.095.531.37.37 0 0 1-.218.073zM56.867 129.825a.383.383 0 0 1-.298-.145 6.19 6.19 0 0 0-1.888-1.582 6.204 6.204 0 0 0-2.991-.741.382.382 0 0 1-.382-.383.38.38 0 0 1 .382-.382 7.034 7.034 0 0 1 3.358.833 6.966 6.966 0 0 1 2.121 1.777.38.38 0 0 1-.061.539.387.387 0 0 1-.24.084zM52.9 132.82a.38.38 0 0 1-.355-.523l.585-1.479a.385.385 0 0 1 .497-.214.38.38 0 0 1 .214.497l-.585 1.478a.388.388 0 0 1-.355.241z"
          fill="#141C2B"/>
    <path d="m41.442 110.934 6.355-16.243 9.086 2.748-2.411 13.327-13.03.168z" fill="#E2A18D"/>
    <path d="M56.386 110.186c0 1.146-3.6 2.074-8.04 2.074-4.439 0-8.038-.928-8.038-2.074 0-1.147 3.599-2.377 8.039-2.377 4.44 0 8.04 1.227 8.04 2.377zM63.998 90.362s-1.307 12.724-6.683 13.129c-3.255.244-6.236-3.496-6.958-5.25-.722-1.758 0-4.627 0-4.627s1.093 1.024 1.972.347c.879-.676-.138-4.925 3.725-4.753 3.855.176 4.276 1.808 7.944 1.154z"
          fill="#E2A18D"/>
    <path d="M55.932 103.953a.295.295 0 0 1-.1-.015c-1.868-.512-3.633-2.121-4.554-3.492a.382.382 0 1 1 .634-.428c.844 1.253 2.445 2.72 4.123 3.179a.386.386 0 0 1-.103.756zM39.834 108.932s7.653.944 9.403-9.763c1.059-6.46 4.352-9.552 5.56-12.219 1.211-2.67-11.849 5.254-14.963 21.982z"
          fill="#141C2B"/>
    <path d="M52.16 94.909c.33 1.028.012 2.896-1.015 3.225-1.028.328-2.373-1.005-2.702-2.033a1.953 1.953 0 1 1 3.718-1.192z"
          fill="#E2A18D"/>
    <path d="M49.475 96.575a.376.376 0 0 1-.363-.267 1.457 1.457 0 0 1-.058-.257c-.099-.745.36-1.417 1.02-1.505a1.08 1.08 0 0 1 .505.054.383.383 0 0 1-.248.722.301.301 0 0 0-.153-.016c-.237.031-.405.329-.363.65.008.046.015.088.027.13a.381.381 0 0 1-.252.478.579.579 0 0 1-.115.011z"
          fill="#141C2B"/>
</svg>
