<svg width="180" height="180" viewBox="0 0 180 180" fill="none" xmlns="http://www.w3.org/2000/svg">
    <path d="M90.6 173.2c45.84 0 83.001-37.16 83.001-83s-37.161-83-83-83c-45.84 0-83 37.16-83 83s37.16 83 83 83z"
          fill="#EBEFF4" fill-opacity=".95"/>
    <path d="M89.29 59.804h-3.098a28.556 28.556 0 0 0-1.176-4.396l2.68-1.548-5.24-9.078-2.686 1.55a28.858 28.858 0 0 0-3.214-3.214l1.55-2.686-9.076-5.24-1.548 2.68a28.785 28.785 0 0 0-4.396-1.176V33.6H52.604v3.096c-1.51.278-2.978.672-4.396 1.176l-1.548-2.68-9.076 5.24 1.55 2.686a28.858 28.858 0 0 0-3.214 3.214l-2.686-1.55-5.24 9.078 2.68 1.548a28.785 28.785 0 0 0-1.176 4.396H26.4v10.482h3.098c.278 1.51.672 2.978 1.176 4.396l-2.68 1.548 5.24 9.078 2.686-1.552a29.048 29.048 0 0 0 3.214 3.216l-1.55 2.686 9.076 5.24 1.548-2.68c1.418.502 2.886.898 4.396 1.176v3.098h10.482v-3.098a28.556 28.556 0 0 0 4.396-1.176l1.548 2.68 9.076-5.24-1.55-2.686a28.707 28.707 0 0 0 3.214-3.216l2.686 1.552 5.24-9.078-2.68-1.548a28.785 28.785 0 0 0 1.176-4.396h3.098V59.804zm-9.858 13.702A21.745 21.745 0 0 1 66.306 86.63c-19.184 6.858-36.908-10.866-30.048-30.05a21.754 21.754 0 0 1 13.126-13.126c19.184-6.856 36.908 10.868 30.048 30.052z"
          fill="#94BAF3"/>
    <path d="M149.286 143.688H47.4l23.114-83.684h101.884l-23.112 83.684z" fill="#FCFCFC"/>
    <path d="M152.604 132.254H72L88.31 73.2h80.604l-16.31 59.054z" fill="#141C2B"/>
    <path d="M161.904 80.434h-70.58l.572-2.076h70.582l-.574 2.076z" fill="#2976E7"/>
    <path d="M155.742 85.466H99.208a.2.2 0 0 1-.2-.2c0-.11.09-.2.2-.2h56.534c.11 0 .2.09.2.2a.2.2 0 0 1-.2.2z"
          fill="#F5B83D"/>
    <path d="M157.696 89.972h-46.932a.2.2 0 0 1-.2-.2c0-.11.09-.2.2-.2h46.934c.11 0 .2.09.2.2a.201.201 0 0 1-.202.2z"
          fill="#49A211"/>
    <path d="M129.518 94.48h-23.866a.2.2 0 0 1-.2-.2c0-.11.09-.2.2-.2h23.866c.11 0 .2.09.2.2a.2.2 0 0 1-.2.2z"
          fill="#F5B83D"/>
    <path d="M131.741 98.988h-21.066a.2.2 0 0 1-.2-.2c0-.11.09-.2.2-.2h21.066c.11 0 .2.09.2.2a.2.2 0 0 1-.2.2zM124.096 103.496H107.03a.2.2 0 0 1-.2-.2c0-.11.09-.2.2-.2h17.066c.11 0 .2.09.2.2a.2.2 0 0 1-.2.2z"
          fill="#49A211"/>
    <path d="M139.518 108.003H92.452a.2.2 0 0 1-.2-.2c0-.11.09-.2.2-.2h47.066c.11 0 .2.09.2.2a.2.2 0 0 1-.2.2zM131.206 112.51H95.872a.2.2 0 0 1-.2-.2c0-.11.09-.2.2-.2h35.334c.11 0 .2.09.2.2a.2.2 0 0 1-.2.2z"
          fill="#F5B83D"/>
    <path d="M111.326 117.019c-10.634 0-10.726-.122-10.812-.234a.215.215 0 0 1-.036-.18.2.2 0 0 1 .246-.14c.018.006.036.012.05.022 1.34.256 30.636.066 41.894-.03.102-.002.2.088.202.198 0 .11-.088.2-.198.202-.104 0-10.552.09-20.9.134-4.294.02-7.718.028-10.446.028zm-10.462-.308c0 .002 0 .002 0 0 0 .002 0 .002 0 0zm.006-.068zM115.321 121.526H94.049a.2.2 0 0 1-.2-.2c0-.11.09-.2.2-.2h21.272c.11 0 .2.09.2.2a.2.2 0 0 1-.2.2z"
          fill="#2976E7"/>
    <path d="M119.139 126.034H98.805a.2.2 0 0 1-.2-.2c0-.11.09-.2.2-.2h20.334c.11 0 .2.09.2.2a.2.2 0 0 1-.2.2z"
          fill="#F5B83D"/>
    <path d="m27.722 106.102-7.848 28.416 2.948 22.088h104.49l13.948-50.504H27.722z" fill="#94BAF3"/>
    <path d="M123 7.302H88v27.6h35v-27.6z" fill="#FCFCFC"/>
    <path d="M123.6 35.102H88v-23.4h.4v23h35.2v.4z" fill="#FCFCFC"/>
    <path d="M110.938 19.458a.2.2 0 0 1-.102-.372l4.204-2.512a.2.2 0 1 1 .204.344l-4.204 2.512a.212.212 0 0 1-.102.028zM108.276 18.786a.203.203 0 0 1-.168-.09l-5.696-8.672a.198.198 0 0 1 .058-.276.203.203 0 0 1 .278.058l5.696 8.672a.2.2 0 0 1-.168.308zM95.674 13.158a.197.197 0 0 1-.158-.078.198.198 0 0 1 .036-.28l4.426-3.418a.199.199 0 0 1 .28.036.198.198 0 0 1-.036.28l-4.426 3.418a.2.2 0 0 1-.122.042z"
          fill="#2256AA"/>
    <path d="M96.062 14.1a1.823 1.823 0 1 1-3.648 0 1.823 1.823 0 1 1 3.648 0zM101.595 10.248a1.824 1.824 0 1 0 0-3.648 1.824 1.824 0 0 0 0 3.648zM111.154 20.13a1.823 1.823 0 1 1-3.648 0 1.823 1.823 0 1 1 3.648 0zM118.57 15.876a1.823 1.823 0 1 1-3.648 0 1.823 1.823 0 1 1 3.648 0z"
          fill="#2256AA"/>
    <path d="M96.6 18.902H92v12.4h4.6v-12.4zM104.2 16.302h-4.6v15h4.6v-15zM111.6 23.302H107v8h4.6v-8zM119 20.902h-4.4v10.4h4.4v-10.4z"
          fill="#7CA7EE"/>
    <path d="M48.41 110.909c.164-2.862.006-4.544-1.165-5.844-1.574-1.747-4.15-1.507-4.418-1.477-.171.018-2.624.135-3.914 2.243-1.274 2.082-1.4 4.767-.192 6.862l-2.097 4.969a3.135 3.135 0 0 0 1.67 4.108l.362.152a3.135 3.135 0 0 0 4.107-1.67l1.4-3.319c1.048.342 1.972.387 2.51.01.961-.676 1.546-2.664 1.737-6.034z"
          fill="#E2A18D"/>
    <path d="m52.31 102.19-1.894-.457a4.714 4.714 0 0 1-.355.981.332.332 0 0 1-.628-.156v-.023a4.82 4.82 0 0 0-.094-1.062L42.415 99.8c.057.266.174.978-.17 1.752-.519 1.169-1.666 1.526-1.844 1.578-2.094.945-3.504 2.917-3.64 5.114-.163 2.648 1.6 4.405 1.87 4.666a49.747 49.747 0 0 0 4.39.941c-.686-.6-.817-1.504-.587-2.3.251-.872 1.257-1.541 2.133-1.209.557.211.888.689.91 1.762.396-.036.873-.103 1.268-.139-.07-1.031-.143-2.062-.215-3.093.162-.009 3.891-.279 5.342-3.293.672-1.405.544-2.755.438-3.389zM11.416 162.763s-1.342 6.976 2.136 10.243h63.367s7.435-17.753-31.516-16.28l-33.987 6.037z"
          fill="#141C2B"/>
    <path d="M11.124 136.625c-.448.096-2.378 4.667-4.313 9.53-2.214 5.56 1.861 11.607 7.847 11.649l1.98.014 8.172-22.532-13.686 1.339z"
          fill="#E2A18D"/>
    <path d="M17.732 137.295h-9.77l4.777-9.617a14.134 14.134 0 0 1 12.656-7.845H40.31l-22.578 17.462z" fill="#2976E7"/>
    <path d="M60.32 125.013c5.52 2.234 10.591 3.517 14.158 6.094 4.416 3.192 6.177 7.971 4.168 10.108-2.108 2.242-10.472 3.879-21.65-1.186.258-4.571.572-10.437 3.324-15.016z"
          fill="#E2A18D"/>
    <path d="M69.738 131.076c1.347-3.161 4.728-10.222 7.616-15.465 3.034-5.505 8.314-13.192 9.38-12.439.607.429.103 1.626-1.455 4.737.236-.078.962-.175 1.459.315.737.725.362 1.517.357 1.6.078-.033.927-.365 1.502.035.648.453.804 1.12.679 1.729.195-.077.946-.284 1.488.118.557.415.838 1.251.479 1.88-.66 1.154-2.68 4.545-3.464 6.317-1.54 3.485-5.35 16.593-8.909 21.041-2.609-4.181-6.518-5.688-9.132-9.868z"
          fill="#E2A18D"/>
    <path d="M83.328 109.274a.14.14 0 0 1-.087-.029l-.827-.649a.14.14 0 1 1 .172-.219l.827.649a.14.14 0 0 1-.085.248zM85.43 110.92a.14.14 0 0 1-.086-.029l-.828-.649a.14.14 0 1 1 .172-.219l.828.649a.14.14 0 0 1-.085.248zM87.59 112.574c-.03 0-.06-.01-.086-.03l-.828-.649a.139.139 0 0 1 .172-.219l.828.649a.14.14 0 0 1 .024.196.135.135 0 0 1-.11.053zM89.519 114.112c-.031 0-.06-.01-.087-.03l-.828-.649a.14.14 0 0 1 .172-.219l.828.649a.14.14 0 0 1 .023.196.135.135 0 0 1-.108.053z"
          fill="#141C2B"/>
    <path d="M34.623 119.833c15.925-.377 29.106 5.656 29.106 5.656l-1.525 17.316-6.767.126-4.121 13.919-5.008-.144-3.321 8.797-35.022.397 6.655-23.627c-.001.002 3.44-22.047 20.003-22.44z"
          fill="#2976E7"/>
    <path d="M55.504 142.959a.14.14 0 0 1-.14-.134c-.023-.567-.034-1.264-.047-1.938a81.135 81.135 0 0 0-.047-1.931.14.14 0 0 1 .134-.145.139.139 0 0 1 .145.134c.024.567.035 1.264.047 1.938.012.673.024 1.368.048 1.931a.14.14 0 0 1-.134.145h-.006zM15.863 136.764a.14.14 0 0 1-.134-.179l1.9-6.515a.14.14 0 0 1 .268.078l-1.9 6.515a.14.14 0 0 1-.134.101z"
          fill="#141C2B"/>
    <path d="M25.396 119.834s1.482-3.015 5.283-3.026c3.802-.011 17.776 2.963 17.776 2.963l.634 1.576s-11.094 6.548-19.065 7.49c-7.969.945-7.627-6.397-4.628-9.003z"
          fill="#0045AA"/>
    <path d="M33.414 123.184c-1.623 0-2.682-.308-3.375-.705-1.043-.594-1.186-1.352-1.192-1.385a.139.139 0 0 1 .113-.161.139.139 0 0 1 .162.113c.003.011.14.675 1.074 1.202 1.657.932 5.502 1.346 14.412-1.99a.141.141 0 0 1 .18.083.14.14 0 0 1-.082.18c-5.362 2.004-8.924 2.663-11.292 2.663z"
          fill="#141C2B"/>
    <path d="m168.826 73.347-4.6-10.858-7.196-15.578-22.012 6.892c.076.332-.512 19.544-.512 19.544h34.32z"
          fill="#2976E7"/>
    <path d="M119.814 42.772c-1.034-2.934-4.156-4.578-7.17-3.808-3.914 1-9.692 2.484-12.702 3.308-5.06 1.384-12.328 4.166-11.926 5.176.23.576 1.298.402 4.126-.254-.11.176-.31.792-.01 1.292.444.74 1.14.544 1.21.556-.042.056-.486.728-.274 1.274.24.614.76.824 1.278.84-.1.144-.424.824-.192 1.338.3.668 1.106.756 1.686.588 1.064-.308 3.954-1.224 5.544-1.512 1.368-.248 13.444-.454 17.108-3.348 1.964-1.552 1.976-3.594 1.322-5.45z"
          fill="#E2A18D"/>
    <path d="M101.308 48.01h-.014c-1.2-.084-2.056-.598-2.682-.972-.666-.4-1.002-.58-1.338-.316-.392.308-.978.478-1.74.5a.664.664 0 0 1-.644-.42.675.675 0 0 1 .17-.758l2.512-2.306a.2.2 0 1 1 .27.294l-2.512 2.306a.273.273 0 0 0-.07.312.266.266 0 0 0 .262.172c.666-.02 1.186-.164 1.506-.416.566-.446 1.134-.106 1.79.288.624.374 1.402.84 2.506.916.11.008.194.104.186.214a.204.204 0 0 1-.202.186z"
          fill="#141C2B"/>
    <path d="M97.486 52.123a.2.2 0 0 1-.192-.146 1.51 1.51 0 0 0-1.758-1.058l-.666.142a.2.2 0 0 1-.124-.378l1.222-.547a.891.891 0 0 0-.596-1.672l-1.718.468a.2.2 0 0 1-.242-.13.198.198 0 0 1 .118-.248l.802-.312a.671.671 0 0 0-.404-1.276l-1.212.297a.2.2 0 0 1-.242-.146.2.2 0 0 1 .146-.242l1.212-.297a1.069 1.069 0 0 1 1.18 1.575l.254-.07c.338-.093.692-.044.994.134a1.29 1.29 0 0 1-.128 2.288l-.014.005c.722.107 1.35.625 1.56 1.36a.2.2 0 0 1-.138.248c-.016 0-.036.005-.054.005z"
          fill="#141C2B"/>
    <path d="m111.686 40.297 7.036-9.402 7.728 9.072-7.618 7.843-7.146-7.514z" fill="#E2A18D"/>
    <path d="M153.716 35.233c-.864-2.82-4.794-4.7-7.686-5.284l-14.074-2.835c-3.966-.797-10.704-.393-14.32 3.74l6.994 11.602.836-.718 5.224 14.56 28.328-8.446-4.694-6.258 1.786-1.3-2.394-5.061z"
          fill="#FCFCFC"/>
    <path d="M143.802 44.703c-.408.336 1.712 21.122 1.81 26.928.016.962.786 1.74 1.746 1.768 1.062.032 2.058.562 2.64 1.45.388.59.986 1.178 1.876 1.324 1.934.316 0-2.788 0-2.788h2.936a3.31 3.31 0 0 1 2.48 1.162c.626.736 1.404 1.514 1.726 1.282.578-.42-.318-3.8-1.422-4.578a4.44 4.44 0 0 0-1.152-.556 2.469 2.469 0 0 1-1.7-2.338V40.429c.002 0-6.954.998-10.94 4.274z"
          fill="#E2A18D"/>
    <path d="M151.874 72.989a.196.196 0 0 1-.131-.05l-1.988-1.736a.2.2 0 1 1 .262-.303l1.988 1.736a.2.2 0 0 1 .019.282.194.194 0 0 1-.15.07zM143.086 18.03c-1.07 0-2.222-.367-2.918-1.285a.2.2 0 0 1 .318-.242c.8 1.054 2.308 1.284 3.446 1.042 1.32-.28 2.474-1.09 3.454-1.826.134-.1.266-.202.4-.304.936-.712 1.902-1.448 3.014-1.902 1.466-.598 2.982-.546 4.054.136a.2.2 0 0 1 .062.276.202.202 0 0 1-.276.062c-.964-.612-2.344-.652-3.69-.104-1.064.434-2.008 1.152-2.924 1.848-.134.102-.268.204-.402.304-1.014.762-2.212 1.602-3.61 1.898a4.356 4.356 0 0 1-.928.098zM149.934 29.517a.188.188 0 0 1-.11-.034c-.68-.454-1.286-1.014-1.874-1.556-.28-.258-.57-.526-.862-.776-1.106-.95-2.066-1.454-3.02-1.588-.988-.14-2.004.124-2.986.376-.13.034-.26.068-.39.1-1.126.284-2.43.51-3.572.044a.2.2 0 1 1 .15-.37c1.032.422 2.208.22 3.324-.062.128-.032.258-.066.386-.1 1.02-.264 2.076-.536 3.142-.386 1.358.192 2.49 1.052 3.224 1.682.298.256.59.524.872.786.576.532 1.17 1.08 1.824 1.518a.202.202 0 0 1 .056.278.194.194 0 0 1-.164.088z"
          fill="#141C2B"/>
    <path d="M148.502 24.806s1.976.017 3.7 1.592a767.867 767.867 0 0 0 5.536-9.956c-1.522-1.768-4.126-2.521-6.356-1.838-1.086.333-2.052.963-3.004 1.58-.952.618-1.922 1.242-3.012 1.56-1.09.32-2.332.3-3.286-.317-.646-.418-1.11-1.072-1.752-1.496-.612-.406-1.352-.579-2.082-.636-.822-.066-1.708.024-2.35.54-.76.611-.99 1.662-1.07 2.633-.092 1.137.068 2.26 0 3.392-.058.966.23 1.9.858 2.652a3.897 3.897 0 0 0 2.566 1.366c1.81.186 3.524-.904 5.344-.963 1.194-.04 2.37.376 3.382 1.008s1.876 1.476 2.68 2.358c.248.271.564.574.924.498.288-.06.468-.343.614-.599l.538-.95c-.984-1.07-2.308-2.316-3.23-2.424z"
          fill="#141C2B"/>
    <path d="M135.87 24.805a5.368 5.368 0 1 0 0-10.736 5.368 5.368 0 0 0 0 10.736z" fill="#141C2B"/>
    <path d="M131.482 26.015c1.186.841 4.538-1.445 4.538-1.445l1.918-4.01a3.707 3.707 0 0 0-7.412 0c-.002-.002-.252 4.597.956 5.455z"
          fill="#E2A18D"/>
    <path d="M139.152 29.189c-1.486 1.32-2.962 1.952-4.416 1.216l-2.488-9.034 4.504.89 2.4 6.928zM130.95 21.533s-1.04 1.09-.984 1.376c.066.344 1.224.552 1.224.552s-.268-1.924-.24-1.928z"
          fill="#E2A18D"/>
    <path d="M138.838 21.533s-1.182-.474-2.402.778l-.79-.432s.458-5.044-5.07-3.06c0 0 1.896-4.236 5.594-2.68 3.698 1.554 2.668 5.394 2.668 5.394z"
          fill="#141C2B"/>
    <path d="M138.884 22.419c-.216.723-.902 1.157-1.532.97-.63-.188-.964-.928-.748-1.652.216-.724.902-1.159 1.532-.97.63.19.964.928.748 1.652z"
          fill="#E2A18D"/>
</svg>
