<svg width="180" height="180" viewBox="0 0 180 180" fill="none" xmlns="http://www.w3.org/2000/svg">
    <g clip-path="url(#a)">
        <path d="M90.6 179.966c45.84 0 83.001-37.16 83.001-83s-37.161-83-83-83c-45.84 0-83 37.16-83 83s37.16 83 83 83z"
              fill="#EBEFF4" fill-opacity=".95"/>
        <path d="M39.6 27.62v46.637c0 3.328 9.897 6.028 22.105 6.028s22.104-2.698 22.104-6.028V27.62H39.6z"
              fill="#A9C8F9"/>
        <path d="M61.704 80.484c-12.508 0-22.304-2.736-22.304-6.228V27.42h44.61v46.836c-.002 3.494-9.798 6.228-22.306 6.228zM39.8 27.82v46.436c0 3.158 10.032 5.828 21.904 5.828s21.904-2.668 21.904-5.828V27.82H39.8z"
              fill="#fff"/>
        <path d="M61.705 33.64c12.207 0 22.104-2.698 22.104-6.027 0-3.33-9.897-6.029-22.104-6.029-12.208 0-22.104 2.7-22.104 6.029 0 3.329 9.896 6.028 22.104 6.028z"
              fill="#fff"/>
        <path d="M61.704 30.964c9.615 0 17.41-1.703 17.41-3.804 0-2.1-7.795-3.804-17.41-3.804s-17.41 1.704-17.41 3.804c0 2.101 7.795 3.804 17.41 3.804z"
              fill="#D3E1F9"/>
        <path d="M61.704 49.386c-12.508 0-22.304-2.736-22.304-6.228 0-.11.09-.2.2-.2.11 0 .2.09.2.2 0 3.158 10.032 5.828 21.904 5.828s21.904-2.667 21.904-5.828c0-.11.09-.2.2-.2.11 0 .2.09.2.2.002 3.495-9.796 6.228-22.304 6.228zM61.704 64.936c-12.508 0-22.304-2.736-22.304-6.228 0-.11.09-.2.2-.2.11 0 .2.09.2.2 0 3.158 10.032 5.828 21.904 5.828s21.904-2.668 21.904-5.828c0-.11.09-.2.2-.2.11 0 .2.09.2.2.002 3.492-9.796 6.228-22.304 6.228z"
              fill="#fff"/>
        <path d="M72.887 39.33v46.637c0 3.328 9.896 6.028 22.104 6.028 12.208 0 22.104-2.698 22.104-6.028V39.33H72.887z"
              fill="#A9C8F9"/>
        <path d="M94.99 92.194c-12.507 0-22.303-2.736-22.303-6.228V39.13h44.61v46.836c0 3.492-9.798 6.228-22.306 6.228zM73.088 39.53v46.436c0 3.158 10.031 5.828 21.903 5.828 11.873 0 21.907-2.668 21.907-5.828V39.53h-43.81z"
              fill="#fff"/>
        <path d="M94.99 45.349c12.208 0 22.105-2.7 22.105-6.028 0-3.33-9.897-6.029-22.104-6.029-12.208 0-22.104 2.7-22.104 6.029 0 3.329 9.896 6.028 22.104 6.028z"
              fill="#fff"/>
        <path d="M94.991 42.674c9.615 0 17.41-1.703 17.41-3.804 0-2.1-7.795-3.804-17.41-3.804s-17.41 1.703-17.41 3.804 7.795 3.804 17.41 3.804z"
              fill="#D3E1F9"/>
        <path d="M94.99 61.096c-12.507 0-22.303-2.735-22.303-6.227 0-.11.09-.2.2-.2.11 0 .2.09.2.2 0 3.157 10.031 5.828 21.903 5.828 11.873 0 21.905-2.669 21.905-5.829 0-.11.09-.2.2-.2.11 0 .2.09.2.2.002 3.494-9.796 6.228-22.305 6.228zM94.99 76.646c-12.507 0-22.303-2.736-22.303-6.228 0-.11.09-.2.2-.2.11 0 .2.09.2.2 0 3.158 10.031 5.828 21.903 5.828 11.873 0 21.905-2.668 21.905-5.828 0-.11.09-.2.2-.2.11 0 .2.09.2.2.002 3.492-9.796 6.228-22.305 6.228zM47.767 74.653h-.884a8.233 8.233 0 0 0-.336-1.257l.766-.442-1.498-2.593-.768.444a8.29 8.29 0 0 0-.918-.919l.444-.767-2.594-1.498-.442.766a8.172 8.172 0 0 0-1.256-.337v-.883h-2.994v.883c-.432.08-.85.193-1.256.337l-.442-.766-2.594 1.498.444.767a8.29 8.29 0 0 0-.918.919l-.768-.445-1.498 2.594.766.443a8.233 8.233 0 0 0-.336 1.255H29.8v2.995h.884c.08.431.192.85.336 1.255l-.766.442 1.498 2.595.768-.444c.282.33.588.635.918.917l-.444.768 2.594 1.498.442-.766c.404.144.824.256 1.256.337v.883h2.994v-.883c.432-.08.85-.192 1.256-.337l.442.766 2.594-1.498-.444-.768a8.29 8.29 0 0 0 .918-.918l.768.445 1.498-2.594-.766-.442c.144-.407.256-.825.336-1.257h.884v-2.993zm-2.816 3.913a6.216 6.216 0 0 1-3.75 3.75c-5.482 1.96-10.546-3.103-8.586-8.585a6.216 6.216 0 0 1 3.75-3.75c5.482-1.959 10.546 3.106 8.586 8.586z"
              fill="#fff"/>
        <path d="M35.104 51.526H33.69c-.126-.69-.308-1.36-.536-2.006l1.224-.706-2.392-4.144-1.226.708c-.45-.526-.94-1.018-1.468-1.468L30 42.684l-4.144-2.392-.706 1.224a12.99 12.99 0 0 0-2.006-.536v-1.414H18.36v1.414c-.69.126-1.36.308-2.006.536l-.706-1.224-4.144 2.392.708 1.226c-.526.45-1.018.94-1.468 1.468l-1.226-.708-2.392 4.144 1.224.706a12.99 12.99 0 0 0-.536 2.006H6.4v4.784h1.414c.126.69.308 1.36.536 2.006l-1.224.706 2.392 4.144 1.226-.708c.45.526.94 1.018 1.468 1.468l-.708 1.226 4.144 2.392.706-1.224c.648.23 1.318.41 2.006.536v1.414h4.784v-1.414c.69-.126 1.36-.308 2.006-.536l.706 1.224L30 65.152l-.708-1.226c.526-.45 1.018-.94 1.468-1.468l1.226.708 2.392-4.144-1.224-.706c.23-.648.41-1.318.536-2.006h1.414v-4.784zm-4.5 6.256a9.93 9.93 0 0 1-5.992 5.992c-8.758 3.13-16.848-4.96-13.718-13.718a9.93 9.93 0 0 1 5.992-5.992c8.76-3.13 16.85 4.96 13.718 13.718z"
              fill="#94BAF3"/>
        <path d="M165.6 32.142h-3.546a32.807 32.807 0 0 0-1.346-5.032l3.068-1.771-6-10.39-3.076 1.775a33.129 33.129 0 0 0-3.68-3.68l1.776-3.075-10.39-6-1.772 3.068a32.746 32.746 0 0 0-5.032-1.346V2.145h-11.998V5.69c-1.728.318-3.408.77-5.032 1.346L116.8 3.969l-10.39 6 1.776 3.075a33.129 33.129 0 0 0-3.68 3.68l-3.076-1.776-6 10.39L98.5 27.11a32.746 32.746 0 0 0-1.347 5.032h-3.546V44.14h3.546c.318 1.728.77 3.408 1.347 5.032l-3.069 1.773 6 10.39 3.076-1.776a33.129 33.129 0 0 0 3.68 3.68l-1.776 3.075 10.39 6 1.772-3.067a32.746 32.746 0 0 0 5.032 1.346v3.545h11.998v-3.546a32.807 32.807 0 0 0 5.032-1.346l1.772 3.069 10.39-6-1.776-3.076a33.129 33.129 0 0 0 3.68-3.68l3.076 1.776 5.998-10.39-3.068-1.773a32.746 32.746 0 0 0 1.346-5.031h3.546V32.143h.002zm-7.992 17.678a28.13 28.13 0 0 1-16.326 16.324c-25.524 9.648-49.33-14.158-39.68-39.682a28.124 28.124 0 0 1 16.326-16.323c25.524-9.648 49.33 14.158 39.68 39.681z"
              fill="#FCFCFC"/>
        <path d="M165.6 44.34a.2.2 0 0 1-.2-.2V32.342h-3.346a.198.198 0 0 1-.196-.164 32.41 32.41 0 0 0-1.337-5 .2.2 0 0 1 .087-.24l2.894-1.672-5.8-10.044-2.902 1.676a.2.2 0 0 1-.252-.044 33.076 33.076 0 0 0-3.658-3.658.2.2 0 0 1-.044-.252l1.677-2.902-10.045-5.8-1.672 2.894a.198.198 0 0 1-.239.088 32.872 32.872 0 0 0-5-1.338.202.202 0 0 1-.165-.196V2.344h-8.889a.2.2 0 0 1-.201-.2c0-.11.09-.2.201-.2h9.089c.11 0 .2.09.2.2v3.38c1.604.304 3.197.73 4.743 1.268l1.687-2.924a.2.2 0 0 1 .274-.074l10.39 6a.202.202 0 0 1 .075.274L151.279 13a33.386 33.386 0 0 1 3.467 3.468l2.933-1.692a.201.201 0 0 1 .152-.02.203.203 0 0 1 .121.094l6 10.39a.2.2 0 0 1-.073.274l-2.925 1.688a33.034 33.034 0 0 1 1.269 4.742h3.379c.11 0 .2.09.2.2v11.998a.202.202 0 0 1-.202.198z"
              fill="#2976E7"/>
        <path d="M156.623 38.142a26.92 26.92 0 0 1-7.38 18.554c-4.924 5.212-11.902 8.463-19.638 8.463a26.882 26.882 0 0 1-14.354-4.127c-7.606-4.78-12.662-13.243-12.662-22.891 0-14.922 12.096-27.017 27.016-27.017 14.922.002 27.018 12.097 27.018 27.018z"
              fill="#94BAF3"/>
        <path d="M149.242 56.696c-4.924 5.212-11.902 8.462-19.638 8.462a26.882 26.882 0 0 1-14.354-4.126l2.218-9.542h30.492l1.282 5.206z"
              fill="#141C2B"/>
        <path d="m102.214 28.314 16.982-.906-.644-11.342-16.338 2.614v9.634z" fill="#E2A18D"/>
        <path d="M107.638 23.242s-11.55-13.17-13.044-14.79a4.085 4.085 0 0 0-.88-.75C92.048 6.666 90.65 7.58 88.4 7.29c-2.552-.33-3.802-1.958-4.286-1.514-.336.308-.038 1.056 1.076 2.234-.95-.798-2.286-1.824-2.726-1.298-.476.634.952 2.024 1.856 2.824-1.096-.966-1.966-1.154-2.138-.798-.27.558.404 1.506 1.9 2.726-1.27-.554-1.66-.5-1.736-.15-.138.64 1.112 1.62 2.35 2.318 1.394.786 2.746.912 3.602.972 4.164 5.72 4.366 5.464 7.59 10.182 3.066 4.484 10.31 5.432 11.75-1.544z"
              fill="#E2A18D"/>
        <path d="M90.402 8.036c-1.578-1.998-1.724-3.052-1.398-3.292.546-.404 2.592.75 5.264 3.38-1.078.072-2.786-.16-3.866-.088z"
              fill="#E2A18D"/>
        <path d="M91.564 12.315a.2.2 0 0 1-.158-.076 3.053 3.053 0 0 0-1.44-1.019c-1.012-.336-1.898-.027-2.232.118a.202.202 0 0 1-.264-.101.202.202 0 0 1 .102-.264c.376-.167 1.376-.513 2.52-.133a3.465 3.465 0 0 1 1.628 1.15.198.198 0 0 1-.034.28.183.183 0 0 1-.122.045zM89.893 7.624a.2.2 0 0 1-.01-.4c.3-.016.588-.044.866-.07.606-.058 1.18-.114 1.754-.032a.2.2 0 0 1 .17.226.202.202 0 0 1-.226.17c-.526-.076-1.076-.022-1.658.034-.282.028-.574.056-.884.072h-.012zM87.348 9.058c-.012 0-.022 0-.034-.002a5.216 5.216 0 0 1-2.166-.904.2.2 0 0 1-.046-.278c.064-.09.19-.11.28-.046a4.869 4.869 0 0 0 2.002.834.2.2 0 0 1 .164.23.205.205 0 0 1-.2.166zM86.342 10.452c-.012 0-.022 0-.034-.002a5.289 5.289 0 0 1-.932-.248 5.29 5.29 0 0 1-1.234-.654.199.199 0 1 1 .232-.324 4.868 4.868 0 0 0 2.002.834.2.2 0 0 1 .164.23.201.201 0 0 1-.198.164zM86.206 12.54c-.012 0-.022 0-.034-.002a5.292 5.292 0 0 1-.932-.248 5.291 5.291 0 0 1-1.234-.654.201.201 0 0 1-.046-.28c.064-.09.19-.11.278-.046a4.868 4.868 0 0 0 2.002.834.2.2 0 0 1 .164.23.203.203 0 0 1-.198.166z"
              fill="#141C2B"/>
        <path d="M145.251 31.574s3.792-17.714-10.386-17.01c-6.838.34-16.946.672-28.182 3.232l3.09 11.054h2.032l4.822 25.85h33.02l-4.396-23.126z"
              fill="#FCFCFC"/>
        <path d="M130.813 26.46a.2.2 0 0 1-.192-.258l2.152-7.183a.2.2 0 1 1 .382.116l-2.152 7.184a.197.197 0 0 1-.19.142zM89.422 50.736a3.578 3.578 0 0 0 3.242 2.062h22.302l-9.988-21.346H80.4l9.022 19.284z"
              fill="#141C2B"/>
        <path d="M129.604 50.656c0 1.19-.964 2.154-2.154 2.154h-20.564l-1.008-2.154h23.726z" fill="#141C2B"/>
        <path d="M143.068 32.604c-2.552 5.292-7.68 19.4-14.256 16.628-5.438-2.292.198-15.712 2.39-21.132l11.866 4.504z"
              fill="#E2A18D"/>
        <path d="M131.95 38.56c-10.402 2.412-17.826 3.926-20.1 4.482-.238.058-.658.16-1.15.434-1.818 1.018-1.684 2.786-3.108 4.728-1.616 2.204-3.774 2.53-3.61 3.208.114.472.964.578 2.632.146-1.23.474-2.87 1.188-2.606 1.868.346.768 2.372.154 3.58-.278-1.462.522-2.082 1.236-1.84 1.578.38.538 1.608.398 3.512-.368-1.168.896-1.318 1.286-1.03 1.536.524.456 2.078-.202 3.364-.994 1.446-.892 2.258-2.086 2.752-2.85 7.46-.936 9.284-1.068 15.292-1.954 6.824-1.006 7.652-9.138 2.312-11.536z"
              fill="#E2A18D"/>
        <path d="M109.312 46.728c-2.668.442-3.724.036-3.78-.39-.096-.714 2.028-2.024 5.846-3.16-.488 1.04-1.58 2.508-2.066 3.55z"
              fill="#E2A18D"/>
        <path d="M106.632 51.68a.2.2 0 0 1-.18-.114.198.198 0 0 1 .094-.266 5.181 5.181 0 0 0 1.808-1.436.202.202 0 0 1 .282-.032c.086.068.1.194.032.282a5.616 5.616 0 0 1-.708.738c-.374.322-.79.596-1.238.81a.249.249 0 0 1-.09.018zM107.415 53.332a.2.2 0 0 1-.18-.114.198.198 0 0 1 .094-.266 5.157 5.157 0 0 0 1.808-1.436.202.202 0 0 1 .282-.032c.086.068.1.194.032.282a5.494 5.494 0 0 1-1.946 1.548.257.257 0 0 1-.09.018zM109.287 54.528a.2.2 0 0 1-.18-.114.198.198 0 0 1 .094-.266c.416-.2.802-.452 1.15-.752.24-.206.46-.436.658-.684a.202.202 0 0 1 .282-.032c.086.068.1.194.032.282a5.623 5.623 0 0 1-.708.738c-.374.322-.79.596-1.238.81a.249.249 0 0 1-.09.018zM121.475 15.8h7.162l-3.582 3.73-3.58-3.73z"
              fill="#141C2B"/>
        <path d="M125.726 17.856h-1.342l-1.482 18.81 2.152 2.18 2.154-2.18-1.482-18.81z" fill="#141C2B"/>
        <path d="M121.504 15.8h7.132l-6.522-10.424c-.582-1.052-2.384.5-3.436 1.08a2.174 2.174 0 0 0-.852 2.956l3.678 6.388z"
              fill="#E2A18D"/>
        <path d="M118.76 15.748c1.744.284 3.754-4.318 3.754-4.318l.366-5.082a4.502 4.502 0 0 0-6.026-2.056 4.499 4.499 0 0 0-2.058 6.022s2.188 5.146 3.964 5.434z"
              fill="#E2A18D"/>
        <path d="M115.782 11.148s-.55 1.744-.336 2.028c.256.338 1.63-.052 1.63-.052s-1.322-1.958-1.294-1.976z"
              fill="#E2A18D"/>
        <path d="M121.262 1.65s4.024 3.324 2.022 6.396l-1.1-.21-1.312 1.722-.49-2.474a1.5 1.5 0 0 0-2.148-.878l-3.636 1.964-.936-2.004c1.67-2.762 4.08-4.446 7.6-4.516z"
              fill="#141C2B"/>
        <path d="M116.902 3.209a.856.856 0 0 0 .62-1.042c-.118-.458-.644-.978-1.104-.86-.46.116-.676.824-.56 1.282a.86.86 0 0 0 1.044.62z"
              fill="#141C2B"/>
        <path d="M116.442 3.72a.859.859 0 0 0 .036-1.212c-.326-.344-1.038-.542-1.384-.216-.344.326-.19 1.048.134 1.394a.863.863 0 0 0 1.214.034z"
              fill="#141C2B"/>
        <path d="M115.466 4.828a1.16 1.16 0 0 0-.24-1.626c-.516-.384-1.514-.476-1.898.038-.384.516-.006 1.444.508 1.828a1.167 1.167 0 0 0 1.63-.24zM118.15 2.666a.857.857 0 0 0 .654-1.022c-.102-.462-.612-.998-1.076-.896-.462.102-.702.802-.6 1.264a.857.857 0 0 0 1.022.654z"
              fill="#141C2B"/>
        <path d="M114.618 5.512a1.037 1.037 0 0 0-1.094-.974c-.57.034-1.306.54-1.272 1.11.034.57.822.99 1.392.956.57-.032 1.006-.52.974-1.092zM119.254 2.446a1.07 1.07 0 0 0 1.036-1.102c-.018-.59-.522-1.362-1.112-1.344-.59.018-1.044.82-1.026 1.41a1.067 1.067 0 0 0 1.102 1.036z"
              fill="#141C2B"/>
        <path d="M120.272 2.094a.834.834 0 0 0 1.106-.414c.192-.42.106-1.134-.314-1.324-.42-.192-1.014.214-1.206.632a.835.835 0 0 0 .414 1.106zM114.982 6.776a1.26 1.26 0 0 0-1.638-.708c-.648.256-1.304 1.124-1.048 1.772.256.648 1.33.83 1.978.574.646-.256.964-.99.708-1.638z"
              fill="#141C2B"/>
        <path d="M123.672 5.98a1.552 1.552 0 1 1-2.028 2.35 1.552 1.552 0 0 1 2.028-2.35z" fill="#E2A18D"/>
        <path d="M119.032 95.444s-52.99-1.758-53.49.186l-15.596 60.584h85.526l15.596-60.582c.498-1.946-32.036-.188-32.036-.188z"
              fill="#fff"/>
        <path d="M152.756 89.06H67.232l-1.692 6.57h85.526l1.69-6.57z" fill="#2256AA"/>
        <path d="M71.616 93.406c.704-.62.886-1.563.407-2.108-.479-.545-1.438-.484-2.142.135-.705.62-.887 1.563-.408 2.108.48.545 1.439.484 2.143-.135zM76.443 93.405c.704-.62.887-1.563.407-2.108-.479-.545-1.438-.485-2.142.134-.704.62-.887 1.564-.408 2.108.48.545 1.439.485 2.143-.134zM81.271 93.405c.704-.62.887-1.563.408-2.108-.48-.545-1.44-.484-2.143.135-.704.62-.887 1.563-.407 2.108.479.545 1.438.485 2.142-.135z"
              fill="#fff"/>
        <path d="M116.664 115.195H65.25l.582-2.26h51.412l-.58 2.26zM138.564 115.195h-18.478l.582-2.26h18.478l-.582 2.26zM102.01 122.494H87.182l.582-2.26h14.826l-.58 2.26zM134.86 122.494h-29.428l.582-2.26h29.428l-.582 2.26zM96.372 144.395H81.546l.58-2.26h14.828l-.582 2.26zM129.224 144.395H99.796l.582-2.26h29.426l-.58 2.26zM125.68 129.795H94.428l.582-2.26h31.252l-.582 2.26zM109.202 137.094H92.55l.58-2.26h16.654l-.582 2.26z"
              fill="#2256AA"/>
        <path d="M74.642 109.154a.197.197 0 0 1-.16-.08l-2.838-3.822 4.762-3.788a.202.202 0 0 1 .282.032.202.202 0 0 1-.032.282l-4.46 3.548 2.609 3.512a.2.2 0 0 1-.043.28.246.246 0 0 1-.12.036zM80.65 109.155a.197.197 0 0 1-.156-.076.202.202 0 0 1 .032-.282l4.46-3.548-2.608-3.512a.2.2 0 0 1 .042-.28.2.2 0 0 1 .28.042l2.84 3.824-4.762 3.788a.22.22 0 0 1-.128.044zM76.135 108.929a.201.201 0 0 1-.162-.318l4.944-6.91a.201.201 0 0 1 .326.234l-4.944 6.91a.206.206 0 0 1-.164.084z"
              fill="#363E44"/>
        <path d="M151.384 70.268s-33.726-1.12-34.044.118l-9.926 38.558h54.434l9.926-38.558c.316-1.238-20.39-.118-20.39-.118z"
              fill="#141C2B"/>
        <path d="M172.848 66.204h-54.434l-1.076 4.182h54.434l1.076-4.182z" fill="#0045AA"/>
        <path d="M121.6 68.324c-.136.526-.67.952-1.196.952-.526 0-.842-.426-.706-.952s.67-.952 1.196-.952c.526 0 .842.428.706.952zM124.672 68.324c-.136.526-.67.952-1.196.952-.526 0-.842-.426-.706-.952s.67-.952 1.196-.952c.526 0 .842.428.706.952zM127.746 68.324c-.136.526-.67.952-1.196.952-.526 0-.842-.426-.706-.952s.67-.952 1.196-.952c.526 0 .84.428.706.952z"
              fill="#fff"/>
        <path d="M149.876 82.838h-32.722l.37-1.438h32.722l-.37 1.438z" fill="#0045AA"/>
        <path d="M163.815 82.838h-11.76l.37-1.438h11.76l-.37 1.438z" fill="#49A211"/>
        <path d="M140.548 87.484h-9.436l.37-1.438h9.438l-.372 1.438z" fill="#F5B83D"/>
        <path d="M161.459 87.484h-18.73l.37-1.438h18.73l-.37 1.438z" fill="#0045AA"/>
        <path d="M136.962 101.422h-9.438l.37-1.438h9.438l-.37 1.438z" fill="#49A211"/>
        <path d="M157.871 101.422h-18.73l.37-1.438h18.73l-.37 1.438z" fill="#F5B83D"/>
        <path d="M155.617 92.13h-19.892l.37-1.438h19.892l-.37 1.438z" fill="#49A211"/>
        <path d="M145.126 96.776h-10.598l.37-1.438h10.598l-.37 1.438z" fill="#0045AA"/>
        <path d="M123.13 79.066a.197.197 0 0 1-.16-.08l-1.848-2.49 3.086-2.454a.202.202 0 0 1 .282.032.202.202 0 0 1-.032.282l-2.784 2.214 1.618 2.178a.2.2 0 0 1-.162.318zM126.954 79.066a.197.197 0 0 1-.156-.076.202.202 0 0 1 .032-.282l2.784-2.214-1.618-2.18a.2.2 0 0 1 .042-.28.2.2 0 0 1 .28.042l1.848 2.49-3.086 2.454a.193.193 0 0 1-.126.046zM124.08 78.922a.201.201 0 0 1-.162-.318l3.146-4.398a.201.201 0 0 1 .326.234l-3.146 4.398a.2.2 0 0 1-.164.085z"
              fill="#FCFCFC"/>
        <path d="m75.337 179.95-6.324-24.128-32.072 1.27-1.424 22.858h18.46l.318-6.028 4.474 6.028h16.568z"
              fill="#363E44"/>
        <path d="M57.993 104.039c-1.42-3.098-2.52-4.78-4.472-5.494-2.624-.96-5.198.722-5.464.902-.17.114-2.684 1.602-2.868 4.534-.182 2.896 1.178 5.788 3.612 7.318l.558 6.388a3.727 3.727 0 0 0 4.038 3.388l.464-.04a3.727 3.727 0 0 0 3.388-4.038l-.372-4.266c1.292-.222 2.288-.69 2.642-1.384.636-1.246.146-3.66-1.526-7.308z"
              fill="#E2A18D"/>
        <path d="M54.342 98.214c-2.35-1.944-7.74-.236-9.62 2.762-2.544 4.054-.614 9.692 2.86 11.368 1.166.562 3.085 1.206 4.97.124 1.1-.632.726-2.3.627-2.702-1.086-.102-1.936-.964-2.014-1.998-.078-1.042.648-1.988 1.56-2.226.606-.158 1.134.038 1.349.132 1.541-3.164 1.944-6.074.268-7.46z"
              fill="#363E44"/>
        <path d="M35.501 132.274c-6.062-2.3-23.964-7.87-21.542-15.36 2.002-6.196 19.196-.002 25.364 1.892l-3.822 13.468z"
              fill="#E2A18D"/>
        <path d="M22.511 123.27c5.436-10.448 9.492-17.758 10.654-20.062.122-.242.338-.666.46-1.274.452-2.254-1.128-3.412-1.736-5.998-.69-2.934.584-4.978-.102-5.326-.478-.242-1.174.392-2.01 2.102.486-1.37 1.062-3.258.304-3.524-.892-.26-1.83 1.878-2.334 3.2.61-1.6.456-2.632-.004-2.676-.724-.068-1.486 1.062-2.21 3.208.086-1.62-.134-2.028-.55-1.966-.758.112-1.322 1.886-1.578 3.532-.29 1.852.13 3.388.416 4.352-4.564 6.924-5.762 8.546-9.326 14.218-4.05 6.442 2.174 12.97 8.016 10.214z"
              fill="#E2A18D"/>
        <path d="M31.893 98.438c1.542-2.554 2.64-3.146 3.038-2.89.668.432.242 3.152-1.542 7.168-.524-1.156-.972-3.124-1.496-4.278z"
              fill="#E2A18D"/>
        <path d="M29.733 95.624a.199.199 0 0 1-.196-.162 6.02 6.02 0 0 1-.11-1.12 6.205 6.205 0 0 1 .208-1.614.2.2 0 0 1 .244-.142.2.2 0 0 1 .142.244 5.664 5.664 0 0 0-.092 2.554.2.2 0 0 1-.158.234c-.012.006-.024.006-.038.006zM27.788 95.096a.199.199 0 0 1-.195-.162 6.023 6.023 0 0 1-.11-1.12 6.217 6.217 0 0 1 .207-1.614.2.2 0 0 1 .244-.142.2.2 0 0 1 .142.244 5.665 5.665 0 0 0-.091 2.554.2.2 0 0 1-.159.234.126.126 0 0 1-.038.006zM25.443 95.806a.199.199 0 0 1-.196-.162 6.023 6.023 0 0 1-.11-1.12 6.216 6.216 0 0 1 .208-1.614.2.2 0 0 1 .244-.142.2.2 0 0 1 .142.244 5.74 5.74 0 0 0-.092 2.554.2.2 0 0 1-.158.234c-.014.006-.026.006-.038.006z"
              fill="#363E44"/>
        <path d="M76.57 122.388c13.277 2.824 23.705 5.686 22.567 9.946-2.41 9.018-12.428 4.384-21.332 4.304-.336-3.656-.926-9.816-1.236-14.25z"
              fill="#E2A18D"/>
        <path d="M87.77 130.824s-3.353-9.018-4.793-13.924c-1.512-5.152-2.994-12.98-1.898-13.172.626-.11 1.048.916 1.996 3.732.094-.19.474-.688 1.07-.694.882-.01 1.138.692 1.184.746.026-.068.336-.782.926-.89.664-.12 1.164.186 1.456.628.072-.164.398-.744.968-.83.586-.088 1.262.244 1.428.84.304 1.094 1.144 4.36 1.746 5.902 1.186 3.03 6.84 13.23 7.396 18.062-4.108-.932-11.48-.4-11.48-.4z"
              fill="#E2A18D"/>
        <path d="M88.897 108.958a.2.2 0 0 1-.028-.398l.95-.138a.2.2 0 0 1 .226.17.2.2 0 0 1-.17.226l-.95.138-.028.002zM86.485 109.316a.2.2 0 0 1-.022-.4l1.078-.122a.201.201 0 0 1 .222.176.201.201 0 0 1-.176.222l-1.078.122c-.008.002-.016.002-.024.002zM84.144 109.564a.2.2 0 0 1-.03-.398c.175-.026.335-.048.493-.07.16-.022.323-.044.5-.07a.2.2 0 1 1 .058.394l-.502.072-.492.07-.028.002zM82.233 110.01a.2.2 0 0 1-.044-.394l.93-.206a.2.2 0 1 1 .086.39l-.93.206a.3.3 0 0 1-.042.004z"
              fill="#363E44"/>
        <path d="m35.755 135.974-8.744-3.214 3.502-16.952s27.312-1.774 48.84 6.602l-.448 16.464-7.08.592 4.758 21.148c-17.282 2.204-31.316 1.95-43.112 0l2.284-24.64z"
              fill="#2976E7"/>
        <path d="M36.391 135.38c-.01 0-.02 0-.032-.002a.199.199 0 0 1-.166-.228l.868-5.572a.198.198 0 0 1 .228-.166c.11.018.184.12.166.228l-.868 5.572a.198.198 0 0 1-.196.168z"
              fill="#363E44"/>
        <path d="M134.558 122.428c.708-3.34 1.416-5.226 3.166-6.352 2.354-1.516 5.24-.434 5.54-.316.192.074 2.974.976 3.798 3.804.814 2.792.12 5.916-1.926 7.946l.856 6.366a3.734 3.734 0 0 1-3.204 4.198l-.462.062a3.734 3.734 0 0 1-4.198-3.204l-.572-4.252c-1.312.066-2.388-.172-2.886-.774-.896-1.076-.946-3.544-.112-7.478zM171.346 160.702c-11.832 5.33-19.434 9.018-22.042 10.156-.274.12-.754.332-1.432.428-2.508.356-3.682-1.454-6.49-2.282-3.186-.94-5.512.334-5.854-.444-.236-.54.506-1.268 2.436-2.08-1.538.448-3.652.966-3.896.114-.23-.998 2.18-1.896 3.666-2.37-1.798.572-2.924.338-2.944-.17-.03-.8 1.262-1.568 3.666-2.232-1.788-.006-2.222-.274-2.128-.726.17-.828 2.158-1.336 3.984-1.516 2.056-.202 3.72.352 4.762.728 7.9-4.592 13.148-7.58 19.454-11.418 1.29-.788 6.818 11.812 6.818 11.812z"
              fill="#E2A18D"/>
        <path d="M160.548 135.198c11.386 13.552 15.958 22.046 11.092 25.344-2.758 1.868-12.162-3.328-21.652-13.618a604.936 604.936 0 0 1 10.56-11.726zM110.101 167.618c12.962.63 21.38 1.27 24.224 1.374.298.01.824.032 1.488-.126 2.464-.586 2.896-2.7 5.206-4.5 2.622-2.042 5.252-1.706 5.286-2.554.022-.59-.934-.996-3.03-1.044 1.596-.146 3.752-.438 3.668-1.32-.15-1.012-2.724-.968-4.278-.864 1.882-.126 2.846-.756 2.676-1.236-.266-.756-1.748-.998-4.23-.736 1.662-.66 1.968-1.068 1.716-1.456-.462-.708-2.498-.454-4.262.046-1.988.564-3.334 1.69-4.164 2.42-9.032-1.382-15.01-2.242-22.282-3.508-1.488-.256-2.018 13.504-2.018 13.504z"
              fill="#E2A18D"/>
        <path d="M117.148 145.917c-9.466 10.774-13.54 18.404-8.7 21.244 3.116 1.828 10.298-1.8 18.23-9.89-2.992-3.588-5.816-7.09-9.53-11.354z"
              fill="#E2A18D"/>
        <path d="M116.29 165.844a.2.2 0 0 1-.098-.374c3.17-1.786 6.746-4.67 10.344-8.338a.2.2 0 1 1 .284.28c-3.624 3.696-7.23 6.604-10.432 8.408a.236.236 0 0 1-.098.024z"
              fill="#141C2B"/>
        <path d="M165.783 136.784s-9.296-5.184-22.594-3.772c-13.604 1.444-29.008 10.442-29.008 10.442l10.24 16.052 2.498 18.71 40.3-9.216-2.118-14.01.682-18.206z"
              fill="#A9C8F9"/>
        <path d="M136.848 115.936c1.872-2.416 7.514-1.928 10.01.59 3.376 3.406 2.728 9.34-.302 11.74-1.016.804-2.752 1.856-4.832 1.21-1.214-.378-1.214-2.09-1.206-2.504 1.04-.338 1.682-1.366 1.53-2.394-.152-1.036-1.068-1.802-2.014-1.834-.626-.022-1.1.286-1.29.426-2.198-2.756-3.228-5.512-1.896-7.234z"
              fill="#141C2B"/>
    </g>
    <defs>
        <clipPath id="a">
            <path fill="#fff" d="M0 0h180v180H0z"/>
        </clipPath>
    </defs>
</svg>
