<svg width="59" height="54" viewBox="0 0 59 54" fill="none"
     xmlns="http://www.w3.org/2000/svg">
    <path d="M55.4949 38.2817L43.4954 29.0102L43.7341 30.8032C43.8486 31.5326 43.906 32.2699 43.9059 33.0084C43.9045 33.6495 43.8631 34.29 43.7818 34.9259L52.6597 41.7908C53.484 42.3779 54.0606 43.2528 54.2764 44.2443C54.4923 45.2358 54.3321 46.2725 53.827 47.1515C53.3219 48.0306 52.5084 48.6887 51.5456 48.9971C50.5829 49.3054 49.5402 49.2418 48.6217 48.8187L35.2572 43.2673C37.0672 42.2437 38.5736 40.7551 39.6221 38.954C40.6705 37.153 41.2232 35.1043 41.2235 33.0179C41.2212 32.2684 41.1509 31.5207 41.0135 30.784L37.9683 7.7732C37.7005 5.71169 36.6952 3.81843 35.1398 2.44672C33.5843 1.07502 31.5851 0.318604 29.5152 0.318604C27.4453 0.318604 25.4461 1.07502 23.8906 2.44672C22.3352 3.81843 21.3298 5.71169 21.0621 7.7732L19.067 22.8453L20.4894 21.7427C21.0634 21.2795 21.6731 20.8627 22.3127 20.4962C22.856 20.1827 23.417 19.901 23.9928 19.6525L25.4724 8.50188C25.5701 7.49429 26.0377 6.55928 26.7842 5.87901C27.5306 5.19873 28.5025 4.82188 29.5104 4.82188C30.5184 4.82188 31.4902 5.19873 32.2367 5.87901C32.9831 6.55928 33.4508 7.49429 33.5484 8.50188L35.4576 22.8836C33.3245 21.6261 30.8503 21.0778 28.3884 21.3172C25.9264 21.5565 23.6028 22.5712 21.7495 24.2163L3.50688 38.3105C1.85828 39.5727 0.724143 41.3951 0.316693 43.4366C-0.0907561 45.4781 0.2564 47.5987 1.29321 49.4016C2.33002 51.2046 3.98543 52.5663 5.94964 53.232C7.91385 53.8977 10.0523 53.8217 11.9647 53.0182L25.9497 47.2176L24.2887 46.5272C23.6077 46.2563 22.9473 45.9359 22.3127 45.5684C21.7671 45.2538 21.244 44.9014 20.7471 44.5138L10.3801 48.8187C9.46154 49.2418 8.41887 49.3054 7.45612 48.9971C6.49337 48.6887 5.67984 48.0306 5.17476 47.1515C4.66968 46.2725 4.50941 45.2358 4.72531 44.2443C4.94121 43.2528 5.51774 42.3779 6.34207 41.7908L17.7974 32.9317C17.7974 32.9317 17.7974 32.9892 17.7974 33.0179C17.7993 35.4186 18.5319 37.7613 19.8968 39.732C21.2618 41.7027 23.1939 43.2072 25.4342 44.044L47.0561 52.9894C48.9678 53.7865 51.1028 53.8579 53.063 53.1901C55.0231 52.5224 56.6744 51.1612 57.7087 49.3605C58.743 47.5598 59.0897 45.4427 58.6841 43.4041C58.2785 41.3655 57.1484 39.5448 55.5044 38.2817H55.4949ZM22.2363 32.9892C22.2382 31.5522 22.6642 30.148 23.4604 28.9542C24.2567 27.7603 25.3874 26.8303 26.7098 26.2817C28.0321 25.7331 29.4867 25.5905 30.8897 25.872C32.2928 26.1535 33.5812 26.8465 34.5922 27.8632C35.6032 28.88 36.2914 30.175 36.5698 31.5845C36.8483 32.994 36.7044 34.4548 36.1565 35.7822C35.6085 37.1096 34.681 38.2441 33.4913 39.0422C32.3016 39.8404 30.903 40.2664 29.4722 40.2664C28.5212 40.2664 27.5795 40.0781 26.701 39.7122C25.8224 39.3464 25.0243 38.8102 24.3523 38.1343C23.6802 37.4585 23.1474 36.6562 22.7844 35.7733C22.4213 34.8905 22.235 33.9444 22.2363 32.9892Z"
          fill="#D5E2F5"/>
</svg>
