<svg width="128" height="756" viewBox="0 0 128 756" fill="none" xmlns="http://www.w3.org/2000/svg">
    <g clip-path="url(#clip0_2007_164287)">
        <ellipse cx="-43.5" cy="157.5" rx="157.5" ry="157.5" transform="rotate(180 -43.5 157.5)" fill="#0045AA"/>
        <path fill-rule="evenodd" clip-rule="evenodd"
              d="M26.0238 755.388C26.0365 755.366 26.0493 755.343 26.062 755.32C27.0537 753.529 27.991 751.691 28.8711 749.806L28.9375 749.663C29.0092 749.509 29.0803 749.355 29.151 749.2C29.1621 749.176 29.1731 749.152 29.1841 749.128L29.1868 749.129L122.072 550.163L122.065 550.159C122.216 549.849 122.364 549.538 122.51 549.224C137.755 516.569 122.418 475.948 88.2548 458.494C57.4843 442.774 21.9358 451.21 4.0397 476.9L-135.719 637.163C-141.29 643.4 -146.048 650.546 -149.778 658.536C-171.791 705.69 -149.645 764.347 -100.312 789.551C-52.977 813.734 2.1879 798.33 26.0238 755.388ZM89.6967 533.933C95.8531 520.744 90.4061 500.255 71.7584 490.728C55.6804 482.514 40.4064 488.022 33.7538 497.572L32.6269 499.19L-108.569 661.1L-108.712 661.26C-111.938 664.872 -114.736 669.054 -116.963 673.826C-129.889 701.514 -117.633 740.041 -83.8157 757.317C-50.7065 774.232 -16.3495 761.071 -3.94928 734.529C-3.94719 734.525 -3.94513 734.52 -3.94304 734.516L-3.90392 734.432C-3.90282 734.429 -3.9017 734.427 -3.9006 734.424C-3.85194 734.32 -3.80289 734.213 -3.75342 734.105L11.8925 699.867L12.1674 700.006L74.5739 566.327L74.0516 566.056L89.5086 534.328C89.5712 534.199 89.6342 534.067 89.6967 533.933Z"
              fill="#5F99ED"/>
    </g>
    <defs>
        <clipPath id="clip0_2007_164287">
            <rect width="128" height="836" fill="white"/>
        </clipPath>
    </defs>
</svg>
