<svg width="128" height="756" viewBox="0 0 128 756" fill="none" xmlns="http://www.w3.org/2000/svg">
    <g clip-path="url(#clip0_2007_164290)">
        <path fill-rule="evenodd" clip-rule="evenodd"
              d="M38.7791 205.208C38.8003 205.222 38.8214 205.235 38.8426 205.249C40.4951 206.32 42.197 207.342 43.9476 208.312L44.08 208.385C44.2232 208.464 44.3665 208.543 44.5099 208.621C44.5323 208.633 44.5547 208.645 44.5771 208.657L44.5756 208.66L229.338 311.034L229.343 311.027C229.63 311.193 229.919 311.356 230.21 311.517C260.534 328.319 300.485 316.307 319.445 284.688C336.521 256.209 330.743 221.536 307.27 202.654L162.671 57.8785C157.052 52.1178 150.508 47.0765 143.09 42.9658C99.3017 18.7035 41.6108 36.0489 14.2336 81.708C-12.0351 125.518 -0.850922 179.477 38.7791 205.208ZM247.007 281.049C259.255 287.834 279.258 283.972 289.606 266.713C298.529 251.832 294.24 236.809 285.514 229.79L284.036 228.601L137.951 82.337L137.807 82.1891C134.553 78.8532 130.725 75.8901 126.293 73.4346C100.581 59.1882 62.8387 68.3842 44.0719 99.6831C25.6978 130.327 36.0853 164.17 60.7317 177.836C60.7359 177.838 60.74 177.841 60.7441 177.843L60.8222 177.886C60.8244 177.887 60.8266 177.889 60.8288 177.89C60.9261 177.943 61.025 177.998 61.1256 178.052L92.9409 195.345L92.7902 195.599L216.926 264.381L217.22 263.898L246.641 280.842C246.761 280.911 246.883 280.98 247.007 281.049Z"
              fill="#11A24B"/>
        <ellipse cx="188" cy="633" rx="175" ry="175" transform="rotate(-90 188 633)" fill="#FFC72E"/>
    </g>
    <defs>
        <clipPath id="clip0_2007_164290">
            <rect width="128" height="836" fill="white"/>
        </clipPath>
    </defs>
</svg>
