<svg fill="none" height="48" viewBox="0 0 48 48" width="48" xmlns="http://www.w3.org/2000/svg">
    <path d="m0 24c0-13.2548 10.7452-24 24-24s24 10.7452 24 24-10.7452 24-24 24-24-10.7452-24-24z" fill="#fff"/>
    <path d="m24 15.8281c-4.7932 0-8.6694 3.9179-8.6694 8.6694v1.6672c0 .5835-.4585 1.0003-1.0003 1.0003-.5835 0-1.0003-.4168-1.0003-1.0003v-1.6672c0-5.8768 4.7515-10.67 10.67-10.67 5.8768 0 10.67 4.7932 10.67 10.67v6.0436c0 2.0006-1.6672 3.6678-3.7095 3.6678l-4.5848-.0417c-.3334.6252-1.0003 1.0003-1.7088 1.0003h-1.3338c-1.1253 0-2.0006-.8753-2.0006-2.0006 0-1.0837.8753-2.0007 2.0006-2.0007h1.3338c.7085 0 1.3754.4168 1.7088 1.0004l4.6265.0416c.9169 0 1.6672-.7502 1.6672-1.6671v-6.0436c0-4.7515-3.9179-8.6694-8.6694-8.6694zm-4.6681 6.6688h.6668c.7086 0 1.3338.6252 1.3338 1.3337v4.6681c0 .7503-.6252 1.3338-1.3338 1.3338h-.6668c-1.5005 0-2.6675-1.167-2.6675-2.6675v-2.0006c0-1.4588 1.167-2.6675 2.6675-2.6675zm9.3362 0c1.4588 0 2.6675 1.2087 2.6675 2.6675v2.0006c0 1.5005-1.2087 2.6675-2.6675 2.6675h-.6668c-.7503 0-1.3338-.5835-1.3338-1.3338v-4.6681c0-.7085.5835-1.3337 1.3338-1.3337z"
          fill="#1d6ce2"/>
</svg>