<svg fill="none" height="48" viewBox="0 0 48 48" width="48" xmlns="http://www.w3.org/2000/svg">
    <path d="m0 24c0-13.2548 10.7452-24 24-24s24 10.7452 24 24-10.7452 24-24 24-24-10.7452-24-24z" fill="#fff"/>
    <path d="m33.4611 15.5364c-.4168-.3752-.4168-1.0003 0-1.3755.3752-.4168 1.0003-.4168 1.3755 0l2.6675 2.6675c.2084.1668.2917.4168.2917.7086 0 .2501-.0833.5001-.2917.7085l-2.6675 2.6675c-.3752.3752-1.0003.3752-1.3755 0-.4168-.4168-.4168-1.0419 0-1.4171l.9587-.9586-7.2523-.0417c-.5835 0-1.0003-.4168-1.0003-1.0003 0-.5418.4168-1.0003 1.0003-1.0003h7.2523zm-17.9222 14.0043-.9587.9587h7.2523c.5418 0 1.0003.4585 1.0003 1.0003 0 .5835-.4585 1.0003-1.0003 1.0003h-7.2939l.9586.9586c.4168.4168.4168 1.042 0 1.4171-.3751.4168-1.0003.4168-1.3754 0l-2.6675-2.6675c-.2084-.1667-.2918-.4168-.2918-.7085 0-.2501.0834-.5002.2918-.7086l2.6675-2.6675c.3751-.3751 1.0003-.3751 1.3754 0 .4168.4168.4168 1.042 0 1.4171zm-.3751-13.0457h10.0448c-.1251.3334-.2084.6669-.2084 1.0003 0 1.2087.9586 2.1674 2.1673 2.1674h4.8765c-.1667.7085.0417 1.5004.5835 2.0423.8336.8752 2.2091.8752 3.0427 0l.8336-.792v8.9195c0 1.5005-1.2088 2.6675-2.6675 2.6675h-10.0865c.125-.2918.25-.6252.25-1.0003 0-1.167-1.0003-2.1674-2.1673-2.1674h-4.9182c.1667-.7085 0-1.4587-.5835-2.0006-.8336-.8753-2.209-.8753-3.0426 0l-.7919.7919v-8.9611c0-1.4588 1.167-2.6675 2.6675-2.6675zm2.6675 2.6675h-2.6675v2.6675c1.4587 0 2.6675-1.167 2.6675-2.6675zm16.005 8.0025c-1.5005 0-2.6675 1.2087-2.6675 2.6675h2.6675zm-9.3363 1.3337c2.209 0 4.0013-1.7922 4.0013-4.0012s-1.7923-4.0013-4.0013-4.0013-4.0012 1.7923-4.0012 4.0013 1.7922 4.0012 4.0012 4.0012z"
          fill="#1d6ce2"/>
</svg>