<svg fill="none" height="48" viewBox="0 0 48 48" width="48" xmlns="http://www.w3.org/2000/svg">
    <path d="m0 24c0-13.2548 10.7452-24 24-24s24 10.7452 24 24-10.7452 24-24 24-24-10.7452-24-24z" fill="#fff"/>
    <path d="m19.165 16.495c0-1.4588 1.167-2.6675 2.6675-2.6675h6.6688v5.335c0 .7502.5835 1.3337 1.3337 1.3337h5.335v12.0038c0 1.5005-1.2087 2.6675-2.6675 2.6675h-9.4613c.0834-.2084.1251-.4168.1251-.6669v-3.3344c.0416 0 .0833-.0416.125-.0416.2917-.1251.6252-.3335.8753-.6669.25-.2918.4168-.7086.4584-1.1254.0417-.125.0417-.2084.0417-.2917.0834-.0417.1251-.0834.2501-.1667.8336-.6669 1.1253-1.7506.7502-2.7509-.0833-.125-.125-.2084-.125-.2501 0-.0833.0417-.1667.125-.2917.3751-.9587.0834-2.084-.7502-2.7509-.125-.0833-.1667-.125-.2501-.1667 0-.0834 0-.1667-.0417-.2918-.125-1.042-.9586-1.8756-2.0006-2.0006-.125-.0417-.2084-.0417-.2917-.0417-.0417-.0416-.0834-.125-.1668-.25-.6668-.8336-1.7505-1.1254-2.7508-.7086-.0834.0417-.2084.0834-.2501.125zm16.005 2.6675h-5.335v-5.335zm-16.7969 1.4171.6669.2501c.0416.0417.1667.0417.25 0l.6252-.2501c.4168-.1667.917-.0417 1.2087.2918l.4168.5835c.0417.0833.1251.125.2084.125l.7086.0834c.4585.0833.7919.4168.8753.8753l.0833.7085c0 .0834.0417.1667.1251.2084l.5418.4168c.3751.2918.5002.7502.3334 1.167l-.25.6669c-.0417.0834-.0417.2084 0 .2918l.25.6252c.1668.4168.0417.9169-.2917 1.167l-.5835.4585c-.0834.0417-.1251.125-.1251.2084l-.0833.7085c-.0834.4585-.4168.7919-.8753.8753l-.6252.0834v4.3763c0 .2501-.1667.5002-.3751.6252-.2084.0834-.4585.0834-.6669-.0417l-1.6255-1.0836-1.6672 1.0836c-.1667.1251-.4585.1251-.6669.0417-.2084-.125-.3334-.3751-.3334-.6252v-4.3763l-.6669-.0834c-.4585-.0834-.7919-.4168-.8336-.8753l-.125-.7085c0-.0834-.0417-.1667-.125-.2084l-.5419-.4585c-.3751-.2501-.5001-.7502-.3334-1.167l.2917-.6669c0-.0417 0-.1667 0-.2501l-.2917-.6252c-.1667-.4168-.0417-.9169.3334-1.2087l.5419-.4168c.0833-.0417.125-.125.125-.2084l.0834-.7085c.0833-.4585.4167-.792.8752-.8753l.7086-.0834c.0833 0 .1667-.0417.2084-.125l.4168-.5419c.2917-.3751.7919-.5001 1.2087-.3334zm3.4594 5.2516c0-1.4587-1.2087-2.6675-2.6675-2.6675-1.5005 0-2.6675 1.2088-2.6675 2.6675 0 1.5005 1.167 2.6675 2.6675 2.6675 1.4588 0 2.6675-1.167 2.6675-2.6675z"
          fill="#1d6ce2"/>
</svg>