<svg fill="none" height="48" viewBox="0 0 48 48" width="48" xmlns="http://www.w3.org/2000/svg">
    <path d="m0 24c0-13.2548 10.7452-24 24-24s24 10.7452 24 24-10.7452 24-24 24-24-10.7452-24-24z" fill="#fff"/>
    <path d="m24 13.8275c1.5005 0 2.8342.8753 3.5011 2.1673 1.3754-.4584 2.9593-.125 4.0429.9587 1.0837 1.0836 1.4171 2.6675.9587 4.0429 1.292.6669 2.1673 2.0006 2.1673 3.5011 0 1.5421-.8753 2.8759-2.1673 3.5428.4584 1.3754.125 2.9176-.9587 4.0012-1.0836 1.0837-2.6675 1.4171-4.0429 1.0003-.6669 1.2921-2.0006 2.1257-3.5011 2.1257-1.5421 0-2.8759-.8336-3.5428-2.1257-1.3754.4168-2.9176.0834-4.0012-1.0003-1.0837-1.0836-1.4171-2.6258-1.0003-4.0012-1.2921-.6669-2.1257-2.0007-2.1257-3.5428 0-1.5005.8336-2.8342 2.1257-3.5011-.4168-1.3754-.0834-2.9593 1.0003-4.0429 1.0836-1.0837 2.6258-1.4171 4.0012-.9587.6669-1.292 2.0007-2.1673 3.5428-2.1673zm4.0429 9.3779c.3751-.3751.3751-1.0003 0-1.3754-.4168-.4168-1.042-.4168-1.4171 0l-3.9596 3.9596-1.6255-1.6255c-.4168-.4168-1.042-.4168-1.4171 0-.4168.3751-.4168 1.0003 0 1.3754l2.3341 2.3341c.3751.4168 1.0003.4168 1.4171 0z"
          fill="#1d6ce2"/>
</svg>