<svg fill="none" height="48" viewBox="0 0 48 48" width="48" xmlns="http://www.w3.org/2000/svg"
>
    <linearGradient id="a" gradientUnits="userSpaceOnUse" x1="23.9886" x2="23.9886" y1="10.4" y2="37.2">
        <stop offset=".239583" stop-color="#fff" stop-opacity="0"/>
        <stop offset=".59375" stop-color="#fff" stop-opacity="0"/>
        <stop offset="1" stop-color="#387ae5"/>
    </linearGradient>
    <path d="m0 24c0-13.2548 10.7452-24 24-24s24 10.7452 24 24-10.7452 24-24 24-24-10.7452-24-24z" fill="#fff"/>
    <path d="m31.0281 13.6296c-1.2453.0071-2.4764-.2575-3.6031-.7745-1.1266-.517-2.1202-1.2731-2.9079-2.2131-.1154-.1346-.28-.2201-.459-.2383-.1791-.0182-.3583.0323-.4997.1408-.0381.0274-.0718.0602-.0999.0974-.788.9372-1.7802 1.6915-2.9047 2.2083s-2.3531.783-3.5963.7792h-3.8838c-.2511.0016-.4915.0995-.6691.2725-.1776.1731-.278.4073-.2796.6521v6.0047c0 10.6367 8.7879 15.7168 11.8636 16.6413 3.0757-.9245 11.8636-6.0141 11.8636-16.6413v-6.0046c-.0015-.2447-.102-.4789-.2796-.652-.1776-.173-.4179-.2709-.6691-.2725z"
          fill="#387ae5"/>
    <path d="m23.8494 10.9538.0046-.006.0026-.0019.0062-.0048c.0392-.03.0911-.0454.1446-.04.0527.0054.0983.0301.1288.0649.8355.9961 1.8882 1.7965 3.0803 2.3435 1.1928.5474 2.4956.8274 3.8129.8201h3.8723c.1232.0011.2386.0494.322.1306.0829.0808.1275.1874.1285.296v6.0025c0 5.1622-2.1303 8.973-4.6408 11.6147-2.441 2.5686-5.2278 4.0162-6.7228 4.5027-1.4953-.4865-4.282-1.9319-6.7228-4.4992-2.5104-2.6404-4.6408-6.4511-4.6408-11.6182v-6.0028c.001-.1086.0457-.2151.1286-.2959l-.3435-.3525.3435.3525c.0833-.0812.1987-.1295.3219-.1306h3.8813c1.3152.0039 2.6152-.2777 3.8057-.8249 1.1909-.5472 2.2427-1.3466 3.0787-2.3409z"
          stroke="url(#a)" stroke-opacity=".6"/>
    <g fill="#fff">
        <path d="m28.7497 25.4583-2.2576-1.739.0449.3363c.0215.1368.0323.2751.0323.4136-.0003.1203-.0081.2404-.0233.3597l1.6703 1.2875c.1551.1101.2636.2742.3042.4602s.0104.3804-.0846.5453c-.095.1648-.2481.2883-.4292.3461s-.3773.0459-.5501-.0334l-2.5145-1.0412c.3405-.192.624-.4712.8212-.809.1973-.3378.3013-.7221.3013-1.1134-.0004-.1406-.0136-.2808-.0395-.419l-.5729-4.3158c-.0504-.3867-.2396-.7418-.5322-.999-.2926-.2573-.6688-.3992-1.0582-.3992-.3895 0-.7656.1419-1.0583.3992-.2926.2572-.4818.6123-.5321.999l-.3754 2.8269.2676-.2068c.108-.0869.2227-.1651.343-.2338.1023-.0588.2078-.1117.3161-.1583l.2784-2.0914c.0184-.1889.1064-.3643.2468-.4919.1405-.1276.3233-.1983.513-.1983.1896 0 .3725.0707.5129.1983s.2284.303.2468.4919l.3592 2.6974c-.4013-.2358-.8668-.3386-1.33-.2938-.4632.0449-.9004.2353-1.2491.5438l-3.4323 2.6435c-.3102.2367-.5235.5785-.6002.9614s-.0113.7806.1837 1.1188c.1951.3382.5066.5936.8761.7184.3696.1249.7719.1106 1.1317-.0401l2.6312-1.0879-.3125-.1295c-.1281-.0508-.2524-.1109-.3718-.1798-.1026-.0591-.201-.1252-.2945-.1979l-1.9505.8075c-.1728.0793-.369.0912-.5501.0334-.1812-.0578-.3342-.1813-.4293-.3461-.095-.1649-.1252-.3593-.0845-.5453.0406-.186.1491-.3501.3041-.4602l2.1553-1.6616v.0162c.0004.4503.1382.8897.395 1.2593s.6203.6518 1.0419.8087l4.068 1.6778c.3597.1495.7614.1629 1.1302.0377.3688-.1253.6794-.3806.874-.7183.1946-.3378.2599-.7348.1836-1.1172-.0763-.3823-.289-.7238-.5983-.9607zm-6.2574-.9927c.0003-.2695.0805-.5329.2303-.7568s.3625-.3983.6113-.5012.5225-.1297.7865-.0769.5064.1828.6966.3735.3197.4336.3721.698c.0523.2643.0253.5383-.0778.7873-.1031.2489-.2776.4617-.5014.6114-.2239.1497-.487.2296-.7562.2296-.1789 0-.3561-.0353-.5214-.1039s-.3155-.1692-.4419-.296c-.1265-.1267-.2267-.2772-.295-.4428s-.1034-.343-.1031-.5222z"/>
        <path d="m23.8827 35.7112c-.0622.0011-.1238-.0123-.1796-.039-2.2239-.9511-4.2203-2.3431-5.8619-4.0874-2.8852-2.9763-4.4652-6.932-4.4039-11.026v-5.0709c-.0005-.1224.0484-.24.1363-.3274s.2076-.1376.3331-.1396h2.936c2.4898.0174 4.8904-.9029 6.7007-2.5687.0883-.0798.2042-.1241.3245-.1241.1204 0 .2363.0443.3246.1241 1.8103 1.6661 4.2109 2.5865 6.7008 2.5692h2.9361c.1255-.0005.2463.0473.336.1329s.1411.2023.1432.3246v5.0799c.0595 4.0936-1.5202 8.0488-4.4039 11.026-1.6416 1.7443-3.638 3.1363-5.8619 4.0874-.0479.0288-.1039.0424-.1601.039zm-9.4975-19.7652v4.6225c-.0592 3.8581 1.4275 7.5867 4.1443 10.3935 1.5068 1.5932 3.3227 2.8796 5.3427 3.7848 2.023-.9003 3.8398-2.1873 5.3426-3.7848 2.7169-2.8068 4.2036-6.5354 4.1444-10.3935v-4.6225h-2.4666c-2.5813.018-5.0808-.8816-7.0304-2.5303-1.9448 1.6568-4.4476 2.5575-7.0306 2.5303z"/>
    </g>
</svg>