<svg fill="none" height="200" viewBox="0 0 200 200" width="200" xmlns="http://www.w3.org/2000/svg"
>
    <clipPath id="a">
        <path d="m0 0h200v200h-200z"/>
    </clipPath>
    <g clip-path="url(#a)">
        <path d="m100 200c55.228 0 100-44.772 100-100 0-55.2285-44.772-100-100-100-55.2285 0-100 44.7715-100 100 0 55.228 44.7715 100 100 100z"
              fill="#f0f0f0"/>
        <g fill="#00247c">
            <path d="m20.6723 39.1177c-7.8551 10.2199-13.77816 21.9992-17.22699 34.7957h52.02269z"/>
            <path d="m196.555 73.9135c-3.449-12.7961-9.372-24.5754-17.227-34.7953l-34.795 34.7953z"/>
            <path d="m3.44531 126.087c3.44922 12.796 9.37229 24.576 17.22699 34.795l34.7945-34.795z"/>
            <path d="m160.883 20.6722c-10.22-7.8551-21.999-13.77816-34.795-17.22738v52.02228z"/>
            <path d="m39.1191 179.328c10.22 7.855 21.9993 13.778 34.7954 17.227v-52.022z"/>
            <path d="m73.9141 3.44482c-12.7961 3.44922-24.5754 9.37228-34.795 17.22698l34.795 34.7949z"/>
            <path d="m126.088 196.555c12.796-3.449 24.575-9.372 34.795-17.227l-34.795-34.795z"/>
            <path d="m144.533 126.087 34.795 34.796c7.855-10.22 13.778-22 17.227-34.796z"/>
        </g>
        <path d="m199.154 86.9566h-86.11v-86.110116c-4.27-.555859-8.623-.846484-13.044-.846484-4.4215 0-8.7738.290625-13.0434.846484v86.109416.0004h-86.110116c-.555859 4.2699-.846484 8.623-.846484 13.0437 0 4.421.290625 8.774.846484 13.043h86.109416.0004v86.111c4.2699.555 8.6222.846 13.0437.846 4.421 0 8.774-.29 13.043-.846v-86.11h86.111c.555-4.27.846-8.623.846-13.044 0-4.4207-.291-8.7738-.846-13.0434z"
              fill="#d0142d"/>
        <path d="m126.088 126.087 44.623 44.624c2.053-2.052 4.01-4.197 5.878-6.42l-38.203-38.204z" fill="#d0142d"/>
        <path d="m73.9129 126.087h-.0008l-44.623 44.623c2.0515 2.053 4.1964 4.011 6.4199 5.879l38.2039-38.205z"
              fill="#d0142d"/>
        <path d="m73.9137 73.9137v-.0008l-44.6235-44.6238c-2.0523 2.0515-4.0101 4.1964-5.8781 6.4199l38.2043 38.2043h12.2973z"
              fill="#d0142d"/>
        <path d="m126.088 73.9136 44.624-44.6242c-2.052-2.0524-4.197-4.0102-6.42-5.8778l-38.204 38.2043z"
              fill="#d0142d"/>
    </g>
</svg>