<?xml version="1.0" encoding="UTF-8"?>
<svg data-name="Group 11653" viewBox="0 0 48 48" xmlns="http://www.w3.org/2000/svg">
    <defs>
        <style>
            .cls-1,.cls-4{fill:#fff}.cls-1{stroke:#707070}.cls-2{fill:rgba(255,255,255,0)}.cls-3{clip-path:url(#a)}.cls-5{fill:#444b54}.cls-6{fill:#387ae5}
        </style>
        <clipPath id="a">
            <path class="cls-1" d="M0 0h32v32H0z" data-name="Rectangle 4282"/>
        </clipPath>
    </defs>
    <rect class="cls-2" width="48" height="48" rx="8" data-name="Rectangle 4279"/>
    <g class="cls-3" transform="translate(8 8)" data-name="Mask Group 22">
        <g transform="translate(.762 5.841)" data-name="Group 11597">
            <g data-name="Group 11596">
                <g data-name="Group 11595">
                    <path class="cls-4" transform="translate(-4.063 -24.381)"
                          d="M6.6 24.381a2.547 2.547 0 0 0-2.54 2.54v20.317a2.547 2.547 0 0 0 2.54 2.54h24.13a2.547 2.547 0 0 0 2.54-2.54V24.381z"
                          data-name="Path 12953"/>
                </g>
            </g>
        </g>
        <g data-name="Group 11633">
            <g transform="translate(0 5.079)" data-name="Group 11600">
                <g data-name="Group 11599">
                    <g data-name="Group 11598">
                        <path class="cls-5" transform="translate(-1.016 -21.333)"
                              d="M1.778 30.476a.748.748 0 0 1-.762-.762v-5.079a3.3 3.3 0 0 1 3.3-3.3h26.668a.762.762 0 0 1 0 1.524H4.317a1.767 1.767 0 0 0-1.777 1.776v5.079a.748.748 0 0 1-.762.762z"
                              data-name="Path 12954"/>
                    </g>
                </g>
            </g>
            <g transform="translate(6.603 .762)" data-name="Group 11604">
                <g data-name="Group 11603">
                    <g data-name="Group 11602">
                        <g data-name="Group 11601">
                            <path class="cls-6" transform="translate(-27.429 -4.063)"
                                  d="M46.222 10.921a6.861 6.861 0 0 0-6.857-6.857 7.056 7.056 0 0 0-2.54.483 7.056 7.056 0 0 0-2.54-.483 6.861 6.861 0 0 0-6.857 6.857 6.591 6.591 0 0 0 .076 1.016h18.642a6.591 6.591 0 0 0 .076-1.016z"
                                  data-name="Path 12955"/>
                        </g>
                    </g>
                </g>
            </g>
            <g transform="translate(5.841)" data-name="Group 11622">
                <g transform="translate(9.394)" data-name="Group 11610">
                    <g data-name="Group 11609">
                        <g data-name="Group 11608">
                            <g data-name="Group 11607">
                                <g data-name="Group 11606">
                                    <g data-name="Group 11605">
                                        <path class="cls-5" transform="translate(-61.955 -1.016)"
                                              d="M72.117 9.651a.748.748 0 0 1-.762-.762v-.254A6.1 6.1 0 0 0 63 2.971a.758.758 0 0 1-.99-.432.749.749 0 0 1 .432-.99 7.635 7.635 0 0 1 10.437 7.086v.254a.748.748 0 0 1-.762.762z"
                                              data-name="Path 12956"/>
                                    </g>
                                </g>
                            </g>
                        </g>
                    </g>
                </g>
                <g data-name="Group 11621">
                    <g data-name="Group 11615">
                        <g data-name="Group 11614">
                            <g data-name="Group 11613">
                                <g data-name="Group 11612">
                                    <g data-name="Group 11611">
                                        <path class="cls-5" transform="translate(-24.381 -1.016)"
                                              d="M38.857 9.651a.748.748 0 0 1-.762-.762v-.254a6.1 6.1 0 1 0-12.19 0v.254a.762.762 0 1 1-1.524 0v-.254a7.619 7.619 0 1 1 15.238 0v.254a.748.748 0 0 1-.762.762z"
                                              data-name="Path 12957"/>
                                    </g>
                                </g>
                            </g>
                        </g>
                    </g>
                    <g transform="translate(5.714 4.14)" data-name="Group 11620">
                        <g data-name="Group 11619">
                            <g data-name="Group 11618">
                                <g data-name="Group 11617">
                                    <g data-name="Group 11616">
                                        <path class="cls-4" transform="translate(-47.238 -17.575)"
                                              d="M49.117 24.533a.632.632 0 0 1-.634-.533 1.635 1.635 0 0 1-.635-.381 2.047 2.047 0 0 1-.457-.66.622.622 0 0 1 .33-.838.667.667 0 0 1 .838.33.886.886 0 0 0 .152.229.637.637 0 0 0 .178.1 1.137 1.137 0 0 0 .584 0 .233.233 0 0 0 .152-.1.409.409 0 0 0 .1-.178.9.9 0 0 0 .051-.254.407.407 0 0 0-.051-.254.431.431 0 0 0-.152-.152.939.939 0 0 0-.279-.127c-.152-.051-.3-.076-.457-.127a2.988 2.988 0 0 1-.508-.178 1.45 1.45 0 0 1-.533-.33 1.657 1.657 0 0 1-.406-.533 1.813 1.813 0 0 1-.152-.787 1.768 1.768 0 0 1 .127-.635 2.005 2.005 0 0 1 .356-.584 1.514 1.514 0 0 1 .61-.406.471.471 0 0 1 .178-.051.634.634 0 0 1 .635-.508.678.678 0 0 1 .635.508c.076.025.127.051.2.076a1.752 1.752 0 0 1 .61.457 1.385 1.385 0 0 1 .33.635.645.645 0 0 1-.051.483.582.582 0 0 1-.381.3.5.5 0 0 1-.2.025.633.633 0 0 1-.61-.432.409.409 0 0 0-.1-.178.233.233 0 0 0-.152-.1.841.841 0 0 0-.61 0 1.1 1.1 0 0 0-.178.1.531.531 0 0 0-.1.152.559.559 0 0 0-.025.2 1.152 1.152 0 0 0 .025.254.351.351 0 0 0 .076.1.409.409 0 0 0 .178.1 2.235 2.235 0 0 0 .381.127c.178.051.33.1.483.152a2.236 2.236 0 0 1 .61.279 1.6 1.6 0 0 1 .533.559 1.745 1.745 0 0 1 .229.914 1.894 1.894 0 0 1-.1.66 1.951 1.951 0 0 1-.356.635 2.049 2.049 0 0 1-.61.432l-.229.076a.65.65 0 0 1-.615.443z"
                                              data-name="Path 12958"/>
                                    </g>
                                </g>
                            </g>
                        </g>
                    </g>
                </g>
            </g>
            <g transform="translate(0 10.159)" data-name="Group 11632">
                <g data-name="Group 11625">
                    <g data-name="Group 11624">
                        <g data-name="Group 11623">
                            <path class="cls-5" transform="translate(-1.016 -41.651)"
                                  d="M28.444 63.492H4.317a3.3 3.3 0 0 1-3.3-3.3V42.413a.748.748 0 0 1 .762-.762.748.748 0 0 1 .762.762V60.19a1.767 1.767 0 0 0 1.778 1.778h24.125a1.767 1.767 0 0 0 1.778-1.778V44.952a1.767 1.767 0 0 0-1.778-1.778H5.587a.762.762 0 0 1 0-1.524h22.857a3.3 3.3 0 0 1 3.3 3.3v15.24a3.3 3.3 0 0 1-3.3 3.302z"
                                  data-name="Path 12959"/>
                        </g>
                    </g>
                </g>
                <g transform="translate(26.159 8.381)" data-name="Group 11628">
                    <g data-name="Group 11627">
                        <g data-name="Group 11626">
                            <path class="cls-4" transform="translate(-105.65 -75.175)"
                                  d="m110.73 80.254h-2.54a2.547 2.547 0 0 1-2.54-2.54 2.547 2.547 0 0 1 2.54-2.54h2.54z"
                                  data-name="Path 12960"/>
                        </g>
                    </g>
                </g>
                <g transform="translate(25.397 7.619)" data-name="Group 11631">
                    <g data-name="Group 11630">
                        <g data-name="Group 11629">
                            <path class="cls-5" transform="translate(-102.6 -72.127)"
                                  d="M108.444 78.73H105.9a3.3 3.3 0 1 1 0-6.6h2.54a.748.748 0 0 1 .762.762v5.079a.748.748 0 0 1-.758.759zm-2.54-5.079a1.778 1.778 0 0 0 0 3.556h1.778v-3.556z"
                                  data-name="Path 12961"/>
                        </g>
                    </g>
                </g>
            </g>
        </g>
    </g>
</svg>
