<?xml version="1.0" encoding="UTF-8"?>
<svg data-name="Group 11654" viewBox="0 0 48 48" xmlns="http://www.w3.org/2000/svg">
    <defs>
        <style>
            .cls-1{fill:#fff}.cls-2{fill:rgba(255,255,255,0)}.cls-3{clip-path:url(#a)}.cls-4{fill:#387ae5}.cls-5{fill:#444b54}
        </style>
        <clipPath id="a">
            <rect class="cls-1" width="32" height="32" rx="8" data-name="Rectangle 4283"/>
        </clipPath>
    </defs>
    <rect class="cls-2" width="48" height="48" rx="8" data-name="Rectangle 4278"/>
    <g class="cls-3" transform="translate(8 8)" data-name="Mask Group 23">
        <g transform="translate(0 3.429)">
            <g transform="translate(.762 .762)" data-name="Group 11634">
                <path class="cls-1" transform="translate(-4.063 -31.492)"
                      d="M32 51.81V34.032a2.547 2.547 0 0 0-2.54-2.54H9.143a2.547 2.547 0 0 0-2.54 2.54V51.81h-2.54v.762a2.547 2.547 0 0 0 2.54 2.54H32a2.547 2.547 0 0 0 2.54-2.54v-.762z"
                      data-name="Path 12962"/>
            </g>
            <g transform="translate(3.302 .762)" data-name="Group 11635">
                <path class="cls-1" transform="translate(-14.222 -31.492)"
                      d="M39.619 49.778V34.032a2.547 2.547 0 0 0-2.54-2.54H16.762a2.547 2.547 0 0 0-2.54 2.54v15.746z"
                      data-name="Path 12963"/>
            </g>
            <g transform="translate(10.921 4.571)" data-name="Group 11640">
                <g data-name="Group 11639">
                    <g data-name="Group 11638">
                        <g data-name="Group 11636">
                            <path class="cls-4" transform="translate(-44.698 -46.73)"
                                  d="M44.7 51.81a5.094 5.094 0 0 1 5.079-5.079 5 5 0 0 1 3.429 1.346c.1.1-.178.254-.229.406-.025.152.178.33.254.432a1.433 1.433 0 0 0 .61.457c.152.025.279-.178.3-.1a4.84 4.84 0 0 1 .711 2.54 5.079 5.079 0 0 1-10.159 0z"
                                  data-name="Path 12964"/>
                        </g>
                        <g transform="translate(2.531 1.346)" data-name="Group 11637">
                            <path class="cls-1" transform="translate(-54.824 -52.114)"
                                  d="M60.8 52.114l-3.4 3.81-1.219-1.575a.76.76 0 1 0-1.194.94l1.778 2.286a.828.828 0 0 0 .584.3h.025a.728.728 0 0 0 .559-.254l3.835-4.317a5.383 5.383 0 0 0-.968-1.19z"
                                  data-name="Path 12965"/>
                        </g>
                    </g>
                </g>
            </g>
            <g transform="translate(12.698 20.317)" data-name="Group 11641">
                <path class="cls-5" transform="translate(-51.81 -109.71)"
                      d="M57.651 111.238h-5.08a.762.762 0 0 1 0-1.524h5.079a.762.762 0 0 1 0 1.524z"
                      data-name="Path 12966"/>
            </g>
            <g transform="translate(0 20.317)" data-name="Group 11642">
                <path class="cls-5" transform="translate(-1.016 -109.71)"
                      d="M29.714 114.54H4.317a3.3 3.3 0 0 1-3.3-3.3v-.762a.748.748 0 0 1 .762-.762h8.889a.762.762 0 0 1 0 1.524H2.54a1.767 1.767 0 0 0 1.778 1.778h25.4a1.767 1.767 0 0 0 1.778-1.778h-8.131a.762.762 0 0 1 0-1.524h8.889a.748.748 0 0 1 .762.762v.762a3.3 3.3 0 0 1-3.302 3.3z"
                      data-name="Path 12967"/>
            </g>
            <g transform="translate(2.54)" data-name="Group 11643">
                <path class="cls-5" transform="translate(-11.175 -28.444)"
                      d="M37.333 47.492a.748.748 0 0 1-.762-.762V31.746a1.767 1.767 0 0 0-1.778-1.778H14.476a1.767 1.767 0 0 0-1.776 1.778V46.73a.762.762 0 0 1-1.524 0V31.746a3.3 3.3 0 0 1 3.3-3.3h20.318a3.3 3.3 0 0 1 3.3 3.3V46.73a.748.748 0 0 1-.761.762z"
                      data-name="Path 12968"/>
            </g>
        </g>
    </g>
</svg>
