<?xml version="1.0" encoding="UTF-8"?>
<svg data-name="Group 11651" viewBox="0 0 48 48" xmlns="http://www.w3.org/2000/svg">
    <defs>
        <style>
            .cls-1{fill:#fff}.cls-2{fill:rgba(255,255,255,0)}.cls-3{clip-path:url(#a)}.cls-4{fill:#444b54}.cls-5{fill:#387ae5}
        </style>
        <clipPath id="a">
            <rect class="cls-1" width="32" height="32" rx="8" data-name="Rectangle 4285"/>
        </clipPath>
    </defs>
    <rect class="cls-2" width="48" height="48" rx="8" data-name="Rectangle 4284"/>
    <g class="cls-3" transform="translate(8 8)" data-name="Mask Group 24">
        <g transform="translate(1.93)">
            <g transform="translate(.763 .737)" data-name="Group 11644">
                <path class="cls-1" transform="translate(-14.217 -3.98)"
                      d="M40.769 21.849s-1.469-8.077-1.95-9.394A12.657 12.657 0 1 0 19.8 27.14c.076.051.177.127.253.177a7.088 7.088 0 0 1 2.785 5.672v1.367a.746.746 0 0 0 .76.76h9.115v-1.772a2.539 2.539 0 0 1 2.532-2.532h2.026a2.032 2.032 0 0 0 2.029-2.026V25.14a1.493 1.493 0 0 1 .43-1.063l.709-.709a1.642 1.642 0 0 0 .33-1.519z"
                      data-name="Path 12969"/>
            </g>
            <g data-name="Group 11645">
                <path class="cls-4" transform="translate(-11.163 -1.032)"
                      d="M30.4 32.93a.746.746 0 0 1-.76-.76v-1.012a3.285 3.285 0 0 1 3.292-3.292h2.026a1.254 1.254 0 0 0 1.267-1.266v-3.671a2.3 2.3 0 0 1 .633-1.6l.709-.709a.757.757 0 0 0 .177-.76c0-.025-.025-.051-.025-.076L36.1 12.016a11.713 11.713 0 0 0-12.23-9.444A11.961 11.961 0 0 0 12.7 13.839a11.831 11.831 0 0 0 5.216 10.483.765.765 0 0 1-.861 1.266A13.417 13.417 0 0 1 15.082 5a13.254 13.254 0 0 1 8.71-3.95 13.215 13.215 0 0 1 13.8 10.66l1.62 7.748a2.262 2.262 0 0 1-.557 2.228l-.709.709a.817.817 0 0 0-.2.532V26.6a2.777 2.777 0 0 1-2.785 2.785h-2.028a1.762 1.762 0 0 0-1.772 1.772v1.013a.746.746 0 0 1-.761.76z"
                      data-name="Path 12970"/>
            </g>
            <g transform="translate(4.409 4.418)" data-name="Group 11650">
                <g data-name="Group 11649">
                    <g data-name="Group 11646">
                        <circle class="cls-1" transform="rotate(-45 10.806 4.476)" cx="6.33" cy="6.33" r="6.33"
                                data-name="Ellipse 501"/>
                    </g>
                    <g transform="translate(1.871 1.863)" data-name="Group 11648">
                        <g transform="translate(5.438 16.578)" data-name="Group 11647">
                            <path class="cls-1" transform="translate(-58.034 -92.469)"
                                  d="m59.553 100.82a1.524 1.524 0 0 1-1.519-1.519v-5.318a1.524 1.524 0 0 1 1.519-1.519 1.524 1.524 0 0 1 1.519 1.519v5.317a1.524 1.524 0 0 1-1.519 1.52z"
                                  data-name="Path 12971"/>
                        </g>
                        <path class="cls-5" transform="translate(-36.284 -26.156)"
                              d="M48.38 38.252a7.079 7.079 0 1 0-5.9 2.026v1.848a2.278 2.278 0 0 0-1.519 2.152V49.6a2.279 2.279 0 1 0 4.558 0v-5.321A2.3 2.3 0 0 0 44 42.126V40.3a7.146 7.146 0 0 0 4.38-2.048zm-8.938-8.938a5.577 5.577 0 1 1 .025 7.875 5.534 5.534 0 0 1-.025-7.875zM44 49.571a.76.76 0 0 1-1.519 0v-5.318a.76.76 0 0 1 1.519 0z"
                              data-name="Path 12972"/>
                    </g>
                </g>
            </g>
        </g>
    </g>
</svg>
