<svg width="122" height="32" viewBox="0 0 122 32" fill="none" xmlns="http://www.w3.org/2000/svg">
    <path d="M40.3249 8.76407C39.6642 8.44099 38.9391 8.27175 38.2038 8.26904C36.3301 8.26904 34.5726 9.43159 34.5726 11.7867V22.1933C34.571 22.2469 34.5804 22.3003 34.6002 22.3502C34.62 22.4 34.6497 22.4453 34.6876 22.4832C34.7255 22.5211 34.7708 22.5509 34.8206 22.5707C34.8704 22.5905 34.9237 22.5999 34.9773 22.5983H36.6336C36.6874 22.5999 36.7409 22.5905 36.7909 22.5707C36.8409 22.551 36.8864 22.5212 36.9245 22.4834C36.9627 22.4455 36.9929 22.4003 37.0131 22.3504C37.0333 22.3006 37.0431 22.2471 37.0421 22.1933V14.6068H39.1894C39.2433 14.6078 39.2969 14.5979 39.3469 14.5778C39.3969 14.5576 39.4424 14.5275 39.4805 14.4893C39.5186 14.4512 39.5487 14.4057 39.5688 14.3556C39.589 14.3056 39.5989 14.252 39.5979 14.198V13.2117C39.5989 13.1578 39.589 13.1042 39.5688 13.0541C39.5487 13.0041 39.5186 12.9586 39.4805 12.9204C39.4424 12.8823 39.3969 12.8522 39.3469 12.832C39.2969 12.8118 39.2433 12.802 39.1894 12.803H37.0421V11.7567C37.0274 11.5788 37.0521 11.3999 37.1143 11.2326C37.1765 11.0653 37.2748 10.9139 37.4022 10.7889C37.5295 10.664 37.6828 10.5686 37.8512 10.5097C38.0195 10.4507 38.1988 10.4296 38.3762 10.4479C38.7184 10.4566 39.0552 10.5357 39.3655 10.6804C39.4118 10.7104 39.4641 10.7299 39.5187 10.7374C39.5733 10.7449 39.6289 10.7402 39.6815 10.7237C39.7341 10.7073 39.7824 10.6794 39.823 10.6421C39.8636 10.6048 39.8955 10.5589 39.9164 10.5079L40.4973 9.38284C40.5545 9.27751 40.5686 9.15399 40.5364 9.03848C40.5042 8.92297 40.4283 8.82455 40.3249 8.76407Z"
          fill="#0056D5"/>
    <path d="M50.9832 12.368H49.3268C49.2731 12.367 49.2197 12.3769 49.1698 12.3971C49.12 12.4173 49.0748 12.4475 49.037 12.4857C48.9991 12.5239 48.9694 12.5694 48.9497 12.6195C48.9299 12.6695 48.9206 12.723 48.9221 12.7768V13.9956C48.5412 13.4212 48.0157 12.9576 47.3985 12.6514C46.7813 12.3452 46.0944 12.2074 45.407 12.2518C42.5327 12.2818 40.614 14.3744 40.614 17.4532C40.614 20.5921 42.5589 22.7447 45.4857 22.7447C46.1592 22.7764 46.8295 22.6323 47.4306 22.3266C48.0317 22.0209 48.5431 21.564 48.9146 21.0009V22.2234C48.913 22.277 48.9224 22.3304 48.9422 22.3802C48.962 22.4301 48.9918 22.4754 49.0297 22.5133C49.0676 22.5512 49.1128 22.581 49.1626 22.6008C49.2124 22.6206 49.2657 22.63 49.3193 22.6284H50.9757C51.0294 22.63 51.0829 22.6206 51.1329 22.6008C51.1829 22.581 51.2284 22.5513 51.2666 22.5135C51.3048 22.4756 51.3349 22.4304 51.3551 22.3805C51.3753 22.3307 51.3852 22.2772 51.3842 22.2234V12.7768C51.3892 12.7225 51.3824 12.6678 51.3641 12.6164C51.3459 12.565 51.3166 12.5182 51.2785 12.4793C51.2403 12.4404 51.1941 12.4103 51.1431 12.3911C51.0921 12.3718 51.0375 12.364 50.9832 12.368ZM48.8621 17.5845C48.8632 17.8879 48.8343 18.1906 48.7759 18.4883C48.6424 19.1164 48.2936 19.678 47.7899 20.0759C47.2862 20.4738 46.6593 20.6829 46.0178 20.6671C44.3015 20.6671 43.1136 19.3883 43.1136 17.5282C43.1136 15.6682 44.3315 14.3894 46.0178 14.3894C46.6606 14.3684 47.29 14.5756 47.7948 14.9743C48.2996 15.3731 48.6471 15.9377 48.7759 16.5682C48.8471 16.8626 48.8761 17.1657 48.8621 17.4682V17.5845Z"
          fill="#0056D5"/>
    <path d="M55.8621 15.1018C55.8621 14.4605 56.4429 14.198 57.2561 14.198C58.182 14.2352 59.087 14.4841 59.9018 14.9256C60.0018 14.9791 60.1189 14.991 60.2277 14.9587C60.3364 14.9264 60.428 14.8525 60.4827 14.7531L61.0036 13.6768C61.0498 13.5801 61.0578 13.4695 61.0258 13.3672C60.9938 13.2649 60.9243 13.1785 60.8312 13.1255C59.7784 12.5539 58.6 12.2536 57.4023 12.2517C55.3412 12.2517 53.5387 13.2417 53.5387 15.3343C53.5087 18.9645 58.8825 17.9594 58.8825 19.8345C58.8825 20.502 58.2455 20.7945 57.3835 20.7945C56.2837 20.7706 55.2146 20.4266 54.3069 19.8045C54.2564 19.7715 54.1994 19.7498 54.1397 19.7408C54.08 19.7319 54.0191 19.7359 53.9611 19.7526C53.9032 19.7693 53.8495 19.7984 53.8037 19.8377C53.758 19.8771 53.7213 19.9259 53.6961 19.9808L53.1939 20.9595C53.1536 21.0478 53.1431 21.1468 53.1641 21.2415C53.1851 21.3363 53.2363 21.4216 53.3101 21.4846C54.4698 22.2883 55.8493 22.714 57.2599 22.7034C59.4409 22.7034 61.2996 21.6871 61.2996 19.5945C61.2959 15.9418 55.8621 16.8344 55.8621 15.1018Z"
          fill="#0056D5"/>
    <path d="M68.1202 20.5846C68.1041 20.5293 68.0765 20.4779 68.0392 20.434C68.0018 20.3901 67.9556 20.3545 67.9036 20.3298C67.8516 20.305 67.7949 20.2915 67.7373 20.2901C67.6797 20.2888 67.6224 20.2997 67.5693 20.3221C67.2472 20.4592 66.9034 20.5379 66.5538 20.5546C65.853 20.5546 65.4483 20.0596 65.4483 18.9571V14.6069H67.9741C68.028 14.6079 68.0816 14.5981 68.1316 14.5779C68.1816 14.5577 68.227 14.5276 68.2652 14.4895C68.3033 14.4513 68.3334 14.4058 68.3535 14.3558C68.3737 14.3057 68.3836 14.2521 68.3825 14.1981V13.2119C68.3836 13.1579 68.3737 13.1043 68.3535 13.0542C68.3334 13.0042 68.3033 12.9587 68.2652 12.9205C68.227 12.8824 68.1816 12.8523 68.1316 12.8321C68.0816 12.812 68.028 12.8021 67.9741 12.8031H65.4483V10.3917C65.4493 10.3378 65.4394 10.2842 65.4193 10.2341C65.3991 10.1841 65.369 10.1386 65.3309 10.1004C65.2928 10.0623 65.2473 10.0322 65.1973 10.012C65.1473 9.99183 65.0937 9.98196 65.0398 9.98298H63.3872C63.3333 9.98196 63.2797 9.99183 63.2297 10.012C63.1797 10.0322 63.1342 10.0623 63.0961 10.1004C63.058 10.1386 63.0279 10.1841 63.0077 10.2341C62.9876 10.2842 62.9777 10.3378 62.9787 10.3917V19.3733C62.9787 21.6234 64.3165 22.7485 66.0591 22.7485C66.8308 22.7348 67.5879 22.5354 68.2664 22.1672C68.355 22.124 68.4246 22.0497 68.462 21.9584C68.4993 21.867 68.5017 21.7652 68.4687 21.6722L68.1202 20.5846Z"
          fill="#0056D5"/>
    <path d="M91.677 12.2817C88.4242 12.2817 86.2469 14.3743 86.2469 17.4832C86.2469 20.5921 88.4242 22.7146 91.677 22.7146C94.8698 22.7146 97.0808 20.5921 97.0808 17.4832C97.0808 14.3743 94.8698 12.2817 91.677 12.2817ZM91.677 20.6221C89.9644 20.6221 88.7727 19.3433 88.7727 17.5132C88.7727 15.6831 89.9644 14.4043 91.677 14.4043C93.3896 14.4043 94.5513 15.6831 94.5513 17.5132C94.5513 19.3433 93.3596 20.6221 91.677 20.6221Z"
          fill="#0056D5"/>
    <path d="M104.425 12.2818C103.789 12.3291 103.176 12.5413 102.646 12.8977C102.116 13.2541 101.689 13.7423 101.405 14.3144V12.7468C101.406 12.693 101.397 12.6395 101.377 12.5895C101.357 12.5394 101.328 12.4939 101.29 12.4557C101.252 12.4175 101.207 12.3873 101.157 12.3671C101.107 12.3469 101.054 12.337 101 12.338H99.3437C99.2899 12.337 99.2365 12.3469 99.1867 12.3671C99.1369 12.3873 99.0917 12.4175 99.0538 12.4557C99.016 12.4939 98.9863 12.5394 98.9666 12.5895C98.9468 12.6395 98.9374 12.693 98.9389 12.7468V22.1634C98.9374 22.2172 98.9468 22.2707 98.9666 22.3208C98.9863 22.3708 99.016 22.4163 99.0538 22.4545C99.0917 22.4927 99.1369 22.5229 99.1867 22.5431C99.2365 22.5633 99.2899 22.5732 99.3437 22.5722H101C101.054 22.5732 101.107 22.5633 101.157 22.5431C101.207 22.5229 101.252 22.4927 101.29 22.4545C101.328 22.4163 101.357 22.3708 101.377 22.3208C101.397 22.2707 101.406 22.2172 101.405 22.1634V17.6857C101.405 15.9419 102.566 14.7231 104.485 14.6856C104.592 14.6837 104.694 14.6404 104.769 14.5649C104.845 14.4893 104.888 14.3874 104.89 14.2806V12.7468C104.896 12.6841 104.889 12.6208 104.868 12.5615C104.847 12.5021 104.813 12.4482 104.768 12.4037C104.724 12.3591 104.67 12.3251 104.61 12.304C104.551 12.2829 104.488 12.2753 104.425 12.2818Z"
          fill="#0056D5"/>
    <path d="M115.697 21.9909L112.096 16.3206L115.203 13.0655C115.26 13.0081 115.299 12.935 115.315 12.8554C115.33 12.7758 115.322 12.6934 115.29 12.6186C115.259 12.5439 115.206 12.4801 115.139 12.4355C115.071 12.3908 114.992 12.3673 114.91 12.368H113.198C113.091 12.3705 112.988 12.4118 112.909 12.4842L108.813 16.6094V8.79409C108.814 8.74013 108.805 8.68652 108.784 8.63646C108.764 8.58641 108.734 8.54094 108.696 8.50278C108.658 8.46462 108.612 8.43454 108.562 8.41436C108.512 8.39418 108.459 8.38431 108.405 8.38533H106.752C106.698 8.38431 106.645 8.39418 106.595 8.41436C106.545 8.43454 106.499 8.46462 106.461 8.50278C106.423 8.54094 106.393 8.58641 106.373 8.63646C106.353 8.68652 106.343 8.74013 106.344 8.79409V22.1934C106.343 22.2472 106.353 22.3006 106.373 22.3505C106.393 22.4003 106.423 22.4455 106.461 22.4834C106.5 22.5213 106.545 22.551 106.595 22.5708C106.645 22.5905 106.699 22.5999 106.752 22.5984H108.405C108.459 22.5999 108.512 22.5905 108.562 22.5708C108.612 22.551 108.658 22.5213 108.696 22.4834C108.734 22.4455 108.764 22.4003 108.784 22.3505C108.805 22.3006 108.814 22.2472 108.813 22.1934V19.7783L110.38 18.1245L113.026 22.4259C113.063 22.4851 113.115 22.5343 113.175 22.5696C113.236 22.6048 113.304 22.625 113.374 22.6284H115.349C115.422 22.6266 115.494 22.6054 115.557 22.5671C115.62 22.5288 115.671 22.4746 115.707 22.4101C115.742 22.3455 115.76 22.2728 115.758 22.1992C115.756 22.1257 115.736 22.0538 115.697 21.9909Z"
          fill="#0056D5"/>
    <path d="M84.6725 13.6168V12.803C84.6735 12.7492 84.6636 12.6958 84.6434 12.6459C84.6232 12.5961 84.5931 12.5508 84.5549 12.513C84.5167 12.4751 84.4712 12.4454 84.4212 12.4256C84.3712 12.4059 84.3177 12.3965 84.264 12.398H82.6114C82.5576 12.3965 82.5041 12.4059 82.4541 12.4256C82.4041 12.4454 82.3586 12.4751 82.3205 12.513C82.2823 12.5508 82.2522 12.5961 82.2319 12.6459C82.2117 12.6958 82.2019 12.7492 82.2029 12.803V15.3606C82.2029 16.3807 82.2329 17.3969 82.2029 18.4132C82.2053 18.8105 82.0792 19.1979 81.8435 19.5176C81.6078 19.8373 81.2751 20.0722 80.895 20.187C80.6481 20.252 80.3901 20.2639 80.1383 20.2218C79.8864 20.1797 79.6463 20.0846 79.4338 19.9429C79.2213 19.8011 79.0413 19.6159 78.9056 19.3994C78.7699 19.1829 78.6816 18.9401 78.6466 18.687C78.6316 18.3959 78.6316 18.1043 78.6466 17.8132V12.788C78.6476 12.734 78.6377 12.6804 78.6175 12.6304C78.5974 12.5803 78.5673 12.5349 78.5292 12.4967C78.4911 12.4585 78.4456 12.4285 78.3956 12.4083C78.3456 12.3881 78.292 12.3782 78.2381 12.3792H76.5855C76.5316 12.3782 76.478 12.3881 76.428 12.4083C76.3779 12.4285 76.3325 12.4585 76.2944 12.4967C76.2562 12.5349 76.2262 12.5803 76.206 12.6304C76.1859 12.6804 76.176 12.734 76.177 12.788V15.3344C76.177 16.3506 76.207 17.3669 76.177 18.3832C76.1769 18.7915 76.0436 19.1886 75.7974 19.5142C75.5512 19.8397 75.2055 20.076 74.8129 20.187C74.5633 20.2473 74.3037 20.2532 74.0517 20.2045C73.7996 20.1557 73.5609 20.0534 73.3517 19.9045C73.1425 19.7556 72.9676 19.5635 72.8389 19.3411C72.7102 19.1188 72.6307 18.8714 72.6057 18.6157C72.5907 18.3447 72.5907 18.073 72.6057 17.8019V12.7768C72.6067 12.7228 72.5968 12.6692 72.5767 12.6191C72.5565 12.5691 72.5265 12.5236 72.4883 12.4854C72.4502 12.4473 72.4047 12.4172 72.3547 12.397C72.3047 12.3769 72.2511 12.367 72.1972 12.368H70.5146C70.4607 12.367 70.4071 12.3769 70.3571 12.397C70.3071 12.4172 70.2617 12.4473 70.2235 12.4854C70.1854 12.5236 70.1553 12.5691 70.1352 12.6191C70.115 12.6692 70.1051 12.7228 70.1062 12.7768V18.4732C70.1128 19.4589 70.4608 20.4118 71.0908 21.1694C71.7208 21.9271 72.5939 22.4427 73.5613 22.6284C74.3031 22.7724 75.0713 22.6853 75.7621 22.3788C76.453 22.0724 77.0333 21.5613 77.4249 20.9146C77.7233 21.4038 78.1297 21.8181 78.6131 22.1256C79.0964 22.4331 79.6437 22.6256 80.213 22.6884C81.2868 22.7551 82.3461 22.412 83.1772 21.7284C83.851 21.158 84.3369 20.3972 84.5713 19.5458C84.7055 18.9456 84.7547 18.3296 84.7174 17.7157C84.6724 16.3506 84.6725 14.9856 84.6725 13.6168Z"
          fill="#0056D5"/>
    <path d="M27.1131 20.4121L22.437 16.7862L22.53 17.4873C22.5746 17.7726 22.597 18.061 22.5969 18.3498C22.5964 18.6005 22.5802 18.851 22.5486 19.0997L26.0083 21.7845C26.3295 22.0141 26.5542 22.3562 26.6383 22.744C26.7225 23.1318 26.66 23.5372 26.4632 23.881C26.2663 24.2248 25.9493 24.4822 25.5741 24.6028C25.1989 24.7234 24.7926 24.6985 24.4347 24.533L19.2265 22.3619C19.9319 21.9616 20.5189 21.3794 20.9275 20.6751C21.3361 19.9707 21.5515 19.1695 21.5516 18.3535C21.5507 18.0604 21.5233 17.768 21.4697 17.4798L20.283 8.48059C20.1787 7.67436 19.7869 6.93393 19.1808 6.39747C18.5746 5.86101 17.7955 5.56519 16.9889 5.56519C16.1822 5.56519 15.4031 5.86101 14.797 6.39747C14.1908 6.93393 13.799 7.67436 13.6947 8.48059L12.9172 14.3751L13.4715 13.9439C13.6952 13.7627 13.9328 13.5997 14.182 13.4564C14.3938 13.3338 14.6124 13.2236 14.8368 13.1265L15.4134 8.76557C15.4515 8.37151 15.6337 8.00584 15.9246 7.7398C16.2155 7.47375 16.5942 7.32637 16.987 7.32637C17.3798 7.32637 17.7585 7.47375 18.0494 7.7398C18.3403 8.00584 18.5226 8.37151 18.5606 8.76557L19.3046 14.3901C18.4734 13.8983 17.5091 13.6839 16.5497 13.7775C15.5903 13.8711 14.6848 14.2679 13.9626 14.9113L6.85343 20.4234C6.21098 20.917 5.769 21.6297 5.61022 22.4281C5.45144 23.2265 5.58672 24.0559 5.99077 24.761C6.39481 25.4661 7.03992 25.9987 7.80538 26.259C8.57083 26.5193 9.40417 26.4896 10.1494 26.1754L15.5994 23.9068L14.9521 23.6368C14.6867 23.5309 14.4293 23.4056 14.182 23.2619C13.9694 23.1388 13.7656 23.001 13.5719 22.8494L9.53191 24.533C9.17396 24.6985 8.76763 24.7234 8.39245 24.6028C8.01727 24.4822 7.70024 24.2248 7.50341 23.881C7.30658 23.5372 7.24412 23.1318 7.32825 22.744C7.41239 22.3562 7.63707 22.0141 7.9583 21.7845L12.4224 18.3198C12.4224 18.3198 12.4224 18.3423 12.4224 18.3535C12.4232 19.2924 12.7087 20.2086 13.2406 20.9793C13.7725 21.75 14.5255 22.3384 15.3985 22.6657L23.8246 26.1641C24.5695 26.4759 25.4016 26.5038 26.1654 26.2426C26.9293 25.9815 27.5728 25.4491 27.9759 24.7449C28.3789 24.0407 28.5141 23.2127 28.356 22.4154C28.1979 21.6182 27.7575 20.9061 27.1169 20.4121H27.1131ZM14.1523 18.3423C14.153 17.7803 14.319 17.2311 14.6293 16.7642C14.9396 16.2973 15.3803 15.9336 15.8956 15.719C16.4109 15.5045 16.9778 15.4487 17.5245 15.5588C18.0713 15.6689 18.5734 15.9399 18.9674 16.3376C19.3614 16.7352 19.6295 17.2417 19.7381 17.7929C19.8466 18.3442 19.7905 18.9154 19.577 19.4346C19.3634 19.9537 19.002 20.3974 18.5384 20.7095C18.0747 21.0217 17.5297 21.1883 16.9721 21.1883C16.6015 21.1883 16.2345 21.1146 15.8922 20.9716C15.5498 20.8285 15.2388 20.6188 14.9769 20.3545C14.715 20.0902 14.5074 19.7764 14.3659 19.4311C14.2244 19.0858 14.1518 18.7158 14.1523 18.3423Z"
          fill="#0056D5"/>
</svg>
