<svg xmlns="http://www.w3.org/2000/svg" width="768" height="265" style="shape-rendering:geometricPrecision;text-rendering:geometricPrecision;image-rendering:optimizeQuality;fill-rule:evenodd;clip-rule:evenodd"><path style="opacity:.352" fill="#fefffe" d="M621.5 21.5c8.673-.166 17.34 0 26 .5a85.4 85.4 0 0 1 10 21 47.22 47.22 0 0 1 16 3.5c1.529-.029 2.696-.696 3.5-2a70.183 70.183 0 0 1 13-15A172.64 172.64 0 0 1 716.5 50a158.335 158.335 0 0 0-9 18.5 213.358 213.358 0 0 0 10.5 13 722.348 722.348 0 0 1 25.5-2.5 332.941 332.941 0 0 1 11 27 123.16 123.16 0 0 1-22 13.5c-1.333 5.667-1.333 11.333 0 17a686.829 686.829 0 0 1 21.5 11 154.093 154.093 0 0 1-5 27c-1.473 1.507-3.307 2.174-5.5 2-7.766-.919-15.6-.919-23.5 0a4501.016 4501.016 0 0 1-8.5 13 286.403 286.403 0 0 1 8.5 18c.667 1 .667 2 0 3a229.688 229.688 0 0 1-18.5 17.5c-2.598-.126-4.931-1.126-7-3a110.872 110.872 0 0 0-14-11c-5.464-.293-10.63.873-15.5 3.5a1531.14 1531.14 0 0 0-6.5 26.5c-9.333.667-18.667.667-28 0-2.812-8.547-4.812-17.381-6-26.5a70.5 70.5 0 0 0-15-2.5L589 231.5a325.946 325.946 0 0 1-22-21c-.667-.667-.667-1.333 0-2a119.32 119.32 0 0 0 12-14c4.779-3.446 8.946-7.612 12.5-12.5 1.865-1.301 3.865-1.635 6-1 16.391 12.868 35.391 18.534 57 17 10.108-1.92 19.442-5.587 28-11 1.425-1.362 2.258-2.862 2.5-4.5l1 1c24.785-21.135 31.452-47.135 20-78-11.973-25.072-31.806-38.906-59.5-41.5-3.076-6.768-7.409-12.768-13-18a30.127 30.127 0 0 0-12-3 58.992 58.992 0 0 1 0-21.5z"/><path style="opacity:.351" fill="#fefffe" d="M191.5 97.5c1.871-16.58 9.538-29.747 23-39.5 25.515-11.05 44.681-4.217 57.5 20.5a107.885 107.885 0 0 1 5 17 282.684 282.684 0 0 1 0 30c1.638-8.758 6.472-15.924 14.5-21.5-9.763-6.603-13.263-15.77-10.5-27.5 5.989-16.606 17.989-24.606 36-24 12.972-.352 23.638 4.315 32 14 8.428 13.576 6.928 25.91-4.5 37 14.424 10.705 18.424 24.372 12 41 8.214.649 13.714-3.018 16.5-11a3040.79 3040.79 0 0 1 1.5-77.5c6.892-1.59 13.892-1.924 21-1l1.5 1.5 1 33c5.865-16.197 17.031-27.03 33.5-32.5 26.624-6.898 48.124.935 64.5 23.5.183-8.245.683-16.412 1.5-24.5a1470.364 1470.364 0 0 1 29.5-1.5c9.479.245 18.312 2.745 26.5 7.5 11.15 10.768 13.65 23.268 7.5 37.5-1.5 2.167-3.333 4-5.5 5.5 13.436 6.288 18.936 16.788 16.5 31.5-4.586 16.584-15.42 26.084-32.5 28.5-14 .667-28 .667-42 0a312.742 312.742 0 0 1-1.5-24.5c-15.256 20.982-35.756 28.816-61.5 23.5a76.244 76.244 0 0 1-18-8 134.173 134.173 0 0 1-18.5-20.5c-5.102 22.107-18.935 32.274-41.5 30.5a55.232 55.232 0 0 0-3-13c1.017-1.049 1.184-2.216.5-3.5-9.364 11.429-21.531 17.096-36.5 17-26.886-.056-40.72-13.389-41.5-40-3.423 19.387-14.256 32.554-32.5 39.5-26.459 2.525-43.292-8.975-50.5-34.5a95.327 95.327 0 0 1-4-22c.46 18.322.46 36.655 0 55a102.191 102.191 0 0 1-24.5.5 1107.742 1107.742 0 0 1-.5-79.5c-2.149 2.16-4.649 3.328-7.5 3.5L146 78.5c-.667-1.333-.667-2.667 0-4A226.096 226.096 0 0 1 170.5 54c5.369-.393 10.535-.56 15.5-.5l2 2 1 47 2.5-2.5c-1.098-.77-1.098-1.603 0-2.5zm39-22c9.511.662 15.678 5.662 18.5 15 3.562 14.363 3.062 28.196-1.5 41.5-9.437 15.488-18.604 15.322-27.5-.5-3.833-12.812-4.499-25.812-2-39 2.168-7.308 6.335-12.974 12.5-17zm85 0c9.06-.114 12.893 4.22 11.5 13-3.277 5.609-8.11 7.442-14.5 5.5-5.967-3.392-7.467-8.226-4.5-14.5 2.255-1.999 4.755-3.332 7.5-4zm204 1c6.093-.36 12.093.14 18 1.5 2.649 1.964 3.982 4.63 4 8-.513 3.687-1.846 7.02-4 10a38.161 38.161 0 0 1-9.5 2.5c-2.789-1.085-5.622-1.085-8.5 0v-22zm-78 1c23.757-1.418 37.09 9.749 40 33.5-2.651 17.982-12.818 28.815-30.5 32.5-23.438-3.154-34.105-16.821-32-41 3.528-12.022 11.028-20.356 22.5-25zm-127 39c16.372.427 21.372 8.094 15 23-9.4 6.101-17.9 5.101-25.5-3-2.565-9.87.935-16.537 10.5-20zm205 1c6.687.169 13.354.669 20 1.5 7.874 4.051 10.041 10.218 6.5 18.5-1.5 2.167-3.333 4-5.5 5.5a284.93 284.93 0 0 0-21 1.5v-27z"/><path style="opacity:.343" fill="#fefffe" d="M591.5 54.5c11.706-1.072 23.04.428 34 4.5 2.522.61 4.522 1.943 6 4-2.683 5.697-5.35 11.364-8 17-2 .667-4 .667-6 0-5.267-2.507-10.767-4.007-16.5-4.5-9.418 1.81-12.084 7.144-8 16 7.23 5.035 15.396 9.202 24.5 12.5 16.862 12.663 20.362 28.829 10.5 48.5-12.201 12.984-27.034 17.15-44.5 12.5-6.4-1.854-11.734-5.188-16-10a172.633 172.633 0 0 1 9-19.5c3.832 2.75 7.832 5.25 12 7.5 5.349 1.929 10.682 1.929 16 0 7.234-8.034 6.234-15.034-3-21a362.05 362.05 0 0 1-23-11c-14.261-12.19-16.761-26.357-7.5-42.5 5.141-7.334 11.975-12.001 20.5-14z"/><path style="opacity:.4" fill="#f7f8f8" d="M97.5 56.5c.11.617.444 1.117 1 1.5 3.569.39 6.903 1.39 10 3l-4 1c.544.717 1.211 1.217 2 1.5h1c1.525 1.716 2.525 3.716 3 6-.073 1.527.594 2.527 2 3 1 .333 1.667 1 2 2 .238 1.904 1.238 3.238 3 4 1.431 1.28 2.098 2.947 2 5a4.934 4.934 0 0 1-.5 3c-4.051-2.546-8.218-3.213-12.5-2h-1c-.763-.768-1.763-1.268-3-1.5-15.66-1.813-30.827.02-45.5 5.5a2.428 2.428 0 0 1-.5-2c-1.125-1.152-1.125-2.152 0-3 .838-.342 1.172-1.008 1-2 1.548.321 2.215 1.321 2 3 1.88.27 3.213-.396 4-2 3.448-1.886 5.114-4.886 5-9 .579-2.831 1.912-5.164 4-7 2.874-2.69 2.541-3.356-1-2a5.576 5.576 0 0 0-3 1c-1.196-.346-1.196-.846 0-1.5a45.903 45.903 0 0 1 10-4 14.692 14.692 0 0 0 3-3.5c5.333-1.333 10.667-1.333 16 0zm-9 14v1c0 2-1 3-3 3 .293-3.937-.04-7.77-1-11.5a4.452 4.452 0 0 1 2-1.5 471.119 471.119 0 0 0 2 9zm6-9c1.923 3.53 2.59 7.53 2 12a4.932 4.932 0 0 1-3-.5c.96-3.73 1.293-7.563 1-11.5z"/><path style="opacity:.075" fill="#6a747a" d="M71.5 64.5c3.541-1.356 3.874-.69 1 2 .172-.992-.162-1.658-1-2z"/><path style="opacity:.38" fill="#aab0b4" d="M97.5 56.5c10.248.608 17.914 5.275 23 14v1c-.904.709-1.237 1.709-1 3a68.972 68.972 0 0 0-6-8.5c-1.717-1.559-3.717-2.392-6-2.5-.333-1.333-.667-1.333-1 0-.789-.283-1.456-.783-2-1.5l4-1c-3.097-1.61-6.431-2.61-10-3-.556-.383-.89-.883-1-1.5z"/><path style="opacity:.288" fill="#a1a8ab" d="M88.5 70.5a471.119 471.119 0 0 1-2-9 4.452 4.452 0 0 0-2 1.5c.96 3.73 1.293 7.563 1 11.5-.722-.418-1.222-1.084-1.5-2a30.499 30.499 0 0 1 0-11c1.356-.88 2.856-1.214 4.5-1v10z"/><path style="opacity:.29" fill="#b4b9bc" d="M85.5 74.5c2 0 3-1 3-3 1.302 1.307 2.635 1.307 4 0a31.121 31.121 0 0 0 1-11c1.951-.273 3.451.393 4.5 2 .667 4 .667 8 0 12-4.246.099-8.413.099-12.5 0zm9-13c.293 3.937-.04 7.77-1 11.5.948.483 1.948.65 3 .5.59-4.47-.077-8.47-2-12z"/><path style="opacity:.305" fill="#fefffe" d="M643.5 69.5c33.436 1.93 53.936 19.264 61.5 52 3.319 32.346-9.848 55.179-39.5 68.5-20.221 7.296-39.554 4.296-58-9 3.603-3.387 7.769-5.887 12.5-7.5 24.894 12.461 46.394 7.461 64.5-15 10.102-20.374 8.935-39.708-3.5-58-12.395-12.356-27.395-18.356-45-18 1.422-4.83 3.922-9.164 7.5-13z"/><path style="opacity:.399" fill="#b3b8bb" d="M81.5 56.5a14.692 14.692 0 0 1-3 3.5 45.903 45.903 0 0 0-10 4c-1.196.654-1.196 1.154 0 1.5a5.576 5.576 0 0 1 3-1c-2.667 2-5 4.333-7 7-1.406.473-2.073 1.473-2 3a41.263 41.263 0 0 0-1.5 9c.67-.752 1.504-1.086 2.5-1-.787 1.604-2.12 2.27-4 2 .215-1.679-.452-2.679-2-3a53.805 53.805 0 0 0 2-8c1.658-4.172 4.325-7.672 8-10.5 4.772-2.174 9.438-4.34 14-6.5z"/><path style="opacity:.216" fill="#778189" d="M110.5 69.5c1.406.473 2.073 1.473 2 3-1.406-.473-2.073-1.473-2-3z"/><path style="opacity:.102" fill="#606c72" d="M120.5 70.5c2.039 1.411 3.039 3.411 3 6-1.237-1.465-2.237-3.132-3-5v-1z"/><path style="opacity:.094" fill="#48545b" d="M64.5 71.5c.073 1.527-.594 2.527-2 3-.073-1.527.594-2.527 2-3z"/><path style="opacity:.212" fill="#646e74" d="M59.5 73.5a53.805 53.805 0 0 1-2 8c.172.992-.162 1.658-1 2-.18-3.786.82-7.119 3-10z"/><path style="opacity:.337" fill="#7c858e" d="M114.5 74.5c1.762.762 2.762 2.096 3 4-1.762-.762-2.762-2.096-3-4z"/><path style="opacity:.399" fill="#dfe2e4" d="M120.5 71.5c.763 1.868 1.763 3.535 3 5-.294 4.067 1.04 7.4 4 10 .233 3.042 1.233 5.708 3 8 2.729 3.378 3.395 7.045 2 11-1.542.801-3.208 1.134-5 1h-1c.75-7.122-.583-13.788-4-20 .228-4.424-.772-8.424-3-12-.237-1.291.096-2.291 1-3z"/><path style="opacity:.373" fill="#8f969b" d="M68.5 73.5c.114 4.114-1.552 7.114-5 9a58.35 58.35 0 0 1 5-9z"/><path style="opacity:.227" fill="#839099" d="M119.5 74.5c2.228 3.576 3.228 7.576 3 12h-1a76.254 76.254 0 0 0-2-12z"/><path style="opacity:.039" fill="#5a666c" d="M123.5 76.5a87.658 87.658 0 0 1 4 10c-2.96-2.6-4.294-5.933-4-10z"/><path style="opacity:.086" fill="#97a5ae" d="M106.5 84.5c4.282-1.213 8.449-.546 12.5 2a4.934 4.934 0 0 0 .5-3l2 3a2.429 2.429 0 0 1-.5 2 44.488 44.488 0 0 0-14.5-4z"/><path style="opacity:.035" fill="#9da6ac" d="M105.5 84.5c-15.938-1.47-31.605.03-47 4.5L57 90.5a60.94 60.94 0 0 0-.5 11l-2-11c.16-1.653.826-2.986 2-4a2.428 2.428 0 0 0 .5 2c14.673-5.48 29.84-7.313 45.5-5.5 1.237.232 2.237.732 3 1.5z"/><path style="opacity:.349" fill="#bdc4c9" d="M111.5 89.5a720.964 720.964 0 0 0-18.5-1 210.1 210.1 0 0 0-22.5 2c7.004-2.388 14.337-3.388 22-3 6.565-.138 12.899.528 19 2z"/><path style="opacity:.4" fill="#e7eaec" d="M111.5 89.5h2l-16 4h-27l-4-2c1.068-.934 2.401-1.268 4-1a210.1 210.1 0 0 1 22.5-2c6.176.254 12.343.588 18.5 1z"/><path style="opacity:.004" fill="#424e55" d="M127.5 86.5c1.767 2.292 2.767 4.958 3 8-1.767-2.292-2.767-4.958-3-8z"/><path style="opacity:.4" fill="#e9ebeb" d="m54.5 90.5 2 11c.977 2.787 1.31 5.787 1 9a21.434 21.434 0 0 1-7-1v-11c.396-3.221 1.73-5.888 4-8z"/><path style="opacity:.153" fill="#8f9ba0" d="m66.5 91.5 4 2c5.206 1.897 10.706 2.897 16.5 3a781.811 781.811 0 0 0 25.5-3v2a650.074 650.074 0 0 1-25 2 51.04 51.04 0 0 1-16-2c-.607.124-.94.457-1 1h-4a117.197 117.197 0 0 0 5 26c-1.636-1.249-2.803-2.916-3.5-5a180.404 180.404 0 0 1-2.5-21h-4a168.761 168.761 0 0 0-1 19c-1.337-1.849-2.003-4.016-2-6.5a69.757 69.757 0 0 1 3-13.5c.925-1.14 1.759-1.14 2.5 0 .492-1.049.326-2.049-.5-3 .825-.886 1.825-1.219 3-1z"/><path style="opacity:.4" fill="#edeeef" d="M123.5 103.5c1.456 4.473 1.123 8.807-1 13-1 1.667-2.333 3-4 4-1.904.238-3.238 1.238-4 3-.838-.342-1.172-1.008-1-2-.172-.992.162-1.658 1-2 1.293-1.342 2.126-3.009 2.5-5 .964-5.877 2.13-11.71 3.5-17.5l1-1.5a346.454 346.454 0 0 0 2 8z"/><path style="opacity:.4" fill="#f1f2f2" d="M71.5 122.5a2.427 2.427 0 0 1-.5 2c-.816-1.323-1.983-1.989-3.5-2-3.333-1.333-5.667-3.667-7-7-.024-6.357.31-12.69 1-19h4a180.404 180.404 0 0 0 2.5 21c.697 2.084 1.864 3.751 3.5 5z"/><path style="opacity:.4" fill="#f6f7f7" d="M112.5 95.5c1.383 5.878 1.05 11.545-1 17-1.236 2.149-2.236 4.482-3 7-1.257 2.927-3.257 5.261-6 7-2.319.492-4.319 1.492-6 3-2.333 1.333-4.667 1.333-7 0a43.674 43.674 0 0 1-13-8c-4.658-7.561-6.658-15.894-6-25 .06-.543.393-.876 1-1a51.04 51.04 0 0 0 16 2 650.074 650.074 0 0 0 25-2z"/><path style="opacity:.004" fill="#fefffe" d="M191.5 97.5c-.667-1.333-.667-1.333 0 0z"/><path style="opacity:.254" fill="#fefffe" d="M648.5 98.5c8.168.999 10.668 5.332 7.5 13-4.663 4.253-8.997 3.92-13-1a26.67 26.67 0 0 0-1.5-6.5 59.425 59.425 0 0 0 7-5.5z"/><path style="opacity:.306" fill="#8b9297" d="M50.5 98.5v11c-2.667-3.667-2.667-7.333 0-11z"/><path style="opacity:.004" fill="#fefffe" d="M560.5 105.5c1.333.667 1.333.667 0 0z"/><path style="opacity:.008" fill="#7f888d" d="M132.5 105.5c-1.077 3.472-2.744 3.805-5 1 1.792.134 3.458-.199 5-1z"/><path style="opacity:.306" fill="#96a3ab" d="M113.5 89.5c8.599 1.226 11.932 5.892 10 14a346.454 346.454 0 0 1-2-8l-1 1.5a255.792 255.792 0 0 0-3.5 17.5c-.374 1.991-1.207 3.658-2.5 5a161.446 161.446 0 0 0 3.5-20 14.442 14.442 0 0 1 2.5-5.5 32.438 32.438 0 0 0-8-.5c-4.834-.926-9.834-.926-15 0l16-4z"/><path style="opacity:.043" fill="#677177" d="M50.5 109.5a21.434 21.434 0 0 0 7 1c-.774.647-1.774.98-3 1-1.855.16-3.188-.507-4-2z"/><path style="opacity:.008" fill="#636f77" d="M123.5 103.5a10.165 10.165 0 0 1 3 3c.014 3.975-1.319 7.308-4 10 2.123-4.193 2.456-8.527 1-13z"/><path style="opacity:.004" fill="#3f5663" d="M111.5 112.5c.334 2.991-.666 5.324-3 7 .764-2.518 1.764-4.851 3-7z"/><path style="opacity:.306" fill="#878f94" d="M76.5 121.5a43.674 43.674 0 0 0 13 8c-5.753-.376-10.086-3.042-13-8z"/><path style="opacity:.016" fill="#798287" d="M118.5 120.5c-.762 1.762-2.096 2.762-4 3 .762-1.762 2.096-2.762 4-3z"/><path style="opacity:.264" fill="#fefffe" d="M668.5 122.5c7.515-.642 11.348 2.691 11.5 10-4.222 7.128-9.222 7.794-15 2-1.407-4.944-.241-8.944 3.5-12z"/><path style="opacity:.008" fill="#8c979c" d="M102.5 126.5c-1.411 2.039-3.411 3.039-6 3 1.681-1.508 3.681-2.508 6-3z"/><path style="opacity:.145" fill="#889094" d="M67.5 122.5c1.517.011 2.684.677 3.5 2a2.427 2.427 0 0 0 .5-2 201.409 201.409 0 0 0 10.5 8c.528 1.316.028 1.983-1.5 2-.605-1.526-1.771-2.526-3.5-3-1.008 1.759-2.508 2.926-4.5 3.5a104.293 104.293 0 0 0-17 6.5c6.3-3.89 12.966-7.223 20-10a1247.344 1247.344 0 0 1-8-7z"/><path style="opacity:.4" fill="#f9f9f9" d="M80.5 132.5c-.906 1.465-2.239 2.465-4 3-1.385 4.636-.719 8.969 2 13-.073 1.527.594 2.527 2 3 .58 2.249 1.913 3.915 4 5 .838.342 1.172 1.008 1 2-.073 1.527.594 2.527 2 3-.17 1.322.163 2.489 1 3.5-2.208.191-4.208.691-6 1.5h-12c-10.208-.342-20.208-1.342-30-3a51.648 51.648 0 0 0 1-7c1.841-2.349 3.174-5.015 4-8 .333-1 1-1.667 2-2 1.667-1 3-2.333 4-4 .762-1.762 2.096-2.762 4-3a104.293 104.293 0 0 1 17-6.5c1.992-.574 3.492-1.741 4.5-3.5 1.729.474 2.895 1.474 3.5 3z"/><path style="opacity:.149" fill="#889196" d="M113.5 121.5c-.172.992.162 1.658 1 2-1.879 2.615-4.212 4.781-7 6.5 6.107 1.309 11.774 3.475 17 6.5.065.438-.101.772-.5 1-6.461-4.117-13.295-5.783-20.5-5-.789-.283-1.456-.783-2-1.5a159.201 159.201 0 0 1 12-9.5z"/><path style="opacity:.4" fill="#f8f9f9" d="M124.5 136.5c4.183 1.587 7.85 3.921 11 7a73.247 73.247 0 0 1 11 20v3h-51l1-4c1.406-.473 2.073-1.473 2-3 1.75-1.159 2.75-2.826 3-5 2.431-1.546 3.764-3.879 4-7a64.947 64.947 0 0 0 3-11 455.669 455.669 0 0 0-5-4c7.205-.783 14.039.883 20.5 5 .399-.228.565-.562.5-1z"/><path style="opacity:.231" fill="#6c767b" d="M51.5 142.5c-1 1.667-2.333 3-4 4 .333-2.333 1.667-3.667 4-4z"/><path style="opacity:.251" fill="#5e686d" d="M78.5 148.5c1.406.473 2.073 1.473 2 3-1.406-.473-2.073-1.473-2-3z"/><path style="opacity:.262" fill="#fefffe" d="M648.5 149.5c6.33-.511 9.996 2.322 11 8.5-1.992 6.828-6.325 9.161-13 7-3.777-3.302-4.611-7.136-2.5-11.5 1.397-1.57 2.897-2.904 4.5-4z"/><path style="opacity:.369" fill="#93999e" d="M105.5 147.5c-.236 3.121-1.569 5.454-4 7 .579-2.831 1.912-5.164 4-7z"/><path style="opacity:.086" fill="#606b71" d="M135.5 143.5c6.256 5.175 9.923 11.841 11 20a73.247 73.247 0 0 0-11-20z"/><path style="opacity:.071" fill="#455159" d="M45.5 148.5c-.826 2.985-2.159 5.651-4 8 .294-3.254 1.627-5.921 4-8z"/><path style="opacity:.337" fill="#767f85" d="M80.5 151.5c2.087 1.085 3.42 2.751 4 5-2.087-1.085-3.42-2.751-4-5z"/><path style="opacity:.118" fill="#626d73" d="M101.5 154.5c-.25 2.174-1.25 3.841-3 5 .25-2.174 1.25-3.841 3-5z"/><path style="opacity:.184" fill="#58646a" d="M41.5 156.5a51.648 51.648 0 0 1-1 7h-1c-.09-2.652.576-4.985 2-7z"/><path style="opacity:.075" fill="#3c4951" d="M85.5 158.5c1.406.473 2.073 1.473 2 3-1.406-.473-2.073-1.473-2-3z"/><path style="opacity:.094" fill="#4e5b60" d="M98.5 159.5c.073 1.527-.594 2.527-2 3-.073-1.527.594-2.527 2-3z"/><path style="opacity:.043" fill="#324048" d="m96.5 162.5-1 4c-1.353-1.628-1.02-2.962 1-4z"/><path style="opacity:.18" fill="#ccd2d4" d="M39.5 163.5h1c9.792 1.658 19.792 2.658 30 3h-31v-3z"/><path style="opacity:.212" fill="#9ca3a7" d="M87.5 161.5c.98 1.265 1.98 2.599 3 4a16.874 16.874 0 0 1-8 1c1.792-.809 3.792-1.309 6-1.5-.837-1.011-1.17-2.178-1-3.5z"/></svg>