<svg width="232" height="64" viewBox="0 0 232 64" fill="none" xmlns="http://www.w3.org/2000/svg">
    <path d="M56.314 40.5908L46.7061 33.1199L46.8972 34.5646C46.9889 35.1524 47.0349 35.7465 47.0348 36.3416C47.0337 36.8582 47.0005 37.3743 46.9355 37.8868L54.0439 43.4185C54.7039 43.8916 55.1656 44.5966 55.3384 45.3955C55.5113 46.1945 55.383 47.0299 54.9785 47.7382C54.5741 48.4466 53.9227 48.9769 53.1519 49.2254C52.381 49.4738 51.5462 49.4226 50.8107 49.0816L40.1098 44.6083C41.5591 43.7835 42.7653 42.584 43.6048 41.1326C44.4442 39.6813 44.8868 38.0305 44.887 36.3493C44.8851 35.7453 44.8289 35.1428 44.7188 34.5492L42.2806 16.0069C42.0662 14.3458 41.2612 12.8202 40.0158 11.7148C38.7704 10.6095 37.1696 10 35.5122 10C33.8549 10 32.2541 10.6095 31.0087 11.7148C29.7633 12.8202 28.9583 14.3458 28.7439 16.0069L27.1464 28.1521L28.2853 27.2636C28.7449 26.8904 29.2331 26.5545 29.7452 26.2592C30.1803 26.0066 30.6294 25.7796 31.0905 25.5794L32.2752 16.5941C32.3534 15.7822 32.7278 15.0288 33.3255 14.4806C33.9232 13.9324 34.7014 13.6288 35.5084 13.6288C36.3155 13.6288 37.0936 13.9324 37.6913 14.4806C38.289 15.0288 38.6634 15.7822 38.7416 16.5941L40.2703 28.183C38.5624 27.1697 36.5812 26.7279 34.61 26.9207C32.6387 27.1136 30.7782 27.9313 29.2943 29.2569L14.6875 40.614C13.3675 41.6312 12.4594 43.0997 12.1332 44.7447C11.8069 46.3897 12.0849 48.0985 12.915 49.5514C13.7452 51.0042 15.0707 52.1015 16.6434 52.6379C18.2162 53.1743 19.9284 53.113 21.4597 52.4656L32.6574 47.7914L31.3274 47.2351C30.7821 47.0168 30.2533 46.7586 29.7452 46.4626C29.3084 46.209 28.8895 45.925 28.4917 45.6127L20.1908 49.0816C19.4554 49.4226 18.6205 49.4738 17.8497 49.2254C17.0788 48.9769 16.4274 48.4466 16.023 47.7382C15.6186 47.0299 15.4902 46.1945 15.6631 45.3955C15.836 44.5966 16.2976 43.8916 16.9576 43.4185L26.1298 36.2798C26.1298 36.2798 26.1298 36.3261 26.1298 36.3493C26.1314 38.2838 26.7179 40.1715 27.8109 41.7595C28.9038 43.3475 30.4508 44.5599 32.2446 45.2341L49.5572 52.4424C51.0878 53.0847 52.7973 53.1422 54.3668 52.6041C55.9363 52.0661 57.2584 50.9692 58.0866 49.5182C58.9148 48.0672 59.1924 46.3612 58.8676 44.7185C58.5429 43.0758 57.638 41.6087 56.3217 40.5908H56.314ZM29.6841 36.3261C29.6856 35.1682 30.0267 34.0367 30.6642 33.0747C31.3018 32.1126 32.2071 31.3632 33.266 30.9212C34.3248 30.4791 35.4895 30.3642 36.6128 30.5911C37.7362 30.8179 38.7678 31.3763 39.5773 32.1956C40.3869 33.0149 40.9379 34.0584 41.1608 35.1942C41.3838 36.33 41.2686 37.5071 40.8299 38.5767C40.3911 39.6464 39.6485 40.5605 38.6959 41.2037C37.7433 41.8468 36.6234 42.1901 35.4778 42.1901C34.7163 42.1901 33.9623 42.0384 33.2589 41.7436C32.5555 41.4488 31.9164 41.0167 31.3783 40.4721C30.8402 39.9275 30.4136 39.281 30.1229 38.5696C29.8322 37.8582 29.6831 37.0958 29.6841 36.3261Z"
          fill="#0056D5"/>
    <path d="M75.3242 10.8863C74.1425 10.3121 72.8364 10 71.5179 10C68.1594 10 65 12.0848 65 16.3167V34.9923C65 35.0922 65.0124 35.1795 65.0498 35.2794C65.0871 35.3668 65.1368 35.4542 65.2115 35.5166C65.2737 35.579 65.3607 35.6414 65.4478 35.6789C65.5349 35.7163 65.6344 35.7288 65.7339 35.7288H68.7068C68.8063 35.7288 68.8933 35.7163 68.9928 35.6789C69.0799 35.6414 69.167 35.5915 69.2292 35.5166C69.3038 35.4542 69.3536 35.3668 69.3909 35.2794C69.4282 35.192 69.4406 35.0922 69.4406 34.9923V21.3726H73.2967C73.3962 21.3726 73.4957 21.3601 73.5828 21.3227C73.6698 21.2852 73.7569 21.2353 73.8191 21.1604C73.8937 21.098 73.9435 21.0106 73.9808 20.9232C74.0181 20.8358 74.0305 20.7359 74.0305 20.6361V18.8634C74.0305 18.7635 74.0181 18.6761 73.9808 18.5763C73.9435 18.4889 73.8937 18.4015 73.8191 18.3391C73.7445 18.2767 73.6698 18.2142 73.5828 18.1768C73.4957 18.1393 73.3962 18.1269 73.2967 18.1269H69.4406V16.2543C69.4158 15.9297 69.4531 15.6176 69.565 15.318C69.677 15.0184 69.8511 14.7438 70.0875 14.5191C70.3114 14.2944 70.585 14.1196 70.896 14.0197C71.1945 13.9199 71.5179 13.8699 71.8413 13.9074C72.4508 13.9199 73.0603 14.0697 73.6201 14.3193C73.7071 14.3693 73.7942 14.4067 73.8937 14.4192C73.9932 14.4317 74.0927 14.4192 74.1798 14.3942C74.2793 14.3693 74.3664 14.3193 74.4286 14.2444C74.5032 14.182 74.553 14.0946 74.5903 14.0073L75.6351 11.9849C75.7347 11.7976 75.7595 11.5729 75.7098 11.3607C75.6476 11.1485 75.5108 10.9737 75.3242 10.8739V10.8863Z"
          fill="#0056D5"/>
    <path d="M94.455 17.3529H91.4821C91.3826 17.3529 91.2955 17.3653 91.196 17.4028C91.1089 17.4402 91.0219 17.4902 90.9597 17.5651C90.8975 17.6275 90.8353 17.7149 90.798 17.8023C90.7606 17.8897 90.7482 17.9895 90.7482 18.0894V20.274C90.0641 19.2379 89.1187 18.414 88.0117 17.8647C86.9046 17.3154 85.6732 17.0657 84.4417 17.1531C79.2797 17.2031 75.8466 20.9606 75.8466 26.4909C75.8466 32.0212 79.3419 35.991 84.591 35.991C85.7976 36.0534 87.0041 35.7912 88.0863 35.2419C89.1685 34.6927 90.0765 33.8687 90.7482 32.8576V35.0547C90.7482 35.1546 90.7606 35.2419 90.798 35.3418C90.8353 35.4292 90.885 35.5166 90.9597 35.579C91.0219 35.6414 91.1089 35.7038 91.196 35.7413C91.2831 35.7787 91.3826 35.7912 91.4821 35.7912H94.455C94.5545 35.7912 94.6415 35.7787 94.741 35.7413C94.8281 35.7038 94.9152 35.6539 94.9774 35.579C95.052 35.5166 95.1018 35.4292 95.1391 35.3418C95.1764 35.2544 95.1888 35.1546 95.1888 35.0547V18.1019C95.1888 18.002 95.1888 17.9021 95.1515 17.8148C95.1142 17.7274 95.0645 17.64 95.0023 17.5651C94.9276 17.4902 94.853 17.4402 94.7535 17.4028C94.6664 17.3653 94.5669 17.3529 94.4674 17.3653L94.455 17.3529ZM90.6487 26.7156C90.6487 27.2649 90.5989 27.8017 90.4994 28.3385C90.2631 29.462 89.6287 30.4732 88.7331 31.1848C87.8251 31.8963 86.7056 32.2708 85.5488 32.2459C82.464 32.2459 80.337 29.9489 80.337 26.6157C80.337 23.2826 82.5262 20.9856 85.5488 20.9856C86.7056 20.9482 87.8375 21.3227 88.7331 22.0342C89.6412 22.7458 90.2631 23.757 90.4994 24.893C90.6238 25.4173 90.6736 25.9666 90.6487 26.5034V26.7156Z"
          fill="#0056D5"/>
    <path d="M103.212 22.2589C103.212 21.1104 104.257 20.636 105.712 20.636C107.379 20.6985 108.996 21.1479 110.464 21.9468C110.638 22.0467 110.849 22.0592 111.048 22.0093C111.247 21.9468 111.409 21.822 111.509 21.6347L112.441 19.6998C112.528 19.525 112.541 19.3253 112.479 19.1505C112.417 18.9632 112.292 18.8134 112.13 18.7136C110.24 17.6899 108.125 17.1531 105.973 17.1406C102.279 17.1406 99.0449 18.9133 99.0449 22.6709C98.9951 29.1874 108.635 27.3772 108.635 30.7478C108.635 31.9462 107.491 32.4706 105.948 32.4706C103.971 32.4331 102.055 31.8089 100.426 30.6979C100.338 30.6355 100.227 30.598 100.127 30.5855C100.015 30.573 99.9156 30.5855 99.8036 30.6105C99.7041 30.6355 99.6046 30.6979 99.5175 30.7603C99.4305 30.8352 99.3683 30.9226 99.3185 31.0225L98.4229 32.7827C98.3483 32.9449 98.3358 33.1197 98.3732 33.2945C98.4105 33.4693 98.4976 33.6191 98.6344 33.7314C100.712 35.1795 103.187 35.941 105.724 35.916C109.643 35.916 112.976 34.0934 112.976 30.3359C112.976 23.7819 103.224 25.3798 103.224 22.2714L103.212 22.2589Z"
          fill="#0056D5"/>
    <path d="M125.204 32.096C125.179 31.9962 125.129 31.9088 125.054 31.8214C124.992 31.7465 124.905 31.6841 124.806 31.6341C124.706 31.5842 124.607 31.5592 124.507 31.5592C124.407 31.5592 124.296 31.5717 124.208 31.6216C123.636 31.8713 123.014 32.0086 122.392 32.0336C121.136 32.0336 120.415 31.1473 120.415 29.1624V21.3601H124.942C125.042 21.3601 125.141 21.3476 125.228 21.3101C125.316 21.2727 125.403 21.2228 125.465 21.1479C125.539 21.0854 125.589 20.9981 125.626 20.9107C125.664 20.8233 125.676 20.7234 125.676 20.6235V18.8509C125.676 18.751 125.664 18.6636 125.626 18.5637C125.589 18.4764 125.539 18.389 125.465 18.3265C125.39 18.2641 125.316 18.2017 125.228 18.1643C125.141 18.1268 125.042 18.1143 124.942 18.1143H120.415V13.7825C120.415 13.6826 120.402 13.5952 120.365 13.4954C120.328 13.408 120.278 13.3206 120.203 13.2582C120.129 13.1958 120.054 13.1333 119.967 13.0959C119.88 13.0584 119.78 13.046 119.681 13.046H116.72C116.621 13.046 116.521 13.0584 116.434 13.0959C116.347 13.1333 116.26 13.1833 116.198 13.2582C116.123 13.3206 116.074 13.408 116.036 13.4954C115.999 13.5828 115.986 13.6826 115.986 13.7825V29.8989C115.986 33.9311 118.387 35.9535 121.509 35.9535C122.89 35.9285 124.258 35.5665 125.465 34.9048C125.627 34.8299 125.751 34.6926 125.813 34.5303C125.875 34.3681 125.888 34.1808 125.813 34.0185L125.191 32.0711L125.204 32.096Z"
          fill="#0056D5"/>
    <path d="M131.585 34.3806C130.515 33.332 129.98 31.8464 129.98 29.9239V10.6491C129.98 10.2996 130.254 10.025 130.602 10.025H133.674C134.023 10.025 134.296 10.2996 134.296 10.6491V29.6243C134.296 31.4719 135.155 32.3957 136.884 32.3957C137.456 32.3957 137.978 32.2833 138.438 32.0461L138.613 35.0297C138.625 35.3169 138.451 35.5915 138.177 35.6664C137.506 35.8661 136.797 35.966 136.05 35.966C134.135 35.966 132.654 35.4417 131.585 34.3931V34.3806Z"
          fill="#0056D5"/>
    <path d="M158.428 17.8522V35.1046C158.428 35.4542 158.154 35.7288 157.806 35.7288H154.945C154.597 35.7288 154.323 35.4542 154.323 35.1046V33.3444C153.614 34.2183 152.731 34.8799 151.686 35.3169C150.641 35.7538 149.484 35.9785 148.215 35.9785C146.424 35.9785 144.82 35.5915 143.402 34.805C141.984 34.0185 140.877 32.9075 140.093 31.4844C139.297 30.0487 138.899 28.3884 138.899 26.4909C138.899 24.5934 139.297 22.9455 140.093 21.5224C140.889 20.0993 141.996 19.0007 143.402 18.2142C144.82 17.4278 146.424 17.0408 148.215 17.0408C149.41 17.0408 150.517 17.253 151.512 17.665C152.507 18.0769 153.378 18.6886 154.111 19.5001V17.8772C154.111 17.5276 154.385 17.253 154.733 17.253H157.806C158.154 17.253 158.428 17.5276 158.428 17.8772V17.8522ZM152.619 30.6604C153.651 29.5993 154.174 28.2012 154.174 26.4659C154.174 24.7307 153.651 23.3325 152.619 22.2714C151.586 21.2103 150.268 20.6735 148.688 20.6735C147.108 20.6735 145.79 21.2103 144.77 22.2714C143.75 23.3325 143.24 24.7307 143.24 26.4659C143.24 28.2012 143.75 29.5993 144.77 30.6604C145.79 31.7216 147.096 32.2584 148.688 32.2584C150.28 32.2584 151.586 31.7216 152.619 30.6604Z"
          fill="#0056D5"/>
    <path d="M178.056 19.0631C179.462 20.4238 180.158 22.4462 180.158 25.1302V35.1046C180.158 35.4542 179.885 35.7288 179.536 35.7288H176.464C176.116 35.7288 175.842 35.4542 175.842 35.1046V25.6795C175.842 24.0691 175.469 22.8457 174.698 22.0218C173.939 21.1978 172.857 20.7984 171.451 20.7984C169.859 20.7984 168.615 21.2727 167.695 22.234C166.774 23.1952 166.314 24.5684 166.314 26.3786V35.1046C166.314 35.4542 166.04 35.7288 165.692 35.7288H162.619C162.271 35.7288 161.998 35.4542 161.998 35.1046V17.8522C161.998 17.5027 162.271 17.228 162.619 17.228H165.48C165.829 17.228 166.102 17.5027 166.102 17.8522V19.6124C166.811 18.7635 167.707 18.1144 168.789 17.6774C169.871 17.2405 171.09 17.0158 172.446 17.0158C174.772 17.0158 176.638 17.7024 178.044 19.0631H178.056Z"
          fill="#0056D5"/>
    <path d="M187.062 34.7551C185.544 33.9437 184.362 32.8201 183.504 31.372C182.658 29.9239 182.223 28.301 182.223 26.4659C182.223 24.6308 182.646 23.0204 183.504 21.5848C184.35 20.1492 185.532 19.0382 187.037 18.2267C188.542 17.4153 190.258 17.0158 192.199 17.0158C194.015 17.0158 195.607 17.3903 196.975 18.1269C198.157 18.7635 199.09 19.6499 199.774 20.7734C199.948 21.0605 199.836 21.4475 199.538 21.6223L197.249 22.958C196.975 23.1203 196.627 23.0329 196.428 22.7708C195.955 22.1466 195.408 21.6722 194.774 21.3227C193.978 20.8982 193.107 20.686 192.174 20.686C190.569 20.686 189.226 21.2103 188.169 22.2589C187.111 23.3076 186.576 24.7182 186.576 26.4659C186.576 28.2137 187.099 29.6243 188.144 30.6729C189.189 31.7216 190.532 32.2459 192.161 32.2459C193.107 32.2459 193.978 32.0337 194.761 31.6092C195.396 31.2597 195.955 30.7853 196.416 30.1611C196.615 29.8989 196.95 29.8116 197.236 29.9738L199.314 31.1972C199.811 31.4969 199.923 31.8838 199.749 32.171C199.053 33.2945 198.12 34.1808 196.938 34.83C195.57 35.579 193.99 35.9535 192.186 35.9535C190.271 35.9535 188.567 35.554 187.049 34.7426L187.062 34.7551Z"
          fill="#0056D5"/>
    <path d="M216.877 30.7728L217.897 31.9712C218.432 32.6079 218.395 33.3943 217.897 33.8313C217.25 34.393 216.504 34.8549 215.646 35.2045C214.377 35.7163 212.959 35.966 211.367 35.966C209.339 35.966 207.561 35.5665 206.018 34.7551C204.476 33.9436 203.282 32.8201 202.448 31.372C201.602 29.9239 201.192 28.301 201.192 26.4659C201.192 24.6308 201.602 23.0454 202.411 21.5973C203.232 20.1492 204.351 19.0256 205.794 18.2142C207.237 17.4028 208.854 17.0033 210.683 17.0033C212.412 17.0033 213.979 17.3778 215.397 18.1268C216.815 18.8758 217.935 19.9494 218.768 21.3476C219.514 22.6085 219.925 24.0566 219.999 25.7044C220.012 26.0165 219.8 26.2787 219.502 26.3411C217.375 26.753 209.315 28.3385 206.715 28.8503C206.279 28.9377 206.08 29.437 206.317 29.8115C206.74 30.4856 207.312 31.0224 208.008 31.4344C208.979 31.9837 210.135 32.2708 211.491 32.2708C213.27 32.2708 214.775 31.7465 216.031 30.6979C216.293 30.4732 216.691 30.4856 216.915 30.7478L216.877 30.7728ZM206.814 22.0342C205.832 23.0704 205.347 24.4685 205.347 26.2287V26.2662L215.061 24.3936C215.459 24.3187 215.671 23.8818 215.509 23.5073C215.173 22.7208 214.651 22.0592 213.954 21.5224C213.046 20.8358 211.952 20.4862 210.658 20.4862C209.066 20.4862 207.785 21.0106 206.814 22.0467V22.0342Z"
          fill="#0056D5"/>
    <path d="M68.2147 53C67.5638 53 66.9479 52.9116 66.367 52.7349C65.7862 52.5484 65.3305 52.3177 65 52.0428L65.4807 51.2182C65.8012 51.4538 66.2118 51.66 66.7125 51.8367C67.2133 52.0036 67.739 52.087 68.2899 52.087C69.041 52.087 69.5818 51.9741 69.9123 51.7483C70.2427 51.5127 70.408 51.2035 70.408 50.8206C70.408 50.5359 70.3128 50.315 70.1226 50.158C69.9423 49.9911 69.7019 49.8684 69.4015 49.7898C69.1011 49.7015 68.7656 49.6278 68.395 49.5689C68.0245 49.51 67.6539 49.4413 67.2834 49.3628C66.9228 49.2842 66.5924 49.1714 66.2919 49.0241C65.9915 48.867 65.7461 48.656 65.5558 48.3909C65.3756 48.1258 65.2854 47.7724 65.2854 47.3307C65.2854 46.9085 65.4056 46.5306 65.646 46.1968C65.8863 45.863 66.2368 45.6029 66.6975 45.4163C67.1682 45.22 67.739 45.1218 68.41 45.1218C68.9208 45.1218 69.4315 45.1905 69.9423 45.328C70.4531 45.4556 70.8737 45.6274 71.2042 45.8434L70.7385 46.6827C70.388 46.4471 70.0124 46.2802 69.6118 46.1821C69.2112 46.0741 68.8106 46.0201 68.41 46.0201C67.699 46.0201 67.1732 46.1428 66.8327 46.3882C66.5022 46.6238 66.337 46.9282 66.337 47.3012C66.337 47.5957 66.4271 47.8264 66.6074 47.9933C66.7977 48.1602 67.043 48.2927 67.3435 48.3909C67.6539 48.4793 67.9894 48.5529 68.3499 48.6118C68.7205 48.6707 69.086 48.7443 69.4466 48.8327C69.8171 48.9112 70.1526 49.0241 70.4531 49.1714C70.7635 49.3088 71.0089 49.51 71.1891 49.7751C71.3794 50.0303 71.4746 50.369 71.4746 50.7912C71.4746 51.2427 71.3444 51.6354 71.084 51.9692C70.8336 52.2932 70.4631 52.5484 69.9723 52.7349C69.4916 52.9116 68.9058 53 68.2147 53Z"
          fill="#485261"/>
    <path d="M76.7816 53C75.9604 53 75.2393 52.8331 74.6184 52.4993C73.9975 52.1557 73.5118 51.6894 73.1613 51.1004C72.8108 50.5016 72.6355 49.8193 72.6355 49.0535C72.6355 48.2878 72.8007 47.6104 73.1312 47.0214C73.4717 46.4324 73.9324 45.971 74.5133 45.6372C75.1041 45.2936 75.7651 45.1218 76.4962 45.1218C77.2373 45.1218 77.8933 45.2887 78.4641 45.6225C79.045 45.9465 79.5006 46.4079 79.8311 47.0067C80.1616 47.5957 80.3269 48.278 80.3269 49.0535C80.3269 49.1026 80.3219 49.1566 80.3118 49.2155C80.3118 49.2646 80.3118 49.3186 80.3118 49.3775H73.4467V48.5971H79.741L79.3204 48.9063C79.3204 48.3467 79.1952 47.851 78.9448 47.419C78.7045 46.9772 78.374 46.6336 77.9534 46.3882C77.5327 46.1428 77.047 46.0201 76.4962 46.0201C75.9554 46.0201 75.4697 46.1428 75.0391 46.3882C74.6084 46.6336 74.2729 46.9772 74.0326 47.419C73.7922 47.8608 73.672 48.3664 73.672 48.9357V49.0977C73.672 49.6867 73.8022 50.2071 74.0626 50.6586C74.333 51.1004 74.7036 51.4489 75.1743 51.7041C75.655 51.9496 76.2008 52.0723 76.8117 52.0723C77.2924 52.0723 77.738 51.9888 78.1486 51.822C78.5693 51.6551 78.9298 51.3998 79.2302 51.0562L79.8311 51.7336C79.4806 52.1459 79.04 52.4601 78.5092 52.676C77.9884 52.892 77.4126 53 76.7816 53Z"
          fill="#485261"/>
    <path d="M82.4978 52.9264V42H83.5644V52.9264H82.4978Z" fill="#485261"/>
    <path d="M86.5321 52.9264V42H87.5987V52.9264H86.5321Z" fill="#485261"/>
    <path d="M93.9163 53C93.0951 53 92.374 52.8331 91.7531 52.4993C91.1322 52.1557 90.6465 51.6894 90.296 51.1004C89.9455 50.5016 89.7702 49.8193 89.7702 49.0535C89.7702 48.2878 89.9354 47.6104 90.2659 47.0214C90.6064 46.4324 91.0671 45.971 91.648 45.6372C92.2388 45.2936 92.8998 45.1218 93.6309 45.1218C94.372 45.1218 95.028 45.2887 95.5988 45.6225C96.1797 45.9465 96.6353 46.4079 96.9658 47.0067C97.2963 47.5957 97.4616 48.278 97.4616 49.0535C97.4616 49.1026 97.4566 49.1566 97.4465 49.2155C97.4465 49.2646 97.4465 49.3186 97.4465 49.3775H90.5814V48.5971H96.8757L96.4551 48.9063C96.4551 48.3467 96.3299 47.851 96.0795 47.419C95.8392 46.9772 95.5087 46.6336 95.088 46.3882C94.6674 46.1428 94.1817 46.0201 93.6309 46.0201C93.0901 46.0201 92.6044 46.1428 92.1737 46.3882C91.7431 46.6336 91.4076 46.9772 91.1673 47.419C90.9269 47.8608 90.8067 48.3664 90.8067 48.9357V49.0977C90.8067 49.6867 90.9369 50.2071 91.1973 50.6586C91.4677 51.1004 91.8382 51.4489 92.3089 51.7041C92.7897 51.9496 93.3355 52.0723 93.9464 52.0723C94.4271 52.0723 94.8727 51.9888 95.2833 51.822C95.704 51.6551 96.0645 51.3998 96.3649 51.0562L96.9658 51.7336C96.6153 52.1459 96.1747 52.4601 95.6439 52.676C95.1231 52.892 94.5472 53 93.9163 53Z"
          fill="#485261"/>
    <path d="M99.6325 52.9264V45.1954H100.654V47.3012L100.549 46.9331C100.769 46.344 101.14 45.8974 101.66 45.593C102.181 45.2789 102.827 45.1218 103.598 45.1218V46.1379C103.558 46.1379 103.518 46.1379 103.478 46.1379C103.438 46.1281 103.398 46.1232 103.358 46.1232C102.527 46.1232 101.876 46.3735 101.405 46.8742C100.934 47.365 100.699 48.0669 100.699 48.9799V52.9264H99.6325Z"
          fill="#485261"/>
    <path d="M112.868 53C112.087 53 111.386 52.8331 110.765 52.4993C110.154 52.1557 109.674 51.6894 109.323 51.1004C108.973 50.5016 108.797 49.8193 108.797 49.0535C108.797 48.278 108.973 47.5957 109.323 47.0067C109.674 46.4177 110.154 45.9563 110.765 45.6225C111.386 45.2887 112.087 45.1218 112.868 45.1218C113.539 45.1218 114.145 45.2494 114.686 45.5047C115.227 45.7599 115.652 46.1428 115.963 46.6533L115.167 47.1834C114.896 46.7907 114.561 46.5011 114.16 46.3146C113.76 46.1281 113.324 46.0348 112.853 46.0348C112.292 46.0348 111.787 46.1624 111.336 46.4177C110.885 46.6631 110.53 47.0116 110.27 47.4632C110.009 47.9148 109.879 48.4449 109.879 49.0535C109.879 49.6622 110.009 50.1923 110.27 50.6439C110.53 51.0955 110.885 51.4489 111.336 51.7041C111.787 51.9496 112.292 52.0723 112.853 52.0723C113.324 52.0723 113.76 51.979 114.16 51.7925C114.561 51.606 114.896 51.3213 115.167 50.9384L115.963 51.4685C115.652 51.9692 115.227 52.3521 114.686 52.6171C114.145 52.8724 113.539 53 112.868 53Z"
          fill="#485261"/>
    <path d="M121.276 53C120.455 53 119.734 52.8331 119.113 52.4993C118.492 52.1557 118.006 51.6894 117.656 51.1004C117.305 50.5016 117.13 49.8193 117.13 49.0535C117.13 48.2878 117.295 47.6104 117.626 47.0214C117.966 46.4324 118.427 45.971 119.008 45.6372C119.599 45.2936 120.26 45.1218 120.991 45.1218C121.732 45.1218 122.388 45.2887 122.959 45.6225C123.539 45.9465 123.995 46.4079 124.326 47.0067C124.656 47.5957 124.821 48.278 124.821 49.0535C124.821 49.1026 124.816 49.1566 124.806 49.2155C124.806 49.2646 124.806 49.3186 124.806 49.3775H117.941V48.5971H124.235L123.815 48.9063C123.815 48.3467 123.69 47.851 123.439 47.419C123.199 46.9772 122.868 46.6336 122.448 46.3882C122.027 46.1428 121.541 46.0201 120.991 46.0201C120.45 46.0201 119.964 46.1428 119.534 46.3882C119.103 46.6336 118.767 46.9772 118.527 47.419C118.287 47.8608 118.166 48.3664 118.166 48.9357V49.0977C118.166 49.6867 118.297 50.2071 118.557 50.6586C118.827 51.1004 119.198 51.4489 119.669 51.7041C120.149 51.9496 120.695 52.0723 121.306 52.0723C121.787 52.0723 122.232 51.9888 122.643 51.822C123.064 51.6551 123.424 51.3998 123.725 51.0562L124.326 51.7336C123.975 52.1459 123.534 52.4601 123.004 52.676C122.483 52.892 121.907 53 121.276 53Z"
          fill="#485261"/>
    <path d="M131.018 45.1218C131.659 45.1218 132.22 45.2445 132.701 45.49C133.191 45.7256 133.572 46.0888 133.842 46.5797C134.123 47.0705 134.263 47.689 134.263 48.4351V52.9264H133.196V48.5382C133.196 47.7233 132.986 47.1098 132.565 46.6975C132.155 46.2753 131.574 46.0643 130.823 46.0643C130.262 46.0643 129.771 46.1772 129.351 46.4029C128.94 46.6189 128.62 46.938 128.389 47.3601C128.169 47.7724 128.059 48.2731 128.059 48.8621V52.9264H126.992V45.1954H128.014V47.3159L127.849 46.9183C128.099 46.3588 128.499 45.9219 129.05 45.6078C129.601 45.2838 130.257 45.1218 131.018 45.1218Z"
          fill="#485261"/>
    <path d="M141.035 52.4552C140.834 52.6319 140.589 52.7693 140.299 52.8675C140.008 52.9558 139.703 53 139.382 53C138.641 53 138.07 52.8037 137.67 52.411C137.269 52.0183 137.069 51.4636 137.069 50.747V43.4873H138.135V45.1807H140.524V46.0643H138.135V50.6881C138.135 51.1495 138.251 51.5029 138.481 51.7483C138.711 51.9839 139.047 52.1017 139.487 52.1017C139.968 52.1017 140.359 51.9692 140.659 51.7041L141.035 52.4552Z"
          fill="#485261"/>
    <path d="M146.318 53C145.497 53 144.776 52.8331 144.155 52.4993C143.534 52.1557 143.048 51.6894 142.698 51.1004C142.347 50.5016 142.172 49.8193 142.172 49.0535C142.172 48.2878 142.337 47.6104 142.668 47.0214C143.008 46.4324 143.469 45.971 144.05 45.6372C144.64 45.2936 145.301 45.1218 146.033 45.1218C146.774 45.1218 147.43 45.2887 148 45.6225C148.581 45.9465 149.037 46.4079 149.367 47.0067C149.698 47.5957 149.863 48.278 149.863 49.0535C149.863 49.1026 149.858 49.1566 149.848 49.2155C149.848 49.2646 149.848 49.3186 149.848 49.3775H142.983V48.5971H149.277L148.857 48.9063C148.857 48.3467 148.732 47.851 148.481 47.419C148.241 46.9772 147.91 46.6336 147.49 46.3882C147.069 46.1428 146.583 46.0201 146.033 46.0201C145.492 46.0201 145.006 46.1428 144.575 46.3882C144.145 46.6336 143.809 46.9772 143.569 47.419C143.329 47.8608 143.208 48.3664 143.208 48.9357V49.0977C143.208 49.6867 143.339 50.2071 143.599 50.6586C143.869 51.1004 144.24 51.4489 144.711 51.7041C145.191 51.9496 145.737 52.0723 146.348 52.0723C146.829 52.0723 147.274 51.9888 147.685 51.822C148.106 51.6551 148.466 51.3998 148.767 51.0562L149.367 51.7336C149.017 52.1459 148.576 52.4601 148.046 52.676C147.525 52.892 146.949 53 146.318 53Z"
          fill="#485261"/>
    <path d="M152.034 52.9264V45.1954H153.056V47.3012L152.95 46.9331C153.171 46.344 153.541 45.8974 154.062 45.593C154.583 45.2789 155.229 45.1218 156 45.1218V46.1379C155.96 46.1379 155.92 46.1379 155.88 46.1379C155.84 46.1281 155.8 46.1232 155.76 46.1232C154.928 46.1232 154.277 46.3735 153.807 46.8742C153.336 47.365 153.101 48.0669 153.101 48.9799V52.9264H152.034Z"
          fill="#485261"/>
</svg>
