<svg width="120" height="120" viewBox="0 0 120 120" fill="none" xmlns="http://www.w3.org/2000/svg">
    <path fill-rule="evenodd" clip-rule="evenodd"
          d="M27.4409 83.227C24.954 79.4904 23.0923 75.3047 22 70.8195L29.4332 74.3723L29.4744 76.5706C29.4744 77.3805 28.0867 79.0957 27.6401 79.7491L27.4409 83.227ZM73.1596 24.2319C87.3252 28.8941 97.9528 41.2471 100 56.2885L98.6604 56.1456C98.4199 57.1665 98.2001 57.1869 98.2001 58.412C98.2001 59.4942 99.5741 60.2156 99.5741 62.4957C99.5741 63.1082 98.1245 64.3265 98.0627 64.5443L95.9125 62.0465V65.2249L95.5896 65.2113L95.0125 59.3444L93.8103 59.7188L92.3814 55.3561L87.6755 60.2292L87.6206 63.7956L86.0817 64.8165L84.4467 55.6692L83.4712 56.377L81.2591 53.4164L77.9547 53.5116L76.6907 52.0756L75.3923 52.4295L72.8436 49.5369L72.349 49.8704L73.929 53.8724H75.7633V52.9672H76.6769C77.3364 54.7776 78.0509 53.7022 78.0509 54.7844C78.0509 58.5617 73.3451 61.3386 70.2605 62.0465C70.4254 62.7271 70.3636 63.4077 71.1742 63.4077C72.8985 63.4077 72.0398 63.1082 73.9221 62.9517C73.8328 66.8107 69.4568 71.4184 67.5882 74.2838L68.4263 80.1983C68.6461 81.4846 65.7333 82.839 64.7441 84.2887L65.2181 86.5551L63.8785 87.0928C63.6449 89.4205 61.3641 92 58.8017 92H56.0537C56.0537 88.8148 53.7592 84.2615 53.7592 82.0087C53.7592 80.0962 54.6729 79.8375 54.6729 77.469C54.6729 75.2775 52.3852 72.1399 52.3852 71.5682V67.9337H50.551C50.2762 66.9196 50.4479 66.5725 49.177 66.5725H48.7168C46.7176 66.5725 47.0543 67.4777 45.0483 67.4777H43.214C41.5584 67.4777 38.6318 62.2234 38.6318 61.5768V56.132C38.6318 53.7839 40.8027 51.2248 42.3003 50.2311V47.9647L44.3613 45.8888L45.5085 45.6983C47.9679 45.6983 47.6725 44.337 49.177 44.337H53.2989V47.5155L57.833 49.4348L58.2589 47.4951C60.313 47.9715 60.8489 48.8767 63.377 48.8767H64.2906C66.0287 48.8767 66.1249 46.5899 66.1249 44.7931L62.4564 45.1538L60.8557 41.7099L59.2688 42.1251C59.5573 43.357 59.7085 42.8465 59.7085 43.8878C59.7085 44.5004 59.2001 44.5685 58.7879 44.7931L57.201 40.8047L53.7867 38.3885L53.3333 38.8309L56.2392 41.8596C55.8545 42.9486 55.8064 46.0862 54.2057 43.8878L55.7034 43.1732L51.9662 39.2937L49.7266 40.1581L47.5145 42.2544C47.281 43.9423 46.8207 44.7931 45.0345 44.7931C43.846 44.7931 44.5605 44.4868 42.74 44.337V39.7974H46.8619L45.5223 36.7755L45.0277 37.075V36.163L51.7257 33.107C51.6021 32.1542 51.4441 32.6646 51.4441 31.6233C51.4441 31.562 51.8906 30.7249 51.9044 30.7113L53.6355 31.7798L53.2234 29.8265L50.551 30.371L50.0564 27.9957C52.1723 26.8931 56.8369 23 58.3208 23H59.6947C61.1443 23 65.0188 24.4157 65.6509 25.2664L61.9755 24.8989L64.7028 27.1245L64.9639 26.1716L66.9974 25.6203L67.0248 24.3612H67.9454V25.7224L73.1596 24.2319Z"
          fill="#4F8AE8"/>
    <path fill-rule="evenodd" clip-rule="evenodd"
          d="M60 21C82.0898 21 100 38.9102 100 61C100 83.0898 82.0898 101 60 101C37.9102 101 20 83.0898 20 61C20 38.9102 37.9102 21 60 21Z"
          stroke="#485261" stroke-width="2"/>
</svg>
