<svg fill="none" height="64" viewBox="0 0 172 64" width="172" xmlns="http://www.w3.org/2000/svg"
>
    <filter id="a" color-interpolation-filters="sRGB" filterUnits="userSpaceOnUse" height="40.3333" width="38.666"
            x="127.334" y="41.8333">
        <feFlood flood-opacity="0" result="BackgroundImageFix"/>
        <feColorMatrix in="SourceAlpha" result="hardAlpha" type="matrix"
                       values="0 0 0 0 0 0 0 0 0 0 0 0 0 0 0 0 0 0 127 0"/>
        <feOffset dy="1"/>
        <feGaussianBlur stdDeviation=".5"/>
        <feColorMatrix type="matrix" values="0 0 0 0 0.501961 0 0 0 0 0.501961 0 0 0 0 0.501961 0 0 0 0.08 0"/>
        <feBlend in2="BackgroundImageFix" mode="normal" result="effect1_dropShadow_348_43790"/>
        <feColorMatrix in="SourceAlpha" result="hardAlpha" type="matrix"
                       values="0 0 0 0 0 0 0 0 0 0 0 0 0 0 0 0 0 0 127 0"/>
        <feOffset dy="2"/>
        <feGaussianBlur stdDeviation="1"/>
        <feColorMatrix type="matrix" values="0 0 0 0 0.501961 0 0 0 0 0.501961 0 0 0 0 0.501961 0 0 0 0.08 0"/>
        <feBlend in2="effect1_dropShadow_348_43790" mode="normal" result="effect2_dropShadow_348_43790"/>
        <feColorMatrix in="SourceAlpha" result="hardAlpha" type="matrix"
                       values="0 0 0 0 0 0 0 0 0 0 0 0 0 0 0 0 0 0 127 0"/>
        <feOffset dy="4"/>
        <feGaussianBlur stdDeviation="2"/>
        <feColorMatrix type="matrix" values="0 0 0 0 0.501961 0 0 0 0 0.501961 0 0 0 0 0.501961 0 0 0 0.08 0"/>
        <feBlend in2="effect2_dropShadow_348_43790" mode="normal" result="effect3_dropShadow_348_43790"/>
        <feColorMatrix in="SourceAlpha" result="hardAlpha" type="matrix"
                       values="0 0 0 0 0 0 0 0 0 0 0 0 0 0 0 0 0 0 127 0"/>
        <feOffset dy="8"/>
        <feGaussianBlur stdDeviation="4"/>
        <feComposite in2="hardAlpha" operator="out"/>
        <feColorMatrix type="matrix" values="0 0 0 0 0.501961 0 0 0 0 0.501961 0 0 0 0 0.501961 0 0 0 0.08 0"/>
        <feBlend in2="effect3_dropShadow_348_43790" mode="normal" result="effect4_dropShadow_348_43790"/>
        <feColorMatrix in="SourceAlpha" result="hardAlpha" type="matrix"
                       values="0 0 0 0 0 0 0 0 0 0 0 0 0 0 0 0 0 0 127 0"/>
        <feOffset dy="16"/>
        <feGaussianBlur stdDeviation="8"/>
        <feComposite in2="hardAlpha" operator="out"/>
        <feColorMatrix type="matrix" values="0 0 0 0 0.501961 0 0 0 0 0.501961 0 0 0 0 0.501961 0 0 0 0.08 0"/>
        <feBlend in2="effect4_dropShadow_348_43790" mode="normal" result="effect5_dropShadow_348_43790"/>
        <feBlend in="SourceGraphic" in2="effect5_dropShadow_348_43790" mode="normal" result="shape"/>
    </filter>
    <linearGradient id="b" gradientUnits="userSpaceOnUse" x1="140.025" x2="152.775" y1="37.625" y2="52.9">
        <stop offset="0" stop-color="#97bdf7"/>
        <stop offset=".333333" stop-color="#f3f7fe"/>
        <stop offset=".666667" stop-color="#d0e1fb"/>
        <stop offset="1" stop-color="#97bdf7"/>
    </linearGradient>
    <linearGradient id="c" gradientUnits="userSpaceOnUse" x1="140.85" x2="152.7" y1="39.125" y2="52.175">
        <stop offset="0" stop-color="#97bdf7"/>
        <stop offset=".5" stop-color="#d0e1fb"/>
        <stop offset="1" stop-color="#f3f7fe"/>
    </linearGradient>
    <clipPath id="d">
        <path d="m136 36h20v20h-20z"/>
    </clipPath>
    <mask id="e" height="15" maskUnits="userSpaceOnUse" width="9" x="16" y="41">
        <path d="m23.641 41.2585c.2711-.01.5036.2203.5036.5108v2.4838c0 .2103-.5327.1602-.7651.1602-1.288 0-2.2855.3906-3.0022 1.1618-.7166.7712-1.0846 1.8829-1.0846 3.3452v6.5601c0 .2804-.2131.5007-.4842.5007h-2.3243c-.2711 0-.4842-.2203-.4842-.5007v-13.5609c0-.2804.2131-.5008.4842-.5008h2.1693c.2712 0 .4842.2204.4842.5008v1.6225c.8813-1.4122 2.3824-2.1733 4.5033-2.2835z"
              fill="#fff"/>
    </mask>
    <mask id="f" height="16" maskUnits="userSpaceOnUse" width="16" x="26" y="41">
        <path d="m39.2536 52.0397 1.1851 1.3677c.1607.1897.1707.4792 0 .6688-.5925.619-1.3156 1.0981-2.1693 1.4376-1.0042.3993-2.129.5989-3.3944.5989-1.6069 0-3.0129-.3194-4.2381-.9483-1.2253-.6389-2.1693-1.5174-2.8321-2.6455s-.9943-2.4159-.9943-3.8434c0-1.4276.3214-2.6854.9742-3.8235.6427-1.128 1.5366-2.0165 2.6814-2.6454 1.1349-.639 2.4304-.9484 3.8665-.9484 1.4362 0 2.6112.2995 3.736.8785 1.1248.589 2.0086 1.4275 2.6714 2.5256.5925.9884.9139 2.1264.9742 3.4142.01.2496-.1708.4692-.4118.5091l-10.766 2.0964c.3415.8286.9039 1.4675 1.6672 1.9068.7632.4392 1.6872.6489 2.7617.6489 1.406 0 2.5911-.4093 3.5853-1.2279.221-.1797.5323-.1697.7131.0399zm-7.974-6.8582c-.7733.8186-1.165 1.9167-1.165 3.2843v.03l8.2553-1.5773c-.2411-.8885-.7131-1.6073-1.4362-2.1463-.723-.5391-1.5867-.8186-2.6111-.8186-1.2554 0-2.2697.4093-3.053 1.2279z"
              fill="#fff"/>
    </mask>
    <mask id="g" height="15" maskUnits="userSpaceOnUse" width="24" x="44" y="41">
        <path d="m66.9428 41.2582c.2812 0 .5021.2196.5021.4991v7.5172c0 2.1163-.5523 3.7635-1.6671 4.9315-1.1147 1.168-2.7116 1.757-4.7804 1.757-2.2395 0-3.8564-.7487-4.8406-2.2561-.5122.7587-1.165 1.3277-1.9584 1.6971-.7934.3693-1.7575.559-2.8823.559-2.0789 0-3.6656-.589-4.7704-1.757-1.1047-1.168-1.657-2.8152-1.657-4.9315v-7.5172c0-.2795.2209-.4991.5021-.4991h2.4103c.2812 0 .5021.2196.5021.4991v7.2177c0 1.3776.2411 2.3959.7231 3.0448.4821.6488 1.2554.9783 2.3099.9783s1.8378-.3295 2.35-.9883c.5122-.6589.7633-1.6672.7633-3.0348v-7.2177c0-.2795.2209-.4991.5021-.4991h2.4103c.2812 0 .5021.2196.5021.4991v7.2177c0 1.3576.2511 2.3659.7633 3.0348.5122.6588 1.2955.9883 2.35.9883s1.8278-.3295 2.3099-.9783c.482-.6489.7231-1.6672.7231-3.0448v-7.2177c0-.2795.2209-.4991.5021-.4991h2.4103z"
              fill="#fff"/>
    </mask>
    <mask id="h" height="16" maskUnits="userSpaceOnUse" width="17" x="70" y="41">
        <path d="m86.0639 41.927v13.5169c0 .2795-.2209.4991-.5021.4991h-2.2496c-.2812 0-.5022-.2196-.5022-.4991v-1.3777c-.5624.6889-1.2654 1.208-2.0889 1.5474s-1.7474.5191-2.7517.5191c-1.4261 0-2.6915-.3095-3.8163-.9284s-1.9985-1.4875-2.6212-2.6055c-.6327-1.1181-.944-2.4259-.944-3.9133 0-1.4875.3113-2.7853.944-3.9034.6327-1.118 1.5064-1.9766 2.6212-2.5955 1.1248-.619 2.3902-.9284 3.8163-.9284.944 0 1.8177.1597 2.6111.4891.7934.3295 1.4763.8087 2.0689 1.4376v-1.2678c0-.2796.2209-.4992.5021-.4992h2.4103c.2812 0 .5021.2196.5021.4992zm-4.5896 10.0428c.8236-.8285 1.2253-1.9267 1.2253-3.2843 0-1.3577-.4118-2.4558-1.2253-3.2844-.8235-.8286-1.8579-1.2479-3.1132-1.2479-1.2554 0-2.2898.4193-3.1033 1.2479s-1.2152 1.9267-1.2152 3.2844c0 1.3576.4017 2.4558 1.2152 3.2843.8135.8286 1.8479 1.2479 3.1033 1.2479 1.2553 0 2.2998-.4193 3.1132-1.2479z"
              fill="#fff"/>
    </mask>
    <mask id="i" height="15" maskUnits="userSpaceOnUse" width="9" x="90" y="41">
        <path d="m98.3965 41.2682c.2812-.01.5222.2196.5222.4991v2.4758c-.0703.2396-.4821.1597-.7231.1597-1.3357 0-2.3701.3893-3.1133 1.158-.7431.7687-1.1248 1.8768-1.1248 3.3343v6.5388c0 .2795-.2209.4991-.5021.4991h-2.4103c-.2812 0-.5021-.2196-.5021-.4991v-13.5168c0-.2796.2209-.4992.5021-.4992h2.2496c.2812 0 .5022.2196.5022.4992v1.6172c.9139-1.4176 2.4102-2.1663 4.5996-2.2761z"
              fill="#fff"/>
    </mask>
    <mask id="j" height="21" maskUnits="userSpaceOnUse" width="17" x="100" y="36">
        <path d="m116.061 36.5091v19.1672c0 .2795-.221.4992-.502.4992h-2.28c-.281 0-.502-.2197-.502-.4992v-1.3776c-.563.6888-1.266 1.2079-2.089 1.5473-.824.3394-1.748.5191-2.752.5191-1.406 0-2.661-.3094-3.786-.9284-1.125-.6189-1.998-1.4874-2.641-2.6255-.643-1.138-.954-2.4358-.954-3.9033s.321-2.7653.954-3.8834c.643-1.118 1.516-1.9965 2.641-2.6055 1.125-.6189 2.38-.9284 3.786-.9284.964 0 1.848.1597 2.652.4892.803.3294 1.486.8186 2.048 1.4674v-6.9481c0-.2795.221-.4991.502-.4991h2.411c.281 0 .502.2196.502.4991zm-5.494 16.392c.653-.3694 1.175-.8985 1.557-1.5873s.573-1.4875.573-2.3959c0-.9085-.191-1.7071-.573-2.3959s-.904-1.2179-1.557-1.5873c-.652-.3694-1.396-.559-2.219-.559-.824 0-1.557.1896-2.22.559-.662.3694-1.175.8985-1.556 1.5873-.382.6888-.573 1.4874-.573 2.3959 0 .9084.191 1.7071.573 2.3959.381.6888.904 1.2179 1.556 1.5873.653.3693 1.396.559 2.22.559.823 0 1.557-.1897 2.219-.559z"
              fill="#fff"/>
    </mask>
    <mask id="k" height="16" maskUnits="userSpaceOnUse" width="13" x="119" y="41">
        <path d="m121.586 55.6635c-.934-.2496-1.708-.559-2.33-.9284-.221-.1298-.292-.4193-.181-.6489l.864-1.6971c.13-.2595.452-.3394.703-.1996.552.3094 1.185.559 1.908.7686.924.2596 1.828.3994 2.721.3994 2.039 0 3.063-.5391 3.063-1.6073 0-.5091-.261-.8585-.783-1.0582-.522-.1996-1.356-.3893-2.501-.569-1.205-.1797-2.179-.3893-2.942-.6289s-1.416-.6489-1.968-1.2379c-.553-.589-.834-1.4076-.834-2.4558 0-1.3776.582-2.4758 1.737-3.3043 1.155-.8286 2.722-1.2379 4.69-1.2379 1.005 0 2.009.1098 3.013.3394.794.1797 1.466.4093 2.029.6788.241.1198.331.4293.211.6689l-.864 1.6971c-.13.2496-.432.3394-.683.2096-1.125-.559-2.37-.8485-3.736-.8485-1.004 0-1.767.1497-2.279.4492-.523.2995-.784.6888-.784 1.178 0 .5391.281.9284.834 1.158.552.2296 1.416.4393 2.581.6389 1.165.1797 2.119.3893 2.872.6289.743.2396 1.386.6389 1.928 1.198.543.559.804 1.3577.804 2.3959 0 1.3577-.593 2.4458-1.778 3.2644s-2.802 1.2279-4.841 1.2279c-1.185 0-2.34-.1498-3.474-.4592z"
              fill="#fff"/>
    </mask>
    <g fill="#0056d5">
        <path d="m25.9134 8.84485c-1.1409-.55058-2.3872-.84485-3.6528-.84485-3.231 0-6.2606 1.97448-6.2606 5.9804v17.6849c0 .095.0096.1804.0479.2658.0384.0855.0863.1614.1534.2278.0671.0665.1438.114.2301.1519.0863.038.1822.0475.2685.0475h2.8475c.0958 0 .1821-.0095.2684-.0475.0863-.0379.163-.0854.2301-.1519.0671-.0664.1151-.1423.1534-.2278.0384-.0854.0479-.1708.0479-.2658v-12.8911h3.7008c.0959 0 .1822-.019.2685-.0474.0862-.038.1629-.0855.2301-.1519.0671-.0665.115-.1424.1534-.2278.0383-.0855.0479-.1804.0479-.2658v-1.6803c0-.0949-.0192-.1803-.0479-.2657-.0384-.0855-.0863-.1614-.1534-.2279-.0672-.0664-.1439-.1139-.2301-.1519-.0863-.0379-.1822-.0474-.2685-.0474h-3.7008v-1.7752c-.0287-.3037.0192-.6075.1247-.8923.1054-.2848.278-.5411.4985-.7499s.4794-.3702.7766-.4746c.2876-.1045.5944-.1329.9012-.1045.5849.019 1.1697.1519 1.7066.3987.0767.0475.1726.0855.2685.095.0958.0095.1917 0 .278-.019.0863-.0285.1726-.076.2397-.1424.0671-.0665.1246-.1424.163-.2278l.9971-1.90807c.0958-.18036.1246-.3892.0671-.58854-.0576-.19935-.1822-.36073-.3644-.46515z"/>
        <path d="m44.2734 14.9677h-2.8571c-.0959 0-.1822.019-.2684.0475-.0863.0379-.163.0854-.2301.1518-.0671.0665-.1151.1424-.1534.2279-.0384.0854-.048.1803-.048.2658v2.0694c-.6519-.9778-1.5627-1.7657-2.6269-2.2878s-2.2435-.7594-3.4324-.6834c-4.9471.0474-8.2548 3.6072-8.2548 8.8377 0 5.2304 3.3461 8.9896 8.3891 8.9896 1.1601.0569 2.3106-.1899 3.346-.712s1.9175-1.3005 2.5599-2.2498v2.0789c0 .095.0095.1804.0479.2658.0383.0855.0863.1614.1534.2279.0671.0664.1438.1139.2301.1518.0863.038.1821.0475.2684.0475h2.8571c.0959 0 .1822-.0095.2684-.0475.0863-.0379.163-.0854.2301-.1518.0672-.0665.1151-.1424.1534-.2279.0384-.0854.048-.1708.048-.2658v-16.0426c0-.095 0-.1899-.0384-.2753-.0287-.0855-.0863-.1709-.1438-.2373-.0671-.0665-.1438-.114-.2301-.1519-.0863-.0285-.1821-.0475-.278-.038zm-3.6528 8.8662c0 .5126-.048 1.0347-.1439 1.5378-.2301 1.0632-.8341 2.0219-1.6969 2.6959-.8725.674-1.9463 1.0347-3.0489 1.0063-2.9529 0-5.0046-2.1739-5.0046-5.3349 0-3.1611 2.0996-5.3349 5.0046-5.3349 1.1026-.038 2.1956.3132 3.0584.9967.8725.674 1.4669 1.6327 1.6874 2.7054.1247.5031.1726 1.0157.1439 1.5283z"/>
        <path d="m52.6817 19.6096c0-1.0917.9971-1.5378 2.4065-1.5378 1.5915.0664 3.1542.4841 4.554 1.234.1726.095.3739.1139.5657.057.1917-.057.3451-.1804.441-.3512l.9012-1.8321c.0767-.1614.0959-.3513.0384-.5221-.0576-.1709-.1726-.3228-.3356-.4082-1.812-.9683-3.8446-1.4809-5.9059-1.4809-3.5473 0-6.6537 1.6802-6.6537 5.24-.0479 6.1702 9.204 4.4616 9.204 7.6511 0 1.1391-1.093 1.6328-2.579 1.6328-1.8983-.038-3.7391-.6266-5.3019-1.6803-.0863-.0569-.1822-.0949-.2876-.1044-.1055-.019-.2109 0-.3068.019-.0959.0285-.1918.076-.2685.1424-.0767.0665-.1438.1519-.1821.2468l-.8629 1.6612c-.0671.1519-.0863.3228-.0479.4747.0383.1613.1246.3037.2492.4177 1.9942 1.3669 4.3719 2.0883 6.8071 2.0694 3.7583 0 6.9605-1.7277 6.9605-5.2875 0-6.2082-9.3669-4.6894-9.3669-7.6321z"/>
        <path d="m73.7926 28.9314c-.0288-.0949-.0767-.1804-.1438-.2563s-.1438-.1329-.2301-.1804c-.0863-.0379-.1918-.0664-.2876-.0664-.0959 0-.2014.019-.2877.057-.556.2373-1.1505.3702-1.7449.3986-1.208 0-1.9079-.8448-1.9079-2.7149v-7.3948h4.3527c.0959 0 .1822-.019.2685-.0475.0862-.0379.163-.0854.2301-.1518.0671-.0665.115-.1424.1534-.2279.0383-.0854.0479-.1803.0479-.2658v-1.6802c0-.0949-.0192-.1803-.0479-.2658-.0384-.0854-.0863-.1613-.1534-.2278-.0671-.0664-.1439-.1139-.2301-.1519-.0863-.0379-.1822-.0474-.2685-.0474h-4.3527v-4.1009c0-.0949-.0192-.1803-.0479-.2658-.0384-.0854-.0863-.1614-.1534-.2278-.0671-.0665-.1438-.1139-.2301-.1519s-.1822-.0475-.2685-.0475h-2.8475c-.0958 0-.1821.019-.2684.0475-.0863.038-.163.0854-.2301.1519-.0671.0664-.1151.1424-.1534.2278-.0384.0855-.0479.1804-.0479.2658v15.2643c0 3.8256 2.301 5.7336 5.3114 5.7336 1.3327-.019 2.6366-.3607 3.8062-.9873.1534-.0759.2685-.1993.3356-.3512s.0671-.3322.0096-.4841l-.604-1.8511z"/>
        <path d="m114.377 14.8158c-5.599 0-9.357 3.5598-9.357 8.8377 0 5.278 3.748 8.8947 9.357 8.8947s9.309-3.6073 9.309-8.8947-3.806-8.8377-9.309-8.8377zm0 14.1726c-2.953 0-5.005-2.1738-5.005-5.2874s2.052-5.2875 5.005-5.2875 4.957 2.1739 4.957 5.2875-2.052 5.2874-4.957 5.2874z"/>
        <path d="m136.342 14.8158c-1.093.0759-2.148.4367-3.068 1.0442-.911.6075-1.649 1.4334-2.138 2.4111v-2.6674c0-.0949-.01-.1804-.048-.2658-.029-.0854-.086-.1614-.154-.2278-.067-.0665-.143-.1139-.23-.1519-.086-.038-.182-.0475-.268-.0475h-2.857c-.096 0-.182.019-.269.0475-.086.038-.163.0854-.23.1519-.067.0664-.115.1424-.153.2278-.039.0854-.048.1804-.048.2658v16.0142c0 .0949.009.1804.048.2658.029.0854.086.1614.153.2278.067.0665.144.1139.23.1519.087.038.182.0475.269.0475h2.857c.096 0 .182-.019.268-.0475.087-.038.163-.0854.23-.1519.068-.0664.115-.1424.154-.2278.038-.0854.048-.1804.048-.2658v-7.6132c0-2.9617 2.004-5.0311 5.311-5.0975.182 0 .355-.076.489-.2089.125-.1329.201-.3037.211-.4841v-2.6105c.01-.1044 0-.2183-.038-.3133-.039-.1044-.096-.1898-.173-.2658-.077-.0759-.172-.1329-.268-.1708-.106-.038-.211-.0475-.317-.038z"/>
        <path d="m155.765 31.3236-6.203-9.6351 5.35-5.5343c.096-.0949.163-.2183.192-.3607.028-.1329.009-.2753-.039-.3987-.057-.1234-.144-.2373-.259-.3132-.115-.076-.249-.114-.393-.114h-2.953c-.182 0-.364.076-.498.1994l-7.057 7.0151v-13.28979c0-.09493-.019-.18036-.047-.2658-.039-.08543-.087-.16137-.154-.22782s-.144-.11391-.23-.15189c-.086-.03797-.182-.04746-.268-.04746h-2.848c-.096 0-.182.01899-.268.04746-.087.02848-.163.08544-.23.15189-.068.06645-.116.14239-.154.22782-.038.08544-.048.18036-.048.2658v22.77299c0 .095.019.1804.048.2658.038.0855.086.1614.154.2278.067.0665.143.114.23.1519.086.038.182.0475.268.0475h2.848c.095 0 .182-.0095.268-.0475.086-.0379.163-.0854.23-.1519.067-.0664.115-.1423.154-.2278.038-.0854.047-.1708.047-.2658v-4.1008l2.704-2.8099 4.554 7.3094c.067.1044.154.1804.259.2468.105.057.221.095.345.1044h3.404c.124 0 .249-.0379.354-.1044.106-.0664.202-.1613.259-.2658.058-.1139.096-.2373.087-.3607 0-.1234-.039-.2468-.106-.3512z"/>
        <path d="m102.315 17.094v-1.3859c0-.0949-.019-.1804-.048-.2658-.038-.0854-.086-.1614-.153-.2278-.067-.0665-.144-.114-.23-.1519-.087-.038-.182-.0475-.269-.0475h-2.8472c-.0959 0-.1821.0095-.2684.0475-.0863.0379-.163.0854-.2301.1519-.0671.0664-.1151.1424-.1534.2278-.0384.0854-.048.1709-.048.2658v4.3476c0 1.7372.048 3.4649 0 5.1926 0 .6739-.2109 1.3384-.6232 1.8795-.4026.5411-.9779.9398-1.6298 1.1391-.4219.114-.8725.1329-1.3039.057-.4315-.0759-.8437-.2373-1.2176-.4746-.3643-.2374-.6807-.5601-.9108-.9208-.2301-.3702-.3835-.7784-.4506-1.2151-.0288-.4936-.0288-.9872 0-1.4809v-8.5529c0-.0949-.0096-.1804-.048-.2658-.0383-.0854-.0863-.1614-.1534-.2278-.0671-.0665-.1438-.1139-.2301-.1519s-.1821-.0475-.2684-.0475h-2.8475c-.0959 0-.1822.019-.2685.0475-.0862.038-.1629.0854-.23.1519-.0672.0664-.1151.1424-.1535.2278-.0383.0854-.0479.1804-.0479.2658v4.3287c0 1.7277.0479 3.4553 0 5.183 0 .693-.2301 1.3669-.6519 1.9175-.4219.5506-1.0163.9588-1.697 1.1392-.4315.1044-.8821.1139-1.3135.0284-.4314-.0854-.8437-.2563-1.208-.5126s-.6616-.579-.8821-.9587-.3547-.7974-.4026-1.2341c-.0288-.4651-.0288-.9208 0-1.3859v-8.5245c0-.0949-.0192-.1803-.048-.2658-.0383-.0854-.0863-.1614-.1534-.2278-.0671-.0665-.1438-.1139-.2301-.1519s-.1821-.0474-.2684-.0474h-2.8954c-.0959 0-.1822.0189-.2685.0474-.0863.038-.163.0854-.2301.1519-.0671.0664-.115.1424-.1534.2278-.0383.0855-.0479.1804-.0479.2658v9.6826c.0096 1.6707.6136 3.294 1.697 4.585 1.0833 1.291 2.5886 2.1643 4.2568 2.4776 1.2751.2468 2.5982.0949 3.787-.4272 1.1889-.5221 2.186-1.3859 2.8667-2.4871.5177.8354 1.2176 1.5378 2.0421 2.0599.8341.5221 1.7737.8544 2.7516.9588 1.8504.1139 3.672-.4652 5.1101-1.6328 1.1603-.9682 1.9943-2.2592 2.4063-3.7116.23-1.0157.317-2.0694.249-3.1136-.076-2.3162-.076-4.642-.076-6.9677z"/>
    </g>
    <g mask="url(#e)">
        <path d="m16.2712 41.2484h-.2712v14.7226h.2712z" fill="#2976e7"/>
        <path d="m16.8041 41.2485h-.5326v14.7226h.5326z" fill="#2976e6"/>
        <path d="m17.3373 41.2485h-.5326v14.7226h.5326z" fill="#2977e5"/>
        <path d="m17.8588 41.2485h-.5326v14.7226h.5326z" fill="#2977e4"/>
        <path d="m18.392 41.2485h-.5326v14.7226h.5326z" fill="#2877e3"/>
        <path d="m18.9155 41.2485h-.5327v14.7226h.5327z" fill="#2877e2"/>
        <path d="m19.4467 41.2485h-.5326v14.7226h.5326z" fill="#2878e1"/>
        <path d="m19.9799 41.2485h-.5326v14.7226h.5326z" fill="#2878e0"/>
        <path d="m20.5033 41.2485h-.5326v14.7226h.5326z" fill="#2878df"/>
        <path d="m21.0365 41.2485h-.5326v14.7226h.5326z" fill="#2879de"/>
        <path d="m21.558 41.2485h-.5326v14.7226h.5326z" fill="#2779dd"/>
        <path d="m22.0912 41.2485h-.5326v14.7226h.5326z" fill="#2779dc"/>
        <path d="m22.6147 41.2485h-.5327v14.7226h.5327z" fill="#2779db"/>
        <path d="m23.1479 41.2485h-.5327v14.7226h.5327z" fill="#277ada"/>
        <path d="m23.6791 41.2485h-.5326v14.7226h.5326z" fill="#277ad9"/>
        <path d="m24.1541 41.2485h-.4842v14.7226h.4842z" fill="#277ad8"/>
    </g>
    <g mask="url(#f)">
        <path d="m30.2357 43.9636h-.1205v4.5422h.1205z" fill="#257dcf"/>
        <path d="m30.7867 43.9636h-.5523v4.5422h.5523z" fill="#257dce"/>
        <path d="m31.3395 43.9636h-.5524v4.5422h.5524z" fill="#257dcd"/>
        <path d="m31.8824 43.9636h-.5523v4.5422h.5523z" fill="#257ecc"/>
        <path d="m32.4352 43.9636h-.5524v4.5422h.5524z" fill="#257ecb"/>
        <path d="m32.9762 43.9636h-.5524v4.5422h.5524z" fill="#257eca"/>
        <path d="m33.5289 43.9636h-.5523v4.5422h.5523z" fill="#247fc9"/>
        <path d="m34.0719 43.9636h-.5524v4.5422h.5524z" fill="#247fc8"/>
        <path d="m34.6246 43.9636h-.5523v4.5422h.5523z" fill="#247fc7"/>
        <path d="m35.1754 43.9636h-.5524v4.5422h.5524z" fill="#247fc6"/>
        <path d="m35.7184 43.9636h-.5524v4.5422h.5524z" fill="#2480c5"/>
        <path d="m36.2711 43.9636h-.5523v4.5422h.5523z" fill="#2480c4"/>
        <path d="m36.8141 43.9636h-.5524v4.5422h.5524z" fill="#2380c3"/>
        <path d="m37.3649 43.9636h-.5524v4.5422h.5524z" fill="#2381c2"/>
        <path d="m37.9078 43.9636h-.5523v4.5422h.5523z" fill="#2381c1"/>
        <path d="m38.3802 43.9636h-.472v4.5422h.472z" fill="#2381c0"/>
        <path d="m26.9511 41.2482h-.1406v14.8646h.1406z" fill="#267bd5"/>
        <path d="m27.4938 41.2482h-.5524v14.8645h.5524z" fill="#267bd4"/>
        <path d="m28.0465 41.2482h-.5524v14.8645h.5524z" fill="#267cd3"/>
        <path d="m28.5973 41.2482h-.5524v14.8645h.5524z" fill="#267cd2"/>
        <path d="m29.1402 41.2482h-.5523v14.8645h.5523z" fill="#267cd1"/>
        <path d="m29.693 41.2482h-.5524v14.8645h.5524z" fill="#257dd0"/>
        <path d="m30.236 41.2482h-.5524v14.8645h.5524z" fill="#257dcf"/>
        <path d="m30.7867 41.2482h-.5523v14.8645h.5523z" fill="#257dce"/>
        <path d="m31.3395 41.2482h-.5524v14.8645h.5524z" fill="#257dcd"/>
        <path d="m31.8824 41.2482h-.5523v14.8645h.5523z" fill="#257ecc"/>
        <path d="m32.4352 41.2482h-.5524v14.8645h.5524z" fill="#257ecb"/>
        <path d="m32.9762 41.2482h-.5524v14.8645h.5524z" fill="#257eca"/>
        <path d="m33.5289 41.2482h-.5523v14.8645h.5523z" fill="#247fc9"/>
        <path d="m34.0719 41.2482h-.5524v14.8645h.5524z" fill="#247fc8"/>
        <path d="m34.6246 41.2482h-.5523v14.8645h.5523z" fill="#247fc7"/>
        <path d="m35.1754 41.2482h-.5524v14.8645h.5524z" fill="#247fc6"/>
        <path d="m35.7184 41.2482h-.5524v14.8645h.5524z" fill="#2480c5"/>
        <path d="m36.2711 41.2482h-.5523v14.8645h.5523z" fill="#2480c4"/>
        <path d="m36.8141 41.2482h-.5524v14.8645h.5524z" fill="#2380c3"/>
        <path d="m37.3649 41.2482h-.5524v14.8645h.5524z" fill="#2381c2"/>
        <path d="m37.9078 41.2482h-.5523v14.8645h.5523z" fill="#2381c1"/>
        <path d="m38.4606 41.2482h-.5524v14.8645h.5524z" fill="#2381c0"/>
        <path d="m39.0133 41.2482h-.5524v14.8645h.5524z" fill="#2381bf"/>
        <path d="m39.5543 41.2482h-.5523v14.8645h.5523z" fill="#2382be"/>
        <path d="m40.107 41.2482h-.5523v14.8645h.5523z" fill="#2282bd"/>
        <path d="m40.65 41.2482h-.5523v14.8645h.5523z" fill="#2282bc"/>
        <path d="m41.2027 41.2482h-.5523v14.8645h.5523z" fill="#2282bb"/>
        <path d="m41.7134 41.2482h-.5122v14.8645h.5122z" fill="#2283ba"/>
    </g>
    <g mask="url(#g)">
        <path d="m45.0393 41.2582h-.1506v14.7048h.1506z" fill="#2184b4"/>
        <path d="m45.5914 41.2582h-.5523v14.7048h.5523z" fill="#2185b3"/>
        <path d="m46.1344 41.2582h-.5524v14.7048h.5524z" fill="#2185b2"/>
        <path d="m46.6871 41.2582h-.5523v14.7048h.5523z" fill="#2185b1"/>
        <path d="m47.2281 41.2582h-.5523v14.7048h.5523z" fill="#2086b0"/>
        <path d="m47.7809 41.2582h-.5524v14.7048h.5524z" fill="#2086af"/>
        <path d="m48.3336 41.2582h-.5524v14.7048h.5524z" fill="#2086ae"/>
        <path d="m48.8766 41.2582h-.5524v14.7048h.5524z" fill="#2086ad"/>
        <path d="m49.4274 41.2582h-.5524v14.7048h.5524z" fill="#2087ac"/>
        <path d="m49.9703 41.2582h-.5523v14.7048h.5523z" fill="#2087ab"/>
        <path d="m50.5231 41.2582h-.5524v14.7048h.5524z" fill="#2087aa"/>
        <path d="m51.0641 41.2582h-.5524v14.7048h.5524z" fill="#1f88a9"/>
        <path d="m51.6168 41.2582h-.5523v14.7048h.5523z" fill="#1f88a8"/>
        <path d="m52.1695 41.2582h-.5523v14.7048h.5523z" fill="#1f88a7"/>
        <path d="m52.7125 41.2582h-.5523v14.7048h.5523z" fill="#1f88a6"/>
        <path d="m53.2652 41.2582h-.5523v14.7048h.5523z" fill="#1f89a5"/>
        <path d="m53.8063 41.2582h-.5524v14.7048h.5524z" fill="#1f89a4"/>
        <path d="m54.359 41.2582h-.5524v14.7048h.5524z" fill="#1e89a3"/>
        <path d="m54.902 41.2582h-.5524v14.7048h.5524z" fill="#1e8aa2"/>
        <path d="m55.4547 41.2582h-.5524v14.7048h.5524z" fill="#1e8aa1"/>
        <path d="m56.0055 41.2582h-.5524v14.7048h.5524z" fill="#1e8aa0"/>
        <path d="m56.5485 41.2582h-.5524v14.7048h.5524z" fill="#1e8a9f"/>
        <path d="m57.1012 41.2582h-.5524v14.7048h.5524z" fill="#1e8b9e"/>
        <path d="m57.6422 41.2582h-.5524v14.7048h.5524z" fill="#1e8b9d"/>
        <path d="m58.1949 41.2582h-.5523v14.7048h.5523z" fill="#1d8b9c"/>
        <path d="m58.7477 41.2582h-.5524v14.7048h.5524z" fill="#1d8c9b"/>
        <path d="m59.2906 41.2582h-.5523v14.7048h.5523z" fill="#1d8c9a"/>
        <path d="m59.8434 41.2582h-.5524v14.7048h.5524z" fill="#1d8c98"/>
        <path d="m60.3844 41.2582h-.5524v14.7048h.5524z" fill="#1d8c97"/>
        <path d="m60.9371 41.2582h-.5523v14.7048h.5523z" fill="#1d8d96"/>
        <path d="m61.4801 41.2582h-.5524v14.7048h.5524z" fill="#1c8d95"/>
        <path d="m62.0328 41.2582h-.5523v14.7048h.5523z" fill="#1c8d94"/>
        <path d="m62.5836 41.2582h-.5524v14.7048h.5524z" fill="#1c8e93"/>
        <path d="m63.1266 41.2582h-.5524v14.7048h.5524z" fill="#1c8e92"/>
        <path d="m63.6793 41.2582h-.5523v14.7048h.5523z" fill="#1c8e91"/>
        <path d="m64.2203 41.2582h-.5523v14.7048h.5523z" fill="#1c8e90"/>
        <path d="m64.7731 41.2582h-.5524v14.7048h.5524z" fill="#1c8f8f"/>
        <path d="m65.316 41.2582h-.5523v14.7048h.5523z" fill="#1b8f8e"/>
        <path d="m65.8688 41.2582h-.5524v14.7048h.5524z" fill="#1b8f8d"/>
        <path d="m66.4215 41.2582h-.5524v14.7048h.5524z" fill="#1b908c"/>
        <path d="m66.9625 41.2582h-.5523v14.7048h.5523z" fill="#1b908b"/>
        <path d="m67.4449 41.2582h-.482v14.7048h.482z" fill="#1b908a"/>
    </g>
    <g mask="url(#h)">
        <path d="m74.0834 44.1432h-.0502v9.0745h.0502z" fill="#19947e"/>
        <path d="m74.6344 44.1432h-.5524v9.0745h.5524z" fill="#19947d"/>
        <path d="m75.1774 44.1432h-.5524v9.0745h.5524z" fill="#19947c"/>
        <path d="m75.7301 44.1432h-.5524v9.0745h.5524z" fill="#18947b"/>
        <path d="m76.2731 44.1432h-.5524v9.0745h.5524z" fill="#18957a"/>
        <path d="m76.8238 44.1432h-.5523v9.0745h.5523z" fill="#189579"/>
        <path d="m77.3766 44.1432h-.5524v9.0745h.5524z" fill="#189578"/>
        <path d="m77.9195 44.1432h-.5523v9.0745h.5523z" fill="#189677"/>
        <path d="m78.4723 44.1432h-.5524v9.0745h.5524z" fill="#189676"/>
        <path d="m79.0133 44.1432h-.5524v9.0745h.5524z" fill="#189675"/>
        <path d="m79.566 44.1432h-.5523v9.0745h.5523z" fill="#179674"/>
        <path d="m80.109 44.1432h-.5524v9.0745h.5524z" fill="#179773"/>
        <path d="m80.6617 44.1432h-.5523v9.0745h.5523z" fill="#179772"/>
        <path d="m81.2125 44.1432h-.5523v9.0745h.5523z" fill="#179771"/>
        <path d="m81.7555 44.1432h-.5524v9.0745h.5524z" fill="#179770"/>
        <path d="m82.3082 44.1432h-.5523v9.0745h.5523z" fill="#17986f"/>
        <path d="m82.6986 44.1432h-.4017v9.0745h.4017z" fill="#16986e"/>
        <path d="m70.7887 41.2686h-.2008v14.8645h.2008z" fill="#1a9284"/>
        <path d="m71.3414 41.2682h-.5523v14.8645h.5523z" fill="#1a9283"/>
        <path d="m71.8942 41.2682h-.5524v14.8645h.5524z" fill="#1a9282"/>
        <path d="m72.4352 41.2682h-.5524v14.8645h.5524z" fill="#199381"/>
        <path d="m72.9879 41.2682h-.5524v14.8645h.5524z" fill="#199380"/>
        <path d="m73.5406 41.2682h-.5523v14.8645h.5523z" fill="#19937f"/>
        <path d="m74.0836 41.2682h-.5524v14.8645h.5524z" fill="#19947e"/>
        <path d="m74.6344 41.2682h-.5524v14.8645h.5524z" fill="#19947d"/>
        <path d="m75.1774 41.2682h-.5524v14.8645h.5524z" fill="#19947c"/>
        <path d="m75.7301 41.2682h-.5524v14.8645h.5524z" fill="#18947b"/>
        <path d="m76.2731 41.2682h-.5524v14.8645h.5524z" fill="#18957a"/>
        <path d="m76.8238 41.2682h-.5523v14.8645h.5523z" fill="#189579"/>
        <path d="m77.3766 41.2682h-.5524v14.8645h.5524z" fill="#189578"/>
        <path d="m77.9195 41.2682h-.5523v14.8645h.5523z" fill="#189677"/>
        <path d="m78.4723 41.2682h-.5524v14.8645h.5524z" fill="#189676"/>
        <path d="m79.0133 41.2682h-.5524v14.8645h.5524z" fill="#189675"/>
        <path d="m79.566 41.2682h-.5523v14.8645h.5523z" fill="#179674"/>
        <path d="m80.109 41.2682h-.5524v14.8645h.5524z" fill="#179773"/>
        <path d="m80.6617 41.2682h-.5523v14.8645h.5523z" fill="#179772"/>
        <path d="m81.2125 41.2682h-.5523v14.8645h.5523z" fill="#179771"/>
        <path d="m81.7555 41.2682h-.5524v14.8645h.5524z" fill="#179770"/>
        <path d="m82.3082 41.2682h-.5523v14.8645h.5523z" fill="#17986f"/>
        <path d="m82.8492 41.2682h-.5523v14.8645h.5523z" fill="#16986e"/>
        <path d="m83.402 41.2682h-.5524v14.8645h.5524z" fill="#16986d"/>
        <path d="m83.9449 41.2682h-.5523v14.8645h.5523z" fill="#16996c"/>
        <path d="m84.4977 41.2682h-.5524v14.8645h.5524z" fill="#16996b"/>
        <path d="m85.0504 41.2682h-.5524v14.8645h.5524z" fill="#16996a"/>
        <path d="m85.5914 41.2682h-.5523v14.8645h.5523z" fill="#169969"/>
        <path d="m86.0638 41.2682h-.472v14.8645h.472z" fill="#159a68"/>
    </g>
    <g mask="url(#i)">
        <path d="m91.0752 41.2582h-.5322v14.6748h.5322z" fill="#149c5f"/>
        <path d="m91.6285 41.2582h-.5523v14.6748h.5523z" fill="#149d5e"/>
        <path d="m92.1793 41.2582h-.5523v14.6748h.5523z" fill="#149d5d"/>
        <path d="m92.7223 41.2582h-.5524v14.6748h.5524z" fill="#149d5c"/>
        <path d="m93.275 41.2582h-.5523v14.6748h.5523z" fill="#139d5b"/>
        <path d="m93.8278 41.2582h-.5524v14.6748h.5524z" fill="#139e5a"/>
        <path d="m94.3688 41.2582h-.5524v14.6748h.5524z" fill="#139e59"/>
        <path d="m94.9215 41.2582h-.5524v14.6748h.5524z" fill="#139e58"/>
        <path d="m95.4645 41.2582h-.5524v14.6748h.5524z" fill="#139f57"/>
        <path d="m96.0172 41.2582h-.5524v14.6748h.5524z" fill="#139f56"/>
        <path d="m96.568 41.2582h-.5524v14.6748h.5524z" fill="#139f55"/>
        <path d="m97.1109 41.2582h-.5523v14.6748h.5523z" fill="#129f54"/>
        <path d="m97.6637 41.2582h-.5524v14.6748h.5524z" fill="#12a053"/>
        <path d="m98.2047 41.2582h-.5524v14.6748h.5524z" fill="#12a052"/>
        <path d="m98.7574 41.2582h-.5523v14.6748h.5523z" fill="#12a051"/>
        <path d="m98.9188 41.2582h-.1708v14.6748h.1708z" fill="#12a150"/>
    </g>
    <g mask="url(#j)">
        <path d="m104.151 44.3757h-.151v9.0744h.151z" fill="#16a24a"/>
        <path d="m104.331 44.3757h-.181v9.0744h.181z" fill="#16a249"/>
        <path d="m104.511 44.3757h-.181v9.0744h.181z" fill="#17a249"/>
        <path d="m104.683 44.3757h-.181v9.0744h.181z" fill="#17a249"/>
        <path d="m104.862 44.3757h-.18v9.0744h.18z" fill="#18a249"/>
        <path d="m105.034 44.3757h-.18v9.0744h.18z" fill="#18a349"/>
        <path d="m105.214 44.3757h-.181v9.0744h.181z" fill="#19a349"/>
        <path d="m105.386 44.3757h-.181v9.0744h.181z" fill="#1aa348"/>
        <path d="m105.566 44.3757h-.181v9.0744h.181z" fill="#1aa348"/>
        <path d="m105.737 44.3757h-.18v9.0744h.18z" fill="#1ba348"/>
        <path d="m105.917 44.3757h-.181v9.0744h.181z" fill="#1ca348"/>
        <path d="m106.099 44.3757h-.181v9.0744h.181z" fill="#1ca348"/>
        <path d="m106.269 44.3757h-.181v9.0744h.181z" fill="#1da348"/>
        <path d="m106.45 44.3757h-.18v9.0744h.18z" fill="#1ea347"/>
        <path d="m106.62 44.3757h-.181v9.0744h.181z" fill="#1ea347"/>
        <path d="m106.802 44.3757h-.181v9.0744h.181z" fill="#1fa347"/>
        <path d="m106.972 44.3757h-.181v9.0744h.181z" fill="#20a347"/>
        <path d="m107.153 44.3757h-.18v9.0744h.18z" fill="#20a346"/>
        <path d="m107.323 44.3757h-.18v9.0744h.18z" fill="#21a346"/>
        <path d="m107.505 44.3757h-.181v9.0744h.181z" fill="#22a346"/>
        <path d="m107.675 44.3757h-.181v9.0744h.181z" fill="#23a346"/>
        <path d="m107.857 44.3757h-.181v9.0744h.181z" fill="#23a346"/>
        <path d="m108.026 44.3757h-.18v9.0744h.18z" fill="#24a345"/>
        <path d="m108.208 44.3757h-.181v9.0744h.181z" fill="#25a345"/>
        <path d="m108.378 44.3757h-.181v9.0744h.181z" fill="#26a345"/>
        <path d="m108.56 44.3757h-.181v9.0744h.181z" fill="#26a345"/>
        <path d="m108.73 44.3757h-.181v9.0744h.181z" fill="#27a445"/>
        <path d="m108.911 44.3757h-.181v9.0744h.181z" fill="#28a444"/>
        <path d="m109.091 44.3757h-.181v9.0744h.181z" fill="#29a444"/>
        <path d="m109.263 44.3757h-.181v9.0744h.181z" fill="#2aa444"/>
        <path d="m109.442 44.3757h-.18v9.0744h.18z" fill="#2aa444"/>
        <path d="m109.612 44.3757h-.18v9.0744h.18z" fill="#2ba443"/>
        <path d="m109.794 44.3757h-.181v9.0744h.181z" fill="#2ca443"/>
        <path d="m109.964 44.3757h-.181v9.0744h.181z" fill="#2da443"/>
        <path d="m110.146 44.3757h-.181v9.0744h.181z" fill="#2ea443"/>
        <path d="m110.316 44.3757h-.181v9.0744h.181z" fill="#2ea442"/>
        <path d="m110.497 44.3757h-.181v9.0744h.181z" fill="#2fa442"/>
        <path d="m110.667 44.3757h-.181v9.0744h.181z" fill="#30a442"/>
        <path d="m110.849 44.3757h-.181v9.0744h.181z" fill="#31a442"/>
        <path d="m111.019 44.3757h-.181v9.0744h.181z" fill="#32a441"/>
        <path d="m111.2 44.3757h-.18v9.0744h.18z" fill="#33a441"/>
        <path d="m111.37 44.3757h-.181v9.0744h.181z" fill="#33a441"/>
        <path d="m111.552 44.3757h-.181v9.0744h.181z" fill="#34a441"/>
        <path d="m111.722 44.3757h-.181v9.0744h.181z" fill="#35a540"/>
        <path d="m111.903 44.3757h-.18v9.0744h.18z" fill="#36a540"/>
        <path d="m112.083 44.3757h-.181v9.0744h.181z" fill="#37a540"/>
        <path d="m112.255 44.3757h-.181v9.0744h.181z" fill="#38a540"/>
        <path d="m112.435 44.3757h-.181v9.0744h.181z" fill="#39a53f"/>
        <path d="m112.607 44.3757h-.181v9.0744h.181z" fill="#3aa53f"/>
        <path d="m112.696 44.3757h-.091v9.0744h.091z" fill="#3aa53f"/>
        <path d="m100.946 36.0104h-.391v20.3551h.391z" fill="#11a14d"/>
        <path d="m101.5 36.0099h-.553v20.3552h.553z" fill="#11a24c"/>
        <g fill="#11a24b">
            <path d="m102.041 36.0099h-.553v20.3552h.553z"/>
            <path d="m102.222 36.0099h-.181v20.3552h.181z"/>
            <path d="m102.392 36.0099h-.181v20.3552h.181z"/>
        </g>
        <path d="m102.573 36.0099h-.18v20.3552h.18z" fill="#12a24b"/>
        <path d="m102.755 36.0099h-.181v20.3552h.181z" fill="#12a24b"/>
        <path d="m102.925 36.0099h-.181v20.3552h.181z" fill="#12a24b"/>
        <path d="m103.107 36.0099h-.181v20.3552h.181z" fill="#13a24b"/>
        <path d="m103.276 36.0099h-.18v20.3552h.18z" fill="#13a24a"/>
        <path d="m103.456 36.0099h-.181v20.3552h.181z" fill="#14a24a"/>
        <path d="m103.628 36.0099h-.181v20.3552h.181z" fill="#14a24a"/>
        <path d="m103.808 36.0099h-.181v20.3552h.181z" fill="#15a24a"/>
        <path d="m103.98 36.0099h-.181v20.3552h.181z" fill="#15a24a"/>
        <path d="m104.159 36.0099h-.18v20.3552h.18z" fill="#16a24a"/>
        <path d="m104.331 36.0099h-.181v20.3552h.181z" fill="#16a249"/>
        <path d="m104.511 36.0099h-.181v20.3552h.181z" fill="#17a249"/>
        <path d="m104.683 36.0099h-.181v20.3552h.181z" fill="#17a249"/>
        <path d="m104.862 36.0099h-.18v20.3552h.18z" fill="#18a249"/>
        <path d="m105.034 36.0099h-.18v20.3552h.18z" fill="#18a349"/>
        <path d="m105.214 36.0099h-.181v20.3552h.181z" fill="#19a349"/>
        <path d="m105.386 36.0099h-.181v20.3552h.181z" fill="#1aa348"/>
        <path d="m105.566 36.0099h-.181v20.3552h.181z" fill="#1aa348"/>
        <path d="m105.737 36.0099h-.18v20.3552h.18z" fill="#1ba348"/>
        <path d="m105.917 36.0099h-.181v20.3552h.181z" fill="#1ca348"/>
        <path d="m106.099 36.0099h-.181v20.3552h.181z" fill="#1ca348"/>
        <path d="m106.269 36.0099h-.181v20.3552h.181z" fill="#1da348"/>
        <path d="m106.45 36.0099h-.18v20.3552h.18z" fill="#1ea347"/>
        <path d="m106.62 36.0099h-.181v20.3552h.181z" fill="#1ea347"/>
        <path d="m106.802 36.0099h-.181v20.3552h.181z" fill="#1fa347"/>
        <path d="m106.972 36.0099h-.181v20.3552h.181z" fill="#20a347"/>
        <path d="m107.153 36.0099h-.18v20.3552h.18z" fill="#20a346"/>
        <path d="m107.323 36.0099h-.18v20.3552h.18z" fill="#21a346"/>
        <path d="m107.505 36.0099h-.181v20.3552h.181z" fill="#22a346"/>
        <path d="m107.675 36.0099h-.181v20.3552h.181z" fill="#23a346"/>
        <path d="m107.857 36.0099h-.181v20.3552h.181z" fill="#23a346"/>
        <path d="m108.026 36.0099h-.18v20.3552h.18z" fill="#24a345"/>
        <path d="m108.208 36.0099h-.181v20.3552h.181z" fill="#25a345"/>
        <path d="m108.378 36.0099h-.181v20.3552h.181z" fill="#26a345"/>
        <path d="m108.56 36.0099h-.181v20.3552h.181z" fill="#26a345"/>
        <path d="m108.73 36.0099h-.181v20.3552h.181z" fill="#27a445"/>
        <path d="m108.911 36.0099h-.181v20.3552h.181z" fill="#28a444"/>
        <path d="m109.091 36.0099h-.181v20.3552h.181z" fill="#29a444"/>
        <path d="m109.263 36.0099h-.181v20.3552h.181z" fill="#2aa444"/>
        <path d="m109.442 36.0099h-.18v20.3552h.18z" fill="#2aa444"/>
        <path d="m109.612 36.0099h-.18v20.3552h.18z" fill="#2ba443"/>
        <path d="m109.794 36.0099h-.181v20.3552h.181z" fill="#2ca443"/>
        <path d="m109.964 36.0099h-.181v20.3552h.181z" fill="#2da443"/>
        <path d="m110.146 36.0099h-.181v20.3552h.181z" fill="#2ea443"/>
        <path d="m110.316 36.0099h-.181v20.3552h.181z" fill="#2ea442"/>
        <path d="m110.497 36.0099h-.181v20.3552h.181z" fill="#2fa442"/>
        <path d="m110.667 36.0099h-.181v20.3552h.181z" fill="#30a442"/>
        <path d="m110.849 36.0099h-.181v20.3552h.181z" fill="#31a442"/>
        <path d="m111.019 36.0099h-.181v20.3552h.181z" fill="#32a441"/>
        <path d="m111.2 36.0099h-.18v20.3552h.18z" fill="#33a441"/>
        <path d="m111.37 36.0099h-.181v20.3552h.181z" fill="#33a441"/>
        <path d="m111.552 36.0099h-.181v20.3552h.181z" fill="#34a441"/>
        <path d="m111.722 36.0099h-.181v20.3552h.181z" fill="#35a540"/>
        <path d="m111.903 36.0099h-.18v20.3552h.18z" fill="#36a540"/>
        <path d="m112.083 36.0099h-.181v20.3552h.181z" fill="#37a540"/>
        <path d="m112.255 36.0099h-.181v20.3552h.181z" fill="#38a540"/>
        <path d="m112.435 36.0099h-.181v20.3552h.181z" fill="#39a53f"/>
        <path d="m112.607 36.0099h-.181v20.3552h.181z" fill="#3aa53f"/>
        <path d="m112.786 36.0099h-.181v20.3552h.181z" fill="#3aa53f"/>
        <path d="m112.958 36.0099h-.181v20.3552h.181z" fill="#3ba53f"/>
        <path d="m113.138 36.0099h-.181v20.3552h.181z" fill="#3ca53e"/>
        <path d="m113.31 36.0099h-.181v20.3552h.181z" fill="#3da53e"/>
        <path d="m113.489 36.0099h-.18v20.3552h.18z" fill="#3ea53e"/>
        <path d="m113.661 36.0099h-.181v20.3552h.181z" fill="#3fa53e"/>
        <path d="m113.841 36.0099h-.181v20.3552h.181z" fill="#40a53d"/>
        <path d="m114.013 36.0099h-.181v20.3552h.181z" fill="#41a53d"/>
        <path d="m114.192 36.0099h-.18v20.3552h.18z" fill="#42a53d"/>
        <path d="m114.364 36.0099h-.18v20.3552h.18z" fill="#43a53d"/>
        <path d="m114.544 36.0099h-.181v20.3552h.181z" fill="#44a63c"/>
        <path d="m114.716 36.0099h-.181v20.3552h.181z" fill="#45a63c"/>
        <path d="m114.896 36.0099h-.181v20.3552h.181z" fill="#45a63c"/>
        <path d="m115.077 36.0099h-.181v20.3552h.181z" fill="#46a63b"/>
        <path d="m115.247 36.0099h-.181v20.3552h.181z" fill="#47a63b"/>
        <path d="m115.429 36.0099h-.181v20.3552h.181z" fill="#48a63b"/>
        <path d="m115.599 36.0099h-.181v20.3552h.181z" fill="#49a63b"/>
        <path d="m115.78 36.0099h-.18v20.3552h.18z" fill="#4aa63a"/>
        <path d="m115.95 36.0099h-.18v20.3552h.18z" fill="#4ba63a"/>
        <path d="m116.062 36.0099h-.111v20.3552h.111z" fill="#4ca63a"/>
    </g>
    <g mask="url(#k)">
        <path d="m119.115 41.2582h-.15v14.8645h.15z" fill="#5da735"/>
        <path d="m119.296 41.2582h-.181v14.8645h.181z" fill="#5ea734"/>
        <path d="m119.478 41.2582h-.181v14.8645h.181z" fill="#5fa734"/>
        <path d="m119.648 41.2582h-.181v14.8645h.181z" fill="#60a834"/>
        <path d="m119.829 41.2582h-.181v14.8645h.181z" fill="#61a834"/>
        <path d="m119.999 41.2582h-.181v14.8645h.181z" fill="#62a833"/>
        <path d="m120.181 41.2582h-.181v14.8645h.181z" fill="#63a833"/>
        <path d="m120.351 41.2582h-.181v14.8645h.181z" fill="#64a833"/>
        <path d="m120.532 41.2582h-.18v14.8645h.18z" fill="#65a832"/>
        <path d="m120.702 41.2582h-.181v14.8645h.181z" fill="#66a832"/>
        <path d="m120.884 41.2582h-.181v14.8645h.181z" fill="#68a832"/>
        <path d="m121.064 41.2582h-.181v14.8645h.181z" fill="#69a831"/>
        <path d="m121.235 41.2582h-.18v14.8645h.18z" fill="#6aa831"/>
        <path d="m121.415 41.2582h-.181v14.8645h.181z" fill="#6ba831"/>
        <path d="m121.587 41.2582h-.181v14.8645h.181z" fill="#6ca831"/>
        <path d="m121.767 41.2582h-.181v14.8645h.181z" fill="#6da830"/>
        <path d="m121.937 41.2582h-.181v14.8645h.181z" fill="#6ea830"/>
        <path d="m122.118 41.2582h-.18v14.8645h.18z" fill="#6fa930"/>
        <path d="m122.288 41.2582h-.181v14.8645h.181z" fill="#70a92f"/>
        <path d="m122.47 41.2582h-.181v14.8645h.181z" fill="#71a92f"/>
        <path d="m122.64 41.2582h-.181v14.8645h.181z" fill="#72a92f"/>
        <path d="m122.821 41.2582h-.18v14.8645h.18z" fill="#73a92e"/>
        <path d="m122.991 41.2582h-.18v14.8645h.18z" fill="#74a92e"/>
        <path d="m123.173 41.2582h-.181v14.8645h.181z" fill="#75a92e"/>
        <path d="m123.343 41.2582h-.181v14.8645h.181z" fill="#77a92d"/>
        <path d="m123.525 41.2582h-.181v14.8645h.181z" fill="#78a92d"/>
        <path d="m123.694 41.2582h-.18v14.8645h.18z" fill="#79a92d"/>
        <path d="m123.876 41.2582h-.181v14.8645h.181z" fill="#7aa92c"/>
        <path d="m124.056 41.2582h-.181v14.8645h.181z" fill="#7ba92c"/>
        <path d="m124.228 41.2582h-.181v14.8645h.181z" fill="#7ca92c"/>
        <path d="m124.407 41.2582h-.18v14.8645h.18z" fill="#7daa2b"/>
        <path d="m124.579 41.2582h-.181v14.8645h.181z" fill="#7eaa2b"/>
        <path d="m124.759 41.2582h-.181v14.8645h.181z" fill="#7faa2b"/>
        <path d="m124.931 41.2582h-.181v14.8645h.181z" fill="#81aa2a"/>
        <path d="m125.11 41.2582h-.18v14.8645h.18z" fill="#82aa2a"/>
        <path d="m125.282 41.2582h-.18v14.8645h.18z" fill="#83aa2a"/>
        <path d="m125.462 41.2582h-.181v14.8645h.181z" fill="#84aa29"/>
        <path d="m125.634 41.2582h-.181v14.8645h.181z" fill="#85aa29"/>
        <path d="m125.814 41.2582h-.181v14.8645h.181z" fill="#86aa29"/>
        <path d="m125.985 41.2582h-.18v14.8645h.18z" fill="#87aa28"/>
        <path d="m126.165 41.2582h-.181v14.8645h.181z" fill="#88aa28"/>
        <path d="m126.337 41.2582h-.181v14.8645h.181z" fill="#8aaa28"/>
        <path d="m126.517 41.2582h-.181v14.8645h.181z" fill="#8baa27"/>
        <path d="m126.689 41.2582h-.181v14.8645h.181z" fill="#8cab27"/>
        <path d="m126.868 41.2582h-.18v14.8645h.18z" fill="#8dab27"/>
        <path d="m127.05 41.2582h-.181v14.8645h.181z" fill="#8eab26"/>
        <path d="m127.22 41.2582h-.181v14.8645h.181z" fill="#8fab26"/>
        <path d="m127.401 41.2582h-.18v14.8645h.18z" fill="#90ab26"/>
        <path d="m127.571 41.2582h-.18v14.8645h.18z" fill="#92ab25"/>
        <path d="m127.753 41.2582h-.181v14.8645h.181z" fill="#93ab25"/>
        <path d="m127.923 41.2582h-.181v14.8645h.181z" fill="#94ab25"/>
        <path d="m128.105 41.2582h-.181v14.8645h.181z" fill="#95ab24"/>
        <path d="m128.275 41.2582h-.181v14.8645h.181z" fill="#96ab24"/>
        <path d="m128.456 41.2582h-.181v14.8645h.181z" fill="#97ab24"/>
        <path d="m128.626 41.2582h-.181v14.8645h.181z" fill="#99ab23"/>
        <path d="m128.808 41.2582h-.181v14.8645h.181z" fill="#9aab23"/>
        <path d="m128.978 41.2582h-.181v14.8645h.181z" fill="#9bac23"/>
        <path d="m129.159 41.2582h-.18v14.8645h.18z" fill="#9cac22"/>
        <path d="m129.329 41.2582h-.181v14.8645h.181z" fill="#9dac22"/>
        <path d="m129.509 41.2582h-.181v14.8645h.181z" fill="#9eac22"/>
        <path d="m129.681 41.2582h-.181v14.8645h.181z" fill="#a0ac21"/>
        <path d="m129.86 41.2582h-.18v14.8645h.18z" fill="#a1ac21"/>
        <path d="m130.042 41.2582h-.181v14.8645h.181z" fill="#a2ac21"/>
        <path d="m130.212 41.2582h-.181v14.8645h.181z" fill="#a3ac20"/>
        <path d="m130.394 41.2582h-.181v14.8645h.181z" fill="#a4ac20"/>
        <path d="m130.564 41.2582h-.181v14.8645h.181z" fill="#a6ac20"/>
        <path d="m130.745 41.2582h-.181v14.8645h.181z" fill="#a7ac1f"/>
        <path d="m130.915 41.2582h-.181v14.8645h.181z" fill="#a8ac1f"/>
        <path d="m131.097 41.2582h-.181v14.8645h.181z" fill="#a9ad1f"/>
        <path d="m131.267 41.2582h-.181v14.8645h.181z" fill="#aaad1e"/>
        <path d="m131.448 41.2582h-.18v14.8645h.18z" fill="#acad1e"/>
        <path d="m131.618 41.2582h-.18v14.8645h.18z" fill="#adad1e"/>
        <path d="m131.679 41.2582h-.06v14.8645h.06z" fill="#aead1d"/>
    </g>
    <g clip-path="url(#d)">
        <path d="m146 56c5.523 0 10-4.4772 10-10s-4.477-10-10-10-10 4.4772-10 10 4.477 10 10 10z" fill="url(#b)"/>
        <path d="m146 54c4.418 0 8-3.5817 8-8s-3.582-8-8-8-8 3.5817-8 8 3.582 8 8 8z" fill="url(#c)" opacity=".6"/>
        <path d="m151.65 40.3333c3.123 3.1223 3.123 8.1942 0 11.3165-3.122 3.1223-8.194 3.1223-11.316 0z" fill="#97bdf7"
              opacity=".5"/>
        <g filter="url(#a)">
            <path d="m143.334 50.1666v-8.3333h3.85c.645 0 1.172.1251 1.58.3753.417.2501.727.5909.931 1.0222.204.4314.306.9231.306 1.4752 0 .5607-.119 1.0567-.357 1.4881-.23.4313-.561.7678-.995 1.0093-.424.2329-.93.3494-1.516.3494h-2.078v2.6138zm1.721-3.9984h1.721c.493 0 .862-.1294 1.109-.3882.255-.2674.382-.6254.382-1.074 0-.4831-.119-.8497-.357-1.0999-.238-.2588-.595-.3882-1.071-.3882h-1.784z"
                  fill="#fff"/>
        </g>
    </g>
</svg>