<svg fill="none" height="20" viewBox="0 0 20 20" width="20" xmlns="http://www.w3.org/2000/svg"
>
    <clipPath id="a">
        <path d="m0 0h20v20h-20z"/>
    </clipPath>
    <g clip-path="url(#a)">
        <path d="m10 20c5.5228 0 10-4.4772 10-10 0-5.52285-4.4772-10-10-10-5.52285 0-10 4.47715-10 10 0 5.5228 4.47715 10 10 10z"
              fill="#f0f0f0"/>
        <path d="m19.378 6.52176h-18.756008c-.401992 1.08332-.621992 2.25504-.621992 3.47824s.22 2.3949.621992 3.4782h18.756008c.402-1.0833.622-2.255.622-3.4782s-.22-2.39492-.622-3.47824z"
              fill="#0052b4"/>
        <g fill="#d80027">
            <path d="m9.99994 0c-3.0309 0-5.74664 1.34859-7.58051 3.47824h15.16097c-1.8338-2.12965-4.5496-3.47824-7.58046-3.47824z"/>
            <path d="m17.5804 16.5218h-15.16097c1.83387 2.1296 4.54961 3.4782 7.58051 3.4782 3.03086 0 5.74666-1.3486 7.58046-3.4782z"/>
        </g>
    </g>
</svg>