<svg width="120" height="120" viewBox="0 0 120 120" fill="none" xmlns="http://www.w3.org/2000/svg">
    <path d="M38.2248 18.6755L34.2223 30.3516C34.0884 30.7422 34.2084 31.175 34.5244 31.441L39.5857 35.7001C39.8115 35.8901 39.9418 36.1701 39.9418 36.4652V39.1516C39.9418 39.3771 40.018 39.5959 40.158 39.7726L41.7063 41.7269C41.8462 41.9036 41.9224 42.1224 41.9224 42.3479V45.9998C41.9224 46.552 41.4747 46.9998 40.9224 46.9998H39.9516C39.3993 46.9998 38.9516 47.4475 38.9516 47.9998V50.5884C38.9516 50.8519 39.0556 51.1048 39.241 51.292L44.6038 56.7075C44.7893 56.8947 44.8933 57.1476 44.8933 57.4111V63.7657C44.8933 63.9197 44.9288 64.0715 44.9971 64.2095L47.1098 68.4762C47.2699 68.7997 47.2434 69.1843 47.0402 69.4827L42.0958 76.7451C41.9828 76.911 41.9224 77.1071 41.9224 77.3079V83.5884C41.9224 83.8519 41.8184 84.1048 41.633 84.2921L40.2313 85.7075C40.0459 85.8947 39.9418 86.1476 39.9418 86.4111V88.9998C39.9418 89.552 40.3896 89.9998 40.9418 89.9998H42.4079C42.9601 89.9998 43.4079 90.4475 43.4079 90.9998V93.1084C43.4079 93.36 43.5027 93.6024 43.6735 93.7872L56.12 107.253C56.6371 107.813 57.5651 107.612 57.8039 106.888L58.0693 106.084C58.3382 105.27 59.4405 105.149 59.8786 105.887L60.9333 107.662C61.3052 108.288 62.2 108.319 62.6149 107.721L64.8282 104.528C65.0512 104.206 65.066 103.784 64.866 103.447L62.3638 99.2361C62.2719 99.0814 62.1399 98.9544 61.9818 98.8684L56.1343 95.6889C55.9109 95.5674 55.7421 95.3653 55.6624 95.1238L53.9132 89.8247C53.8437 89.6141 53.7061 89.4325 53.522 89.3087L48.3057 85.797C48.0297 85.6112 47.8642 85.3002 47.8642 84.9675V79.2125C47.8642 79.0722 47.8937 78.9336 47.9508 78.8055L52.1939 69.2837C52.2764 69.0988 52.3007 68.8932 52.2637 68.6941L51.0546 62.1823C50.9404 61.5674 51.4124 60.9998 52.0378 60.9998H54.7865C55.3388 60.9998 55.7865 61.4475 55.7865 61.9998V62.9998C55.7865 63.552 56.2342 63.9998 56.7865 63.9998H60.4231C60.628 63.9998 60.8281 64.0627 60.996 64.1802L65.4967 67.3265C66.1791 67.8036 67.1116 67.2865 67.0683 66.4549L66.6968 59.3283C66.6857 59.1149 66.7432 58.9036 66.8609 58.7253L69.3541 54.9488C69.5392 54.6684 69.8527 54.4998 70.1887 54.4998H84.0001C84.5524 54.4998 85.0001 54.052 85.0001 53.4998V46.3373C85.0001 46.1183 84.9282 45.9054 84.7956 45.7313L80.2532 39.7682C80.1205 39.5941 80.0486 39.3812 80.0486 39.1623V32.9111C80.0486 32.6476 79.9458 32.3952 79.7586 32.2097C78.0087 30.4757 74.7346 27.4998 73.6117 27.4998C72.578 27.4998 70.2205 29.5176 68.7554 30.9203C68.4085 31.2524 67.8769 31.3057 67.4785 31.0375L64.3213 28.9121C63.9572 28.667 63.4759 28.6879 63.1345 28.9638L60.3858 31.1843C59.7318 31.7126 58.7574 31.2471 58.7574 30.4064V19.9998C58.7574 19.4475 58.3097 18.9998 57.7574 18.9998H55.7392C55.0423 18.9998 54.5591 18.3049 54.8017 17.6516L55.4753 15.8377C55.6525 15.3605 55.443 14.8263 54.9886 14.5969L50.2628 12.2108C49.9979 12.0771 49.6873 12.0679 49.4149 12.1858L43.5155 14.7389C43.1496 14.8972 42.9127 15.2579 42.9127 15.6566V16.9998C42.9127 17.552 42.465 17.9998 41.9127 17.9998H39.1707C38.7434 17.9998 38.3633 18.2713 38.2248 18.6755Z"
          fill="#4F8AE8"/>
    <path d="M35.0566 16.572L31.0541 28.248C30.9202 28.6387 31.0402 29.0715 31.3562 29.3374L36.4175 33.5966C36.6433 33.7866 36.7736 34.0666 36.7736 34.3617V37.0481C36.7736 37.2736 36.8498 37.4924 36.9898 37.6691L38.538 39.6234C38.678 39.8001 38.7542 40.0189 38.7542 40.2444V43.8962C38.7542 44.4485 38.3065 44.8962 37.7542 44.8962H36.7833C36.2311 44.8962 35.7833 45.344 35.7833 45.8962V48.4849C35.7833 48.7484 35.8874 49.0013 36.0728 49.1885L41.4356 54.604C41.6211 54.7912 41.7251 55.0441 41.7251 55.3076V61.6622C41.7251 61.8162 41.7606 61.968 41.8289 62.106L43.9416 66.3727C44.1017 66.6961 44.0752 67.0808 43.872 67.3792L38.9276 74.6416C38.8146 74.8075 38.7542 75.0036 38.7542 75.2043V81.4849C38.7542 81.7484 38.6502 82.0013 38.4648 82.1885L37.0631 83.604C36.8777 83.7912 36.7736 84.0441 36.7736 84.3076V86.8962C36.7736 87.4485 37.2213 87.8962 37.7736 87.8962H39.2396C39.7919 87.8962 40.2396 88.344 40.2396 88.8962V91.0049C40.2396 91.2565 40.3345 91.4989 40.5053 91.6836L52.9518 105.15C53.4689 105.709 54.3969 105.508 54.6357 104.785L54.9011 103.981C55.17 103.166 56.2723 103.046 56.7104 103.783L57.7651 105.558C58.137 106.184 59.0318 106.216 59.4466 105.617L61.66 102.424C61.883 102.103 61.8978 101.68 61.6978 101.344L59.1956 97.1326C59.1037 96.9779 58.9717 96.8509 58.8136 96.7649L52.9661 93.5854C52.7427 93.4639 52.5739 93.2618 52.4942 93.0203L50.745 87.7212C50.6754 87.5106 50.5378 87.329 50.3538 87.2051L45.1375 83.6935C44.8615 83.5077 44.696 83.1967 44.696 82.864V77.109C44.696 76.9687 44.7255 76.83 44.7826 76.7019L49.0257 67.1802C49.1081 66.9953 49.1325 66.7897 49.0955 66.5906L47.8864 60.0788C47.7722 59.4639 48.2442 58.8962 48.8696 58.8962H51.6183C52.1706 58.8962 52.6183 59.344 52.6183 59.8962V60.8962C52.6183 61.4485 53.066 61.8962 53.6183 61.8962H57.2549C57.4598 61.8962 57.6598 61.9592 57.8278 62.0767L62.3285 65.223C63.0109 65.7001 63.9434 65.183 63.9001 64.3514L63.5286 57.2247C63.5175 57.0114 63.575 56.8 63.6927 56.6217L66.1859 52.8453C66.371 52.5649 66.6845 52.3962 67.0204 52.3962H80.8319C81.3842 52.3962 81.8319 51.9485 81.8319 51.3962V44.2337C81.8319 44.0148 81.76 43.8019 81.6274 43.6278L77.0849 37.6647C76.9523 37.4906 76.8804 37.2777 76.8804 37.0587V30.8076C76.8804 30.5441 76.7776 30.2917 76.5904 30.1062C74.8405 28.3721 71.5664 25.3962 70.4435 25.3962C69.4098 25.3962 67.0523 27.414 65.5871 28.8168C65.2403 29.1489 64.7087 29.2022 64.3103 28.934L61.1531 26.8086C60.789 26.5635 60.3077 26.5844 59.9663 26.8602L57.2176 29.0807C56.5636 29.6091 55.5892 29.1436 55.5892 28.3029V17.8962C55.5892 17.344 55.1414 16.8962 54.5892 16.8962H52.5709C51.8741 16.8962 51.3909 16.2014 51.6335 15.5481L52.3071 13.7342C52.4843 13.257 52.2748 12.7228 51.8204 12.4934L47.0946 10.1073C46.8297 9.97358 46.5191 9.96439 46.2467 10.0823L40.3473 12.6354C39.9814 12.7937 39.7445 13.1544 39.7445 13.5531V14.8962C39.7445 15.4485 39.2968 15.8962 38.7445 15.8962H36.0025C35.5752 15.8962 35.1951 16.1678 35.0566 16.572Z"
          stroke="#485261" stroke-width="2"/>
</svg>
