<svg width="320" height="68" viewBox="0 0 320 68" fill="none" xmlns="http://www.w3.org/2000/svg">
    <g clip-path="url(#clip0_221_100265)">
        <rect width="320" height="68" rx="8" fill="url(#paint0_linear_221_100265)"/>
        <circle opacity="0.8" cx="20.5" cy="-3.5" r="15.5" fill="white" fill-opacity="0.95"/>
        <path d="M352.188 40.8335L331.56 24.9448L331.97 28.0174C332.167 29.2674 332.265 30.531 332.265 31.7965C332.263 32.8953 332.192 33.9928 332.052 35.0827L347.314 46.8472C348.731 47.8532 349.722 49.3525 350.093 51.0517C350.464 52.7508 350.189 54.5275 349.32 56.0339C348.452 57.5404 347.054 58.6682 345.399 59.1967C343.744 59.7251 341.951 59.6161 340.372 58.891L317.397 49.3775C320.509 47.6233 323.099 45.0723 324.901 41.9857C326.703 38.8992 327.653 35.3883 327.654 31.8129C327.65 30.5285 327.529 29.247 327.293 27.9845L322.058 -11.4495C321.598 -14.9824 319.869 -18.2269 317.195 -20.5776C314.521 -22.9283 311.085 -24.2246 307.526 -24.2246C303.968 -24.2246 300.531 -22.9283 297.857 -20.5776C295.183 -18.2269 293.455 -14.9824 292.995 -11.4495L289.565 14.3798L292.01 12.4903C292.997 11.6965 294.045 10.9822 295.144 10.3542C296.078 9.81681 297.043 9.33407 298.033 8.90834L300.576 -10.2008C300.744 -11.9275 301.548 -13.5298 302.831 -14.6956C304.115 -15.8614 305.785 -16.5072 307.518 -16.5072C309.251 -16.5072 310.921 -15.8614 312.205 -14.6956C313.488 -13.5298 314.292 -11.9275 314.46 -10.2008L317.742 14.4455C314.075 12.2904 309.821 11.3508 305.589 11.761C301.357 12.1712 297.362 13.9101 294.176 16.7294L262.816 40.8828C259.981 43.046 258.032 46.169 257.331 49.6675C256.631 53.166 257.228 56.8002 259.01 59.89C260.792 62.9798 263.638 65.3134 267.015 66.4542C270.392 67.5949 274.068 67.4646 277.355 66.0877L301.397 56.1471L298.541 54.964C297.371 54.4998 296.235 53.9506 295.144 53.321C294.207 52.7817 293.307 52.1778 292.453 51.5135L274.631 58.891C273.052 59.6161 271.26 59.7251 269.605 59.1967C267.95 58.6682 266.551 57.5404 265.683 56.0339C264.814 54.5275 264.539 52.7508 264.91 51.0517C265.281 49.3525 266.272 47.8532 267.689 46.8472L287.382 31.665C287.382 31.665 287.382 31.7636 287.382 31.8129C287.386 35.927 288.645 39.9417 290.991 43.3189C293.338 46.6962 296.659 49.2745 300.511 50.7084L337.681 66.0384C340.967 67.4044 344.637 67.5267 348.007 66.3824C351.377 65.238 354.215 62.9053 355.993 59.8194C357.772 56.7336 358.368 53.1054 357.67 49.6119C356.973 46.1184 355.03 42.9982 352.204 40.8335H352.188ZM295.013 31.7636C295.016 29.301 295.749 26.8947 297.117 24.8487C298.486 22.8027 300.43 21.209 302.703 20.2688C304.977 19.3287 307.477 19.0844 309.889 19.5668C312.301 20.0492 314.516 21.2367 316.254 22.9792C317.992 24.7216 319.175 26.9409 319.654 29.3564C320.132 31.7719 319.885 34.2752 318.943 36.55C318.001 38.8248 316.407 40.769 314.362 42.1368C312.316 43.5046 309.912 44.2347 307.452 44.2347C305.817 44.2347 304.199 43.912 302.688 43.285C301.178 42.6581 299.806 41.7392 298.651 40.581C297.495 39.4227 296.579 38.0478 295.955 36.5348C295.331 35.0219 295.011 33.4006 295.013 31.7636Z"
              fill="#F5F4F4"/>
        <path d="M27.192 28.14C26.716 28.14 26.2773 28.0653 25.876 27.916C25.4747 27.7573 25.1527 27.5053 24.91 27.16C24.6767 26.8053 24.56 26.3387 24.56 25.76C24.56 25.004 24.8167 24.4253 25.33 24.024C25.8433 23.6133 26.5807 23.408 27.542 23.408H29.684V23.044C29.684 22.5773 29.5533 22.2507 29.292 22.064C29.0307 21.868 28.5687 21.77 27.906 21.77C27.4487 21.77 27.0147 21.8027 26.604 21.868C26.2027 21.924 25.8013 22.0173 25.4 22.148V20.734C25.7827 20.6127 26.226 20.51 26.73 20.426C27.234 20.342 27.7287 20.3 28.214 20.3C28.466 20.3 28.704 20.314 28.928 20.342C29.152 20.3607 29.362 20.3933 29.558 20.44H32.19L32.092 21.882H31.238C31.35 22.0593 31.434 22.2647 31.49 22.498C31.546 22.7313 31.574 22.9787 31.574 23.24V28H29.684V24.794H27.654C27.2527 24.794 26.9353 24.864 26.702 25.004C26.4687 25.144 26.352 25.396 26.352 25.76C26.352 26.1053 26.4547 26.3433 26.66 26.474C26.8653 26.6047 27.2107 26.67 27.696 26.67C27.8733 26.67 28.046 26.6607 28.214 26.642C28.3913 26.6233 28.5407 26.5953 28.662 26.558V27.944C28.4847 28 28.2653 28.0467 28.004 28.084C27.752 28.1213 27.4813 28.14 27.192 28.14ZM36.125 28.14C35.313 28.14 34.6737 27.8973 34.207 27.412C33.7403 26.9173 33.507 26.2313 33.507 25.354V20.44H35.397V25.242C35.397 25.7553 35.509 26.124 35.733 26.348C35.9663 26.5627 36.307 26.67 36.755 26.67C37.1097 26.67 37.455 26.5953 37.791 26.446C38.127 26.2967 38.3977 26.11 38.603 25.886V20.44H40.493V28H38.757L38.673 27.258C38.337 27.5287 37.959 27.7433 37.539 27.902C37.119 28.0607 36.6477 28.14 36.125 28.14ZM43.6173 28C43.0106 28 42.5813 27.874 42.3293 27.622C42.0866 27.37 41.9653 26.9733 41.9653 26.432V22.008C41.9653 21.56 42.0399 21.182 42.1893 20.874C42.3479 20.566 42.5253 20.3047 42.7213 20.09C42.9266 19.866 43.1039 19.6653 43.2533 19.488C43.4119 19.3107 43.4913 19.1333 43.4913 18.956C43.4913 18.7227 43.4259 18.5593 43.2953 18.466C43.1646 18.3633 42.9546 18.312 42.6653 18.312C42.1613 18.312 41.6666 18.452 41.1813 18.732V17.374C41.4706 17.206 41.8113 17.0753 42.2033 16.982C42.5953 16.8887 42.9779 16.842 43.3513 16.842C44.7606 16.842 45.4653 17.3787 45.4653 18.452C45.4653 18.76 45.4093 19.0307 45.2973 19.264C45.1946 19.4973 45.0639 19.7167 44.9053 19.922C44.7466 20.1273 44.5833 20.3327 44.4153 20.538C44.2566 20.7433 44.1213 20.972 44.0093 21.224C43.9066 21.4667 43.8553 21.7513 43.8553 22.078V25.942C43.8553 26.334 44.0466 26.53 44.4293 26.53H44.9053V28H43.6173ZM49.3825 28.14C49.1772 28.14 48.9392 28.1167 48.6685 28.07C48.4072 28.0327 48.1972 27.986 48.0385 27.93L46.9745 25.088H45.9385L46.0225 23.744H48.1645L49.2705 26.698C49.8492 26.698 50.2972 26.502 50.6145 26.11C50.9319 25.7087 51.0905 25.0553 51.0905 24.15C51.0905 23.5433 51.0112 23.0673 50.8525 22.722C50.7032 22.3767 50.4419 22.134 50.0685 21.994C49.6952 21.8447 49.1865 21.77 48.5425 21.77C48.1692 21.77 47.7679 21.8027 47.3385 21.868C46.9185 21.924 46.5172 22.0127 46.1345 22.134V20.734C46.5172 20.6127 46.9559 20.51 47.4505 20.426C47.9545 20.342 48.4819 20.3 49.0325 20.3C50.4139 20.3 51.3985 20.6313 51.9865 21.294C52.5839 21.9567 52.8825 22.9087 52.8825 24.15C52.8825 25.018 52.7192 25.7507 52.3925 26.348C52.0752 26.936 51.6505 27.384 51.1185 27.692C50.5865 27.9907 50.0079 28.14 49.3825 28.14ZM57.2165 28.14C57.0112 28.14 56.7732 28.1167 56.5025 28.07C56.2412 28.0327 56.0312 27.986 55.8725 27.93L54.8085 25.088H53.7725L53.8565 23.744H55.9985L57.1045 26.698C57.6832 26.698 58.1312 26.502 58.4485 26.11C58.7659 25.7087 58.9245 25.0553 58.9245 24.15C58.9245 23.5433 58.8452 23.0673 58.6865 22.722C58.5372 22.3767 58.2759 22.134 57.9025 21.994C57.5292 21.8447 57.0205 21.77 56.3765 21.77C56.0032 21.77 55.6019 21.8027 55.1725 21.868C54.7525 21.924 54.3512 22.0127 53.9685 22.134V20.734C54.3512 20.6127 54.7899 20.51 55.2845 20.426C55.7885 20.342 56.3159 20.3 56.8665 20.3C58.2479 20.3 59.2325 20.6313 59.8205 21.294C60.4179 21.9567 60.7165 22.9087 60.7165 24.15C60.7165 25.018 60.5532 25.7507 60.2265 26.348C59.9092 26.936 59.4845 27.384 58.9525 27.692C58.4205 27.9907 57.8419 28.14 57.2165 28.14ZM56.8885 19.404V18.158H55.7965V16.87H58.1625V18.116H61.1585L61.0885 19.404H56.8885ZM64.7005 28V23.352C64.7005 22.848 64.6025 22.4607 64.4065 22.19C64.2105 21.91 63.8185 21.77 63.2305 21.77C62.9225 21.77 62.5958 21.8073 62.2505 21.882C61.9052 21.9473 61.5972 22.0313 61.3265 22.134V20.748C61.6065 20.6173 61.9518 20.51 62.3625 20.426C62.7732 20.342 63.1838 20.3 63.5945 20.3C64.6585 20.3 65.4238 20.5287 65.8905 20.986C66.3572 21.434 66.5905 22.134 66.5905 23.086V28H64.7005ZM71.1029 28.14C70.8509 28.14 70.5802 28.1213 70.2909 28.084C70.0109 28.0467 69.7636 27.9953 69.5489 27.93L67.4209 22.75H69.2549L70.9209 26.796C71.6209 26.796 72.1249 26.5627 72.4329 26.096C72.7502 25.62 72.9089 24.9153 72.9089 23.982C72.9089 23.422 72.8529 22.9833 72.7409 22.666C72.6382 22.3487 72.4656 22.1247 72.2229 21.994C71.9802 21.854 71.6442 21.784 71.2149 21.784H70.6409V20.44H71.4809C72.5916 20.44 73.4036 20.734 73.9169 21.322C74.4396 21.9007 74.7009 22.7873 74.7009 23.982C74.7009 24.962 74.5469 25.76 74.2389 26.376C73.9309 26.9827 73.5062 27.4307 72.9649 27.72C72.4329 28 71.8122 28.14 71.1029 28.14ZM83.9979 28C83.3912 28 82.9619 27.874 82.7099 27.622C82.4672 27.37 82.3459 26.9733 82.3459 26.432V20.44H84.2359V25.942C84.2359 26.334 84.4272 26.53 84.8099 26.53H85.2859V28H83.9979ZM80.4139 28C79.8072 28 79.3779 27.874 79.1259 27.622C78.8832 27.37 78.7619 26.9733 78.7619 26.432V20.44H80.6519V25.942C80.6519 26.334 80.8432 26.53 81.2259 26.53H81.7019V28H80.4139ZM88.9752 28.14C88.4992 28.14 88.0605 28.0653 87.6592 27.916C87.2579 27.7573 86.9359 27.5053 86.6932 27.16C86.4599 26.8053 86.3432 26.3387 86.3432 25.76C86.3432 25.004 86.5999 24.4253 87.1132 24.024C87.6265 23.6133 88.3639 23.408 89.3252 23.408H91.4672V23.044C91.4672 22.5773 91.3365 22.2507 91.0752 22.064C90.8139 21.868 90.3519 21.77 89.6892 21.77C89.2319 21.77 88.7979 21.8027 88.3872 21.868C87.9859 21.924 87.5845 22.0173 87.1832 22.148V20.734C87.5659 20.6127 88.0092 20.51 88.5132 20.426C89.0172 20.342 89.5119 20.3 89.9972 20.3C91.1265 20.3 91.9665 20.538 92.5172 21.014C93.0772 21.49 93.3572 22.232 93.3572 23.24V28H91.4672V24.794H89.4372C89.0359 24.794 88.7185 24.864 88.4852 25.004C88.2519 25.144 88.1352 25.396 88.1352 25.76C88.1352 26.1053 88.2379 26.3433 88.4432 26.474C88.6485 26.6047 88.9939 26.67 89.4792 26.67C89.6565 26.67 89.8292 26.6607 89.9972 26.642C90.1745 26.6233 90.3239 26.5953 90.4452 26.558V27.944C90.2679 28 90.0485 28.0467 89.7872 28.084C89.5352 28.1213 89.2645 28.14 88.9752 28.14ZM94.7368 23.492V21.42H96.3328V22.106H98.2788L98.2228 23.492H94.7368ZM94.7368 27.244V25.172H96.3328V25.858H98.2788L98.2228 27.244H94.7368ZM102.804 28.14C101.675 28.14 100.825 27.8787 100.256 27.356C99.6868 26.8333 99.4021 26.1193 99.4021 25.214V24.738C99.4021 24.4207 99.4628 24.136 99.5841 23.884C99.7055 23.632 99.8408 23.408 99.9901 23.212C100.149 23.016 100.289 22.834 100.41 22.666C100.531 22.498 100.592 22.3393 100.592 22.19C100.592 22.05 100.559 21.9567 100.494 21.91C100.429 21.8633 100.312 21.84 100.144 21.84H99.2341L99.3881 20.44H101.348C102.123 20.44 102.51 20.7993 102.51 21.518C102.51 21.8353 102.449 22.1247 102.328 22.386C102.207 22.638 102.062 22.8807 101.894 23.114C101.735 23.3473 101.595 23.5947 101.474 23.856C101.353 24.108 101.292 24.3973 101.292 24.724V25.326C101.292 26.222 101.796 26.67 102.804 26.67C103.831 26.67 104.344 26.2033 104.344 25.27V24.388C104.344 24.0333 104.283 23.7813 104.162 23.632C104.041 23.4827 103.826 23.408 103.518 23.408H103.126L103.21 22.092H103.462C103.77 22.092 103.994 22.0127 104.134 21.854C104.274 21.6953 104.344 21.4433 104.344 21.098V20.3H106.234V21.056C106.234 21.4853 106.169 21.8353 106.038 22.106C105.907 22.3673 105.651 22.582 105.268 22.75C105.66 22.9273 105.917 23.156 106.038 23.436C106.169 23.7067 106.234 24.0473 106.234 24.458V25.186C106.234 26.0913 105.931 26.81 105.324 27.342C104.717 27.874 103.877 28.14 102.804 28.14ZM105.334 19.642C104.867 19.642 104.47 19.4927 104.144 19.194C103.808 18.886 103.64 18.4987 103.64 18.032C103.64 17.5653 103.808 17.178 104.144 16.87C104.47 16.562 104.867 16.408 105.334 16.408C105.8 16.408 106.197 16.562 106.524 16.87C106.85 17.178 107.014 17.5653 107.014 18.032C107.014 18.4987 106.85 18.886 106.524 19.194C106.197 19.4927 105.8 19.642 105.334 19.642ZM105.334 18.648C105.502 18.648 105.646 18.5873 105.768 18.466C105.889 18.3353 105.95 18.1907 105.95 18.032C105.95 17.864 105.889 17.7193 105.768 17.598C105.646 17.4673 105.502 17.402 105.334 17.402C105.166 17.402 105.021 17.4673 104.9 17.598C104.769 17.7193 104.704 17.864 104.704 18.032C104.704 18.1907 104.769 18.3353 104.9 18.466C105.021 18.5873 105.166 18.648 105.334 18.648ZM110.57 28V23.352C110.57 22.848 110.472 22.4607 110.276 22.19C110.08 21.91 109.688 21.77 109.1 21.77C108.792 21.77 108.465 21.8073 108.12 21.882C107.774 21.9473 107.466 22.0313 107.196 22.134V20.748C107.476 20.6173 107.821 20.51 108.232 20.426C108.642 20.342 109.053 20.3 109.464 20.3C110.528 20.3 111.293 20.5287 111.76 20.986C112.226 21.434 112.46 22.134 112.46 23.086V28H110.57ZM116.678 28.14C116.155 28.14 115.651 28.1027 115.166 28.028C114.69 27.9533 114.303 27.8553 114.004 27.734V26.208C114.359 26.3573 114.746 26.474 115.166 26.558C115.595 26.6327 115.983 26.67 116.328 26.67C116.935 26.67 117.373 26.6233 117.644 26.53C117.924 26.4367 118.064 26.2453 118.064 25.956C118.064 25.732 117.989 25.5593 117.84 25.438C117.7 25.3167 117.481 25.2093 117.182 25.116C116.883 25.0133 116.501 24.8827 116.034 24.724C115.353 24.4813 114.816 24.2107 114.424 23.912C114.041 23.604 113.85 23.1513 113.85 22.554C113.85 21.882 114.111 21.3407 114.634 20.93C115.157 20.51 115.945 20.3 117 20.3C117.439 20.3 117.877 20.3327 118.316 20.398C118.755 20.4633 119.114 20.5427 119.394 20.636V22.148C119.086 22.0173 118.731 21.924 118.33 21.868C117.938 21.8027 117.583 21.77 117.266 21.77C116.827 21.77 116.445 21.8213 116.118 21.924C115.801 22.0173 115.642 22.2133 115.642 22.512C115.642 22.6987 115.721 22.848 115.88 22.96C116.048 23.072 116.281 23.1747 116.58 23.268C116.888 23.3613 117.252 23.4827 117.672 23.632C118.195 23.8093 118.615 23.996 118.932 24.192C119.259 24.388 119.492 24.626 119.632 24.906C119.781 25.186 119.856 25.536 119.856 25.956C119.856 26.6933 119.571 27.244 119.002 27.608C118.442 27.9627 117.667 28.14 116.678 28.14ZM120.891 23.492V21.42H122.487V22.106H124.433L124.377 23.492H120.891ZM120.891 27.244V25.172H122.487V25.858H124.433L124.377 27.244H120.891ZM127.39 28C126.784 28 126.354 27.874 126.102 27.622C125.86 27.37 125.738 26.9733 125.738 26.432V20.44H127.628V25.942C127.628 26.334 127.82 26.53 128.202 26.53H128.678V28H127.39ZM132.845 28.14C132.593 28.14 132.322 28.1213 132.033 28.084C131.753 28.0467 131.506 27.9953 131.291 27.93L129.163 22.75H130.997L132.663 26.796C133.363 26.796 133.867 26.5627 134.175 26.096C134.492 25.62 134.651 24.9153 134.651 23.982C134.651 23.422 134.595 22.9833 134.483 22.666C134.38 22.3487 134.208 22.1247 133.965 21.994C133.722 21.854 133.386 21.784 132.957 21.784H132.383V20.44H133.223C134.334 20.44 135.146 20.734 135.659 21.322C136.182 21.9007 136.443 22.7873 136.443 23.982C136.443 24.962 136.289 25.76 135.981 26.376C135.673 26.9827 135.248 27.4307 134.707 27.72C134.175 28 133.554 28.14 132.845 28.14ZM129.602 19.404L129.7 18.116H135.72V19.404H129.602ZM140.004 28.14C139.192 28.14 138.553 27.8973 138.086 27.412C137.619 26.9173 137.386 26.2313 137.386 25.354V20.44H139.276V25.242C139.276 25.7553 139.388 26.124 139.612 26.348C139.845 26.5627 140.186 26.67 140.634 26.67C140.989 26.67 141.334 26.5953 141.67 26.446C142.006 26.2967 142.277 26.11 142.482 25.886V20.44H144.372V28H142.636L142.552 27.258C142.216 27.5287 141.838 27.7433 141.418 27.902C140.998 28.0607 140.527 28.14 140.004 28.14ZM148.836 21.728L149.816 18.844H151.104L150.32 21.728H148.836ZM151.034 21.728L152.014 18.844H153.288L152.518 21.728H151.034ZM156.068 28C155.462 28 155.032 27.874 154.78 27.622C154.538 27.37 154.416 26.9733 154.416 26.432V22.008C154.416 21.56 154.491 21.182 154.64 20.874C154.799 20.566 154.976 20.3047 155.172 20.09C155.378 19.866 155.555 19.6653 155.704 19.488C155.863 19.3107 155.942 19.1333 155.942 18.956C155.942 18.7227 155.877 18.5593 155.746 18.466C155.616 18.3633 155.406 18.312 155.116 18.312C154.612 18.312 154.118 18.452 153.632 18.732V17.374C153.922 17.206 154.262 17.0753 154.654 16.982C155.046 16.8887 155.429 16.842 155.802 16.842C157.212 16.842 157.916 17.3787 157.916 18.452C157.916 18.76 157.86 19.0307 157.748 19.264C157.646 19.4973 157.515 19.7167 157.356 19.922C157.198 20.1273 157.034 20.3327 156.866 20.538C156.708 20.7433 156.572 20.972 156.46 21.224C156.358 21.4667 156.306 21.7513 156.306 22.078V25.942C156.306 26.334 156.498 26.53 156.88 26.53H157.356V28H156.068ZM161.428 28.14C160.616 28.14 159.976 27.8973 159.51 27.412C159.043 26.9173 158.81 26.2313 158.81 25.354V20.44H160.7V25.242C160.7 25.7553 160.812 26.124 161.036 26.348C161.269 26.5627 161.61 26.67 162.058 26.67C162.412 26.67 162.758 26.5953 163.094 26.446C163.43 26.2967 163.7 26.11 163.906 25.886V20.44H165.796V28H164.06L163.976 27.258C163.64 27.5287 163.262 27.7433 162.842 27.902C162.422 28.0607 161.95 28.14 161.428 28.14ZM170.082 28.14C169.27 28.14 168.631 27.8973 168.164 27.412C167.697 26.9173 167.464 26.2313 167.464 25.354V20.44H169.354V25.242C169.354 25.7553 169.466 26.124 169.69 26.348C169.923 26.5627 170.264 26.67 170.712 26.67C171.067 26.67 171.412 26.5953 171.748 26.446C172.084 26.2967 172.355 26.11 172.56 25.886V20.44H174.45V28H172.714L172.63 27.258C172.294 27.5287 171.916 27.7433 171.496 27.902C171.076 28.0607 170.605 28.14 170.082 28.14ZM178.792 28V23.352C178.792 22.848 178.694 22.4607 178.498 22.19C178.302 21.91 177.91 21.77 177.322 21.77C177.014 21.77 176.688 21.8073 176.342 21.882C175.997 21.9473 175.689 22.0313 175.418 22.134V20.748C175.698 20.6173 176.044 20.51 176.454 20.426C176.865 20.342 177.276 20.3 177.686 20.3C178.75 20.3 179.516 20.5287 179.982 20.986C180.449 21.434 180.682 22.134 180.682 23.086V28H178.792ZM186.721 28.14C186.198 28.14 185.727 28.0607 185.307 27.902C184.887 27.7433 184.509 27.5287 184.173 27.258L184.089 28H182.353V20.44H184.243V25.886C184.448 26.11 184.719 26.2967 185.055 26.446C185.4 26.5953 185.745 26.67 186.091 26.67C186.539 26.67 186.875 26.5627 187.099 26.348C187.332 26.124 187.449 25.7553 187.449 25.242V20.44H189.339V25.354C189.339 26.2313 189.105 26.9173 188.639 27.412C188.172 27.8973 187.533 28.14 186.721 28.14ZM194.605 28.14C193.494 28.14 192.617 27.8787 191.973 27.356C191.329 26.824 191.007 26.026 191.007 24.962V20.44H192.897V24.99C192.897 26.11 193.466 26.67 194.605 26.67C195.744 26.67 196.313 26.11 196.313 24.99V20.44H198.203V24.962C198.203 26.026 197.881 26.824 197.237 27.356C196.593 27.8787 195.716 28.14 194.605 28.14ZM202.414 28.14C201.892 28.14 201.388 28.1027 200.902 28.028C200.426 27.9533 200.039 27.8553 199.74 27.734V26.208C200.095 26.3573 200.482 26.474 200.902 26.558C201.332 26.6327 201.719 26.67 202.064 26.67C202.671 26.67 203.11 26.6233 203.38 26.53C203.66 26.4367 203.8 26.2453 203.8 25.956C203.8 25.732 203.726 25.5593 203.576 25.438C203.436 25.3167 203.217 25.2093 202.918 25.116C202.62 25.0133 202.237 24.8827 201.77 24.724C201.089 24.4813 200.552 24.2107 200.16 23.912C199.778 23.604 199.586 23.1513 199.586 22.554C199.586 21.882 199.848 21.3407 200.37 20.93C200.893 20.51 201.682 20.3 202.736 20.3C203.175 20.3 203.614 20.3327 204.052 20.398C204.491 20.4633 204.85 20.5427 205.13 20.636V22.148C204.822 22.0173 204.468 21.924 204.066 21.868C203.674 21.8027 203.32 21.77 203.002 21.77C202.564 21.77 202.181 21.8213 201.854 21.924C201.537 22.0173 201.378 22.2133 201.378 22.512C201.378 22.6987 201.458 22.848 201.616 22.96C201.784 23.072 202.018 23.1747 202.316 23.268C202.624 23.3613 202.988 23.4827 203.408 23.632C203.931 23.8093 204.351 23.996 204.668 24.192C204.995 24.388 205.228 24.626 205.368 24.906C205.518 25.186 205.592 25.536 205.592 25.956C205.592 26.6933 205.308 27.244 204.738 27.608C204.178 27.9627 203.404 28.14 202.414 28.14ZM199.123 19.404L199.221 18.116H205.241V19.404H199.123ZM210.505 28.14C209.395 28.14 208.517 27.8787 207.873 27.356C207.229 26.824 206.907 26.026 206.907 24.962V20.44H208.797V24.99C208.797 26.11 209.367 26.67 210.505 26.67C211.644 26.67 212.213 26.11 212.213 24.99V24.136H210.603V22.75H212.213V20.44H214.103V22.75H214.901L214.775 24.136H214.103V24.962C214.103 26.026 213.781 26.824 213.137 27.356C212.493 27.8787 211.616 28.14 210.505 28.14ZM210.503 19.404V17.178H212.043V18.116H215.529L215.459 19.404H210.503ZM215.862 28V20.44H217.598L217.682 21.182C218.018 20.9113 218.406 20.6967 218.844 20.538C219.292 20.3793 219.778 20.3 220.3 20.3C221.094 20.3 221.714 20.5427 222.162 21.028C222.62 21.5133 222.848 22.1807 222.848 23.03V28H220.958V23.142C220.958 22.6567 220.842 22.3067 220.608 22.092C220.384 21.8773 220.048 21.77 219.6 21.77C219.255 21.77 218.91 21.8447 218.564 21.994C218.228 22.1433 217.958 22.33 217.752 22.554V28H215.862ZM224.237 21.728L225.021 18.844H226.505L225.525 21.728H224.237ZM226.435 21.728L227.205 18.844H228.689L227.709 21.728H226.435ZM233.089 28V20.44H234.825L234.909 21.182C235.245 20.9113 235.632 20.6967 236.071 20.538C236.519 20.3793 237.004 20.3 237.527 20.3C238.32 20.3 238.941 20.5427 239.389 21.028C239.846 21.5133 240.075 22.1807 240.075 23.03V28H238.185V23.142C238.185 22.6567 238.068 22.3067 237.835 22.092C237.611 21.8773 237.275 21.77 236.827 21.77C236.482 21.77 236.136 21.8447 235.791 21.994C235.455 22.1433 235.184 22.33 234.979 22.554V28H233.089ZM239.181 19.642C238.715 19.642 238.318 19.4927 237.991 19.194C237.655 18.886 237.487 18.4987 237.487 18.032C237.487 17.5653 237.655 17.178 237.991 16.87C238.318 16.562 238.715 16.408 239.181 16.408C239.648 16.408 240.045 16.562 240.371 16.87C240.698 17.178 240.861 17.5653 240.861 18.032C240.861 18.4987 240.698 18.886 240.371 19.194C240.045 19.4927 239.648 19.642 239.181 19.642ZM239.181 18.648C239.349 18.648 239.494 18.5873 239.615 18.466C239.737 18.3353 239.797 18.1907 239.797 18.032C239.797 17.864 239.737 17.7193 239.615 17.598C239.494 17.4673 239.349 17.402 239.181 17.402C239.013 17.402 238.869 17.4673 238.747 17.598C238.617 17.7193 238.551 17.864 238.551 18.032C238.551 18.1907 238.617 18.3353 238.747 18.466C238.869 18.5873 239.013 18.648 239.181 18.648ZM244.417 28V23.352C244.417 22.848 244.319 22.4607 244.123 22.19C243.927 21.91 243.535 21.77 242.947 21.77C242.639 21.77 242.313 21.8073 241.967 21.882C241.622 21.9473 241.314 22.0313 241.043 22.134V20.748C241.323 20.6173 241.669 20.51 242.079 20.426C242.49 20.342 242.901 20.3 243.311 20.3C244.375 20.3 245.141 20.5287 245.607 20.986C246.074 21.434 246.307 22.134 246.307 23.086V28H244.417ZM249.826 28C249.219 28 248.79 27.874 248.538 27.622C248.295 27.37 248.174 26.9733 248.174 26.432V20.412C248.174 19.9173 248.258 19.502 248.426 19.166C248.594 18.8207 248.818 18.55 249.098 18.354H246.928V16.884H251.38V18.256C250.913 18.424 250.577 18.69 250.372 19.054C250.166 19.4087 250.064 19.8893 250.064 20.496V25.942C250.064 26.334 250.255 26.53 250.638 26.53H251.114V28H249.826ZM255.168 28.14C254.562 28.14 254.02 28.0093 253.544 27.748C253.068 27.4867 252.69 27.0807 252.41 26.53C252.14 25.97 252.004 25.2513 252.004 24.374C252.004 23.086 252.336 22.0873 252.998 21.378C253.67 20.6593 254.655 20.3 255.952 20.3C256.858 20.3 257.59 20.454 258.15 20.762C258.71 21.0607 259.116 21.448 259.368 21.924C259.63 22.4 259.76 22.904 259.76 23.436V28H257.87V23.562C257.87 23.2073 257.814 22.8993 257.702 22.638C257.59 22.3673 257.39 22.1573 257.1 22.008C256.82 21.8493 256.428 21.77 255.924 21.77C254.506 21.77 253.796 22.638 253.796 24.374C253.796 25.2233 253.946 25.8207 254.244 26.166C254.543 26.502 254.963 26.67 255.504 26.67C255.682 26.67 255.854 26.6607 256.022 26.642C256.2 26.6233 256.349 26.5953 256.47 26.558V27.944C256.302 28.0093 256.116 28.056 255.91 28.084C255.705 28.1213 255.458 28.14 255.168 28.14ZM256.293 19.404V18.158H255.201V16.87H257.567V18.116H260.563L260.493 19.404H256.293Z"
              fill="#1D6CE2"/>
        <path d="M29.7598 43.9648C29.8848 44.1016 29.9883 44.2754 30.0703 44.4863C30.1875 44.7793 30.248 45.084 30.252 45.4004V50H29.1328V49.3906C29.1328 48.8125 28.9473 48.1406 28.5762 47.375C28.0996 46.4102 27.5801 45.9297 27.0176 45.9336C26.6465 45.9336 26.3965 46.1367 26.2676 46.543C26.2051 46.7344 26.1738 46.9746 26.1738 47.2637C26.1738 47.4316 26.1855 47.6172 26.209 47.8203C26.3535 47.7695 26.4941 47.7402 26.6309 47.7324C26.959 47.7324 27.2344 47.8457 27.457 48.0723C27.6836 48.2988 27.7969 48.5762 27.7969 48.9043C27.7969 49.1504 27.7148 49.3887 27.5508 49.6191C27.3789 49.8652 27.1719 50.0039 26.9297 50.0352C26.7422 50.0586 26.6152 50.0703 26.5488 50.0703C26.1426 50.0703 25.7949 49.9238 25.5059 49.6309C25.2012 49.3262 25.0508 48.7363 25.0547 47.8613C25.0547 46.9082 25.2051 46.2344 25.5059 45.8398C25.8379 45.3984 26.2812 45.1777 26.8359 45.1777C27.1484 45.1777 27.4785 45.2598 27.8262 45.4238C28.2285 45.6152 28.6055 46.0254 28.957 46.6543C29 46.7246 29.0586 46.834 29.1328 46.9824V45.582C29.1328 45.0938 29.0488 44.7266 28.8809 44.4805C28.623 44.1094 28.1387 43.9258 27.4277 43.9297C26.7871 43.9297 26.2832 44.043 25.916 44.2695C25.5488 44.4922 25.3145 44.7461 25.2129 45.0312L24.6035 44.5566L25.002 44.0586C25.2207 43.8477 25.4395 43.6875 25.6582 43.5781C25.877 43.4648 26.1523 43.3672 26.4844 43.2852C26.7734 43.2188 27.0977 43.1855 27.457 43.1855C28.0977 43.1855 28.6172 43.2734 29.0156 43.4492C29.1562 43.3516 29.2637 43.2461 29.3379 43.1328C29.4473 42.9922 29.502 42.8047 29.502 42.5703L30.6855 42.8809C30.6855 43.2402 30.4844 43.5469 30.082 43.8008C29.9766 43.8672 29.8691 43.9219 29.7598 43.9648ZM27.1348 48.9043C27.1348 48.7637 27.0859 48.6445 26.9883 48.5469C26.8945 48.4453 26.7754 48.3945 26.6309 48.3945C26.4941 48.3945 26.377 48.4473 26.2793 48.5527C26.1855 48.6543 26.1387 48.7715 26.1387 48.9043C26.1387 49.041 26.1875 49.1621 26.2852 49.2676C26.3828 49.3691 26.498 49.4199 26.6309 49.4199C26.7715 49.4199 26.8906 49.3691 26.9883 49.2676C27.0859 49.166 27.1348 49.0449 27.1348 48.9043ZM35.127 44.5098C35.2168 44.252 35.2598 44.0352 35.2559 43.8594L36.2109 44.0293C36.1016 44.709 35.7402 45.2617 35.127 45.6875C34.7715 45.9297 34.2441 46.0508 33.5449 46.0508C32.627 46.0508 31.998 45.793 31.6582 45.2773C31.5488 45.1172 31.4941 44.9297 31.4941 44.7148C31.4941 44.4336 31.5977 44.1758 31.8047 43.9414C32 43.7852 32.2324 43.6836 32.502 43.6367C32.8535 43.6367 33.1406 43.7344 33.3633 43.9297C33.5547 44.1406 33.6504 44.4023 33.6504 44.7148C33.6504 45.043 33.4883 45.2852 33.1641 45.4414C33.3008 45.4844 33.4414 45.5059 33.5859 45.5059C33.7969 45.5059 34 45.4707 34.1953 45.4004C34.6602 45.248 34.9707 44.9512 35.127 44.5098ZM35.127 48.0723C35.2168 47.8262 35.2598 47.6152 35.2559 47.4395L36.2109 47.5918C36.1016 48.2637 35.7422 48.8164 35.1328 49.25C34.7812 49.4961 34.252 49.6172 33.5449 49.6133C32.623 49.6133 31.9961 49.3613 31.6641 48.8574C31.5508 48.6895 31.4941 48.502 31.4941 48.2949C31.4941 47.9863 31.5977 47.7324 31.8047 47.5332C32.0156 47.3301 32.248 47.2285 32.502 47.2285C32.5332 47.2246 32.5762 47.2227 32.6309 47.2227C32.9238 47.2227 33.166 47.3184 33.3574 47.5098C33.5527 47.6973 33.6504 47.959 33.6504 48.2949C33.6504 48.5996 33.4883 48.8398 33.1641 49.0156C33.2891 49.0469 33.4219 49.0645 33.5625 49.0684C34.375 49.0684 34.8965 48.7363 35.127 48.0723ZM32.0625 44.6621C32.0625 44.7988 32.1094 44.918 32.2031 45.0195C32.3008 45.1172 32.418 45.166 32.5547 45.166C32.6992 45.166 32.8223 45.1191 32.9238 45.0254C33.0293 44.9316 33.082 44.8105 33.082 44.6621C33.082 44.5215 33.0293 44.4043 32.9238 44.3105C32.8184 44.2168 32.6953 44.1699 32.5547 44.1699C32.4219 44.1699 32.3066 44.2188 32.209 44.3164C32.1113 44.4141 32.0625 44.5293 32.0625 44.6621ZM32.0625 48.2363C32.0625 48.373 32.1094 48.4902 32.2031 48.5879C32.3008 48.6816 32.418 48.7285 32.5547 48.7285C32.9062 48.7285 33.082 48.5645 33.082 48.2363C33.082 48.0918 33.0293 47.9727 32.9238 47.8789C32.8223 47.7812 32.6992 47.7324 32.5547 47.7324C32.4219 47.7324 32.3066 47.7832 32.209 47.8848C32.1113 47.9863 32.0625 48.1035 32.0625 48.2363ZM41.8652 50V45.459C41.8652 44.9941 41.7246 44.6309 41.4434 44.3691C41.1387 44.0801 40.6699 43.9336 40.0371 43.9297C39.5059 43.9297 39.0742 44.0781 38.7422 44.375C38.3672 44.7148 38.1797 45.1758 38.1797 45.7578C38.1797 46.0625 38.2129 46.3594 38.2793 46.6484L38.4551 47.4629C38.5918 48.0723 38.6602 48.5664 38.6602 48.9453C38.8906 48.5586 39.1836 48.1133 39.5391 47.6094C39.6484 47.4531 39.7461 47.3164 39.832 47.1992C39.5742 47.168 39.3242 47.0449 39.082 46.8301C38.918 46.6816 38.8359 46.4375 38.8359 46.0977C38.8359 45.9336 38.8613 45.7871 38.9121 45.6582C39.1113 45.166 39.498 44.9199 40.0723 44.9199C40.5215 44.9199 40.8438 45.0723 41.0391 45.377C41.1992 45.6348 41.2773 45.9062 41.2734 46.1914C41.2734 46.3867 41.1406 46.6992 40.875 47.1289C40.6562 47.4531 40.3262 47.9336 39.8848 48.5703C39.7168 48.8164 39.4766 49.1875 39.1641 49.6836C39.0859 49.8164 39.0234 49.9219 38.9766 50H37.6348C37.6348 49.9727 37.6367 49.9297 37.6406 49.8711C37.6445 49.8086 37.6465 49.7598 37.6465 49.7246C37.6465 49.3184 37.6074 48.8613 37.5293 48.3535C37.4277 47.9277 37.2852 47.2812 37.1016 46.4141C37.0586 46.207 37.0352 45.9727 37.0312 45.7109C37.0312 44.9102 37.3262 44.2852 37.916 43.8359C38.4707 43.4102 39.1816 43.1934 40.0488 43.1855C41.041 43.1855 41.7793 43.3926 42.2637 43.8066C42.7363 44.2051 42.9727 44.7754 42.9727 45.5176V50H41.8652ZM39.5273 46.1211C39.5273 46.2578 39.5801 46.377 39.6855 46.4785C39.7949 46.5801 39.916 46.6309 40.0488 46.6309C40.1895 46.6309 40.3105 46.582 40.4121 46.4844C40.5176 46.3828 40.5703 46.2617 40.5703 46.1211C40.5703 45.9766 40.5195 45.8555 40.418 45.7578C40.3203 45.6602 40.1973 45.6113 40.0488 45.6113C39.9082 45.6113 39.7852 45.6621 39.6797 45.7637C39.5781 45.8613 39.5273 45.9805 39.5273 46.1211ZM49.1543 48.7168C49.1543 49.0957 49.0234 49.4277 48.7617 49.7129C48.5234 49.9707 48.2188 50.0996 47.8477 50.0996C47.7734 50.0996 47.6895 50.0898 47.5957 50.0703C47.291 50.043 47.0371 49.9219 46.834 49.707C46.6309 49.4922 46.5293 49.2324 46.5293 48.9277C46.5293 48.6035 46.6426 48.3301 46.8691 48.1074C47.0996 47.8848 47.3789 47.7734 47.707 47.7734C47.832 47.7734 47.9453 47.7891 48.0469 47.8203V45.582C48.0469 45.0586 47.9766 44.6895 47.8359 44.4746C47.5977 44.1152 47.1758 43.9336 46.5703 43.9297C45.9805 43.9297 45.5137 44.0938 45.1699 44.4219C44.9473 44.6328 44.7871 44.8906 44.6895 45.1953L44.0742 44.8027C44.2305 44.3691 44.4941 43.9941 44.8652 43.6777C45.252 43.3496 45.834 43.1855 46.6113 43.1855C47.3887 43.1855 48.0117 43.375 48.4805 43.7539C48.9297 44.1133 49.1543 44.6621 49.1543 45.4004V48.7168ZM47.707 49.4375C48.043 49.4375 48.2109 49.2676 48.2109 48.9277C48.2109 48.7832 48.1621 48.6621 48.0645 48.5645C47.9668 48.4629 47.8477 48.4121 47.707 48.4121C47.5664 48.4121 47.4453 48.4629 47.3438 48.5645C47.2422 48.666 47.1914 48.7871 47.1914 48.9277C47.1914 49.0684 47.2402 49.1895 47.3379 49.291C47.4395 49.3887 47.5625 49.4375 47.707 49.4375ZM55.1133 50V45.5176C55.1133 45.0449 55.0117 44.6777 54.8086 44.416C54.543 44.0918 54.0684 43.9297 53.3848 43.9297C53.127 43.9297 52.8965 43.957 52.6934 44.0117C52.5215 44.0547 52.3379 44.1309 52.1426 44.2402C51.9199 44.3652 51.7598 44.4727 51.6621 44.5625C51.5449 44.6758 51.4512 44.7676 51.3809 44.8379L53.0859 45.0957L53.0098 45.6289C52.7754 45.6289 52.5996 45.6895 52.4824 45.8105C52.2715 45.9824 52.168 46.2266 52.1719 46.543V50H51.0703V46.543C51.0703 46.2734 51.1309 46.0586 51.252 45.8984C51.3965 45.7148 51.543 45.6133 51.6914 45.5938C51.7461 45.5898 51.7793 45.5645 51.791 45.5176L50.4492 45.3652L50.5195 44.6445C50.6562 44.5898 50.8203 44.457 51.0117 44.2461C51.2695 43.9648 51.5938 43.7188 51.9844 43.5078C52.3789 43.293 52.8457 43.1855 53.3848 43.1855C54.0332 43.1855 54.5566 43.2715 54.9551 43.4434C55.1895 43.541 55.4004 43.6797 55.5879 43.8594C55.7598 44.0195 55.9043 44.2129 56.0215 44.4395C56.1074 44.6035 56.1602 44.7578 56.1797 44.9023C56.207 45.0742 56.2227 45.2676 56.2266 45.4824V50H55.1133ZM60.7617 45.5117C60.5703 45.5312 60.4609 45.541 60.4336 45.541C60.1094 45.541 59.832 45.4316 59.6016 45.2129C59.375 44.9941 59.2617 44.7246 59.2617 44.4043C59.2617 44.1504 59.3457 43.9082 59.5137 43.6777C59.6855 43.4316 59.8945 43.291 60.1406 43.2559C60.332 43.2324 60.4668 43.2246 60.5449 43.2324C60.9629 43.2324 61.291 43.3672 61.5293 43.6367C61.7598 43.8984 61.873 44.2207 61.8691 44.6035V50H60.4453C60.4062 49.9258 60.3398 49.8027 60.2461 49.6309C60.2148 49.5762 60.0898 49.3906 59.8711 49.0742C59.793 48.9492 59.6641 48.752 59.4844 48.4824C59.2461 48.1465 58.9551 47.7969 58.6113 47.4336C58.5137 47.3359 58.373 47.1973 58.1895 47.0176L58.166 47C57.8965 46.7383 57.7148 46.5801 57.6211 46.5254C57.5039 46.4551 57.4219 46.4082 57.375 46.3848L57.6914 45.8867C57.8477 45.8867 58.293 46.2129 59.0273 46.8652C59.293 47.1035 59.5684 47.3633 59.8535 47.6445C60.0137 47.8164 60.2207 48.0723 60.4746 48.4121L60.7617 48.7988V45.5117ZM60.0645 44.0352C59.9629 44.1367 59.9121 44.2598 59.9121 44.4043C59.9121 44.5488 59.9629 44.6699 60.0645 44.7676C60.1699 44.8613 60.293 44.9082 60.4336 44.9082C60.5664 44.9082 60.6836 44.8574 60.7852 44.7559C60.8867 44.6504 60.9375 44.5332 60.9375 44.4043C60.9375 44.2676 60.8867 44.1465 60.7852 44.041C60.6875 43.9355 60.5703 43.8828 60.4336 43.8828C60.2891 43.8828 60.166 43.9336 60.0645 44.0352ZM60.8848 39.8984H61.9863V41.8496H60.8848V39.8984ZM68.1211 50H67.002V45.582C67.002 45.0547 66.9297 44.6855 66.7852 44.4746C66.5391 44.1152 66.1211 43.9336 65.5312 43.9297C64.9336 43.9297 64.4609 44.0957 64.1133 44.4277C63.8828 44.6426 63.7305 44.8984 63.6562 45.1953L63.0117 44.8027C63.1562 44.3809 63.4141 44.0195 63.7852 43.7188C64.2109 43.3672 64.8086 43.1895 65.5781 43.1855C66.3398 43.1855 66.957 43.375 67.4297 43.7539C67.8867 44.125 68.1172 44.6738 68.1211 45.4004V50ZM73.7578 49.1504C73.9141 49.1504 74.0352 49.0938 74.1211 48.9805C74.1953 48.8828 74.2324 48.75 74.2324 48.582V43.3145H75.3574V48.7578C75.3574 49.0938 75.2676 49.377 75.0879 49.6074C74.8887 49.8691 74.5449 50 74.0566 50H69.8848V49.1504H70.3301V48.0195C70.3301 47.6016 70.4199 47.2695 70.5996 47.0234C70.8105 46.7383 71.0684 46.5703 71.373 46.5195C70.916 46.5195 70.543 46.3828 70.2539 46.1094C69.9688 45.8359 69.8262 45.4727 69.8262 45.0195C69.8262 44.4453 70.041 43.9883 70.4707 43.6484C70.8652 43.3477 71.3613 43.1992 71.959 43.2031C72.3574 43.2031 72.6777 43.3027 72.9199 43.502C73.1816 43.7207 73.3125 44.0254 73.3125 44.416C73.3125 44.8418 73.1602 45.1523 72.8555 45.3477C72.6562 45.4727 72.4336 45.5332 72.1875 45.5293C71.6406 45.5293 71.293 45.332 71.1445 44.9375C71.0938 44.8047 71.0703 44.6738 71.0742 44.5449C71.0742 44.4238 71.084 44.3359 71.1035 44.2812C71.0059 44.2969 70.918 44.3789 70.8398 44.5273C70.7734 44.6641 70.7402 44.7891 70.7402 44.9023C70.7402 45.5625 71.1289 45.9434 71.9062 46.0449C72.1641 46.084 72.416 46.1016 72.6621 46.0977H73.1543V46.8652H72.6328C72.2734 46.8652 72.002 46.9453 71.8184 47.1055C71.5879 47.3164 71.4746 47.6074 71.4785 47.9785V49.1504H73.7578ZM71.6543 44.416C71.6543 44.5566 71.7051 44.6777 71.8066 44.7793C71.9121 44.877 72.0332 44.9258 72.1699 44.9258C72.3066 44.9258 72.4277 44.875 72.5332 44.7734C72.6387 44.6719 72.6914 44.5527 72.6914 44.416C72.6914 44.0801 72.5176 43.9121 72.1699 43.9121C72.0293 43.9121 71.9082 43.9609 71.8066 44.0586C71.7051 44.1562 71.6543 44.2754 71.6543 44.416ZM82.8398 39.957V47.8203C82.9258 47.7969 83.0371 47.7812 83.1738 47.7734C83.498 47.7734 83.7715 47.8848 83.9941 48.1074C84.2207 48.3262 84.334 48.5996 84.334 48.9277C84.334 49.2402 84.2363 49.502 84.041 49.7129C83.8457 49.9238 83.5918 50.043 83.2793 50.0703C83.2012 50.0938 83.1152 50.1055 83.0215 50.1055C82.6426 50.1055 82.3379 49.9746 82.1074 49.7129C81.8535 49.4316 81.7266 49.0996 81.7266 48.7168V39.957C81.7266 39.9062 81.707 39.8008 81.668 39.6406C81.5977 39.5703 81.5273 39.5371 81.457 39.541C81.3555 39.541 81.2441 39.6348 81.123 39.8223C80.9629 40.0684 80.8242 40.3574 80.707 40.6895C80.6562 40.8262 80.6152 40.9453 80.584 41.0469H79.9219C79.8906 40.5938 79.8027 40.248 79.6582 40.0098C79.4863 39.7285 79.2617 39.5723 78.9844 39.541L79.3477 38.5742C79.6094 38.6172 79.8164 38.7617 79.9688 39.0078C80.125 39.2539 80.2344 39.584 80.2969 39.998C80.4141 39.7168 80.5684 39.4512 80.7598 39.2012C81.002 38.8848 81.2383 38.7168 81.4688 38.6973L81.6562 38.6855C81.6875 38.6816 81.7109 38.6797 81.7266 38.6797C82.0742 38.6797 82.3516 38.8125 82.5586 39.0781C82.7461 39.3281 82.8398 39.6211 82.8398 39.957ZM83.6895 48.9277C83.6895 48.7871 83.6387 48.666 83.5371 48.5645C83.4355 48.4629 83.3145 48.4121 83.1738 48.4121C83.0371 48.4121 82.918 48.4629 82.8164 48.5645C82.7148 48.666 82.6641 48.7871 82.6641 48.9277C82.6641 49.0645 82.7148 49.1836 82.8164 49.2852C82.918 49.3867 83.0371 49.4375 83.1738 49.4375C83.3184 49.4375 83.4395 49.3887 83.5371 49.291C83.6387 49.1895 83.6895 49.0684 83.6895 48.9277ZM90.2285 50V45.459C90.2285 44.9941 90.0879 44.6309 89.8066 44.3691C89.502 44.0801 89.0332 43.9336 88.4004 43.9297C87.8691 43.9297 87.4375 44.0781 87.1055 44.375C86.7305 44.7148 86.543 45.1758 86.543 45.7578C86.543 46.0625 86.5762 46.3594 86.6426 46.6484L86.8184 47.4629C86.9551 48.0723 87.0234 48.5664 87.0234 48.9453C87.2539 48.5586 87.5469 48.1133 87.9023 47.6094C88.0117 47.4531 88.1094 47.3164 88.1953 47.1992C87.9375 47.168 87.6875 47.0449 87.4453 46.8301C87.2812 46.6816 87.1992 46.4375 87.1992 46.0977C87.1992 45.9336 87.2246 45.7871 87.2754 45.6582C87.4746 45.166 87.8613 44.9199 88.4355 44.9199C88.8848 44.9199 89.207 45.0723 89.4023 45.377C89.5625 45.6348 89.6406 45.9062 89.6367 46.1914C89.6367 46.3867 89.5039 46.6992 89.2383 47.1289C89.0195 47.4531 88.6895 47.9336 88.248 48.5703C88.0801 48.8164 87.8398 49.1875 87.5273 49.6836C87.4492 49.8164 87.3867 49.9219 87.3398 50H85.998C85.998 49.9727 86 49.9297 86.0039 49.8711C86.0078 49.8086 86.0098 49.7598 86.0098 49.7246C86.0098 49.3184 85.9707 48.8613 85.8926 48.3535C85.791 47.9277 85.6484 47.2812 85.4648 46.4141C85.4219 46.207 85.3984 45.9727 85.3945 45.7109C85.3945 44.9102 85.6895 44.2852 86.2793 43.8359C86.834 43.4102 87.5449 43.1934 88.4121 43.1855C89.4043 43.1855 90.1426 43.3926 90.627 43.8066C91.0996 44.2051 91.3359 44.7754 91.3359 45.5176V50H90.2285ZM87.8906 46.1211C87.8906 46.2578 87.9434 46.377 88.0488 46.4785C88.1582 46.5801 88.2793 46.6309 88.4121 46.6309C88.5527 46.6309 88.6738 46.582 88.7754 46.4844C88.8809 46.3828 88.9336 46.2617 88.9336 46.1211C88.9336 45.9766 88.8828 45.8555 88.7812 45.7578C88.6836 45.6602 88.5605 45.6113 88.4121 45.6113C88.2715 45.6113 88.1484 45.6621 88.043 45.7637C87.9414 45.8613 87.8906 45.9805 87.8906 46.1211ZM90.2227 41.3691C90.1797 41.373 90.123 41.377 90.0527 41.3809C89.7637 41.3809 89.5488 41.2871 89.4082 41.0996C89.3184 40.9824 89.2715 40.832 89.2676 40.6484C89.2676 40.2695 89.4551 40.0215 89.8301 39.9043C89.9277 39.877 90.0254 39.8633 90.123 39.8633C90.4277 39.8633 90.6562 39.9785 90.8086 40.209C90.9453 40.4082 91.0117 40.6035 91.0078 40.7949C91.0078 40.8848 90.9961 40.9766 90.9727 41.0703C90.9102 41.2852 90.8086 41.4531 90.668 41.5742C91.0547 41.4805 91.3418 41.3184 91.5293 41.0879C91.7949 40.7715 91.9297 40.4375 91.9336 40.0859H92.7891C92.7891 40.6602 92.5039 41.1562 91.9336 41.5742C91.3359 42.0273 90.5723 42.2539 89.6426 42.2539V41.8613C89.7676 41.8613 89.9043 41.8047 90.0527 41.6914C90.166 41.5859 90.2227 41.4785 90.2227 41.3691ZM90.0527 40.2852C89.8184 40.2852 89.7012 40.4062 89.7012 40.6484C89.7324 40.8867 89.8633 41.0039 90.0938 41C90.3125 41 90.4219 40.875 90.4219 40.625C90.4219 40.3984 90.2988 40.2852 90.0527 40.2852ZM94.2656 43.3145V47.8203C94.3555 47.7969 94.4668 47.7812 94.5996 47.7734C94.9316 47.7734 95.207 47.8848 95.4258 48.1074C95.6445 48.3262 95.7539 48.5996 95.7539 48.9277C95.7539 49.2402 95.6562 49.502 95.4609 49.7129C95.2656 49.9238 95.0137 50.043 94.7051 50.0703C94.6191 50.0938 94.5312 50.1055 94.4414 50.1055C94.0781 50.1055 93.7656 49.9609 93.5039 49.6719C93.2734 49.4297 93.1602 49.1113 93.1641 48.7168V43.3145H94.2656ZM94.9746 49.291C95.0801 49.1934 95.1328 49.0723 95.1328 48.9277C95.1328 48.7832 95.0801 48.6621 94.9746 48.5645C94.8691 48.4629 94.7441 48.4121 94.5996 48.4121C94.4629 48.4121 94.3438 48.4629 94.2422 48.5645C94.1406 48.666 94.0898 48.7871 94.0898 48.9277C94.0898 49.0684 94.1387 49.1895 94.2363 49.291C94.3379 49.3887 94.459 49.4375 94.5996 49.4375C94.7441 49.4375 94.8691 49.3887 94.9746 49.291ZM101.273 49.9297C101.125 49.9766 100.953 50 100.758 50H97.0605V46.584C97.0605 46.3223 97.0898 46.123 97.1484 45.9863C97.1992 45.8691 97.2988 45.7344 97.4473 45.582C97.5566 45.457 97.6875 45.3652 97.8398 45.3066C98.0117 45.2402 98.1895 45.207 98.373 45.207C98.7988 45.207 99.125 45.334 99.3516 45.5879C99.5469 45.8066 99.6465 46.0723 99.6504 46.3848C99.6504 46.709 99.5371 46.9824 99.3105 47.2051C99.0879 47.4238 98.8164 47.5332 98.4961 47.5332C98.5273 47.5332 98.416 47.5176 98.1621 47.4863V49.1504H100.266C100.508 49.1504 100.697 49.0762 100.834 48.9277C100.936 48.8105 100.986 48.5586 100.986 48.1719V45.582C100.986 45.1016 100.9 44.7344 100.729 44.4805C100.471 44.1094 99.9883 43.9258 99.2812 43.9297C98.6406 43.9297 98.1289 44.0488 97.7461 44.2871C97.3398 44.5449 97.1152 44.793 97.0723 45.0312L96.457 44.5566C96.6523 44.1621 97.0078 43.832 97.5234 43.5664C98.0156 43.3125 98.6074 43.1855 99.2988 43.1855C100.678 43.1855 101.553 43.6074 101.924 44.4512C102.045 44.7363 102.105 45.0527 102.105 45.4004V48.7988C102.105 49.0059 102.062 49.1855 101.977 49.3379C101.801 49.6426 101.566 49.8398 101.273 49.9297ZM98.8535 46.0098C98.7598 45.9043 98.6406 45.8516 98.4961 45.8516C98.3516 45.8516 98.2305 45.9043 98.1328 46.0098C98.0352 46.1113 97.9863 46.2363 97.9863 46.3848C97.9863 46.5215 98.0352 46.6387 98.1328 46.7363C98.2344 46.8301 98.3555 46.877 98.4961 46.877C98.6328 46.877 98.75 46.8301 98.8477 46.7363C98.9492 46.6426 99 46.5254 99 46.3848C99 46.2402 98.9512 46.1152 98.8535 46.0098ZM108.047 50V45.5176C108.047 45.0449 107.945 44.6777 107.742 44.416C107.477 44.0918 107.002 43.9297 106.318 43.9297C106.061 43.9297 105.83 43.957 105.627 44.0117C105.455 44.0547 105.271 44.1309 105.076 44.2402C104.854 44.3652 104.693 44.4727 104.596 44.5625C104.479 44.6758 104.385 44.7676 104.314 44.8379L106.02 45.0957L105.943 45.6289C105.709 45.6289 105.533 45.6895 105.416 45.8105C105.205 45.9824 105.102 46.2266 105.105 46.543V50H104.004V46.543C104.004 46.2734 104.064 46.0586 104.186 45.8984C104.33 45.7148 104.477 45.6133 104.625 45.5938C104.68 45.5898 104.713 45.5645 104.725 45.5176L103.383 45.3652L103.453 44.6445C103.59 44.5898 103.754 44.457 103.945 44.2461C104.203 43.9648 104.527 43.7188 104.918 43.5078C105.312 43.293 105.779 43.1855 106.318 43.1855C106.967 43.1855 107.49 43.2715 107.889 43.4434C108.123 43.541 108.334 43.6797 108.521 43.8594C108.693 44.0195 108.838 44.2129 108.955 44.4395C109.041 44.6035 109.094 44.7578 109.113 44.9023C109.141 45.0742 109.156 45.2676 109.16 45.4824V50H108.047ZM115.893 43.9648C116.018 44.1016 116.121 44.2754 116.203 44.4863C116.32 44.7793 116.381 45.084 116.385 45.4004V50H115.266V49.3906C115.266 48.8125 115.08 48.1406 114.709 47.375C114.232 46.4102 113.713 45.9297 113.15 45.9336C112.779 45.9336 112.529 46.1367 112.4 46.543C112.338 46.7344 112.307 46.9746 112.307 47.2637C112.307 47.4316 112.318 47.6172 112.342 47.8203C112.486 47.7695 112.627 47.7402 112.764 47.7324C113.092 47.7324 113.367 47.8457 113.59 48.0723C113.816 48.2988 113.93 48.5762 113.93 48.9043C113.93 49.1504 113.848 49.3887 113.684 49.6191C113.512 49.8652 113.305 50.0039 113.062 50.0352C112.875 50.0586 112.748 50.0703 112.682 50.0703C112.275 50.0703 111.928 49.9238 111.639 49.6309C111.334 49.3262 111.184 48.7363 111.188 47.8613C111.188 46.9082 111.338 46.2344 111.639 45.8398C111.971 45.3984 112.414 45.1777 112.969 45.1777C113.281 45.1777 113.611 45.2598 113.959 45.4238C114.361 45.6152 114.738 46.0254 115.09 46.6543C115.133 46.7246 115.191 46.834 115.266 46.9824V45.582C115.266 45.0938 115.182 44.7266 115.014 44.4805C114.756 44.1094 114.271 43.9258 113.561 43.9297C112.92 43.9297 112.416 44.043 112.049 44.2695C111.682 44.4922 111.447 44.7461 111.346 45.0312L110.736 44.5566L111.135 44.0586C111.354 43.8477 111.572 43.6875 111.791 43.5781C112.01 43.4648 112.285 43.3672 112.617 43.2852C112.906 43.2188 113.23 43.1855 113.59 43.1855C114.23 43.1855 114.75 43.2734 115.148 43.4492C115.289 43.3516 115.396 43.2461 115.471 43.1328C115.58 42.9922 115.635 42.8047 115.635 42.5703L116.818 42.8809C116.818 43.2402 116.617 43.5469 116.215 43.8008C116.109 43.8672 116.002 43.9219 115.893 43.9648ZM113.268 48.9043C113.268 48.7637 113.219 48.6445 113.121 48.5469C113.027 48.4453 112.908 48.3945 112.764 48.3945C112.627 48.3945 112.51 48.4473 112.412 48.5527C112.318 48.6543 112.271 48.7715 112.271 48.9043C112.271 49.041 112.32 49.1621 112.418 49.2676C112.516 49.3691 112.631 49.4199 112.764 49.4199C112.904 49.4199 113.023 49.3691 113.121 49.2676C113.219 49.166 113.268 49.0449 113.268 48.9043ZM122.484 50H121.365V45.582C121.365 45.0547 121.293 44.6855 121.148 44.4746C120.902 44.1152 120.484 43.9336 119.895 43.9297C119.297 43.9297 118.824 44.0957 118.477 44.4277C118.246 44.6426 118.094 44.8984 118.02 45.1953L117.375 44.8027C117.52 44.3809 117.777 44.0195 118.148 43.7188C118.574 43.3672 119.172 43.1895 119.941 43.1855C120.703 43.1855 121.32 43.375 121.793 43.7539C122.25 44.125 122.48 44.6738 122.484 45.4004V50ZM125.748 45.5645C125.361 45.4941 124.979 45.4512 124.6 45.4355C124.428 45.4316 124.277 45.4277 124.148 45.4238C123.777 45.4238 123.576 45.4355 123.545 45.459C123.537 45.416 123.533 45.3691 123.533 45.3184C123.533 44.9004 123.668 44.4824 123.938 44.0645C124.285 43.5254 124.852 43.2559 125.637 43.2559C125.855 43.2559 126.16 43.3125 126.551 43.4258C126.945 43.5391 127.236 43.5957 127.424 43.5957C127.787 43.5957 128.037 43.4824 128.174 43.2559L128.988 43.6777C128.945 43.7949 128.857 43.9199 128.725 44.0527C128.529 44.2363 128.309 44.3418 128.062 44.3691C127.922 44.3848 127.826 44.3906 127.775 44.3867C127.529 44.3867 127.186 44.3164 126.744 44.1758C126.346 44.0547 126.045 43.9941 125.842 43.9941C125.463 43.9941 125.168 44.0898 124.957 44.2812C124.82 44.3984 124.709 44.5664 124.623 44.7852C124.986 44.7852 125.416 44.8242 125.912 44.9023C126.486 44.9922 126.951 45.1172 127.307 45.2773C127.662 45.4375 127.902 45.6348 128.027 45.8691C128.137 46.0566 128.191 46.25 128.191 46.4492V48.7168C128.191 49.1035 128.064 49.4355 127.811 49.7129C127.572 49.9707 127.264 50.0996 126.885 50.0996C126.459 50.0996 126.127 49.9668 125.889 49.7012C125.693 49.4902 125.596 49.2324 125.596 48.9277C125.596 48.5957 125.703 48.3203 125.918 48.1016C126.137 47.8828 126.412 47.7734 126.744 47.7734C126.889 47.7734 126.996 47.7891 127.066 47.8203V46.543C127.066 46.3438 127.016 46.1777 126.914 46.0449C126.758 45.8379 126.369 45.6777 125.748 45.5645ZM126.744 49.4375C126.885 49.4375 127.004 49.3887 127.102 49.291C127.199 49.1895 127.248 49.0684 127.248 48.9277C127.248 48.7871 127.197 48.666 127.096 48.5645C126.998 48.4629 126.881 48.4121 126.744 48.4121C126.6 48.4121 126.477 48.4629 126.375 48.5645C126.273 48.6621 126.223 48.7832 126.223 48.9277C126.223 49.0723 126.273 49.1934 126.375 49.291C126.477 49.3887 126.6 49.4375 126.744 49.4375ZM131.719 50H130.395C130.395 49.9727 130.396 49.9297 130.4 49.8711C130.404 49.8086 130.406 49.7598 130.406 49.7246C130.406 49.3418 130.363 48.8848 130.277 48.3535C130.176 47.9473 130.029 47.3301 129.838 46.502C129.795 46.291 129.771 46.0469 129.768 45.7695C129.768 44.9609 130.061 44.3164 130.646 43.8359C131.17 43.4062 131.889 43.1895 132.803 43.1855C133.779 43.1855 134.518 43.3926 135.018 43.8066C135.498 44.2051 135.736 44.7754 135.732 45.5176V50H134.607V45.459C134.607 45.002 134.469 44.6387 134.191 44.3691C133.887 44.0801 133.418 43.9336 132.785 43.9297C132.258 43.9297 131.818 44.084 131.467 44.3926C131.119 44.6973 130.945 45.1523 130.945 45.7578C130.945 46.043 130.965 46.2734 131.004 46.4492C131.031 46.5703 131.068 46.7559 131.115 47.0059C131.139 47.1426 131.162 47.3203 131.186 47.5391C131.189 47.6484 131.195 47.7324 131.203 47.791C131.203 47.5996 131.242 47.332 131.32 46.9883C131.363 46.7812 131.438 46.5098 131.543 46.1738C131.637 45.8223 131.758 45.543 131.906 45.3359C132.078 45.0898 132.348 44.9648 132.715 44.9609C133.332 44.9609 133.738 45.1797 133.934 45.6172C134.008 45.7891 134.047 45.9531 134.051 46.1094C134.051 46.4453 133.957 46.7129 133.77 46.9121C133.523 47.1777 133.209 47.3105 132.826 47.3105C132.615 47.3105 132.414 47.2461 132.223 47.1172C131.988 47.6875 131.84 48.4141 131.777 49.2969L131.719 50ZM132.844 45.6289C132.504 45.6289 132.336 45.8008 132.34 46.1445C132.34 46.2812 132.389 46.3984 132.486 46.4961C132.584 46.5938 132.703 46.6426 132.844 46.6426C132.977 46.6426 133.094 46.5918 133.195 46.4902C133.297 46.3887 133.348 46.2734 133.348 46.1445C133.348 46 133.299 45.8789 133.201 45.7812C133.104 45.6797 132.984 45.6289 132.844 45.6289ZM139.119 45.5645C138.732 45.4941 138.35 45.4512 137.971 45.4355C137.799 45.4316 137.648 45.4277 137.52 45.4238C137.148 45.4238 136.947 45.4355 136.916 45.459C136.908 45.416 136.904 45.3691 136.904 45.3184C136.904 44.9004 137.039 44.4824 137.309 44.0645C137.656 43.5254 138.223 43.2559 139.008 43.2559C139.227 43.2559 139.531 43.3125 139.922 43.4258C140.316 43.5391 140.607 43.5957 140.795 43.5957C141.158 43.5957 141.408 43.4824 141.545 43.2559L142.359 43.6777C142.316 43.7949 142.229 43.9199 142.096 44.0527C141.9 44.2363 141.68 44.3418 141.434 44.3691C141.293 44.3848 141.197 44.3906 141.146 44.3867C140.9 44.3867 140.557 44.3164 140.115 44.1758C139.717 44.0547 139.416 43.9941 139.213 43.9941C138.834 43.9941 138.539 44.0898 138.328 44.2812C138.191 44.3984 138.08 44.5664 137.994 44.7852C138.357 44.7852 138.787 44.8242 139.283 44.9023C139.857 44.9922 140.322 45.1172 140.678 45.2773C141.033 45.4375 141.273 45.6348 141.398 45.8691C141.508 46.0566 141.562 46.25 141.562 46.4492V48.7168C141.562 49.1035 141.436 49.4355 141.182 49.7129C140.943 49.9707 140.635 50.0996 140.256 50.0996C139.83 50.0996 139.498 49.9668 139.26 49.7012C139.064 49.4902 138.967 49.2324 138.967 48.9277C138.967 48.5957 139.074 48.3203 139.289 48.1016C139.508 47.8828 139.783 47.7734 140.115 47.7734C140.26 47.7734 140.367 47.7891 140.438 47.8203V46.543C140.438 46.3438 140.387 46.1777 140.285 46.0449C140.129 45.8379 139.74 45.6777 139.119 45.5645ZM140.115 49.4375C140.256 49.4375 140.375 49.3887 140.473 49.291C140.57 49.1895 140.619 49.0684 140.619 48.9277C140.619 48.7871 140.568 48.666 140.467 48.5645C140.369 48.4629 140.252 48.4121 140.115 48.4121C139.971 48.4121 139.848 48.4629 139.746 48.5645C139.645 48.6621 139.594 48.7832 139.594 48.9277C139.594 49.0723 139.645 49.1934 139.746 49.291C139.848 49.3887 139.971 49.4375 140.115 49.4375ZM144.943 43.5957C145.209 43.8809 145.342 44.2168 145.342 44.6035V49.1504H147.633C147.789 49.1504 147.922 49.0938 148.031 48.9805C148.102 48.9102 148.137 48.7773 148.137 48.582V43.3145H149.273V48.7168C149.273 49.0918 149.193 49.3867 149.033 49.6016C148.834 49.8672 148.504 50 148.043 50H143.631V49.1504H144.234V45.5117C144.098 45.5312 143.982 45.541 143.889 45.541C143.564 45.541 143.287 45.4316 143.057 45.2129C142.83 44.9941 142.717 44.7246 142.717 44.4043C142.717 44.1504 142.799 43.9082 142.963 43.6777C143.146 43.4316 143.359 43.291 143.602 43.2559C143.793 43.2324 143.928 43.2246 144.006 43.2324C144.412 43.2285 144.725 43.3496 144.943 43.5957ZM143.385 44.4043C143.385 44.541 143.436 44.6602 143.537 44.7617C143.639 44.8594 143.756 44.9082 143.889 44.9082C144.025 44.9082 144.145 44.8574 144.246 44.7559C144.348 44.6543 144.398 44.5371 144.398 44.4043C144.398 44.2598 144.348 44.1367 144.246 44.0352C144.148 43.9336 144.029 43.8828 143.889 43.8828C143.744 43.8828 143.623 43.9336 143.525 44.0352C143.432 44.1367 143.385 44.2598 143.385 44.4043ZM155.602 43.3145V47.8203C155.691 47.7969 155.803 47.7812 155.936 47.7734C156.268 47.7734 156.543 47.8848 156.762 48.1074C156.98 48.3262 157.09 48.5996 157.09 48.9277C157.09 49.2402 156.992 49.502 156.797 49.7129C156.602 49.9238 156.35 50.043 156.041 50.0703C155.955 50.0938 155.867 50.1055 155.777 50.1055C155.414 50.1055 155.102 49.9609 154.84 49.6719C154.609 49.4297 154.496 49.1113 154.5 48.7168V43.3145H155.602ZM156.311 49.291C156.416 49.1934 156.469 49.0723 156.469 48.9277C156.469 48.7832 156.416 48.6621 156.311 48.5645C156.205 48.4629 156.08 48.4121 155.936 48.4121C155.799 48.4121 155.68 48.4629 155.578 48.5645C155.477 48.666 155.426 48.7871 155.426 48.9277C155.426 49.0684 155.475 49.1895 155.572 49.291C155.674 49.3887 155.795 49.4375 155.936 49.4375C156.08 49.4375 156.205 49.3887 156.311 49.291ZM163.342 50L161.807 45.1543L160.266 50H159.135V45.5117C158.975 45.5312 158.857 45.541 158.783 45.541C158.467 45.541 158.195 45.4297 157.969 45.207C157.742 44.9844 157.629 44.7168 157.629 44.4043C157.629 44.1504 157.709 43.9082 157.869 43.6777C158.041 43.4316 158.252 43.291 158.502 43.2559C158.689 43.2324 158.82 43.2246 158.895 43.2324C159.324 43.2324 159.662 43.3672 159.908 43.6367C160.139 43.8945 160.254 44.2168 160.254 44.6035V46.877L160.172 47.6094L161.543 43.3145H162.094L163.459 47.6094L163.389 46.877V43.3145H164.508V50H163.342ZM158.432 44.041C158.338 44.1465 158.291 44.2676 158.291 44.4043C158.291 44.541 158.338 44.6602 158.432 44.7617C158.529 44.8594 158.646 44.9082 158.783 44.9082C158.92 44.9082 159.037 44.8574 159.135 44.7559C159.232 44.6543 159.281 44.5371 159.281 44.4043C159.281 44.2598 159.232 44.1367 159.135 44.0352C159.041 43.9336 158.924 43.8828 158.783 43.8828C158.643 43.8828 158.525 43.9355 158.432 44.041ZM164.549 42.2598L163.904 42.1367C163.268 42.0195 162.527 41.9609 161.684 41.9609C160.812 41.9609 159.943 42.0371 159.076 42.1895C159.166 41.5098 159.492 40.9492 160.055 40.5078C160.441 40.2031 160.984 40.0508 161.684 40.0508C162.316 40.0508 162.826 40.1973 163.213 40.4902L163.389 40.6484V39.623H164.49V42.1191L164.549 42.2598ZM161.613 40.6074C161.262 40.6074 160.988 40.6719 160.793 40.8008C160.598 40.9258 160.439 41.1484 160.318 41.4688C160.896 41.4414 161.4 41.4277 161.83 41.4277C162.307 41.4277 162.826 41.4805 163.389 41.5859C163.334 41.5078 163.275 41.4277 163.213 41.3457C162.807 40.8535 162.273 40.6074 161.613 40.6074ZM170.203 49.1504C170.359 49.1504 170.48 49.0938 170.566 48.9805C170.641 48.8828 170.678 48.75 170.678 48.582V43.3145H171.803V48.7578C171.803 49.0938 171.713 49.377 171.533 49.6074C171.334 49.8691 170.99 50 170.502 50H166.33V49.1504H166.775V48.0195C166.775 47.6016 166.865 47.2695 167.045 47.0234C167.256 46.7383 167.514 46.5703 167.818 46.5195C167.361 46.5195 166.988 46.3828 166.699 46.1094C166.414 45.8359 166.271 45.4727 166.271 45.0195C166.271 44.4453 166.486 43.9883 166.916 43.6484C167.311 43.3477 167.807 43.1992 168.404 43.2031C168.803 43.2031 169.123 43.3027 169.365 43.502C169.627 43.7207 169.758 44.0254 169.758 44.416C169.758 44.8418 169.605 45.1523 169.301 45.3477C169.102 45.4727 168.879 45.5332 168.633 45.5293C168.086 45.5293 167.738 45.332 167.59 44.9375C167.539 44.8047 167.516 44.6738 167.52 44.5449C167.52 44.4238 167.529 44.3359 167.549 44.2812C167.451 44.2969 167.363 44.3789 167.285 44.5273C167.219 44.6641 167.186 44.7891 167.186 44.9023C167.186 45.5625 167.574 45.9434 168.352 46.0449C168.609 46.084 168.861 46.1016 169.107 46.0977H169.6V46.8652H169.078C168.719 46.8652 168.447 46.9453 168.264 47.1055C168.033 47.3164 167.92 47.6074 167.924 47.9785V49.1504H170.203ZM168.1 44.416C168.1 44.5566 168.15 44.6777 168.252 44.7793C168.357 44.877 168.479 44.9258 168.615 44.9258C168.752 44.9258 168.873 44.875 168.979 44.7734C169.084 44.6719 169.137 44.5527 169.137 44.416C169.137 44.0801 168.963 43.9121 168.615 43.9121C168.475 43.9121 168.354 43.9609 168.252 44.0586C168.15 44.1562 168.1 44.2754 168.1 44.416ZM176.285 45.5117C176.094 45.5312 175.984 45.541 175.957 45.541C175.633 45.541 175.355 45.4316 175.125 45.2129C174.898 44.9941 174.785 44.7246 174.785 44.4043C174.785 44.1504 174.869 43.9082 175.037 43.6777C175.209 43.4316 175.418 43.291 175.664 43.2559C175.855 43.2324 175.99 43.2246 176.068 43.2324C176.486 43.2324 176.814 43.3672 177.053 43.6367C177.283 43.8984 177.396 44.2207 177.393 44.6035V50H175.969C175.93 49.9258 175.863 49.8027 175.77 49.6309C175.738 49.5762 175.613 49.3906 175.395 49.0742C175.316 48.9492 175.188 48.752 175.008 48.4824C174.77 48.1465 174.479 47.7969 174.135 47.4336C174.037 47.3359 173.896 47.1973 173.713 47.0176L173.689 47C173.42 46.7383 173.238 46.5801 173.145 46.5254C173.027 46.4551 172.945 46.4082 172.898 46.3848L173.215 45.8867C173.371 45.8867 173.816 46.2129 174.551 46.8652C174.816 47.1035 175.092 47.3633 175.377 47.6445C175.537 47.8164 175.744 48.0723 175.998 48.4121L176.285 48.7988V45.5117ZM175.588 44.0352C175.486 44.1367 175.436 44.2598 175.436 44.4043C175.436 44.5488 175.486 44.6699 175.588 44.7676C175.693 44.8613 175.816 44.9082 175.957 44.9082C176.09 44.9082 176.207 44.8574 176.309 44.7559C176.41 44.6504 176.461 44.5332 176.461 44.4043C176.461 44.2676 176.41 44.1465 176.309 44.041C176.211 43.9355 176.094 43.8828 175.957 43.8828C175.812 43.8828 175.689 43.9336 175.588 44.0352ZM180.434 43.3145V47.8203C180.523 47.7969 180.635 47.7812 180.768 47.7734C181.1 47.7734 181.375 47.8848 181.594 48.1074C181.812 48.3262 181.922 48.5996 181.922 48.9277C181.922 49.2402 181.824 49.502 181.629 49.7129C181.434 49.9238 181.182 50.043 180.873 50.0703C180.787 50.0938 180.699 50.1055 180.609 50.1055C180.246 50.1055 179.934 49.9609 179.672 49.6719C179.441 49.4297 179.328 49.1113 179.332 48.7168V43.3145H180.434ZM183.527 43.3145V47.8203C183.629 47.7969 183.748 47.7812 183.885 47.7734C184.209 47.7734 184.48 47.8848 184.699 48.1074C184.922 48.3301 185.033 48.6035 185.033 48.9277C185.033 49.2324 184.936 49.4922 184.74 49.707C184.545 49.9219 184.295 50.043 183.99 50.0703C183.904 50.0938 183.82 50.1055 183.738 50.1055C183.352 50.1055 183.039 49.9746 182.801 49.7129C182.547 49.4355 182.42 49.1035 182.42 48.7168V43.3145H183.527ZM184.377 48.9277C184.377 48.7871 184.33 48.666 184.236 48.5645C184.143 48.4629 184.025 48.4121 183.885 48.4121C183.744 48.4121 183.619 48.4629 183.51 48.5645C183.404 48.6621 183.352 48.7832 183.352 48.9277C183.352 49.0762 183.402 49.1992 183.504 49.2969C183.609 49.3906 183.736 49.4375 183.885 49.4375C184.025 49.4375 184.143 49.3867 184.236 49.2852C184.33 49.1836 184.377 49.0645 184.377 48.9277ZM181.143 49.291C181.248 49.1934 181.301 49.0723 181.301 48.9277C181.301 48.7832 181.248 48.6621 181.143 48.5645C181.037 48.4629 180.912 48.4121 180.768 48.4121C180.631 48.4121 180.512 48.4629 180.41 48.5645C180.309 48.666 180.258 48.7871 180.258 48.9277C180.258 49.0684 180.307 49.1895 180.404 49.291C180.506 49.3887 180.627 49.4375 180.768 49.4375C180.912 49.4375 181.037 49.3887 181.143 49.291ZM188.051 50H186.727C186.727 49.9727 186.729 49.9297 186.732 49.8711C186.736 49.8086 186.738 49.7598 186.738 49.7246C186.738 49.3418 186.695 48.8848 186.609 48.3535C186.508 47.9473 186.361 47.3301 186.17 46.502C186.127 46.291 186.104 46.0469 186.1 45.7695C186.1 44.9609 186.393 44.3164 186.979 43.8359C187.502 43.4062 188.221 43.1895 189.135 43.1855C190.111 43.1855 190.85 43.3926 191.35 43.8066C191.83 44.2051 192.068 44.7754 192.064 45.5176V50H190.939V45.459C190.939 45.002 190.801 44.6387 190.523 44.3691C190.219 44.0801 189.75 43.9336 189.117 43.9297C188.59 43.9297 188.15 44.084 187.799 44.3926C187.451 44.6973 187.277 45.1523 187.277 45.7578C187.277 46.043 187.297 46.2734 187.336 46.4492C187.363 46.5703 187.4 46.7559 187.447 47.0059C187.471 47.1426 187.494 47.3203 187.518 47.5391C187.521 47.6484 187.527 47.7324 187.535 47.791C187.535 47.5996 187.574 47.332 187.652 46.9883C187.695 46.7812 187.77 46.5098 187.875 46.1738C187.969 45.8223 188.09 45.543 188.238 45.3359C188.41 45.0898 188.68 44.9648 189.047 44.9609C189.664 44.9609 190.07 45.1797 190.266 45.6172C190.34 45.7891 190.379 45.9531 190.383 46.1094C190.383 46.4453 190.289 46.7129 190.102 46.9121C189.855 47.1777 189.541 47.3105 189.158 47.3105C188.947 47.3105 188.746 47.2461 188.555 47.1172C188.32 47.6875 188.172 48.4141 188.109 49.2969L188.051 50ZM189.176 45.6289C188.836 45.6289 188.668 45.8008 188.672 46.1445C188.672 46.2812 188.721 46.3984 188.818 46.4961C188.916 46.5938 189.035 46.6426 189.176 46.6426C189.309 46.6426 189.426 46.5918 189.527 46.4902C189.629 46.3887 189.68 46.2734 189.68 46.1445C189.68 46 189.631 45.8789 189.533 45.7812C189.436 45.6797 189.316 45.6289 189.176 45.6289ZM191.01 39.8984H192.111V41.8496H191.01V39.8984ZM198.129 50V45.5176C198.129 45.0449 198.027 44.6777 197.824 44.416C197.559 44.0918 197.084 43.9297 196.4 43.9297C196.143 43.9297 195.912 43.957 195.709 44.0117C195.537 44.0547 195.354 44.1309 195.158 44.2402C194.936 44.3652 194.775 44.4727 194.678 44.5625C194.561 44.6758 194.467 44.7676 194.396 44.8379L196.102 45.0957L196.025 45.6289C195.791 45.6289 195.615 45.6895 195.498 45.8105C195.287 45.9824 195.184 46.2266 195.188 46.543V50H194.086V46.543C194.086 46.2734 194.146 46.0586 194.268 45.8984C194.412 45.7148 194.559 45.6133 194.707 45.5938C194.762 45.5898 194.795 45.5645 194.807 45.5176L193.465 45.3652L193.535 44.6445C193.672 44.5898 193.836 44.457 194.027 44.2461C194.285 43.9648 194.609 43.7188 195 43.5078C195.395 43.293 195.861 43.1855 196.4 43.1855C197.049 43.1855 197.572 43.2715 197.971 43.4434C198.205 43.541 198.416 43.6797 198.604 43.8594C198.775 44.0195 198.92 44.2129 199.037 44.4395C199.123 44.6035 199.176 44.7578 199.195 44.9023C199.223 45.0742 199.238 45.2676 199.242 45.4824V50H198.129ZM202.635 45.5645C202.248 45.4941 201.865 45.4512 201.486 45.4355C201.314 45.4316 201.164 45.4277 201.035 45.4238C200.664 45.4238 200.463 45.4355 200.432 45.459C200.424 45.416 200.42 45.3691 200.42 45.3184C200.42 44.9004 200.555 44.4824 200.824 44.0645C201.172 43.5254 201.738 43.2559 202.523 43.2559C202.742 43.2559 203.047 43.3125 203.438 43.4258C203.832 43.5391 204.123 43.5957 204.311 43.5957C204.674 43.5957 204.924 43.4824 205.061 43.2559L205.875 43.6777C205.832 43.7949 205.744 43.9199 205.611 44.0527C205.416 44.2363 205.195 44.3418 204.949 44.3691C204.809 44.3848 204.713 44.3906 204.662 44.3867C204.416 44.3867 204.072 44.3164 203.631 44.1758C203.232 44.0547 202.932 43.9941 202.729 43.9941C202.35 43.9941 202.055 44.0898 201.844 44.2812C201.707 44.3984 201.596 44.5664 201.51 44.7852C201.873 44.7852 202.303 44.8242 202.799 44.9023C203.373 44.9922 203.838 45.1172 204.193 45.2773C204.549 45.4375 204.789 45.6348 204.914 45.8691C205.023 46.0566 205.078 46.25 205.078 46.4492V48.7168C205.078 49.1035 204.951 49.4355 204.697 49.7129C204.459 49.9707 204.15 50.0996 203.771 50.0996C203.346 50.0996 203.014 49.9668 202.775 49.7012C202.58 49.4902 202.482 49.2324 202.482 48.9277C202.482 48.5957 202.59 48.3203 202.805 48.1016C203.023 47.8828 203.299 47.7734 203.631 47.7734C203.775 47.7734 203.883 47.7891 203.953 47.8203V46.543C203.953 46.3438 203.902 46.1777 203.801 46.0449C203.645 45.8379 203.256 45.6777 202.635 45.5645ZM203.631 49.4375C203.771 49.4375 203.891 49.3887 203.988 49.291C204.086 49.1895 204.135 49.0684 204.135 48.9277C204.135 48.7871 204.084 48.666 203.982 48.5645C203.885 48.4629 203.768 48.4121 203.631 48.4121C203.486 48.4121 203.363 48.4629 203.262 48.5645C203.16 48.6621 203.109 48.7832 203.109 48.9277C203.109 49.0723 203.16 49.1934 203.262 49.291C203.363 49.3887 203.486 49.4375 203.631 49.4375ZM211.172 49.9297C211.023 49.9766 210.852 50 210.656 50H206.959V46.584C206.959 46.3223 206.988 46.123 207.047 45.9863C207.098 45.8691 207.197 45.7344 207.346 45.582C207.455 45.457 207.586 45.3652 207.738 45.3066C207.91 45.2402 208.088 45.207 208.271 45.207C208.697 45.207 209.023 45.334 209.25 45.5879C209.445 45.8066 209.545 46.0723 209.549 46.3848C209.549 46.709 209.436 46.9824 209.209 47.2051C208.986 47.4238 208.715 47.5332 208.395 47.5332C208.426 47.5332 208.314 47.5176 208.061 47.4863V49.1504H210.164C210.406 49.1504 210.596 49.0762 210.732 48.9277C210.834 48.8105 210.885 48.5586 210.885 48.1719V45.582C210.885 45.1016 210.799 44.7344 210.627 44.4805C210.369 44.1094 209.887 43.9258 209.18 43.9297C208.539 43.9297 208.027 44.0488 207.645 44.2871C207.238 44.5449 207.014 44.793 206.971 45.0312L206.355 44.5566C206.551 44.1621 206.906 43.832 207.422 43.5664C207.914 43.3125 208.506 43.1855 209.197 43.1855C210.576 43.1855 211.451 43.6074 211.822 44.4512C211.943 44.7363 212.004 45.0527 212.004 45.4004V48.7988C212.004 49.0059 211.961 49.1855 211.875 49.3379C211.699 49.6426 211.465 49.8398 211.172 49.9297ZM208.752 46.0098C208.658 45.9043 208.539 45.8516 208.395 45.8516C208.25 45.8516 208.129 45.9043 208.031 46.0098C207.934 46.1113 207.885 46.2363 207.885 46.3848C207.885 46.5215 207.934 46.6387 208.031 46.7363C208.133 46.8301 208.254 46.877 208.395 46.877C208.531 46.877 208.648 46.8301 208.746 46.7363C208.848 46.6426 208.898 46.5254 208.898 46.3848C208.898 46.2402 208.85 46.1152 208.752 46.0098ZM217.945 50V45.5176C217.945 45.0449 217.844 44.6777 217.641 44.416C217.375 44.0918 216.9 43.9297 216.217 43.9297C215.959 43.9297 215.729 43.957 215.525 44.0117C215.354 44.0547 215.17 44.1309 214.975 44.2402C214.752 44.3652 214.592 44.4727 214.494 44.5625C214.377 44.6758 214.283 44.7676 214.213 44.8379L215.918 45.0957L215.842 45.6289C215.607 45.6289 215.432 45.6895 215.314 45.8105C215.104 45.9824 215 46.2266 215.004 46.543V50H213.902V46.543C213.902 46.2734 213.963 46.0586 214.084 45.8984C214.229 45.7148 214.375 45.6133 214.523 45.5938C214.578 45.5898 214.611 45.5645 214.623 45.5176L213.281 45.3652L213.352 44.6445C213.488 44.5898 213.652 44.457 213.844 44.2461C214.102 43.9648 214.426 43.7188 214.816 43.5078C215.211 43.293 215.678 43.1855 216.217 43.1855C216.865 43.1855 217.389 43.2715 217.787 43.4434C218.021 43.541 218.232 43.6797 218.42 43.8594C218.592 44.0195 218.736 44.2129 218.854 44.4395C218.939 44.6035 218.992 44.7578 219.012 44.9023C219.039 45.0742 219.055 45.2676 219.059 45.4824V50H217.945ZM225.973 43.3145V48.7168C225.973 49.0645 225.891 49.3516 225.727 49.5781C225.449 49.8594 225.084 50 224.631 50H221.244V49.168H221.93V47.8613C221.93 47.5293 222.131 47.1152 222.533 46.6191C222.865 46.2129 223.088 45.8711 223.201 45.5938C223.279 45.3867 223.32 45.1641 223.324 44.9258C223.324 44.6602 223.244 44.4297 223.084 44.2344C222.912 44.0195 222.697 43.9121 222.439 43.9121H222.352C222.324 43.9121 222.297 43.9102 222.27 43.9062C221.891 43.9062 221.666 43.998 221.596 44.1816C221.947 44.1816 222.199 44.3047 222.352 44.5508C222.512 44.8086 222.592 45.041 222.592 45.248C222.592 45.4434 222.535 45.6387 222.422 45.834C222.305 46.0449 222.16 46.1777 221.988 46.2324C221.77 46.3105 221.584 46.3535 221.432 46.3613C221.193 46.3613 220.959 46.2773 220.729 46.1094C220.49 45.9258 220.354 45.7168 220.318 45.4824C220.287 45.3066 220.273 45.1758 220.277 45.0898C220.277 44.5273 220.479 44.0664 220.881 43.707C221.232 43.3906 221.746 43.2324 222.422 43.2324C222.922 43.2324 223.344 43.3672 223.688 43.6367C224.113 43.9727 224.328 44.4102 224.332 44.9492C224.332 45.5703 224.096 46.1836 223.623 46.7891C223.381 47.1016 223.246 47.2812 223.219 47.3281C223.098 47.5273 223.035 47.7422 223.031 47.9727V49.168H224.391C224.508 49.168 224.629 49.1035 224.754 48.9746C224.805 48.877 224.832 48.7363 224.836 48.5527V43.3145H225.973ZM220.986 45.2773C220.986 45.4102 221.029 45.5254 221.115 45.623C221.205 45.7207 221.316 45.7695 221.449 45.7695C221.777 45.7695 221.941 45.6055 221.941 45.2773C221.941 44.9492 221.777 44.7852 221.449 44.7852C221.324 44.7852 221.215 44.8359 221.121 44.9375C221.031 45.0391 220.986 45.1523 220.986 45.2773ZM224.836 41.3691C224.793 41.373 224.736 41.377 224.666 41.3809C224.377 41.3809 224.162 41.2871 224.021 41.0996C223.932 40.9824 223.885 40.832 223.881 40.6484C223.881 40.2695 224.068 40.0215 224.443 39.9043C224.541 39.877 224.639 39.8633 224.736 39.8633C225.041 39.8633 225.27 39.9785 225.422 40.209C225.559 40.4082 225.625 40.6035 225.621 40.7949C225.621 40.8848 225.609 40.9766 225.586 41.0703C225.523 41.2852 225.422 41.4531 225.281 41.5742C225.668 41.4805 225.955 41.3184 226.143 41.0879C226.408 40.7715 226.543 40.4375 226.547 40.0859H227.402C227.402 40.6602 227.117 41.1562 226.547 41.5742C225.949 42.0273 225.186 42.2539 224.256 42.2539V41.8613C224.381 41.8613 224.518 41.8047 224.666 41.6914C224.779 41.5859 224.836 41.4785 224.836 41.3691ZM224.666 40.2852C224.432 40.2852 224.314 40.4062 224.314 40.6484C224.346 40.8867 224.477 41.0039 224.707 41C224.926 41 225.035 40.875 225.035 40.625C225.035 40.3984 224.912 40.2852 224.666 40.2852ZM232.113 49.9297C231.965 49.9766 231.793 50 231.598 50H227.9V46.584C227.9 46.3223 227.93 46.123 227.988 45.9863C228.039 45.8691 228.139 45.7344 228.287 45.582C228.396 45.457 228.527 45.3652 228.68 45.3066C228.852 45.2402 229.029 45.207 229.213 45.207C229.639 45.207 229.965 45.334 230.191 45.5879C230.387 45.8066 230.486 46.0723 230.49 46.3848C230.49 46.709 230.377 46.9824 230.15 47.2051C229.928 47.4238 229.656 47.5332 229.336 47.5332C229.367 47.5332 229.256 47.5176 229.002 47.4863V49.1504H231.105C231.348 49.1504 231.537 49.0762 231.674 48.9277C231.775 48.8105 231.826 48.5586 231.826 48.1719V45.582C231.826 45.1016 231.74 44.7344 231.568 44.4805C231.311 44.1094 230.828 43.9258 230.121 43.9297C229.48 43.9297 228.969 44.0488 228.586 44.2871C228.18 44.5449 227.955 44.793 227.912 45.0312L227.297 44.5566C227.492 44.1621 227.848 43.832 228.363 43.5664C228.855 43.3125 229.447 43.1855 230.139 43.1855C231.518 43.1855 232.393 43.6074 232.764 44.4512C232.885 44.7363 232.945 45.0527 232.945 45.4004V48.7988C232.945 49.0059 232.902 49.1855 232.816 49.3379C232.641 49.6426 232.406 49.8398 232.113 49.9297ZM229.693 46.0098C229.6 45.9043 229.48 45.8516 229.336 45.8516C229.191 45.8516 229.07 45.9043 228.973 46.0098C228.875 46.1113 228.826 46.2363 228.826 46.3848C228.826 46.5215 228.875 46.6387 228.973 46.7363C229.074 46.8301 229.195 46.877 229.336 46.877C229.473 46.877 229.59 46.8301 229.688 46.7363C229.789 46.6426 229.84 46.5254 229.84 46.3848C229.84 46.2402 229.791 46.1152 229.693 46.0098ZM239.268 43.3145H240.369V48.7285C240.369 49.2285 240.287 49.5566 240.123 49.7129C239.947 49.9434 239.697 50.0547 239.373 50.0469C239.248 50.0469 239.121 49.9629 238.992 49.7949C238.844 49.5645 238.693 49.3359 238.541 49.1094C238.365 48.8438 238.191 48.6348 238.02 48.4824C237.637 48.1426 237.25 47.9492 236.859 47.9023V49.0977C236.859 49.5156 236.713 49.8008 236.42 49.9531C236.221 50.0547 235.969 50.1055 235.664 50.1055C235.488 50.1055 235.346 50.0859 235.236 50.0469C234.854 49.9375 234.574 49.6895 234.398 49.3027C234.309 49.1074 234.262 48.8848 234.258 48.6348C234.258 47.9668 234.494 47.502 234.967 47.2402C235.256 47.0801 235.514 47.002 235.74 47.0059V45.5117L235.564 45.5293C235.514 45.5332 235.457 45.5371 235.395 45.541C235.078 45.541 234.809 45.4316 234.586 45.2129C234.363 44.9941 234.252 44.7246 234.252 44.4043C234.252 44.1504 234.334 43.9082 234.498 43.6777C234.674 43.4316 234.885 43.291 235.131 43.2559C235.322 43.2324 235.453 43.2246 235.523 43.2324C235.945 43.2324 236.277 43.3672 236.52 43.6367C236.75 43.8945 236.863 44.2168 236.859 44.6035V47.1055C237.242 47.125 237.656 47.2852 238.102 47.5859C238.133 47.6094 238.318 47.7754 238.658 48.084C238.971 48.373 239.133 48.5156 239.145 48.5117C239.223 48.4883 239.264 48.3828 239.268 48.1953V43.3145ZM234.891 44.4043C234.891 44.5371 234.941 44.6543 235.043 44.7559C235.148 44.8574 235.266 44.9082 235.395 44.9082C235.535 44.9082 235.658 44.8574 235.764 44.7559C235.873 44.6543 235.928 44.5371 235.928 44.4043C235.928 44.2598 235.875 44.1367 235.77 44.0352C235.668 43.9336 235.543 43.8828 235.395 43.8828C235.258 43.8828 235.139 43.9355 235.037 44.041C234.939 44.1465 234.891 44.2676 234.891 44.4043ZM235.072 48.4707C235.068 48.4941 235.068 48.5195 235.072 48.5469V48.623C235.072 48.834 235.098 48.9922 235.148 49.0977C235.227 49.2617 235.328 49.3398 235.453 49.332C235.645 49.332 235.74 49.2324 235.74 49.0332V47.8438C235.713 47.8281 235.676 47.8223 235.629 47.8262C235.52 47.8262 235.416 47.8633 235.318 47.9375C235.154 48.125 235.072 48.3027 235.072 48.4707ZM237.486 50.9551C237.205 50.9551 237.045 51.0859 237.006 51.3477C237.006 51.6992 237.166 51.875 237.486 51.875C237.791 51.875 237.945 51.7207 237.949 51.4121C237.949 51.3848 237.947 51.3633 237.943 51.3477C237.943 51.0859 237.791 50.9551 237.486 50.9551ZM237.609 53.1172V52.25C237.547 52.2695 237.48 52.2793 237.41 52.2793C237.156 52.2793 236.912 52.1738 236.678 51.9629C236.541 51.8418 236.473 51.6582 236.473 51.4121C236.473 51.1738 236.561 50.9629 236.736 50.7793C236.928 50.584 237.182 50.4863 237.498 50.4863C238.025 50.4863 238.363 50.6777 238.512 51.0605C238.566 51.2168 238.594 51.4277 238.594 51.6934V52.4668H239.391V50.6035H240.369V53.1172H237.609ZM243.404 47.8203C243.549 47.7695 243.697 47.7402 243.85 47.7324C244.178 47.7324 244.451 47.8457 244.67 48.0723C244.893 48.2988 245.004 48.5762 245.004 48.9043C245.004 49.1504 244.924 49.3926 244.764 49.6309C244.588 49.873 244.381 50.0078 244.143 50.0352C243.951 50.0586 243.82 50.0703 243.75 50.0703C243.352 50.0703 243.008 49.9238 242.719 49.6309C242.406 49.3184 242.252 48.7285 242.256 47.8613C242.256 46.8926 242.404 46.2188 242.701 45.8398C243.041 45.3984 243.486 45.1777 244.037 45.1777C244.346 45.1777 244.676 45.2598 245.027 45.4238C245.414 45.6113 245.762 45.9844 246.07 46.543C246.18 46.7305 246.262 46.877 246.316 46.9824V45.582C246.316 45.0781 246.24 44.7109 246.088 44.4805C245.83 44.1094 245.344 43.9258 244.629 43.9297C244.008 43.9297 243.498 44.0488 243.1 44.2871C242.854 44.4434 242.623 44.6914 242.408 45.0312L241.799 44.5566L242.203 44.0586C242.414 43.8594 242.637 43.6953 242.871 43.5664C243.09 43.4531 243.361 43.3594 243.686 43.2852C243.971 43.2188 244.293 43.1855 244.652 43.1855C246.027 43.1855 246.9 43.6074 247.271 44.4512C247.393 44.7324 247.453 45.0488 247.453 45.4004V50H246.316V49.3906C246.316 48.7773 246.137 48.1035 245.777 47.3691C245.301 46.4121 244.785 45.9336 244.23 45.9336C243.867 45.9336 243.625 46.123 243.504 46.502C243.426 46.748 243.383 47.0273 243.375 47.3398C243.375 47.5859 243.385 47.7461 243.404 47.8203ZM244.336 48.9043C244.336 48.7676 244.287 48.6484 244.189 48.5469C244.096 48.4453 243.982 48.3945 243.85 48.3945C243.705 48.3945 243.584 48.4453 243.486 48.5469C243.389 48.6445 243.34 48.7637 243.34 48.9043C243.34 49.0449 243.389 49.166 243.486 49.2676C243.588 49.3691 243.709 49.4199 243.85 49.4199C243.982 49.4199 244.096 49.3672 244.189 49.2617C244.287 49.1562 244.336 49.0371 244.336 48.9043Z"
              fill="#2B323B" fill-opacity="0.6"/>
        <path fill-rule="evenodd" clip-rule="evenodd"
              d="M173.773 55.0927C175.402 55.1836 179.677 55.1016 191.28 54.8747C209.4 54.5195 223.783 54.3597 227.785 54.4764C228.102 54.4885 202.707 55.1495 200.096 55.1038C196.027 55.0258 176.611 55.5634 172.708 55.8308C171.598 55.9035 172.019 56.0692 172.744 56.0916C173.876 56.1305 176.91 56.0617 185.231 55.8775C191.082 55.7506 237.638 54.9332 242.731 55.0834C245.591 55.1677 247.329 55.2626 248.122 55.2151C248.786 55.1765 248.794 55.1016 248.214 54.908C247.824 54.7791 248.259 54.6892 248.536 54.6461C248.961 54.575 248.777 54.3671 248.238 54.2101C247.509 53.9947 246.259 54.0267 246.86 54.2448C246.99 54.2919 247.022 54.4158 246.565 54.4003C245.235 54.353 235.831 54.0364 233.281 54.0018C206.046 53.6172 179.502 54.8561 173.874 54.7419C171.878 54.6958 172.799 55.038 173.773 55.0927Z"
              fill="#97BDF7"/>
        <path d="M298.727 34.3789L295.227 37.8789C294.898 38.2344 294.324 38.2344 293.996 37.8789C293.641 37.5508 293.641 36.9766 293.996 36.6484L295.992 34.625H285.875C285.383 34.625 285 34.2422 285 33.75C285 33.2305 285.383 32.875 285.875 32.875H295.992L293.996 30.8789C293.641 30.5508 293.641 29.9766 293.996 29.6484C294.324 29.293 294.898 29.293 295.227 29.6484L298.727 33.1484C299.082 33.4766 299.082 34.0508 298.727 34.3789Z"
              fill="#1D6CE2"/>
    </g>
    <defs>
        <linearGradient id="paint0_linear_221_100265" x1="0" y1="34" x2="320" y2="34" gradientUnits="userSpaceOnUse">
            <stop stop-color="#F1F1F1"/>
            <stop offset="1" stop-color="white"/>
        </linearGradient>
        <clipPath id="clip0_221_100265">
            <rect width="320" height="68" rx="8" fill="white"/>
        </clipPath>
    </defs>
</svg>
