<svg xmlns:xlink="http://www.w3.org/1999/xlink" width="60px" height="76px" viewBox="0 0 30 38"
     version="1.1"
     xmlns="http://www.w3.org/2000/svg">
    <g id="main">
        <path id="path-1"
              d="M23.7851,8.037 C22.2285,8.04584 20.6896,7.71503 19.2813,7.06882 C17.873,6.42262 16.631,5.47741 15.6463,4.30251 C15.5022,4.13421 15.2963,4.02732 15.0726,4.00455 C14.8488,3.98178 14.6247,4.04492 14.448,4.18056 C14.4003,4.21481 14.3582,4.25584 14.3231,4.30228 C13.3382,5.47378 12.0978,6.41677 10.6922,7.06275 C9.2866,7.70872 7.7509,8.04145 6.1968,8.03677 L1.34212,8.03677 C1.02822,8.0387 0.72774,8.16107 0.50577,8.37738 C0.28381,8.59369 0.15823,8.88652 0.15625,9.19242 L0.15625,16.6984 C0.15625,29.9943 11.1411,36.3443 14.9858,37.499992 C18.8304,36.3443 29.8153,29.9823 29.8153,16.6984 L29.8153,9.19265 C29.8133,8.88675 29.6877,8.59392 29.4658,8.37761 C29.2438,8.1613 28.9433,8.03893 28.6294,8.037 L23.7851,8.037 Z"></path>

        <g stroke="none" stroke-width="1" fill="none" fill-rule="evenodd">
            <mask id="mymask" fill="white">
                <use xlink:href="#path-1"></use>
            </mask>
            <use id="Path" fill="#387AE5" fill-rule="nonzero" xlink:href="#path-1"></use>
            <path id="symbol"
                  d="M20.9376,22.8227 L18.1156,20.6491 L18.1717,21.0694 C18.1986,21.2404 18.2122,21.4133 18.2121,21.5864 C18.2118,21.7367 18.2021,21.8869 18.1829,22.036 L20.2709,23.6454 C20.4647,23.7831 20.6003,23.9882 20.6511,24.2206 C20.7019,24.4531 20.6642,24.6961 20.5454,24.9022 C20.4266,25.1083 20.2353,25.2626 20.0088,25.3349 C19.7824,25.4072 19.5372,25.3923 19.3212,25.2931 L16.1781,23.9916 C16.6038,23.7516 16.9581,23.4026 17.2046,22.9804 C17.4512,22.5581 17.5812,22.0778 17.5813,21.5887 C17.5807,21.4129 17.5642,21.2376 17.5319,21.0649 L16.8157,15.6701 C16.7527,15.1868 16.5163,14.7429 16.1505,14.4213 C15.7847,14.0997 15.3145,13.9224 14.8277,13.9224 C14.3409,13.9224 13.8707,14.0997 13.5049,14.4213 C13.1391,14.7429 12.9027,15.1868 12.8397,15.6701 L12.3705,19.2037 L12.705,18.9452 C12.84,18.8366 12.9834,18.7389 13.1338,18.653 C13.2616,18.5795 13.3935,18.5134 13.5289,18.4552 L13.8769,15.841 C13.8999,15.6047 14.0099,15.3855 14.1854,15.226 C14.361,15.0665 14.5895,14.9782 14.8266,14.9782 C15.0636,14.9782 15.2922,15.0665 15.4677,15.226 C15.6433,15.3855 15.7533,15.6047 15.7762,15.841 L16.2253,19.2127 C15.7236,18.9179 15.1417,18.7893 14.5627,18.8454 C13.9837,18.9016 13.4372,19.1395 13.0013,19.5251 L8.711,22.8295 C8.3233,23.1254 8.0566,23.5527 7.9607,24.0313 C7.8649,24.5099 7.9466,25.0071 8.1904,25.4298 C8.4342,25.8525 8.8236,26.1717 9.2855,26.3278 C9.7475,26.4838 10.2504,26.466 10.7001,26.2776 L13.9892,24.9177 L13.5985,24.7559 C13.4384,24.6924 13.283,24.6172 13.1338,24.5311 C13.0055,24.4573 12.8825,24.3747 12.7656,24.2838 L10.3275,25.2931 C10.1114,25.3923 9.8662,25.4072 9.6398,25.3349 C9.4134,25.2626 9.2221,25.1083 9.1033,24.9022 C8.9845,24.6961 8.9468,24.4531 8.9976,24.2206 C9.0483,23.9882 9.1839,23.7831 9.3778,23.6454 L12.0719,21.5684 L12.0719,21.5887 C12.0723,22.1515 12.2446,22.7007 12.5656,23.1627 C12.8866,23.6248 13.341,23.9775 13.8679,24.1737 L18.953,26.2709 C19.4026,26.4578 19.9047,26.4745 20.3657,26.318 C20.8267,26.1614 21.215,25.8423 21.4583,25.4201 C21.7015,24.9979 21.7831,24.5016 21.6877,24.0237 C21.5923,23.5457 21.3265,23.1189 20.9399,22.8227 L20.9376,22.8227 Z M13.1157985,21.5819 C13.1163,21.245 13.2165,20.9158 13.4037,20.6359 C13.591,20.356 13.8569,20.138 14.1679,20.0094 C14.4789,19.8807 14.821,19.8473 15.151,19.9133 C15.4809,19.9793 15.7839,20.1418 16.0217,20.3802 C16.2595,20.6185 16.4213,20.9221 16.4868,21.2526 C16.5523,21.583 16.5185,21.9255 16.3896,22.2367 C16.2607,22.5479 16.0426,22.8139 15.7628,23.001 C15.483,23.1882 15.1541,23.288 14.8176,23.288 C14.5939,23.288 14.3725,23.2439 14.1658,23.1581 C13.9592,23.0723 13.7715,22.9466 13.6135,22.7882 C13.4554,22.6297 13.3301,22.4416 13.2447,22.2346 C13.1593,22.0277 13.1155,21.8059 13.1157985,21.5819 L13.1157985,21.5819 Z"
                  fill="#FFFFFF" fill-rule="nonzero"></path>
            <path id="frame"
                  d="M14.8537,35.6388 C14.7759,35.6402 14.6989,35.6235 14.6291,35.5902 C11.8492,34.4012 9.3538,32.6612 7.3018,30.4809 C3.6952,26.7605 1.72021,21.8158 1.79683,16.6984 L1.79683,10.35979 C1.79618,10.20683 1.85742,10.05978 1.96726,9.9505 C2.0771,9.84123 2.22669,9.77853 2.38363,9.776 L6.0537,9.776 C9.1659,9.79775 12.1666,8.64745 14.4295,6.56513 C14.5398,6.46544 14.6847,6.41005 14.8352,6.41005 C14.9856,6.41005 15.1305,6.46544 15.2409,6.56513 C17.5037,8.64776 20.5045,9.79831 23.6169,9.77669 L27.287,9.77669 C27.4439,9.77606 27.5948,9.83573 27.7069,9.94277 C27.8191,10.04981 27.8834,10.19559 27.886,10.34854 L27.886,16.6984 C27.9604,21.8154 25.9857,26.7593 22.3811,30.4809 C20.3291,32.6612 17.8337,34.4012 15.0538,35.5902 C14.9938,35.6262 14.9239,35.6432 14.8537,35.6388 L14.8537,35.6388 Z M2.98176,10.93233 L2.98176,16.7106 C2.90771,21.5331 4.76613,26.1938 8.1622,29.7024 C10.0456,31.6939 12.3155,33.3019 14.8405,34.4334 C17.3692,33.3081 19.6402,31.6993 21.5188,29.7024 C24.9148,26.1938 26.7733,21.5331 26.6992,16.7106 L26.6992,10.93233 L23.616,10.93233 C20.3894,10.95493 17.265,9.83043 14.828,7.76946 C12.397,9.84046 9.2685,10.9664 6.0398,10.93233 L2.98176,10.93233 Z"
                  fill="#FFFFFF" fill-rule="nonzero"></path>

            <g id="reflect-c">
                <g id="fw-reflect-svg" fill="#FFFFFF" fill-opacity="0.263467002" mask="url(#mymask)">

                    <g transform="translate(-6.000000, 16.000000) rotate(16.000000)">
                        <animateTransform
                                attributeName="transform"
                                attributeType="XML"
                                type="translate"
                                values="-6,32;-6,-16;-6,-16;-6,-16;-6,-16"
                                dur="2s"
                                repeatCount="indefinite"
                        />
                        <animateTransform
                                attributeName="transform"
                                attributeType="XML"
                                type="rotate"
                                values="23"
                                dur="2s"
                                repeatCount="indefinite"
                                additive="sum"
                        />

                        <rect id="Rectangle1" x="1" y="3" width="100" height="6"></rect>
                        <rect id="Rectangle2" x="0" y="0" width="100" height="2"></rect>
                    </g>
                </g>
            </g>
        </g>
    </g>

    <style>
        #main {
        transform-origin: bottom;
        animation: bounce 3s ease infinite;
        animation-timing-function: ease;
        }

        #symbol {
        transform-origin: center;
        animation: symbol 3s ease infinite alternate;
        animation-timing-function: cubic-bezier(0.47, -0.06, 0.69, 1.44);
        }

        @keyframes bounce {
        0% {
        transform: translateY(-1px) scaleY(1);
        }
        50% {
        transform: translateY(-3px) scaleY(1);
        }
        100% {
        transform: translateY(-1px) scaleY(1);
        }
        }

        @keyframes symbol {
        0% {
        transform: scale(0);
        }
        20% {
        transform: scale(1);
        }
        100% {
        transform: scale(1);
        }
        }
    </style>
</svg>
