<svg width="32" height="32" viewBox="0 0 32 32" fill="none" xmlns="http://www.w3.org/2000/svg">
    <circle cx="16" cy="16" r="16" fill="url(#paint0_linear_43_21098)"/>
    <path d="M27 15.9795C27 19.4186 24.1699 22.2027 20.7656 22.2027H11.5781L13.875 24.4545C14.0801 24.6592 14.0801 24.9458 13.875 25.1505L13.1777 25.8465C12.9727 26.0512 12.6855 26.0512 12.4805 25.8465L8.21484 21.5885C8.00977 21.3838 8.00977 21.0972 8.21484 20.8925L12.4805 16.6346C12.6855 16.4299 12.9727 16.4299 13.1777 16.6346L13.875 17.3306C14.0801 17.5353 14.0801 17.8219 13.875 18.0266L11.5781 20.2375H20.7656C23.1035 20.2375 25.0312 18.3541 25.0312 15.9795C25.0312 15.2016 24.7852 14.4647 24.416 13.8096C24.375 13.7277 24.334 13.6459 24.334 13.564C24.334 13.4411 24.375 13.3183 24.498 13.2364L25.1953 12.4995C25.4004 12.2948 25.7695 12.3357 25.9336 12.5814C26.5898 13.564 27 14.7513 27 15.9795ZM8.54297 18.1904C8.58398 18.2723 8.625 18.3541 8.625 18.436C8.625 18.5589 8.58398 18.6817 8.46094 18.7636L7.76367 19.5005C7.55859 19.7052 7.18945 19.6643 7.02539 19.4186C6.36914 18.436 6 17.2487 6 15.9795C6 12.5814 8.78906 9.7564 12.2344 9.7564H21.3809L19.084 7.54555C18.8789 7.34084 18.8789 7.05425 19.084 6.84954L19.7813 6.15353C19.9863 5.94882 20.2734 5.94882 20.4785 6.15353L24.7441 10.4115C24.9492 10.6162 24.9492 10.9028 24.7441 11.1075L20.4785 15.3654C20.2734 15.5701 19.9863 15.5701 19.7813 15.3654L19.084 14.6694C18.8789 14.4647 18.8789 14.1781 19.084 13.9734L21.3809 11.7216H12.2344C9.85547 11.7216 7.96875 13.6459 7.96875 15.9795C7.96875 16.7984 8.17383 17.5353 8.54297 18.1904Z"
          fill="white" fill-opacity="0.95"/>
    <path d="M2.66667 26.6667L3.54167 24.3333C3.58333 24.125 3.79167 24 4 24C4.16667 24 4.375 24.125 4.41667 24.3333L5.33333 26.6667L7.66667 27.5833C7.875 27.625 8 27.8333 8 28C8 28.2083 7.875 28.4167 7.66667 28.4583L5.33333 29.3333L4.41667 31.7083C4.375 31.875 4.16667 32 4 32C3.79167 32 3.58333 31.875 3.54167 31.7083L2.66667 29.3333L0.291667 28.4583C0.125 28.4167 0 28.2083 0 28C0 27.8333 0.125 27.625 0.291667 27.5833L2.66667 26.6667Z"
          fill="#E9B10C"/>
    <path d="M29.3333 7.33333L29.7708 6.16667C29.7917 6.0625 29.8958 6 30 6C30.0833 6 30.1875 6.0625 30.2083 6.16667L30.6667 7.33333L31.8333 7.79167C31.9375 7.8125 32 7.91667 32 8C32 8.10417 31.9375 8.20833 31.8333 8.22917L30.6667 8.66667L30.2083 9.85417C30.1875 9.9375 30.0833 10 30 10C29.8958 10 29.7917 9.9375 29.7708 9.85417L29.3333 8.66667L28.1458 8.22917C28.0625 8.20833 28 8.10417 28 8C28 7.91667 28.0625 7.8125 28.1458 7.79167L29.3333 7.33333Z"
          fill="#F5B83D"/>
    <path d="M28.1458 1.79167L29.3333 1.33333L29.7708 0.166667C29.7917 0.0625 29.8958 0 30 0C30.0833 0 30.1875 0.0625 30.2083 0.166667L30.6667 1.33333L31.8333 1.79167C31.9375 1.8125 32 1.91667 32 2C32 2.10417 31.9375 2.20833 31.8333 2.22917L30.6667 2.66667L30.2083 3.85417C30.1875 3.9375 30.0833 4 30 4C29.8958 4 29.7917 3.9375 29.7708 3.85417L29.3333 2.66667L28.1458 2.22917C28.0625 2.20833 28 2.10417 28 2C28 1.91667 28.0625 1.8125 28.1458 1.79167Z"
          fill="#E9B10C"/>
    <path d="M26.3045 1.20942L27.3963 3.59686L29.79 4.68586C29.916 4.74869 30 4.87435 30 5C30 5.12565 29.916 5.25131 29.79 5.29319L27.3963 6.40314L26.3045 8.79058C26.2415 8.91623 26.1155 9 25.9895 9C25.8635 9 25.7375 8.91623 25.6955 8.79058L24.5827 6.40314L22.189 5.31414C22.063 5.25131 22 5.12565 22 5C22 4.87435 22.063 4.74869 22.189 4.68586L24.5827 3.59686L25.6955 1.20942C25.7375 1.08377 25.8635 1 25.9895 1C26.1155 1 26.2415 1.08377 26.3045 1.20942Z"
          fill="#F5B83D"/>
    <defs>
        <linearGradient id="paint0_linear_43_21098" x1="2" y1="-9.22009e-07" x2="35" y2="33"
                        gradientUnits="userSpaceOnUse">
            <stop stop-color="#97BDF7"/>
            <stop offset="1" stop-color="#1D6CE2"/>
            <stop offset="1" stop-color="#1D6CE2"/>
        </linearGradient>
    </defs>
</svg>
