<svg width="42" height="42" viewBox="0 0 42 42" fill="none" xmlns="http://www.w3.org/2000/svg">
    <rect x="3" y="7" width="36" height="28" rx="2" fill="#D0E1FB"/>
    <path d="M3 9.24V11.48H39V9.24C39 8.00288 38.1046 7 37 7H5C3.89543 7 3 8.00288 3 9.24Z" fill="#4F8CE8"/>
    <ellipse cx="35.625" cy="9.24012" rx="1.125" ry="1.12" fill="#FBFBFC"/>
    <ellipse cx="32.25" cy="9.24012" rx="1.125" ry="1.12" fill="#FBFBFC"/>
    <path d="M14 14.8398H28C29.0938 14.8398 30 15.7823 30 16.9198V27.3198C30 28.4898 29.0938 29.3998 28 29.3998H14C12.875 29.3998 12 28.4898 12 27.3198V16.9198C12 15.7823 12.875 14.8398 14 14.8398ZM19.1562 19.4548C19.0312 19.1623 18.7812 18.9998 18.5 18.9998C18.1875 18.9998 17.9375 19.1948 17.8125 19.4548L15.5625 24.1348C15.375 24.5248 15.5312 24.9798 15.9062 25.1748C16.2812 25.3698 16.7188 25.2073 16.9062 24.8173L17.0625 24.4598H19.9062L20.0625 24.8173C20.25 25.2073 20.7188 25.3698 21.0625 25.1748C21.4375 24.9798 21.5938 24.5248 21.4062 24.1348L19.1562 19.4548ZM18.5 21.5348L19.1562 22.8998H17.8125L18.5 21.5348ZM24.25 22.1198C24.6562 22.1198 25 22.4773 25 22.8998C25 23.3548 24.6562 23.6798 24.25 23.6798C23.8125 23.6798 23.5 23.3548 23.5 22.8998C23.5 22.4773 23.8125 22.1198 24.25 22.1198ZM25 20.7223C24.75 20.6248 24.5 20.5598 24.25 20.5598C23 20.5598 22 21.6323 22 22.8998C22 24.1998 23 25.2398 24.25 25.2398C24.5938 25.2398 24.9062 25.1748 25.2188 25.0123C25.3438 25.1748 25.5312 25.2398 25.75 25.2398C26.1562 25.2398 26.5 24.9148 26.5 24.4598V22.8998V19.7798C26.5 19.3573 26.1562 18.9998 25.75 18.9998C25.3125 18.9998 25 19.3573 25 19.7798V20.7223Z"
          fill="#4F8CE8"/>
</svg>
