<svg width="42" height="42" viewBox="0 0 42 42" fill="none" xmlns="http://www.w3.org/2000/svg">
    <ellipse cx="21" cy="15.3333" rx="11.25" ry="11.3333" stroke="#4F8CE8" stroke-width="0.5" stroke-linecap="round"
             stroke-dasharray="2 2"/>
    <ellipse cx="9.75" cy="10.8" rx="6.75" ry="6.8" fill="#D0E1FB"/>
    <path d="M7.21875 6.2666H12.2812C12.7383 6.2666 13.125 6.65618 13.125 7.1166V14.4833C13.125 14.9614 12.7383 15.3333 12.2812 15.3333H10.5938V13.9166C10.5938 13.4562 10.207 13.0666 9.75 13.0666C9.27539 13.0666 8.90625 13.4562 8.90625 13.9166V15.3333H7.21875C6.74414 15.3333 6.375 14.9614 6.375 14.4833V7.1166C6.375 6.65618 6.74414 6.2666 7.21875 6.2666ZM7.5 10.5166V11.0833C7.5 11.2426 7.62305 11.3666 7.78125 11.3666H8.34375C8.48438 11.3666 8.625 11.2426 8.625 11.0833V10.5166C8.625 10.3749 8.48438 10.2333 8.34375 10.2333H7.78125C7.62305 10.2333 7.5 10.3749 7.5 10.5166ZM9.46875 10.2333C9.31055 10.2333 9.1875 10.3749 9.1875 10.5166V11.0833C9.1875 11.2426 9.31055 11.3666 9.46875 11.3666H10.0312C10.1719 11.3666 10.3125 11.2426 10.3125 11.0833V10.5166C10.3125 10.3749 10.1719 10.2333 10.0312 10.2333H9.46875ZM10.875 10.5166V11.0833C10.875 11.2426 10.998 11.3666 11.1562 11.3666H11.7188C11.8594 11.3666 12 11.2426 12 11.0833V10.5166C12 10.3749 11.8594 10.2333 11.7188 10.2333H11.1562C10.998 10.2333 10.875 10.3749 10.875 10.5166ZM7.78125 7.9666C7.62305 7.9666 7.5 8.10827 7.5 8.24993V8.8166C7.5 8.97598 7.62305 9.09993 7.78125 9.09993H8.34375C8.48438 9.09993 8.625 8.97598 8.625 8.8166V8.24993C8.625 8.10827 8.48438 7.9666 8.34375 7.9666H7.78125ZM9.1875 8.24993V8.8166C9.1875 8.97598 9.31055 9.09993 9.46875 9.09993H10.0312C10.1719 9.09993 10.3125 8.97598 10.3125 8.8166V8.24993C10.3125 8.10827 10.1719 7.9666 10.0312 7.9666H9.46875C9.31055 7.9666 9.1875 8.10827 9.1875 8.24993ZM11.1562 7.9666C10.998 7.9666 10.875 8.10827 10.875 8.24993V8.8166C10.875 8.97598 10.998 9.09993 11.1562 9.09993H11.7188C11.8594 9.09993 12 8.97598 12 8.8166V8.24993C12 8.10827 11.8594 7.9666 11.7188 7.9666H11.1562Z"
          fill="#1D6CE2"/>
    <path d="M20.3973 31.9439L19.6339 30.7087C19.3929 30.2705 19.6741 29.7126 20.1964 29.7126H21H21.7634C22.2857 29.7126 22.567 30.2705 22.3259 30.7087L21.5625 31.9439L22.9286 36.8845L24.4955 30.4298C27.5893 30.908 30 33.5775 30 36.8048C30 37.4822 29.4375 38.0001 28.7545 38.0001H22.6473H19.3125H13.2054C12.5223 38.0001 12 37.4822 12 36.8048C12 33.5775 14.3705 30.908 17.4643 30.4298L19.0312 36.8845L20.3973 31.9439Z"
          fill="#4F8CE8"/>
    <path d="M26.625 23.2668C26.625 20.1678 24.0762 17.6001 21 17.6001C17.8799 17.6001 15.375 20.1678 15.375 23.2668C15.375 26.41 17.8799 28.9334 21 28.9334C24.0762 28.9334 26.625 26.41 26.625 23.2668Z"
          fill="#4F8CE8"/>
    <ellipse cx="32.25" cy="10.8" rx="6.75" ry="6.8" fill="#D0E1FB"/>
    <g clip-path="url(#clip0_1171_1684)">
        <path d="M31.9817 13.0681L32.276 12.2311C32.0816 11.8463 31.7413 11.5499 31.3281 11.4036L31.2781 11.3884C30.9608 11.6118 30.5705 11.7448 30.1513 11.7448C29.7322 11.7448 29.34 11.6136 29.0227 11.3884L28.9727 11.4036C28.3825 11.6118 27.9385 12.126 27.8615 12.766L27.7516 13.8448C27.7324 14.0342 27.8842 14.1993 28.0786 14.1993H30.0936C30.0706 14.0942 30.0781 13.9836 30.1147 13.8802L30.2551 13.4787C30.3417 13.233 30.5799 13.0678 30.8453 13.0678H31.9817V13.0681Z"
              fill="#1D6CE2"/>
        <path d="M30.1508 11.2577C30.9415 11.2577 31.5825 10.6318 31.5825 9.85978C31.5825 9.08779 30.9415 8.46216 30.1508 8.46216C29.36 8.46216 28.7188 9.08831 28.7188 9.85978C28.7188 10.6312 29.3603 11.2577 30.1508 11.2577Z"
              fill="#1D6CE2"/>
        <path d="M36.625 11.4629H33.1609C33.1079 11.4629 33.0609 11.4958 33.0435 11.5446L32.3367 13.5561H30.844C30.7911 13.5561 30.7441 13.5889 30.7267 13.6377L30.585 14.0392C30.5572 14.1178 30.6171 14.1997 30.7024 14.1997L35.7485 14.1992C35.8014 14.1992 35.8485 14.1663 35.8658 14.1175L36.7421 11.6231C36.7696 11.5446 36.71 11.4629 36.6247 11.4629H36.625ZM34.4536 13.1316C34.2836 13.1316 34.1457 12.997 34.1457 12.831C34.1457 12.6651 34.2836 12.5305 34.4536 12.5305C34.6236 12.5305 34.7616 12.6651 34.7616 12.831C34.7616 12.997 34.6236 13.1316 34.4536 13.1316Z"
              fill="#1D6CE2"/>
        <path d="M34.5912 6.2666C33.6152 6.2666 32.8242 7.03859 32.8242 7.99113C32.8242 8.94366 33.6155 9.71591 34.5912 9.71591C35.5669 9.71591 36.3581 8.94366 36.3581 7.99113C36.3581 7.03859 35.5674 6.2666 34.5912 6.2666ZM34.7703 8.904V9.12576C34.7703 9.15446 34.7465 9.17794 34.7171 9.17794H34.4655C34.4361 9.17794 34.4123 9.15472 34.4123 9.12576V8.904C34.1456 8.88261 33.9306 8.68015 33.9018 8.42213C33.8983 8.39056 33.9224 8.36238 33.9547 8.36238H34.2092C34.2338 8.36238 34.2557 8.37882 34.2605 8.40204C34.2795 8.49152 34.3608 8.55884 34.4578 8.55884H34.7248C34.8427 8.55884 34.9374 8.45943 34.9251 8.34203C34.9146 8.23976 34.8184 8.16593 34.7131 8.16593H34.48C34.1937 8.16593 33.9368 7.9653 33.9026 7.6877C33.8633 7.3715 34.1031 7.10303 34.4123 7.07825V6.85649C34.4123 6.82779 34.4361 6.80431 34.4655 6.80431H34.7171C34.7465 6.80431 34.7703 6.82753 34.7703 6.85649V7.07825C35.0371 7.09964 35.252 7.30184 35.2809 7.56013C35.2843 7.59169 35.2603 7.61987 35.2279 7.61987H34.9734C34.9488 7.61987 34.9269 7.60343 34.9221 7.57995C34.9031 7.49047 34.8219 7.42315 34.7248 7.42315H34.4698C34.3645 7.42315 34.2683 7.49699 34.2576 7.59926C34.2453 7.71666 34.3399 7.81633 34.4578 7.81633H34.7026C34.9892 7.81633 35.2458 8.01695 35.2803 8.29455C35.3193 8.61075 35.0798 8.87896 34.7705 8.90374L34.7703 8.904Z"
              fill="#1D6CE2"/>
        <path d="M34.5898 11.1167C34.4657 11.1167 34.3652 11.0186 34.3652 10.8975V10.2072C34.3652 10.0861 34.4657 9.98804 34.5898 9.98804C34.7138 9.98804 34.8143 10.0861 34.8143 10.2072V10.8975C34.8143 11.0186 34.7138 11.1167 34.5898 11.1167Z"
              fill="#1D6CE2"/>
        <path d="M33.7695 10.9455C33.6454 10.9455 33.5449 10.8474 33.5449 10.7264V10.036C33.5449 9.91499 33.6454 9.81689 33.7695 9.81689C33.8935 9.81689 33.994 9.91499 33.994 10.036V10.7264C33.994 10.8474 33.8935 10.9455 33.7695 10.9455Z"
              fill="#1D6CE2"/>
        <path d="M35.4101 10.9455C35.2861 10.9455 35.1855 10.8474 35.1855 10.7264V10.036C35.1855 9.91499 35.2861 9.81689 35.4101 9.81689C35.5341 9.81689 35.6346 9.91499 35.6346 10.036V10.7264C35.6346 10.8474 35.5341 10.9455 35.4101 10.9455Z"
              fill="#1D6CE2"/>
    </g>
    <defs>
        <clipPath id="clip0_1171_1684">
            <rect width="9" height="7.93333" fill="white" transform="translate(27.75 6.2666)"/>
        </clipPath>
    </defs>
</svg>
