<svg width="42" height="42" viewBox="0 0 42 42" fill="none" xmlns="http://www.w3.org/2000/svg">
    <g clip-path="url(#clip0_1171_1647)">
        <path d="M37.0399 31.631C37.2534 32.2987 36.5147 32.8655 35.9435 32.4696L32.2899 29.94C30.4879 30.8257 28.4328 31.2552 26.2698 31.084C24.1493 30.9162 22.1796 30.1648 20.5154 28.9872C18.746 27.7359 17.3248 26.0048 16.4319 23.9851C16.1956 23.4483 15.9953 22.8881 15.8378 22.3109C15.6178 21.526 15.4768 20.7072 15.4243 19.8686C15.2765 17.5536 15.7689 15.3663 16.7372 13.4743C18.8151 9.42183 23.0859 6.72114 27.9375 7.02297C33.774 7.38532 38.5334 12.1828 38.9668 18.141C39.2296 21.7441 37.9328 25.0487 35.7006 27.4206L37.0399 31.631Z"
              fill="#97BDF7"/>
        <path d="M20.5006 28.9971C18.8462 31.1007 16.3843 32.5196 13.6105 32.7378C11.805 32.8786 10.0948 32.5196 8.59154 31.7817L5.54852 33.8919C5.07257 34.2207 4.45531 33.7478 4.63594 33.1906L5.7488 29.6813C3.89079 27.7086 2.81077 24.9543 3.02747 21.9485C3.39196 16.9832 7.35726 12.9875 12.222 12.6857C13.8272 12.585 15.3536 12.8802 16.7224 13.4841C15.7541 15.3762 15.2618 17.5635 15.4095 19.8784C15.462 20.717 15.6034 21.5358 15.823 22.3208C15.9805 22.8977 16.1808 23.4581 16.4172 23.9949C17.3101 26.0146 18.7312 27.7458 20.5006 28.9971Z"
              fill="#4F8CE8"/>
        <path d="M13.9027 23.8187C14.492 23.2163 14.492 22.2397 13.9027 21.6373C13.3133 21.035 12.3577 21.035 11.7683 21.6374C11.179 22.2397 11.179 23.2163 11.7683 23.8187C12.3577 24.4211 13.3133 24.4211 13.9027 23.8187Z"
              fill="white"/>
        <path d="M9.46125 23.8189C10.0506 23.2166 10.0506 22.24 9.46125 21.6376C8.87187 21.0352 7.91631 21.0352 7.32693 21.6376C6.73755 22.24 6.73755 23.2166 7.32693 23.8189C7.9163 24.4213 8.87187 24.4213 9.46125 23.8189Z"
              fill="white"/>
        <path d="M28.4554 21.0846C29.1495 20.3753 29.1495 19.2253 28.4554 18.516C27.7614 17.8067 26.6362 17.8067 25.9422 18.516C25.2482 19.2253 25.2482 20.3753 25.9422 21.0846C26.6362 21.7939 27.7614 21.7939 28.4554 21.0846Z"
              fill="white"/>
        <path d="M23.0472 21.0846C23.7413 20.3753 23.7413 19.2253 23.0472 18.516C22.3532 17.8067 21.228 17.8067 20.534 18.516C19.84 19.2253 19.84 20.3753 20.534 21.0846C21.228 21.7939 22.3532 21.7939 23.0472 21.0846Z"
              fill="white"/>
        <path d="M33.8637 21.0849C34.5577 20.3755 34.5577 19.2255 33.8637 18.5162C33.1696 17.8069 32.0444 17.8069 31.3504 18.5162C30.6564 19.2255 30.6564 20.3755 31.3504 21.0849C32.0444 21.7942 33.1696 21.7942 33.8637 21.0849Z"
              fill="white"/>
    </g>
    <defs>
        <clipPath id="clip0_1171_1647">
            <rect width="36" height="27" fill="white" transform="translate(3 7)"/>
        </clipPath>
    </defs>
</svg>
