<svg width="42" height="42" viewBox="0 0 42 42" fill="none" xmlns="http://www.w3.org/2000/svg">
    <path d="M26.4185 16.8518H32.7088V21.8888C32.7088 22.5972 33.2592 23.1481 33.9669 23.1481H38.9991V34.4814C38.9991 35.8981 37.859 37 36.483 37H26.4185C25.0031 37 23.9023 35.8981 23.9023 34.4814V19.3703C23.9023 17.993 25.0031 16.8518 26.4185 16.8518ZM33.9669 16.8518L38.9991 21.8888H33.9669V16.8518ZM27.0475 19.3703C26.6937 19.3703 26.4185 19.6851 26.4185 20C26.4185 20.3541 26.6937 20.6296 27.0475 20.6296H29.5636C29.8781 20.6296 30.1927 20.3541 30.1927 20C30.1927 19.6851 29.8781 19.3703 29.5636 19.3703H27.0475ZM27.0475 21.8888C26.6937 21.8888 26.4185 22.2037 26.4185 22.5185C26.4185 22.8726 26.6937 23.1481 27.0475 23.1481H29.5636C29.8781 23.1481 30.1927 22.8726 30.1927 22.5185C30.1927 22.2037 29.8781 21.8888 29.5636 21.8888H27.0475ZM27.6765 25.6666C26.9689 25.6666 26.4185 26.2569 26.4185 26.9259V29.4444C26.4185 30.1527 26.9689 30.7037 27.6765 30.7037H35.2249C35.8933 30.7037 36.483 30.1527 36.483 29.4444V26.9259C36.483 26.2569 35.8933 25.6666 35.2249 25.6666H27.6765ZM27.6765 26.9259H35.2249V29.4444H27.6765V26.9259ZM33.3378 33.2222C32.984 33.2222 32.7088 33.537 32.7088 33.8518C32.7088 34.206 32.984 34.4814 33.3378 34.4814H35.854C36.1685 34.4814 36.483 34.206 36.483 33.8518C36.483 33.537 36.1685 33.2222 35.854 33.2222H33.3378Z"
          fill="#97BDF7"/>
    <path fill-rule="evenodd" clip-rule="evenodd"
          d="M24.3387 5H6.04839C4.33367 5 3 6.375 3 8V34C3 35.6875 4.33367 37 6.04839 37H12.1452V32C12.1452 30.375 13.4788 29 15.1935 29C16.8448 29 18.2419 30.375 18.2419 32V37H23.629C23.0774 36.371 22.7419 35.5403 22.7419 34.6296V22.8944C22.6054 22.9621 22.4559 23 22.3064 23H20.2742C19.7026 23 19.2581 22.5625 19.2581 22V20C19.2581 19.5 19.7026 19 20.2742 19H22.3064C22.4565 19 22.6065 19.0436 22.7434 19.1179C22.7975 17.2025 24.3359 15.6667 26.2258 15.6667H27.3871V8C27.3871 6.375 25.9899 5 24.3387 5ZM7.06452 22V20C7.06452 19.5 7.50907 19 8.08064 19H10.1129C10.621 19 11.129 19.5 11.129 20V22C11.129 22.5625 10.621 23 10.1129 23H8.08064C7.50907 23 7.06452 22.5625 7.06452 22ZM13.1613 20C13.1613 19.5 13.6058 19 14.1774 19H16.2097C16.7177 19 17.2258 19.5 17.2258 20V22C17.2258 22.5625 16.7177 23 16.2097 23H14.1774C13.6058 23 13.1613 22.5625 13.1613 22V20ZM7.06452 12C7.06452 11.5 7.50907 11 8.08064 11H10.1129C10.621 11 11.129 11.5 11.129 12V14C11.129 14.5625 10.621 15 10.1129 15H8.08064C7.50907 15 7.06452 14.5625 7.06452 14V12ZM13.1613 14V12C13.1613 11.5 13.6058 11 14.1774 11H16.2097C16.7177 11 17.2258 11.5 17.2258 12V14C17.2258 14.5625 16.7177 15 16.2097 15H14.1774C13.6058 15 13.1613 14.5625 13.1613 14ZM19.2581 12C19.2581 11.5 19.7026 11 20.2742 11H22.3064C22.8145 11 23.3226 11.5 23.3226 12V14C23.3226 14.5625 22.8145 15 22.3064 15H20.2742C19.7026 15 19.2581 14.5625 19.2581 14V12Z"
          fill="#4F8CE8"/>
</svg>
