<svg width="42" height="42" viewBox="0 0 42 42" fill="none" xmlns="http://www.w3.org/2000/svg">
    <circle cx="21" cy="21" r="18" fill="#4F8CE8"/>
    <path d="M18.3438 16.5996C20.9141 16.5996 23.3742 15.6011 25.2102 13.7521L26.6055 12.3468C27.3399 11.6072 28.625 12.1249 28.625 13.1974V18.5225C29.286 18.8554 29.8 19.7429 29.8 20.7414C29.8 21.7768 29.286 22.6643 28.625 22.9972V28.3223C28.625 29.3948 27.3399 29.9125 26.6055 29.1729L25.2102 27.7676C23.4477 25.9926 21.0977 24.9571 18.6375 24.9201V28.7291C18.6375 29.8755 17.6828 30.8 16.5813 30.8H15.4063C14.268 30.8 13.35 29.8755 13.35 28.7291V24.8832C12.0281 24.8832 11 23.8477 11 22.5164V18.9663C11 17.672 12.0281 16.5996 13.35 16.5996H18.3438ZM26.8625 14.6026L26.4586 15.0094C24.3656 17.1173 21.575 18.3007 18.6375 18.3746V23.1451C21.575 23.1821 24.3656 24.4024 26.4586 26.5103L26.8625 26.9171V14.6026ZM15.1125 28.7291C15.1125 28.914 15.2227 29.025 15.4063 29.025H16.5813C16.7281 29.025 16.875 28.914 16.875 28.7291V24.8832H15.1125V28.7291ZM12.7625 18.9663V22.5164C12.7625 22.8492 13.0195 23.1081 13.35 23.1081H16.875V18.3746H13.35C13.0195 18.3746 12.7625 18.6705 12.7625 18.9663Z"
          fill="#FBFBFC"/>
</svg>
