<svg width="42" height="42" viewBox="0 0 42 42" fill="none" xmlns="http://www.w3.org/2000/svg">
    <rect x="3" y="2.18481" width="9.27617" height="9.47896" rx="2" fill="#97BDF7"/>
    <rect x="3" y="14.0336" width="9.27617" height="9.47896" rx="2" fill="#97BDF7"/>
    <rect x="14.5957" y="2.18481" width="9.27617" height="9.47896" rx="2" fill="#97BDF7"/>
    <rect x="14.5957" y="14.0336" width="9.27617" height="9.47896" rx="2" fill="#4F8CE8"/>
    <rect width="4.68024" height="14.0936" rx="1" transform="matrix(0.759144 -0.650923 0.63461 0.772833 26.5039 30.108)"
          fill="#1754B0"/>
    <rect width="2.34012" height="3.52339" transform="matrix(0.759144 -0.650923 0.63461 0.772833 25.1562 26.6234)"
          fill="#9BA6B5"/>
    <path fill-rule="evenodd" clip-rule="evenodd"
          d="M25.671 25.408C29.8408 21.8326 30.3846 15.48 26.8858 11.2191C23.3869 6.95813 17.1702 6.40235 13.0004 9.97772C8.83064 13.5531 8.28675 19.9057 11.7856 24.1666C15.2845 28.4276 21.5012 28.9834 25.671 25.408ZM26.789 26.7695C31.6946 22.5632 32.3345 15.0895 28.2181 10.0767C24.1018 5.06377 16.7881 4.40991 11.8824 8.61622C6.9768 12.8225 6.33694 20.2962 10.4533 25.3091C14.5696 30.3219 21.8833 30.9758 26.789 26.7695Z"
          fill="#1754B0"/>
</svg>
