<svg height="1769" viewBox="0 0 1893 1769" width="1893" xmlns="http://www.w3.org/2000/svg"
>
    <mask id="a" fill="#fff">
        <path d="m34.1846302 217.35-28.87000005-64.33c-13.67-30.46-.06-66.24 30.40000005-79.92l162.8699998-73.1 78.39 174.65-162.87 73.1c-30.4699998 13.67-66.2499998.06-79.9199998-30.4z"
              fill="#fff" fill-rule="evenodd"/>
    </mask>
    <mask id="b" fill="#fff">
        <circle cx="311.873526" cy="311.873526" fill="#fff" fill-rule="evenodd" r="220.527885"
                transform="matrix(.70710678 -.70710678 .70710678 .70710678 -129.182244 311.873526)"/>
    </mask>
    <mask id="c" fill="#fff">
        <circle cx="55.89" cy="55.89" fill="#fff" fill-rule="evenodd" r="55.89"/>
    </mask>
    <g fill="none" fill-rule="evenodd" transform="translate(-51.748489 -.322106)">
        <path d="m455.118489 538.672106c23-33.83 52.41-64.75 89.9-81.13 66.62-29.11 143.19-7.47 215.89-8.93 230.06-4.61 413.590001-239.96 643.180001-224.55 104.8 7.03 202.21 69.8 260.37 157.27s78.66 197.13 66.21 301.43c-8.12 67.98-29.47 133.96-35.88 202.13-11.15 118.520004 23.28 236.460004 27.41 355.430004s-34.09 254.12-140.94 306.6c-85.59 42.05-165.26 7.5-252.8 10.33-108.3 3.5-223.28-15.56-329.310001 12.26-133.59 35.06-236 147-368.57 185.74-138.09 40.35-294.46-8.93-395.98-110.86-99.1-99.51-187.27-298.48-130.09-437.41 36.59-88.89 97.06-166.27 165.42-233.850004 64.28-63.55 96.16-95.28 100.65-183.49 4.31-84.57 37.06-181.11 84.54-250.97z"
              fill="#d1e1fa" fill-rule="nonzero"/>
        <path d="m455.308489 1338.37211c-27.17-6.65-57.68-6.31-82.53.17-4.71 1.23-9.48 2.69-14.34 2.42-4.7-.26-9.15-2.12-13.53-3.85-55.78-21.98-118.65-25.53-176.56-9.99-22.2 5.96-44.03 14.86-61.73 29.53-25.25 20.93-40.19 52.1-48.17 83.91-11.4 45.42-9.59 95.26 11.6 137.02 21.19 41.77 63.37 73.91 110.11 76.79-2.77 16.14 5.43 32.24 15.8 44.92 24.97 30.55 63.72 48.49 103.08 51.23s79.04-9 112.6-29.73c17.64-10.9 34.37-25.03 42.35-44.17 3.61-8.66 5.59-18.53 12.4-24.99 5.82-5.52 14.04-7.44 21.63-10 47.63-16.04 79.84-65.33 82.63-115.52 4.02-72.3-14.9-135.39-81.55-174.46-10.03-5.89-21.57-10.29-33.79-13.28z"
              fill="#d1e1fa" fill-rule="nonzero"/>
        <path d="m1859.52849 874.622106-34.87-77.7-177.36 21.37-21.16 17.4 59.73 163.85 39.81-6.6z" fill="#ffcc3e"
              fill-rule="nonzero"/>
        <path d="m488.698489 1360.25211 1158.600001-541.960004c-12.95 35.02 2.14 49.88 26.17 58.31-10.39 30.42-1.35 49.86 26.37 58.75h.01v.01c-9.97 29.23-1.74 48.63 25.85 57.59l-1159.200001 540.570004z"
              fill="#0056d5" fill-rule="nonzero"/>
        <path d="m34.1846302 217.35-28.87000005-64.33c-13.67-30.46-.06-66.24 30.40000005-79.92l162.8699998-73.1 78.39 174.65-162.87 73.1c-30.4699998 13.67-66.2499998.06-79.9199998-30.4z"
              fill="#fff" fill-rule="nonzero" mask="url(#a)" transform="translate(379.683859 1318.412106)"/>
        <path d="m476.730071 1376.6033h191.428234v98.80909h-191.428234z" fill="#000" fill-rule="nonzero"
              transform="matrix(.40950378 .91230842 -.91230842 .40950378 1638.98509 319.806586)"/>
        <path d="m1824.65849 796.922106 34.87 77.7 83.12-77c4.88-4.52 1.21-12.65-5.41-11.99z" fill="#000"
              fill-rule="nonzero"/>
        <path d="m1673.45849 876.592106-1069.030001 500.130004" stroke="#000" stroke-width="3"/>
        <path d="m1699.82849 935.352106-1069.030001 500.120004" stroke="#000" stroke-width="3"/>
        <path d="m1164.67849 376.172106 92.43 87.17-1.63 5.08c-14.03 43.81-67.98 59.45-103.26 29.93l-103.5-86.6z"
              fill="#ffb3a1" fill-rule="nonzero"/>
        <path d="m1056.36849 276.742106 113.37 104.2-78.61 148.1-131.420001-151.48c-22.7-21.2-32.99-52.84-26.13-83.14 7.01-30.92 27.89-45.4 64.6-41.15 21.120001 2.44 41.150001 10.75 58.190001 23.47z"
              fill="#0056d5" fill-rule="nonzero"/>
        <path d="m1151.56849 449.002106 63.02-236.08 71.04 16.73-28.52 233.69z" fill="#ffb3a1" fill-rule="nonzero"/>
        <path d="m653.968489 1104.51211 167.69-49.47 29.12 105.6-114.94 23.82c-60.49 38.53-68.57-25.83-81.87-79.95z"
              fill="#ffb3a1" fill-rule="nonzero"/>
        <path d="m1343.93849 136.642106c-5.52 3.11-10.84 6.76-15.19 11.41-4.32 4.62-6.26 11.57-8.85 17.31-6.76 15-12.81 30.7-20.85 45.06-6.85 12.25-16.43 24.23-29.89 29.46-9.54 3.71-21.87 5.37-31.81 2.18-7.23-2.31-16.35-2.75-20.87-9.83-4.18-6.54.43-12.71 2.38-19.56 6.09-21.4 11.27-42.87 18.57-63.94 4.07-11.74 8.54-23.5 15.61-33.72 6.81-9.85 15.81-17.9700003 24.96-25.7000003 10.77-9.09 22.08-17.92 35.2-23.05 3.49-1.37 10.14-2.99 9.09 3.35-.37 2.22-1.92 4.04-3.46 5.68-14.14 15.15-32.23 26.4600003-44.91 42.8400003 10.51-9.05 21.25-17.82 32.22-26.3100003 10.48-8.1 20.77-16.89 32.99-22.23 2.78-1.22 6.4-2.16 8.56-.02 1.57 1.56 1.56 4.2.58 6.18s-2.71 3.46-4.39 4.9c-16 13.65-31.17 28.2700003-45.4 43.7600003 17.8-14.02 35.8-27.8600003 55.03-39.8400003 2.08-1.29 4.24-2.59 6.66-2.96s5.18.43 6.44 2.52c1.13 1.87.81 4.35-.26 6.27-2.6 4.68-8.49 8.29-12.45 11.7200003-5.12 4.43-10.23 8.86-15.35 13.29-10.23 8.86-20.47 17.72-30.7 26.57 11.72-10.15 25.32-18.98 38.54-27.04 4.67-2.85 27.26-19.5900003 30.33-10.69.56 1.61.28 3.41-.3 5.01-1.53 4.25-4.94 7.52-8.37 10.46-7.45 6.41-15.54 12.08-24.11 16.92z"
              fill="#ffb3a1" fill-rule="nonzero"/>
        <path d="m1199.32849 107.902106c-.05.28-.09.58-.14.86-.41 2.46-2.08 10.83-2.46 12.57-4.1 19.44-9.27 38.66-15.44 57.53-5.7 17.42-9.46 31.72-24.56 43.49-19.41 15.12-42.22 4.37-58.4-9.68-10.06-8.74-18.95-18.83-26.34-29.92-10.61-15.91-24.65-22.76-33.23-40.01-9.08-18.25-14.11-38.85-12.05-59.2800003 5.36-52.99 60.46-86.53000005 109.57-63.34 13.77 6.51 27.32 13.95 38.46 24.33 6.62 6.15 14.57 12.67 19.55 21.93 3.82 7.08 5.49 16.64 6.07 23.68.49 5.95-.06 11.9200003-1.03 17.8400003z"
              fill="#ffb3a1" fill-rule="nonzero"/>
        <path d="m1169.61849 124.482106-3.91 24.37c12.09 6.63 6.41 12.15-4.57 15.39" stroke="#000"
              stroke-linecap="round" stroke-linejoin="round" stroke-width="3.2904"/>
        <g fill-rule="nonzero">
            <path d="m1189.19849 138.992106c-.43 3.54-2.44 6.21-4.49 5.97-2.05-.25-3.38-3.32-2.95-6.86s2.44-6.21 4.49-5.97c2.06.25 3.38 3.32 2.95 6.86z"
                  fill="#000"/>
            <path d="m1145.99849 129.872106c-.43 3.54-2.44 6.21-4.49 5.97-2.05-.25-3.38-3.32-2.95-6.86s2.44-6.21 4.49-5.97 3.37 3.32 2.95 6.86z"
                  fill="#000"/>
            <path d="m1139.38849 111.762106c1.49-.06 2.99-.12 4.49-.12 4.22 0 8.32 1.09 12.6.5 2.06-.28 4.28-1.02 5.3-2.84 1.05-1.88.38-4.36-1.1-5.92-3.51-3.7000003-10.28-3.9700003-15-3.4000003-6.52.7900003-13 2.8000003-18.36 6.6800003-1 .72-2.05 1.7-2 2.94.04.92.73 1.72 1.56 2.12 2.31 1.11 5.4.09 7.87.14 1.54.02 3.09-.04 4.64-.1z"
                  fill="#000"/>
            <path d="m1199.09849 109.922106c5.08.87 6.08 8.84-2.6 13.27-.4.01-.78.03-1.18.04-1.82.07-3.64.14-5.47.11-2.91-.05-6.54 1.14-9.26-.17-.97-.47-1.78-1.41-1.83-2.49-.06-1.45 1.18-2.61 2.35-3.45 5.34-3.83 11.57-6.13 17.99-7.31z"
                  fill="#000"/>
            <path d="m1199.88849 106.932106c-4.53-5.94-6.26-12.4200003-6.79-19.0700003-.53-6.76 3.07-9.71 3.85-16.47 3.82 7.08 3.37 10.66 3.96 17.7.5 5.95-.05 11.9200003-1.02 17.8400003z"
                  fill="#ee9db0"/>
            <path d="m1207.30849 128.792106c-6.81 8.69-8.35 16.83 0 23.92h29.27v-23.92z" fill="#0045aa"/>
            <path d="m1225.44849 117.772106c-8.57 16.75-8.13 34 0 51.66l108.83 5.62v-68.13z" fill="#0045aa"/>
            <path d="m1275.28849 105.092106c-14.9 25.02-14.82 50.11 0 75.26l139.76 8.19v-99.2500003z" fill="#0045aa"/>
            <ellipse cx="1415.65849" cy="138.912106" fill="#000" rx="15.16" ry="49.63"/>
            <path d="m1191.68849 139.472106c-6.81 8.69-8.35 16.83 0 23.92h29.27v-23.92z" fill="#0056d5"/>
            <path d="m1209.82849 128.452106c-8.57 16.75-8.13 34 0 51.66l108.83 5.62v-68.13z" fill="#0056d5"/>
            <path d="m1259.65849 115.772106c-14.9 25.02-14.82 50.11 0 75.26l139.76 8.19v-99.2500003z" fill="#0056d5"/>
            <ellipse cx="1400.03849" cy="149.602106" fill="#000" rx="15.16" ry="49.63"/>
            <path d="m1133.96849 174.412106c8.48 16.29 17.65 28.08 31.42 10 2.53-15.88-11.96-15.33-31.42-10z"
                  fill="#e5776c"/>
        </g>
        <path d="m1165.37849 184.422106c-9 1.88-19.8-2.63-31.42-10" stroke="#000" stroke-linecap="round"
              stroke-linejoin="round" stroke-width="3.2904"/>
        <path d="m1220.96849 175.802106c2.13-8.8 4.39-17.87 9.83-25.11 3.64-4.85 8.52-8.6 13.33-12.29 12.55-9.62 25.11-19.25 37.66-28.87 5.47-4.19 10.97-8.41 17.03-11.7000003 1.54-.83 3.38-1.62 4.98-.9.99.44 1.67 1.39 2.16 2.36 3.58 6.9700003-.04 15.6300003-5.36 21.3800003s-12.24 9.91-17.19 15.98c-8.19 10.06-9.8 23.72-13.37 36.18-5.69 19.85-23.27 54.56-45.52 60.35-25.63 6.68-5.83-48.01-3.55-57.38z"
              fill="#ffb3a1" fill-rule="nonzero"/>
        <path d="m897.228489 796.622106c-27.85 5.22-56.08 10.23-84.34 8.28s-56.98-11.6-76.73-31.9c-21.14-21.73-29.7-53.35-29.08-83.66s9.51-59.79 19.2-88.52c17.39-51.56 37.6-102.17 60.52-151.52l195.67 69.99-46.23 108.03z"
              fill="#000" fill-rule="nonzero"/>
        <path d="m873.638489 605.652106 339.660001 315.32c52.81 45.4 40.67 130.270004-22.75 159.040004l-392.760001 149.01-56.3-159.13 261.700001-87.520004-243.300001-193.45z"
              fill="#000" fill-rule="nonzero"/>
        <path d="m1031.71849 496.112106-58.490001 131.34c-15.28-7.33-150.76-3.87-240.77-44.57-14.19-23.84-22.91-65.49-27.24-92.7-1.75-10.97-2.17-22.33.79-33.03 8.67-31.32 42.69-50.02 65.95-69.47 27.51-23 36.85-56.58 59.02-83.69 22.56-27.59 49.36-34.31 75.04-59.99 19.26-19.26 40.36-25.72 67.22-26.82 2.99-.14 6.06-.19 9.2-.19l83.140001 73.13c0 13.6.78 27.41 1.87 41.15 5.92 75.3 20.8 147.82-35.73 164.84z"
              fill="#0056d5" fill-rule="nonzero"/>
        <path d="m1065.56849 290.142106 36.09-87.58-74.49-72.04c-11.23 44.55-25.47 77.32-44.780001 86.49-3.13 0-6.19.05-9.17.19 4.56 17.02 16.53 39.85 19.65 45.33 11.960001 20.98 27.870001 39.73 46.820001 54.72 7.79 6.17 16.37 11.85 26.13 13.76.54.1 1.08.2 1.62.27-1.09-13.73-1.87-27.55-1.87-41.14z"
              fill="#ffb3a1" fill-rule="nonzero"/>
        <path d="m821.658489 610.042106 473.700001-222.69c27.48-13.34 58.85-11.68 84.14 2.47 17.4 9.74 29.27 27.03 32.43 46.72l-4.52 92.5-510.180001 267.58z"
              fill="#000" fill-rule="nonzero"/>
        <path d="m1320.58849 917.522106 16.86-103.46-107.5 21.84-9 114.38 132.67 25.02z" fill="#e5776c"
              fill-rule="nonzero"/>
        <path d="m1327.77849 913.132106c1.28-.64 2.59-1.2 3.95-1.65 5.59-1.82 10.35-.07 15.9.58 8.38.97 16.73 2.36 25.08 3.59l33.96 4.98 24.74-9.48c18.06-6.73 27.5-8.65 43.42 2.22l16.66 11.37-141.36 60.11c-37.1 2.03-57.6 8.91-53.83 22.890004l-61.6 13.42-11.96-57.240004-7.95-16.27c-2.85-5.84.53-12.81 6.88-14.17 17.56-3.74 35.38-.22 52.87 2.08 3.72.49 7.25 1.17 10.89 1.95 5.62 1.21 7.14.83 11.66-2.78 7.58-6.06 15.47-11.77 23.5-17.21 2.32-1.58 4.69-3.14 7.19-4.39z"
              fill="#94baf3" fill-rule="nonzero"/>
        <path d="m1491.47849 924.742106 7.83 8.7c5.87 6.53 3.57 16.89-4.5 20.33l-125.86 53.520004-56.96 24.22-36.49 15.52c-16.43 6.99-35.18-2.58-39.16-19.98l-4.68-20.42c27.04-18.820004 75.58-27.100004 130.68-32.170004z"
              fill="#94baf3" fill-rule="nonzero"/>
        <path d="m1491.47849 924.742106-132.83 50.06c-52.52-2.67-103.22-3.95-128.71 13.93" stroke="#000"
              stroke-linecap="round" stroke-linejoin="round" stroke-width="4.1551"/>
        <path d="m1406.66849 920.632106-48.01 54.18" stroke="#000" stroke-linecap="round" stroke-linejoin="round"
              stroke-width="4.1551"/>
        <path d="m1343.18849 921.922106c-33.06 31.59-65.38 59.03-95.3 72.88-6.77 3.13-14.81.65-18.7-5.71-4.01-6.55-2.33-15.12 3.91-19.6 27.48-19.75 66.17-34.76 110.09-47.57z"
              stroke="#000" stroke-linecap="round" stroke-linejoin="round" stroke-width="4.1551"/>
        <path d="m1344.47849 922.472106c-42.16 17.69-82.16 31.76-115.05 33.99-7.44.51-14.06-4.68-15.42-12.01-1.4-7.55 3.23-14.95 10.66-16.91 32.71-8.62 74.22-8.8 119.81-5.07z"
              stroke="#000" stroke-linecap="round" stroke-linejoin="round" stroke-width="4.1551"/>
        <path d="m642.018489 1249.91211c-7.15-23.35-16.9-36.65-23.78-43.67-5.52-5.63-9.78-12.37-12.33-19.83-5.51-16.18-13.54-37.3-10.79-49.17 5.04-21.77 28.72-20.86 41.72-27.83l-.16-.19 56.01-22.66c15.01 10 15.44 45.1 6.08 97.05l21.89.5c8.74.2 16.05 6.71 17.26 15.37l8.03 57.69 18.32-6.64c13.49-4.89 29.13 3.42 35.34 18.77l3.58 8.86c3.08 7.61.23 15.94-6.36 18.61l-82.16 33.19c-17.01 6.87-36.5 1.27-47.27-13.57z"
              fill="#94baf3" fill-rule="nonzero"/>
        <path d="m647.568489 1107.10211c27.12 38.59 28.68 84.23 18.31 133.16l30.21 58.28 103.52-29.24" stroke="#000"
              stroke-linecap="round" stroke-linejoin="round" stroke-width="4.1551"/>
        <path d="m736.798489 1203.01211c-46.07 10.12-89.27 16.98-123.07 13.15-7.64-.87-13.4-7.36-13.420049-15.05-.019951-7.93 6.050049-14.57 13.950049-15.18 34.8-2.68 76.96 4.83 122.54 17.08z"
              stroke="#000" stroke-linecap="round" stroke-linejoin="round" stroke-width="4.1551"/>
        <path d="m737.708489 1203.30211c-47.1-2.65-90.55-7.66-122.07-20.45-7.13-2.89-10.93-10.69-8.88-18.11 2.11-7.64 9.75-12.41 17.52-10.87 34.25 6.79 72.83 25.37 113.43 49.43z"
              stroke="#000" stroke-linecap="round" stroke-linejoin="round" stroke-width="4.1551"/>
        <path d="m696.098489 1298.54211 49.86-41.36" stroke="#000" stroke-linecap="round" stroke-linejoin="round"
              stroke-width="4.1551"/>
        <path d="m1407.40849 529.042106-45.34 371.98-171.19 46.21 17.47-389.69z" fill="#000" fill-rule="nonzero"/>
        <path d="m902.008489 316.572106 160.120001 247.04 97.06-44.32-157.8-256.21z" fill="#f4a2a2"
              fill-rule="nonzero"/>
        <path d="m1042.05849 529.042106 45.12 77.71c19.09 32.88 41.93 63.44 68.06 91.06l124.72 131.8 67.33-40.7-218.29-312.93c-40.3-40.22-97.3-5.57-86.94 53.06z"
              fill="#ffb3a1" fill-rule="nonzero"/>
        <path d="m1013.59849 735.592106c-85.760001 41.03-170.430001 68.34-247.640001 2.55" stroke="#0056d5"
              stroke-width="2"/>
        <path d="m1003.19849 982.362106 76.25-18.95-108.480001-6.67z" fill="#0056d5" fill-rule="nonzero"/>
        <path d="m1512.31849 860.522106c-5.11-2.96-10.68-5.02-16.23-7.06-27.68-10.19-55.35-20.37-83.03-30.56-11.15-4.1-21.47-9.8-31.97-15.31-10.61-5.56-23.95-11.86-33.8-18.68l-76.6 26.95c6.03 14.95 17.21 27.45 30.31 36.83s28.09 15.84 43.37 20.95c10.17 3.4 19.28 4.41 29.94 5.6 2.85.32 5.73.57 8.47 1.4 1.56.47 3.06 1.13 4.55 1.79 18.47 8.12 36.94 16.24 55.4 24.36 10.89 4.79 22.69 9.68 34.33 7.2 2.46-.53 5.41-2.37 4.67-4.77-.36-1.16-1.49-1.89-2.54-2.5-5.76-3.34-11.69-6.32-17.72-9.13 3.14 1.4 6.28 2.8 9.44 4.2 5.73 2.54 11.66 5.13 17.93 5.19 1.94.02 3.95-.24 5.59-1.27s2.8-3 2.41-4.9c-.32-1.6-1.61-2.8-2.86-3.84-5.74-4.82-12.12-8.82-18.51-12.73-12.04-7.36-24.24-14.45-36.58-21.3 12.36 6.25 24.95 11.92 37.65 17.89 8.59 4.04 17.38 8.11 26.82 9.16 2.56.29 5.27.32 7.58-.84s4.03-3.82 3.35-6.3c-.57-2.07-2.52-3.41-4.34-4.54-7.27-4.5-14.78-8.63-22.47-12.37 7.07 2.45 13.62 3.01 21.07 3.78 1.56.16 3.17.28 4.68-.17s2.9-1.6 3.21-3.14c.5-2.53-1.9-4.61-4.12-5.89z"
              fill="#ffb3a1" fill-rule="nonzero"/>
        <path d="m1432.19849 839.982106 55.29 25.95" stroke="#000" stroke-linecap="round" stroke-linejoin="round"
              stroke-width="3.2904"/>
        <path d="m1486.81849 840.462106c1.01.59 2.07 1.27 2.53 2.35.75 1.78-.6 3.88-2.38 4.63s-3.8.51-5.7.2c-8.66-1.4-17.11-3.87-25.53-6.35-18.97-5.57-37.95-11.13-56.92-16.7-5.73-1.68-11.48-3.37-16.92-5.84-4.21-1.91-9.13-4.99-11.1-9.39-3.68-8.19 4.32-4.85 9.48-3.82 12.34 2.45 24.66 5.01 36.86 8.07 24.19 6.07 48.1 14.13 69.68 26.85z"
              fill="#ffb3a1" fill-rule="nonzero"/>
        <path d="m973.218489 217.192106c-30.19 2.43-76.98 34.92-84.64 64.22-2.11 8.08-3.28 16.4-3.44 24.75-.51 27.31 9.45 53.59 19.25 79.08 14.8 38.48 51.77 122.42 66.58 160.91l177.060001-73.53-111.15-182.47c-27.32-48.41-34.07-75.35-63.660001-72.96z"
              fill="#0056d5" fill-rule="nonzero"/>
        <path d="m1148.02849 472.612106-78.92-129.56" stroke="#000" stroke-linecap="round" stroke-linejoin="round"
              stroke-width="3.2904"/>
        <path d="m888.578489 281.412106c-2.11 8.08-3.28 16.4-3.44 24.75-.51 27.31 9.45 53.59 19.25 79.08 14.8 38.48 49.7 117.1 64.5 155.58"
              stroke="#000" stroke-linecap="round" stroke-linejoin="round" stroke-width="3.2904"/>
        <path d="m1086.60849 135.472106c9.44-10.3 16.47-22.92 20.87-36.6100003 1.17-3.65 5.59-.6 8.51.01 3.83.79 7.76 1.11 11.66.97 7.81-.28 15.58-2.4 22.37-6.28 8.53-4.88 15.82-12.46 25.42-14.53 3.77-.82 7.68-.72 11.48-1.4 2.63-.47 5.24-1.39 7.37-3.05 2.91-2.27 2.64-3.39 1.52-6.64-1.95-5.66-4.7-11.1-7.89-16.16-6.52-10.36-15.29-19.31-25.56-25.98-16.79-10.9-37.8-20.72000005-57.59-24.33000005-14.62-2.67-30.18-1.88-44.03 3.79-13.45 5.50000005-19.48 15.84000005-30.92 23.48000005-11.84 7.91-28.06 2.27-41.750001 6.22-17.43 5.03-27.51 24.47-44.74 30.15-12.13 4.01-26.96.89-36.69 9.17-8.57 7.28-8.47 22.44.19 29.6100003 5.21 4.32 12.39 5.69 17.55 10.07 12.89 10.95 7.8 35.1 21.82 44.55 8.27 5.58 19.53 3.23 28.94 6.53 10.81 3.79 17.52 14.23 24.970001 22.92 5.06 5.91 11.03 11.39 18.38 13.93s16.33 1.55 21.71-4.08c5.98-6.26 5.97-15.88 7.48-24.41 3.24-18.32 27.12-25.05 38.93-37.93z"
              fill="#ee9db0" fill-rule="nonzero"/>
        <circle cx="1055.87265" cy="120.040024" fill="#ffb3a1" fill-rule="nonzero" r="40.379613"
                transform="matrix(.70710678 -.70710678 .70710678 .70710678 224.376825 781.773622)"/>
        <path d="m1024.47849 120.032106c0-17.35 14.06-31.4100003 31.41-31.4100003s31.41 14.0600003 31.41 31.4100003"
              stroke="#000" stroke-linecap="round" stroke-linejoin="round" stroke-width="3.2904"/>
        <path d="m1066.21849 90.372106 2.89 43.08" stroke="#000" stroke-linecap="round" stroke-linejoin="round"
              stroke-width="3.2904"/>
        <path d="m1098.32849 212.672106-26.35-29.92 15.31 54.67z" fill="#e5776c" fill-rule="nonzero"/>
        <path d="m1054.76849 552.262106 49.13-61.32-68.94 28.63z" fill="#e5776c" fill-rule="nonzero"/>
        <path d="m752.368489 1181.03211v-80.39l26.5 74.9z" fill="#e5776c" fill-rule="nonzero"/>
        <circle cx="311.873526" cy="311.873526" fill="#0056d5" fill-rule="nonzero" mask="url(#b)" r="220.527885"
                transform="matrix(.70710678 -.70710678 .70710678 .70710678 -129.182244 604.656897)"/>
        <path d="m1394.29849 1654.41211-68.08-101.04-75.63 55.12 34.2-81.39-89.4-15.28 84.11-33.49-26.35-61.38 61.18 26.83 27.76-122.85 20.96 128.54 84.34-15.43-58.4 57.08 70.85 43.15-76.06 2.69z"
              fill="#ffcc3e" fill-rule="nonzero"/>
        <path d="m688.218489 208.742106-32.82-48.72-36.47 26.58 16.49-39.25-43.11-7.37 40.55-16.14-12.7-29.6000003 29.5 12.9400003 13.39-59.2400003 10.11 61.9800003 40.66-7.44-28.16 27.52 34.17 20.81-36.68 1.3z"
              fill="#0056d5" fill-rule="nonzero"/>
        <circle cx="55.89" cy="55.89" fill="#0056d5" fill-rule="nonzero" mask="url(#c)" r="55.89"
                transform="translate(1513.078489 528.862106)"/>
    </g>
</svg>