<svg enable-background="new 0 0 2970 2100" viewBox="0 0 2970 2100" xmlns="http://www.w3.org/2000/svg">
    <path d="m2302.29 839.21h-856.86c-15.52 0-28.1-12.58-28.1-28.1v-550.74c0-15.52 12.58-28.1 28.1-28.1h856.86c15.52 0 28.1 12.58 28.1 28.1v550.73c0 15.53-12.58 28.11-28.1 28.11z"
          fill="#fff"/>
    <path d="m2302.29 839.21h-856.86c-15.52 0-28.1-12.58-28.1-28.1v-550.74c0-15.52 12.58-28.1 28.1-28.1h856.86c15.52 0 28.1 12.58 28.1 28.1v550.73c0 15.53-12.58 28.11-28.1 28.11z"
          style="fill:none;stroke:#000;stroke-width:4.2964;stroke-linecap:round;stroke-linejoin:round;stroke-miterlimit:10"/>
    <path d="m1486.9 739.52h782.62l-139.68-235.26c-18.8-31.66-57.92-37.04-82.82-11.4l-153.15 157.72-206.72-243.2c-27.84-32.76-76.16-21.94-90.98 20.37z"
          fill="#d1e1fa"/>
    <ellipse cx="1912.99" cy="426.47" fill="#d1e1fa" rx="49.28" ry="49.28"
             transform="matrix(.9732 -.2298 .2298 .9732 -46.8089 450.9237)"/>
    <path d="m1288.15 854.05v599.44c0 14.85-12.04 26.88-26.89 26.88h-971.15c-14.85 0-26.89-12.03-26.89-26.88v-599.44c0-14.85 12.04-26.89 26.89-26.89h971.15c14.85 0 26.89 12.04 26.89 26.89z"
          fill="#0056d5"/>
    <path d="m1288.15 854.05v63.15h-1024.93v-63.15c0-14.85 12.04-26.89 26.89-26.89h971.15c14.85 0 26.89 12.04 26.89 26.89z"
          fill="#fff"/>
    <path d="m1288.15 854.05v63.15h-1024.93v-63.15c0-14.85 12.04-26.89 26.89-26.89h971.15c14.85 0 26.89 12.04 26.89 26.89z"
          style="fill:none;stroke:#000;stroke-width:4.2964;stroke-linecap:round;stroke-linejoin:round;stroke-miterlimit:10"/>
    <path d="m1288.15 854.05v599.44c0 14.85-12.04 26.88-26.89 26.88h-971.15c-14.85 0-26.89-12.03-26.89-26.88v-599.44c0-14.85 12.04-26.89 26.89-26.89h971.15c14.85 0 26.89 12.04 26.89 26.89z"
          style="fill:none;stroke:#000;stroke-width:4.2964;stroke-linecap:round;stroke-linejoin:round;stroke-miterlimit:10"/>
    <circle cx="748.15" cy="1166.75" fill="#fff" r="149.21"/>
    <path d="m737.53 1093.31 74.02 60.11c7.95 6.46 8.02 18.57.14 25.12l-74.02 61.52c-10.59 8.8-26.65 1.27-26.65-12.5v-121.63c.01-13.68 15.89-21.25 26.51-12.62z"/>
    <ellipse cx="1230.51" cy="873.79" rx="10.29" ry="10.29"
             transform="matrix(.9239 -.3827 .3827 .9239 -240.7195 537.412)"/>
    <ellipse cx="1135.97" cy="873.79" rx="10.29" ry="10.29"
             transform="matrix(.9239 -.3827 .3827 .9239 -247.9162 501.2322)"/>
    <ellipse cx="1183.24" cy="873.79" rx="10.29" ry="10.29"
             transform="matrix(.2298 -.9732 .9732 .2298 60.9692 1824.627)"/>
    <path d="m2382.51 407.03h160.42c79.1 0 143.22 64.12 143.22 143.22 0 79.1-64.12 143.22-143.22 143.22h-138.23l-33.38 78.95-26.52-83.98c-60.8-16.56-105.51-72.15-105.51-138.19-.01-79.09 64.12-143.22 143.22-143.22z"
          fill="#fff"/>
    <path d="m2382.51 407.03h160.42c79.1 0 143.22 64.12 143.22 143.22 0 79.1-64.12 143.22-143.22 143.22h-138.23l-33.38 78.95-26.52-83.98c-60.8-16.56-105.51-72.15-105.51-138.19-.01-79.09 64.12-143.22 143.22-143.22z"
          style="fill:none;stroke:#000;stroke-width:4.2964;stroke-linecap:round;stroke-linejoin:round;stroke-miterlimit:10"/>
    <ellipse cx="2516.71" cy="547.74" rx="12" ry="12" transform="matrix(.7071 -.7071 .7071 .7071 349.819 1940.0111)"/>
    <ellipse cx="2463.28" cy="547.74" rx="12" ry="12" transform="matrix(.7071 -.7071 .7071 .7071 334.1702 1902.2314)"/>
    <ellipse cx="2409.85" cy="547.74" rx="12" ry="12" transform="matrix(.7071 -.7071 .7071 .7071 318.5213 1864.4519)"/>
    <path d="m2164.54 886.16c-29.13 44.34-89.67 55.74-142.51 51.09s-105.07-21.19-157.91-16.44c-29.55 2.65-59.15 11.95-88.38 6.85-47.28-8.24-81.75-51.79-75.08-99.32 3.32-23.61 30.55-37.35 54.32-35.46 23.77 1.88 45.01 14.7 66.36 25.32 21.35 10.61 45.77 19.42 68.65 12.73 20.88-6.11 35.92-23.72 53.32-36.76 42.38-31.75 103.8-35.52 149.74-9.2l18.56 26.27-62.72 33.22 79.42-9.57z"/>
    <path d="m2161.83 1854.15h-592.07l66.88-220.88 455.83-3.76c54.5 83.51 77.24 158.29 69.36 224.64z"/>
    <path d="m2101.88 1605.05-9.41 24.46-451.59 1.88c-35.82-11.63-42.51-96.79-52.69-173.12-118.54-54.56-101.6-105.37-76.91-203.8l81.06-130.9 22.26-35.95 192.73-27.02 27.28-8.18 6.27-1.88 203.29 149.67 66.76 177.81c.11 96.05 21.01 177.54-9.05 227.03z"
          fill="#d1e1fa"/>
    <path d="m2515.95 1780.02c-2.77-2.54-231.14-218.53-375.92-355.46l183.22-174.61 348.09 357.69c105.72 98.01-32.68 284.94-155.39 172.38z"
          fill="#ffb3a1"/>
    <path d="m2323.26 1249.96-183.22 174.61c-8.43-7.97-16.57-15.67-24.36-23.05-1.95-1.84-3.88-3.66-5.79-5.47-14.69-13.89-28.05-26.53-39.64-37.5-.59-.56-1.18-1.11-1.76-1.67-7.56-7.15-14.35-13.56-20.21-19.1-.84-.8-1.65-1.57-2.46-2.34-.92-.86-1.81-1.71-2.68-2.53-.72-.69-1.43-1.36-2.12-2.01-.5-.46-.97-.91-1.44-1.36-.73-.69-1.43-1.35-2.1-2-6.97-6.58-11.56-10.93-13.31-12.59-.18-.17-.32-.3-.44-.41-.24-.21-.35-.33-.35-.33l-182.5-263.66c129.98-138.05 268.74-75.08 413.65 128.78z"
          fill="#d1e1fa"/>
    <path d="m2651.64 1587.39-746.74-271.55 3 217.52 675.86 281.6z" fill="#ffb3a1"/>
    <path d="m1915.12 1350.19c-.28-3.06-.08-29.48-2.81-30.91-26.98-14.09-59.99-13.54-88.71-3.46s-53.64 28.87-75.6 49.95c-38.34 50.57-63.4 142.15-82.87 250.97-6.7 36.61-10.98 73.67-12.8 110.85-.91 18.46-1.15 37.37 4.59 54.94 3.41 10.45 10.93 21.53 21.92 21.72 7.22.13 13.77-4.77 17.63-10.86 3.86-6.1 5.52-13.29 7.12-20.33 13.13-57.9 26.27-115.81 39.4-173.71-6.42 33.68-7.78 64.92-7.92 99.21-.08 19.74 1.56 41.23 14.75 55.93 2.41 2.69 5.23 5.12 8.6 6.43 7.49 2.93 16.12-.25 22.49-5.17 18.62-14.39 22.96-40.25 25.91-63.6 3.44-27.24 6.89-54.48 10.33-81.71-6.51 33.42-9.83 65.17-9.76 99.22.02 8.87.29 17.9 3.16 26.3s8.76 16.17 17.07 19.28c10.57 3.95 22.89-.59 30.83-8.62 7.93-8.02 12.23-18.91 15.42-29.73-10.87 32.28 38.21 53.65 57.6 26.97 5.87-8.08 7.45-18.41 8.85-28.29 3.17-22.33 6.34-44.66 9.52-66.99l9.35-140.9z"
          fill="#ffb3a1"/>
    <path d="m1807.38 1709.66 9.76-99.23"
          style="fill:none;stroke:#000;stroke-width:4.2964;stroke-linecap:round;stroke-linejoin:round;stroke-miterlimit:10"/>
    <path d="m1873.86 1716.88 4.92-112.61"
          style="fill:none;stroke:#000;stroke-width:4.2964;stroke-linecap:round;stroke-linejoin:round;stroke-miterlimit:10"/>
    <path d="m1648.65 1469.44c-8.33 8.07-16.71 16.18-23.65 25.47-7.67 10.26-13.46 21.76-19.56 33.02-20.02 36.98-43.7 71.98-70.59 104.31-8.72 10.48-18.35 24.18-12.51 36.5 2.7 5.69 8.31 9.54 14.23 11.67 16.76 6.02 35.86-.32 49.93-11.23s24.32-25.87 35.25-39.92c34.94-44.91 78.53-82.17 120.35-120.77 20.55-18.96 41.39-39.28 51.04-65.53 4.56-12.4 6.4-25.65 7.29-38.83 1.15-17 .2-39.2-16.89-48.32-18.5-9.87-23.84 3.52-33.89 15.56-29.56 35.36-67.86 65.99-101 98.07z"
          fill="#ffb3a1"/>
    <path d="m1614.6 1087.63c-130.36-104.68-309.36-113.71-347.33 132.57l-267.61 492.33c-20.22 102.15 42.51 176.6 124.69 147.45 27.91-9.9 51.21-29.71 66.28-55.21z"
          fill="#ffb3a1"/>
    <path d="m1614.59 1087.63-16.88 47.03-61.06 170.2-10.54 15.93-104.9 158.55-205.97-163.43 52.03-95.71c34.68-224.88 186.95-236.89 312.38-157.58 11.93 7.54 23.62 15.92 34.94 25.01z"
          fill="#d1e1fa"/>
    <path d="m1834.6 1052.43c-2.14 5.72-4.35 11.4-6.67 17.05-13.83 33.71-31.91 66.6-59.27 90.66-27.35 24.05-65.3 38.17-100.84 30.2-29.52-6.62-54.58-27.94-69.36-54.33-.25-.45-.51-.9-.74-1.36-1.97-3.6-3.76-7.3-5.38-11.07-8.24-19.1-12.13-40.02-12.69-60.96 11.94 7.54 23.63 15.92 34.95 25.01l192.73-27.02z"
          fill="#ffb3a1"/>
    <path d="m1616.27 996.97c-20.45 19.29-54.34 34.83-82.51 36.74-50.81 3.44-91.19-28.38-106.96-75.43-6.77-20.22-9.99-41.46-10.78-62.73-.38-10.09-1.22-20.41-1.71-30.69-.4-8.53.07-26.98.14-27.77 2.92-35.44 19.95-69.81 47.25-92.78 35.11-29.53 85.95-39.13 129.4-24.42 9.24 3.13 18.15 7.28 26.38 12.54 10.8 6.9 20.32 15.66 28.99 25.08 15.53 16.85 28.71 36.29 35.73 58.11 20.28 62.89-21.02 138.98-65.93 181.35z"
          fill="#ffb3a1"/>
    <path d="m1536.66 1018.15 67.69 82.99c49.33 79 113.44 83.35 202.97-40.52-51.82-22.91-103.05-72.84-153.85-142.81z"
          fill="#ffb3a1"/>
    <ellipse cx="1519.43" cy="872.39" rx="8.16" ry="10.89"/>
    <ellipse cx="1455.27" cy="885.13" rx="8.16" ry="10.89"/>
    <path d="m1522.68 937.43c-5.57 7.72-12.08 10.7-21.69 10.2-6.29-.32-13.38-2.35-18.01-6.89l43.42-22.72c1.76 5.9.33 13.79-3.72 19.41z"/>
    <path d="m1526.4 918.02-43.42 22.72c-1.31-1.29-2.42-2.78-3.27-4.48-3.99-8.06 4.98-14.77 11.22-17.95 6.38-3.25 13.09-5.84 20-7.71 8.73-2.38 13.7 1.52 15.47 7.42z"
          fill="#fff"/>
    <path d="m1543.43 833.61c2.38-.9 4.89-2.1 6.07-4.35 1.38-2.63.48-6.01-1.47-8.26-1.95-2.24-4.74-3.56-7.51-4.62-14.45-5.54-30.85-5.83-45.49-.79-4.93 1.7-9.8 4.07-13.26 7.97s-5.28 9.57-3.53 14.48c4.18 11.7 19.25 4.07 27.63 2.89 12.63-1.77 25.55-2.76 37.56-7.32z"/>
    <path d="m1449.58 856.22c-1.19 2.26-3.7 3.45-6.07 4.35-9.37 3.56-19.29 4.94-29.19 6.22-19.9-7.16-10.98-26.2.14-27.77 8.89-.3 17.83 1.16 26.13 4.34 2.78 1.06 5.57 2.38 7.52 4.62 1.94 2.22 2.85 5.6 1.47 8.24z"/>
    <path d="m1665.72 734.21c15.78-2.51 32.68 4.01 42.67 16.47 8.29 10.34 11.7 23.92 11.92 37.17s-2.51 26.35-5.35 39.29c-4.78 21.82-9.89 43.57-15.34 65.23-2.66 10.59-5.41 21.16-8.23 31.71-1.97 7.36-1.28 16.71-5.51 23.2-1.79 2.73-4.14 4.79-7.41 4.72-11.23-.27-22.11-4.63-31.37-11-11.07-7.62-22.26-18.88-29.52-30.24-5.47-8.57-4.93-18.38-9.26-27.57-13.8 2.95-29.3-1.94-35.62-15.58-5.54-11.95-2.41-25.86-1.18-38.98 2.15-22.92-2.03-46.4-11.94-67.18-1.46 11.11-1.99 22.33-1.58 33.53-38 5.46-75.71 12.95-112.92 22.42-18.08 4.6-36.14 11.76-54.38 15.36-17.06 3.37-16.04-14.25-10.98-27.05 3.61-9.12 9.2-17.46 11.65-26.96 3.27-12.68.68-26.44 4.75-38.89 4.41-13.52 16.3-23.61 29.47-28.95 13.18-5.34 27.64-6.52 41.85-6.95 18.06-.55 36.13 1.14 54.12.4 17.76-.73 34.59-7.53 51.99-10.46 17.27-2.91 35.45-1.75 51.59 5.05 16.13 6.79 33.96 19.04 40.58 35.26z"/>
    <ellipse cx="1665.13" cy="873.53" fill="#ffb3a1" rx="70.95" ry="70.95"
             transform="matrix(.7071 -.7071 .7071 .7071 -129.9712 1433.2761)"/>
    <path d="m1634.51 908.12c-9.56-8.46-15.58-20.83-15.58-34.6 0-25.52 20.69-46.2 46.2-46.2s46.2 20.69 46.2 46.2"
          style="fill:none;stroke:#000;stroke-width:4.2964;stroke-linecap:round;stroke-linejoin:round;stroke-miterlimit:10"/>
    <path d="m1650.32 829.76 22.76 78.36"
          style="fill:none;stroke:#000;stroke-width:4.2964;stroke-linecap:round;stroke-linejoin:round;stroke-miterlimit:10"/>
    <path d="m1650.97 861.65c-.33 5.01.77 9.99 1.46 14.97.94 6.77-1.55 11.15-4.39 17.18-1.52 3.23-2.75 6.83-2 10.32 1.39 6.49 10.57 8.09 15.99 6.53 2.08-.6 3.99-1.71 5.74-2.99 14.1-10.38 23.36-44.05 10.69-58.45-10.44-11.88-26.63-.62-27.49 12.44z"
          fill="#fff"/>
    <path d="m1481.34 917.8c-13.99-.7-27.91-2.84-41.46-6.37-3.51-.91-7.09-1.97-9.9-4.26s-4.67-6.12-3.62-9.59c1.64-5.44 8.68-7.28 14.34-6.78 16.96 1.51 27.35 4.23 43.8 5.43z"
          fill="#ffb3a1"/>
    <path d="m1481.34 917.8c-13.99-.7-27.91-2.84-41.46-6.37-3.51-.91-7.09-1.97-9.9-4.26s-4.67-6.12-3.62-9.59c1.64-5.44 8.68-7.28 14.34-6.78 16.96 1.51 27.35 4.23 43.8 5.43"
          style="fill:none;stroke:#000;stroke-width:4.2964;stroke-linecap:round;stroke-linejoin:round;stroke-miterlimit:10"/>
    <path d="m2161.83 1407.7 454.22 166.63"
          style="fill:none;stroke:#000;stroke-width:4.2964;stroke-linecap:round;stroke-linejoin:round;stroke-miterlimit:10"/>
    <path d="m1579.64 1070.85 24.71 30.29"
          style="fill:none;stroke:#000;stroke-width:4.2964;stroke-linecap:round;stroke-linejoin:round;stroke-miterlimit:10"/>
    <path d="m1547.76 1031.76 41.16-28.47-25.83 47.26z"/>
    <path d="m1495.01 1367.81c-7.14-44.51 13.98-97.03 31.39-148.5"
          style="fill:none;stroke:#000;stroke-width:4.2964;stroke-linecap:round;stroke-linejoin:round;stroke-miterlimit:10"/>
    <path d="m1065.49 1319.28c-63.98 30.85-76.6 184.16-65.83 393.25l197.24 43.21 48.84-313.51z" fill="#f7bbba"/>
    <path d="m1062.67 1350.19c.28-3.06.08-29.48 2.81-30.91 26.98-14.09 59.99-13.54 88.71-3.46s53.64 28.87 75.6 49.95c38.34 50.57 63.4 142.15 82.87 250.97 6.7 36.61 10.98 73.67 12.8 110.85.91 18.46 1.15 37.37-4.59 54.94-3.41 10.45-10.93 21.53-21.92 21.72-7.22.13-13.77-4.77-17.63-10.86-3.86-6.1-5.52-13.29-7.12-20.33-13.13-57.9-26.27-115.81-39.4-173.71 6.42 33.68 7.78 64.92 7.92 99.21.08 19.74-1.56 41.23-14.75 55.93-2.41 2.69-5.23 5.12-8.6 6.43-7.49 2.93-16.12-.25-22.49-5.17-18.62-14.39-22.96-40.25-25.91-63.6-3.44-27.24-6.89-54.48-10.33-81.71 6.51 33.42 9.83 65.17 9.76 99.22-.02 8.87-.29 17.9-3.16 26.3-2.88 8.39-8.76 16.17-17.07 19.28-10.57 3.95-22.89-.59-30.83-8.62-7.93-8.02-12.23-18.91-15.42-29.73 10.87 32.28-38.21 53.65-57.6 26.97-5.87-8.08-7.45-18.41-8.85-28.29-3.17-22.33-6.34-44.66-9.52-66.99l-9.35-140.9z"
          fill="#ffb3a1"/>
    <path d="m1234.81 1599.35c6.42 33.68 7.78 64.92 7.92 99.21.08 19.74-1.56 41.23-14.75 55.93-2.41 2.69-5.23 5.12-8.6 6.43-7.49 2.93-16.12-.25-22.49-5.17-18.62-14.39-22.96-40.25-25.91-63.6-3.44-27.24-6.89-54.48-10.33-81.71 6.51 33.42 9.83 65.17 9.76 99.22-.02 8.87-.29 17.9-3.16 26.3-2.88 8.39-8.76 16.17-17.07 19.28-10.57 3.95-22.89-.59-30.83-8.62-7.93-8.02-12.23-18.91-15.42-29.73 10.87 32.28-38.21 53.65-57.6 26.97-5.87-8.08-7.45-18.41-8.85-28.29-3.17-22.33-6.34-44.66-9.52-66.99l-9.35-140.9"
          style="fill:none;stroke:#000;stroke-width:4.2964;stroke-linecap:round;stroke-linejoin:round;stroke-miterlimit:10"/>
    <path d="m1170.41 1709.66-9.76-99.23"
          style="fill:none;stroke:#231f20;stroke-width:4.2964;stroke-linecap:round;stroke-linejoin:round;stroke-miterlimit:10"/>
    <path d="m1103.93 1716.88-4.91-112.61"
          style="fill:none;stroke:#000;stroke-width:4.2964;stroke-linecap:round;stroke-linejoin:round;stroke-miterlimit:10"/>
    <path d="m1329.14 1469.44c8.33 8.07 16.71 16.18 23.65 25.47 7.67 10.26 13.46 21.76 19.56 33.02 20.02 36.98 43.7 71.98 70.59 104.31 8.72 10.48 18.35 24.18 12.51 36.5-2.7 5.69-8.31 9.54-14.23 11.67-16.76 6.02-35.86-.32-49.93-11.23s-24.32-25.87-35.25-39.92c-34.94-44.91-78.53-82.17-120.35-120.77-20.55-18.96-41.39-39.28-51.04-65.53-4.56-12.4-6.4-25.65-7.29-38.83-1.15-17-.2-39.2 16.89-48.32 18.5-9.87 23.84 3.52 33.89 15.56 29.56 35.36 67.87 65.99 101 98.07z"
          fill="#ffb3a1"/>
    <path d="m1201.33 1341.51 26.82 29.85c29.55 35.37 67.86 66 101 98.08 8.33 8.07 16.71 16.18 23.65 25.47l8.41 12.76"
          style="fill:none;stroke:#000;stroke-width:4.2964;stroke-linecap:round;stroke-linejoin:round;stroke-miterlimit:10"/>
    <path d="m986.99 1817.83h758.48v49.9h-758.48z" fill="#fff"/>
    <path d="m986.99 1817.83h758.48v49.9h-758.48z"
          style="fill:none;stroke:#000;stroke-width:4.2964;stroke-linecap:round;stroke-linejoin:round;stroke-miterlimit:10"/>
    <path d="m1492.82 1867.73h-668.23l-139.58-515.02h668.23z" fill="#fff"/>
    <path d="m1492.82 1867.73h-668.23l-139.58-515.02h668.23z"
          style="fill:none;stroke:#000;stroke-width:4.2964;stroke-linecap:round;stroke-linejoin:round;stroke-miterlimit:10"/>
    <circle cx="1533.18" cy="1841.56" r="8.08"
            style="fill:none;stroke:#000;stroke-width:4.2964;stroke-linecap:round;stroke-linejoin:round;stroke-miterlimit:10"/>
    <path d="m1573.28 1837.52h31.37v12.12h-31.37z"
          style="fill:none;stroke:#000;stroke-width:4.2964;stroke-linecap:round;stroke-linejoin:round;stroke-miterlimit:10"/>
    <path d="m1615.85 1837.52h31.37v12.12h-31.37z"
          style="fill:none;stroke:#000;stroke-width:4.2964;stroke-linecap:round;stroke-linejoin:round;stroke-miterlimit:10"/>
    <path d="m1302.82 697.9h-852.96c-22.34 0-40.46-18.11-40.46-40.46v-198.91c0-22.34 18.11-40.46 40.46-40.46h852.96c22.34 0 40.46 18.11 40.46 40.46v198.91c0 22.35-18.11 40.46-40.46 40.46z"
          fill="#0056d5"/>
    <ellipse cx="534.15" cy="561.36" fill="#d1e1fa" rx="79.23" ry="79.23"
             transform="matrix(.7071 -.7071 .7071 .7071 -240.4932 542.1161)"/>
    <path d="m535.4 575.34h-2.89c-8.21 0-14.87-6.66-14.87-14.87v-31.24c0-8.21 6.66-14.87 14.87-14.87h2.89c8.21 0 14.87 6.66 14.87 14.87v31.24c-.01 8.21-6.66 14.87-14.87 14.87z"
          fill="#0045aa"/>
    <path d="m531.91 581.55h4.56v28.74h-4.56z" fill="#0045aa"/>
    <path d="m556.33 548.54v12.3c0 11.22-9.13 20.35-20.35 20.35h-4.25c-11.22 0-20.35-9.13-20.35-20.35v-12.3h-3.04v12.3c0 12.9 10.49 23.39 23.4 23.39h4.25c12.9 0 23.4-10.49 23.4-23.39v-12.3z"
          fill="#0045aa"/>
    <path d="m521.62 605.83h24.66v4.47h-24.66z" fill="#0045aa"/>
    <g fill="#fff">
        <path d="m647.09 497.3h17.94v131.48h-17.94z"/>
        <path d="m683.17 520.34h17.94v108.45h-17.94z"/>
        <path d="m791.41 520.34h17.94v108.45h-17.94z"/>
        <path d="m1116.12 520.34h17.94v108.45h-17.94z"/>
        <path d="m863.56 548.44h17.94v80.35h-17.94z"/>
        <path d="m899.64 558.55h17.94v70.24h-17.94z"/>
        <path d="m1080.04 558.55h17.94v70.24h-17.94z"/>
        <path d="m1188.28 558.55h17.94v70.24h-17.94z"/>
        <path d="m827.48 496.74h17.94v132.05h-17.94z"/>
        <path d="m935.72 496.74h17.94v132.05h-17.94z"/>
        <path d="m1043.96 496.74h17.94v132.05h-17.94z"/>
        <path d="m1224.36 496.74h17.94v132.05h-17.94z"/>
        <path d="m1007.88 478.2h17.94v150.59h-17.94z"/>
        <path d="m1260.44 478.2h17.94v150.59h-17.94z"/>
        <path d="m971.8 496.74h17.94v132.05h-17.94z"/>
        <path d="m719.25 550.68h17.94v78.1h-17.94z"/>
        <path d="m755.33 584.96h17.94v43.83h-17.94z"/>
        <path d="m1152.2 584.96h17.94v43.83h-17.94z"/>
    </g>
    <circle cx="2462.71" cy="1070.85" fill="#0045aa" r="116.74"/>
    <path d="m2456.44 1004.52 67.49 54.81c7.25 5.89 7.31 16.94.13 22.91l-67.49 56.09c-9.66 8.03-24.3 1.16-24.3-11.4v-110.9c0-12.48 14.48-19.38 24.17-11.51z"
          fill="#fff"/>
    <path d="m611.43 1452.15h160.42c79.1 0 143.22 64.12 143.22 143.22 0 79.1-64.12 143.22-143.22 143.22h-138.23l-33.38 78.95-26.52-83.98c-60.8-16.56-105.5-72.15-105.5-138.19-.01-79.1 64.11-143.22 143.21-143.22z"
          fill="#fff"/>
    <path d="m611.43 1452.15h160.42c79.1 0 143.22 64.12 143.22 143.22 0 79.1-64.12 143.22-143.22 143.22h-138.23l-33.38 78.95-26.52-83.98c-60.8-16.56-105.5-72.15-105.5-138.19-.01-79.1 64.11-143.22 143.21-143.22z"
          style="fill:none;stroke:#000;stroke-width:4.2964;stroke-linecap:round;stroke-linejoin:round;stroke-miterlimit:10"/>
    <ellipse cx="745.64" cy="1592.85" rx="12" ry="12" transform="matrix(.7071 -.7071 .7071 .7071 -907.9241 993.782)"/>
    <ellipse cx="692.21" cy="1592.85" rx="12" ry="12"
             transform="matrix(.5105 -.8599 .8599 .5105 -1030.8317 1374.9999)"/>
    <ellipse cx="638.78" cy="1592.85" rx="12" ry="12" transform="matrix(.7071 -.7071 .7071 .7071 -939.2217 918.2228)"/>
</svg>