<svg width="320" height="213" viewBox="0 0 320 213" fill="none" xmlns="http://www.w3.org/2000/svg">
    <rect width="320" height="213" rx="12" fill="white"/>
    <path d="M20.798 69V59.984H22.688V63.764H26.622V59.984H28.512V69H26.622V65.22H22.688V69H20.798ZM33.4265 69.14C32.1852 69.14 31.2752 68.8413 30.6965 68.244C30.1179 67.6373 29.8285 66.7833 29.8285 65.682C29.8285 64.5807 30.1179 63.7313 30.6965 63.134C31.2845 62.5273 32.1945 62.224 33.4265 62.224C34.6679 62.224 35.5779 62.5273 36.1565 63.134C36.7445 63.7313 37.0385 64.5807 37.0385 65.682C37.0385 66.7833 36.7492 67.6373 36.1705 68.244C35.5919 68.8413 34.6772 69.14 33.4265 69.14ZM33.4265 67.53C34.0332 67.53 34.4672 67.3947 34.7285 67.124C34.9899 66.844 35.1205 66.3633 35.1205 65.682C35.1205 65.0007 34.9899 64.5247 34.7285 64.254C34.4672 63.974 34.0332 63.834 33.4265 63.834C32.8292 63.834 32.3999 63.974 32.1385 64.254C31.8772 64.5247 31.7465 65.0007 31.7465 65.682C31.7465 66.3633 31.8772 66.844 32.1385 67.124C32.3999 67.3947 32.8292 67.53 33.4265 67.53ZM39.1938 69L37.4438 62.364H39.3338L40.3418 66.676L41.4478 63.218V62.364H42.8898L44.1498 66.676L45.1298 62.364H47.0058L45.2698 69H43.5338L42.2598 65.122L40.9578 69H39.1938ZM53.2437 69.14C52.5997 69.14 52.1283 68.9907 51.8297 68.692C51.5403 68.3933 51.3957 67.9173 51.3957 67.264V59.564H53.2857V67.11C53.2857 67.3433 53.3323 67.5067 53.4257 67.6C53.519 67.684 53.6543 67.726 53.8317 67.726C54.0743 67.726 54.2937 67.6933 54.4897 67.628V68.93C54.135 69.07 53.7197 69.14 53.2437 69.14ZM55.5354 61.146V59.662H57.5934V61.146H55.5354ZM55.6894 69V63.764H54.6954L54.8634 62.364H57.5794V69H55.6894ZM59.1886 69V59.564H61.0786V64.758L63.5566 62.364H65.7126L63.0386 65.08L65.8666 69H63.8646L61.8486 66.074L61.0786 66.816V69H59.1886ZM69.633 69.14C68.485 69.14 67.575 68.8553 66.903 68.286C66.231 67.7073 65.895 66.8347 65.895 65.668C65.895 64.6133 66.175 63.778 66.735 63.162C67.3043 62.5367 68.149 62.224 69.269 62.224C70.2956 62.224 71.0796 62.4947 71.621 63.036C72.1716 63.568 72.447 64.268 72.447 65.136V66.34H67.645C67.7476 66.872 67.9903 67.236 68.373 67.432C68.765 67.628 69.3156 67.726 70.025 67.726C70.3796 67.726 70.739 67.6933 71.103 67.628C71.4763 67.5627 71.7936 67.4787 72.055 67.376V68.72C71.747 68.86 71.3876 68.9627 70.977 69.028C70.5663 69.1027 70.1183 69.14 69.633 69.14ZM67.645 65.178H70.795V64.814C70.795 64.4313 70.683 64.1327 70.459 63.918C70.235 63.694 69.857 63.582 69.325 63.582C68.6996 63.582 68.261 63.708 68.009 63.96C67.7663 64.212 67.645 64.618 67.645 65.178ZM75.6108 69.14C74.9668 69.14 74.4955 68.9907 74.1968 68.692C73.9075 68.3933 73.7628 67.9173 73.7628 67.264V59.564H75.6528V67.11C75.6528 67.3433 75.6995 67.5067 75.7928 67.6C75.8862 67.684 76.0215 67.726 76.1988 67.726C76.4415 67.726 76.6608 67.6933 76.8568 67.628V68.93C76.5022 69.07 76.0868 69.14 75.6108 69.14ZM78.7528 71.464C78.4634 71.464 78.2068 71.4453 77.9828 71.408C77.7588 71.38 77.5394 71.324 77.3248 71.24V69.91C77.4834 69.966 77.6281 70.0033 77.7588 70.022C77.8988 70.0407 78.0388 70.05 78.1788 70.05C78.5614 70.05 78.8554 69.9613 79.0608 69.784C79.2754 69.6067 79.4901 69.308 79.7048 68.888L76.7368 62.364H78.7108L80.6568 66.872L82.5888 62.364H84.5488L81.9308 68.538C81.6881 69.1167 81.4221 69.6253 81.1328 70.064C80.8528 70.512 80.5214 70.8573 80.1388 71.1C79.7561 71.3427 79.2941 71.464 78.7528 71.464ZM90.1489 69L88.3989 62.364H90.2889L91.2969 66.676L92.4029 63.218V62.364H93.8449L95.1049 66.676L96.0849 62.364H97.9609L96.2249 69H94.4889L93.2149 65.122L91.9129 69H90.1489ZM101.964 69.14C100.722 69.14 99.8123 68.8413 99.2337 68.244C98.655 67.6373 98.3657 66.7833 98.3657 65.682C98.3657 64.5807 98.655 63.7313 99.2337 63.134C99.8217 62.5273 100.732 62.224 101.964 62.224C103.205 62.224 104.115 62.5273 104.694 63.134C105.282 63.7313 105.576 64.5807 105.576 65.682C105.576 66.7833 105.286 67.6373 104.708 68.244C104.129 68.8413 103.214 69.14 101.964 69.14ZM101.964 67.53C102.57 67.53 103.004 67.3947 103.266 67.124C103.527 66.844 103.658 66.3633 103.658 65.682C103.658 65.0007 103.527 64.5247 103.266 64.254C103.004 63.974 102.57 63.834 101.964 63.834C101.366 63.834 100.937 63.974 100.676 64.254C100.414 64.5247 100.284 65.0007 100.284 65.682C100.284 66.3633 100.414 66.844 100.676 67.124C100.937 67.3947 101.366 67.53 101.964 67.53ZM109.34 69.14C108.546 69.14 107.926 68.9207 107.478 68.482C107.039 68.034 106.82 67.3807 106.82 66.522V62.364H108.71V66.48C108.71 66.928 108.817 67.2547 109.032 67.46C109.246 67.656 109.568 67.754 109.998 67.754C110.324 67.754 110.623 67.6887 110.894 67.558C111.174 67.4273 111.412 67.264 111.608 67.068V62.364H113.498V69H111.748L111.678 68.37C111.398 68.594 111.066 68.7807 110.684 68.93C110.31 69.07 109.862 69.14 109.34 69.14ZM116.955 69.14C116.311 69.14 115.839 68.9907 115.541 68.692C115.251 68.3933 115.107 67.9173 115.107 67.264V59.564H116.997V67.11C116.997 67.3433 117.043 67.5067 117.137 67.6C117.23 67.684 117.365 67.726 117.543 67.726C117.785 67.726 118.005 67.6933 118.201 67.628V68.93C117.846 69.07 117.431 69.14 116.955 69.14ZM122.049 69.14C121.461 69.14 120.933 69.0373 120.467 68.832C120.009 68.6173 119.65 68.272 119.389 67.796C119.127 67.3107 118.997 66.6713 118.997 65.878C118.997 65.0847 119.141 64.4173 119.431 63.876C119.72 63.3347 120.107 62.924 120.593 62.644C121.078 62.364 121.61 62.224 122.189 62.224C122.917 62.224 123.537 62.392 124.051 62.728V59.564H125.941V69H124.317L124.205 68.384C123.915 68.636 123.598 68.8273 123.253 68.958C122.917 69.0793 122.515 69.14 122.049 69.14ZM122.567 67.754C123.155 67.754 123.649 67.5533 124.051 67.152V64.128C123.659 63.7827 123.201 63.61 122.679 63.61C121.503 63.61 120.915 64.366 120.915 65.878C120.915 66.5873 121.059 67.0773 121.349 67.348C121.638 67.6187 122.044 67.754 122.567 67.754ZM132.347 71.464C132.057 71.464 131.801 71.4453 131.577 71.408C131.353 71.38 131.133 71.324 130.919 71.24V69.91C131.077 69.966 131.222 70.0033 131.353 70.022C131.493 70.0407 131.633 70.05 131.773 70.05C132.155 70.05 132.449 69.9613 132.655 69.784C132.869 69.6067 133.084 69.308 133.299 68.888L130.331 62.364H132.305L134.251 66.872L136.183 62.364H138.143L135.525 68.538C135.282 69.1167 135.016 69.6253 134.727 70.064C134.447 70.512 134.115 70.8573 133.733 71.1C133.35 71.3427 132.888 71.464 132.347 71.464ZM141.886 69.14C140.644 69.14 139.734 68.8413 139.156 68.244C138.577 67.6373 138.288 66.7833 138.288 65.682C138.288 64.5807 138.577 63.7313 139.156 63.134C139.744 62.5273 140.654 62.224 141.886 62.224C143.127 62.224 144.037 62.5273 144.616 63.134C145.204 63.7313 145.498 64.5807 145.498 65.682C145.498 66.7833 145.208 67.6373 144.63 68.244C144.051 68.8413 143.136 69.14 141.886 69.14ZM141.886 67.53C142.492 67.53 142.926 67.3947 143.188 67.124C143.449 66.844 143.58 66.3633 143.58 65.682C143.58 65.0007 143.449 64.5247 143.188 64.254C142.926 63.974 142.492 63.834 141.886 63.834C141.288 63.834 140.859 63.974 140.598 64.254C140.336 64.5247 140.206 65.0007 140.206 65.682C140.206 66.3633 140.336 66.844 140.598 67.124C140.859 67.3947 141.288 67.53 141.886 67.53ZM149.262 69.14C148.468 69.14 147.848 68.9207 147.4 68.482C146.961 68.034 146.742 67.3807 146.742 66.522V62.364H148.632V66.48C148.632 66.928 148.739 67.2547 148.954 67.46C149.168 67.656 149.49 67.754 149.92 67.754C150.246 67.754 150.545 67.6887 150.816 67.558C151.096 67.4273 151.334 67.264 151.53 67.068V62.364H153.42V69H151.67L151.6 68.37C151.32 68.594 150.988 68.7807 150.606 68.93C150.232 69.07 149.784 69.14 149.262 69.14ZM162.011 69.14C161.544 69.14 161.138 69.0793 160.793 68.958C160.447 68.8273 160.13 68.636 159.841 68.384L159.743 69H158.105V59.564H159.995V62.728C160.265 62.56 160.569 62.434 160.905 62.35C161.241 62.266 161.591 62.224 161.955 62.224C162.907 62.224 163.658 62.4947 164.209 63.036C164.769 63.568 165.049 64.4313 165.049 65.626C165.049 66.8207 164.773 67.7073 164.223 68.286C163.681 68.8553 162.944 69.14 162.011 69.14ZM161.479 67.754C162.085 67.754 162.51 67.5767 162.753 67.222C163.005 66.8673 163.131 66.3353 163.131 65.626C163.131 64.8887 162.995 64.3707 162.725 64.072C162.463 63.764 162.043 63.61 161.465 63.61C161.175 63.61 160.9 63.652 160.639 63.736C160.387 63.82 160.172 63.9413 159.995 64.1V67.152C160.181 67.348 160.401 67.4973 160.653 67.6C160.914 67.7027 161.189 67.754 161.479 67.754ZM169.82 69.14C168.672 69.14 167.762 68.8553 167.09 68.286C166.418 67.7073 166.082 66.8347 166.082 65.668C166.082 64.6133 166.362 63.778 166.922 63.162C167.492 62.5367 168.336 62.224 169.456 62.224C170.483 62.224 171.267 62.4947 171.808 63.036C172.359 63.568 172.634 64.268 172.634 65.136V66.34H167.832C167.935 66.872 168.178 67.236 168.56 67.432C168.952 67.628 169.503 67.726 170.212 67.726C170.567 67.726 170.926 67.6933 171.29 67.628C171.664 67.5627 171.981 67.4787 172.242 67.376V68.72C171.934 68.86 171.575 68.9627 171.164 69.028C170.754 69.1027 170.306 69.14 169.82 69.14ZM167.832 65.178H170.982V64.814C170.982 64.4313 170.87 64.1327 170.646 63.918C170.422 63.694 170.044 63.582 169.512 63.582C168.887 63.582 168.448 63.708 168.196 63.96C167.954 64.212 167.832 64.618 167.832 65.178ZM179.659 69.14C178.893 69.14 178.324 68.9393 177.951 68.538C177.587 68.1367 177.405 67.5907 177.405 66.9V63.82H176.467V62.364H177.405V60.936L179.295 60.376V62.364H180.975L180.863 63.82H179.295V66.774C179.295 67.138 179.379 67.39 179.547 67.53C179.715 67.6607 179.976 67.726 180.331 67.726C180.592 67.726 180.863 67.6793 181.143 67.586V68.888C180.937 68.972 180.713 69.0327 180.471 69.07C180.228 69.1167 179.957 69.14 179.659 69.14ZM185.43 69.14C184.189 69.14 183.279 68.8413 182.7 68.244C182.122 67.6373 181.832 66.7833 181.832 65.682C181.832 64.5807 182.122 63.7313 182.7 63.134C183.288 62.5273 184.198 62.224 185.43 62.224C186.672 62.224 187.582 62.5273 188.16 63.134C188.748 63.7313 189.042 64.5807 189.042 65.682C189.042 66.7833 188.753 67.6373 188.174 68.244C187.596 68.8413 186.681 69.14 185.43 69.14ZM185.43 67.53C186.037 67.53 186.471 67.3947 186.732 67.124C186.994 66.844 187.124 66.3633 187.124 65.682C187.124 65.0007 186.994 64.5247 186.732 64.254C186.471 63.974 186.037 63.834 185.43 63.834C184.833 63.834 184.404 63.974 184.142 64.254C183.881 64.5247 183.75 65.0007 183.75 65.682C183.75 66.3633 183.881 66.844 184.142 67.124C184.404 67.3947 184.833 67.53 185.43 67.53ZM193.433 69V62.364H195.183L195.267 63.05C195.565 62.8633 195.934 62.6953 196.373 62.546C196.821 62.3873 197.259 62.28 197.689 62.224V63.652C197.437 63.6893 197.161 63.7453 196.863 63.82C196.564 63.8947 196.279 63.9787 196.009 64.072C195.738 64.1653 195.509 64.2633 195.323 64.366V69H193.433ZM201.84 69.14C200.692 69.14 199.782 68.8553 199.11 68.286C198.438 67.7073 198.102 66.8347 198.102 65.668C198.102 64.6133 198.382 63.778 198.942 63.162C199.511 62.5367 200.356 62.224 201.476 62.224C202.503 62.224 203.287 62.4947 203.828 63.036C204.379 63.568 204.654 64.268 204.654 65.136V66.34H199.852C199.955 66.872 200.197 67.236 200.58 67.432C200.972 67.628 201.523 67.726 202.232 67.726C202.587 67.726 202.946 67.6933 203.31 67.628C203.683 67.5627 204.001 67.4787 204.262 67.376V68.72C203.954 68.86 203.595 68.9627 203.184 69.028C202.773 69.1027 202.325 69.14 201.84 69.14ZM199.852 65.178H203.002V64.814C203.002 64.4313 202.89 64.1327 202.666 63.918C202.442 63.694 202.064 63.582 201.532 63.582C200.907 63.582 200.468 63.708 200.216 63.96C199.973 64.212 199.852 64.618 199.852 65.178ZM209.358 69.14C208.173 69.14 207.263 68.846 206.628 68.258C206.003 67.67 205.69 66.8113 205.69 65.682C205.69 64.5153 206.026 63.6473 206.698 63.078C207.379 62.5087 208.285 62.224 209.414 62.224C209.881 62.224 210.282 62.2567 210.618 62.322C210.954 62.3873 211.281 62.4947 211.598 62.644V64.002C211.365 63.89 211.094 63.8013 210.786 63.736C210.478 63.6707 210.147 63.638 209.792 63.638C209.083 63.638 208.541 63.7873 208.168 64.086C207.795 64.3753 207.608 64.9073 207.608 65.682C207.608 66.3913 207.776 66.9093 208.112 67.236C208.457 67.5627 209.013 67.726 209.778 67.726C210.105 67.726 210.422 67.6933 210.73 67.628C211.047 67.5627 211.341 67.4647 211.612 67.334V68.734C210.987 69.0047 210.235 69.14 209.358 69.14ZM216.124 69.14C214.882 69.14 213.972 68.8413 213.394 68.244C212.815 67.6373 212.526 66.7833 212.526 65.682C212.526 64.5807 212.815 63.7313 213.394 63.134C213.982 62.5273 214.892 62.224 216.124 62.224C217.365 62.224 218.275 62.5273 218.854 63.134C219.442 63.7313 219.736 64.5807 219.736 65.682C219.736 66.7833 219.446 67.6373 218.868 68.244C218.289 68.8413 217.374 69.14 216.124 69.14ZM216.124 67.53C216.73 67.53 217.164 67.3947 217.426 67.124C217.687 66.844 217.818 66.3633 217.818 65.682C217.818 65.0007 217.687 64.5247 217.426 64.254C217.164 63.974 216.73 63.834 216.124 63.834C215.526 63.834 215.097 63.974 214.836 64.254C214.574 64.5247 214.444 65.0007 214.444 65.682C214.444 66.3633 214.574 66.844 214.836 67.124C215.097 67.3947 215.526 67.53 216.124 67.53ZM221.05 69V62.364H222.8L222.87 63.008C223.187 62.7653 223.533 62.574 223.906 62.434C224.289 62.294 224.699 62.224 225.138 62.224C225.605 62.224 225.964 62.294 226.216 62.434C226.477 62.574 226.678 62.7747 226.818 63.036C227.126 62.7933 227.476 62.5973 227.868 62.448C228.269 62.2987 228.741 62.224 229.282 62.224C230.047 62.224 230.612 62.4247 230.976 62.826C231.34 63.218 231.522 63.82 231.522 64.632V69H229.66V64.842C229.66 64.4033 229.567 64.0907 229.38 63.904C229.193 63.708 228.895 63.61 228.484 63.61C227.924 63.61 227.457 63.8107 227.084 64.212C227.131 64.3707 227.154 64.562 227.154 64.786V69H225.39V64.842C225.39 64.4313 225.32 64.1233 225.18 63.918C225.04 63.7127 224.769 63.61 224.368 63.61C224.088 63.61 223.822 63.6847 223.57 63.834C223.327 63.974 223.108 64.1373 222.912 64.324V69H221.05ZM233.068 69V62.364H234.818L234.888 63.008C235.205 62.7653 235.55 62.574 235.924 62.434C236.306 62.294 236.717 62.224 237.156 62.224C237.622 62.224 237.982 62.294 238.234 62.434C238.495 62.574 238.696 62.7747 238.836 63.036C239.144 62.7933 239.494 62.5973 239.886 62.448C240.287 62.2987 240.758 62.224 241.3 62.224C242.065 62.224 242.63 62.4247 242.994 62.826C243.358 63.218 243.54 63.82 243.54 64.632V69H241.678V64.842C241.678 64.4033 241.584 64.0907 241.398 63.904C241.211 63.708 240.912 63.61 240.502 63.61C239.942 63.61 239.475 63.8107 239.102 64.212C239.148 64.3707 239.172 64.562 239.172 64.786V69H237.408V64.842C237.408 64.4313 237.338 64.1233 237.198 63.918C237.058 63.7127 236.787 63.61 236.386 63.61C236.106 63.61 235.84 63.6847 235.588 63.834C235.345 63.974 235.126 64.1373 234.93 64.324V69H233.068ZM248.324 69.14C247.176 69.14 246.266 68.8553 245.594 68.286C244.922 67.7073 244.586 66.8347 244.586 65.668C244.586 64.6133 244.866 63.778 245.426 63.162C245.996 62.5367 246.84 62.224 247.96 62.224C248.987 62.224 249.771 62.4947 250.312 63.036C250.863 63.568 251.138 64.268 251.138 65.136V66.34H246.336C246.439 66.872 246.682 67.236 247.064 67.432C247.456 67.628 248.007 67.726 248.716 67.726C249.071 67.726 249.43 67.6933 249.794 67.628C250.168 67.5627 250.485 67.4787 250.746 67.376V68.72C250.438 68.86 250.079 68.9627 249.668 69.028C249.258 69.1027 248.81 69.14 248.324 69.14ZM246.336 65.178H249.486V64.814C249.486 64.4313 249.374 64.1327 249.15 63.918C248.926 63.694 248.548 63.582 248.016 63.582C247.391 63.582 246.952 63.708 246.7 63.96C246.458 64.212 246.336 64.618 246.336 65.178ZM252.454 69V62.364H254.204L254.274 62.994C254.545 62.7887 254.886 62.6113 255.296 62.462C255.716 62.3033 256.155 62.224 256.612 62.224C257.49 62.224 258.129 62.4293 258.53 62.84C258.932 63.2507 259.132 63.8853 259.132 64.744V69H257.242V64.842C257.242 64.394 257.149 64.0767 256.962 63.89C256.785 63.7033 256.449 63.61 255.954 63.61C255.665 63.61 255.371 63.6753 255.072 63.806C254.783 63.9367 254.54 64.1 254.344 64.296V69H252.454ZM263.224 69.14C262.636 69.14 262.109 69.0373 261.642 68.832C261.185 68.6173 260.826 68.272 260.564 67.796C260.303 67.3107 260.172 66.6713 260.172 65.878C260.172 65.0847 260.317 64.4173 260.606 63.876C260.896 63.3347 261.283 62.924 261.768 62.644C262.254 62.364 262.786 62.224 263.364 62.224C264.092 62.224 264.713 62.392 265.226 62.728V59.564H267.116V69H265.492L265.38 68.384C265.091 68.636 264.774 68.8273 264.428 68.958C264.092 69.0793 263.691 69.14 263.224 69.14ZM263.742 67.754C264.33 67.754 264.825 67.5533 265.226 67.152V64.128C264.834 63.7827 264.377 63.61 263.854 63.61C262.678 63.61 262.09 64.366 262.09 65.878C262.09 66.5873 262.235 67.0773 262.524 67.348C262.814 67.6187 263.22 67.754 263.742 67.754ZM20.798 87V77.984H27.14V79.454H22.688V81.764H26.622V83.22H22.688V87H20.798ZM29.7746 87.14C29.3546 87.14 28.9626 87.0653 28.5986 86.916C28.244 86.7573 27.9546 86.5287 27.7306 86.23C27.516 85.922 27.4086 85.5393 27.4086 85.082C27.4086 84.4287 27.6373 83.906 28.0946 83.514C28.5613 83.122 29.2473 82.926 30.1526 82.926H32.1126V82.744C32.1126 82.3333 31.996 82.044 31.7626 81.876C31.5386 81.708 31.0813 81.624 30.3906 81.624C29.6346 81.624 28.9066 81.7407 28.2066 81.974V80.644C28.5146 80.5227 28.888 80.4247 29.3266 80.35C29.7746 80.266 30.26 80.224 30.7826 80.224C31.7813 80.224 32.5513 80.4293 33.0926 80.84C33.6433 81.2413 33.9186 81.89 33.9186 82.786V87H32.2806L32.1826 86.398C31.9213 86.6313 31.5993 86.8133 31.2166 86.944C30.834 87.0747 30.3533 87.14 29.7746 87.14ZM30.2926 85.894C30.7126 85.894 31.0766 85.824 31.3846 85.684C31.6926 85.544 31.9353 85.3667 32.1126 85.152V84.102H30.1946C29.4573 84.102 29.0886 84.4053 29.0886 85.012C29.0886 85.6 29.49 85.894 30.2926 85.894ZM37.7786 87.14C37.2839 87.14 36.8126 87.1027 36.3646 87.028C35.9166 86.9627 35.5572 86.8787 35.2866 86.776V85.208C35.6132 85.3387 35.9819 85.4413 36.3926 85.516C36.8032 85.5813 37.1812 85.614 37.5266 85.614C37.9932 85.614 38.3199 85.586 38.5066 85.53C38.7026 85.474 38.8006 85.348 38.8006 85.152C38.8006 84.928 38.6512 84.7647 38.3526 84.662C38.0632 84.5593 37.6292 84.4147 37.0506 84.228C36.4439 84.0227 35.9772 83.7753 35.6506 83.486C35.3239 83.1967 35.1606 82.7673 35.1606 82.198C35.1606 81.5633 35.3892 81.078 35.8466 80.742C36.3132 80.3967 37.0599 80.224 38.0866 80.224C38.4972 80.224 38.8846 80.2567 39.2486 80.322C39.6126 80.378 39.9206 80.448 40.1726 80.532V82.086C39.9206 81.9647 39.6312 81.876 39.3046 81.82C38.9779 81.7547 38.6746 81.722 38.3946 81.722C37.9932 81.722 37.6712 81.75 37.4286 81.806C37.1952 81.862 37.0786 81.9833 37.0786 82.17C37.0786 82.3753 37.2046 82.52 37.4566 82.604C37.7179 82.688 38.1192 82.814 38.6606 82.982C39.1926 83.1407 39.6079 83.3133 39.9066 83.5C40.2052 83.6867 40.4152 83.9107 40.5366 84.172C40.6579 84.424 40.7186 84.7413 40.7186 85.124C40.7186 86.468 39.7386 87.14 37.7786 87.14ZM44.4573 87.14C43.692 87.14 43.1227 86.9393 42.7493 86.538C42.3853 86.1367 42.2033 85.5907 42.2033 84.9V81.82H41.2653V80.364H42.2033V78.936L44.0933 78.376V80.364H45.7733L45.6613 81.82H44.0933V84.774C44.0933 85.138 44.1773 85.39 44.3453 85.53C44.5133 85.6607 44.7747 85.726 45.1293 85.726C45.3907 85.726 45.6613 85.6793 45.9413 85.586V86.888C45.736 86.972 45.512 87.0327 45.2693 87.07C45.0267 87.1167 44.756 87.14 44.4573 87.14ZM48.1078 87L46.3578 80.364H48.2478L49.2558 84.676L50.3618 81.218V80.364H51.8038L53.0638 84.676L54.0438 80.364H55.9198L54.1838 87H52.4478L51.1738 83.122L49.8718 87H48.1078ZM59.9226 87.14C58.6813 87.14 57.7713 86.8413 57.1926 86.244C56.614 85.6373 56.3246 84.7833 56.3246 83.682C56.3246 82.5807 56.614 81.7313 57.1926 81.134C57.7806 80.5273 58.6906 80.224 59.9226 80.224C61.164 80.224 62.074 80.5273 62.6526 81.134C63.2406 81.7313 63.5346 82.5807 63.5346 83.682C63.5346 84.7833 63.2453 85.6373 62.6666 86.244C62.088 86.8413 61.1733 87.14 59.9226 87.14ZM59.9226 85.53C60.5293 85.53 60.9633 85.3947 61.2246 85.124C61.486 84.844 61.6166 84.3633 61.6166 83.682C61.6166 83.0007 61.486 82.5247 61.2246 82.254C60.9633 81.974 60.5293 81.834 59.9226 81.834C59.3253 81.834 58.896 81.974 58.6346 82.254C58.3733 82.5247 58.2426 83.0007 58.2426 83.682C58.2426 84.3633 58.3733 84.844 58.6346 85.124C58.896 85.3947 59.3253 85.53 59.9226 85.53ZM64.8488 87V80.364H66.5988L66.6828 81.05C66.9814 80.8633 67.3501 80.6953 67.7888 80.546C68.2368 80.3873 68.6754 80.28 69.1048 80.224V81.652C68.8528 81.6893 68.5774 81.7453 68.2788 81.82C67.9801 81.8947 67.6954 81.9787 67.4248 82.072C67.1541 82.1653 66.9254 82.2633 66.7388 82.366V87H64.8488ZM70.0714 87V77.564H71.9614V82.758L74.4394 80.364H76.5954L73.9214 83.08L76.7494 87H74.7474L72.7314 84.074L71.9614 84.816V87H70.0714ZM83.682 87.14C82.9166 87.14 82.3473 86.9393 81.974 86.538C81.61 86.1367 81.428 85.5907 81.428 84.9V81.82H80.49V80.364H81.428V78.936L83.318 78.376V80.364H84.998L84.886 81.82H83.318V84.774C83.318 85.138 83.402 85.39 83.57 85.53C83.738 85.6607 83.9993 85.726 84.354 85.726C84.6153 85.726 84.886 85.6793 85.166 85.586V86.888C84.9606 86.972 84.7366 87.0327 84.494 87.07C84.2513 87.1167 83.9806 87.14 83.682 87.14ZM89.4539 87.14C88.2126 87.14 87.3026 86.8413 86.7239 86.244C86.1452 85.6373 85.8559 84.7833 85.8559 83.682C85.8559 82.5807 86.1452 81.7313 86.7239 81.134C87.3119 80.5273 88.2219 80.224 89.4539 80.224C90.6952 80.224 91.6052 80.5273 92.1839 81.134C92.7719 81.7313 93.0659 82.5807 93.0659 83.682C93.0659 84.7833 92.7766 85.6373 92.1979 86.244C91.6192 86.8413 90.7046 87.14 89.4539 87.14ZM89.4539 85.53C90.0606 85.53 90.4946 85.3947 90.7559 85.124C91.0172 84.844 91.1479 84.3633 91.1479 83.682C91.1479 83.0007 91.0172 82.5247 90.7559 82.254C90.4946 81.974 90.0606 81.834 89.4539 81.834C88.8566 81.834 88.4272 81.974 88.1659 82.254C87.9046 82.5247 87.7739 83.0007 87.7739 83.682C87.7739 84.3633 87.9046 84.844 88.1659 85.124C88.4272 85.3947 88.8566 85.53 89.4539 85.53ZM100.774 87.14C99.5329 87.14 98.6229 86.8413 98.0442 86.244C97.4655 85.6373 97.1762 84.7833 97.1762 83.682C97.1762 82.5807 97.4655 81.7313 98.0442 81.134C98.6322 80.5273 99.5422 80.224 100.774 80.224C102.016 80.224 102.926 80.5273 103.504 81.134C104.092 81.7313 104.386 82.5807 104.386 83.682C104.386 84.7833 104.097 85.6373 103.518 86.244C102.94 86.8413 102.025 87.14 100.774 87.14ZM100.774 85.53C101.381 85.53 101.815 85.3947 102.076 85.124C102.338 84.844 102.468 84.3633 102.468 83.682C102.468 83.0007 102.338 82.5247 102.076 82.254C101.815 81.974 101.381 81.834 100.774 81.834C100.177 81.834 99.7475 81.974 99.4862 82.254C99.2249 82.5247 99.0942 83.0007 99.0942 83.682C99.0942 84.3633 99.2249 84.844 99.4862 85.124C99.7475 85.3947 100.177 85.53 100.774 85.53ZM108.332 87.14C107.567 87.14 106.998 86.9393 106.624 86.538C106.26 86.1367 106.078 85.5907 106.078 84.9V81.82H105.14V80.364H106.078V78.936L107.968 78.376V80.364H109.648L109.536 81.82H107.968V84.774C107.968 85.138 108.052 85.39 108.22 85.53C108.388 85.6607 108.65 85.726 109.004 85.726C109.266 85.726 109.536 85.6793 109.816 85.586V86.888C109.611 86.972 109.387 87.0327 109.144 87.07C108.902 87.1167 108.631 87.14 108.332 87.14ZM110.786 87V77.564H112.676V80.924C112.947 80.7187 113.278 80.5507 113.67 80.42C114.062 80.2893 114.487 80.224 114.944 80.224C115.822 80.224 116.461 80.4293 116.862 80.84C117.264 81.2507 117.464 81.8853 117.464 82.744V87H115.574V82.842C115.574 82.394 115.481 82.0767 115.294 81.89C115.117 81.7033 114.781 81.61 114.286 81.61C113.997 81.61 113.703 81.6753 113.404 81.806C113.115 81.9367 112.872 82.1 112.676 82.296V87H110.786ZM122.242 87.14C121.094 87.14 120.184 86.8553 119.512 86.286C118.84 85.7073 118.504 84.8347 118.504 83.668C118.504 82.6133 118.784 81.778 119.344 81.162C119.914 80.5367 120.758 80.224 121.878 80.224C122.905 80.224 123.689 80.4947 124.23 81.036C124.781 81.568 125.056 82.268 125.056 83.136V84.34H120.254C120.357 84.872 120.6 85.236 120.982 85.432C121.374 85.628 121.925 85.726 122.634 85.726C122.989 85.726 123.348 85.6933 123.712 85.628C124.086 85.5627 124.403 85.4787 124.664 85.376V86.72C124.356 86.86 123.997 86.9627 123.586 87.028C123.176 87.1027 122.728 87.14 122.242 87.14ZM120.254 83.178H123.404V82.814C123.404 82.4313 123.292 82.1327 123.068 81.918C122.844 81.694 122.466 81.582 121.934 81.582C121.309 81.582 120.87 81.708 120.618 81.96C120.376 82.212 120.254 82.618 120.254 83.178ZM126.372 87V80.364H128.122L128.206 81.05C128.505 80.8633 128.874 80.6953 129.312 80.546C129.76 80.3873 130.199 80.28 130.628 80.224V81.652C130.376 81.6893 130.101 81.7453 129.802 81.82C129.504 81.8947 129.219 81.9787 128.948 82.072C128.678 82.1653 128.449 82.2633 128.262 82.366V87H126.372ZM133.865 87.14C133.37 87.14 132.899 87.1027 132.451 87.028C132.003 86.9627 131.643 86.8787 131.373 86.776V85.208C131.699 85.3387 132.068 85.4413 132.479 85.516C132.889 85.5813 133.267 85.614 133.613 85.614C134.079 85.614 134.406 85.586 134.593 85.53C134.789 85.474 134.887 85.348 134.887 85.152C134.887 84.928 134.737 84.7647 134.439 84.662C134.149 84.5593 133.715 84.4147 133.137 84.228C132.53 84.0227 132.063 83.7753 131.737 83.486C131.41 83.1967 131.247 82.7673 131.247 82.198C131.247 81.5633 131.475 81.078 131.933 80.742C132.399 80.3967 133.146 80.224 134.173 80.224C134.583 80.224 134.971 80.2567 135.335 80.322C135.699 80.378 136.007 80.448 136.259 80.532V82.086C136.007 81.9647 135.717 81.876 135.391 81.82C135.064 81.7547 134.761 81.722 134.481 81.722C134.079 81.722 133.757 81.75 133.515 81.806C133.281 81.862 133.165 81.9833 133.165 82.17C133.165 82.3753 133.291 82.52 133.543 82.604C133.804 82.688 134.205 82.814 134.747 82.982C135.279 83.1407 135.694 83.3133 135.993 83.5C136.291 83.6867 136.501 83.9107 136.623 84.172C136.744 84.424 136.805 84.7413 136.805 85.124C136.805 86.468 135.825 87.14 133.865 87.14ZM139.32 84.62V84.34C139.32 83.9667 139.404 83.6447 139.572 83.374C139.74 83.1033 139.946 82.8607 140.188 82.646C140.44 82.422 140.692 82.212 140.944 82.016C141.196 81.82 141.406 81.6147 141.574 81.4C141.742 81.1853 141.826 80.938 141.826 80.658C141.826 80.2193 141.691 79.9113 141.42 79.734C141.15 79.5567 140.683 79.468 140.02 79.468C139.647 79.468 139.26 79.5193 138.858 79.622C138.457 79.7153 138.116 79.832 137.836 79.972V78.376C138.163 78.2173 138.56 78.0913 139.026 77.998C139.502 77.8953 140.002 77.844 140.524 77.844C141.579 77.844 142.377 78.0773 142.918 78.544C143.469 79.0107 143.744 79.65 143.744 80.462C143.744 80.994 143.628 81.4187 143.394 81.736C143.17 82.0533 142.853 82.3753 142.442 82.702C142.069 83.0007 141.77 83.2667 141.546 83.5C141.322 83.724 141.21 84.0273 141.21 84.41V84.62H139.32ZM139.264 87V85.614H141.252V87H139.264Z"
          fill="#6E7B91" fill-opacity="0.95"/>
    <rect x="48.4727" y="104.821" width="23.7467" height="26.4606" rx="4" fill="#EBEFF4" fill-opacity="0.95"/>
    <path d="M56.9795 116.361C56.9795 115.544 57.2647 114.882 57.835 114.374C58.4053 113.867 59.1475 113.613 60.0616 113.613C60.9444 113.613 61.6631 113.843 62.2178 114.304C62.7764 114.761 63.0557 115.353 63.0557 116.079C63.0557 116.54 62.9112 116.999 62.6221 117.456C62.333 117.91 61.8233 118.48 61.0928 119.167L59.4756 120.708V120.814H63.1787V122.285H57.0791V121.048L59.8389 118.347C60.4327 117.769 60.8291 117.335 61.0284 117.046C61.2276 116.757 61.3272 116.474 61.3272 116.197C61.3272 115.857 61.2022 115.579 60.9522 115.365C60.7061 115.146 60.3897 115.036 60.003 115.036C59.5928 115.036 59.2588 115.16 59.001 115.406C58.7471 115.648 58.6202 115.964 58.6202 116.355V116.39H56.9795V116.361Z"
          fill="#4B5566" fill-opacity="0.95"/>
    <rect x="20" y="104.821" width="23.7467" height="26.4606" rx="4" fill="#EBEFF4" fill-opacity="0.95"/>
    <path d="M31.4307 122.285V115.552H31.3252L29.251 116.982V115.335L31.4366 113.829H33.2002V122.285H31.4307Z"
          fill="#4B5566" fill-opacity="0.95"/>
    <rect x="76.9453" y="104.821" width="23.7467" height="26.4606" rx="4" fill="#EBEFF4" fill-opacity="0.95"/>
    <path d="M87.462 118.617V117.298H88.4932C88.8955 117.298 89.2198 117.191 89.4659 116.976C89.7159 116.761 89.8409 116.482 89.8409 116.138C89.8409 115.798 89.7178 115.529 89.4717 115.329C89.2295 115.126 88.9014 115.025 88.4873 115.025C88.0772 115.025 87.7452 115.132 87.4912 115.347C87.2373 115.562 87.0987 115.853 87.0752 116.22H85.4405C85.4717 115.419 85.7647 114.785 86.3194 114.316C86.8741 113.847 87.6123 113.613 88.5342 113.613C89.4014 113.613 90.1143 113.827 90.6729 114.257C91.2354 114.683 91.5166 115.228 91.5166 115.892C91.5166 116.38 91.3741 116.8 91.0889 117.152C90.8077 117.503 90.4307 117.728 89.958 117.826V117.931C90.5401 117.997 90.9991 118.212 91.335 118.576C91.6748 118.935 91.8448 119.392 91.8448 119.947C91.8448 120.435 91.7022 120.874 91.417 121.265C91.1358 121.652 90.7412 121.954 90.2334 122.173C89.7256 122.392 89.1553 122.501 88.5225 122.501C87.5811 122.501 86.8155 122.261 86.2256 121.781C85.6358 121.3 85.3213 120.661 85.2823 119.865H86.9756C87.003 120.224 87.1573 120.509 87.4385 120.72C87.7198 120.927 88.087 121.031 88.5401 121.031C88.9815 121.031 89.3409 120.917 89.6182 120.691C89.8995 120.464 90.0401 120.171 90.0401 119.812C90.0401 119.441 89.9034 119.15 89.6299 118.939C89.3565 118.724 88.9834 118.617 88.5108 118.617H87.462Z"
          fill="#4B5566" fill-opacity="0.95"/>
    <rect x="105.418" y="104.821" width="23.7467" height="26.4606" rx="4" fill="#EBEFF4" fill-opacity="0.95"/>
    <path d="M117.704 122.285V120.808H113.567V119.244C114.228 117.997 115.343 116.193 116.913 113.829H119.392V119.337H120.499V120.808H119.392V122.285H117.704ZM115.155 119.296V119.39H117.745V115.206H117.651C116.749 116.554 115.917 117.917 115.155 119.296Z"
          fill="#4B5566" fill-opacity="0.95"/>
    <rect x="133.891" y="104.821" width="23.7467" height="26.4606" rx="4" fill="#EBEFF4" fill-opacity="0.95"/>
    <path d="M145.567 122.501C144.657 122.501 143.911 122.257 143.329 121.769C142.751 121.277 142.448 120.648 142.421 119.882H144.056C144.106 120.234 144.272 120.517 144.554 120.732C144.835 120.947 145.177 121.054 145.579 121.054C146.036 121.054 146.405 120.913 146.687 120.632C146.972 120.351 147.114 119.982 147.114 119.525C147.114 119.06 146.972 118.685 146.687 118.4C146.401 118.115 146.034 117.972 145.585 117.972C144.933 117.972 144.45 118.226 144.138 118.734H142.556L142.978 113.829H148.292V115.3H144.349L144.161 117.474H144.267C144.649 116.923 145.247 116.648 146.06 116.648C146.86 116.648 147.517 116.913 148.028 117.445C148.544 117.976 148.802 118.656 148.802 119.484C148.802 120.382 148.505 121.111 147.911 121.669C147.317 122.224 146.536 122.501 145.567 122.501Z"
          fill="#4B5566" fill-opacity="0.95"/>
    <rect x="162.363" y="104.821" width="23.7467" height="26.4606" rx="4" fill="#EBEFF4" fill-opacity="0.95"/>
    <path d="M174.438 122.501C173.825 122.501 173.278 122.37 172.797 122.109C172.321 121.847 171.938 121.468 171.649 120.972C171.176 120.245 170.94 119.294 170.94 118.119C170.94 116.716 171.252 115.615 171.877 114.814C172.502 114.013 173.366 113.613 174.467 113.613C175.272 113.613 175.957 113.829 176.524 114.263C177.094 114.697 177.44 115.267 177.561 115.974H175.809C175.727 115.697 175.563 115.476 175.317 115.312C175.075 115.148 174.788 115.066 174.455 115.066C173.877 115.066 173.422 115.326 173.09 115.845C172.762 116.361 172.608 117.058 172.627 117.937H172.733C172.924 117.538 173.207 117.232 173.582 117.017C173.961 116.798 174.397 116.689 174.889 116.689C175.69 116.689 176.354 116.954 176.881 117.486C177.409 118.017 177.672 118.687 177.672 119.495C177.672 120.374 177.37 121.095 176.764 121.658C176.159 122.22 175.383 122.501 174.438 122.501ZM173.33 120.615C173.623 120.904 173.987 121.048 174.42 121.048C174.854 121.048 175.217 120.906 175.51 120.62C175.807 120.331 175.955 119.974 175.955 119.548C175.955 119.119 175.811 118.763 175.522 118.482C175.233 118.197 174.868 118.054 174.426 118.054C173.985 118.054 173.618 118.195 173.325 118.476C173.036 118.757 172.891 119.109 172.891 119.531C172.891 119.96 173.038 120.322 173.33 120.615Z"
          fill="#4B5566" fill-opacity="0.95"/>
    <rect x="190.834" y="104.821" width="23.7467" height="26.4606" rx="4" fill="#EBEFF4" fill-opacity="0.95"/>
    <path d="M199.705 122.285L203.308 115.388V115.283H199.043V113.824H205.09V115.3L201.556 122.285H199.705Z"
          fill="#4B5566" fill-opacity="0.95"/>
    <rect x="219.309" y="104.821" width="23.7467" height="26.4606" rx="4" fill="#EBEFF4" fill-opacity="0.95"/>
    <path d="M233.727 121.816C233.094 122.273 232.27 122.501 231.254 122.501C230.239 122.501 229.416 122.273 228.788 121.816C228.159 121.359 227.844 120.763 227.844 120.029C227.844 119.497 228.012 119.036 228.348 118.646C228.688 118.251 229.141 117.992 229.707 117.867V117.761C229.247 117.656 228.877 117.435 228.6 117.099C228.323 116.763 228.184 116.37 228.184 115.921C228.184 115.245 228.471 114.693 229.045 114.263C229.623 113.829 230.362 113.613 231.26 113.613C232.155 113.613 232.889 113.829 233.463 114.263C234.041 114.693 234.33 115.245 234.33 115.921C234.33 116.37 234.192 116.763 233.914 117.099C233.641 117.431 233.272 117.652 232.807 117.761V117.867C233.37 117.972 233.821 118.222 234.161 118.617C234.504 119.007 234.676 119.472 234.676 120.011C234.676 120.753 234.36 121.355 233.727 121.816ZM230.118 120.802C230.411 121.044 230.789 121.165 231.254 121.165C231.719 121.165 232.098 121.044 232.391 120.802C232.684 120.56 232.83 120.247 232.83 119.865C232.83 119.478 232.684 119.163 232.391 118.921C232.098 118.679 231.719 118.558 231.254 118.558C230.789 118.558 230.411 118.679 230.118 118.921C229.829 119.163 229.684 119.478 229.684 119.865C229.684 120.247 229.829 120.56 230.118 120.802ZM230.299 116.929C230.545 117.144 230.864 117.251 231.254 117.251C231.645 117.251 231.963 117.144 232.209 116.929C232.459 116.71 232.584 116.431 232.584 116.091C232.584 115.747 232.459 115.468 232.209 115.253C231.963 115.035 231.645 114.925 231.254 114.925C230.864 114.925 230.545 115.035 230.299 115.253C230.053 115.468 229.93 115.747 229.93 116.091C229.93 116.431 230.053 116.71 230.299 116.929Z"
          fill="#4B5566" fill-opacity="0.95"/>
    <rect x="247.781" y="104.821" width="23.7467" height="26.4606" rx="4" fill="#EBEFF4" fill-opacity="0.95"/>
    <path d="M260.188 122.501C259.387 122.501 258.702 122.285 258.131 121.851C257.561 121.414 257.215 120.843 257.094 120.14H258.846C258.928 120.417 259.09 120.638 259.332 120.802C259.579 120.966 259.868 121.048 260.2 121.048C260.778 121.048 261.231 120.789 261.559 120.269C261.891 119.75 262.047 119.05 262.028 118.171H261.975H261.934H261.922C261.731 118.57 261.446 118.878 261.067 119.097C260.692 119.312 260.258 119.419 259.766 119.419C258.961 119.419 258.295 119.156 257.768 118.628C257.245 118.097 256.983 117.427 256.983 116.619C256.983 115.74 257.286 115.019 257.891 114.457C258.497 113.894 259.272 113.613 260.217 113.613C260.827 113.613 261.37 113.744 261.846 114.005C262.327 114.263 262.713 114.64 263.006 115.136C263.479 115.871 263.715 116.822 263.715 117.99C263.715 119.396 263.403 120.5 262.778 121.3C262.153 122.101 261.289 122.501 260.188 122.501ZM259.133 117.632C259.422 117.914 259.788 118.054 260.229 118.054C260.67 118.054 261.036 117.916 261.325 117.638C261.618 117.357 261.764 117.003 261.764 116.578C261.764 116.148 261.618 115.789 261.325 115.5C261.032 115.207 260.668 115.06 260.235 115.06C259.801 115.06 259.436 115.205 259.139 115.494C258.846 115.783 258.7 116.138 258.7 116.56C258.7 116.994 258.844 117.351 259.133 117.632Z"
          fill="#4B5566" fill-opacity="0.95"/>
    <rect x="276.254" y="104.821" width="23.7467" height="26.4606" rx="4" fill="#EBEFF4" fill-opacity="0.95"/>
    <path d="M284.521 122V115.268H284.416L282.342 116.697V115.051L284.527 113.545H286.291V122H284.521ZM294.354 121.039C293.76 121.824 292.939 122.217 291.893 122.217C290.846 122.217 290.023 121.824 289.426 121.039C288.832 120.25 288.535 119.156 288.535 117.758C288.535 116.363 288.832 115.277 289.426 114.5C290.023 113.719 290.846 113.328 291.893 113.328C292.936 113.328 293.756 113.719 294.354 114.5C294.951 115.281 295.25 116.369 295.25 117.764C295.25 119.158 294.951 120.25 294.354 121.039ZM290.738 119.996C291.016 120.516 291.4 120.775 291.893 120.775C292.385 120.775 292.768 120.518 293.041 120.002C293.318 119.482 293.457 118.734 293.457 117.758C293.457 116.789 293.318 116.051 293.041 115.543C292.768 115.031 292.385 114.775 291.893 114.775C291.404 114.775 291.021 115.031 290.744 115.543C290.467 116.055 290.328 116.793 290.328 117.758C290.328 118.73 290.465 119.477 290.738 119.996Z"
          fill="#4B5566" fill-opacity="0.95"/>
    <rect opacity="0.3" width="320" height="213" rx="12" fill="#194180"/>
    <rect x="219.5" y="105.5" width="22.7467" height="25.4606" rx="3.5" fill="white" fill-opacity="0.95"
          stroke="#387AE5"/>
    <path d="M233.418 121.994C232.786 122.452 231.961 122.68 230.946 122.68C229.93 122.68 229.108 122.452 228.479 121.994C227.85 121.537 227.536 120.942 227.536 120.207C227.536 119.676 227.704 119.215 228.039 118.825C228.379 118.43 228.832 118.17 229.399 118.045V117.94C228.938 117.834 228.569 117.614 228.291 117.278C228.014 116.942 227.875 116.549 227.875 116.1C227.875 115.424 228.163 114.871 228.737 114.442C229.315 114.008 230.053 113.791 230.952 113.791C231.846 113.791 232.58 114.008 233.155 114.442C233.733 114.871 234.022 115.424 234.022 116.1C234.022 116.549 233.883 116.942 233.606 117.278C233.332 117.61 232.963 117.83 232.498 117.94V118.045C233.061 118.151 233.512 118.401 233.852 118.795C234.196 119.186 234.368 119.651 234.368 120.19C234.368 120.932 234.051 121.534 233.418 121.994ZM229.809 120.981C230.102 121.223 230.481 121.344 230.946 121.344C231.411 121.344 231.789 121.223 232.082 120.981C232.375 120.739 232.522 120.426 232.522 120.043C232.522 119.657 232.375 119.342 232.082 119.1C231.789 118.858 231.411 118.737 230.946 118.737C230.481 118.737 230.102 118.858 229.809 119.1C229.52 119.342 229.375 119.657 229.375 120.043C229.375 120.426 229.52 120.739 229.809 120.981ZM229.991 117.108C230.237 117.323 230.555 117.43 230.946 117.43C231.336 117.43 231.655 117.323 231.901 117.108C232.151 116.889 232.276 116.61 232.276 116.27C232.276 115.926 232.151 115.647 231.901 115.432C231.655 115.213 231.336 115.104 230.946 115.104C230.555 115.104 230.237 115.213 229.991 115.432C229.745 115.647 229.622 115.926 229.622 116.27C229.622 116.61 229.745 116.889 229.991 117.108Z"
          fill="#387AE5"/>
    <g filter="url(#filter0_dd_9_20047)">
        <g filter="url(#filter1_dd_9_20047)">
            <path d="M244.625 135.312V137.938C244.625 138.047 244.598 138.129 244.57 138.211L243.695 141.93C243.586 142.422 243.148 142.75 242.656 142.75H236.969C236.586 142.75 236.258 142.586 236.066 142.312L232.566 137.5C232.211 137.008 232.32 136.324 232.812 135.969C233.305 135.613 233.988 135.723 234.344 136.215L235.219 137.391V129.844C235.219 129.242 235.684 128.75 236.312 128.75C236.914 128.75 237.406 129.242 237.406 129.844V135.312H237.625V134.219C237.625 133.617 238.09 133.125 238.719 133.125C239.32 133.125 239.812 133.617 239.812 134.219V135.312H240.031V134.656C240.031 134.055 240.496 133.562 241.125 133.562C241.727 133.562 242.219 134.055 242.219 134.656V135.312H242.438C242.438 134.711 242.902 134.219 243.531 134.219C244.133 134.219 244.625 134.711 244.625 135.312ZM237.625 137.5H237.406V140.125H237.625V137.5ZM240.031 137.5H239.812V140.125H240.031V137.5ZM242.438 137.5H242.219V140.125H242.438V137.5Z"
                  fill="#387AE5"/>
        </g>
    </g>
    <defs>
        <filter id="filter0_dd_9_20047" x="190" y="98" width="96" height="96" filterUnits="userSpaceOnUse"
                color-interpolation-filters="sRGB">
            <feFlood flood-opacity="0" result="BackgroundImageFix"/>
            <feColorMatrix in="SourceAlpha" type="matrix" values="0 0 0 0 0 0 0 0 0 0 0 0 0 0 0 0 0 0 127 0"
                           result="hardAlpha"/>
            <feMorphology radius="4" operator="erode" in="SourceAlpha" result="effect1_dropShadow_9_20047"/>
            <feOffset dy="10"/>
            <feGaussianBlur stdDeviation="20"/>
            <feColorMatrix type="matrix" values="0 0 0 0 0.0745098 0 0 0 0 0.215686 0 0 0 0 0.427451 0 0 0 0.08 0"/>
            <feBlend mode="normal" in2="BackgroundImageFix" result="effect1_dropShadow_9_20047"/>
            <feColorMatrix in="SourceAlpha" type="matrix" values="0 0 0 0 0 0 0 0 0 0 0 0 0 0 0 0 0 0 127 0"
                           result="hardAlpha"/>
            <feMorphology radius="6" operator="erode" in="SourceAlpha" result="effect2_dropShadow_9_20047"/>
            <feOffset dy="8"/>
            <feGaussianBlur stdDeviation="11"/>
            <feColorMatrix type="matrix" values="0 0 0 0 0.0745098 0 0 0 0 0.215686 0 0 0 0 0.427451 0 0 0 0.1 0"/>
            <feBlend mode="normal" in2="effect1_dropShadow_9_20047" result="effect2_dropShadow_9_20047"/>
            <feBlend mode="normal" in="SourceGraphic" in2="effect2_dropShadow_9_20047" result="shape"/>
        </filter>
        <filter id="filter1_dd_9_20047" x="212.211" y="116.75" width="52.4141" height="54" filterUnits="userSpaceOnUse"
                color-interpolation-filters="sRGB">
            <feFlood flood-opacity="0" result="BackgroundImageFix"/>
            <feColorMatrix in="SourceAlpha" type="matrix" values="0 0 0 0 0 0 0 0 0 0 0 0 0 0 0 0 0 0 127 0"
                           result="hardAlpha"/>
            <feMorphology radius="4" operator="erode" in="SourceAlpha" result="effect1_dropShadow_9_20047"/>
            <feOffset dy="8"/>
            <feGaussianBlur stdDeviation="12"/>
            <feColorMatrix type="matrix" values="0 0 0 0 0.0745098 0 0 0 0 0.215686 0 0 0 0 0.427451 0 0 0 0.04 0"/>
            <feBlend mode="normal" in2="BackgroundImageFix" result="effect1_dropShadow_9_20047"/>
            <feColorMatrix in="SourceAlpha" type="matrix" values="0 0 0 0 0 0 0 0 0 0 0 0 0 0 0 0 0 0 127 0"
                           result="hardAlpha"/>
            <feMorphology radius="6" operator="erode" in="SourceAlpha" result="effect2_dropShadow_9_20047"/>
            <feOffset dy="7"/>
            <feGaussianBlur stdDeviation="6"/>
            <feColorMatrix type="matrix" values="0 0 0 0 0.0745098 0 0 0 0 0.215686 0 0 0 0 0.427451 0 0 0 0.06 0"/>
            <feBlend mode="normal" in2="effect1_dropShadow_9_20047" result="effect2_dropShadow_9_20047"/>
            <feBlend mode="normal" in="SourceGraphic" in2="effect2_dropShadow_9_20047" result="shape"/>
        </filter>
    </defs>
</svg>
