<svg width="323" height="213" viewBox="0 0 323 213" fill="none" xmlns="http://www.w3.org/2000/svg">
    <rect x="3" width="320" height="213" rx="12" fill="white"/>
    <rect x="23" y="66" width="280" height="37" rx="4" fill="#EBEFF4" fill-opacity="0.95"/>
    <rect x="23" y="156" width="280" height="37" rx="4" fill="#EBEFF4" fill-opacity="0.95"/>
    <path d="M38.6084 88H37.7295V81.7451H35.459V80.9541H40.8789V81.7451H38.6084V88ZM42.1777 88V80.6465H43.0176V83.5664H43.0957C43.2292 83.2702 43.4326 83.0423 43.7061 82.8828C43.9827 82.7233 44.3197 82.6436 44.7168 82.6436C45.2767 82.6436 45.7194 82.8161 46.0449 83.1611C46.3704 83.5029 46.5332 83.9798 46.5332 84.5918V88H45.6934V84.7969C45.6934 83.8659 45.2881 83.4004 44.4775 83.4004C44.0153 83.4004 43.6556 83.5355 43.3984 83.8057C43.1445 84.0726 43.0176 84.4323 43.0176 84.8848V88H42.1777ZM50.166 83.3857C49.7461 83.3857 49.401 83.5273 49.1309 83.8105C48.8607 84.0938 48.7093 84.4681 48.6768 84.9336H51.5771C51.5674 84.4681 51.4339 84.0938 51.1768 83.8105C50.9196 83.5273 50.5827 83.3857 50.166 83.3857ZM51.5527 86.6377H52.3926C52.2656 87.0934 52.0068 87.4499 51.6162 87.707C51.2288 87.9642 50.7487 88.0928 50.1758 88.0928C49.4466 88.0928 48.8688 87.8486 48.4424 87.3604C48.016 86.8688 47.8027 86.2064 47.8027 85.373C47.8027 84.543 48.0176 83.8805 48.4473 83.3857C48.877 82.891 49.4531 82.6436 50.1758 82.6436C50.8854 82.6436 51.4437 82.8796 51.8506 83.3516C52.2575 83.8236 52.4609 84.4697 52.4609 85.29V85.6123H48.6768V85.6514C48.6995 86.1722 48.846 86.5856 49.1162 86.8916C49.3896 87.1976 49.7493 87.3506 50.1953 87.3506C50.8757 87.3506 51.3281 87.113 51.5527 86.6377ZM63.2227 82.7363L61.748 88H60.8936L59.7168 83.9277H59.6387L58.4668 88H57.6172L56.1426 82.7363H56.9922L58.0273 86.9453H58.1055L59.2822 82.7363H60.0879L61.2646 86.9453H61.3428L62.3779 82.7363H63.2227ZM68.0859 87.3652C67.653 87.8503 67.0622 88.0928 66.3135 88.0928C65.5648 88.0928 64.9723 87.8503 64.5361 87.3652C64.1032 86.877 63.8867 86.2113 63.8867 85.3682C63.8867 84.5218 64.1032 83.8561 64.5361 83.3711C64.9691 82.8861 65.5615 82.6436 66.3135 82.6436C67.0654 82.6436 67.6579 82.8861 68.0908 83.3711C68.5238 83.8561 68.7402 84.5218 68.7402 85.3682C68.7402 86.2113 68.5221 86.877 68.0859 87.3652ZM65.1611 86.8232C65.4313 87.165 65.8154 87.3359 66.3135 87.3359C66.8115 87.3359 67.1956 87.165 67.4658 86.8232C67.736 86.4782 67.8711 85.9932 67.8711 85.3682C67.8711 84.7432 67.736 84.2598 67.4658 83.918C67.1956 83.5729 66.8115 83.4004 66.3135 83.4004C65.8154 83.4004 65.4313 83.5729 65.1611 83.918C64.891 84.2598 64.7559 84.7432 64.7559 85.3682C64.7559 85.9932 64.891 86.4782 65.1611 86.8232ZM70.0586 88V82.7363H70.8594V83.5176H70.9375C71.0156 83.2604 71.1914 83.0505 71.4648 82.8877C71.7383 82.7249 72.0492 82.6436 72.3975 82.6436C72.557 82.6436 72.6969 82.6517 72.8174 82.668V83.5078C72.7035 83.4753 72.5244 83.459 72.2803 83.459C71.8799 83.459 71.5495 83.5794 71.2891 83.8203C71.0286 84.0612 70.8984 84.3672 70.8984 84.7383V88H70.0586ZM74.834 85.0361L77.1191 82.7363H78.1494L75.8838 84.9922L78.3008 88H77.2314L75.2588 85.5342L74.7559 86.0029V88H73.916V80.6465H74.7559V85.0361H74.834ZM82.1387 88V82.7363H82.9785V88H82.1387ZM82.9736 81.4961C82.8597 81.61 82.7214 81.667 82.5586 81.667C82.3958 81.667 82.2575 81.61 82.1436 81.4961C82.0296 81.3789 81.9727 81.2406 81.9727 81.0811C81.9727 80.9215 82.0296 80.7848 82.1436 80.6709C82.2575 80.5537 82.3958 80.4951 82.5586 80.4951C82.7214 80.4951 82.8597 80.5537 82.9736 80.6709C83.0876 80.7848 83.1445 80.9215 83.1445 81.0811C83.1445 81.2406 83.0876 81.3789 82.9736 81.4961ZM84.458 84.1768C84.458 83.7406 84.6452 83.376 85.0195 83.083C85.3939 82.79 85.861 82.6436 86.4209 82.6436C86.971 82.6436 87.4251 82.7705 87.7832 83.0244C88.1413 83.2783 88.348 83.6217 88.4033 84.0547H87.5732C87.5146 83.8398 87.3844 83.6706 87.1826 83.5469C86.984 83.4199 86.7285 83.3564 86.416 83.3564C86.1003 83.3564 85.835 83.4297 85.6201 83.5762C85.4085 83.7227 85.3027 83.9115 85.3027 84.1426C85.3027 84.3216 85.376 84.4714 85.5225 84.5918C85.6722 84.709 85.9033 84.805 86.2158 84.8799L87.0264 85.0752C87.5277 85.1956 87.8971 85.3698 88.1348 85.5977C88.3757 85.8255 88.4961 86.1266 88.4961 86.501C88.4961 86.9665 88.2959 87.349 87.8955 87.6484C87.4951 87.9447 86.9922 88.0928 86.3867 88.0928C85.8008 88.0928 85.3206 87.9626 84.9463 87.7021C84.5719 87.4417 84.362 87.0934 84.3164 86.6572H85.1807C85.2523 86.8851 85.3939 87.0641 85.6055 87.1943C85.8171 87.3213 86.0872 87.3848 86.416 87.3848C86.7708 87.3848 87.0622 87.3083 87.29 87.1553C87.5179 87.0023 87.6318 86.8053 87.6318 86.5645C87.6318 86.2064 87.3535 85.959 86.7969 85.8223L85.8936 85.6025C85.3955 85.4821 85.0309 85.3096 84.7998 85.085C84.5719 84.8571 84.458 84.5544 84.458 84.1768ZM94.7363 83.3857C94.3164 83.3857 93.9714 83.5273 93.7012 83.8105C93.431 84.0938 93.2796 84.4681 93.2471 84.9336H96.1475C96.1377 84.4681 96.0042 84.0938 95.7471 83.8105C95.4899 83.5273 95.153 83.3857 94.7363 83.3857ZM96.123 86.6377H96.9629C96.8359 87.0934 96.5771 87.4499 96.1865 87.707C95.7992 87.9642 95.319 88.0928 94.7461 88.0928C94.0169 88.0928 93.4391 87.8486 93.0127 87.3604C92.5863 86.8688 92.373 86.2064 92.373 85.373C92.373 84.543 92.5879 83.8805 93.0176 83.3857C93.4473 82.891 94.0234 82.6436 94.7461 82.6436C95.4557 82.6436 96.014 82.8796 96.4209 83.3516C96.8278 83.8236 97.0312 84.4697 97.0312 85.29V85.6123H93.2471V85.6514C93.2699 86.1722 93.4163 86.5856 93.6865 86.8916C93.96 87.1976 94.3197 87.3506 94.7656 87.3506C95.446 87.3506 95.8984 87.113 96.123 86.6377ZM100.02 86.0127H99.9414L98.6914 88H97.7393L99.541 85.3682L97.7197 82.7363H98.7207L99.9707 84.6943H100.049L101.284 82.7363H102.236L100.449 85.334L102.261 88H101.265L100.02 86.0127ZM107.52 84.3477H106.67C106.598 84.071 106.444 83.8447 106.206 83.6689C105.972 83.4899 105.674 83.4004 105.312 83.4004C104.84 83.4004 104.465 83.5762 104.185 83.9277C103.908 84.2793 103.77 84.7529 103.77 85.3486C103.77 85.9541 103.91 86.4375 104.189 86.7988C104.469 87.1569 104.844 87.3359 105.312 87.3359C105.667 87.3359 105.962 87.2562 106.196 87.0967C106.434 86.9372 106.592 86.7093 106.67 86.4131H107.52C107.441 86.9111 107.209 87.3164 106.821 87.6289C106.434 87.9382 105.933 88.0928 105.317 88.0928C104.578 88.0928 103.991 87.8454 103.555 87.3506C103.118 86.8525 102.9 86.1852 102.9 85.3486C102.9 84.5283 103.118 83.8724 103.555 83.3809C103.991 82.8893 104.577 82.6436 105.312 82.6436C105.928 82.6436 106.429 82.8047 106.816 83.127C107.207 83.4492 107.441 83.8561 107.52 84.3477ZM110.859 83.3857C110.439 83.3857 110.094 83.5273 109.824 83.8105C109.554 84.0938 109.403 84.4681 109.37 84.9336H112.271C112.261 84.4681 112.127 84.0938 111.87 83.8105C111.613 83.5273 111.276 83.3857 110.859 83.3857ZM112.246 86.6377H113.086C112.959 87.0934 112.7 87.4499 112.31 87.707C111.922 87.9642 111.442 88.0928 110.869 88.0928C110.14 88.0928 109.562 87.8486 109.136 87.3604C108.709 86.8688 108.496 86.2064 108.496 85.373C108.496 84.543 108.711 83.8805 109.141 83.3857C109.57 82.891 110.146 82.6436 110.869 82.6436C111.579 82.6436 112.137 82.8796 112.544 83.3516C112.951 83.8236 113.154 84.4697 113.154 85.29V85.6123H109.37V85.6514C109.393 86.1722 109.539 86.5856 109.81 86.8916C110.083 87.1976 110.443 87.3506 110.889 87.3506C111.569 87.3506 112.021 87.113 112.246 86.6377ZM114.521 88V80.6465H115.361V88H114.521ZM117.041 88V80.6465H117.881V88H117.041ZM121.611 83.3857C121.191 83.3857 120.846 83.5273 120.576 83.8105C120.306 84.0938 120.155 84.4681 120.122 84.9336H123.022C123.013 84.4681 122.879 84.0938 122.622 83.8105C122.365 83.5273 122.028 83.3857 121.611 83.3857ZM122.998 86.6377H123.838C123.711 87.0934 123.452 87.4499 123.062 87.707C122.674 87.9642 122.194 88.0928 121.621 88.0928C120.892 88.0928 120.314 87.8486 119.888 87.3604C119.461 86.8688 119.248 86.2064 119.248 85.373C119.248 84.543 119.463 83.8805 119.893 83.3857C120.322 82.891 120.898 82.6436 121.621 82.6436C122.331 82.6436 122.889 82.8796 123.296 83.3516C123.703 83.8236 123.906 84.4697 123.906 85.29V85.6123H120.122V85.6514C120.145 86.1722 120.291 86.5856 120.562 86.8916C120.835 87.1976 121.195 87.3506 121.641 87.3506C122.321 87.3506 122.773 87.113 122.998 86.6377ZM125.225 88V82.7363H126.025V83.5664H126.104C126.383 82.9512 126.911 82.6436 127.686 82.6436C128.275 82.6436 128.729 82.8128 129.048 83.1514C129.367 83.4867 129.526 83.9668 129.526 84.5918V88H128.687V84.7969C128.687 84.3249 128.584 83.9749 128.379 83.7471C128.177 83.516 127.866 83.4004 127.446 83.4004C127.023 83.4004 126.686 83.5339 126.436 83.8008C126.188 84.0645 126.064 84.4258 126.064 84.8848V88H125.225ZM131.416 81.374H132.256V82.7363H133.428V83.4395H132.256V86.418C132.256 86.7272 132.318 86.9518 132.441 87.0918C132.565 87.2318 132.764 87.3018 133.037 87.3018C133.158 87.3018 133.288 87.2952 133.428 87.2822V87.9902C133.242 88.0228 133.078 88.0391 132.935 88.0391C132.391 88.0391 132.002 87.93 131.768 87.7119C131.533 87.4938 131.416 87.1341 131.416 86.6328V83.4395H130.566V82.7363H131.416V81.374ZM135.229 89.792H134.6L135.063 87.0137H135.996L135.229 89.792ZM143.105 88.0928C142.741 88.0928 142.409 88.0114 142.109 87.8486C141.813 87.6826 141.582 87.4531 141.416 87.1602H141.338V88H140.537V80.6465H141.377V83.5664H141.455C141.598 83.2832 141.818 83.0586 142.114 82.8926C142.414 82.7266 142.744 82.6436 143.105 82.6436C143.776 82.6436 144.312 82.891 144.712 83.3857C145.112 83.8805 145.312 84.5413 145.312 85.3682C145.312 86.1917 145.111 86.8525 144.707 87.3506C144.307 87.8454 143.773 88.0928 143.105 88.0928ZM142.91 83.4004C142.432 83.4004 142.052 83.5762 141.772 83.9277C141.496 84.2793 141.357 84.7594 141.357 85.3682C141.357 85.9769 141.496 86.457 141.772 86.8086C142.052 87.1602 142.432 87.3359 142.91 87.3359C143.392 87.3359 143.768 87.1618 144.038 86.8135C144.308 86.4652 144.443 85.9834 144.443 85.3682C144.443 84.7529 144.308 84.2712 144.038 83.9229C143.768 83.5745 143.392 83.4004 142.91 83.4004ZM148.73 83.3857C148.311 83.3857 147.965 83.5273 147.695 83.8105C147.425 84.0938 147.274 84.4681 147.241 84.9336H150.142C150.132 84.4681 149.998 84.0938 149.741 83.8105C149.484 83.5273 149.147 83.3857 148.73 83.3857ZM150.117 86.6377H150.957C150.83 87.0934 150.571 87.4499 150.181 87.707C149.793 87.9642 149.313 88.0928 148.74 88.0928C148.011 88.0928 147.433 87.8486 147.007 87.3604C146.58 86.8688 146.367 86.2064 146.367 85.373C146.367 84.543 146.582 83.8805 147.012 83.3857C147.441 82.891 148.018 82.6436 148.74 82.6436C149.45 82.6436 150.008 82.8796 150.415 83.3516C150.822 83.8236 151.025 84.4697 151.025 85.29V85.6123H147.241V85.6514C147.264 86.1722 147.41 86.5856 147.681 86.8916C147.954 87.1976 148.314 87.3506 148.76 87.3506C149.44 87.3506 149.893 87.113 150.117 86.6377ZM152.695 89.9043C152.562 89.9043 152.437 89.8945 152.319 89.875V89.1572C152.404 89.1735 152.521 89.1816 152.671 89.1816C152.915 89.1816 153.109 89.1165 153.252 88.9863C153.398 88.8561 153.527 88.6331 153.638 88.3174L153.735 88.0049L151.787 82.7363H152.695L154.141 87.0674H154.219L155.659 82.7363H156.553L154.497 88.3223C154.272 88.931 154.033 89.346 153.779 89.5674C153.525 89.792 153.164 89.9043 152.695 89.9043ZM161.416 87.3652C160.983 87.8503 160.392 88.0928 159.644 88.0928C158.895 88.0928 158.302 87.8503 157.866 87.3652C157.433 86.877 157.217 86.2113 157.217 85.3682C157.217 84.5218 157.433 83.8561 157.866 83.3711C158.299 82.8861 158.892 82.6436 159.644 82.6436C160.396 82.6436 160.988 82.8861 161.421 83.3711C161.854 83.8561 162.07 84.5218 162.07 85.3682C162.07 86.2113 161.852 86.877 161.416 87.3652ZM158.491 86.8232C158.761 87.165 159.146 87.3359 159.644 87.3359C160.142 87.3359 160.526 87.165 160.796 86.8232C161.066 86.4782 161.201 85.9932 161.201 85.3682C161.201 84.7432 161.066 84.2598 160.796 83.918C160.526 83.5729 160.142 83.4004 159.644 83.4004C159.146 83.4004 158.761 83.5729 158.491 83.918C158.221 84.2598 158.086 84.7432 158.086 85.3682C158.086 85.9932 158.221 86.4782 158.491 86.8232ZM163.389 88V82.7363H164.189V83.5664H164.268C164.548 82.9512 165.075 82.6436 165.85 82.6436C166.439 82.6436 166.893 82.8128 167.212 83.1514C167.531 83.4867 167.69 83.9668 167.69 84.5918V88H166.851V84.7969C166.851 84.3249 166.748 83.9749 166.543 83.7471C166.341 83.516 166.03 83.4004 165.61 83.4004C165.187 83.4004 164.85 83.5339 164.6 83.8008C164.352 84.0645 164.229 84.4258 164.229 84.8848V88H163.389ZM171.177 88.0928C170.503 88.0928 169.966 87.8454 169.565 87.3506C169.165 86.8558 168.965 86.195 168.965 85.3682C168.965 84.5446 169.165 83.8854 169.565 83.3906C169.969 82.8926 170.506 82.6436 171.177 82.6436C171.545 82.6436 171.873 82.7266 172.163 82.8926C172.456 83.0553 172.677 83.2799 172.827 83.5664H172.9V80.6465H173.74V88H172.939V87.1602H172.861C172.695 87.4531 172.464 87.6826 172.168 87.8486C171.872 88.0114 171.541 88.0928 171.177 88.0928ZM171.372 83.4004C170.894 83.4004 170.518 83.5762 170.244 83.9277C169.971 84.276 169.834 84.7562 169.834 85.3682C169.834 85.9834 169.969 86.4652 170.239 86.8135C170.513 87.1618 170.89 87.3359 171.372 87.3359C171.851 87.3359 172.228 87.1602 172.505 86.8086C172.782 86.457 172.92 85.9769 172.92 85.3682C172.92 84.766 172.78 84.2874 172.5 83.9326C172.223 83.5778 171.847 83.4004 171.372 83.4004ZM180.293 83.3857C179.873 83.3857 179.528 83.5273 179.258 83.8105C178.988 84.0938 178.836 84.4681 178.804 84.9336H181.704C181.694 84.4681 181.561 84.0938 181.304 83.8105C181.047 83.5273 180.71 83.3857 180.293 83.3857ZM181.68 86.6377H182.52C182.393 87.0934 182.134 87.4499 181.743 87.707C181.356 87.9642 180.876 88.0928 180.303 88.0928C179.574 88.0928 178.996 87.8486 178.569 87.3604C178.143 86.8688 177.93 86.2064 177.93 85.373C177.93 84.543 178.145 83.8805 178.574 83.3857C179.004 82.891 179.58 82.6436 180.303 82.6436C181.012 82.6436 181.571 82.8796 181.978 83.3516C182.384 83.8236 182.588 84.4697 182.588 85.29V85.6123H178.804V85.6514C178.826 86.1722 178.973 86.5856 179.243 86.8916C179.517 87.1976 179.876 87.3506 180.322 87.3506C181.003 87.3506 181.455 87.113 181.68 86.6377ZM185.576 86.0127H185.498L184.248 88H183.296L185.098 85.3682L183.276 82.7363H184.277L185.527 84.6943H185.605L186.841 82.7363H187.793L186.006 85.334L187.817 88H186.821L185.576 86.0127ZM191.528 82.6436C192.199 82.6436 192.734 82.891 193.135 83.3857C193.538 83.8805 193.74 84.5413 193.74 85.3682C193.74 86.1917 193.538 86.8525 193.135 87.3506C192.731 87.8454 192.196 88.0928 191.528 88.0928C191.154 88.0928 190.822 88.0163 190.532 87.8633C190.243 87.707 190.026 87.4889 189.883 87.209H189.805V89.7578H188.965V82.7363H189.766V83.6152H189.844C190.013 83.3125 190.246 83.0749 190.542 82.9023C190.841 82.7298 191.17 82.6436 191.528 82.6436ZM191.328 87.3359C191.81 87.3359 192.188 87.1618 192.461 86.8135C192.734 86.4652 192.871 85.9834 192.871 85.3682C192.871 84.7529 192.734 84.2712 192.461 83.9229C192.191 83.5745 191.815 83.4004 191.333 83.4004C190.858 83.4004 190.48 83.5778 190.2 83.9326C189.92 84.2842 189.78 84.7627 189.78 85.3682C189.78 85.9704 189.919 86.4489 190.195 86.8037C190.475 87.1585 190.853 87.3359 191.328 87.3359ZM197.158 83.3857C196.738 83.3857 196.393 83.5273 196.123 83.8105C195.853 84.0938 195.701 84.4681 195.669 84.9336H198.569C198.56 84.4681 198.426 84.0938 198.169 83.8105C197.912 83.5273 197.575 83.3857 197.158 83.3857ZM198.545 86.6377H199.385C199.258 87.0934 198.999 87.4499 198.608 87.707C198.221 87.9642 197.741 88.0928 197.168 88.0928C196.439 88.0928 195.861 87.8486 195.435 87.3604C195.008 86.8688 194.795 86.2064 194.795 85.373C194.795 84.543 195.01 83.8805 195.439 83.3857C195.869 82.891 196.445 82.6436 197.168 82.6436C197.878 82.6436 198.436 82.8796 198.843 83.3516C199.25 83.8236 199.453 84.4697 199.453 85.29V85.6123H195.669V85.6514C195.692 86.1722 195.838 86.5856 196.108 86.8916C196.382 87.1976 196.742 87.3506 197.188 87.3506C197.868 87.3506 198.32 87.113 198.545 86.6377ZM205.127 84.3477H204.277C204.206 84.071 204.051 83.8447 203.813 83.6689C203.579 83.4899 203.281 83.4004 202.92 83.4004C202.448 83.4004 202.072 83.5762 201.792 83.9277C201.515 84.2793 201.377 84.7529 201.377 85.3486C201.377 85.9541 201.517 86.4375 201.797 86.7988C202.077 87.1569 202.451 87.3359 202.92 87.3359C203.275 87.3359 203.569 87.2562 203.804 87.0967C204.041 86.9372 204.199 86.7093 204.277 86.4131H205.127C205.049 86.9111 204.816 87.3164 204.429 87.6289C204.041 87.9382 203.54 88.0928 202.925 88.0928C202.186 88.0928 201.598 87.8454 201.162 87.3506C200.726 86.8525 200.508 86.1852 200.508 85.3486C200.508 84.5283 200.726 83.8724 201.162 83.3809C201.598 82.8893 202.184 82.6436 202.92 82.6436C203.535 82.6436 204.036 82.8047 204.424 83.127C204.814 83.4492 205.049 83.8561 205.127 84.3477ZM206.816 81.374H207.656V82.7363H208.828V83.4395H207.656V86.418C207.656 86.7272 207.718 86.9518 207.842 87.0918C207.965 87.2318 208.164 87.3018 208.438 87.3018C208.558 87.3018 208.688 87.2952 208.828 87.2822V87.9902C208.643 88.0228 208.478 88.0391 208.335 88.0391C207.791 88.0391 207.402 87.93 207.168 87.7119C206.934 87.4938 206.816 87.1341 206.816 86.6328V83.4395H205.967V82.7363H206.816V81.374ZM211.719 87.3555C212.152 87.3555 212.51 87.2301 212.793 86.9795C213.079 86.7288 213.223 86.4147 213.223 86.0371V85.5537L211.807 85.6465C211.41 85.6725 211.118 85.7555 210.933 85.8955C210.747 86.0355 210.654 86.2389 210.654 86.5059C210.654 86.7695 210.754 86.9779 210.952 87.1309C211.151 87.2806 211.406 87.3555 211.719 87.3555ZM211.562 88.0928C211.045 88.0928 210.618 87.9512 210.283 87.668C209.951 87.3815 209.785 87.0007 209.785 86.5254C209.785 86.0566 209.951 85.6888 210.283 85.4219C210.615 85.1549 211.089 85.0036 211.704 84.9678L213.223 84.875V84.3965C213.223 84.071 213.122 83.8219 212.92 83.6494C212.718 83.4769 212.422 83.3906 212.031 83.3906C211.715 83.3906 211.453 83.4476 211.245 83.5615C211.037 83.6755 210.903 83.8366 210.845 84.0449H209.995C210.05 83.625 210.267 83.2865 210.645 83.0293C211.025 82.7721 211.497 82.6436 212.061 82.6436C212.699 82.6436 213.192 82.7982 213.54 83.1074C213.888 83.4167 214.062 83.8464 214.062 84.3965V88H213.262V87.2236H213.184C213.014 87.5036 212.79 87.7184 212.51 87.8682C212.23 88.0179 211.914 88.0928 211.562 88.0928ZM215.967 81.374H216.807V82.7363H217.979V83.4395H216.807V86.418C216.807 86.7272 216.868 86.9518 216.992 87.0918C217.116 87.2318 217.314 87.3018 217.588 87.3018C217.708 87.3018 217.839 87.2952 217.979 87.2822V87.9902C217.793 88.0228 217.629 88.0391 217.485 88.0391C216.942 88.0391 216.553 87.93 216.318 87.7119C216.084 87.4938 215.967 87.1341 215.967 86.6328V83.4395H215.117V82.7363H215.967V81.374ZM219.268 88V82.7363H220.107V88H219.268ZM220.103 81.4961C219.989 81.61 219.85 81.667 219.688 81.667C219.525 81.667 219.386 81.61 219.272 81.4961C219.159 81.3789 219.102 81.2406 219.102 81.0811C219.102 80.9215 219.159 80.7848 219.272 80.6709C219.386 80.5537 219.525 80.4951 219.688 80.4951C219.85 80.4951 219.989 80.5537 220.103 80.6709C220.216 80.7848 220.273 80.9215 220.273 81.0811C220.273 81.2406 220.216 81.3789 220.103 81.4961ZM225.645 87.3652C225.212 87.8503 224.621 88.0928 223.872 88.0928C223.123 88.0928 222.531 87.8503 222.095 87.3652C221.662 86.877 221.445 86.2113 221.445 85.3682C221.445 84.5218 221.662 83.8561 222.095 83.3711C222.528 82.8861 223.12 82.6436 223.872 82.6436C224.624 82.6436 225.216 82.8861 225.649 83.3711C226.082 83.8561 226.299 84.5218 226.299 85.3682C226.299 86.2113 226.081 86.877 225.645 87.3652ZM222.72 86.8232C222.99 87.165 223.374 87.3359 223.872 87.3359C224.37 87.3359 224.754 87.165 225.024 86.8232C225.295 86.4782 225.43 85.9932 225.43 85.3682C225.43 84.7432 225.295 84.2598 225.024 83.918C224.754 83.5729 224.37 83.4004 223.872 83.4004C223.374 83.4004 222.99 83.5729 222.72 83.918C222.45 84.2598 222.314 84.7432 222.314 85.3682C222.314 85.9932 222.45 86.4782 222.72 86.8232ZM227.617 88V82.7363H228.418V83.5664H228.496C228.776 82.9512 229.303 82.6436 230.078 82.6436C230.667 82.6436 231.121 82.8128 231.44 83.1514C231.759 83.4867 231.919 83.9668 231.919 84.5918V88H231.079V84.7969C231.079 84.3249 230.977 83.9749 230.771 83.7471C230.57 83.516 230.259 83.4004 229.839 83.4004C229.416 83.4004 229.079 83.5339 228.828 83.8008C228.581 84.0645 228.457 84.4258 228.457 84.8848V88H227.617ZM233.335 84.1768C233.335 83.7406 233.522 83.376 233.896 83.083C234.271 82.79 234.738 82.6436 235.298 82.6436C235.848 82.6436 236.302 82.7705 236.66 83.0244C237.018 83.2783 237.225 83.6217 237.28 84.0547H236.45C236.392 83.8398 236.261 83.6706 236.06 83.5469C235.861 83.4199 235.605 83.3564 235.293 83.3564C234.977 83.3564 234.712 83.4297 234.497 83.5762C234.285 83.7227 234.18 83.9115 234.18 84.1426C234.18 84.3216 234.253 84.4714 234.399 84.5918C234.549 84.709 234.78 84.805 235.093 84.8799L235.903 85.0752C236.405 85.1956 236.774 85.3698 237.012 85.5977C237.253 85.8255 237.373 86.1266 237.373 86.501C237.373 86.9665 237.173 87.349 236.772 87.6484C236.372 87.9447 235.869 88.0928 235.264 88.0928C234.678 88.0928 234.198 87.9626 233.823 87.7021C233.449 87.4417 233.239 87.0934 233.193 86.6572H234.058C234.129 86.8851 234.271 87.0641 234.482 87.1943C234.694 87.3213 234.964 87.3848 235.293 87.3848C235.648 87.3848 235.939 87.3083 236.167 87.1553C236.395 87.0023 236.509 86.8053 236.509 86.5645C236.509 86.2064 236.23 85.959 235.674 85.8223L234.771 85.6025C234.272 85.4821 233.908 85.3096 233.677 85.085C233.449 84.8571 233.335 84.5544 233.335 84.1768ZM239.385 88.0488C239.212 88.0488 239.062 87.987 238.936 87.8633C238.812 87.7363 238.75 87.5866 238.75 87.4141C238.75 87.2383 238.812 87.0885 238.936 86.9648C239.062 86.8411 239.212 86.7793 239.385 86.7793C239.561 86.7793 239.71 86.8411 239.834 86.9648C239.958 87.0885 240.02 87.2383 240.02 87.4141C240.02 87.5866 239.958 87.7363 239.834 87.8633C239.71 87.987 239.561 88.0488 239.385 88.0488Z"
          fill="#6E7B91" fill-opacity="0.95"/>
    <path d="M38.6084 178H37.7295V171.745H35.459V170.954H40.8789V171.745H38.6084V178ZM42.1777 178V170.646H43.0176V173.566H43.0957C43.2292 173.27 43.4326 173.042 43.7061 172.883C43.9827 172.723 44.3197 172.644 44.7168 172.644C45.2767 172.644 45.7194 172.816 46.0449 173.161C46.3704 173.503 46.5332 173.98 46.5332 174.592V178H45.6934V174.797C45.6934 173.866 45.2881 173.4 44.4775 173.4C44.0153 173.4 43.6556 173.535 43.3984 173.806C43.1445 174.073 43.0176 174.432 43.0176 174.885V178H42.1777ZM50.166 173.386C49.7461 173.386 49.401 173.527 49.1309 173.811C48.8607 174.094 48.7093 174.468 48.6768 174.934H51.5771C51.5674 174.468 51.4339 174.094 51.1768 173.811C50.9196 173.527 50.5827 173.386 50.166 173.386ZM51.5527 176.638H52.3926C52.2656 177.093 52.0068 177.45 51.6162 177.707C51.2288 177.964 50.7487 178.093 50.1758 178.093C49.4466 178.093 48.8688 177.849 48.4424 177.36C48.016 176.869 47.8027 176.206 47.8027 175.373C47.8027 174.543 48.0176 173.881 48.4473 173.386C48.877 172.891 49.4531 172.644 50.1758 172.644C50.8854 172.644 51.4437 172.88 51.8506 173.352C52.2575 173.824 52.4609 174.47 52.4609 175.29V175.612H48.6768V175.651C48.6995 176.172 48.846 176.586 49.1162 176.892C49.3896 177.198 49.7493 177.351 50.1953 177.351C50.8757 177.351 51.3281 177.113 51.5527 176.638ZM63.2227 172.736L61.748 178H60.8936L59.7168 173.928H59.6387L58.4668 178H57.6172L56.1426 172.736H56.9922L58.0273 176.945H58.1055L59.2822 172.736H60.0879L61.2646 176.945H61.3428L62.3779 172.736H63.2227ZM68.0859 177.365C67.653 177.85 67.0622 178.093 66.3135 178.093C65.5648 178.093 64.9723 177.85 64.5361 177.365C64.1032 176.877 63.8867 176.211 63.8867 175.368C63.8867 174.522 64.1032 173.856 64.5361 173.371C64.9691 172.886 65.5615 172.644 66.3135 172.644C67.0654 172.644 67.6579 172.886 68.0908 173.371C68.5238 173.856 68.7402 174.522 68.7402 175.368C68.7402 176.211 68.5221 176.877 68.0859 177.365ZM65.1611 176.823C65.4313 177.165 65.8154 177.336 66.3135 177.336C66.8115 177.336 67.1956 177.165 67.4658 176.823C67.736 176.478 67.8711 175.993 67.8711 175.368C67.8711 174.743 67.736 174.26 67.4658 173.918C67.1956 173.573 66.8115 173.4 66.3135 173.4C65.8154 173.4 65.4313 173.573 65.1611 173.918C64.891 174.26 64.7559 174.743 64.7559 175.368C64.7559 175.993 64.891 176.478 65.1611 176.823ZM70.0586 178V172.736H70.8594V173.518H70.9375C71.0156 173.26 71.1914 173.05 71.4648 172.888C71.7383 172.725 72.0492 172.644 72.3975 172.644C72.557 172.644 72.6969 172.652 72.8174 172.668V173.508C72.7035 173.475 72.5244 173.459 72.2803 173.459C71.8799 173.459 71.5495 173.579 71.2891 173.82C71.0286 174.061 70.8984 174.367 70.8984 174.738V178H70.0586ZM74.834 175.036L77.1191 172.736H78.1494L75.8838 174.992L78.3008 178H77.2314L75.2588 175.534L74.7559 176.003V178H73.916V170.646H74.7559V175.036H74.834ZM84.0674 178.093C83.3936 178.093 82.8564 177.845 82.4561 177.351C82.0557 176.856 81.8555 176.195 81.8555 175.368C81.8555 174.545 82.0557 173.885 82.4561 173.391C82.8597 172.893 83.3968 172.644 84.0674 172.644C84.4352 172.644 84.764 172.727 85.0537 172.893C85.3467 173.055 85.568 173.28 85.7178 173.566H85.791V170.646H86.6309V178H85.8301V177.16H85.752C85.5859 177.453 85.3548 177.683 85.0586 177.849C84.7624 178.011 84.432 178.093 84.0674 178.093ZM84.2627 173.4C83.7842 173.4 83.4082 173.576 83.1348 173.928C82.8613 174.276 82.7246 174.756 82.7246 175.368C82.7246 175.983 82.8597 176.465 83.1299 176.813C83.4033 177.162 83.7809 177.336 84.2627 177.336C84.7412 177.336 85.1188 177.16 85.3955 176.809C85.6722 176.457 85.8105 175.977 85.8105 175.368C85.8105 174.766 85.6706 174.287 85.3906 173.933C85.1139 173.578 84.738 173.4 84.2627 173.4ZM88.2812 178V172.736H89.1211V178H88.2812ZM89.1162 171.496C89.0023 171.61 88.8639 171.667 88.7012 171.667C88.5384 171.667 88.4001 171.61 88.2861 171.496C88.1722 171.379 88.1152 171.241 88.1152 171.081C88.1152 170.922 88.1722 170.785 88.2861 170.671C88.4001 170.554 88.5384 170.495 88.7012 170.495C88.8639 170.495 89.0023 170.554 89.1162 170.671C89.2301 170.785 89.2871 170.922 89.2871 171.081C89.2871 171.241 89.2301 171.379 89.1162 171.496ZM92.6709 178.093C91.9971 178.093 91.46 177.845 91.0596 177.351C90.6592 176.856 90.459 176.195 90.459 175.368C90.459 174.545 90.6592 173.885 91.0596 173.391C91.4632 172.893 92.0003 172.644 92.6709 172.644C93.0387 172.644 93.3675 172.727 93.6572 172.893C93.9502 173.055 94.1715 173.28 94.3213 173.566H94.3945V170.646H95.2344V178H94.4336V177.16H94.3555C94.1895 177.453 93.9583 177.683 93.6621 177.849C93.3659 178.011 93.0355 178.093 92.6709 178.093ZM92.8662 173.4C92.3877 173.4 92.0117 173.576 91.7383 173.928C91.4648 174.276 91.3281 174.756 91.3281 175.368C91.3281 175.983 91.4632 176.465 91.7334 176.813C92.0068 177.162 92.3844 177.336 92.8662 177.336C93.3447 177.336 93.7223 177.16 93.999 176.809C94.2757 176.457 94.4141 175.977 94.4141 175.368C94.4141 174.766 94.2741 174.287 93.9941 173.933C93.7174 173.578 93.3415 173.4 92.8662 173.4ZM99.6875 178V172.736H100.488V173.566H100.566C100.846 172.951 101.374 172.644 102.148 172.644C102.738 172.644 103.192 172.813 103.511 173.151C103.83 173.487 103.989 173.967 103.989 174.592V178H103.149V174.797C103.149 174.325 103.047 173.975 102.842 173.747C102.64 173.516 102.329 173.4 101.909 173.4C101.486 173.4 101.149 173.534 100.898 173.801C100.651 174.064 100.527 174.426 100.527 174.885V178H99.6875ZM109.463 177.365C109.03 177.85 108.439 178.093 107.69 178.093C106.942 178.093 106.349 177.85 105.913 177.365C105.48 176.877 105.264 176.211 105.264 175.368C105.264 174.522 105.48 173.856 105.913 173.371C106.346 172.886 106.938 172.644 107.69 172.644C108.442 172.644 109.035 172.886 109.468 173.371C109.901 173.856 110.117 174.522 110.117 175.368C110.117 176.211 109.899 176.877 109.463 177.365ZM106.538 176.823C106.808 177.165 107.192 177.336 107.69 177.336C108.188 177.336 108.573 177.165 108.843 176.823C109.113 176.478 109.248 175.993 109.248 175.368C109.248 174.743 109.113 174.26 108.843 173.918C108.573 173.573 108.188 173.4 107.69 173.4C107.192 173.4 106.808 173.573 106.538 173.918C106.268 174.26 106.133 174.743 106.133 175.368C106.133 175.993 106.268 176.478 106.538 176.823ZM111.787 171.374H112.627V172.736H113.799V173.439H112.627V176.418C112.627 176.727 112.689 176.952 112.812 177.092C112.936 177.232 113.135 177.302 113.408 177.302C113.529 177.302 113.659 177.295 113.799 177.282V177.99C113.613 178.023 113.449 178.039 113.306 178.039C112.762 178.039 112.373 177.93 112.139 177.712C111.904 177.494 111.787 177.134 111.787 176.633V173.439H110.938V172.736H111.787V171.374ZM117.891 178V172.736H118.691V173.566H118.77C118.89 173.273 119.077 173.047 119.331 172.888C119.585 172.725 119.888 172.644 120.239 172.644C120.584 172.644 120.881 172.727 121.128 172.893C121.379 173.059 121.567 173.283 121.694 173.566H121.772C121.916 173.283 122.131 173.059 122.417 172.893C122.703 172.727 123.026 172.644 123.384 172.644C123.921 172.644 124.334 172.793 124.624 173.093C124.914 173.389 125.059 173.812 125.059 174.362V178H124.219V174.558C124.219 173.786 123.849 173.4 123.11 173.4C122.752 173.4 122.459 173.518 122.231 173.752C122.004 173.986 121.89 174.274 121.89 174.616V178H121.05V174.426C121.05 174.113 120.949 173.864 120.747 173.679C120.549 173.493 120.283 173.4 119.951 173.4C119.609 173.4 119.32 173.531 119.082 173.791C118.848 174.051 118.73 174.367 118.73 174.738V178H117.891ZM128.691 173.386C128.271 173.386 127.926 173.527 127.656 173.811C127.386 174.094 127.235 174.468 127.202 174.934H130.103C130.093 174.468 129.959 174.094 129.702 173.811C129.445 173.527 129.108 173.386 128.691 173.386ZM130.078 176.638H130.918C130.791 177.093 130.532 177.45 130.142 177.707C129.754 177.964 129.274 178.093 128.701 178.093C127.972 178.093 127.394 177.849 126.968 177.36C126.541 176.869 126.328 176.206 126.328 175.373C126.328 174.543 126.543 173.881 126.973 173.386C127.402 172.891 127.979 172.644 128.701 172.644C129.411 172.644 129.969 172.88 130.376 173.352C130.783 173.824 130.986 174.47 130.986 175.29V175.612H127.202V175.651C127.225 176.172 127.371 176.586 127.642 176.892C127.915 177.198 128.275 177.351 128.721 177.351C129.401 177.351 129.854 177.113 130.078 176.638ZM134.404 173.386C133.984 173.386 133.639 173.527 133.369 173.811C133.099 174.094 132.948 174.468 132.915 174.934H135.815C135.806 174.468 135.672 174.094 135.415 173.811C135.158 173.527 134.821 173.386 134.404 173.386ZM135.791 176.638H136.631C136.504 177.093 136.245 177.45 135.854 177.707C135.467 177.964 134.987 178.093 134.414 178.093C133.685 178.093 133.107 177.849 132.681 177.36C132.254 176.869 132.041 176.206 132.041 175.373C132.041 174.543 132.256 173.881 132.686 173.386C133.115 172.891 133.691 172.644 134.414 172.644C135.124 172.644 135.682 172.88 136.089 173.352C136.496 173.824 136.699 174.47 136.699 175.29V175.612H132.915V175.651C132.938 176.172 133.084 176.586 133.354 176.892C133.628 177.198 133.988 177.351 134.434 177.351C135.114 177.351 135.566 177.113 135.791 176.638ZM138.369 171.374H139.209V172.736H140.381V173.439H139.209V176.418C139.209 176.727 139.271 176.952 139.395 177.092C139.518 177.232 139.717 177.302 139.99 177.302C140.111 177.302 140.241 177.295 140.381 177.282V177.99C140.195 178.023 140.031 178.039 139.888 178.039C139.344 178.039 138.955 177.93 138.721 177.712C138.486 177.494 138.369 177.134 138.369 176.633V173.439H137.52V172.736H138.369V171.374ZM146.572 173.386C146.152 173.386 145.807 173.527 145.537 173.811C145.267 174.094 145.116 174.468 145.083 174.934H147.983C147.974 174.468 147.84 174.094 147.583 173.811C147.326 173.527 146.989 173.386 146.572 173.386ZM147.959 176.638H148.799C148.672 177.093 148.413 177.45 148.022 177.707C147.635 177.964 147.155 178.093 146.582 178.093C145.853 178.093 145.275 177.849 144.849 177.36C144.422 176.869 144.209 176.206 144.209 175.373C144.209 174.543 144.424 173.881 144.854 173.386C145.283 172.891 145.859 172.644 146.582 172.644C147.292 172.644 147.85 172.88 148.257 173.352C148.664 173.824 148.867 174.47 148.867 175.29V175.612H145.083V175.651C145.106 176.172 145.252 176.586 145.522 176.892C145.796 177.198 146.156 177.351 146.602 177.351C147.282 177.351 147.734 177.113 147.959 176.638ZM151.855 176.013H151.777L150.527 178H149.575L151.377 175.368L149.556 172.736H150.557L151.807 174.694H151.885L153.12 172.736H154.072L152.285 175.334L154.097 178H153.101L151.855 176.013ZM157.808 172.644C158.478 172.644 159.014 172.891 159.414 173.386C159.818 173.881 160.02 174.541 160.02 175.368C160.02 176.192 159.818 176.853 159.414 177.351C159.01 177.845 158.475 178.093 157.808 178.093C157.433 178.093 157.101 178.016 156.812 177.863C156.522 177.707 156.305 177.489 156.162 177.209H156.084V179.758H155.244V172.736H156.045V173.615H156.123C156.292 173.312 156.525 173.075 156.821 172.902C157.121 172.73 157.45 172.644 157.808 172.644ZM157.607 177.336C158.089 177.336 158.467 177.162 158.74 176.813C159.014 176.465 159.15 175.983 159.15 175.368C159.15 174.753 159.014 174.271 158.74 173.923C158.47 173.575 158.094 173.4 157.612 173.4C157.137 173.4 156.759 173.578 156.479 173.933C156.2 174.284 156.06 174.763 156.06 175.368C156.06 175.97 156.198 176.449 156.475 176.804C156.755 177.159 157.132 177.336 157.607 177.336ZM163.438 173.386C163.018 173.386 162.673 173.527 162.402 173.811C162.132 174.094 161.981 174.468 161.948 174.934H164.849C164.839 174.468 164.705 174.094 164.448 173.811C164.191 173.527 163.854 173.386 163.438 173.386ZM164.824 176.638H165.664C165.537 177.093 165.278 177.45 164.888 177.707C164.5 177.964 164.02 178.093 163.447 178.093C162.718 178.093 162.14 177.849 161.714 177.36C161.287 176.869 161.074 176.206 161.074 175.373C161.074 174.543 161.289 173.881 161.719 173.386C162.148 172.891 162.725 172.644 163.447 172.644C164.157 172.644 164.715 172.88 165.122 173.352C165.529 173.824 165.732 174.47 165.732 175.29V175.612H161.948V175.651C161.971 176.172 162.118 176.586 162.388 176.892C162.661 177.198 163.021 177.351 163.467 177.351C164.147 177.351 164.6 177.113 164.824 176.638ZM171.406 174.348H170.557C170.485 174.071 170.33 173.845 170.093 173.669C169.858 173.49 169.561 173.4 169.199 173.4C168.727 173.4 168.351 173.576 168.071 173.928C167.795 174.279 167.656 174.753 167.656 175.349C167.656 175.954 167.796 176.438 168.076 176.799C168.356 177.157 168.73 177.336 169.199 177.336C169.554 177.336 169.849 177.256 170.083 177.097C170.321 176.937 170.479 176.709 170.557 176.413H171.406C171.328 176.911 171.095 177.316 170.708 177.629C170.321 177.938 169.819 178.093 169.204 178.093C168.465 178.093 167.878 177.845 167.441 177.351C167.005 176.853 166.787 176.185 166.787 175.349C166.787 174.528 167.005 173.872 167.441 173.381C167.878 172.889 168.464 172.644 169.199 172.644C169.814 172.644 170.316 172.805 170.703 173.127C171.094 173.449 171.328 173.856 171.406 174.348ZM173.096 171.374H173.936V172.736H175.107V173.439H173.936V176.418C173.936 176.727 173.997 176.952 174.121 177.092C174.245 177.232 174.443 177.302 174.717 177.302C174.837 177.302 174.967 177.295 175.107 177.282V177.99C174.922 178.023 174.757 178.039 174.614 178.039C174.071 178.039 173.682 177.93 173.447 177.712C173.213 177.494 173.096 177.134 173.096 176.633V173.439H172.246V172.736H173.096V171.374ZM177.998 177.355C178.431 177.355 178.789 177.23 179.072 176.979C179.359 176.729 179.502 176.415 179.502 176.037V175.554L178.086 175.646C177.689 175.673 177.397 175.756 177.212 175.896C177.026 176.035 176.934 176.239 176.934 176.506C176.934 176.77 177.033 176.978 177.231 177.131C177.43 177.281 177.686 177.355 177.998 177.355ZM177.842 178.093C177.324 178.093 176.898 177.951 176.562 177.668C176.23 177.382 176.064 177.001 176.064 176.525C176.064 176.057 176.23 175.689 176.562 175.422C176.895 175.155 177.368 175.004 177.983 174.968L179.502 174.875V174.396C179.502 174.071 179.401 173.822 179.199 173.649C178.997 173.477 178.701 173.391 178.311 173.391C177.995 173.391 177.733 173.448 177.524 173.562C177.316 173.675 177.183 173.837 177.124 174.045H176.274C176.33 173.625 176.546 173.286 176.924 173.029C177.305 172.772 177.777 172.644 178.34 172.644C178.978 172.644 179.471 172.798 179.819 173.107C180.168 173.417 180.342 173.846 180.342 174.396V178H179.541V177.224H179.463C179.294 177.504 179.069 177.718 178.789 177.868C178.509 178.018 178.193 178.093 177.842 178.093ZM182.246 171.374H183.086V172.736H184.258V173.439H183.086V176.418C183.086 176.727 183.148 176.952 183.271 177.092C183.395 177.232 183.594 177.302 183.867 177.302C183.988 177.302 184.118 177.295 184.258 177.282V177.99C184.072 178.023 183.908 178.039 183.765 178.039C183.221 178.039 182.832 177.93 182.598 177.712C182.363 177.494 182.246 177.134 182.246 176.633V173.439H181.396V172.736H182.246V171.374ZM185.547 178V172.736H186.387V178H185.547ZM186.382 171.496C186.268 171.61 186.13 171.667 185.967 171.667C185.804 171.667 185.666 171.61 185.552 171.496C185.438 171.379 185.381 171.241 185.381 171.081C185.381 170.922 185.438 170.785 185.552 170.671C185.666 170.554 185.804 170.495 185.967 170.495C186.13 170.495 186.268 170.554 186.382 170.671C186.496 170.785 186.553 170.922 186.553 171.081C186.553 171.241 186.496 171.379 186.382 171.496ZM191.924 177.365C191.491 177.85 190.9 178.093 190.151 178.093C189.403 178.093 188.81 177.85 188.374 177.365C187.941 176.877 187.725 176.211 187.725 175.368C187.725 174.522 187.941 173.856 188.374 173.371C188.807 172.886 189.399 172.644 190.151 172.644C190.903 172.644 191.496 172.886 191.929 173.371C192.362 173.856 192.578 174.522 192.578 175.368C192.578 176.211 192.36 176.877 191.924 177.365ZM188.999 176.823C189.269 177.165 189.653 177.336 190.151 177.336C190.649 177.336 191.034 177.165 191.304 176.823C191.574 176.478 191.709 175.993 191.709 175.368C191.709 174.743 191.574 174.26 191.304 173.918C191.034 173.573 190.649 173.4 190.151 173.4C189.653 173.4 189.269 173.573 188.999 173.918C188.729 174.26 188.594 174.743 188.594 175.368C188.594 175.993 188.729 176.478 188.999 176.823ZM193.896 178V172.736H194.697V173.566H194.775C195.055 172.951 195.583 172.644 196.357 172.644C196.947 172.644 197.401 172.813 197.72 173.151C198.039 173.487 198.198 173.967 198.198 174.592V178H197.358V174.797C197.358 174.325 197.256 173.975 197.051 173.747C196.849 173.516 196.538 173.4 196.118 173.4C195.695 173.4 195.358 173.534 195.107 173.801C194.86 174.064 194.736 174.426 194.736 174.885V178H193.896ZM199.614 174.177C199.614 173.741 199.801 173.376 200.176 173.083C200.55 172.79 201.017 172.644 201.577 172.644C202.127 172.644 202.581 172.771 202.939 173.024C203.298 173.278 203.504 173.622 203.56 174.055H202.729C202.671 173.84 202.541 173.671 202.339 173.547C202.14 173.42 201.885 173.356 201.572 173.356C201.257 173.356 200.991 173.43 200.776 173.576C200.565 173.723 200.459 173.911 200.459 174.143C200.459 174.322 200.532 174.471 200.679 174.592C200.828 174.709 201.06 174.805 201.372 174.88L202.183 175.075C202.684 175.196 203.053 175.37 203.291 175.598C203.532 175.826 203.652 176.127 203.652 176.501C203.652 176.966 203.452 177.349 203.052 177.648C202.651 177.945 202.148 178.093 201.543 178.093C200.957 178.093 200.477 177.963 200.103 177.702C199.728 177.442 199.518 177.093 199.473 176.657H200.337C200.409 176.885 200.55 177.064 200.762 177.194C200.973 177.321 201.243 177.385 201.572 177.385C201.927 177.385 202.218 177.308 202.446 177.155C202.674 177.002 202.788 176.805 202.788 176.564C202.788 176.206 202.51 175.959 201.953 175.822L201.05 175.603C200.552 175.482 200.187 175.31 199.956 175.085C199.728 174.857 199.614 174.554 199.614 174.177ZM205.503 179.792H204.873L205.337 177.014H206.27L205.503 179.792ZM210.762 178V172.736H211.562V173.566H211.641C211.921 172.951 212.448 172.644 213.223 172.644C213.812 172.644 214.266 172.813 214.585 173.151C214.904 173.487 215.063 173.967 215.063 174.592V178H214.224V174.797C214.224 174.325 214.121 173.975 213.916 173.747C213.714 173.516 213.403 173.4 212.983 173.4C212.56 173.4 212.223 173.534 211.973 173.801C211.725 174.064 211.602 174.426 211.602 174.885V178H210.762ZM220.537 177.365C220.104 177.85 219.513 178.093 218.765 178.093C218.016 178.093 217.424 177.85 216.987 177.365C216.554 176.877 216.338 176.211 216.338 175.368C216.338 174.522 216.554 173.856 216.987 173.371C217.42 172.886 218.013 172.644 218.765 172.644C219.517 172.644 220.109 172.886 220.542 173.371C220.975 173.856 221.191 174.522 221.191 175.368C221.191 176.211 220.973 176.877 220.537 177.365ZM217.612 176.823C217.882 177.165 218.267 177.336 218.765 177.336C219.263 177.336 219.647 177.165 219.917 176.823C220.187 176.478 220.322 175.993 220.322 175.368C220.322 174.743 220.187 174.26 219.917 173.918C219.647 173.573 219.263 173.4 218.765 173.4C218.267 173.4 217.882 173.573 217.612 173.918C217.342 174.26 217.207 174.743 217.207 175.368C217.207 175.993 217.342 176.478 217.612 176.823ZM222.861 171.374H223.701V172.736H224.873V173.439H223.701V176.418C223.701 176.727 223.763 176.952 223.887 177.092C224.01 177.232 224.209 177.302 224.482 177.302C224.603 177.302 224.733 177.295 224.873 177.282V177.99C224.688 178.023 224.523 178.039 224.38 178.039C223.836 178.039 223.447 177.93 223.213 177.712C222.979 177.494 222.861 177.134 222.861 176.633V173.439H222.012V172.736H222.861V171.374ZM228.984 178V172.736H229.824V178H228.984ZM229.819 171.496C229.705 171.61 229.567 171.667 229.404 171.667C229.242 171.667 229.103 171.61 228.989 171.496C228.875 171.379 228.818 171.241 228.818 171.081C228.818 170.922 228.875 170.785 228.989 170.671C229.103 170.554 229.242 170.495 229.404 170.495C229.567 170.495 229.705 170.554 229.819 170.671C229.933 170.785 229.99 170.922 229.99 171.081C229.99 171.241 229.933 171.379 229.819 171.496ZM231.426 178V172.736H232.227V173.566H232.305C232.425 173.273 232.612 173.047 232.866 172.888C233.12 172.725 233.423 172.644 233.774 172.644C234.119 172.644 234.416 172.727 234.663 172.893C234.914 173.059 235.103 173.283 235.229 173.566H235.308C235.451 173.283 235.666 173.059 235.952 172.893C236.239 172.727 236.561 172.644 236.919 172.644C237.456 172.644 237.869 172.793 238.159 173.093C238.449 173.389 238.594 173.812 238.594 174.362V178H237.754V174.558C237.754 173.786 237.384 173.4 236.646 173.4C236.287 173.4 235.994 173.518 235.767 173.752C235.539 173.986 235.425 174.274 235.425 174.616V178H234.585V174.426C234.585 174.113 234.484 173.864 234.282 173.679C234.084 173.493 233.818 173.4 233.486 173.4C233.145 173.4 232.855 173.531 232.617 173.791C232.383 174.051 232.266 174.367 232.266 174.738V178H231.426ZM242.69 172.644C243.361 172.644 243.896 172.891 244.297 173.386C244.701 173.881 244.902 174.541 244.902 175.368C244.902 176.192 244.701 176.853 244.297 177.351C243.893 177.845 243.358 178.093 242.69 178.093C242.316 178.093 241.984 178.016 241.694 177.863C241.405 177.707 241.188 177.489 241.045 177.209H240.967V179.758H240.127V172.736H240.928V173.615H241.006C241.175 173.312 241.408 173.075 241.704 172.902C242.004 172.73 242.332 172.644 242.69 172.644ZM242.49 177.336C242.972 177.336 243.35 177.162 243.623 176.813C243.896 176.465 244.033 175.983 244.033 175.368C244.033 174.753 243.896 174.271 243.623 173.923C243.353 173.575 242.977 173.4 242.495 173.4C242.02 173.4 241.642 173.578 241.362 173.933C241.082 174.284 240.942 174.763 240.942 175.368C240.942 175.97 241.081 176.449 241.357 176.804C241.637 177.159 242.015 177.336 242.49 177.336ZM246.221 178V172.736H247.021V173.518H247.1C247.178 173.26 247.354 173.05 247.627 172.888C247.9 172.725 248.211 172.644 248.56 172.644C248.719 172.644 248.859 172.652 248.979 172.668V173.508C248.866 173.475 248.687 173.459 248.442 173.459C248.042 173.459 247.712 173.579 247.451 173.82C247.191 174.061 247.061 174.367 247.061 174.738V178H246.221ZM251.982 173.386C251.562 173.386 251.217 173.527 250.947 173.811C250.677 174.094 250.526 174.468 250.493 174.934H253.394C253.384 174.468 253.25 174.094 252.993 173.811C252.736 173.527 252.399 173.386 251.982 173.386ZM253.369 176.638H254.209C254.082 177.093 253.823 177.45 253.433 177.707C253.045 177.964 252.565 178.093 251.992 178.093C251.263 178.093 250.685 177.849 250.259 177.36C249.832 176.869 249.619 176.206 249.619 175.373C249.619 174.543 249.834 173.881 250.264 173.386C250.693 172.891 251.27 172.644 251.992 172.644C252.702 172.644 253.26 172.88 253.667 173.352C254.074 173.824 254.277 174.47 254.277 175.29V175.612H250.493V175.651C250.516 176.172 250.662 176.586 250.933 176.892C251.206 177.198 251.566 177.351 252.012 177.351C252.692 177.351 253.145 177.113 253.369 176.638ZM255.474 174.177C255.474 173.741 255.661 173.376 256.035 173.083C256.41 172.79 256.877 172.644 257.437 172.644C257.987 172.644 258.441 172.771 258.799 173.024C259.157 173.278 259.364 173.622 259.419 174.055H258.589C258.53 173.84 258.4 173.671 258.198 173.547C258 173.42 257.744 173.356 257.432 173.356C257.116 173.356 256.851 173.43 256.636 173.576C256.424 173.723 256.318 173.911 256.318 174.143C256.318 174.322 256.392 174.471 256.538 174.592C256.688 174.709 256.919 174.805 257.231 174.88L258.042 175.075C258.543 175.196 258.913 175.37 259.15 175.598C259.391 175.826 259.512 176.127 259.512 176.501C259.512 176.966 259.312 177.349 258.911 177.648C258.511 177.945 258.008 178.093 257.402 178.093C256.816 178.093 256.336 177.963 255.962 177.702C255.588 177.442 255.378 177.093 255.332 176.657H256.196C256.268 176.885 256.41 177.064 256.621 177.194C256.833 177.321 257.103 177.385 257.432 177.385C257.786 177.385 258.078 177.308 258.306 177.155C258.534 177.002 258.647 176.805 258.647 176.564C258.647 176.206 258.369 175.959 257.812 175.822L256.909 175.603C256.411 175.482 256.047 175.31 255.815 175.085C255.588 174.857 255.474 174.554 255.474 174.177ZM260.61 174.177C260.61 173.741 260.798 173.376 261.172 173.083C261.546 172.79 262.013 172.644 262.573 172.644C263.123 172.644 263.577 172.771 263.936 173.024C264.294 173.278 264.5 173.622 264.556 174.055H263.726C263.667 173.84 263.537 173.671 263.335 173.547C263.136 173.42 262.881 173.356 262.568 173.356C262.253 173.356 261.987 173.43 261.772 173.576C261.561 173.723 261.455 173.911 261.455 174.143C261.455 174.322 261.528 174.471 261.675 174.592C261.825 174.709 262.056 174.805 262.368 174.88L263.179 175.075C263.68 175.196 264.049 175.37 264.287 175.598C264.528 175.826 264.648 176.127 264.648 176.501C264.648 176.966 264.448 177.349 264.048 177.648C263.647 177.945 263.145 178.093 262.539 178.093C261.953 178.093 261.473 177.963 261.099 177.702C260.724 177.442 260.514 177.093 260.469 176.657H261.333C261.405 176.885 261.546 177.064 261.758 177.194C261.969 177.321 262.24 177.385 262.568 177.385C262.923 177.385 263.215 177.308 263.442 177.155C263.67 177.002 263.784 176.805 263.784 176.564C263.784 176.206 263.506 175.959 262.949 175.822L262.046 175.603C261.548 175.482 261.183 175.31 260.952 175.085C260.724 174.857 260.61 174.554 260.61 174.177ZM268.066 173.386C267.646 173.386 267.301 173.527 267.031 173.811C266.761 174.094 266.61 174.468 266.577 174.934H269.478C269.468 174.468 269.334 174.094 269.077 173.811C268.82 173.527 268.483 173.386 268.066 173.386ZM269.453 176.638H270.293C270.166 177.093 269.907 177.45 269.517 177.707C269.129 177.964 268.649 178.093 268.076 178.093C267.347 178.093 266.769 177.849 266.343 177.36C265.916 176.869 265.703 176.206 265.703 175.373C265.703 174.543 265.918 173.881 266.348 173.386C266.777 172.891 267.354 172.644 268.076 172.644C268.786 172.644 269.344 172.88 269.751 173.352C270.158 173.824 270.361 174.47 270.361 175.29V175.612H266.577V175.651C266.6 176.172 266.746 176.586 267.017 176.892C267.29 177.198 267.65 177.351 268.096 177.351C268.776 177.351 269.229 177.113 269.453 176.638ZM273.628 178.093C272.954 178.093 272.417 177.845 272.017 177.351C271.616 176.856 271.416 176.195 271.416 175.368C271.416 174.545 271.616 173.885 272.017 173.391C272.42 172.893 272.957 172.644 273.628 172.644C273.996 172.644 274.325 172.727 274.614 172.893C274.907 173.055 275.129 173.28 275.278 173.566H275.352V170.646H276.191V178H275.391V177.16H275.312C275.146 177.453 274.915 177.683 274.619 177.849C274.323 178.011 273.993 178.093 273.628 178.093ZM273.823 173.4C273.345 173.4 272.969 173.576 272.695 173.928C272.422 174.276 272.285 174.756 272.285 175.368C272.285 175.983 272.42 176.465 272.69 176.813C272.964 177.162 273.341 177.336 273.823 177.336C274.302 177.336 274.679 177.16 274.956 176.809C275.233 176.457 275.371 175.977 275.371 175.368C275.371 174.766 275.231 174.287 274.951 173.933C274.674 173.578 274.299 173.4 273.823 173.4ZM278.516 178.049C278.343 178.049 278.193 177.987 278.066 177.863C277.943 177.736 277.881 177.587 277.881 177.414C277.881 177.238 277.943 177.089 278.066 176.965C278.193 176.841 278.343 176.779 278.516 176.779C278.691 176.779 278.841 176.841 278.965 176.965C279.089 177.089 279.15 177.238 279.15 177.414C279.15 177.587 279.089 177.736 278.965 177.863C278.841 177.987 278.691 178.049 278.516 178.049Z"
          fill="#6E7B91" fill-opacity="0.95"/>
    <rect opacity="0.3" x="3" width="320" height="213" rx="12" fill="#194180"/>
    <g opacity="0.95">
        <rect x="23.5" y="111.5" width="279" height="36" rx="3.5" fill="white" stroke="#387AE5"/>
        <path d="M39.0381 133H37.5635V127.214H35.4492V125.954H41.1523V127.214H39.0381V133ZM42.3633 133V125.559H43.7598V128.498H43.8477C43.9746 128.189 44.1781 127.948 44.458 127.775C44.7412 127.6 45.0798 127.512 45.4736 127.512C46.0563 127.512 46.5088 127.688 46.8311 128.039C47.1566 128.391 47.3193 128.889 47.3193 129.533V133H45.8984V129.87C45.8984 129.499 45.8138 129.217 45.6445 129.025C45.4753 128.833 45.2295 128.737 44.9072 128.737C44.5557 128.737 44.2806 128.845 44.082 129.06C43.8835 129.271 43.7842 129.554 43.7842 129.909V133H42.3633ZM51.0303 128.586C50.7015 128.586 50.4297 128.692 50.2148 128.903C50.0033 129.115 49.8844 129.395 49.8584 129.743H52.1533C52.137 129.385 52.028 129.104 51.8262 128.898C51.6276 128.69 51.3623 128.586 51.0303 128.586ZM52.1826 131.467H53.5059C53.3984 131.978 53.125 132.382 52.6855 132.678C52.2493 132.971 51.7025 133.117 51.0449 133.117C50.2246 133.117 49.585 132.873 49.126 132.385C48.667 131.893 48.4375 131.21 48.4375 130.334C48.4375 129.458 48.6686 128.767 49.1309 128.259C49.5931 127.751 50.2246 127.497 51.0254 127.497C51.8197 127.497 52.4382 127.736 52.8809 128.215C53.3268 128.693 53.5498 129.361 53.5498 130.217V130.651H49.8535V130.725C49.8633 131.125 49.9772 131.442 50.1953 131.677C50.4167 131.908 50.7129 132.023 51.084 132.023C51.3639 132.023 51.5983 131.976 51.7871 131.882C51.9759 131.784 52.1077 131.646 52.1826 131.467ZM64.7559 127.614L63.3252 133H61.8115L60.8496 129.284H60.7617L59.8096 133H58.3154L56.8799 127.614H58.3203L59.1211 131.477H59.209L60.1514 127.614H61.5088L62.4561 131.477H62.5439L63.3447 127.614H64.7559ZM69.8779 132.37C69.4092 132.868 68.7614 133.117 67.9346 133.117C67.1077 133.117 66.4583 132.868 65.9863 132.37C65.5176 131.872 65.2832 131.184 65.2832 130.305C65.2832 129.432 65.5192 128.747 65.9912 128.249C66.4665 127.748 67.1143 127.497 67.9346 127.497C68.7549 127.497 69.401 127.748 69.873 128.249C70.3483 128.747 70.5859 129.432 70.5859 130.305C70.5859 131.184 70.3499 131.872 69.8779 132.37ZM67.9346 131.955C68.3122 131.955 68.6051 131.812 68.8135 131.525C69.0218 131.236 69.126 130.829 69.126 130.305C69.126 129.787 69.0202 129.383 68.8086 129.094C68.6003 128.804 68.3089 128.659 67.9346 128.659C67.557 128.659 67.264 128.804 67.0557 129.094C66.8473 129.383 66.7432 129.787 66.7432 130.305C66.7432 130.829 66.8457 131.236 67.0508 131.525C67.2591 131.812 67.5537 131.955 67.9346 131.955ZM71.748 133V127.614H73.125V128.474H73.2129C73.2845 128.2 73.4473 127.974 73.7012 127.795C73.9583 127.616 74.2562 127.526 74.5947 127.526C74.8389 127.526 75.0244 127.549 75.1514 127.595V128.889C75.0016 128.83 74.777 128.801 74.4775 128.801C74.0837 128.801 73.7663 128.91 73.5254 129.128C73.2878 129.346 73.1689 129.642 73.1689 130.017V133H71.748ZM77.6611 129.719L79.4629 127.614H81.0791L79.0283 129.924L81.2207 133H79.5361L77.9639 130.812L77.5732 131.213V133H76.1523V125.559H77.5732V129.719H77.6611ZM84.707 133V127.614H86.1279V133H84.707ZM85.4199 126.862C85.166 126.862 84.9626 126.796 84.8096 126.662C84.6566 126.529 84.5801 126.356 84.5801 126.145C84.5801 125.93 84.6566 125.757 84.8096 125.627C84.9626 125.493 85.166 125.427 85.4199 125.427C85.6738 125.427 85.8773 125.493 86.0303 125.627C86.1833 125.757 86.2598 125.93 86.2598 126.145C86.2598 126.356 86.1816 126.529 86.0254 126.662C85.8724 126.796 85.6706 126.862 85.4199 126.862ZM87.4463 129.196C87.4463 128.685 87.6514 128.275 88.0615 127.966C88.4749 127.653 89.0169 127.497 89.6875 127.497C90.3711 127.497 90.9066 127.635 91.2939 127.912C91.6846 128.189 91.8994 128.584 91.9385 129.099H90.625C90.5892 128.923 90.4899 128.786 90.3271 128.688C90.1676 128.588 89.9577 128.537 89.6973 128.537C89.4401 128.537 89.2285 128.591 89.0625 128.698C88.8965 128.802 88.8135 128.939 88.8135 129.108C88.8135 129.239 88.8721 129.348 88.9893 129.436C89.1064 129.52 89.2904 129.59 89.541 129.646L90.5518 129.865C91.0758 129.979 91.4583 130.153 91.6992 130.388C91.9434 130.622 92.0654 130.939 92.0654 131.34C92.0654 131.874 91.8473 132.303 91.4111 132.629C90.9749 132.954 90.402 133.117 89.6924 133.117C88.9827 133.117 88.4212 132.977 88.0078 132.697C87.5944 132.417 87.3633 132.019 87.3145 131.501H88.7012C88.8151 131.885 89.1553 132.077 89.7217 132.077C89.9984 132.077 90.223 132.025 90.3955 131.921C90.568 131.813 90.6543 131.674 90.6543 131.501C90.6543 131.368 90.6006 131.26 90.4932 131.179C90.3857 131.094 90.2132 131.026 89.9756 130.974L88.999 130.754C88.4749 130.64 88.0843 130.456 87.8271 130.202C87.5732 129.945 87.4463 129.61 87.4463 129.196ZM97.3096 131.389C97.5212 131.662 97.819 131.799 98.2031 131.799C98.5872 131.799 98.8883 131.662 99.1064 131.389C99.3245 131.112 99.4336 130.736 99.4336 130.261C99.4336 129.785 99.3229 129.41 99.1016 129.133C98.8835 128.856 98.584 128.718 98.2031 128.718C97.8223 128.718 97.5244 128.856 97.3096 129.133C97.098 129.406 96.9922 129.781 96.9922 130.256C96.9922 130.734 97.098 131.112 97.3096 131.389ZM98.1836 135.041C97.474 135.041 96.8962 134.896 96.4502 134.606C96.0075 134.32 95.7633 133.939 95.7178 133.464H97.124C97.1598 133.63 97.2738 133.762 97.4658 133.859C97.6579 133.957 97.9069 134.006 98.2129 134.006C98.5938 134.006 98.89 133.921 99.1016 133.752C99.3132 133.586 99.4189 133.352 99.4189 133.049V132.053H99.3311C99.0251 132.632 98.4847 132.922 97.71 132.922C97.0394 132.922 96.5088 132.683 96.1182 132.204C95.7275 131.722 95.5322 131.075 95.5322 130.261C95.5322 129.424 95.7292 128.76 96.123 128.269C96.5202 127.774 97.0589 127.526 97.7393 127.526C98.1038 127.526 98.431 127.611 98.7207 127.78C99.0137 127.95 99.2318 128.182 99.375 128.479H99.4629V127.614H100.84V132.98C100.84 133.612 100.601 134.113 100.122 134.484C99.6436 134.855 98.9974 135.041 98.1836 135.041ZM106.597 132.37C106.128 132.868 105.48 133.117 104.653 133.117C103.826 133.117 103.177 132.868 102.705 132.37C102.236 131.872 102.002 131.184 102.002 130.305C102.002 129.432 102.238 128.747 102.71 128.249C103.185 127.748 103.833 127.497 104.653 127.497C105.474 127.497 106.12 127.748 106.592 128.249C107.067 128.747 107.305 129.432 107.305 130.305C107.305 131.184 107.069 131.872 106.597 132.37ZM104.653 131.955C105.031 131.955 105.324 131.812 105.532 131.525C105.741 131.236 105.845 130.829 105.845 130.305C105.845 129.787 105.739 129.383 105.527 129.094C105.319 128.804 105.028 128.659 104.653 128.659C104.276 128.659 103.983 128.804 103.774 129.094C103.566 129.383 103.462 129.787 103.462 130.305C103.462 130.829 103.564 131.236 103.77 131.525C103.978 131.812 104.272 131.955 104.653 131.955ZM112.798 132.37C112.329 132.868 111.681 133.117 110.854 133.117C110.028 133.117 109.378 132.868 108.906 132.37C108.438 131.872 108.203 131.184 108.203 130.305C108.203 129.432 108.439 128.747 108.911 128.249C109.386 127.748 110.034 127.497 110.854 127.497C111.675 127.497 112.321 127.748 112.793 128.249C113.268 128.747 113.506 129.432 113.506 130.305C113.506 131.184 113.27 131.872 112.798 132.37ZM110.854 131.955C111.232 131.955 111.525 131.812 111.733 131.525C111.942 131.236 112.046 130.829 112.046 130.305C112.046 129.787 111.94 129.383 111.729 129.094C111.52 128.804 111.229 128.659 110.854 128.659C110.477 128.659 110.184 128.804 109.976 129.094C109.767 129.383 109.663 129.787 109.663 130.305C109.663 130.829 109.766 131.236 109.971 131.525C110.179 131.812 110.474 131.955 110.854 131.955ZM116.597 133.083C115.92 133.083 115.384 132.834 114.99 132.336C114.6 131.838 114.404 131.159 114.404 130.3C114.404 129.444 114.6 128.768 114.99 128.273C115.384 127.775 115.92 127.526 116.597 127.526C116.961 127.526 117.285 127.611 117.568 127.78C117.852 127.946 118.063 128.177 118.203 128.474H118.286V125.559H119.707V133H118.33V132.155H118.242C118.099 132.445 117.882 132.673 117.593 132.839C117.303 133.002 116.971 133.083 116.597 133.083ZM117.974 129.147C117.756 128.861 117.458 128.718 117.08 128.718C116.702 128.718 116.405 128.859 116.187 129.143C115.972 129.423 115.864 129.81 115.864 130.305C115.864 130.803 115.972 131.193 116.187 131.477C116.401 131.757 116.699 131.896 117.08 131.896C117.461 131.896 117.759 131.757 117.974 131.477C118.192 131.193 118.301 130.804 118.301 130.31C118.301 129.818 118.192 129.431 117.974 129.147ZM122.109 134.909H121.157L121.606 131.857H122.998L122.109 134.909ZM129.18 132.014C129.508 132.014 129.784 131.921 130.005 131.735C130.226 131.55 130.337 131.32 130.337 131.047V130.651L129.248 130.72C128.643 130.762 128.34 130.979 128.34 131.369C128.34 131.568 128.416 131.726 128.569 131.843C128.726 131.957 128.929 132.014 129.18 132.014ZM128.711 133.083C128.19 133.083 127.765 132.935 127.437 132.639C127.111 132.342 126.948 131.95 126.948 131.462C126.948 130.977 127.127 130.596 127.485 130.319C127.847 130.039 128.363 129.88 129.033 129.841L130.337 129.763V129.323C130.337 129.099 130.259 128.926 130.103 128.806C129.946 128.682 129.722 128.62 129.429 128.62C128.901 128.62 128.577 128.786 128.457 129.118H127.148C127.194 128.62 127.428 128.226 127.852 127.937C128.278 127.644 128.83 127.497 129.507 127.497C130.216 127.497 130.765 127.657 131.152 127.976C131.543 128.295 131.738 128.744 131.738 129.323V133H130.361V132.297H130.273C130.133 132.544 129.925 132.738 129.648 132.878C129.372 133.015 129.059 133.083 128.711 133.083ZM133.013 129.196C133.013 128.685 133.218 128.275 133.628 127.966C134.041 127.653 134.583 127.497 135.254 127.497C135.938 127.497 136.473 127.635 136.86 127.912C137.251 128.189 137.466 128.584 137.505 129.099H136.191C136.156 128.923 136.056 128.786 135.894 128.688C135.734 128.588 135.524 128.537 135.264 128.537C135.007 128.537 134.795 128.591 134.629 128.698C134.463 128.802 134.38 128.939 134.38 129.108C134.38 129.239 134.438 129.348 134.556 129.436C134.673 129.52 134.857 129.59 135.107 129.646L136.118 129.865C136.642 129.979 137.025 130.153 137.266 130.388C137.51 130.622 137.632 130.939 137.632 131.34C137.632 131.874 137.414 132.303 136.978 132.629C136.541 132.954 135.968 133.117 135.259 133.117C134.549 133.117 133.988 132.977 133.574 132.697C133.161 132.417 132.93 132.019 132.881 131.501H134.268C134.382 131.885 134.722 132.077 135.288 132.077C135.565 132.077 135.789 132.025 135.962 131.921C136.134 131.813 136.221 131.674 136.221 131.501C136.221 131.368 136.167 131.26 136.06 131.179C135.952 131.094 135.78 131.026 135.542 130.974L134.565 130.754C134.041 130.64 133.651 130.456 133.394 130.202C133.14 129.945 133.013 129.61 133.013 129.196ZM143.706 128.586C143.377 128.586 143.105 128.692 142.891 128.903C142.679 129.115 142.56 129.395 142.534 129.743H144.829C144.813 129.385 144.704 129.104 144.502 128.898C144.303 128.69 144.038 128.586 143.706 128.586ZM144.858 131.467H146.182C146.074 131.978 145.801 132.382 145.361 132.678C144.925 132.971 144.378 133.117 143.721 133.117C142.9 133.117 142.261 132.873 141.802 132.385C141.343 131.893 141.113 131.21 141.113 130.334C141.113 129.458 141.344 128.767 141.807 128.259C142.269 127.751 142.9 127.497 143.701 127.497C144.495 127.497 145.114 127.736 145.557 128.215C146.003 128.693 146.226 129.361 146.226 130.217V130.651H142.529V130.725C142.539 131.125 142.653 131.442 142.871 131.677C143.092 131.908 143.389 132.023 143.76 132.023C144.04 132.023 144.274 131.976 144.463 131.882C144.652 131.784 144.784 131.646 144.858 131.467ZM149.375 131.242H149.287L148.286 133H146.777L148.467 130.339L146.768 127.614H148.398L149.351 129.382H149.438L150.391 127.614H151.943L150.254 130.275L151.958 133H150.376L149.375 131.242ZM156.089 127.526C156.772 127.526 157.31 127.772 157.7 128.264C158.091 128.755 158.286 129.436 158.286 130.305C158.286 131.171 158.092 131.851 157.705 132.346C157.318 132.837 156.787 133.083 156.113 133.083C155.729 133.083 155.396 133.003 155.112 132.844C154.829 132.684 154.621 132.461 154.487 132.175H154.399V134.787H152.979V127.614H154.355V128.498H154.443C154.59 128.195 154.808 127.958 155.098 127.785C155.387 127.613 155.718 127.526 156.089 127.526ZM155.605 131.896C155.99 131.896 156.289 131.757 156.504 131.477C156.719 131.193 156.826 130.803 156.826 130.305C156.826 129.81 156.717 129.423 156.499 129.143C156.284 128.859 155.988 128.718 155.61 128.718C155.233 128.718 154.933 128.861 154.712 129.147C154.494 129.431 154.385 129.818 154.385 130.31C154.385 130.801 154.494 131.188 154.712 131.472C154.93 131.755 155.228 131.896 155.605 131.896ZM161.772 128.586C161.444 128.586 161.172 128.692 160.957 128.903C160.745 129.115 160.627 129.395 160.601 129.743H162.896C162.879 129.385 162.77 129.104 162.568 128.898C162.37 128.69 162.104 128.586 161.772 128.586ZM162.925 131.467H164.248C164.141 131.978 163.867 132.382 163.428 132.678C162.992 132.971 162.445 133.117 161.787 133.117C160.967 133.117 160.327 132.873 159.868 132.385C159.409 131.893 159.18 131.21 159.18 130.334C159.18 129.458 159.411 128.767 159.873 128.259C160.335 127.751 160.967 127.497 161.768 127.497C162.562 127.497 163.18 127.736 163.623 128.215C164.069 128.693 164.292 129.361 164.292 130.217V130.651H160.596V130.725C160.605 131.125 160.719 131.442 160.938 131.677C161.159 131.908 161.455 132.023 161.826 132.023C162.106 132.023 162.34 131.976 162.529 131.882C162.718 131.784 162.85 131.646 162.925 131.467ZM170.225 129.514H168.896C168.848 129.25 168.73 129.043 168.545 128.894C168.363 128.741 168.123 128.664 167.827 128.664C167.443 128.664 167.147 128.804 166.938 129.084C166.733 129.364 166.631 129.768 166.631 130.295C166.631 130.829 166.733 131.239 166.938 131.525C167.147 131.809 167.443 131.95 167.827 131.95C168.12 131.95 168.358 131.88 168.54 131.74C168.726 131.6 168.844 131.398 168.896 131.135H170.225C170.166 131.743 169.925 132.227 169.502 132.585C169.079 132.94 168.521 133.117 167.827 133.117C166.987 133.117 166.338 132.873 165.879 132.385C165.423 131.893 165.195 131.197 165.195 130.295C165.195 129.4 165.423 128.71 165.879 128.225C166.335 127.74 166.984 127.497 167.827 127.497C168.53 127.497 169.09 127.678 169.507 128.039C169.927 128.4 170.166 128.892 170.225 129.514ZM171.792 126.335H173.213V127.668H174.331V128.786H173.213V131.208C173.213 131.442 173.268 131.615 173.379 131.726C173.493 131.836 173.67 131.892 173.911 131.892C174.071 131.892 174.211 131.885 174.331 131.872V132.956C174.113 132.998 173.875 133.02 173.618 133.02C172.964 133.02 172.495 132.906 172.212 132.678C171.932 132.45 171.792 132.072 171.792 131.545V128.786H170.952V127.668H171.792V126.335ZM177.808 128.586C177.479 128.586 177.207 128.692 176.992 128.903C176.781 129.115 176.662 129.395 176.636 129.743H178.931C178.914 129.385 178.805 129.104 178.604 128.898C178.405 128.69 178.14 128.586 177.808 128.586ZM178.96 131.467H180.283C180.176 131.978 179.902 132.382 179.463 132.678C179.027 132.971 178.48 133.117 177.822 133.117C177.002 133.117 176.362 132.873 175.903 132.385C175.444 131.893 175.215 131.21 175.215 130.334C175.215 129.458 175.446 128.767 175.908 128.259C176.37 127.751 177.002 127.497 177.803 127.497C178.597 127.497 179.215 127.736 179.658 128.215C180.104 128.693 180.327 129.361 180.327 130.217V130.651H176.631V130.725C176.641 131.125 176.755 131.442 176.973 131.677C177.194 131.908 177.49 132.023 177.861 132.023C178.141 132.023 178.376 131.976 178.564 131.882C178.753 131.784 178.885 131.646 178.96 131.467ZM183.423 133.083C182.746 133.083 182.21 132.834 181.816 132.336C181.426 131.838 181.23 131.159 181.23 130.3C181.23 129.444 181.426 128.768 181.816 128.273C182.21 127.775 182.746 127.526 183.423 127.526C183.787 127.526 184.111 127.611 184.395 127.78C184.678 127.946 184.889 128.177 185.029 128.474H185.112V125.559H186.533V133H185.156V132.155H185.068C184.925 132.445 184.709 132.673 184.419 132.839C184.129 133.002 183.797 133.083 183.423 133.083ZM184.8 129.147C184.582 128.861 184.284 128.718 183.906 128.718C183.529 128.718 183.231 128.859 183.013 129.143C182.798 129.423 182.69 129.81 182.69 130.305C182.69 130.803 182.798 131.193 183.013 131.477C183.228 131.757 183.525 131.896 183.906 131.896C184.287 131.896 184.585 131.757 184.8 131.477C185.018 131.193 185.127 130.804 185.127 130.31C185.127 129.818 185.018 129.431 184.8 129.147ZM189.658 132.897C189.502 133.054 189.294 133.132 189.033 133.132C188.773 133.132 188.563 133.054 188.403 132.897C188.247 132.738 188.169 132.533 188.169 132.282C188.169 132.035 188.247 131.833 188.403 131.677C188.563 131.517 188.773 131.438 189.033 131.438C189.294 131.438 189.502 131.516 189.658 131.672C189.818 131.828 189.897 132.032 189.897 132.282C189.897 132.533 189.818 132.738 189.658 132.897Z"
              fill="#387AE5"/>
    </g>
    <g filter="url(#filter0_dd_9_20045)">
        <g filter="url(#filter1_dd_9_20045)">
            <path d="M188.625 143.312V145.938C188.625 146.047 188.598 146.129 188.57 146.211L187.695 149.93C187.586 150.422 187.148 150.75 186.656 150.75H180.969C180.586 150.75 180.258 150.586 180.066 150.312L176.566 145.5C176.211 145.008 176.32 144.324 176.812 143.969C177.305 143.613 177.988 143.723 178.344 144.215L179.219 145.391V137.844C179.219 137.242 179.684 136.75 180.312 136.75C180.914 136.75 181.406 137.242 181.406 137.844V143.312H181.625V142.219C181.625 141.617 182.09 141.125 182.719 141.125C183.32 141.125 183.812 141.617 183.812 142.219V143.312H184.031V142.656C184.031 142.055 184.496 141.562 185.125 141.562C185.727 141.562 186.219 142.055 186.219 142.656V143.312H186.438C186.438 142.711 186.902 142.219 187.531 142.219C188.133 142.219 188.625 142.711 188.625 143.312ZM181.625 145.5H181.406V148.125H181.625V145.5ZM184.031 145.5H183.812V148.125H184.031V145.5ZM186.438 145.5H186.219V148.125H186.438V145.5Z"
                  fill="#387AE5"/>
        </g>
    </g>
    <path d="M67.798 35V25.984H69.688V33.544H74.126V35H67.798ZM78.2697 35.14C77.1217 35.14 76.2117 34.8553 75.5397 34.286C74.8677 33.7073 74.5317 32.8347 74.5317 31.668C74.5317 30.6133 74.8117 29.778 75.3717 29.162C75.941 28.5367 76.7857 28.224 77.9057 28.224C78.9323 28.224 79.7163 28.4947 80.2577 29.036C80.8083 29.568 81.0837 30.268 81.0837 31.136V32.34H76.2817C76.3843 32.872 76.627 33.236 77.0097 33.432C77.4017 33.628 77.9523 33.726 78.6617 33.726C79.0163 33.726 79.3757 33.6933 79.7397 33.628C80.113 33.5627 80.4303 33.4787 80.6917 33.376V34.72C80.3837 34.86 80.0243 34.9627 79.6137 35.028C79.203 35.1027 78.755 35.14 78.2697 35.14ZM76.2817 31.178H79.4317V30.814C79.4317 30.4313 79.3197 30.1327 79.0957 29.918C78.8717 29.694 78.4937 29.582 77.9617 29.582C77.3363 29.582 76.8977 29.708 76.6457 29.96C76.403 30.212 76.2817 30.618 76.2817 31.178ZM83.9719 35L81.3539 28.364H83.3279L84.9799 33.096L86.6459 28.364H88.6059L86.0019 35H83.9719ZM92.6251 35.14C91.4771 35.14 90.5671 34.8553 89.8951 34.286C89.2231 33.7073 88.8871 32.8347 88.8871 31.668C88.8871 30.6133 89.1671 29.778 89.7271 29.162C90.2965 28.5367 91.1411 28.224 92.2611 28.224C93.2878 28.224 94.0718 28.4947 94.6131 29.036C95.1638 29.568 95.4391 30.268 95.4391 31.136V32.34H90.6371C90.7398 32.872 90.9825 33.236 91.3651 33.432C91.7571 33.628 92.3078 33.726 93.0171 33.726C93.3718 33.726 93.7311 33.6933 94.0951 33.628C94.4685 33.5627 94.7858 33.4787 95.0471 33.376V34.72C94.7391 34.86 94.3798 34.9627 93.9691 35.028C93.5585 35.1027 93.1105 35.14 92.6251 35.14ZM90.6371 31.178H93.7871V30.814C93.7871 30.4313 93.6751 30.1327 93.4511 29.918C93.2271 29.694 92.8491 29.582 92.3171 29.582C91.6918 29.582 91.2531 29.708 91.0011 29.96C90.7585 30.212 90.6371 30.618 90.6371 31.178ZM98.603 35.14C97.959 35.14 97.4877 34.9907 97.189 34.692C96.8997 34.3933 96.755 33.9173 96.755 33.264V25.564H98.645V33.11C98.645 33.3433 98.6917 33.5067 98.785 33.6C98.8784 33.684 99.0137 33.726 99.191 33.726C99.4337 33.726 99.653 33.6933 99.849 33.628V34.93C99.4944 35.07 99.079 35.14 98.603 35.14ZM107.319 35.14C106.078 35.14 105.168 34.8413 104.589 34.244C104.01 33.6373 103.721 32.7833 103.721 31.682C103.721 30.5807 104.01 29.7313 104.589 29.134C105.177 28.5273 106.087 28.224 107.319 28.224C108.56 28.224 109.47 28.5273 110.049 29.134C110.637 29.7313 110.931 30.5807 110.931 31.682C110.931 32.7833 110.642 33.6373 110.063 34.244C109.484 34.8413 108.57 35.14 107.319 35.14ZM107.319 33.53C107.926 33.53 108.36 33.3947 108.621 33.124C108.882 32.844 109.013 32.3633 109.013 31.682C109.013 31.0007 108.882 30.5247 108.621 30.254C108.36 29.974 107.926 29.834 107.319 29.834C106.722 29.834 106.292 29.974 106.031 30.254C105.77 30.5247 105.639 31.0007 105.639 31.682C105.639 32.3633 105.77 32.844 106.031 33.124C106.292 33.3947 106.722 33.53 107.319 33.53ZM112.595 35V29.82H111.671V28.364H112.595V27.692C112.595 27.0013 112.791 26.4367 113.183 25.998C113.575 25.5593 114.154 25.34 114.919 25.34C115.227 25.34 115.503 25.3633 115.745 25.41C115.988 25.4567 116.212 25.522 116.417 25.606V26.908C116.277 26.8613 116.142 26.824 116.011 26.796C115.881 26.768 115.736 26.754 115.577 26.754C115.176 26.754 114.891 26.8287 114.723 26.978C114.565 27.118 114.485 27.3653 114.485 27.72V28.364H116.165L116.081 29.82H114.485V35H112.595ZM122.855 35.14C122.36 35.14 121.889 35.1027 121.441 35.028C120.993 34.9627 120.633 34.8787 120.363 34.776V33.208C120.689 33.3387 121.058 33.4413 121.469 33.516C121.879 33.5813 122.257 33.614 122.603 33.614C123.069 33.614 123.396 33.586 123.583 33.53C123.779 33.474 123.877 33.348 123.877 33.152C123.877 32.928 123.727 32.7647 123.429 32.662C123.139 32.5593 122.705 32.4147 122.127 32.228C121.52 32.0227 121.053 31.7753 120.727 31.486C120.4 31.1967 120.237 30.7673 120.237 30.198C120.237 29.5633 120.465 29.078 120.923 28.742C121.389 28.3967 122.136 28.224 123.163 28.224C123.573 28.224 123.961 28.2567 124.325 28.322C124.689 28.378 124.997 28.448 125.249 28.532V30.086C124.997 29.9647 124.707 29.876 124.381 29.82C124.054 29.7547 123.751 29.722 123.471 29.722C123.069 29.722 122.747 29.75 122.505 29.806C122.271 29.862 122.155 29.9833 122.155 30.17C122.155 30.3753 122.281 30.52 122.533 30.604C122.794 30.688 123.195 30.814 123.737 30.982C124.269 31.1407 124.684 31.3133 124.983 31.5C125.281 31.6867 125.491 31.9107 125.613 32.172C125.734 32.424 125.795 32.7413 125.795 33.124C125.795 34.468 124.815 35.14 122.855 35.14ZM128.988 35.14C128.568 35.14 128.176 35.0653 127.812 34.916C127.457 34.7573 127.168 34.5287 126.944 34.23C126.729 33.922 126.622 33.5393 126.622 33.082C126.622 32.4287 126.85 31.906 127.308 31.514C127.774 31.122 128.46 30.926 129.366 30.926H131.326V30.744C131.326 30.3333 131.209 30.044 130.976 29.876C130.752 29.708 130.294 29.624 129.604 29.624C128.848 29.624 128.12 29.7407 127.42 29.974V28.644C127.728 28.5227 128.101 28.4247 128.54 28.35C128.988 28.266 129.473 28.224 129.996 28.224C130.994 28.224 131.764 28.4293 132.306 28.84C132.856 29.2413 133.132 29.89 133.132 30.786V35H131.494L131.396 34.398C131.134 34.6313 130.812 34.8133 130.43 34.944C130.047 35.0747 129.566 35.14 128.988 35.14ZM129.506 33.894C129.926 33.894 130.29 33.824 130.598 33.684C130.906 33.544 131.148 33.3667 131.326 33.152V32.102H129.408C128.67 32.102 128.302 32.4053 128.302 33.012C128.302 33.6 128.703 33.894 129.506 33.894ZM137.285 35.14C136.52 35.14 135.951 34.9393 135.577 34.538C135.213 34.1367 135.031 33.5907 135.031 32.9V29.82H134.093V28.364H135.031V26.936L136.921 26.376V28.364H138.601L138.489 29.82H136.921V32.774C136.921 33.138 137.005 33.39 137.173 33.53C137.341 33.6607 137.603 33.726 137.957 33.726C138.219 33.726 138.489 33.6793 138.769 33.586V34.888C138.564 34.972 138.34 35.0327 138.097 35.07C137.855 35.1167 137.584 35.14 137.285 35.14ZM140.201 27.146V25.662H142.259V27.146H140.201ZM140.355 35V29.764H139.361L139.529 28.364H142.245V35H140.355ZM146.193 35.14C145.698 35.14 145.227 35.1027 144.779 35.028C144.331 34.9627 143.971 34.8787 143.701 34.776V33.208C144.027 33.3387 144.396 33.4413 144.807 33.516C145.217 33.5813 145.595 33.614 145.941 33.614C146.407 33.614 146.734 33.586 146.921 33.53C147.117 33.474 147.215 33.348 147.215 33.152C147.215 32.928 147.065 32.7647 146.767 32.662C146.477 32.5593 146.043 32.4147 145.465 32.228C144.858 32.0227 144.391 31.7753 144.065 31.486C143.738 31.1967 143.575 30.7673 143.575 30.198C143.575 29.5633 143.803 29.078 144.261 28.742C144.727 28.3967 145.474 28.224 146.501 28.224C146.911 28.224 147.299 28.2567 147.663 28.322C148.027 28.378 148.335 28.448 148.587 28.532V30.086C148.335 29.9647 148.045 29.876 147.719 29.82C147.392 29.7547 147.089 29.722 146.809 29.722C146.407 29.722 146.085 29.75 145.843 29.806C145.609 29.862 145.493 29.9833 145.493 30.17C145.493 30.3753 145.619 30.52 145.871 30.604C146.132 30.688 146.533 30.814 147.075 30.982C147.607 31.1407 148.022 31.3133 148.321 31.5C148.619 31.6867 148.829 31.9107 148.951 32.172C149.072 32.424 149.133 32.7413 149.133 33.124C149.133 34.468 148.153 35.14 146.193 35.14ZM150.439 35V29.82H149.515V28.364H150.439V27.692C150.439 27.0013 150.635 26.4367 151.027 25.998C151.419 25.5593 151.998 25.34 152.763 25.34C153.071 25.34 153.346 25.3633 153.589 25.41C153.832 25.4567 154.056 25.522 154.261 25.606V26.908C154.121 26.8613 153.986 26.824 153.855 26.796C153.724 26.768 153.58 26.754 153.421 26.754C153.02 26.754 152.735 26.8287 152.567 26.978C152.408 27.118 152.329 27.3653 152.329 27.72V28.364H154.009L153.925 29.82H152.329V35H150.439ZM156.605 35.14C156.185 35.14 155.793 35.0653 155.429 34.916C155.074 34.7573 154.785 34.5287 154.561 34.23C154.346 33.922 154.239 33.5393 154.239 33.082C154.239 32.4287 154.467 31.906 154.925 31.514C155.391 31.122 156.077 30.926 156.983 30.926H158.943V30.744C158.943 30.3333 158.826 30.044 158.593 29.876C158.369 29.708 157.911 29.624 157.221 29.624C156.465 29.624 155.737 29.7407 155.037 29.974V28.644C155.345 28.5227 155.718 28.4247 156.157 28.35C156.605 28.266 157.09 28.224 157.613 28.224C158.611 28.224 159.381 28.4293 159.923 28.84C160.473 29.2413 160.749 29.89 160.749 30.786V35H159.111L159.013 34.398C158.751 34.6313 158.429 34.8133 158.047 34.944C157.664 35.0747 157.183 35.14 156.605 35.14ZM157.123 33.894C157.543 33.894 157.907 33.824 158.215 33.684C158.523 33.544 158.765 33.3667 158.943 33.152V32.102H157.025C156.287 32.102 155.919 32.4053 155.919 33.012C155.919 33.6 156.32 33.894 157.123 33.894ZM165.659 35.14C164.473 35.14 163.563 34.846 162.929 34.258C162.303 33.67 161.991 32.8113 161.991 31.682C161.991 30.5153 162.327 29.6473 162.999 29.078C163.68 28.5087 164.585 28.224 165.715 28.224C166.181 28.224 166.583 28.2567 166.919 28.322C167.255 28.3873 167.581 28.4947 167.899 28.644V30.002C167.665 29.89 167.395 29.8013 167.087 29.736C166.779 29.6707 166.447 29.638 166.093 29.638C165.383 29.638 164.842 29.7873 164.469 30.086C164.095 30.3753 163.909 30.9073 163.909 31.682C163.909 32.3913 164.077 32.9093 164.413 33.236C164.758 33.5627 165.313 33.726 166.079 33.726C166.405 33.726 166.723 33.6933 167.031 33.628C167.348 33.5627 167.642 33.4647 167.913 33.334V34.734C167.287 35.0047 166.536 35.14 165.659 35.14ZM171.739 35.14C170.973 35.14 170.404 34.9393 170.031 34.538C169.667 34.1367 169.485 33.5907 169.485 32.9V29.82H168.547V28.364H169.485V26.936L171.375 26.376V28.364H173.055L172.943 29.82H171.375V32.774C171.375 33.138 171.459 33.39 171.627 33.53C171.795 33.6607 172.056 33.726 172.411 33.726C172.672 33.726 172.943 33.6793 173.223 33.586V34.888C173.017 34.972 172.793 35.0327 172.551 35.07C172.308 35.1167 172.037 35.14 171.739 35.14ZM174.655 27.146V25.662H176.713V27.146H174.655ZM174.809 35V29.764H173.815L173.983 28.364H176.699V35H174.809ZM181.626 35.14C180.384 35.14 179.474 34.8413 178.896 34.244C178.317 33.6373 178.028 32.7833 178.028 31.682C178.028 30.5807 178.317 29.7313 178.896 29.134C179.484 28.5273 180.394 28.224 181.626 28.224C182.867 28.224 183.777 28.5273 184.356 29.134C184.944 29.7313 185.238 30.5807 185.238 31.682C185.238 32.7833 184.948 33.6373 184.37 34.244C183.791 34.8413 182.876 35.14 181.626 35.14ZM181.626 33.53C182.232 33.53 182.666 33.3947 182.928 33.124C183.189 32.844 183.32 32.3633 183.32 31.682C183.32 31.0007 183.189 30.5247 182.928 30.254C182.666 29.974 182.232 29.834 181.626 29.834C181.028 29.834 180.599 29.974 180.338 30.254C180.076 30.5247 179.946 31.0007 179.946 31.682C179.946 32.3633 180.076 32.844 180.338 33.124C180.599 33.3947 181.028 33.53 181.626 33.53ZM186.552 35V28.364H188.302L188.372 28.994C188.643 28.7887 188.983 28.6113 189.394 28.462C189.814 28.3033 190.253 28.224 190.71 28.224C191.587 28.224 192.227 28.4293 192.628 28.84C193.029 29.2507 193.23 29.8853 193.23 30.744V35H191.34V30.842C191.34 30.394 191.247 30.0767 191.06 29.89C190.883 29.7033 190.547 29.61 190.052 29.61C189.763 29.61 189.469 29.6753 189.17 29.806C188.881 29.9367 188.638 30.1 188.442 30.296V35H186.552ZM199.315 35L197.565 28.364H199.455L200.463 32.676L201.569 29.218V28.364H203.011L204.271 32.676L205.251 28.364H207.127L205.391 35H203.655L202.381 31.122L201.079 35H199.315ZM208.41 27.146V25.662H210.468V27.146H208.41ZM208.564 35V29.764H207.57L207.738 28.364H210.454V35H208.564ZM214.696 35.14C213.93 35.14 213.361 34.9393 212.988 34.538C212.624 34.1367 212.442 33.5907 212.442 32.9V29.82H211.504V28.364H212.442V26.936L214.332 26.376V28.364H216.012L215.9 29.82H214.332V32.774C214.332 33.138 214.416 33.39 214.584 33.53C214.752 33.6607 215.013 33.726 215.368 33.726C215.629 33.726 215.9 33.6793 216.18 33.586V34.888C215.974 34.972 215.75 35.0327 215.508 35.07C215.265 35.1167 214.994 35.14 214.696 35.14ZM217.15 35V25.564H219.04V28.924C219.31 28.7187 219.642 28.5507 220.034 28.42C220.426 28.2893 220.85 28.224 221.308 28.224C222.185 28.224 222.824 28.4293 223.226 28.84C223.627 29.2507 223.828 29.8853 223.828 30.744V35H221.938V30.842C221.938 30.394 221.844 30.0767 221.658 29.89C221.48 29.7033 221.144 29.61 220.65 29.61C220.36 29.61 220.066 29.6753 219.768 29.806C219.478 29.9367 219.236 30.1 219.04 30.296V35H217.15ZM228.807 35V29.82H227.883V28.364H228.807V27.706C228.807 27.2393 228.919 26.824 229.143 26.46C229.367 26.096 229.689 25.8067 230.109 25.592C230.538 25.3773 231.042 25.27 231.621 25.27C232.358 25.27 232.951 25.3633 233.399 25.55V26.95C233.277 26.8847 233.095 26.838 232.853 26.81C232.61 26.7727 232.395 26.754 232.209 26.754C231.667 26.754 231.28 26.8333 231.047 26.992C230.813 27.1507 230.697 27.4073 230.697 27.762V28.364H234.505V35H232.615V29.82H230.697V35H228.807ZM236.099 35V28.364H237.849L237.919 28.994C238.189 28.7887 238.53 28.6113 238.941 28.462C239.361 28.3033 239.799 28.224 240.257 28.224C241.134 28.224 241.773 28.4293 242.175 28.84C242.576 29.2507 242.777 29.8853 242.777 30.744V35H240.887V30.842C240.887 30.394 240.793 30.0767 240.607 29.89C240.429 29.7033 240.093 29.61 239.599 29.61C239.309 29.61 239.015 29.6753 238.717 29.806C238.427 29.9367 238.185 30.1 237.989 30.296V35H236.099ZM244.778 27.146V25.662H246.836V27.146H244.778ZM244.932 35V29.764H243.938L244.106 28.364H246.822V35H244.932ZM250.769 35.14C250.274 35.14 249.803 35.1027 249.355 35.028C248.907 34.9627 248.547 34.8787 248.277 34.776V33.208C248.603 33.3387 248.972 33.4413 249.383 33.516C249.793 33.5813 250.171 33.614 250.517 33.614C250.983 33.614 251.31 33.586 251.497 33.53C251.693 33.474 251.791 33.348 251.791 33.152C251.791 32.928 251.641 32.7647 251.343 32.662C251.053 32.5593 250.619 32.4147 250.041 32.228C249.434 32.0227 248.967 31.7753 248.641 31.486C248.314 31.1967 248.151 30.7673 248.151 30.198C248.151 29.5633 248.379 29.078 248.837 28.742C249.303 28.3967 250.05 28.224 251.077 28.224C251.487 28.224 251.875 28.2567 252.239 28.322C252.603 28.378 252.911 28.448 253.163 28.532V30.086C252.911 29.9647 252.621 29.876 252.295 29.82C251.968 29.7547 251.665 29.722 251.385 29.722C250.983 29.722 250.661 29.75 250.419 29.806C250.185 29.862 250.069 29.9833 250.069 30.17C250.069 30.3753 250.195 30.52 250.447 30.604C250.708 30.688 251.109 30.814 251.651 30.982C252.183 31.1407 252.598 31.3133 252.897 31.5C253.195 31.6867 253.405 31.9107 253.527 32.172C253.648 32.424 253.709 32.7413 253.709 33.124C253.709 34.468 252.729 35.14 250.769 35.14ZM255.021 35V25.564H256.911V28.924C257.181 28.7187 257.513 28.5507 257.905 28.42C258.297 28.2893 258.721 28.224 259.179 28.224C260.056 28.224 260.695 28.4293 261.097 28.84C261.498 29.2507 261.699 29.8853 261.699 30.744V35H259.809V30.842C259.809 30.394 259.715 30.0767 259.529 29.89C259.351 29.7033 259.015 29.61 258.521 29.61C258.231 29.61 257.937 29.6753 257.639 29.806C257.349 29.9367 257.107 30.1 256.911 30.296V35H255.021ZM266.477 35.14C265.329 35.14 264.419 34.8553 263.747 34.286C263.075 33.7073 262.739 32.8347 262.739 31.668C262.739 30.6133 263.019 29.778 263.579 29.162C264.148 28.5367 264.993 28.224 266.113 28.224C267.139 28.224 267.923 28.4947 268.465 29.036C269.015 29.568 269.291 30.268 269.291 31.136V32.34H264.489C264.591 32.872 264.834 33.236 265.217 33.432C265.609 33.628 266.159 33.726 266.869 33.726C267.223 33.726 267.583 33.6933 267.947 33.628C268.32 33.5627 268.637 33.4787 268.899 33.376V34.72C268.591 34.86 268.231 34.9627 267.821 35.028C267.41 35.1027 266.962 35.14 266.477 35.14ZM264.489 31.178H267.639V30.814C267.639 30.4313 267.527 30.1327 267.303 29.918C267.079 29.694 266.701 29.582 266.169 29.582C265.543 29.582 265.105 29.708 264.853 29.96C264.61 30.212 264.489 30.618 264.489 31.178ZM273.379 35.14C272.791 35.14 272.263 35.0373 271.797 34.832C271.339 34.6173 270.98 34.272 270.719 33.796C270.457 33.3107 270.327 32.6713 270.327 31.878C270.327 31.0847 270.471 30.4173 270.761 29.876C271.05 29.3347 271.437 28.924 271.923 28.644C272.408 28.364 272.94 28.224 273.519 28.224C274.247 28.224 274.867 28.392 275.381 28.728V25.564H277.271V35H275.647L275.535 34.384C275.245 34.636 274.928 34.8273 274.583 34.958C274.247 35.0793 273.845 35.14 273.379 35.14ZM273.897 33.754C274.485 33.754 274.979 33.5533 275.381 33.152V30.128C274.989 29.7827 274.531 29.61 274.009 29.61C272.833 29.61 272.245 30.366 272.245 31.878C272.245 32.5873 272.389 33.0773 272.679 33.348C272.968 33.6187 273.374 33.754 273.897 33.754ZM67.798 56.024V46.364H69.436L69.534 46.98C69.8233 46.7373 70.1407 46.5507 70.486 46.42C70.8313 46.2893 71.2373 46.224 71.704 46.224C72.6747 46.224 73.4213 46.49 73.944 47.022C74.476 47.5447 74.742 48.4033 74.742 49.598C74.742 50.7927 74.4573 51.684 73.888 52.272C73.328 52.8507 72.5627 53.14 71.592 53.14C70.8453 53.14 70.2107 52.972 69.688 52.636V56.024H67.798ZM71.116 51.754C71.676 51.754 72.1007 51.5813 72.39 51.236C72.6793 50.8907 72.824 50.3493 72.824 49.612C72.824 48.9027 72.6933 48.394 72.432 48.086C72.1707 47.7687 71.7507 47.61 71.172 47.61C70.5933 47.61 70.0987 47.8107 69.688 48.212V51.25C69.884 51.3993 70.0893 51.5207 70.304 51.614C70.528 51.7073 70.7987 51.754 71.116 51.754ZM76.0558 53V46.364H77.8058L77.8898 47.05C78.1885 46.8633 78.5571 46.6953 78.9958 46.546C79.4438 46.3873 79.8825 46.28 80.3118 46.224V47.652C80.0598 47.6893 79.7845 47.7453 79.4858 47.82C79.1871 47.8947 78.9025 47.9787 78.6318 48.072C78.3611 48.1653 78.1325 48.2633 77.9458 48.366V53H76.0558ZM84.323 53.14C83.0817 53.14 82.1717 52.8413 81.593 52.244C81.0144 51.6373 80.725 50.7833 80.725 49.682C80.725 48.5807 81.0144 47.7313 81.593 47.134C82.181 46.5273 83.091 46.224 84.323 46.224C85.5644 46.224 86.4744 46.5273 87.053 47.134C87.641 47.7313 87.935 48.5807 87.935 49.682C87.935 50.7833 87.6457 51.6373 87.067 52.244C86.4884 52.8413 85.5737 53.14 84.323 53.14ZM84.323 51.53C84.9297 51.53 85.3637 51.3947 85.625 51.124C85.8864 50.844 86.017 50.3633 86.017 49.682C86.017 49.0007 85.8864 48.5247 85.625 48.254C85.3637 47.974 84.9297 47.834 84.323 47.834C83.7257 47.834 83.2964 47.974 83.035 48.254C82.7737 48.5247 82.643 49.0007 82.643 49.682C82.643 50.3633 82.7737 50.844 83.035 51.124C83.2964 51.3947 83.7257 51.53 84.323 51.53ZM92.0212 53.14C91.4332 53.14 90.9058 53.0373 90.4392 52.832C89.9818 52.6173 89.6225 52.272 89.3612 51.796C89.0998 51.3107 88.9692 50.6713 88.9692 49.878C88.9692 49.0847 89.1138 48.4173 89.4032 47.876C89.6925 47.3347 90.0798 46.924 90.5652 46.644C91.0505 46.364 91.5825 46.224 92.1612 46.224C92.8892 46.224 93.5098 46.392 94.0232 46.728V43.564H95.9132V53H94.2892L94.1772 52.384C93.8878 52.636 93.5705 52.8273 93.2252 52.958C92.8892 53.0793 92.4878 53.14 92.0212 53.14ZM92.5392 51.754C93.1272 51.754 93.6218 51.5533 94.0232 51.152V48.128C93.6312 47.7827 93.1738 47.61 92.6512 47.61C91.4752 47.61 90.8872 48.366 90.8872 49.878C90.8872 50.5873 91.0318 51.0773 91.3212 51.348C91.6105 51.6187 92.0165 51.754 92.5392 51.754ZM99.957 53.14C99.1637 53.14 98.543 52.9207 98.095 52.482C97.6563 52.034 97.437 51.3807 97.437 50.522V46.364H99.327V50.48C99.327 50.928 99.4343 51.2547 99.649 51.46C99.8637 51.656 100.186 51.754 100.615 51.754C100.942 51.754 101.24 51.6887 101.511 51.558C101.791 51.4273 102.029 51.264 102.225 51.068V46.364H104.115V53H102.365L102.295 52.37C102.015 52.594 101.684 52.7807 101.301 52.93C100.928 53.07 100.48 53.14 99.957 53.14ZM109.112 53.14C107.926 53.14 107.016 52.846 106.382 52.258C105.756 51.67 105.444 50.8113 105.444 49.682C105.444 48.5153 105.78 47.6473 106.452 47.078C107.133 46.5087 108.038 46.224 109.168 46.224C109.634 46.224 110.036 46.2567 110.372 46.322C110.708 46.3873 111.034 46.4947 111.352 46.644V48.002C111.118 47.89 110.848 47.8013 110.54 47.736C110.232 47.6707 109.9 47.638 109.546 47.638C108.836 47.638 108.295 47.7873 107.922 48.086C107.548 48.3753 107.362 48.9073 107.362 49.682C107.362 50.3913 107.53 50.9093 107.866 51.236C108.211 51.5627 108.766 51.726 109.532 51.726C109.858 51.726 110.176 51.6933 110.484 51.628C110.801 51.5627 111.095 51.4647 111.366 51.334V52.734C110.74 53.0047 109.989 53.14 109.112 53.14ZM115.192 53.14C114.426 53.14 113.857 52.9393 113.484 52.538C113.12 52.1367 112.938 51.5907 112.938 50.9V47.82H112V46.364H112.938V44.936L114.828 44.376V46.364H116.508L116.396 47.82H114.828V50.774C114.828 51.138 114.912 51.39 115.08 51.53C115.248 51.6607 115.509 51.726 115.864 51.726C116.125 51.726 116.396 51.6793 116.676 51.586V52.888C116.47 52.972 116.246 53.0327 116.004 53.07C115.761 53.1167 115.49 53.14 115.192 53.14ZM123.494 53.14C122.906 53.14 122.378 53.0373 121.912 52.832C121.454 52.6173 121.095 52.272 120.834 51.796C120.572 51.3107 120.442 50.6713 120.442 49.878C120.442 49.0847 120.586 48.4173 120.876 47.876C121.165 47.3347 121.552 46.924 122.038 46.644C122.523 46.364 123.055 46.224 123.634 46.224C124.362 46.224 124.982 46.392 125.496 46.728V43.564H127.386V53H125.762L125.65 52.384C125.36 52.636 125.043 52.8273 124.698 52.958C124.362 53.0793 123.96 53.14 123.494 53.14ZM124.012 51.754C124.6 51.754 125.094 51.5533 125.496 51.152V48.128C125.104 47.7827 124.646 47.61 124.124 47.61C122.948 47.61 122.36 48.366 122.36 49.878C122.36 50.5873 122.504 51.0773 122.794 51.348C123.083 51.6187 123.489 51.754 124.012 51.754ZM132.301 53.14C131.153 53.14 130.243 52.8553 129.571 52.286C128.899 51.7073 128.563 50.8347 128.563 49.668C128.563 48.6133 128.843 47.778 129.403 47.162C129.972 46.5367 130.817 46.224 131.937 46.224C132.964 46.224 133.748 46.4947 134.289 47.036C134.84 47.568 135.115 48.268 135.115 49.136V50.34H130.313C130.416 50.872 130.658 51.236 131.041 51.432C131.433 51.628 131.984 51.726 132.693 51.726C133.048 51.726 133.407 51.6933 133.771 51.628C134.144 51.5627 134.462 51.4787 134.723 51.376V52.72C134.415 52.86 134.056 52.9627 133.645 53.028C133.234 53.1027 132.786 53.14 132.301 53.14ZM130.313 49.178H133.463V48.814C133.463 48.4313 133.351 48.1327 133.127 47.918C132.903 47.694 132.525 47.582 131.993 47.582C131.368 47.582 130.929 47.708 130.677 47.96C130.434 48.212 130.313 48.618 130.313 49.178ZM138.279 53.14C137.635 53.14 137.163 52.9907 136.865 52.692C136.575 52.3933 136.431 51.9173 136.431 51.264V43.564H138.321V51.11C138.321 51.3433 138.367 51.5067 138.461 51.6C138.554 51.684 138.689 51.726 138.867 51.726C139.109 51.726 139.329 51.6933 139.525 51.628V52.93C139.17 53.07 138.755 53.14 138.279 53.14ZM140.571 45.146V43.662H142.629V45.146H140.571ZM140.725 53V47.764H139.731L139.899 46.364H142.615V53H140.725ZM146.288 53L143.67 46.364H145.644L147.296 51.096L148.962 46.364H150.922L148.318 53H146.288ZM154.942 53.14C153.794 53.14 152.884 52.8553 152.212 52.286C151.54 51.7073 151.204 50.8347 151.204 49.668C151.204 48.6133 151.484 47.778 152.044 47.162C152.613 46.5367 153.458 46.224 154.578 46.224C155.604 46.224 156.388 46.4947 156.93 47.036C157.48 47.568 157.756 48.268 157.756 49.136V50.34H152.954C153.056 50.872 153.299 51.236 153.682 51.432C154.074 51.628 154.624 51.726 155.334 51.726C155.688 51.726 156.048 51.6933 156.412 51.628C156.785 51.5627 157.102 51.4787 157.364 51.376V52.72C157.056 52.86 156.696 52.9627 156.286 53.028C155.875 53.1027 155.427 53.14 154.942 53.14ZM152.954 49.178H156.104V48.814C156.104 48.4313 155.992 48.1327 155.768 47.918C155.544 47.694 155.166 47.582 154.634 47.582C154.008 47.582 153.57 47.708 153.318 47.96C153.075 48.212 152.954 48.618 152.954 49.178ZM159.071 53V46.364H160.821L160.905 47.05C161.204 46.8633 161.573 46.6953 162.011 46.546C162.459 46.3873 162.898 46.28 163.327 46.224V47.652C163.075 47.6893 162.8 47.7453 162.501 47.82C162.203 47.8947 161.918 47.9787 161.647 48.072C161.377 48.1653 161.148 48.2633 160.961 48.366V53H159.071ZM167.479 53.14C166.331 53.14 165.421 52.8553 164.749 52.286C164.077 51.7073 163.741 50.8347 163.741 49.668C163.741 48.6133 164.021 47.778 164.581 47.162C165.15 46.5367 165.995 46.224 167.115 46.224C168.141 46.224 168.925 46.4947 169.467 47.036C170.017 47.568 170.293 48.268 170.293 49.136V50.34H165.491C165.593 50.872 165.836 51.236 166.219 51.432C166.611 51.628 167.161 51.726 167.871 51.726C168.225 51.726 168.585 51.6933 168.949 51.628C169.322 51.5627 169.639 51.4787 169.901 51.376V52.72C169.593 52.86 169.233 52.9627 168.823 53.028C168.412 53.1027 167.964 53.14 167.479 53.14ZM165.491 49.178H168.641V48.814C168.641 48.4313 168.529 48.1327 168.305 47.918C168.081 47.694 167.703 47.582 167.171 47.582C166.545 47.582 166.107 47.708 165.855 47.96C165.612 48.212 165.491 48.618 165.491 49.178ZM174.381 53.14C173.793 53.14 173.265 53.0373 172.799 52.832C172.341 52.6173 171.982 52.272 171.721 51.796C171.459 51.3107 171.329 50.6713 171.329 49.878C171.329 49.0847 171.473 48.4173 171.763 47.876C172.052 47.3347 172.439 46.924 172.925 46.644C173.41 46.364 173.942 46.224 174.521 46.224C175.249 46.224 175.869 46.392 176.383 46.728V43.564H178.273V53H176.649L176.537 52.384C176.247 52.636 175.93 52.8273 175.585 52.958C175.249 53.0793 174.847 53.14 174.381 53.14ZM174.899 51.754C175.487 51.754 175.981 51.5533 176.383 51.152V48.128C175.991 47.7827 175.533 47.61 175.011 47.61C173.835 47.61 173.247 48.366 173.247 49.878C173.247 50.5873 173.391 51.0773 173.681 51.348C173.97 51.6187 174.376 51.754 174.899 51.754Z"
          fill="#6E7B91" fill-opacity="0.95"/>
    <circle cx="42" cy="39" r="16.5" fill="white" stroke="#387AE5"/>
    <g filter="url(#filter2_dd_9_20045)">
        <g filter="url(#filter3_dd_9_20045)">
            <path d="M47.3125 37.875C48.0234 37.875 48.625 38.4766 48.625 39.1875V44.4375C48.625 45.1758 48.0234 45.75 47.3125 45.75H37.6875C36.9492 45.75 36.375 45.1758 36.375 44.4375V39.1875C36.375 38.4766 36.9492 37.875 37.6875 37.875H38.3438V35.9062C38.3438 33.6367 40.2031 31.75 42.5 31.75C44.7695 31.75 46.6562 33.6367 46.6562 35.9062V37.875H47.3125ZM43.5938 42.4688V41.1562C43.5938 40.5547 43.1016 40.0625 42.5 40.0625C41.8711 40.0625 41.4062 40.5547 41.4062 41.1562V42.4688C41.4062 43.0977 41.8711 43.5625 42.5 43.5625C43.1016 43.5625 43.5938 43.0977 43.5938 42.4688ZM44.4688 37.875V35.9062C44.4688 34.8398 43.5664 33.9375 42.5 33.9375C41.4062 33.9375 40.5312 34.8398 40.5312 35.9062V37.875H44.4688Z"
                  fill="#387AE5"/>
        </g>
    </g>
    <defs>
        <filter id="filter0_dd_9_20045" x="134" y="106" width="96" height="96" filterUnits="userSpaceOnUse"
                color-interpolation-filters="sRGB">
            <feFlood flood-opacity="0" result="BackgroundImageFix"/>
            <feColorMatrix in="SourceAlpha" type="matrix" values="0 0 0 0 0 0 0 0 0 0 0 0 0 0 0 0 0 0 127 0"
                           result="hardAlpha"/>
            <feMorphology radius="4" operator="erode" in="SourceAlpha" result="effect1_dropShadow_9_20045"/>
            <feOffset dy="10"/>
            <feGaussianBlur stdDeviation="20"/>
            <feColorMatrix type="matrix" values="0 0 0 0 0.0745098 0 0 0 0 0.215686 0 0 0 0 0.427451 0 0 0 0.08 0"/>
            <feBlend mode="normal" in2="BackgroundImageFix" result="effect1_dropShadow_9_20045"/>
            <feColorMatrix in="SourceAlpha" type="matrix" values="0 0 0 0 0 0 0 0 0 0 0 0 0 0 0 0 0 0 127 0"
                           result="hardAlpha"/>
            <feMorphology radius="6" operator="erode" in="SourceAlpha" result="effect2_dropShadow_9_20045"/>
            <feOffset dy="8"/>
            <feGaussianBlur stdDeviation="11"/>
            <feColorMatrix type="matrix" values="0 0 0 0 0.0745098 0 0 0 0 0.215686 0 0 0 0 0.427451 0 0 0 0.1 0"/>
            <feBlend mode="normal" in2="effect1_dropShadow_9_20045" result="effect2_dropShadow_9_20045"/>
            <feBlend mode="normal" in="SourceGraphic" in2="effect2_dropShadow_9_20045" result="shape"/>
        </filter>
        <filter id="filter1_dd_9_20045" x="156.211" y="124.75" width="52.4141" height="54" filterUnits="userSpaceOnUse"
                color-interpolation-filters="sRGB">
            <feFlood flood-opacity="0" result="BackgroundImageFix"/>
            <feColorMatrix in="SourceAlpha" type="matrix" values="0 0 0 0 0 0 0 0 0 0 0 0 0 0 0 0 0 0 127 0"
                           result="hardAlpha"/>
            <feMorphology radius="4" operator="erode" in="SourceAlpha" result="effect1_dropShadow_9_20045"/>
            <feOffset dy="8"/>
            <feGaussianBlur stdDeviation="12"/>
            <feColorMatrix type="matrix" values="0 0 0 0 0.0745098 0 0 0 0 0.215686 0 0 0 0 0.427451 0 0 0 0.04 0"/>
            <feBlend mode="normal" in2="BackgroundImageFix" result="effect1_dropShadow_9_20045"/>
            <feColorMatrix in="SourceAlpha" type="matrix" values="0 0 0 0 0 0 0 0 0 0 0 0 0 0 0 0 0 0 127 0"
                           result="hardAlpha"/>
            <feMorphology radius="6" operator="erode" in="SourceAlpha" result="effect2_dropShadow_9_20045"/>
            <feOffset dy="7"/>
            <feGaussianBlur stdDeviation="6"/>
            <feColorMatrix type="matrix" values="0 0 0 0 0.0745098 0 0 0 0 0.215686 0 0 0 0 0.427451 0 0 0 0.06 0"/>
            <feBlend mode="normal" in2="effect1_dropShadow_9_20045" result="effect2_dropShadow_9_20045"/>
            <feBlend mode="normal" in="SourceGraphic" in2="effect2_dropShadow_9_20045" result="shape"/>
        </filter>
        <filter id="filter2_dd_9_20045" x="-6" y="1" width="96" height="96" filterUnits="userSpaceOnUse"
                color-interpolation-filters="sRGB">
            <feFlood flood-opacity="0" result="BackgroundImageFix"/>
            <feColorMatrix in="SourceAlpha" type="matrix" values="0 0 0 0 0 0 0 0 0 0 0 0 0 0 0 0 0 0 127 0"
                           result="hardAlpha"/>
            <feMorphology radius="4" operator="erode" in="SourceAlpha" result="effect1_dropShadow_9_20045"/>
            <feOffset dy="10"/>
            <feGaussianBlur stdDeviation="20"/>
            <feColorMatrix type="matrix" values="0 0 0 0 0.0745098 0 0 0 0 0.215686 0 0 0 0 0.427451 0 0 0 0.08 0"/>
            <feBlend mode="normal" in2="BackgroundImageFix" result="effect1_dropShadow_9_20045"/>
            <feColorMatrix in="SourceAlpha" type="matrix" values="0 0 0 0 0 0 0 0 0 0 0 0 0 0 0 0 0 0 127 0"
                           result="hardAlpha"/>
            <feMorphology radius="6" operator="erode" in="SourceAlpha" result="effect2_dropShadow_9_20045"/>
            <feOffset dy="8"/>
            <feGaussianBlur stdDeviation="11"/>
            <feColorMatrix type="matrix" values="0 0 0 0 0.0745098 0 0 0 0 0.215686 0 0 0 0 0.427451 0 0 0 0.1 0"/>
            <feBlend mode="normal" in2="effect1_dropShadow_9_20045" result="effect2_dropShadow_9_20045"/>
            <feBlend mode="normal" in="SourceGraphic" in2="effect2_dropShadow_9_20045" result="shape"/>
        </filter>
        <filter id="filter3_dd_9_20045" x="16.375" y="19.75" width="52.25" height="54" filterUnits="userSpaceOnUse"
                color-interpolation-filters="sRGB">
            <feFlood flood-opacity="0" result="BackgroundImageFix"/>
            <feColorMatrix in="SourceAlpha" type="matrix" values="0 0 0 0 0 0 0 0 0 0 0 0 0 0 0 0 0 0 127 0"
                           result="hardAlpha"/>
            <feMorphology radius="4" operator="erode" in="SourceAlpha" result="effect1_dropShadow_9_20045"/>
            <feOffset dy="8"/>
            <feGaussianBlur stdDeviation="12"/>
            <feColorMatrix type="matrix" values="0 0 0 0 0.0745098 0 0 0 0 0.215686 0 0 0 0 0.427451 0 0 0 0.04 0"/>
            <feBlend mode="normal" in2="BackgroundImageFix" result="effect1_dropShadow_9_20045"/>
            <feColorMatrix in="SourceAlpha" type="matrix" values="0 0 0 0 0 0 0 0 0 0 0 0 0 0 0 0 0 0 127 0"
                           result="hardAlpha"/>
            <feMorphology radius="6" operator="erode" in="SourceAlpha" result="effect2_dropShadow_9_20045"/>
            <feOffset dy="7"/>
            <feGaussianBlur stdDeviation="6"/>
            <feColorMatrix type="matrix" values="0 0 0 0 0.0745098 0 0 0 0 0.215686 0 0 0 0 0.427451 0 0 0 0.06 0"/>
            <feBlend mode="normal" in2="effect1_dropShadow_9_20045" result="effect2_dropShadow_9_20045"/>
            <feBlend mode="normal" in="SourceGraphic" in2="effect2_dropShadow_9_20045" result="shape"/>
        </filter>
    </defs>
</svg>
