<svg width="215" height="152" viewBox="0 0 215 152" fill="none" xmlns="http://www.w3.org/2000/svg">
    <g clip-path="url(#clip0_4235_10354)">
        <path d="M88.0744 120.806L192.681 120.806V46.2967L88.0744 46.2967L88.0744 120.806Z" fill="#94BAF3"/>
        <path d="M88.0743 120.806L192.681 120.806V46.2967L88.0743 46.2967L88.0743 120.806Z" fill="#94BAF3"
              stroke="white" stroke-width="0.453285" stroke-linecap="round" stroke-linejoin="round"/>
        <path d="M88.0735 53.8389H192.681" stroke="white" stroke-width="0.453285" stroke-linecap="round"
              stroke-linejoin="round"/>
        <path d="M153.764 21.8455H142.794C138.913 21.8455 135.767 24.9984 135.767 28.8865C135.767 32.7755 138.914 35.9275 142.794 35.9275H148.721L151.333 41.5118L153.191 35.9275H153.765C157.647 35.9275 160.793 32.7746 160.793 28.8865C160.793 24.9975 157.646 21.8455 153.765 21.8455H153.764Z"
              fill="#5F99ED"/>
        <path d="M62.4582 81.7095H51.4883C47.6067 81.7095 44.4605 84.8624 44.4605 88.7505C44.4605 92.6395 47.6075 95.7915 51.4883 95.7915H57.415L60.0272 101.376L61.8851 95.7915H62.4591C66.3407 95.7915 69.4869 92.6386 69.4869 88.7505C69.4869 84.8615 66.3399 81.7095 62.4591 81.7095H62.4582Z"
              fill="#94BAF3"/>
        <path d="M184.17 48.521H180.958V51.7397H184.17V48.521Z" stroke="white" stroke-width="0.453285"
              stroke-linecap="round" stroke-linejoin="round"/>
        <path d="M175.109 51.8179H179.023" stroke="white" stroke-width="0.453285" stroke-linecap="round"
              stroke-linejoin="round"/>
        <path d="M186.38 48.521L189.593 51.7405" stroke="white" stroke-width="0.453285" stroke-linecap="round"
              stroke-linejoin="round"/>
        <path d="M189.593 48.521L186.38 51.7405" stroke="white" stroke-width="0.453285" stroke-linecap="round"
              stroke-linejoin="round"/>
        <path d="M127.57 1.15967H22.9628V75.6686H127.57V1.15967Z" fill="#94BAF3"/>
        <path d="M127.57 1.15967H22.9628V75.6686H127.57V1.15967Z" fill="#94BAF3" stroke="white" stroke-width="0.453285"
              stroke-linecap="round" stroke-linejoin="round"/>
        <path d="M127.57 8.70215H22.9627" stroke="white" stroke-width="0.453285" stroke-linecap="round"
              stroke-linejoin="round"/>
        <path d="M31.4736 6.93677H34.6862V3.71811L31.4736 3.71811V6.93677Z" stroke="white" stroke-width="0.453285"
              stroke-linecap="round" stroke-linejoin="round"/>
        <path d="M40.5339 7.01489H36.6207" stroke="white" stroke-width="0.453285" stroke-linecap="round"
              stroke-linejoin="round"/>
        <path d="M29.263 3.71851L26.0495 6.93716" stroke="white" stroke-width="0.453285" stroke-linecap="round"
              stroke-linejoin="round"/>
        <path d="M26.0495 3.71851L29.263 6.93716" stroke="white" stroke-width="0.453285" stroke-linecap="round"
              stroke-linejoin="round"/>
        <path d="M75.1674 44.1112C75.7014 42.3197 75.806 40.1814 75.4735 38.2859C75.4157 37.6069 75.2992 37.0958 75.1138 36.7771L75.0994 36.7916C75.0262 36.5744 74.9472 36.364 74.8604 36.1604L74.1776 35.2003C67.5367 28.7964 61.1696 37.3598 54.7803 44.7314L49.5858 50.5219L40.3735 60.6749L32.1978 64.0996L32.3899 64.8569C32.9902 67.2278 34.0574 69.4564 35.5276 71.4098C39.4951 76.7411 47.4421 76.8144 51.5075 71.5572L52.7047 70.1959L57.7802 64.4233L75.1666 44.1104L75.1674 44.1112Z"
              fill="#D6DAE1"/>
        <path d="M62.2853 14.8542C63.0923 16.0035 63.4434 17.4645 63.2479 18.8557C63.1467 19.5772 62.9052 20.2741 62.8253 20.9982C62.7249 21.9098 62.8907 22.8486 63.2972 23.6707C63.69 24.4663 64.2921 25.1368 64.7512 25.8967C65.8388 27.6976 66.0565 29.8751 66.2495 31.9708H53.4404C52.1326 29.4969 52.0739 26.6864 52.9106 24.0157C53.7465 21.3449 55.3638 18.9826 57.1877 16.8622C57.8263 16.1202 58.5099 15.3884 59.3722 14.9266C60.2344 14.4649 61.7233 14.0526 62.2862 14.8542H62.2853Z"
              fill="#003480"/>
        <path d="M93.22 69.2137L93.5346 61.8813L84.2815 60.2925L84.1804 68.1974L93.22 69.2137Z" fill="#F4A57D"/>
        <path d="M93.9214 65.652L94.435 67.067L97.9842 69.2871L102.339 70.3716C103.536 70.6689 104.471 71.6043 104.771 72.8038L105.174 74.4165C105.324 75.0137 104.873 75.5921 104.259 75.5913L94.7386 75.581C94.3381 75.581 93.9495 75.4405 93.6416 75.1832C91.6298 73.5041 90.1605 73.591 89.0899 74.9668C88.7566 75.3945 88.2473 75.6475 87.7056 75.6398L83.7032 75.581C83.653 75.581 83.6037 75.5759 83.5561 75.5683C82.9915 75.4848 82.574 74.9745 82.6199 74.3884L82.6913 73.4657L82.8282 71.6997L82.8529 71.3862L83.227 68.9472L83.75 65.531C83.7967 65.2252 84.0272 65.002 84.3078 64.9407L86.0135 67.0807C87.0101 68.3304 88.834 68.523 90.0678 67.5075L92.7242 65.3232C93.1298 64.9892 93.7428 65.1579 93.9222 65.652H93.9214Z"
              fill="#05DBB2"/>
        <path d="M93.8861 73.6014C95.6233 72.6081 97.102 71.1641 98.1377 69.4492" stroke="black" stroke-width="0.33822"
              stroke-linecap="round" stroke-linejoin="round"/>
        <path d="M83.1552 68.8911C84.7376 70.1502 86.0743 71.7177 87.0692 73.4795" stroke="black" stroke-width="0.33822"
              stroke-linecap="round" stroke-linejoin="round"/>
        <path d="M82.6894 73.4658L104.832 73.793" stroke="black" stroke-width="0.33822" stroke-linecap="round"
              stroke-linejoin="round"/>
        <path d="M88.8722 110.519L89.1698 103.187L79.9133 101.619L79.83 109.524L88.8722 110.519Z" fill="#F4A57D"/>
        <path d="M89.5653 106.957L90.0823 108.37L93.6366 110.581L97.9945 111.656C99.1917 111.95 100.13 112.884 100.432 114.082L100.839 115.694C100.99 116.291 100.539 116.869 99.9264 116.87L90.4055 116.882C90.005 116.882 89.6164 116.743 89.3077 116.487C87.2916 114.813 85.8223 114.903 84.7551 116.281C84.4227 116.709 83.9142 116.963 83.3717 116.957L79.3693 116.908C79.3191 116.908 79.2698 116.903 79.2222 116.896C78.6575 116.814 78.2383 116.305 78.2826 115.718L78.3523 114.796L78.4858 113.03L78.5096 112.716L78.8778 110.276L79.3931 106.859C79.439 106.553 79.6694 106.329 79.9492 106.267L81.66 108.403C82.6591 109.65 84.4839 109.839 85.7151 108.821L88.3664 106.63C88.7712 106.295 89.3851 106.462 89.5653 106.957Z"
              fill="#05DBB2"/>
        <path d="M89.5491 114.906C91.2846 113.908 92.7599 112.462 93.7913 110.744" stroke="black" stroke-width="0.33822"
              stroke-linecap="round" stroke-linejoin="round"/>
        <path d="M78.807 110.22C80.392 111.476 81.7329 113.04 82.7312 114.799" stroke="black" stroke-width="0.33822"
              stroke-linecap="round" stroke-linejoin="round"/>
        <path d="M78.3514 114.796L100.495 115.072" stroke="black" stroke-width="0.33822" stroke-linecap="round"
              stroke-linejoin="round"/>
        <path d="M74.6328 35.6584L96.7707 64.9088H81.4124L66.6076 49.2439L74.6328 35.6584Z" fill="#D6DAE1"/>
        <path d="M57.197 20.8101L54.2047 25.7529L47.665 21.5615L51.5381 16.2073L57.197 20.8101Z" fill="#F4A57D"/>
        <path d="M85.8612 65.9586C89.1868 72.1597 88.6069 82.9304 90.129 104.14L77.9525 105.25L74.0215 75.5051L44.4681 75.3066C44.9987 70.4414 45.4919 63.1635 45.9102 58.593L79.7909 61.0678C80.8563 61.1564 81.8495 61.4836 82.7202 61.993C82.7202 61.993 84.6402 63.5409 85.8604 65.9586H85.8612Z"
              fill="#D6DAE1"/>
        <path d="M65.9212 49.4189C66.4339 49.5773 66.9662 49.6796 67.4993 49.7256C69.4517 49.8943 70.8019 49.1224 72.2806 48.0499C73.2296 47.3615 87.9621 36.1282 87.9621 36.1282L85.0515 30.9946L67.2068 40.1024L65.6346 40.7592C62.457 42.0865 60.5744 45 63.184 47.7628C63.9263 48.5491 64.8863 49.0994 65.922 49.4189H65.9212Z"
              fill="#F4A57D"/>
        <path d="M48.6013 28.3802C50.6888 25.7648 53.8095 26.2922 56.2796 28.548C56.2796 28.548 70.5087 41.2262 70.905 44.3356C71.1371 46.1579 71.2358 47.3045 69.7885 48.4325C69.3515 48.7732 68.8549 49.0305 68.3404 49.2341C65.9664 50.1738 64.02 49.5587 62.2692 47.8838C58.0908 43.8875 53.6011 40.1783 49.2799 36.3362C46.9755 34.2873 46.6771 30.7894 48.6013 28.3785V28.3802Z"
              fill="#F4A57D"/>
        <path d="M63.2404 35.0193C59.5083 31.3544 56.3749 27.5582 56.3749 27.5582C53.7509 25.1627 50.4364 24.6021 48.2187 27.3802C46.1746 29.9402 46.4918 33.6562 48.9398 35.832C50.6932 37.391 53.0689 39.6682 54.8461 41.2118L63.2404 35.0201V35.0193Z"
              fill="#FFCC3E"/>
        <path d="M55.7209 27.6552C55.3816 27.6842 55.033 27.6535 54.6962 27.5981C52.7941 27.2889 51.0603 26.2683 49.6445 24.9572C49.0493 24.406 47.4388 22.893 46.6676 21.4959C47.2747 21.1909 47.8402 20.9609 48.3325 20.8323C50.9132 22.4722 53.9633 24.2706 55.4309 27.0776C55.5304 27.2676 55.6265 27.4593 55.7209 27.6544V27.6552Z"
              fill="#F4A57D"/>
        <path d="M58.7551 37.4283C58.0816 34.4628 57.3112 31.2221 56.0536 28.3742C55.9465 28.1305 55.836 27.8911 55.7212 27.6552C55.3819 27.6841 55.0333 27.6535 54.6965 27.5981C52.7944 27.2888 51.0606 26.2682 49.6448 24.9572C49.0496 24.406 47.4391 22.893 46.6679 21.4958C43.7403 22.9611 39.8569 26.1481 38.6665 27.9388C36.3621 31.4061 36.039 36.5082 35.5339 40.5548C35.3009 42.4222 35.0824 44.293 34.7788 46.1501C34.4931 47.8906 33.9455 49.5791 33.6904 51.3042C33.5365 52.3358 33.2423 53.3002 33.0714 54.331C32.898 55.378 32.358 56.327 32.256 57.3894C32.1599 58.3878 32.5009 59.3837 32.4566 60.3855C32.4014 61.6396 31.7577 62.9481 32.199 64.099C40.0431 63.645 47.4816 62.333 54.2926 59.6938C54.4933 59.014 54.9389 53.2866 54.9525 52.5838C54.9618 52.1621 54.8845 51.7446 54.8513 51.3246C54.8028 50.7121 54.8232 50.132 54.9074 49.5782C55.1285 47.7117 54.7654 46.7942 56.3827 45.4712C57.7288 44.3705 58.8189 42.8643 59.0841 41.1452C59.2746 39.9082 59.0314 38.6474 58.7542 37.4266L58.7551 37.4283Z"
              fill="#FFCC3E"/>
        <path d="M41.3347 27.1335C44.224 25.4502 46.6474 26.9674 48.138 29.9644L51.5257 36.7755L55.5043 44.9794L74.2758 50.8908L72.9348 57.1617L53.3768 54.3802L53.1438 54.3274L51.4823 53.9491C49.7154 53.547 48.2086 52.4072 47.3362 50.8226L39.0992 34.799C37.6885 32.055 38.6715 28.6849 41.3347 27.1335Z"
              fill="#F4A57D"/>
        <path d="M53.8052 38.4735L52.9208 36.6495L49.1701 29.1093C47.5197 25.7911 44.0989 24.4809 40.9 26.3448C37.9519 28.0631 36.8635 31.7937 38.4256 34.8316L42.8455 43.429L53.8052 38.4726V38.4735Z"
              fill="#FFCC3E"/>
        <path d="M84.8221 56.0952H84.823C84.8247 56.0986 84.8255 56.1028 84.8264 56.1071C84.8247 56.1028 84.823 56.0986 84.8221 56.096V56.0952ZM74.1524 50.8423L74.2748 50.8908L76.8394 51.897L80.5348 52.052L85.5712 51.747C86.4181 51.6516 87.2446 51.6635 87.8764 52.6892L89.8764 57.6763C89.9801 57.9353 90.0056 58.2241 89.9274 58.4916C89.8032 58.9175 89.5039 58.9908 89.0966 58.8494C88.8254 58.7548 88.5958 58.5657 88.4419 58.3221L86.3382 54.9945L87.2004 58.1576C87.1375 59.0751 86.7191 59.1135 85.9921 58.3868L84.8212 56.0952L85.2617 58.0333C85.3714 58.5171 84.8366 58.9048 84.4233 58.6313C84.4182 58.6279 84.4131 58.6245 84.408 58.6211C84.3264 58.5657 84.2626 58.4873 84.2209 58.3979L83.5373 56.9275L83.7924 57.8092C83.9412 58.3229 83.4131 58.7863 82.9327 58.5512C82.9208 58.5453 82.9089 58.5393 82.897 58.5333C82.7575 58.4618 82.6504 58.3391 82.5968 58.1917L82.2618 57.2716C79.0187 58.5325 75.8887 58.6969 72.9322 57.1626L74.1498 50.8431L74.1524 50.8423Z"
              fill="#F4A57D"/>
        <path d="M58.6776 8.99402C59.2677 9.01362 59.8612 8.86368 60.3722 8.56722C61.4266 7.95554 62.0337 6.80461 62.538 5.69287"
              stroke="black" stroke-width="0.33822" stroke-linecap="round" stroke-linejoin="round"/>
        <path d="M63.6997 7.99049C64.073 8.86625 64.2822 9.81442 64.2941 10.7907C64.2949 10.8981 64.2949 11.0045 64.2924 11.111C64.2881 11.3376 64.2762 11.5642 64.2567 11.7909C64.1648 12.8873 63.9182 13.9709 63.647 15.04C63.1776 16.8929 62.6989 18.9103 61.5977 20.505C60.8027 21.6568 59.1437 21.587 57.9397 21.1874C57.33 20.9855 56.7493 20.7035 56.2008 20.3696L52.1967 17.0744C50.3439 15.5495 49.2504 13.2613 49.3167 10.8597C49.5004 4.26764 57.9304 -0.106068 63.6997 7.99049Z"
              fill="#F4A57D"/>
        <path d="M61.9369 12.2751L61.5789 14.0369C62.5746 14.4305 62.5057 15.0728 61.1716 16.0082" stroke="black"
              stroke-width="0.33822" stroke-linecap="round" stroke-linejoin="round"/>
        <path d="M59.5447 12.3323C59.4725 12.6508 59.2761 12.8774 59.1052 12.8382C58.9344 12.799 58.8544 12.5094 58.9267 12.1917C58.999 11.8732 59.1953 11.6466 59.3662 11.6858C59.5371 11.725 59.617 12.0146 59.5447 12.3323Z"
              fill="black"/>
        <path d="M63.406 13.4546C63.3337 13.7731 63.1373 13.9997 62.9664 13.9605C62.7956 13.9213 62.7157 13.6317 62.7879 13.314C62.8602 12.9955 63.0565 12.7689 63.2274 12.8081C63.3983 12.8473 63.4782 13.1369 63.406 13.4546Z"
              fill="black"/>
        <path d="M58.7998 11.6552C58.9588 11.5207 59.1798 11.4772 59.3872 11.5002C59.5938 11.5232 59.7893 11.6067 59.9747 11.7012"
              stroke="black" stroke-width="0.33822" stroke-linecap="round" stroke-linejoin="round"/>
        <path d="M51.7121 18.0418C53.0887 16.8797 53.9246 15.0609 55.3616 13.9202C55.7477 13.6135 56.1771 13.3571 56.5206 13.0027C57.1643 12.3399 57.4177 11.494 57.6966 10.6472C57.8352 10.2255 58.0095 9.81571 58.2161 9.42383C58.2748 9.31308 58.3411 9.19807 58.4499 9.13673C58.586 9.06006 58.7544 9.08562 58.9074 9.11714C59.6982 9.28156 60.4618 9.5661 61.2594 9.69474C62.2483 9.85319 64.4565 9.9895 64.4701 8.49354C64.4744 8.05992 64.2797 7.65015 64.0611 7.27616C62.7831 5.0859 60.4983 3.51328 57.9984 3.10436C55.4985 2.69544 52.8328 3.4579 50.9264 5.12765C50.5471 5.45989 50.1977 5.82451 49.8099 6.14738C49.5616 6.35354 49.2989 6.54267 49.0702 6.77098C48.4188 7.42269 48.1051 8.34361 47.9622 9.2543C47.804 10.2655 47.8321 11.3065 48.0455 12.3075C48.4137 14.0344 49.3261 15.6709 49.2674 17.436C49.2462 18.0656 49.2521 18.8604 50.0922 18.8536C50.3805 18.8511 50.6568 18.7361 50.9094 18.5972C51.1985 18.4387 51.4638 18.2505 51.7112 18.0418H51.7121Z"
              fill="#003480"/>
        <path d="M62.6654 12.75C62.8244 12.6154 63.0454 12.572 63.2528 12.595C63.4594 12.618 63.6549 12.7014 63.8403 12.796"
              stroke="black" stroke-width="0.33822" stroke-linecap="round" stroke-linejoin="round"/>
        <path d="M59.6164 10.8137C59.9803 10.9048 60.323 11.0701 60.6886 11.157C60.8587 11.197 61.0432 11.2192 61.2048 11.1519C61.3663 11.0846 61.4922 10.9031 61.4429 10.7353C61.3927 10.564 61.2014 10.4848 61.033 10.4277C60.431 10.225 59.8086 10.0231 59.1759 10.0708C58.7924 10.0998 58.3613 10.208 58.1879 10.5947C58.0501 10.8997 58.4957 10.7694 58.6283 10.7566C58.9642 10.7251 59.2882 10.7302 59.6181 10.8128L59.6164 10.8137Z"
              fill="#003480"/>
        <path d="M64.3633 11.041C64.9898 11.3264 64.6464 12.1082 64.1601 11.9089C63.7988 11.748 63.4094 11.6892 63.0243 11.7352C62.8297 11.759 62.5126 11.8229 62.7149 11.478C62.8348 11.2719 63.1238 11.1586 63.3015 11.0956C63.6211 10.984 63.9561 10.9576 64.28 11.0223C64.308 11.0283 64.3361 11.0342 64.3633 11.041Z"
              fill="#003480"/>
        <path d="M85.8367 36.0887C87.7473 36.1296 89.5908 36.3034 91.476 35.7897C92.2055 35.5912 92.9062 35.2965 93.5958 34.9864C94.8109 34.4386 96.0013 33.8371 97.1637 33.1846C98.1611 32.624 99.3167 31.8352 99.9144 30.829C100.062 30.5794 100.164 30.2327 99.9646 30.0223C99.8838 29.9371 99.7673 29.8936 99.6509 29.8783C98.98 29.7889 98.1356 30.6697 97.628 31.0292C96.9162 31.5327 96.2079 32.0413 95.5022 32.5542C97.0923 31.6588 98.429 30.4789 99.7214 29.19C99.934 28.9778 100.157 28.6712 100.015 28.4062C99.8354 28.0731 99.332 28.2145 99.0038 28.402C97.5353 29.2411 96.0957 30.1313 94.6893 31.0718C95.424 30.5752 96.0931 29.9397 96.8278 29.443C97.6688 28.8748 98.5216 28.2963 99.1662 27.5126C99.3515 27.2877 99.5182 26.9529 99.3371 26.7254C99.218 26.5763 99.0004 26.5533 98.8107 26.5721C98.2606 26.6257 97.7666 26.9188 97.2955 27.2093C95.9656 28.0288 94.6561 28.8816 93.3679 29.7676C94.0235 29.253 94.7224 28.609 95.378 28.0936C95.9622 27.6352 96.6765 27.1079 97.003 26.417C97.2224 25.9527 97.0514 25.4714 96.4418 25.5353C96.0523 25.5762 95.5362 25.9272 95.2063 26.1265C93.7301 27.0185 91.3169 28.1072 89.9726 29.1891C88.664 30.2429 87.6223 29.6517 86.0697 30.2915C85.6811 30.4517 85.2755 30.6408 85.0493 30.9952C84.1556 32.3966 85.3503 34.4991 85.835 36.0896L85.8367 36.0887Z"
              fill="#F4A57D"/>
        <path d="M86.9497 28.4677C87.2022 28.1006 87.4556 27.7308 87.7677 27.431C88.0721 27.137 88.4275 26.9138 88.7515 26.6455C89.6341 25.9137 90.2897 24.8412 91.3152 24.3539C91.396 24.3155 91.4818 24.2806 91.5771 24.2968C91.9521 24.3598 92.0082 25.0022 91.8917 25.3796C91.6289 26.2298 91.2131 26.9897 90.6732 27.6047C90.2948 28.0358 89.8509 28.4047 89.5848 28.944C89.3093 29.502 89.2472 30.2005 89.0159 30.7909C88.629 31.7791 85.6164 34.2036 84.6606 32.9156C83.8282 31.7936 86.5092 29.1101 86.9505 28.4677H86.9497Z"
              fill="#F4A57D"/>
        <path d="M58.6155 16.3895C58.743 18.3612 60.7722 19.3552 61.3512 17.547C61.8383 16.2268 60.0343 16.4057 58.6155 16.3895Z"
              fill="#E87562"/>
        <path d="M57.1969 20.8106L54.1434 18.3281L56.0821 22.5843L57.1969 20.8106Z" fill="#E87562"/>
        <path d="M94.5011 59.2898L94.1661 60.8675H68.0828V59.2898H94.5011Z" fill="black"/>
        <path d="M99.8886 33.9468L94.501 59.2902L94.166 60.868H92.5563L92.8905 59.2902L98.3478 33.6179L99.8886 33.9468Z"
              fill="black"/>
        <path d="M58.882 16.606C59.84 17.9202 60.6018 18.2387 61.1645 17.5531L58.882 16.606Z" fill="white"/>
        <path d="M61.3517 17.5467C60.352 17.5467 59.2596 16.8483 58.3992 16.1848" stroke="black" stroke-width="0.33822"
              stroke-linecap="round" stroke-linejoin="round"/>
        <path d="M48.3589 8.71631C47.3488 9.59207 47.5928 11.1971 47.177 12.469C46.3522 14.9932 43.1669 15.7625 41.3702 17.7159C39.7674 19.458 39.3575 22.0709 37.6977 23.7593C36.759 24.7143 35.5039 25.2843 34.4546 26.1157C32.6443 27.5495 31.499 29.7934 31.3978 32.1038C31.5823 32.1498 31.692 32.2009 31.8765 32.2469H46.4908L53.6445 32.1081C53.9064 30.6879 53.6802 28.7754 53.164 27.4268C52.7738 26.4079 52.1675 25.4529 52.0238 24.371C51.6258 21.3885 54.8179 18.5278 53.761 15.7105C52.2074 14.7103 50.7432 13.5696 49.3929 12.308C48.4159 11.3947 47.6906 9.87576 48.3589 8.71631Z"
              fill="#003480"/>
        <path d="M54.316 15.6828C56.0548 15.409 57.2428 13.7749 56.9696 12.0329C56.6964 10.2908 55.0653 9.10051 53.3266 9.37424C51.5878 9.64797 50.3997 11.2821 50.6729 13.0241C50.9461 14.7662 52.5772 15.9565 54.316 15.6828Z"
              fill="#F4A57D"/>
        <path d="M54.9395 10.8325L54.154 13.9456" stroke="black" stroke-width="0.33822" stroke-linecap="round"
              stroke-linejoin="round"/>
        <path d="M51.7034 12.9103C51.4891 11.773 52.2357 10.6775 53.3708 10.4628C54.506 10.2481 55.5995 10.9961 55.8138 12.1334C55.932 12.7604 55.7576 13.3754 55.3869 13.8372"
              stroke="black" stroke-width="0.33822" stroke-linecap="round" stroke-linejoin="round"/>
        <path d="M46.0097 7.23522C45.5522 7.19518 45.0752 7.20114 44.6568 7.39112C44.0387 7.67225 43.6526 8.31033 43.4519 8.96034C43.2921 9.47915 43.2275 10.0389 43.3559 10.5662C43.4843 11.0935 43.8252 11.5834 44.3167 11.8117C44.5446 11.9182 44.7954 11.965 45.0446 12.0008C45.3873 12.0502 45.7342 12.08 46.0786 12.0494C46.9093 11.9752 47.701 11.5306 48.1975 10.8592C49.621 8.93393 48.0215 7.41071 46.0097 7.23522V7.23522Z"
              fill="#003480"/>
        <path d="M62.0413 59.6023L54.5696 59.5103" stroke="black" stroke-width="0.33822" stroke-linecap="round"
              stroke-linejoin="round"/>
        <path d="M58.9045 38.0693L56.6911 30.6755" stroke="black" stroke-width="0.33822" stroke-linecap="round"
              stroke-linejoin="round"/>
        <path d="M60.7498 46.6648L69.8821 49.3449" stroke="black" stroke-width="0.33822" stroke-linecap="round"
              stroke-linejoin="round"/>
        <path d="M134.848 127.793C133.076 127.175 131.368 126.652 129.914 126.495C128.678 126.362 127.639 127.414 127.771 128.652C127.897 129.829 129.03 130.634 130.176 130.347C131.81 129.938 133.363 129.062 134.848 127.793Z"
              stroke="black" stroke-width="0.375413" stroke-linecap="round" stroke-linejoin="round"/>
        <path d="M135.106 127.693C133.901 126.253 132.702 124.925 131.533 124.045C130.54 123.297 129.11 123.666 128.59 124.798C128.096 125.873 128.658 127.146 129.789 127.489C131.401 127.976 133.182 128.021 135.106 127.694V127.693Z"
              stroke="black" stroke-width="0.375413" stroke-linecap="round" stroke-linejoin="round"/>
        <path d="M111.989 131.524C111.506 132.142 104.546 140.38 104.546 140.38L112.171 145.168L120.385 136.006L111.988 131.524H111.989Z"
              fill="#F9956E"/>
        <path d="M109.764 149.155C110.204 148.279 111.032 147.242 111.636 146.465C111.973 146.03 113.689 144.821 113.625 144.308C113.539 143.621 112.929 143.125 112.291 142.882L106.316 140.004L107.633 137.598C107.676 137.377 107.736 137.141 107.652 136.935C107.148 135.697 104.164 137.021 103.197 137.13C100.914 137.385 98.9569 137.374 96.8286 136.426C95.605 135.881 94.4171 135.183 93.0838 135.008C91.7505 134.834 90.1851 135.358 89.6434 136.618C90.2242 137.597 91.3083 138.478 92.1536 139.234C94.9009 141.691 97.8115 144.234 101.419 145.026C102.447 145.251 103.322 145.65 104.238 146.162L109.764 149.157V149.155Z"
              fill="#FFCC3E"/>
        <path d="M90.2612 135.55L88.9951 136.862C88.4925 137.383 88.5648 138.229 89.149 138.658L97.5798 144.832C97.9854 145.129 98.448 145.34 98.9386 145.449C100.257 145.741 101.018 146.238 101.296 146.912C101.558 147.545 102.013 148.078 102.565 148.483L106.145 151.104C107.026 151.749 108.263 151.541 108.886 150.643L110.3 148.602C109.311 146.284 106.124 145.263 102.49 144.505L90.2603 135.549L90.2612 135.55Z"
              fill="#D6DAE1"/>
        <path d="M142.574 122.685L139.484 117.614L132.898 121.274L135.931 126.288L142.574 122.685Z" fill="#F9956E"/>
        <path d="M129.867 134.107C130.97 131.497 134.102 130.149 134.29 127.072C134.326 126.472 134.242 125.846 134.457 125.285C134.541 125.068 134.678 124.857 134.889 124.758C135.468 124.486 136.446 124.417 137.102 124.264C138.006 124.054 138.83 123.976 139.628 123.44C140.598 122.791 141.442 120.213 143.018 121.779C143.3 122.06 145.199 123.477 145.846 124.019C148.432 126.187 144.461 130.146 142.815 131.658C141.442 132.919 139.961 134.061 138.392 135.068C136.677 136.167 134.785 137.126 132.751 137.23C132.023 137.267 131.259 137.183 130.642 136.794C129.507 136.08 129.445 135.107 129.867 134.108V134.107Z"
              fill="#FFCC3E"/>
        <path d="M140.775 124.692C138.33 126.795 137.277 130.543 133.974 131.445C133.352 131.614 132.703 131.683 132.1 131.912C130.187 132.637 129.179 134.739 128.429 136.678C128.026 137.72 127.66 138.964 128.262 139.895C128.672 140.528 129.448 140.831 130.192 140.85C135.546 140.985 138.714 137.014 142.158 133.567C143.998 131.724 146.052 129.715 146.778 127.107C147.95 122.89 143.091 122.702 140.775 124.692Z"
              fill="#D6DAE1"/>
        <path d="M147.966 70.3756C146.37 71.1917 144.796 72.0786 143.225 73.0327C140.678 74.5798 134.405 77.7676 131.889 79.365L134.554 84.2524C135.656 86.2731 138.177 87.0279 140.203 85.9426C143.28 84.295 146.998 82.3731 148.967 81.2008C151.094 79.9358 152.623 78.5787 154.516 76.9822C157.242 74.6837 159.19 69.7418 162.127 67.71C162.514 67.4425 163.768 66.2975 163.753 65.8682C163.738 65.4252 161.588 64.8714 161.14 64.7845C159.668 64.5 158.072 64.9191 156.563 65.3885C153.248 66.4193 150.988 68.8303 147.966 70.3756Z"
              fill="#F9956E"/>
        <path d="M156.669 95.0078C156.504 95.0248 154.391 94.1533 154.213 94.0869C149.345 92.2621 144.476 90.4373 139.608 88.6125C135.378 87.0271 131.107 84.9552 126.467 85.5592C124.65 85.7961 122.839 86.6838 121.879 88.247C120.933 89.7873 120.937 91.7194 121.13 93.5178C121.786 99.6362 124.519 105.747 126.421 111.589C127.614 115.254 128.806 118.919 129.999 122.584L141.96 118.72L136.423 103.577L157.172 111.261C162.216 110.749 162.061 94.4625 156.669 95.0086V95.0078Z"
              fill="#002966"/>
        <path d="M163.411 103.581C153.623 103.816 137.56 106.145 132.254 106.95C130.356 107.238 128.598 108.158 127.326 109.598C127.274 109.657 127.223 109.717 127.172 109.777L106.818 134.861L115.737 142.546L137.947 120.072H162.675C171.76 120.249 174.899 114.588 177.995 107.516L163.412 103.581H163.411Z"
              fill="#002966"/>
        <path d="M165.394 109.898C165.284 108.6 165.754 107.329 166.252 106.126C166.648 105.168 167.166 104.123 168.144 103.781"
              stroke="black" stroke-width="0.375413" stroke-linecap="round" stroke-linejoin="round"/>
        <path d="M171.389 63.8671C170.834 64.7676 170.102 65.5496 169.172 66.0786C167.876 66.8155 166.234 66.9893 164.873 66.3819C164.123 66.048 163.293 65.3937 163.157 64.5503C163.041 63.8322 163.545 58.9933 163.545 58.9933C163.24 59.1577 168.293 56.7332 171.866 54.8113C170.989 55.2832 171.343 61.3727 171.744 63.2265C171.796 63.465 171.516 63.6592 171.389 63.8671Z"
              fill="#F9956E"/>
        <path d="M155.971 77.4443C156.033 77.6266 156.098 77.8046 156.167 77.9759C156.676 79.2444 157.425 80.4422 158.52 81.2498C161.827 83.6871 167.415 81.565 170.763 79.914C172.7 78.9581 174.287 77.1257 175.536 75.3784C176.613 73.8722 177.416 72.1284 177.543 70.3181C177.811 66.5049 175.268 64.3308 172.274 62.7267L170.621 61.8416L164.295 62.0094C164.295 62.0094 160.402 64.1622 160.067 64.3521C159.794 64.5072 159.525 65.0055 159.246 65.1674L159.238 65.1725C159.017 65.3029 158.795 65.4358 158.58 65.5746C154.953 67.9046 154.729 73.7683 155.971 77.4451L155.971 77.4443Z"
              fill="#F9956E"/>
        <path d="M161.716 63.436C160.333 66.9475 164.124 70.4591 168.075 68.0499C171.242 66.1178 171.95 63.2094 172.274 62.7263L181.847 66.939C184.574 68.4989 180.397 102.649 177.28 109.484C173.607 110.983 155.204 101.519 153.805 99.0143C153.645 98.7272 155.425 92.078 155.33 90.358C155.19 87.8457 154.47 84.2345 154.134 81.7401C154.004 80.7774 153.859 79.8156 153.821 78.8453C153.768 77.5172 154.564 66.9083 155.039 65.9934L161.716 63.4377V63.436Z"
              fill="white"/>
        <path d="M178.288 70.0071C179.278 69.1424 180.71 68.8826 181.98 69.749C182.996 70.4416 184.002 71.6403 184.482 72.7528C185.96 76.1758 186.36 79.799 186.959 83.3532C187.579 87.0334 187.187 91.678 187.242 95.3438L178.111 93.2583C177.743 93.2302 177.36 81.5548 177.058 79.4932C176.489 75.5948 175.881 74.8332 177.718 70.6299C177.832 70.3692 178.074 70.1929 178.288 70.0071Z"
              fill="#F9956E"/>
        <path d="M160.491 97.2309C164.743 95.6915 171.553 94.2824 175.752 92.628C177.947 91.7633 179.117 90.7615 181.484 91.9363C183.582 92.9781 185.074 93.6384 187.207 94.5857C187.277 96.8501 187.744 98.8998 185.591 100.081C183.935 100.99 180.847 101.262 178.915 101.502C174.988 101.991 165.48 102.997 161.476 103.061L160.489 97.2317L160.491 97.2309Z"
              fill="#F9956E"/>
        <path d="M151.317 101.791C151.317 101.791 151.318 101.783 151.32 101.78C151.32 101.78 151.32 101.781 151.321 101.78C151.319 101.782 151.318 101.786 151.317 101.79V101.791ZM162.816 102.811C159.957 104.295 156.93 104.136 153.795 102.917L153.471 103.806C153.419 103.949 153.315 104.067 153.181 104.137C153.169 104.143 153.158 104.149 153.147 104.154C152.682 104.382 152.171 103.933 152.315 103.437L152.562 102.584L151.901 104.006C151.861 104.093 151.799 104.169 151.72 104.221C151.715 104.225 151.71 104.228 151.705 104.232C151.306 104.496 150.789 104.122 150.895 103.654L151.321 101.78L150.189 103.996C149.486 104.698 149.082 104.662 149.021 103.774L149.854 100.716L147.819 103.933C147.671 104.169 147.45 104.352 147.187 104.444C146.793 104.581 146.503 104.509 146.383 104.098C146.308 103.838 146.332 103.56 146.433 103.309L148.366 98.4872C148.978 97.4955 149.777 97.4836 150.596 97.5756L155.466 97.8712L159.039 97.7213L160.491 97.2315L162.43 96.5491L162.816 102.812V102.811Z"
              fill="#F9956E"/>
        <path d="M175.604 71.694C175.889 70.405 176.289 69.0965 177.139 68.087C178.516 66.4479 181.136 66.2997 182.89 67.4685C183.634 67.9643 184.114 68.7634 184.537 69.5514C185.853 71.9989 186.639 74.179 187.183 76.9409C187.772 79.9277 188.115 82.9639 188.209 86.0069C188.018 86.0129 187.802 86.0197 187.612 86.0256L176.017 86.3851C176.017 86.3851 174.525 76.5635 175.603 71.6948L175.604 71.694Z"
              fill="white"/>
        <path d="M161.388 64.8651C157.502 61.1908 149.072 65.7493 141.809 71.8465C141.923 71.999 142.052 72.1736 142.165 72.3261L149.447 82.8029L162.916 75.5651L161.388 64.8651H161.388Z"
              fill="white"/>
        <path d="M159.919 47.7786C159.907 47.9805 159.905 48.1833 159.911 48.3852C159.927 48.9764 159.884 49.882 160.233 50.3778C160.262 50.4204 160.297 50.463 160.346 50.4809C160.647 50.595 160.678 49.9723 160.738 49.8155C160.892 49.4194 161.07 49.0335 161.231 48.6407C161.512 47.9524 161.751 47.2061 161.678 46.453C161.629 45.9445 161.303 45.3064 160.676 45.6829C160.46 45.8124 160.331 46.0467 160.236 46.2801C160.04 46.7572 159.948 47.2658 159.919 47.7786Z"
              fill="black"/>
        <path d="M164.543 59.0809C165.203 58.9957 165.87 58.816 166.467 58.6805C167.894 58.3568 169.311 57.7144 170.349 56.641C172.18 54.7481 173.327 52.2137 172.706 49.5139C171.809 45.6233 167.553 42.8793 163.76 44.2662C161.163 45.2152 160.4 47.6338 160.181 50.181C160.038 51.8422 159.603 53.5051 159.692 55.1996C159.805 57.349 161.037 58.574 163.066 59.0477C163.532 59.1567 164.035 59.1465 164.543 59.0809Z"
              fill="#F9956E"/>
        <path d="M165.619 49.9904C165.22 49.8771 164.717 49.6863 164.731 49.2988C164.735 49.1957 164.786 49.0995 164.853 49.0211C165.061 48.7801 165.374 48.7494 165.669 48.7971C166.424 48.9197 167.325 49.3839 167.624 50.1437C167.659 50.2331 167.65 50.3481 167.577 50.4111C167.539 50.4443 167.487 50.4588 167.438 50.4682C166.954 50.5568 166.402 50.2092 165.947 50.0798C165.862 50.0551 165.746 50.027 165.62 49.9912L165.619 49.9904Z"
              fill="black"/>
        <path d="M161.311 49.3754C160.912 49.2621 160.409 49.0713 160.424 48.6838C160.427 48.5807 160.478 48.4845 160.545 48.4061C160.753 48.1651 161.066 48.1344 161.361 48.1821C162.116 48.3048 163.017 48.7689 163.316 49.5287C163.351 49.6181 163.342 49.7331 163.269 49.7961C163.231 49.8293 163.18 49.8438 163.13 49.8532C162.647 49.9418 162.094 49.5943 161.639 49.4648C161.554 49.4401 161.439 49.412 161.312 49.3762L161.311 49.3754Z"
              fill="black"/>
        <path d="M174.488 49.4903C174.33 50.4887 174.041 51.4608 173.729 52.4209C173.449 53.2779 173.156 54.2584 172.614 54.9902C172.449 55.2126 172.317 55.3276 172.237 55.613C172.147 55.9341 172.109 56.2715 171.949 56.5688C171.75 56.9377 171.243 57.2026 170.914 56.9445C170.694 56.7716 170.568 56.3013 170.486 55.8566C170.432 55.5601 170.398 55.2756 170.37 55.0967C170.229 54.2082 170.12 53.3085 169.964 52.4149C169.703 52.4532 169.463 52.5768 169.213 52.6594C168.246 52.9806 168.103 52.1133 168.252 51.3653C168.474 50.2596 168.749 49.1657 169.08 48.088C167.446 48.56 165.799 48.5634 164.162 48.1545C164.06 48.1289 163.95 48.0991 163.881 48.0199C163.791 47.9168 163.797 47.7566 163.857 47.634C163.918 47.5113 164.023 47.4184 164.126 47.3281C164.246 47.2225 164.366 47.1177 164.486 47.0121C164.315 47.1629 163.924 47.2285 163.707 47.2915C163.426 47.3733 163.14 47.4363 162.85 47.4815C162.256 47.5743 161.65 47.5905 161.052 47.5292C160.382 47.4602 159.251 47.3537 158.811 46.7565C158.357 46.1389 158.766 45.0476 159.602 45.0314C159.215 44.9223 158.788 44.7809 158.6 44.4248C158.433 44.1113 158.515 43.7084 158.724 43.4213C158.933 43.1342 159.249 42.9442 159.57 42.7934C161.104 42.0753 163.382 41.7882 165.069 41.8359C167.034 41.8904 168.987 42.5387 170.567 43.7177C170.763 43.8643 170.959 44.021 171.191 44.0994C171.37 44.159 171.56 44.1693 171.746 44.1948C174.268 44.5398 174.817 47.2259 174.516 49.3284C174.508 49.3821 174.5 49.4358 174.491 49.4903H174.488Z"
              fill="black"/>
        <path d="M163.441 59.1289L166.565 58.668C166.787 58.6356 166.893 58.9321 166.7 59.0471L163.293 61.0806L163.441 59.128L163.441 59.1289Z"
              fill="#E57857"/>
        <path d="M181.592 67.2467C179.466 67.1573 177.518 68.6566 176.496 70.5266C175.474 72.3957 175.215 74.58 175.086 76.708C174.903 79.7264 174.865 83.3998 175.129 86.413"
              stroke="black" stroke-width="0.375413" stroke-linecap="round" stroke-linejoin="round"/>
        <path d="M154.727 85.9157C153.647 82.1784 153.953 77.262 154.717 71.9546" stroke="black" stroke-width="0.375413"
              stroke-linecap="round" stroke-linejoin="round"/>
        <path d="M177.863 91.7354L181.777 92.6725" stroke="black" stroke-width="0.375413" stroke-linecap="round"
              stroke-linejoin="round"/>
        <path d="M172.032 55.5319C173.586 55.1959 174.573 53.662 174.238 52.1056C173.902 50.5493 172.371 49.56 170.818 49.8959C169.265 50.2318 168.277 51.7658 168.612 53.3221C168.948 54.8784 170.479 55.8678 172.032 55.5319Z"
              fill="#F9956E"/>
        <path d="M173.493 52.4324C173.336 51.2874 172.282 50.4875 171.139 50.6451C169.997 50.8027 169.198 51.8582 169.356 53.0031"
              stroke="black" stroke-width="0.375413" stroke-linecap="round" stroke-linejoin="round"/>
        <path d="M170.813 50.7883L170.222 53.9346" stroke="black" stroke-width="0.375413" stroke-linecap="round"
              stroke-linejoin="round"/>
        <path d="M163.425 50.2664L163.068 51.8449C162.215 52.3254 161.613 52.8383 162.711 53.5726" stroke="black"
              stroke-width="0.375413" stroke-linecap="round" stroke-linejoin="round"/>
        <path d="M164.628 53.9874C164.656 53.9772 164.683 53.9669 164.711 53.9567C164.883 53.8937 165.078 53.8307 165.243 53.909C165.835 54.1901 165.256 54.8766 164.978 55.121C164.567 55.4839 164.011 55.7138 163.451 55.6346C162.894 55.5554 162.31 54.9762 163.061 54.6202C163.57 54.3783 164.099 54.1816 164.628 53.9865V53.9874Z"
              fill="white"/>
        <path d="M165.293 50.9289C165.243 51.2109 165.357 51.4655 165.547 51.4996C165.736 51.5337 165.93 51.3327 165.98 51.0507C166.031 50.7688 165.917 50.5142 165.727 50.4801C165.537 50.446 165.344 50.647 165.293 50.9289Z"
              fill="black"/>
        <path d="M165.559 50.4493C166.026 50.365 166.442 50.589 166.577 51.066" stroke="black" stroke-width="0.375413"
              stroke-linecap="round" stroke-linejoin="round"/>
        <path d="M161.124 50.4382C161.073 50.7201 161.187 50.9748 161.377 51.0089C161.566 51.0429 161.76 50.8419 161.81 50.56C161.861 50.2781 161.747 50.0234 161.557 49.9894C161.368 49.9553 161.174 50.1563 161.124 50.4382Z"
              fill="black"/>
        <path d="M161.389 49.9588C161.857 49.8745 162.272 50.0985 162.407 50.5755" stroke="black"
              stroke-width="0.375413" stroke-linecap="round" stroke-linejoin="round"/>
        <path d="M126.039 110.958C128.574 107.746 132.45 106.134 137.679 106.133" stroke="black" stroke-width="0.375413"
              stroke-linecap="round" stroke-linejoin="round"/>
        <path d="M137.947 120.072L134.067 117.659L136.742 121.145L137.947 120.072Z" fill="black"/>
        <path d="M103.964 137.632C104.208 135.768 104.373 133.985 104.23 132.527C104.108 131.288 102.869 130.482 101.686 130.863C100.561 131.225 100.004 132.5 100.518 133.567C101.249 135.086 102.421 136.432 103.963 137.632H103.964Z"
              stroke="black" stroke-width="0.375413" stroke-linecap="round" stroke-linejoin="round"/>
        <path d="M104.114 137.864C105.277 136.389 106.331 134.943 106.954 133.618C107.484 132.492 106.833 131.164 105.622 130.884C104.471 130.617 103.34 131.426 103.235 132.605C103.086 134.285 103.404 136.043 104.114 137.864V137.864Z"
              stroke="black" stroke-width="0.375413" stroke-linecap="round" stroke-linejoin="round"/>
        <path d="M131.889 79.3645L124.835 60.3865L130.975 58.0139L141.519 77.112L131.889 79.3645Z" fill="#F9956E"/>
        <path d="M131.438 58.5296C131.265 58.1232 131.154 57.8626 131.154 57.8626C129.991 53.9353 128.83 50.1587 127.732 50.094L121.177 53.8177C121.984 56.2755 123.049 58.418 124.605 59.9557L124.981 61.0359C125.481 62.4705 126.853 63.4128 128.369 63.3616C130.803 63.279 132.394 60.7727 131.438 58.5296Z"
              fill="#F9956E"/>
        <path d="M128.47 50.9528C128.425 50.3693 127.885 49.9663 127.385 49.6622C126.109 48.8844 124.777 48.1943 123.387 47.6414C122.761 47.3918 121.975 46.9914 121.297 46.9386C120.483 46.8756 120.737 47.6678 121.129 48.0708C121.759 48.7174 122.501 49.2413 123.239 49.7618C123.988 50.2892 124.738 50.8174 125.526 51.2842C126.022 51.5781 126.565 51.855 127.143 51.8328C127.721 51.8115 128.513 51.5287 128.47 50.9537V50.9528Z"
              fill="#F9956E"/>
        <path d="M120.394 48.2348C119.976 48.1087 119.339 47.9631 118.911 48.1011C117.274 48.6284 120.393 50.4208 120.843 50.6508C121.916 51.1969 122.988 51.743 124.061 52.2882C124.695 52.6111 125.767 53.0123 126.235 52.1902C126.579 51.5871 126.007 50.9686 125.551 50.6321C124.056 49.528 122.164 48.7681 120.393 48.234L120.394 48.2348Z"
              fill="#F9956E"/>
        <path d="M120.871 50.3812C120.025 51.0602 119.178 51.7409 118.406 52.5033C118.247 52.6601 118.09 52.8245 117.991 53.0247C117.893 53.2249 117.861 53.4694 117.961 53.6679C118.133 54.0146 118.612 54.0811 118.99 53.9882C119.451 53.8749 119.854 53.6014 120.246 53.3322L121.204 52.6763C121.25 52.6447 121.303 52.5885 121.271 52.5417C121.856 53.1499 122.895 53.4174 123.727 53.2556C124.105 53.1823 124.519 52.9531 124.557 52.5715C124.59 52.2282 124.306 51.9462 124.036 51.7306C123.183 51.0483 121.953 50.5473 120.871 50.3804L120.871 50.3812Z"
              fill="#F9956E"/>
        <path d="M118.996 55.7445C118.962 55.9396 118.932 56.1415 118.974 56.3348C119.017 56.5282 119.146 56.7148 119.337 56.7693C119.656 56.8613 119.948 56.5708 120.146 56.305C120.625 55.6627 121.07 54.9045 120.957 54.1148C121.145 54.3354 121.338 54.5603 121.591 54.7026C121.843 54.8449 122.171 54.8917 122.422 54.7443C122.73 54.5629 122.825 54.1395 122.723 53.7979C122.621 53.4562 122.366 53.1836 122.101 52.9459C121.879 52.7466 121.644 52.5617 121.398 52.3931C121.28 52.3121 121.156 52.2346 121.017 52.2039C120.349 52.0583 119.611 52.7739 119.482 53.3736C119.315 54.1531 119.132 54.9548 118.995 55.7445H118.996Z"
              fill="#F9956E"/>
        <path d="M127.2 59.4212C126.413 57.7097 125.237 56.178 123.784 54.9751" stroke="black" stroke-width="0.30219"
              stroke-linecap="round" stroke-linejoin="round"/>
        <path d="M124.398 3.68433L128.004 57.6548L90.3625 58.785L86.7567 4.36033L124.398 3.68433Z" fill="#D6DAE1"/>
        <path d="M123.407 4.52051L126.828 55.7321L91.1101 56.8046L87.6885 5.16195L123.407 4.52051Z" fill="white"/>
        <path d="M112.528 15.478L109.697 13.4207L109.764 13.8324C109.795 13.9998 109.814 14.1694 109.818 14.3396C109.822 14.4875 109.817 14.6354 109.803 14.7825L111.897 16.3059C112.092 16.4357 112.23 16.6336 112.287 16.8607C112.343 17.0878 112.313 17.3279 112.202 17.5339C112.092 17.74 111.908 17.8971 111.688 17.9746C111.468 18.0521 111.227 18.0444 111.012 17.953L107.89 16.7624C108.301 16.5144 108.639 16.1611 108.869 15.7389C109.099 15.3167 109.213 14.8407 109.199 14.3597C109.194 14.187 109.173 14.0151 109.136 13.8461L108.28 8.56165C108.205 8.08819 107.96 7.65843 107.592 7.35259C107.224 7.04674 106.757 6.8857 106.28 6.89951C105.802 6.91332 105.345 7.10105 104.996 7.42765C104.646 7.75426 104.426 8.19743 104.378 8.67447L104.018 12.1624L104.339 11.8988C104.468 11.7881 104.606 11.688 104.751 11.5992C104.874 11.5233 105.002 11.4546 105.133 11.3935L105.401 8.81303C105.417 8.58009 105.518 8.36142 105.686 8.19961C105.854 8.0378 106.076 7.94444 106.308 7.93771C106.541 7.93098 106.768 8.01138 106.945 8.16322C107.122 8.31507 107.236 8.5275 107.265 8.75914L107.801 12.0619C107.3 11.7862 106.726 11.6763 106.159 11.7479C105.592 11.8195 105.063 12.069 104.646 12.4606L100.529 15.8315C100.156 16.1335 99.9068 16.5612 99.8263 17.0346C99.7458 17.5079 99.84 17.9945 100.091 18.4032C100.343 18.8119 100.734 19.1148 101.192 19.2552C101.649 19.3955 102.142 19.3637 102.579 19.1658L105.768 17.7352L105.38 17.5871C105.221 17.5292 105.067 17.4597 104.918 17.3793C104.79 17.3104 104.667 17.2326 104.549 17.1466L102.185 18.2082C101.976 18.3119 101.735 18.3335 101.511 18.2688C101.287 18.2042 101.095 18.0579 100.972 17.8586C100.85 17.6593 100.806 17.4214 100.849 17.1914C100.892 16.9613 101.02 16.7558 101.206 16.615L103.791 14.4962C103.791 14.4962 103.792 14.5094 103.792 14.5161C103.808 15.0695 103.993 15.6047 104.321 16.0499C104.649 16.4951 105.105 16.829 105.628 17.007L110.678 18.925C111.125 19.096 111.618 19.0982 112.066 18.9311C112.514 18.7641 112.886 18.4393 113.113 18.0173C113.34 17.5953 113.406 17.1049 113.299 16.6376C113.192 16.1704 112.919 15.7582 112.531 15.4779L112.528 15.478ZM104.816 14.4798C104.807 14.1485 104.896 13.822 105.072 13.5414C105.248 13.2609 105.503 13.0389 105.805 12.9036C106.106 12.7683 106.441 12.7258 106.767 12.7813C107.092 12.8368 107.394 12.988 107.634 13.2156C107.875 13.4433 108.042 13.7373 108.116 14.0603C108.189 14.3834 108.166 14.7211 108.048 15.0308C107.93 15.3405 107.724 15.6082 107.455 15.8001C107.185 15.9921 106.865 16.0996 106.535 16.1092C106.315 16.1155 106.097 16.0784 105.892 15.9999C105.686 15.9214 105.499 15.8032 105.339 15.6518C105.179 15.5005 105.051 15.3191 104.961 15.118C104.872 14.9169 104.823 14.7 104.816 14.4798Z"
              fill="#0056D5"/>
        <path fill-rule="evenodd" clip-rule="evenodd"
              d="M92.4974 23.1937C92.4974 22.9442 92.6992 22.7393 92.9482 22.736L120.902 22.3694C121.151 22.3661 121.353 22.5657 121.353 22.8152C121.353 23.0647 121.151 23.2697 120.902 23.2729L92.9482 23.6395C92.6992 23.6428 92.4974 23.4432 92.4974 23.1937Z"
              fill="#2B323B" fill-opacity="0.6"/>
        <path fill-rule="evenodd" clip-rule="evenodd"
              d="M92.4973 25.9042C92.4973 25.6547 92.6992 25.4497 92.9482 25.4465L120.902 25.0799C121.151 25.0766 121.353 25.2762 121.353 25.5257C121.353 25.7752 121.151 25.9801 120.902 25.9834L92.9482 26.35C92.6992 26.3533 92.4973 26.1537 92.4973 25.9042Z"
              fill="#2B323B" fill-opacity="0.6"/>
        <path fill-rule="evenodd" clip-rule="evenodd"
              d="M92.4973 28.6148C92.4973 28.3653 92.6992 28.1604 92.9482 28.1572L106.474 27.9798C106.723 27.9765 106.925 28.1761 106.925 28.4256C106.925 28.6751 106.723 28.88 106.474 28.8833L92.9482 29.0607C92.6992 29.064 92.4973 28.8643 92.4973 28.6148Z"
              fill="#2B323B" fill-opacity="0.6"/>
        <path fill-rule="evenodd" clip-rule="evenodd"
              d="M93.399 33.1322C93.399 32.8827 93.6008 32.6778 93.8499 32.6745L121.804 32.3079C122.053 32.3046 122.255 32.5042 122.255 32.7537C122.255 33.0032 122.053 33.2081 121.804 33.2114L93.8499 33.578C93.6008 33.5813 93.399 33.3817 93.399 33.1322Z"
              fill="#2B323B" fill-opacity="0.6"/>
        <path fill-rule="evenodd" clip-rule="evenodd"
              d="M93.399 35.8426C93.399 35.5931 93.6009 35.3882 93.8499 35.385L121.804 35.0183C122.053 35.0151 122.255 35.2147 122.255 35.4642C122.255 35.7137 122.053 35.9186 121.804 35.9218L93.8499 36.2885C93.6009 36.2917 93.399 36.0921 93.399 35.8426Z"
              fill="#2B323B" fill-opacity="0.6"/>
        <path fill-rule="evenodd" clip-rule="evenodd"
              d="M93.399 38.5536C93.399 38.3041 93.6009 38.0992 93.8499 38.0959L107.376 37.9185C107.625 37.9152 107.827 38.1148 107.827 38.3643C107.827 38.6138 107.625 38.8187 107.376 38.822L93.8499 38.9994C93.6009 39.0027 93.399 38.8031 93.399 38.5536Z"
              fill="#2B323B" fill-opacity="0.6"/>
        <path fill-rule="evenodd" clip-rule="evenodd"
              d="M94.3007 44.8775C94.3007 44.628 94.5025 44.4231 94.7515 44.4199L122.706 44.0532C122.955 44.05 123.157 44.2496 123.157 44.4991C123.157 44.7486 122.955 44.9535 122.706 44.9568L94.7515 45.3234C94.5025 45.3267 94.3007 45.127 94.3007 44.8775Z"
              fill="#2B323B" fill-opacity="0.6"/>
        <path fill-rule="evenodd" clip-rule="evenodd"
              d="M94.3008 47.5882C94.3008 47.3387 94.5026 47.1338 94.7517 47.1306L122.706 46.7639C122.955 46.7607 123.157 46.9603 123.157 47.2098C123.157 47.4593 122.955 47.6642 122.706 47.6675L94.7517 48.0341C94.5026 48.0373 94.3008 47.8377 94.3008 47.5882Z"
              fill="#2B323B" fill-opacity="0.6"/>
        <path fill-rule="evenodd" clip-rule="evenodd"
              d="M94.3008 50.2992C94.3008 50.0497 94.5026 49.8448 94.7517 49.8415L108.278 49.6641C108.527 49.6608 108.729 49.8604 108.729 50.1099C108.729 50.3594 108.527 50.5644 108.278 50.5676L94.7517 50.745C94.5026 50.7483 94.3008 50.5487 94.3008 50.2992Z"
              fill="#2B323B" fill-opacity="0.6"/>
        <path d="M127.528 56.4444C128.056 57.0194 129.639 58.1499 130.371 57.3653C130.595 57.1259 130.802 56.7391 130.743 56.4094C130.505 55.1069 129.823 53.973 129.485 52.7036C129.313 52.0587 129.051 51.9173 128.407 51.6566C126.89 51.0433 125.467 50.2595 123.941 49.6751C123.709 49.5865 123.421 49.5056 123.233 49.6683C123.096 49.7858 123.071 49.9886 123.089 50.1675C123.155 50.8499 123.662 51.4002 124.18 51.85C124.562 52.1823 124.965 52.4898 125.385 52.7718C125.585 52.9055 125.792 53.0376 125.937 53.2293C126.073 53.409 126.143 53.6288 126.213 53.8435C126.517 54.7746 126.865 55.7228 127.528 56.4452V56.4444Z"
              fill="#F9956E"/>
        <path d="M129.485 52.7036C129.313 52.0587 129.051 51.9173 128.407 51.6566C126.89 51.0433 125.467 50.2595 123.941 49.6751C123.709 49.5865 123.421 49.5056 123.233 49.6683C123.096 49.7858 123.071 49.9886 123.089 50.1675C123.155 50.8499 123.662 51.4002 124.18 51.85C124.562 52.1823 124.965 52.4898 125.385 52.7718C125.585 52.9055 125.792 53.0376 125.937 53.2293C126.073 53.409 126.143 53.6288 126.213 53.8435C126.517 54.7746 126.865 55.7228 127.528 56.4452"
              stroke="black" stroke-width="0.30219" stroke-linecap="round" stroke-linejoin="round"/>
        <path d="M159.408 83.8726H128.467V108.468H159.408V83.8726Z" fill="#0045AA"/>
        <path d="M159.408 108.468L165.516 105.507C166.042 105.252 165.86 104.46 165.276 104.46H136.025L128.466 108.468H159.407H159.408Z"
              fill="#0045AA"/>
    </g>
    <defs>
        <clipPath id="clip0_4235_10354">
            <rect width="171.2" height="152" fill="white" transform="translate(22.3051)"/>
        </clipPath>
    </defs>
</svg>
