<svg fill="none" height="639" viewBox="0 0 375 639" width="375" xmlns="http://www.w3.org/2000/svg"
>
    <clipPath id="a">
        <path d="m0 0h375v639h-375z"/>
    </clipPath>
    <g clip-path="url(#a)" opacity=".2">
        <ellipse cx="-38" cy="-27" fill="#1d6ce2" rx="103" ry="103" transform="matrix(-1 0 -0 -1 -76 -54)"/>
        <ellipse cx="446" cy="700.5" fill="#1d6ce2" rx="163.5" ry="164" transform="matrix(0 -1 1 0 -254.5 1146.5)"/>
        <g clip-rule="evenodd" fill="#97bdf7" fill-rule="evenodd">
            <path d="m-45.0612 696.273c.0132-.009.0263-.017.0395-.026 1.0271-.682 2.0384-1.404 3.0322-2.167l.0751-.058c.0811-.063.1619-.126.2426-.188.0126-.01.0252-.02.0377-.03l.0011.002 104.8884-80.575-.0029-.004c.1666-.124.3325-.249.4978-.376 17.2145-13.224 20.3195-39.231 6.9353-58.089-12.0551-16.984-33.3753-22.376-50.0692-13.616l-119.1501 46.806c-4.7073 1.785-9.2333 4.283-13.4453 7.518-24.858 19.096-29.342 56.651-10.015 83.881 18.545 26.127 52.2728 33.256 76.9328 16.922zm95.5464-100.746c6.9524-5.341 9.7404-17.822 2.4347-28.115-6.2989-8.874-15.9831-10.183-22.1888-6.927l-1.0511.552-120.3752 47.287-.1208.046c-2.726 1.034-5.3819 2.491-7.8976 4.424-14.5964 11.213-18.7634 35.241-5.5144 53.907 12.9711 18.275 34.969 20.806 48.966 10.06.0023-.002.0047-.003.007-.005l.0443-.034c.0012-.001.0024-.002.0037-.003.0551-.043.1109-.086.1674-.13l17.8687-13.959.1082.151 70.4709-54.136-.2035-.29 17.0705-12.67c.0692-.051.1394-.104.21-.158z"/>
            <path d="m445.879-64.5785c-.013.0068-.026.0135-.039.0203-1.036.5297-2.062 1.0992-3.075 1.7089l-.076.0462c-.083.05-.166.1001-.248.1505-.013.0079-.026.0157-.038.0236l-.001-.0015-106.939 64.35475.003.00426c-.17.09817-.339.19794-.507.29933-17.551 10.56206-23.206 34.57496-12.63 53.63436 9.525 17.1666 28.968 24.4596 45.56 18.0215l116.766-31.2476c4.606-1.1744 9.118-3.0351 13.412-5.6192 25.344-15.2518 33.509-49.9268 18.238-77.4488-14.653-26.4077-45.559-36.6348-70.426-23.9466zm-100.295 84.2182c-7.088 4.2661-11.02 15.6527-5.248 26.056 4.978 8.9697 13.929 11.2153 20.097 8.822l1.045-.4054 117.966-31.5688.119-.0302c2.667-.6801 5.313-1.7645 7.878-3.308 14.882-8.9556 21.325-31.0046 10.856-49.8707-10.249-18.4712-30.629-23.1584-44.899-14.5766-.002.0014-.005.0029-.007.0043l-.045.0272c-.002.0008-.003.0016-.004.0023-.056.034-.113.0687-.171.104l-18.242 11.181-.086-.1525-71.848 43.23776.16.29325-17.357 10.05809c-.07.0407-.142.083-.214.1263z"/>
        </g>
    </g>
</svg>