<svg width="1440" height="943" viewBox="0 0 1440 943" fill="none" xmlns="http://www.w3.org/2000/svg">
    <g style="mix-blend-mode:multiply" opacity="0.2" clip-path="url(#clip0_84_2064)">
        <ellipse cx="45.5" cy="111.5" rx="194.5" ry="194.5" transform="rotate(180 45.5 111.5)" fill="#1D6CE2"/>
        <path fill-rule="evenodd" clip-rule="evenodd"
              d="M29.2951 1080.55C29.3216 1080.53 29.348 1080.51 29.3744 1080.49C31.4334 1079.13 33.4607 1077.69 35.453 1076.16L35.6035 1076.04C35.7661 1075.92 35.9282 1075.79 36.0899 1075.67C36.1151 1075.65 36.1403 1075.63 36.1655 1075.61L36.1677 1075.61L246.437 914.462L246.431 914.453C246.765 914.206 247.098 913.956 247.429 913.702C281.939 887.254 288.163 835.239 261.332 797.525C237.165 763.556 194.425 752.773 160.959 770.291L-77.901 863.904C-87.3379 867.474 -96.4117 872.47 -104.855 878.941C-154.688 917.132 -163.676 992.241 -124.931 1046.7C-87.755 1098.96 -20.1406 1113.21 29.2951 1080.55ZM220.837 879.054C234.774 868.371 240.363 843.41 225.717 822.824C213.09 805.075 193.676 802.458 181.236 808.97L179.128 810.073L-62.1871 904.648L-62.4293 904.74C-67.8941 906.807 -73.2182 909.723 -78.2616 913.588C-107.523 936.014 -115.876 984.07 -89.3166 1021.4C-63.3131 1057.95 -19.2141 1063.01 8.84558 1041.52C8.85029 1041.52 8.85501 1041.52 8.85972 1041.51L8.94842 1041.44C8.95091 1041.44 8.95341 1041.44 8.95591 1041.44C9.06634 1041.35 9.17817 1041.27 9.29144 1041.18L45.1127 1013.26L45.3297 1013.56L186.602 905.29L186.194 904.71L220.416 879.371C220.554 879.268 220.695 879.162 220.837 879.054Z"
              fill="#97BDF7"/>
        <path fill-rule="evenodd" clip-rule="evenodd"
              d="M1457.04 -88.1545C1457.01 -88.1396 1456.98 -88.1248 1456.95 -88.11C1454.69 -86.9527 1452.44 -85.7084 1450.23 -84.3762L1450.06 -84.2752C1449.88 -84.1661 1449.7 -84.0565 1449.52 -83.9464C1449.49 -83.9292 1449.46 -83.9121 1449.43 -83.8949L1449.43 -83.8982L1215.41 56.7126L1215.41 56.7219C1215.04 56.9364 1214.67 57.1544 1214.3 57.3759C1175.89 80.4532 1163.52 132.92 1186.66 174.563C1207.51 212.071 1250.06 228.006 1286.37 213.939L1541.9 145.665C1551.98 143.099 1561.85 139.034 1571.25 133.388C1626.71 100.064 1644.58 24.3009 1611.16 -35.8328C1579.09 -93.5317 1511.46 -115.877 1457.04 -88.1545ZM1237.55 95.8566C1222.04 105.178 1213.44 130.057 1226.07 152.787C1236.96 172.385 1256.55 177.292 1270.05 172.063L1272.34 171.177L1530.49 102.201L1530.75 102.135C1536.59 100.649 1542.38 98.28 1547.99 94.9074C1580.56 75.3401 1594.66 27.1646 1571.75 -14.0565C1549.32 -54.4149 1504.72 -64.6562 1473.49 -45.9055C1473.49 -45.9023 1473.48 -45.8992 1473.48 -45.896L1473.38 -45.8365C1473.38 -45.8349 1473.37 -45.8332 1473.37 -45.8315C1473.25 -45.7573 1473.12 -45.6816 1473 -45.6044L1433.08 -21.1748L1432.89 -21.5079L1275.66 72.9637L1276.01 73.6044L1238.02 95.5807C1237.87 95.6697 1237.71 95.762 1237.55 95.8566Z"
              fill="#97BDF7"/>
        <ellipse cx="1401" cy="930" rx="227" ry="227" transform="rotate(-90 1401 930)" fill="#1D6CE2"/>
    </g>
    <defs>
        <clipPath id="clip0_84_2064">
            <rect width="1440" height="943" fill="white"/>
        </clipPath>
    </defs>
</svg>
