<svg height="368.394" viewBox="0 0 575.21 368.394" width="575.21" xmlns="http://www.w3.org/2000/svg">
    <path d="m1734.505 1354.378h112.145l-21.672-55.089h-68.8z" fill="#123d68"
          transform="translate(-1515.145 -1003.381)"/>
    <g transform="translate(95.047 60.587)">
        <path d="m10 0h340.772a10 10 0 0 1 10 10v216h-360.772v-216a10 10 0 0 1 10-10z" fill="#19488e"/>
        <path d="m0 0h325.357v194.385h-325.357z" fill="#fff" transform="matrix(-1 0 0 -1 343.065 212.623)"/>
        <rect fill="#edf2f9" height="68.867" rx="5" transform="matrix(-1 0 0 -1 100.764 193.348)" width="65.396"/>
        <path d="m1751.112 1273.485v19.893a17.352 17.352 0 0 1 -17.352 17.352h-326.067a17.352 17.352 0 0 1 -17.352-17.352v-19.893z"
              fill="#19488e" transform="translate(-1390.341 -1047.484)"/>
    </g>
    <g fill="#edf2f9" transform="translate(203.109 185.066)">
        <rect height="10.646" rx="5.323" width="217.342"/>
        <rect height="10.646" rx="5.323" transform="matrix(-1 0 0 -1 217.342 30.052)" width="217.342"/>
        <rect height="10.646" rx="5.323" width="217.342" y="38.814"/>
        <rect height="10.646" rx="5.323" width="217.342" y="58.221"/>
    </g>
    <g fill="#d1e2fd" transform="translate(130.415 87.772)">
        <rect height="85.388" rx="4" width="168.25" x="121.786"/>
        <path d="m4 0h102.988a4 4 0 0 1 4 4v77.388a4 4 0 0 1 -4 4h-100.988a6 6 0 0 1 -6-6v-75.388a4 4 0 0 1 4-4z"/>
    </g>
    <path d="m0 0h176.738a15.74 15.74 0 0 1 -15.738 15.74h-145.26a15.74 15.74 0 0 1 -15.74-15.74z" fill="#19488e"
          transform="matrix(-1 0 0 -1 363.802 361.62)"/>
    <circle cx="6.629" cy="6.629" fill="#053c5e" r="6.629"
            transform="matrix(.3830059 -.92374589 .92374589 .3830059 266.642884 308.579476)"/>
    <path d="m0 0h377.191v24.746h-377.191z" fill="#ffd147"
          transform="matrix(-.99920695 .03981788 -.03981788 -.99920695 468.194502 219.289894)"/>
    <g fill="#053c5e">
        <path d="m2325.374 1045.636-23.216.925-25.712-23.742 23.215-.925z" transform="translate(-1861.335 -826.182)"/>
        <path d="m2096.178 1030 23.216-.925 25.712 23.741-23.216.925z" transform="translate(-1746.18 -830.77)"/>
        <path d="m1915.909 1037.185 23.215-.925 25.713 23.74-23.215.925z" transform="translate(-1631.025 -835.358)"/>
        <path d="m1735.64 1044.367 23.216-.925 25.712 23.742-23.215.925z" transform="translate(-1515.87 -839.946)"/>
        <path d="m1555.372 1051.55 23.215-.925 25.712 23.742-23.215.925z" transform="translate(-1400.715 -844.535)"/>
        <path d="m1377.278 1059.476-.031-.774 22.441-.894 25.712 23.742-23.216.925z"
              transform="translate(-1286.929 -849.123)"/>
    </g>
    <g fill="#29427b">
        <path d="m2395.3 835.385-6.15 7.662v-6.76z" transform="translate(-1933.328 -707.041)"/>
        <path d="m2401.522 1087.165-12.375 8.874v-8.38z" transform="translate(-1933.328 -867.877)"/>
        <path d="m1379.975 1128.74 3.744 5.063v-5.063z" transform="translate(-1288.672 -894.435)"/>
    </g>
    <path d="m689.06 3507.562h-13.26l-18.622-70.588h13.257z" fill="#1c3a54" transform="translate(-154.045 -3179.031)"/>
    <path d="m849.624 3507.562h-13.258l-18.622-70.588h13.256z" fill="#1c3a54"
          transform="translate(-274.413 -3179.031)"/>
    <path d="m774.781 3507.562h13.257l9.875-70.588h-13.257z" fill="#29427b" transform="translate(-242.205 -3179.031)"/>
    <path d="m614.218 3507.562h13.257l9.875-70.588h-13.257z" fill="#29427b" transform="translate(-121.837 -3179.031)"/>
    <path d="m0 0h85.185v15.931h-85.185z" fill="#ef7c23" transform="matrix(-1 0 0 -1 571.58 283.259)"/>
    <path d="m804.225 3490.394h-18.3l-15.93-15.931h18.3z" fill="#fff" transform="translate(-238.617 -3207.136)"/>
    <path d="m617.881 3474.463h18.3l15.93 15.931h-18.3z" fill="#fff" transform="translate(-124.583 -3207.136)"/>
    <path d="m0 0h85.185v15.931h-85.185z" fill="#ef7c23" transform="matrix(-1 0 0 -1 571.58 311.699)"/>
    <path d="m804.225 3604h-18.3l-15.93-15.931h18.3z" fill="#fff" transform="translate(-238.617 -3292.305)"/>
    <path d="m617.881 3588.073h18.3l15.931 15.927h-18.3z" fill="#fff" transform="translate(-124.583 -3292.305)"/>
    <circle cx="9.429" cy="9.429" fill="#29427b" r="9.429"
            transform="matrix(.81123734 -.584717 .584717 .81123734 535.922115 252.250809)"/>
    <path d="m817.744 3405.544a5.753 5.753 0 1 0 5.753-5.753 5.753 5.753 0 0 0 -5.753 5.753z" fill="#f9ba2d"
          transform="translate(-274.413 -3151.157)"/>
    <circle cx="9.429" cy="9.429" fill="#29427b" r="9.429"
            transform="matrix(.92387953 -.38268343 .38268343 .92387953 496.570177 249.284098)"/>
    <circle cx="508.889" cy="254.387" fill="#f9ba2d" r="5.753"/>
    <path d="m1408.621 507.7a26.162 26.162 0 0 0 -.863-2.929 4.454 4.454 0 0 1 -2.955-1.478c-4.008-4.645-6.2-10.3-10.3-15.247-.227-4.512-.557-7.229-.557-7.229l-5.92.756c-.43 4.567-.535 10.011.557 10.828s9.592 10.982 15.092 12.388c0 .253 3.41 2.153 3.859 2.572s1.133.693 1.087.339z"
          fill="#f6a505" transform="translate(-941.464 -455.956)"/>
    <path d="m1349.584 559.08-12.887-6.1a.486.486 0 0 1 -.22-.669.486.486 0 0 1 .633-.211l11.253 5.218a.942.942 0 0 0 1.2-.364l8.03-13.152a.567.567 0 0 1 .8-.174.567.567 0 0 1 .167.766z"
          fill="#053c5e" transform="translate(-880.949 -505.784)"/>
    <path d="m1401.722 814.254a9.421 9.421 0 0 1 -.783 2.565c.165 1.559 1.292 1.444 2.771.721a21.125 21.125 0 0 0 1.036-3.9c.013-1.008-3.024.614-3.024.614z"
          fill="#f6a505" transform="translate(-940.303 -720.16)"/>
    <path d="m1375.775 615.273c-.379-2.607-5.643-4.67-10.122-5.185l-2.736 12.712 1.019-.279c-1.57 11.141 2.306 15.813.446 30.742a4.309 4.309 0 0 0 3.976.265c6.999-13.706 8.316-32.063 7.417-38.255z"
          fill="#132f44" transform="translate(-903.772 -558.675)"/>
    <path d="m1380.225 828.55c2.976.847 4.712 1.748 1.59 1.865-1.965.074-6.775.523-8.066.182s-.733-3.317-.144-3.346c.411-.02.623.891 1.241 1.167s1.417-.933 2.011-1.135 2.277.957 3.368 1.267z"
          fill="#132f44" transform="translate(-913.279 -731.236)"/>
    <path d="m1448.449 806.9a9.431 9.431 0 0 1 -1.483 2.234l2.449 1.482a21.122 21.122 0 0 0 2.105-3.437c.302-.97-3.071-.279-3.071-.279z"
          fill="#f6a505" transform="translate(-996.549 -714.873)"/>
    <path d="m1368.07 593.924c.768 5.326 3.79 8.041 6.812 8.041h18.138c-4.457 10.331-1.953 15.861-7.691 29.768a4.308 4.308 0 0 0 3.764 1.306c10.371-11.37 15.478-29.9 16.247-36.11s-20.144-10.124-20.144-10.124l-8.946-.688z"
          fill="#1c3a54" transform="translate(-934.165 -539.626)"/>
    <path d="m1437.061 815.6c2.211.144 3.8 1.73 1.009 1.73h-2.325c-.739 0-4.613-2.769-5.37-3.869s1.606-2.993 2.072-2.631c.324.252-.108 1.081.18 1.694s1.683.216 2.265.45 1.358 2.39 2.169 2.626z"
          fill="#1c3a54" transform="translate(-981.13 -718.155)"/>
    <path d="m1458.723 453.085c-2.435.8-2.449 6.106-2.158 9.8a15.946 15.946 0 0 0 7.466-1.3c-.566-4.632-2.606-9.385-5.308-8.5z"
          fill="#ffd147" transform="translate(-1010.986 -433.832)"/>
    <path d="m1454.448 493.923a23.149 23.149 0 0 0 2.963-.989l.23 1.653a18.032 18.032 0 0 1 -2.906.977z" fill="#ffdf5a"
          transform="translate(-1004.188 -465.582)"/>
    <path d="m1472.765 439.639c-1.713.049-4.166.85-6.487 4.275s-7.18 23.778-4.856 34.48c7.474-1.668 8.582-7.99 18.541-7.983 0-20.684-2.691-26.192-3.306-27.6s-2.981-3.198-3.892-3.172z"
          fill="#ffd147" transform="translate(-1027.814 -423.233)"/>
    <path d="m1419.477 503.895c-.115-.371-1.641-3.205-1.641-3.205-.969-.763-1.2.059-3.01-1.437-5.19-4.287-8.1-7.454-13.452-12.046-1.076-4.838-1.933-7.717-1.933-7.717l-6.264 1.906c.375 5.019 1.263 10.926 2.6 11.609s11.9 7.564 18.105 8.073c.051.273 3.795 2.279 4.358 2.651s1.352.537 1.237.166z"
          fill="#f6a505" transform="translate(-953.45 -454.898)"/>
    <path d="m1486.294 458.01c-2.387.931-2.1 6.234-1.6 9.9a15.941 15.941 0 0 0 7.381-1.714c-.829-4.59-3.132-9.22-5.781-8.186z"
          fill="#ffdf5a" transform="translate(-1044.758 -437.715)"/>
    <path d="m1472.379 432.715c-1.238 2.284-5.9-.24-4.659-2.524l3.072-4.447 3.635 1.969z" fill="#f6a505"
          transform="translate(-1023.656 -412.192)"/>
    <path d="m5.818 0a5.818 5.818 0 0 1 5.818 5.818v2.629a5.818 5.818 0 0 1 -5.818 5.818 5.818 5.818 0 0 1 -5.818-5.818v-2.629a5.818 5.818 0 0 1 5.818-5.818z"
          fill="#f6a505" transform="matrix(.97799857 .20861159 -.20861159 .97799857 446.868033 3.308103)"/>
    <path d="m1440.845 374.8c-.654-1.276-1.406-2.476-2.09-3.718a3.828 3.828 0 0 0 -.993 1.131l-4.366-.786a2.169 2.169 0 0 0 -2.519 1.75l-.075.415a2.169 2.169 0 0 0 -2.519 1.75l-1.559 8.658a1.464 1.464 0 1 0 2.9.1l-.319-2.974a2.8 2.8 0 0 1 2.3-2.265 1.3 1.3 0 0 0 1.069-1.052 1.3 1.3 0 0 1 1.51-1.049l6.261 1.127a3.807 3.807 0 0 0 1.96-.182 29.54 29.54 0 0 1 -1.56-2.905z"
          fill="#1c3a54" transform="translate(-983.249 -368.758)"/>
    <circle cx="447.143" cy="11.498" fill="#f6a505" r="1.814"/>
    <path d="m1426.889 361.175a7.413 7.413 0 0 1 6.092 7.456c1.277.63 2.013 1.293 1.911 1.858-.217 1.205-4.126 1.51-8.732.68s-8.162-2.479-7.945-3.685a7.705 7.705 0 0 1 8.674-6.309z"
          fill="#f9ba2d" transform="translate(-974.004 -360.798)"/>
    <path d="m1418.365 389.2c3.205 2.677 7.65 3.547 11.788 3.783 4.112.234 4.108-1.132 4.1-1.21.459.373.7.74.636 1.072-.217 1.205-4.127 1.51-8.732.68s-8.163-2.479-7.945-3.685c.043-.222.096-.434.153-.64z"
          fill="#ffdf5a" transform="translate(-974.005 -383.15)"/>
    <path d="m1440.183 367.646s1.421-4.358-1.793-6.632a5.766 5.766 0 0 0 -5.953-.76s3.987-.194 5.569 1.733.852 5.686.852 5.686a8.116 8.116 0 0 0 1.325-.027z"
          fill="#ffdf5a" transform="translate(-982.521 -359.761)"/>
    <path d="m1480.576 499.381a21.29 21.29 0 0 0 7.986-1.984l.511 2.341s-6.088 1.832-8.234 1.475z" fill="#ffdf5a"
          transform="translate(-1040.985 -469.129)"/>
    <path d="m2418 3201.392s7.651 4.123 9.677 3.744l-5.228-12.34s-3.432-3.9-1.7-8.156c.528-1.3 6.308.7 7.113 2.913s-.619 3.147-.085 5.767c.38 1.864 11.219 16.26 7.829 20.748s-12.908.493-12.908.493z"
          fill="#f6a505" transform="translate(-2388.403 -2977.602)"/>
    <path d="m2454.5 3248.535c6.744 1.39 11.281 4.247 14.564 5.415 0 0 5.7 15.709-8.69 13.767l-3.051-12.308z"
          fill="#ffd147" transform="translate(-2430.474 -3027.554)"/>
    <path d="m2493.5 3707.909.122 2.815 5.142 1.281.085-4.724z" fill="#f6a505"
          transform="translate(-2467.854 -3383.892)"/>
    <path d="m2491.356 3437.752s2.844 20.941 2.121 35.428a239.482 239.482 0 0 1 -2.747 26.242l-6.624.286s-3.158-44.639-5-52.881l-1.839-8.243z"
          fill="#053c5e" transform="translate(-2458.977 -3174.531)"/>
    <path d="m2495.545 3437.752s-1.017 3.789-8.249 4.285l.757-4.285z" fill="#053c5e"
          transform="translate(-2463.166 -3174.531)"/>
    <path d="m2578.979 3706.644-.651 3.211-5.12-.857.391-4.073z" fill="#f6a505"
          transform="translate(-2565.777 -3382.06)"/>
    <path d="m2515.731 3285.944h-26.085l-2.35-28.061a15.568 15.568 0 0 1 15.568-15.568c8.6 0 11.957 6.375 11.957 14.973z"
          fill="#ffd147" transform="translate(-2483.352 -3022.723)"/>
    <path d="m2525.634 3246.418a12.7 12.7 0 0 1 2.517 5.9 9.318 9.318 0 0 1 .07 1.131c0 3.913-1.808 9.9-1.808 9.9s-7.989-12.067-9.054-14.3c-1.256-2.634-.888-3.226 1.074-3.962s7.201 1.331 7.201 1.331z"
          fill="#ffdf5a" transform="translate(-2502.388 -3024.755)"/>
    <path d="m2517.98 3289.178.238-5.453 2.071-.473 1.784 3.282a56.218 56.218 0 0 1 -1.507 6.584l-2.585-3.937z"
          fill="#113b84" transform="translate(-2496.544 -3054.521)"/>
    <path d="m2522.215 3255.942-4.773-2.316 1.7-3.139c.415.147.667.246.667.246a12.914 12.914 0 0 1 2.406 5.209z"
          fill="#113b84" transform="translate(-2496.564 -3029.071)"/>
    <path d="m2546.179 3249.31-3.156 4.175s-3.449-4.174-4.1-5.675 1.807-2.891 2.948-2.879 4.308 4.379 4.308 4.379z"
          fill="#113b84" transform="translate(-2525.302 -3024.754)"/>
    <path d="m2535.679 3232.558c0 3.083-7.464 3.083-7.464 0l.82-6.376h5.823z" fill="#f6a505"
          transform="translate(-2512.433 -3010.191)"/>
    <path d="m6.9 0a6.9 6.9 0 0 1 6.9 6.9v3.119a6.9 6.9 0 0 1 -6.9 6.9 6.9 6.9 0 0 1 -6.9-6.9v-3.119a6.9 6.9 0 0 1 6.9-6.9z"
          fill="#f6a505" transform="matrix(.98539898 -.17026109 .17026109 .98539898 11.631002 205.205932)"/>
    <path d="m2536.609 3160.072-1.815.314a2.474 2.474 0 0 0 -2.016 2.859l.082.474a2.474 2.474 0 0 0 -2.016 2.859l1.708 9.889a1.67 1.67 0 1 0 3.145-1.02l-1.5-3.062a3.191 3.191 0 0 1 1.582-3.325 1.483 1.483 0 0 0 .735-1.546 1.482 1.482 0 0 1 1.209-1.713l5.312-.918c1.355-.234-6.426-4.811-6.426-4.811z"
          fill="#1c3a54" transform="translate(-2520.523 -2958.839)"/>
    <path d="m2569.561 3207.568a2.153 2.153 0 1 1 -2.488-1.755 2.153 2.153 0 0 1 2.488 1.755z" fill="#f6a505"
          transform="translate(-2554.623 -2994.344)"/>
    <path d="m2512.493 3437.752c-.418.347-.484 8.494 2.2 30.9 0 0-.4 13.893-1.076 30.52l5.8.538s7.38-28.92 9.9-40.144c2.22-9.883 2.926-12.407 3.691-21.813z"
          fill="#053c5e" transform="translate(-2506.198 -3174.531)"/>
    <path d="m2434.72 3259.6v20.317l-11.838 3.615v-22.702z" fill="#c6dafb" transform="translate(-2387.961 -3036.151)"/>
    <path d="m2480.1 3300.979c-3.388 2.56-3.746 2.305-4.3.791s-1.751-.164-1.518 1.576.892 2.539-.845 3.443c-12.554 6.531-22.865 3.994-22.865 3.994a3.146 3.146 0 0 1 -2.427-2l-7.136 3.081c.785 10.366 12.693 8.281 12.693 8.281s9.079.341 21.855-11.092c0 0 3.4-.077 5.947-4.369s1.981-6.266-1.404-3.705z"
          fill="#f6a505" transform="translate(-2440.366 -3067.405)"/>
    <path d="m2571.782 3285.139c.775-7.41 3.23-16.63 8.325-21.048 1.47.127 3.841.883 4.8 4.535 1.2 4.572-.666 11.975-1.2 13.9l-.135.475s-4.535 3.353-11.79 2.138z"
          fill="#ffd147" transform="translate(-2571.782 -3039.638)"/>
    <path d="m2477.361 3166.013s.628-5.018 1.9-5.959-.623 4.984.119 5.421-2.019.538-2.019.538z" fill="#f6a505"
          transform="translate(-2445.108 -2958.746)"/>
    <path d="m2508.093 3144.715a9.124 9.124 0 0 1 10.625 5.25c1.753.055 2.914.423 3.089 1.108.37 1.461-3.855 3.794-9.438 5.21s-10.41 1.381-10.781-.081c-1.241-4.887 1.612-10.247 6.505-11.487z"
          fill="#f9ba2d" transform="translate(-2492.575 -2946.691)"/>
    <path d="m2501.3 3175.464c4.956 1.366 10.38.077 15.137-1.767 4.728-1.832 4.026-3.361 3.983-3.446.7.184 1.156.474 1.259.877.37 1.461-3.855 3.794-9.438 5.211s-10.41 1.38-10.781-.081c-.069-.264-.118-.529-.16-.794z"
          fill="#ffdf5a" transform="translate(-2492.446 -2966.745)"/>
    <path d="m2534.162 3149.22s-.628-5.608-5.388-6.518a7.1 7.1 0 0 0 -7.058 2.182s4.369-2.249 7.124-.9 3.851 5.937 3.851 5.937a9.989 9.989 0 0 0 1.471-.701z"
          fill="#ffdf5a" transform="translate(-2509.466 -2945.216)"/>
    <path d="m2530.592 3265.941v2.784l-2.071.473-2.547-2.333 1.75-2.315z" fill="#113b84"
          transform="translate(-2506.846 -3039.993)"/>
    <path d="m2458.6 3722.7-.415 5.641c1.594.771 13.061.006 13.508-.389s-7.884-4.395-7.884-4.395z" fill="#053c5e"
          transform="translate(-2432.834 -3395.871)"/>
    <path d="m2540.744 3723.168-.415 5.642c1.594.771 13.062.006 13.509-.389s-7.884-4.4-7.884-4.4z" fill="#053c5e"
          transform="translate(-2533.314 -3396.232)"/>
    <path d="m1675.968 3601.846-15.53 45.864c0 3.505 37.249 3.557 37.247 0l-15.529-45.864a3.266 3.266 0 0 0 -6.188 0z"
          fill="#f6a505" transform="translate(-1572.313 -3282.391)"/>
    <path d="m1700.382 3663.46-3.124 9.227a168.787 168.787 0 0 0 20.666 0l-3.124-9.227q-7.214.326-14.418 0z" fill="#fff"
          transform="translate(-1600.843 -3331.852)"/>
    <path d="m1675.2 3738.1-3.1 9.145a169.155 169.155 0 0 0 31.993 0l-3.1-9.145a159.868 159.868 0 0 1 -25.793 0z"
          fill="#fff" transform="translate(-1581.354 -3389.69)"/>
    <path d="m1683.678 3814.536h-48.721a3.576 3.576 0 0 1 3.575-3.575h41.568a3.576 3.576 0 0 1 3.575 3.575z"
          fill="#ef7c23" transform="translate(-1552.569 -3446.142)"/>
    <text fill="#a9c8f9" font-family="MontserratAlternates-Bold, Montserrat Alternates" font-size="68" font-weight="700"
          opacity=".334" transform="translate(261.634 156)">
        <tspan x="0" y="0">404</tspan>
    </text>
    <path d="m0 0h372.639v24.746h-372.639z" fill="#ffd147"
          transform="matrix(-.98943236 .14499518 -.14499518 -.98943236 461.967649 128.345602)"/>
    <g fill="#053c5e">
        <path d="m2305.627 800-22.712 3.328-27.777-20.94 22.711-3.328z" transform="translate(-1847.724 -671.062)"/>
        <path d="m2078.787 808.234 22.711-3.328 27.778 20.94-22.711 3.328z" transform="translate(-1735.072 -687.571)"/>
        <path d="m1902.436 834.079 22.711-3.328 27.777 20.94-22.711 3.328z" transform="translate(-1622.419 -704.08)"/>
        <path d="m1726.085 859.924 22.715-3.324 27.778 20.94-22.711 3.328z" transform="translate(-1509.766 -720.59)"/>
        <path d="m1549.734 885.768 22.711-3.328 27.778 20.94-22.711 3.328z" transform="translate(-1397.114 -737.099)"/>
    </g>
    <path d="m1380.848 892.924-5.368 8.766 8.349 1.859z" fill="#29427b" transform="translate(-1285.801 -743.796)"/>
    <path d="m1375.593 912.269-.113-.767 21.953-3.217 27.778 20.94-22.711 3.328z" fill="#053c5e"
          transform="translate(-1285.801 -753.609)"/>
</svg>