<svg fill="none" height="230" viewBox="0 0 400 230" width="400" xmlns="http://www.w3.org/2000/svg"
>
    <clipPath id="a">
        <path d="m0 0h400v230h-400z"/>
    </clipPath>
    <g clip-path="url(#a)">
        <path d="m342.998 59.9309v160.4811c0 5.13-4.384 9.29-9.789 9.29h-271.0677c-5.4051 0-9.789-4.158-9.789-9.29v-160.4811c0-5.13 4.3839-9.288 9.789-9.288h271.0677c5.405 0 9.789 4.158 9.789 9.288z"
              fill="#fff"/>
        <path d="m342.998 59.931v17.3545h-290.6457v-17.3545c0-5.1301 4.3839-9.2899 9.789-9.2899h271.0697c5.405 0 9.789 4.158 9.789 9.2899z"
              stroke="#000" stroke-miterlimit="10" stroke-width=".594174"/>
        <path d="m327.299 63.9642c0 2.2864-1.829 4.1378-4.083 4.1378s-4.083-1.8514-4.083-4.1378 1.829-4.1378 4.083-4.1378 4.083 1.8514 4.083 4.1378z"
              fill="#000" stroke="#000" stroke-width=".185679"/>
        <path d="m311.056 63.9642c0 2.2864-1.829 4.1378-4.083 4.1378s-4.083-1.8514-4.083-4.1378 1.829-4.1378 4.083-4.1378 4.083 1.8514 4.083 4.1378z"
              fill="#000" stroke="#000" stroke-width=".185679"/>
        <path d="m293.7 63.9642c0 2.2864-1.829 4.1378-4.083 4.1378s-4.083-1.8514-4.083-4.1378 1.829-4.1378 4.083-4.1378 4.083 1.8514 4.083 4.1378z"
              fill="#000" stroke="#000" stroke-width=".185679"/>
        <path d="m342.998 59.9309v160.4811c0 5.13-4.384 9.29-9.789 9.29h-271.0677c-5.4051 0-9.789-4.158-9.789-9.29v-160.4811c0-5.13 4.3839-9.288 9.789-9.288h271.0677c5.405 0 9.789 4.158 9.789 9.288z"
              stroke="#000" stroke-miterlimit="10" stroke-width=".594174"/>
        <path d="m384.574 164.514h-122.714c-8.327 0-15.077 6.77-15.077 15.12s6.75 15.119 15.077 15.119h122.714c8.327 0 15.077-6.769 15.077-15.119s-6.75-15.12-15.077-15.12z"
              fill="#a7d4fe"/>
        <path d="m384.574 164.514h-122.714c-8.327 0-15.077 6.77-15.077 15.12s6.75 15.119 15.077 15.119h122.714c8.327 0 15.077-6.769 15.077-15.119s-6.75-15.12-15.077-15.12z"
              stroke="#000" stroke-miterlimit="10" stroke-width=".696298"/>
        <path d="m386.965 174.248-10.041 10.07" stroke="#000" stroke-linecap="round" stroke-linejoin="round"
              stroke-width=".696298"/>
        <path d="m386.965 184.318-10.041-10.07" stroke="#000" stroke-linecap="round" stroke-linejoin="round"
              stroke-width=".696298"/>
        <path d="m138.14.350098h-122.7137c-8.3269 0-15.077179 6.769062-15.077179 15.119102 0 8.3501 6.750279 15.1192 15.077179 15.1192h122.7137c8.327 0 15.077-6.7691 15.077-15.1192 0-8.35004-6.75-15.119102-15.077-15.119102z"
              fill="#ffc123"/>
        <path d="m138.14.350098h-122.7137c-8.3269 0-15.077179 6.769062-15.077179 15.119102 0 8.3501 6.750279 15.1192 15.077179 15.1192h122.7137c8.327 0 15.077-6.7691 15.077-15.1192 0-8.35004-6.75-15.119102-15.077-15.119102z"
              stroke="#000" stroke-miterlimit="10" stroke-width=".696298"/>
        <path d="m140.532 10.0831-10.042 10.0683" stroke="#000" stroke-linecap="round" stroke-linejoin="round"
              stroke-width=".696298"/>
        <path d="m140.532 20.1514-10.042-10.0683" stroke="#000" stroke-linecap="round" stroke-linejoin="round"
              stroke-width=".696298"/>
        <path d="m214.055 54.8214-5.892 21.6671c-4.621 7.048-16.451 2.7838-31.229-6.1057 7.152-8.9157 11.117-21.2575 13.356-35.454l23.765 19.8945z"
              fill="#efb6ab"/>
        <path d="m226.035 77.4717c14.29-2.7559 26.495 7.1802 36.139 32.6963l37.709 62.242-31.032 11.031-46.221-73.666 3.403-32.3033z"
              fill="#efb6ab"/>
        <path d="m218.703 117.914.926 1.443 2.479 3.864 5 7.793 1.116 1.739 3.031 4.72.564.881 5.661 8.823.602.936 10.574-7.506 1.894-1.342 4.336-3.078 3.236-2.298 13.663-9.692.343-.246-3.606-6.137-5.035-8.572c-.578-1.53-1.172-3.001-1.777-4.415-.973-2.268-1.98-4.385-3.018-6.3567-.666-1.2625-1.342-2.4654-2.033-3.6105-1.819-3.0185-3.724-5.6291-5.704-7.8487-.069-.0801-.141-.162-.213-.2402-2.713-2.998-5.554-5.2697-8.497-6.8655-.609-.3296-1.224-.6312-1.84-.9012-1.952-.8659-3.946-1.4431-5.964-1.7504-2.756-.419-5.563-.337-8.404.2104l-.169.9218-1.083 5.9754-1.323 7.3142v.0112l-.63 3.4541-1.082 5.9771-2.204 12.147-.842 4.642z"
              fill="#0056d5"/>
        <path d="m218.703 117.914.926 1.443 2.479 3.864 5 7.793 1.116 1.739 2.262 3.523 26.268-41.2505c-.033-.054-.065-.1061-.097-.1601-1.819-3.0185-3.724-5.6291-5.704-7.8487-.068-.0801-.141-.162-.213-.2402-2.713-2.9979-5.554-5.2697-8.497-6.8655-.609-.3296-1.224-.6312-1.84-.9012-1.951-.8659-3.946-1.4431-5.964-1.7504-2.756-.4189-5.563-.337-8.404.2104l-.169.9218-1.082 5.9754-1.324 7.3142v.0112l-.63 3.4541-1.082 5.9775-2.204 12.146-.841 4.642z"
              fill="#0056d5"/>
        <path d="m228.58 52.1885c5.227-1.2374 8.465-6.4906 7.231-11.7333s-6.472-8.4896-11.7-7.2522-8.465 6.4905-7.231 11.7332 6.472 8.4897 11.7 7.2523z"
              fill="#efb6ab"/>
        <path d="m230.89 41.3996c.112 3.2083.301 6.6457 2.249 9.193 1.46 1.9087 3.966 3.6832 3.391 6.0164-.576 2.3332-3.759 2.7522-6.076 2.1414-.752 2.1749-2.848 3.8173-5.134 4.0221s-4.64-1.0353-5.765-3.0408c-1.827.7579-3.963.8882-5.773.0913-1.81-.797-3.214-2.5995-3.287-4.5807-.087-2.3723 1.582-4.3983 3.112-6.2119 6.75-7.9958 12.627-16.485 16.307-26.3503 1.589 5.778.772 12.7459.978 18.7195z"
              fill="#000"/>
        <path d="m187.228 32.2511c-.635-9.0031 6.605-16.7512 14.576-20.0136 6.09-2.49327 13.397-2.2102 18.949 1.3277 4.174 2.6591 7.161 7.2137 7.87 12.1296.35 2.4263.351 5.0127.5 7.4595.18 3.0035.098 6.0368-.353 9.0143-.763 5.0443-2.848 10.1706-6.224 14.0289-4.696 5.3683-11.959 6.2509-18.302 3.469-9.773-4.2865-16.299-17.2465-17.016-27.4135z"
              fill="#efb6ab"/>
        <path d="m214.059 47.2204c-.112-.0466-.221-.0987-.331-.1601-2.219-1.2346-.377-4.605 1.889-3.4561l.026.0131c2.217 1.1247.714 4.5509-1.584 3.6031z"
              fill="#fff"/>
        <path d="m220.731 38.8283v-.0001c-.214-.2574-.259-.6302-.139-1.0378.12-.4069.403-.837.823-1.189.421-.3521.893-.5537 1.314-.599s.779.0663.993.3246v.0001c.215.2573.26.6301.139 1.0378-.12.4068-.403.8369-.823 1.1889-.421.3521-.893.5537-1.314.599s-.779-.0663-.993-.3245z"
              fill="#000" stroke="#000" stroke-width=".185679"/>
        <path d="m211.914 37.9713c.408.1229.781.0795 1.04-.1347s.373-.5741.329-.9988c-.043-.4238-.243-.9004-.592-1.3249zm0 0c-.406-.1228-.835-.409-1.185-.8335m1.185.8335-1.185-.8335m0 0-.072.059m.072-.059-.072.059m0 0 .072-.0589c-.349-.4245-.549-.9011-.592-1.325-.044-.4246.07-.7845.329-.9987.259-.2143.632-.2576 1.04-.1347m-.849 2.5173c.721.8734 1.775 1.1918 2.356.7114l-1.507-3.2287m0 0c.406.1227.835.409 1.185.8334z"
              fill="#000" stroke="#000" stroke-width=".185679"/>
        <path d="m209.376 32.5997c.8-.108 2.399-.3896 3.739-.9156.702-.2754 1.323-.6142 1.723-1.0229.396-.4046.57-.871.4-1.4196v-.0001c-.142-.4595-.538-.7251-1.108-.8477-.571-.1228-1.299-.0967-2.062.0142-1.525.2216-3.161.7765-3.904 1.1034zm0 0v-.0016l-.105.0135c-.68.0873-1.365.1252-1.95-.0758-.584-.2007-1.025-.6852-.979-1.2473v-.0001c.03-.3851.264-.7329.607-1.0362.343-.3026.786-.5521 1.215-.7408z"
              fill="#000" stroke="#000" stroke-width=".185679"/>
        <path d="m222.29 33.0308c-.377-.5748-.715-1.1755-.792-1.7892l3.079-.575c.62.5244 1.837 1.7529 2.708 3.0288.435.6385.779 1.2821.921 1.8509.142.5681.079 1.0421-.27 1.3727-.416.3945-.911.443-1.447.2647-.542-.1801-1.119-.5902-1.675-1.1008-1.109-1.0197-2.104-2.412-2.524-3.0521zm-.792-1.7893c-.077-.615.164-1.2253.685-1.4328l-.034-.0863.034.0864c.358-.142.772-.0854 1.195.0904z"
              fill="#000" stroke="#000" stroke-width=".185679"/>
        <path d="m196.716 39.5561c2.123-.2551 4.05-1.7615 4.815-3.7633.679-1.782.468-3.7707.13-5.6476-.552-3.0762-1.216-5.9699-2.07-8.9753 1.691 2.1079 4.125 3.808 6.823 3.8732.905.0223 1.881-.1788 2.488-.8529.6-.6666.754-1.5306.682-2.4281 1.205 1.6368 2.813 2.9737 4.644 3.8545.772.3724 1.596.6666 2.451.7187.854.0522 1.749-.1564 2.412-.702.811-.6666 1.179-1.6535.919-2.672 1.847 2.2047 4.285 3.9047 6.987 4.8749.83.2979 1.732.5288 2.588.3147 1.534-.3855 2.416-2.1749 2.184-3.7447-1.033-6.9828-6.133-12.2804-12.324-15.63955-6.19-3.35732-14.371-3.32567-19.934.99808-3.693-1.16008-7.58-.77835-10.931 1.16377-3.352 1.9422-5.933 5.0723-7.58 8.5842-1.721 3.672-2.737 8.1075-6.185 10.2302-2.063 1.27-4.733 1.4897-6.504 3.1432-2.306 2.1507-1.911 6.4838.748 8.1783.403.2569.871.4897 1.06.9292.218.5027-.013 1.0706-.105 1.6106-.362 2.1377 1.678 4.0892 3.817 4.4076s4.265-.54 6.224-1.4599c-.375 2.3164 1.959 4.3461 4.26 4.7744 1.632.3035 3.715-.3687 3.988-2.0111.589 2.4077 3.157 4.1506 5.606 3.8005 2.447-.35 4.428-2.7409 4.322-5.2194-.033-.7616-.235-1.5045-.438-2.2382-.557-2.0259-.52-4.0779-1.077-6.1039z"
              fill="#000"/>
        <path d="m217.917 42.4908c.994-.1472 8.085-.4153 5.953-2.661-1.237-1.3034-5.711-.728-7.399-.7169z"
              fill="#efb6ab"/>
        <path d="m217.917 42.4908c.994-.1472 8.085-.4153 5.953-2.661-1.237-1.3034-5.711-.728-7.399-.7169" stroke="#000"
              stroke-linecap="round" stroke-linejoin="round" stroke-width=".549611"/>
        <path d="m199.591 21.1699-.08-11.40147" stroke="#000" stroke-linecap="round" stroke-linejoin="round"
              stroke-width=".549611"/>
        <path d="m135.687 173.331 8.205.665 6.02.488 11.737.952 6.018.487 10.856.879 6.018.488 12.233.993 6.018.488 10.671.865.235-1.13 1.865-8.943 1.242-5.961 2.239-10.752 1.242-5.962 1.018-4.884.804-3.862c.661-.443 1.283-.888 1.864-1.337 1.734-1.33 3.136-2.681 4.252-4.046.416-.509.793-1.019 1.135-1.531 2.315-3.49 2.935-7.076 2.653-10.716-.16-2.05-.605-4.115-1.194-6.19-.902-3.169-2.139-6.357-3.21-9.535l-.179-3.132-.352-6.1081-.637-11.0198-.353-6.1094-.054-.9423-1.938-.6778-5.951-2.0762-5.42-1.89c-2.243 5.9289-5.76 11.4723-11.464 13.8669-5.131 2.1526-11.167 1.242-16.102-1.3351-4.936-2.5734-8.924-6.6513-12.485-10.936-2.022-2.4318-3.941-4.9624-5.705-7.5898l-.666.0186-6.651.1825-2.23 5.0053-2.602 5.8339-.852 1.9123-3.836 8.6121-2.601 5.8358-.244.5474-5.041 11.3137-2.107 4.728-.08 1.149-.776 10.889-.431 6.039-.21 2.918-.529 7.439-.431 6.037-.776 10.889-.431 6.039-.791 11.111z"
              fill="#0056d5"/>
        <path d="m166.967 66.8336c1.764 2.6293 3.682 5.158 5.704 7.5899 3.563 4.2846 7.549 8.3625 12.485 10.9359 4.937 2.5771 10.974 3.4877 16.102 1.3351 5.706-2.3946 9.221-7.9399 11.464-13.8668l-4.757-1.6591-.559-.0987-5.996-1.0614-12.186-2.1563-7.973-1.4115-14.286.3911z"
              fill="#efb6ab"/>
        <path d="m189.228 67.8541 12.184 2.1563 5.996 1.0613.559.0987-.002-.0018z" fill="#efb6ab"/>
        <path d="m234.428 229.7h-109.804c-2.055-14.157.16-28.244 5.162-42.284.056-.154.11-.309.167-.463 1.636-4.548 3.567-9.087 5.734-13.625l23.071 1.869 2.05.166.841.067 6.018.488 45.798 3.711 20.963 50.067z"
              fill="#002e64"/>
        <path d="m159.649 67.0329c-22.172-7.7276-33.929 3.8285-30.771 43.0051l-5.238 61.191 32.736 3.678 4.976-71.696-1.703-36.1762z"
              fill="#efb6ab"/>
        <path d="m122.857 130.522 5.941.486 6.018.496 3.827.312 7.032.576 6.018.491 9.659.792.139-2.676.312-6.048.563-10.908.055-1.102-34.737-31.5366c-.43 1.4953-.796 3.0966-1.095 4.8098-.329 1.8695-.581 3.8712-.75 6.007-.296 3.7-.348 7.8098-.138 12.3378.069 1.518.171 3.08.301 4.691l-.206 1.398-1.599 10.812-.885 5.994-.453 3.068z"
              fill="#0056d5"/>
        <path d="m127.683 81.4044 34.736 31.5366.257-4.948.247-4.784-.689-7.6081-.554-6.13-1.002-11.0532-.554-6.13-.475-5.2548c-1.74-.607-3.431-1.0986-5.073-1.4729-2.089-.4767-4.092-.7597-6.005-.8435-4.136-.175-7.835.5903-10.995 2.4021-1.289.7355-2.489 1.6479-3.59 2.7428-.984.9701-1.89 2.0874-2.712 3.3517-.478.7337-.929 1.5158-1.348 2.3463h-.002c-.875 1.7261-1.625 3.6701-2.243 5.8413z"
              fill="#0056d5"/>
        <path d="m184.398 177.925-5.46 51.777" stroke="#000" stroke-linecap="round" stroke-linejoin="round"
              stroke-width=".549611"/>
        <path d="m246.731 89.3853 19.29 85.4617c5.775 26.196 34.696 22.533 34.78.641l-25.804-88.3484-28.268 2.2457z"
              fill="#efb6ab"/>
        <path d="m257.086 134.574 7.229 30.663" stroke="#000" stroke-linecap="round" stroke-linejoin="round"
              stroke-width=".549611"/>
        <path d="m222.106 138.138c15.387-10.333 9.357-21.907 5.5-33.355l-.834-17.7123" stroke="#000"
              stroke-linecap="round" stroke-linejoin="round" stroke-width=".549611"/>
        <path d="m189.304 47.8051c5.371 0 9.726-4.3668 9.726-9.7536 0-5.3867-4.355-9.7535-9.726-9.7535s-9.726 4.3668-9.726 9.7535c0 5.3868 4.355 9.7536 9.726 9.7536z"
              fill="#efb6ab"/>
        <path d="m195.684 38.0515c0-3.5324-2.856-6.3962-6.378-6.3962-3.523 0-6.378 2.8638-6.378 6.3962" stroke="#000"
              stroke-linecap="round" stroke-linejoin="round" stroke-width=".549611"/>
        <path d="m189.304 31.6553c-.288 4.0556 1.263 7.6661 4.118 10.9602" stroke="#000" stroke-linecap="round"
              stroke-linejoin="round" stroke-width=".549611"/>
        <path d="m275.253 89.1041c.236-2.5175.225-5.0593-.039-7.5861-.59-5.6738-1.99-14.5279-5.16-27.7915-.134-2.7-.607-5.657-2.651-7.4204-1.863-1.6051-4.65-1.7764-6.969-.9683-.288.1006-.57.2142-.847.3389-1.792-1.0055-4.098-1.026-6.068-.3389-.477.1676-.939.3687-1.385.6015-1.84-1.2588-4.362-1.3444-6.489-.6015-.327.1136-.647.2458-.958.3911-1.803-1.0558-4.156-1.0893-6.158-.3911-2.319.81-4.248 2.4561-5.973 4.2102-1.224 1.242-2.375 2.8155-3.446 4.1897l7.121-.0056s-.002.0037-.004.0056h3.318c1.034 12.7031 1.58 29.6051 7.126 36.5898l28.584-1.2253z"
              fill="#efb6ab"/>
        <path d="m255.614 59.592-.075.3557c-.343 1.6535-1.797 2.8397-3.481 2.8397-2.128 0-3.781-1.8621-3.532-3.983l.572-5.0779"
              stroke="#000" stroke-linecap="round" stroke-linejoin="round" stroke-width=".731577"/>
        <path d="m229.557 65.7369c0 1.8695.756 3.5603 1.978 4.7855 1.222 1.2253 2.909 1.9831 4.774 1.9831h4.189c-.977-1.8043-1.532-3.8712-1.532-6.0685 0-2.7894.895-5.3702 2.412-7.4669h-5.069c-3.729 0-6.75 3.0296-6.75 6.7686z"
              fill="#fff"/>
        <path d="m238.964 66.437c0 2.1973.555 4.2642 1.532 6.0685.586 1.0819 1.324 2.0707 2.185 2.9347 2.299 2.3033 5.472 3.7297 8.978 3.7297h15.537c-4.517-2.4933-7.577-7.3124-7.577-12.8483 0-5.536 2.882-10.0683 7.178-12.6193h-15.14c-4.23 0-7.979 2.0743-10.287 5.2659-1.517 2.0986-2.412 4.6776-2.412 7.467z"
              fill="#fff"/>
        <path d="m229.557 65.7369c0 1.8695.756 3.5603 1.978 4.7855 1.222 1.2253 2.909 1.9831 4.774 1.9831h4.189c-.977-1.8043-1.532-3.8712-1.532-6.0685 0-2.7894.895-5.3702 2.412-7.4669h-5.069c-3.729 0-6.75 3.0296-6.75 6.7686z"
              stroke="#000" stroke-linecap="round" stroke-linejoin="round" stroke-width=".731577"/>
        <path d="m238.964 66.437c0 2.1973.555 4.2642 1.532 6.0685.586 1.0819 1.324 2.0707 2.185 2.9347 2.299 2.3033 5.472 3.7297 8.978 3.7297h15.537c-4.517-2.4933-7.577-7.3124-7.577-12.8483 0-5.536 2.882-10.0683 7.178-12.6193h-15.14c-4.23 0-7.979 2.0743-10.287 5.2659-1.517 2.0986-2.412 4.6776-2.412 7.467z"
              stroke="#000" stroke-linecap="round" stroke-linejoin="round" stroke-width=".549611"/>
        <path d="m240.674 52.073-7.592 7.9548c-.767.8044-1.87 1.1936-2.969 1.0521-2.672-.3445-3.966-3.4616-2.329-5.6067l1.967-2.5641"
              stroke="#000" stroke-linecap="round" stroke-linejoin="round" stroke-width=".731577"/>
        <path d="m200.918 65.7369c0 1.8695.756 3.5603 1.978 4.7855 1.221 1.2253 2.909 1.9831 4.774 1.9831h4.188c-.976-1.8043-1.531-3.8712-1.531-6.0685 0-2.7894.895-5.3702 2.412-7.4669h-5.069c-3.729 0-6.75 3.0296-6.75 6.7686z"
              fill="#fff"/>
        <path d="m210.325 66.437c0 2.1973.555 4.2642 1.532 6.0685.586 1.0819 1.323 2.0707 2.185 2.9347 2.299 2.3033 5.472 3.7297 8.978 3.7297h15.537c-4.517-2.4933-7.577-7.3124-7.577-12.8483 0-5.536 2.881-10.0683 7.178-12.6193h-15.14c-4.23 0-7.979 2.0743-10.287 5.2659-1.517 2.0986-2.412 4.6776-2.412 7.467z"
              stroke="#000" stroke-linecap="round" stroke-linejoin="round" stroke-width=".549611"/>
        <path d="m200.918 65.7369c0 1.8695.756 3.5603 1.978 4.7855 1.221 1.2253 2.909 1.9831 4.774 1.9831h4.188c-.976-1.8043-1.531-3.8712-1.531-6.0685 0-2.7894.895-5.3702 2.412-7.4669h-5.069c-3.729 0-6.75 3.0296-6.75 6.7686z"
              fill="#fff"/>
        <path d="m210.325 66.437c0 2.1973.555 4.2642 1.532 6.0685.586 1.0819 1.323 2.0707 2.185 2.9347 2.299 2.3033 5.472 3.7297 8.978 3.7297h15.537c-4.517-2.4933-7.577-7.3124-7.577-12.8483 0-5.536 2.881-10.0683 7.178-12.6193h-15.14c-4.23 0-7.979 2.0743-10.287 5.2659-1.517 2.0986-2.412 4.6776-2.412 7.467z"
              fill="#fff"/>
        <path d="m200.918 65.7369c0 1.8695.756 3.5603 1.978 4.7855 1.221 1.2253 2.909 1.9831 4.774 1.9831h4.188c-.976-1.8043-1.531-3.8712-1.531-6.0685 0-2.7894.895-5.3702 2.412-7.4669h-5.069c-3.729 0-6.75 3.0296-6.75 6.7686z"
              stroke="#000" stroke-linecap="round" stroke-linejoin="round" stroke-width=".549611"/>
        <path d="m210.325 66.437c0 2.1973.555 4.2642 1.532 6.0685.586 1.0819 1.323 2.0707 2.185 2.9347 2.299 2.3033 5.472 3.7297 8.978 3.7297h15.537c-4.517-2.4933-7.577-7.3124-7.577-12.8483 0-5.536 2.881-10.0683 7.178-12.6193h-15.14c-4.23 0-7.979 2.0743-10.287 5.2659-1.517 2.0986-2.412 4.6776-2.412 7.467z"
              stroke="#000" stroke-linecap="round" stroke-linejoin="round" stroke-width=".549611"/>
        <path d="m264.753 49.7286-2.121 10.2191c-.343 1.6535-1.797 2.8397-3.481 2.8397-2.128 0-3.78-1.8621-3.532-3.983.342-4.3107.695-8.5861 1.757-10.5468l7.377 1.4691z"
              fill="#efb6ab"/>
        <path d="m259.589 45.6786c-.284.1657-.468.4096-.722.6275-2.044 1.7615-2.52 4.7185-2.652 7.4204" stroke="#000"
              stroke-linecap="round" stroke-linejoin="round" stroke-width=".549611"/>
        <path d="m252.136 45.9393c-2.044 1.7616-2.904 5.0854-3.036 7.7872" stroke="#000" stroke-linecap="round"
              stroke-linejoin="round" stroke-width=".549611"/>
        <path d="m243.877 46.3062c-2.044 1.7615-2.52 4.7185-2.651 7.4203" stroke="#000" stroke-linecap="round"
              stroke-linejoin="round" stroke-width=".549611"/>
        <path d="m264.753 49.7286-2.121 10.2191c-.343 1.6535-1.797 2.8397-3.481 2.8397-2.128 0-3.78-1.8621-3.532-3.983l.596-5.0779"
              stroke="#000" stroke-linecap="round" stroke-linejoin="round" stroke-width=".549611"/>
        <path d="m255.614 59.592-.075.3557c-.343 1.6535-1.797 2.8397-3.481 2.8397-2.128 0-3.781-1.8621-3.532-3.983l.572-5.0779"
              stroke="#000" stroke-linecap="round" stroke-linejoin="round" stroke-width=".731577"/>
        <path d="m266.801 53.7023c2.178-1.2942 4.722-2.0371 7.436-2.0371h5.994c8.072 0 14.615 6.5619 14.615 14.6564 0 8.0944-6.543 14.6564-14.615 14.6564h-5.994c-2.551 0-4.95-.6555-7.037-1.8081-4.517-2.4933-7.577-7.3124-7.577-12.8483 0-5.536 2.881-10.0683 7.178-12.6193z"
              fill="#fff"/>
        <path d="m265.615 66.3216c0 7.0647 4.983 12.9619 11.617 14.3473.968.2029 1.971.3091 2.997.3091 8.072 0 14.615-6.562 14.615-14.6564 0-8.0945-6.543-14.6564-14.615-14.6564-1.026 0-2.029.1061-2.997.3091-6.634 1.3854-11.617 7.2826-11.617 14.3473z"
              stroke="#000" stroke-linecap="round" stroke-linejoin="round" stroke-width=".549611"/>
        <path d="m259.623 66.3216c0 5.5359 3.06 10.355 7.577 12.8483 2.087 1.1526 4.486 1.8081 7.037 1.8081h5.994c-1.027 0-2.029-.1062-2.997-.3091-1.435-.2998-2.794-.8119-4.04-1.499-4.516-2.4933-7.576-7.3124-7.576-12.8483 0-5.536 2.882-10.0683 7.179-12.6193 1.353-.8044 2.848-1.3947 4.437-1.728.968-.203 1.97-.3091 2.997-.3091h-5.994c-2.714 0-5.258.7429-7.436 2.0371-4.297 2.551-7.178 7.2472-7.178 12.6193z"
              stroke="#000" stroke-linecap="round" stroke-linejoin="round" stroke-width=".549611"/>
        <path d="m292.215 66.3216c0 6.6387-5.366 12.02-11.986 12.02-6.619 0-11.985-5.3813-11.985-12.02s5.366-12.02 11.985-12.02c6.62 0 11.986 5.3813 11.986 12.02z"
              fill="#000" stroke="#000" stroke-width=".185679"/>
        <path d="m249.098 53.2535-1.389 6.6942c-.343 1.6535-1.797 2.8397-3.481 2.8397-2.128 0-3.781-1.8621-3.532-3.983l.528-5.0779"
              stroke="#000" stroke-linecap="round" stroke-linejoin="round" stroke-width=".731577"/>
        <path d="m124.166 170.179 20.536-27.069 51.091-62.7055 27.318 9.9249-13.044 15.0546-50.379 71.571c-10.949 22.771-39.368 14.299-35.524-6.778z"
              fill="#efb6ab"/>
        <path d="m194.566 81.518c.591-5.6738 1.991-14.5279 5.16-27.7915.134-2.7.607-5.657 2.652-7.4204 1.862-1.6051 4.649-1.7764 6.968-.9683.288.1006.57.2142.847.3389 1.792-1.0055 4.098-1.026 6.068-.3389.477.1676.939.3687 1.385.6015 1.84-1.2588 4.362-1.3444 6.49-.6015.326.1136.646.2458.958.3911 1.803-1.0558 4.155-1.0893 6.157-.3911 2.319.81 4.248 2.4561 5.973 4.2102 1.224 1.242 2.375 2.8155 3.446 4.1897l-7.119-.0056s.002.0037.004.0056h-3.318c-1.034 12.7031-1.58 29.6051-7.126 36.5898l-28.545-8.8114z"
              fill="#efb6ab"/>
        <g stroke="#000">
            <path d="m225.092 45.7289c-.284.1657-.555.3594-.81.5772-2.044 1.7615-2.519 4.7185-2.651 7.4204"
                  stroke-linecap="round" stroke-linejoin="round" stroke-width=".731577"/>
            <path d="m225.094 45.7289c-.312-.1452-.632-.2756-.958-.391-2.319-.81-5.107-.6369-6.969.9682-2.044 1.7616-2.52 4.7185-2.651 7.4204"
                  stroke-linecap="round" stroke-linejoin="round" stroke-width=".731577"/>
            <path d="m217.583 45.9058c-.427-.2179-.867-.4097-1.322-.5679-2.319-.81-5.106-.6369-6.969.9682-2.044 1.7616-2.519 4.7185-2.651 7.4204"
                  stroke-linecap="round" stroke-linejoin="round" stroke-width=".731577"/>
            <path d="m240.672 53.7395c-1.071-1.3761-2.224-2.9476-3.446-4.1897-1.725-1.7522-3.654-3.4001-5.973-4.2101-2.004-.6983-4.355-.6648-6.158.391-.311-.1452-.631-.2774-.958-.391-2.128-.743-4.649-.6573-6.489.6014-.446-.2309-.908-.4338-1.385-.6014-1.97-.6871-4.276-.6666-6.068.3389-.277-.1248-.559-.2384-.847-.3389-2.319-.81-5.106-.6368-6.969.9683-2.044 1.7615-2.519 4.7185-2.651 7.4203-3.17 13.2636-4.57 22.1178-5.16 27.7915l-4.371 5.6235"
                  stroke-linecap="round" stroke-linejoin="round" stroke-width=".549611"/>
            <path d="m225.092 45.7289c-.284.1657-.555.3594-.81.5772-2.044 1.7615-2.519 4.7185-2.651 7.4204"
                  stroke-linecap="round" stroke-linejoin="round" stroke-width=".549611"/>
            <path d="m225.094 45.7289c-.312-.1452-.632-.2756-.958-.391-2.319-.81-5.107-.6369-6.969.9682-2.044 1.7616-2.52 4.7185-2.651 7.4204"
                  stroke-linecap="round" stroke-linejoin="round" stroke-width=".549611"/>
            <path d="m217.583 45.9058c-.427-.2179-.867-.4097-1.322-.5679-2.319-.81-5.106-.6369-6.969.9682-2.044 1.7616-2.519 4.7185-2.651 7.4204"
                  stroke-linecap="round" stroke-linejoin="round" stroke-width=".549611"/>
            <path d="m230.237 53.7358v-2.4263" stroke-linecap="round" stroke-linejoin="round" stroke-width=".731577"/>
        </g>
        <path d="m238.162 53.7023c2.178-1.2942 4.722-2.0371 7.436-2.0371h5.994c8.071 0 14.615 6.5619 14.615 14.6564 0 8.0944-6.544 14.6564-14.615 14.6564h-5.994c-2.551 0-4.95-.6555-7.037-1.8081-4.518-2.4933-7.578-7.3124-7.578-12.8483 0-5.536 2.882-10.0683 7.179-12.6193z"
              fill="#fff"/>
        <path d="m236.977 66.3216c0 7.0647 4.984 12.9619 11.618 14.3473.967.2029 1.97.3091 2.997.3091 8.071 0 14.615-6.562 14.615-14.6564 0-8.0945-6.544-14.6564-14.615-14.6564-1.027 0-2.03.1061-2.997.3091-6.634 1.3854-11.618 7.2826-11.618 14.3473z"
              stroke="#000" stroke-linecap="round" stroke-linejoin="round" stroke-width=".549611"/>
        <path d="m230.983 66.3216c0 5.5359 3.06 10.355 7.578 12.8483 2.087 1.1526 4.486 1.8081 7.037 1.8081h5.994c-1.027 0-2.03-.1062-2.997-.3091-1.435-.2998-2.794-.8119-4.04-1.499-4.516-2.4933-7.576-7.3124-7.576-12.8483 0-5.536 2.882-10.0683 7.178-12.6193 1.354-.8044 2.849-1.3947 4.438-1.728.967-.203 1.97-.3091 2.997-.3091h-5.994c-2.714 0-5.258.7429-7.436 2.0371-4.297 2.551-7.179 7.2472-7.179 12.6193z"
              stroke="#000" stroke-linecap="round" stroke-linejoin="round" stroke-width=".549611"/>
        <path d="m263.576 66.3216c0 6.6387-5.367 12.02-11.986 12.02s-11.985-5.3813-11.985-12.02 5.366-12.02 11.985-12.02 11.986 5.3813 11.986 12.02z"
              fill="#000" stroke="#000" stroke-width=".185679"/>
        <path d="m238.162 53.7023-7.925.0334" stroke="#000" stroke-linecap="round" stroke-linejoin="round"
              stroke-width=".549611"/>
        <path d="m234.428 229.7h-109.804" stroke="#000" stroke-linecap="round" stroke-linejoin="round"
              stroke-width=".549611"/>
        <path d="m18.3819 159.142-13.19771.906c-.97972-5.865.00251-10.951 2.94094-15.253 2.94067-4.302 7.75327-7.091 14.43867-8.366 7.0555-1.344 12.5102-.669 16.3663 2.025 3.856 2.694 6.2036 6.243 7.0419 10.645.6542 3.425.4265 6.443-.6776 9.053s-3.2214 5.66-6.3518 9.15c-2.2082 2.479-3.4914 4.283-3.8516 5.409-.3593 1.128-.2793 3.058.2422 5.79l-12.0962 2.305-.3711-1.943c-.6855-3.595-.9506-6.222-.7955-7.876.1552-1.653 1.5025-4.035 4.0431-7.144 2.1182-2.581 3.5137-4.717 4.1832-6.409.6695-1.693.8048-3.589.4049-5.69-.3675-1.928-1.2293-3.255-2.5854-3.98-1.3584-.724-2.8266-.938-4.4048-.637-4.8733.928-6.6496 4.936-5.3331 12.019zm4.9758 26.111 13.5061-2.576 2.394 12.56-13.5061 2.575z"
              fill="#0056d5"/>
        <path d="m375.692 90.5059-5.781-3.9144c1.499-2.7563 3.561-4.5534 6.181-5.3848 2.621-.8336 5.528-.4277 8.722 1.2155 3.371 1.7335 5.418 3.7893 6.146 6.1611.726 2.3739.55 4.611-.534 6.7143-.843 1.6368-1.917 2.8156-3.224 3.5441-1.31.7272-3.18 1.3063-5.616 1.7393-1.725.312-2.843.645-3.36.996-.516.351-1.11 1.18-1.781 2.487l-5.778-2.973.477-.926c.884-1.7179 1.628-2.8953 2.23-3.5349.602-.6361 1.937-1.1892 4.004-1.6569 1.718-.3835 2.994-.8201 3.824-1.3055.828-.4867 1.503-1.2315 2.018-2.2348.473-.9202.547-1.7527.22-2.4954-.328-.7427-.869-1.3078-1.625-1.6953-2.328-1.1969-4.37-.1098-6.125 3.2624zm-6.418 12.4741 6.453 3.32-3.088 5.998-6.452-3.32z"
              fill="#000"/>
        <path d="m353.6 42.7384-10.6-2.6724c.754-4.7894 2.845-8.4705 6.269-11.0482 3.426-2.5753 7.93-3.5043 13.51-2.7795 5.89.7646 9.999 2.6799 12.328 5.7507 2.329 3.0709 3.252 6.4158 2.769 10.0346-.377 2.8168-1.338 5.0932-2.881 6.8291-1.545 1.7385-4 3.5566-7.363 5.4544-2.38 1.3524-3.854 2.4183-4.43 3.1979-.574.7795-1.012 2.2938-1.313 4.5403l-10.097-1.3075.213-1.5965c.394-2.9563.867-5.0559 1.418-6.2962s2.228-2.7371 5.03-4.493c2.334-1.4545 3.985-2.7521 4.948-3.8903.966-1.1382 1.563-2.5702 1.793-4.2987.213-1.584-.121-2.8318-.999-3.7408-.877-.9091-1.975-1.4471-3.292-1.6189-4.069-.528-6.504 2.117-7.308 7.935zm-2.867 21.4712 11.275 1.462-1.381 10.3284-11.275-1.462z"
              stroke="#000" stroke-linecap="round" stroke-linejoin="round" stroke-width=".518888"/>
    </g>
</svg>