<svg width="48" height="48" viewBox="0 0 48 48" fill="none" xmlns="http://www.w3.org/2000/svg">
    <path d="M40.211 7H26.3235C25.2189 7 24.3235 7.89543 24.3235 9V39.2705C24.3235 40.3751 25.2189 41.2705 26.3235 41.2705H40.211C41.3156 41.2705 42.211 40.3751 42.211 39.2705V9C42.211 7.89543 41.3156 7 40.211 7Z"
          fill="#7CA7EE"/>
    <path d="M17.6935 39.2704C17.6935 40.375 16.7981 41.2704 15.6935 41.2704H12.63C11.5254 41.2704 10.63 40.375 10.63 39.2704V35.4309C10.63 34.4942 11.0021 33.5959 11.6644 32.9336C12.3268 32.2713 13.2251 31.8992 14.1618 31.8992C15.0984 31.8992 15.9967 32.2713 16.6591 32.9336C17.3214 33.5959 17.6935 34.4942 17.6935 35.4309V39.2704Z"
          fill="#387AE5"/>
    <path fill-rule="evenodd" clip-rule="evenodd"
          d="M26 8C25.4477 8 25 8.44772 25 9V39C25 39.5523 25.4477 40 26 40H41C41.5523 40 42 39.5523 42 39V36.2672C42 35.7149 42.4477 35.2672 43 35.2672C43.5523 35.2672 44 35.7149 44 36.2672V39C44 40.6569 42.6569 42 41 42H26C24.3431 42 23 40.6569 23 39V9C23 7.34315 24.3431 6 26 6H41C42.6569 6 44 7.34315 44 9V25.354C44 25.9063 43.5523 26.354 43 26.354C42.4477 26.354 42 25.9063 42 25.354V9C42 8.44772 41.5523 8 41 8H26Z"
          fill="#444B54"/>
    <path fill-rule="evenodd" clip-rule="evenodd"
          d="M43 28C43.5523 28 44 28.4477 44 29L44 33C44 33.5523 43.5523 34 43 34C42.4477 34 42 33.5523 42 33L42 29C42 28.4477 42.4477 28 43 28Z"
          fill="#444B54"/>
    <path d="M28.2476 13.4454C28.2476 14.2125 28.8702 14.8344 29.6373 14.8344C30.4044 14.8344 31.0271 14.2125 31.0271 13.4454C31.0271 12.6783 30.4044 12.0564 29.6373 12.0564C28.8702 12.0564 28.2476 12.6783 28.2476 13.4454Z"
          fill="white"/>
    <path d="M35.509 13.4454C35.509 14.2125 36.1317 14.8344 36.8988 14.8344C37.6659 14.8344 38.2885 14.2125 38.2885 13.4454C38.2885 12.6783 37.6659 12.0564 36.8988 12.0564C36.1317 12.0564 35.509 12.6783 35.509 13.4454Z"
          fill="white"/>
    <path d="M28.2476 20.5704C28.2476 21.3375 28.8702 21.9594 29.6373 21.9594C30.4044 21.9594 31.0271 21.3375 31.0271 20.5704C31.0271 19.8033 30.4044 19.1814 29.6373 19.1814C28.8702 19.1814 28.2476 19.8033 28.2476 20.5704Z"
          fill="white"/>
    <path d="M35.509 20.5704C35.509 21.3375 36.1317 21.9594 36.8988 21.9594C37.6659 21.9594 38.2885 21.3375 38.2885 20.5704C38.2885 19.8033 37.6659 19.1814 36.8988 19.1814C36.1317 19.1814 35.509 19.8033 35.509 20.5704Z"
          fill="white"/>
    <path d="M28.2476 27.697C28.2476 28.4641 28.8702 29.086 29.6373 29.086C30.4044 29.086 31.0271 28.4641 31.0271 27.697C31.0271 26.9299 30.4044 26.308 29.6373 26.308C28.8702 26.308 28.2476 26.9299 28.2476 27.697Z"
          fill="white"/>
    <path d="M35.509 27.697C35.509 28.4641 36.1317 29.086 36.8988 29.086C37.6659 29.086 38.2885 28.4641 38.2885 27.697C38.2885 26.9299 37.6659 26.308 36.8988 26.308C36.1317 26.308 35.509 26.9299 35.509 27.697Z"
          fill="white"/>
    <path d="M28.2476 34.8234C28.2476 35.5906 28.8702 36.2124 29.6373 36.2124C30.4044 36.2124 31.0271 35.5906 31.0271 34.8234C31.0271 34.0563 30.4044 33.4344 29.6373 33.4344C28.8702 33.4344 28.2476 34.0563 28.2476 34.8234Z"
          fill="white"/>
    <path d="M35.509 34.8234C35.509 35.5906 36.1317 36.2124 36.8988 36.2124C37.6659 36.2124 38.2885 35.5906 38.2885 34.8234C38.2885 34.0563 37.6659 33.4344 36.8988 33.4344C36.1317 33.4344 35.509 34.0563 35.509 34.8234Z"
          fill="white"/>
    <path fill-rule="evenodd" clip-rule="evenodd"
          d="M12.3324 22.9122C13.3417 22.2373 14.6583 22.2373 15.6676 22.9122L23.6676 28.2617C24.5002 28.8185 25 29.754 25 30.7555V39.0001C25 40.6569 23.6569 42.0001 22 42.0001H6C4.34314 42.0001 3 40.6569 3 39.0001V30.7555C3 29.754 3.49983 28.8185 4.33241 28.2617L12.3324 22.9122ZM14.5559 24.5747C14.2194 24.3498 13.7806 24.3498 13.4441 24.5747L5.44413 29.9243C5.16661 30.1098 5 30.4217 5 30.7555V39.0001C5 39.5523 5.44772 40.0001 6 40.0001H22C22.5523 40.0001 23 39.5523 23 39.0001V30.7555C23 30.4217 22.8334 30.1098 22.5559 29.9243L14.5559 24.5747Z"
          fill="#444B54"/>
</svg>
