<?xml version="1.0" encoding="UTF-8"?>
<svg width="36px" height="41px" viewBox="0 0 36 41" version="1.1" xmlns="http://www.w3.org/2000/svg"
>
    <title>Path</title>
    <g id="Page-1" stroke="none" stroke-width="1" fill="none" fill-rule="evenodd">
        <g id="guarantee" fill-rule="nonzero">
            <path d="M28.6805747,4.94081822 C26.7911818,4.95163732 24.923273,4.54676538 23.2138858,3.7558815 C21.5044986,2.96499762 19.9969655,1.80817344 18.8017418,0.37024837 C18.626834,0.164268042 18.3769136,0.0334475669 18.1053877,0.00557871651 C17.8337405,-0.0222901584 17.5617291,0.0549882326 17.3472515,0.220997355 C17.2893535,0.262915265 17.2382527,0.31313231 17.1956485,0.369966877 C16.0001821,1.803743 14.494591,2.95785016 12.7884811,3.74844031 C11.0823347,4.5390427 9.21837078,4.94626449 7.3320366,4.94053673 L1.43940281,4.94053673 C1.05839263,4.94289882 0.693670364,5.09266508 0.424247978,5.3574027 C0.154825593,5.62214031 0.00239967228,5.98051702 0,6.35491434 L0,15.5413254 C0,31.8139194 13.3333536,39.5856836 18.0000303,41 C22.6665857,39.5856836 36,31.7992328 36,15.5413254 L36,6.35519583 C35.9975724,5.98079852 35.8451198,5.6224218 35.5757787,5.35768419 C35.3063163,5.09294658 34.941571,4.94318031 34.5605608,4.94081822 L28.6805747,4.94081822 Z"
                  id="Path" fill="#387AE5"></path>
            <path d="M25.0285301,22.6712149 L21.5532744,20.0651253 L21.6223584,20.569054 C21.6556073,20.7740786 21.6722318,20.9813811 21.6721087,21.1889235 C21.6717392,21.3691293 21.6597942,21.5492152 21.6362737,21.7279821 L24.2074038,23.6576106 C24.4460575,23.8227093 24.6130412,24.0686189 24.6755985,24.3472604 C24.7381558,24.6260218 24.6917304,24.9173725 24.545435,25.164481 C24.3991395,25.4115895 24.1635645,25.5965911 23.8847657,25.6832769 C23.6058439,25.7699628 23.303894,25.752098 23.0379023,25.6331598 L19.1673533,24.0726954 C19.6915787,23.7849417 20.127879,23.3664998 20.4315528,22.860293 C20.7351036,22.3539664 20.8951912,21.7780993 20.8953143,21.1916812 C20.8945755,20.9809016 20.8742567,20.7707214 20.834481,20.5636587 L19.9525215,14.0954346 C19.8750637,13.5159705 19.5838274,12.983746 19.1333655,12.5981561 C18.6829036,12.2125661 18.103879,12 17.5044125,12 C16.904946,12 16.3259214,12.2125661 15.8754595,12.5981561 C15.4249976,12.983746 15.1338844,13.5159705 15.0563035,14.0954346 L14.4785104,18.3321285 L14.8904281,18.0221938 C15.0566729,17.8919852 15.2332619,17.7748455 15.4184709,17.6718537 C15.5758494,17.5837291 15.7382767,17.5044769 15.9050141,17.4346966 L16.3335563,14.3003392 C16.3618795,14.0170217 16.4973383,13.7542066 16.7134565,13.5629703 C16.929698,13.371734 17.2110827,13.2658646 17.5030579,13.2658646 C17.7949099,13.2658646 18.0764178,13.371734 18.2926592,13.5629703 C18.5087775,13.7542066 18.6442363,14.0170217 18.6725595,14.3003392 L19.2254774,18.3429193 C18.6076624,17.9894618 17.8910856,17.8352738 17.17808,17.9025362 C16.4650745,17.9699185 15.7920908,18.2551544 15.2554279,18.7174787 L9.97208111,22.6793679 C9.49462597,23.0341443 9.16616314,23.5464658 9.04816625,24.1202947 C8.93015706,24.6941235 9.03070439,25.2902533 9.33097949,25.7970596 C9.63125459,26.3038658 10.11068,26.6865783 10.6795329,26.8737381 C11.248398,27.060778 11.8677277,27.0394363 12.4216309,26.8135496 L16.4718474,25.1830651 L15.9907226,24.9890711 C15.7935685,24.9129363 15.6023254,24.8227734 15.4184709,24.7195418 C15.2604768,24.6310575 15.1090093,24.5320223 14.9650536,24.4230355 L11.962672,25.6331598 C11.6966803,25.752098 11.3946565,25.7699628 11.1158332,25.6832769 C10.8370098,25.5965911 10.6013978,25.4115895 10.455127,25.164481 C10.3088439,24.9173725 10.2624308,24.6260218 10.3249511,24.3472604 C10.3874838,24.0686189 10.5544552,23.8227093 10.7931828,23.6576106 L14.1108014,21.167342 C14.1108014,21.167342 14.1108014,21.1835281 14.1108014,21.1916812 C14.1114172,21.8664636 14.3234717,22.5249401 14.7187649,23.078866 C15.1141813,23.6329118 15.6737491,24.0557899 16.3224733,24.2910285 L22.5844849,26.8055165 C23.1381417,27.0296047 23.7564494,27.0496275 24.3241446,26.8619881 C24.8918399,26.6742288 25.3701325,26.2916363 25.6696194,25.7854295 C25.9692296,25.2792228 26.0695922,24.684172 25.9521125,24.1111824 C25.8346328,23.538073 25.5073152,23.0263509 25.0312393,22.6712149 L25.0285301,22.6712149 Z M15.3963041,21.1835281 C15.3969207,20.7795938 15.5203113,20.3848917 15.7508374,20.0492989 C15.9814867,19.7137061 16.3089275,19.4523298 16.6919063,19.2981418 C17.0748851,19.1438338 17.4961618,19.1037881 17.9025381,19.1829204 C18.3087911,19.2620527 18.6820416,19.4568859 18.9747556,19.7427213 C19.2675928,20.0284367 19.4669634,20.3924452 19.5474998,20.788706 C19.6281593,21.184847 19.5865366,21.5954955 19.4278035,21.9686162 C19.2690705,22.3417369 19.0004928,22.6606639 18.655935,22.8849919 C18.3113772,23.1094398 17.9063555,23.2290974 17.4919749,23.2290974 C17.2165011,23.2290974 16.9438596,23.1762226 16.6894434,23.0733507 C16.4349041,22.9704787 16.2037622,22.8197677 16.0091942,22.6298503 C15.814503,22.4398129 15.6602032,22.2142859 15.555038,21.9660984 C15.4499959,21.7180307 15.3960587,21.4520983 15.3963041,21.1835281 Z"
                  id="Shape" fill="#FFFFFF"></path>
            <path d="M18.0151516,38.9991952 C17.9197404,39.0007963 17.8253103,38.9803512 17.73971,38.9392147 C14.330537,37.4748034 11.2702282,35.3317625 8.75368981,32.6464337 C4.33072973,28.0643906 1.90868276,21.9743364 2.00263461,15.671456 L2.00263461,7.86464127 C2.00184973,7.67623841 2.07695235,7.49512682 2.21165631,7.36054632 C2.34634801,7.22596581 2.5298,7.14874244 2.72227804,7.1456141 L7.22307553,7.1456141 C11.039831,7.17241442 14.7197854,5.75566732 17.4949274,3.19101392 C17.6301955,3.06823245 17.8078959,3 17.9924638,3 C18.1769092,3 18.3546095,3.06823245 18.4900003,3.19101392 C21.2650197,5.75603681 24.9450967,7.17310414 28.7620361,7.14646392 L33.2627968,7.14646392 C33.4553362,7.14570031 33.6403947,7.21919183 33.7778702,7.3510258 C33.9154684,7.48284745 33.9943237,7.66240718 33.9975123,7.85077308 L33.9975123,15.671456 C34.0887539,21.9738437 31.6670503,28.0629126 27.2464939,32.6464337 C24.7299922,35.3317625 21.6695976,37.4748034 18.2604247,38.9392147 C18.1869654,38.9835535 18.1012424,39.0044912 18.0151516,38.9991952 Z M3.45579166,8.56980025 L3.45579166,15.6864819 C3.36497931,21.6261538 5.6440934,27.3663012 9.80887905,31.6876077 C12.1186645,34.1404042 14.9023912,36.1208696 17.9989636,37.514462 C21.1000735,36.1285057 23.8851492,34.147055 26.1889991,31.6876077 C30.3537357,27.3663012 32.632813,21.6261538 32.5420619,15.6864819 L32.5420619,8.56980025 L28.7609324,8.56980025 C24.8039421,8.59762284 20.9722863,7.21266418 17.983634,4.67430613 C15.0023399,7.22500514 11.1656438,8.61176198 7.20602905,8.56980025 L3.45579166,8.56980025 Z"
                  id="Shape" fill="#FFFFFF"></path>
        </g>
    </g>
</svg>