<svg width="48" height="48" viewBox="0 0 48 48" fill="none" xmlns="http://www.w3.org/2000/svg">
    <path d="M39.4556 6.77906C39.8677 6.69577 40.3003 6.79364 40.6517 7.04993C40.6686 7.06657 40.6864 7.08247 40.705 7.09757C41.0474 7.3752 41.25 7.79987 41.25 8.25163V18.3761C41.25 19.0182 40.9039 19.6576 40.2309 20.1622C39.5577 20.6668 38.5942 21.001 37.5 21.001C36.4058 21.001 35.4423 20.6668 34.7691 20.1622C34.0961 19.6576 33.75 19.0182 33.75 18.3761C33.75 17.734 34.0961 17.0947 34.7691 16.5901C35.4423 16.0855 36.4058 15.7513 37.5 15.7513C37.9142 15.7513 38.25 15.4155 38.25 15.0013V10.9937C38.25 10.769 38.1493 10.5561 37.9755 10.4137C37.8017 10.2712 37.5732 10.2142 37.3529 10.2582L30.6029 11.6082C30.2523 11.6783 30 11.9861 30 12.3436V20.626C30 21.2681 29.6539 21.9075 28.9809 22.4121C28.3077 22.9167 27.3442 23.2509 26.25 23.2509C25.1558 23.2509 24.1923 22.9167 23.5191 22.4121C22.8461 21.9075 22.5 21.2681 22.5 20.626C22.5 19.9839 22.8461 19.3446 23.5191 18.84C24.1923 18.3354 25.1558 18.0012 26.25 18.0012C26.6642 18.0012 27 17.6654 27 17.2512V10.5015C27 9.78425 27.5062 9.16994 28.2047 9.02913C28.2048 9.02911 28.2049 9.02908 28.2051 9.02906L39.4541 6.77936L39.4556 6.77906ZM11.2523 28.1257C11.5038 28.1257 11.7385 27.9997 11.8775 27.7901L12.7071 26.5386C12.9811 26.1254 13.4478 25.8758 13.9523 25.8758H18.2906C18.7951 25.8758 19.2619 26.1254 19.5358 26.5386L19.5374 26.5411L20.3742 27.7926C20.5133 28.0007 20.7472 28.1257 20.9977 28.1257H24C24.8304 28.1257 25.5 28.7954 25.5 29.6256V39.7501C25.5 40.5803 24.8304 41.25 24 41.25H8.25C7.41965 41.25 6.75 40.5803 6.75 39.7501V29.6256C6.75 28.7954 7.41965 28.1257 8.25 28.1257H11.2523ZM20.25 34.6879C20.25 33.5939 19.8154 32.5447 19.0418 31.7711C18.2682 30.9976 17.219 30.563 16.125 30.563C15.031 30.563 13.9818 30.9976 13.2082 31.7711C12.4346 32.5447 12 33.5939 12 34.6879C12 35.7818 12.4346 36.831 13.2082 37.6046C13.9818 38.3781 15.031 38.8127 16.125 38.8127C17.219 38.8127 18.2682 38.3781 19.0418 37.6046C19.8154 36.831 20.25 35.7818 20.25 34.6879Z"
          stroke="#444B54" stroke-width="1.5" stroke-linejoin="round"/>
    <path d="M15.8257 21.4103L22.6021 14.3856C24.5703 12.3464 24.4649 8.97828 22.2857 7.07973C20.3175 5.42729 17.4424 5.74372 15.6851 7.53679L15.0173 8.27511L14.3144 7.53679C12.557 5.74372 9.64681 5.42729 7.74886 7.07973C5.53459 8.97828 5.42915 12.3464 7.39739 14.3856L14.2089 21.4103C14.6307 21.8673 15.3688 21.8673 15.8257 21.4103Z"
          fill="#387AE5"/>
    <path d="M39.3829 24.2148C38.9767 23.9054 38.4147 23.9335 38.0356 24.2781L29.3692 32.154C29.0307 32.4634 28.9088 32.9557 29.0713 33.3987C29.2338 33.8417 29.6333 34.1301 30.0869 34.1301H33.8581L31.2582 40.4378C31.0619 40.9231 31.2108 41.4856 31.6171 41.788C32.0233 42.0904 32.5853 42.0693 32.9644 41.7247L41.6308 33.8488C41.9693 33.5394 42.0912 33.0471 41.9287 32.6041C41.7662 32.1611 41.3667 31.8727 40.9131 31.8727H37.1419L39.7418 25.565C39.9381 25.0797 39.7892 24.5172 39.3829 24.2148Z"
          fill="#7CA7EE"/>
</svg>
