<svg width="600" height="164" viewBox="0 0 600 164" fill="none" xmlns="http://www.w3.org/2000/svg">
    <g clip-path="url(#clip0_321_53971)">
        <circle cx="64.0297" cy="83.3217" r="55.9701" fill="#A7D4FE"/>
        <mask id="mask0_321_53971" style="mask-type:alpha" maskUnits="userSpaceOnUse" x="8" y="27" width="112"
              height="113">
            <circle cx="64.0297" cy="83.3217" r="55.9701" fill="#D9D9D9"/>
        </mask>
        <g mask="url(#mask0_321_53971)">
            <path d="M80.6773 80.761C81.0206 78.537 81.4365 76.1409 80.8687 73.8904C80.2547 71.4479 78.4722 69.7799 76.0757 69.1114C75.5739 68.9724 75.0325 68.8599 74.6694 68.4826C74.3591 68.1583 74.2469 67.6817 74.2733 67.2316C74.3063 66.6028 74.5572 65.9872 74.7486 65.3981C75.3032 63.6838 75.8578 61.9628 76.419 60.2484L78.0299 55.2709C78.0761 55.1319 78.1025 54.9929 78.1157 54.8473C78.7363 46.2557 68.8596 45.6468 62.3896 46.3881C55.8602 47.1361 54.8237 53.6691 54.5332 56.7205C54.3946 58.1701 54.2163 59.6196 54.0447 61.0692C53.873 62.5386 53.8994 64.3986 51.9717 64.5575C51.0606 64.6303 50.1693 64.2861 49.278 64.0941C45.6403 63.3065 41.6197 65.1399 40.2597 68.701C39.9692 69.4622 39.7909 70.2764 39.7117 71.0839C39.6457 71.759 39.7645 72.8512 39.2495 73.3939C38.695 73.983 37.4472 73.9036 36.7078 73.983C33.3803 74.3471 30.2906 76.4453 28.7193 79.4107C26.9434 82.7599 27.4451 86.4799 28.8778 89.8357C29.7096 91.795 31.3403 93.827 33.1757 94.9457L67.7505 96.8718C67.7505 96.8718 80.4462 82.29 80.6839 80.7808L80.6773 80.761Z"
                  fill="#1A1A1A"/>
            <path d="M74.5172 77.1123C74.5172 77.1123 92.9303 82.434 96.502 109.546L103.031 107.679C103.031 107.679 117.793 132.031 101.275 148.598H78.6831L74.5238 77.1123H74.5172Z"
                  fill="url(#paint0_linear_321_53971)"/>
            <path style="mix-blend-mode:soft-light"
                  d="M109.054 127.44C109.054 127.354 109.041 127.268 109.034 127.182C106.479 134.727 99.7848 144.232 82.2564 141.697C80.8436 141.492 79.576 141.36 78.4404 141.294L78.863 148.601H101.27C107.753 142.101 109.424 134.396 109.047 127.44H109.054Z"
                  fill="url(#paint1_linear_321_53971)"/>
            <path d="M58.4363 69.52C58.4363 69.52 65.8504 75.4507 67.9036 75.3051C69.9634 75.1595 71.0263 70.6055 71.0263 70.6055C71.0263 70.6055 67.6659 68.2955 63.8631 68.2558C60.1528 68.2161 58.4363 69.52 58.4363 69.52Z"
                  fill="#3656B3"/>
            <path d="M73.2969 76.7219C64.7473 74.7561 50.8434 71.2678 38.5966 86.6969C26.3433 102.126 36.55 128.986 36.55 128.986L32.5624 148.645H87.5837L86.0322 128.503C85.9266 127.106 86.0916 125.703 86.5273 124.373C87.7025 120.792 90.0462 112.902 90.2641 106.356C90.5612 97.5787 81.8465 78.7011 73.2969 76.7286V76.7219Z"
                  fill="#FFC123"/>
            <path style="mix-blend-mode:soft-light"
                  d="M55.6493 113.359L59.4521 96.3816C59.4521 96.3816 47.3638 82.1373 44.4391 80.7539C43.5148 81.4886 42.5971 82.3094 41.6794 83.2162C41.5012 83.3949 41.3229 83.5803 41.1447 83.759C41.0654 83.8384 41.0126 83.898 40.9598 83.9509C40.8212 84.0965 40.7089 84.2223 40.5901 84.3481C40.5175 84.4275 40.4713 84.4805 40.4184 84.5334C40.3392 84.6195 40.293 84.6724 40.2468 84.7254C40.0949 84.8974 39.9827 85.0232 39.8705 85.149C39.4281 85.6586 39.3819 85.7248 39.3291 85.7844C39.2565 85.8771 39.2037 85.9366 39.1442 86.0028C38.7019 86.5456 38.6491 86.6118 38.5897 86.6846C26.3363 102.114 36.543 128.974 36.543 128.974L32.5554 148.633H78.7168C59.4455 143.887 55.6427 113.353 55.6427 113.353L55.6493 113.359Z"
                  fill="url(#paint2_linear_321_53971)"/>
            <path d="M79.9966 105.517C80.1286 106.443 79.6466 107.277 78.9204 107.383C78.1942 107.489 77.501 106.821 77.3689 105.887C77.2369 104.961 77.7189 104.127 78.4451 104.021C79.1713 103.915 79.8645 104.59 79.9966 105.517Z"
                  fill="#FBFADC"/>
            <path d="M79.5885 100.626C79.6215 101.519 79.1 102.267 78.4266 102.287C77.7532 102.314 77.1788 101.605 77.1458 100.712C77.1128 99.8183 77.6343 99.0704 78.3077 99.0505C78.9811 99.024 79.5555 99.7323 79.5885 100.626Z"
                  fill="#F6F7F8"/>
            <path d="M81.4042 114.73C81.4372 115.624 80.9156 116.372 80.2422 116.392C79.5688 116.418 78.9945 115.71 78.9614 114.816C78.9284 113.923 79.45 113.175 80.1234 113.155C80.7968 113.129 81.3712 113.837 81.4042 114.73Z"
                  fill="#F6F7F8"/>
            <path d="M76.6235 86.6737C76.7754 87.554 76.3528 88.3615 75.686 88.4741C75.0192 88.5866 74.359 87.9644 74.2072 87.084C74.0553 86.2037 74.4779 85.3962 75.1447 85.2837C75.8115 85.1711 76.4717 85.7933 76.6235 86.6737Z"
                  fill="#F6F7F8"/>
            <path d="M82.4066 129.625C82.4066 130.518 81.8586 131.246 81.1852 131.246C80.5118 131.246 79.9639 130.518 79.9639 129.625C79.9639 128.731 80.5118 128.003 81.1852 128.003C81.8586 128.003 82.4066 128.731 82.4066 129.625Z"
                  fill="#F6F7F8"/>
            <path d="M96.4365 115.896L86.4014 115.678C86.4014 115.678 85.0876 114.48 85.6224 113.202L91.8415 98.3623C92.1452 97.6409 92.845 97.1709 93.6306 97.1709H102.656C104.042 97.1709 104.88 98.7529 104.88 98.7529L98.2257 114.705C97.922 115.426 97.2221 115.896 96.4365 115.896Z"
                  fill="#F6F7F8"/>
            <path d="M96.9648 116.47H87.9398C86.5534 116.47 85.6159 115.053 86.1506 113.776L92.3698 98.9356C92.6734 98.2141 93.3733 97.7441 94.1589 97.7441H103.184C104.57 97.7441 105.508 99.1606 104.973 100.438L98.7539 115.278C98.4502 116 97.7504 116.47 96.9648 116.47Z"
                  fill="#D2D2D2"/>
            <path style="mix-blend-mode:soft-light"
                  d="M96.9648 116.47H87.9398C86.5534 116.47 85.6159 115.053 86.1506 113.776L92.3698 98.9356C92.6734 98.2141 93.3733 97.7441 94.1589 97.7441H103.184C104.57 97.7441 105.508 99.1606 104.973 100.438L98.7539 115.278C98.4502 116 97.7504 116.47 96.9648 116.47Z"
                  fill="url(#paint3_linear_321_53971)"/>
            <path d="M98.0865 102.882C97.9413 103.452 97.4329 103.816 96.951 103.69C96.469 103.571 96.1917 103.008 96.337 102.439C96.4822 101.87 96.9906 101.506 97.4725 101.631C97.9545 101.75 98.2318 102.313 98.0865 102.882Z"
                  fill="#F6F7F8"/>
            <path d="M100.899 104.132C100.232 103.675 99.0967 102.643 99.4202 101.69C99.856 100.412 101.837 101.094 104.015 102.332C106.194 103.569 105.824 105.449 104.88 106.025C104.874 106.561 104.841 108.302 103.606 108.772C103.606 108.772 105.072 111.83 100.047 112.187L100.536 110.903C100.536 110.903 97.1623 109.659 97.3274 107.858C97.4528 106.521 98.7336 106.852 99.4202 107.097C98.7468 106.793 97.1491 105.548 97.4198 104.483C97.7829 103.046 99.2024 103.503 100.899 104.125V104.132Z"
                  fill="url(#paint4_linear_321_53971)"/>
            <path d="M104.88 106.2C104.444 105.809 102.318 104.889 100.965 104.353C100.879 104.32 100.833 104.22 100.872 104.134C100.906 104.048 101.005 104.002 101.09 104.042C101.44 104.181 104.537 105.425 105.005 105.922C105.071 105.988 105.065 106.1 104.999 106.16C104.966 106.193 104.926 106.206 104.88 106.206V106.2Z"
                  fill="#C65347"/>
            <path d="M103.607 108.944C102.518 108.084 99.4081 107.276 99.3817 107.27C99.2893 107.243 99.2365 107.151 99.2629 107.064C99.2893 106.972 99.3817 106.919 99.4676 106.939C99.5996 106.972 102.683 107.773 103.719 108.646C103.792 108.706 103.798 108.812 103.739 108.885C103.706 108.924 103.66 108.944 103.607 108.944Z"
                  fill="#C65347"/>
            <path d="M55.6493 113.578C55.4908 113.552 55.4182 113.439 55.438 113.327C56.0982 109.825 59.2144 96.4744 59.2474 96.342C59.2738 96.2295 59.3926 96.1567 59.5049 96.1832C59.6171 96.2097 59.6897 96.3222 59.6633 96.4413C59.6303 96.5737 56.5141 109.918 55.8605 113.406C55.8407 113.512 55.7549 113.578 55.6493 113.578Z"
                  fill="#1D6CE2"/>
            <path d="M63.2282 59.2363L60.6996 74.1557L68.8399 75.5391L70.3716 66.5107L63.2282 59.2363Z"
                  fill="url(#paint5_linear_321_53971)"/>
            <path d="M65.0843 59.9299C65.0843 59.9299 64.4175 66.4696 69.072 69.104C70.8941 70.1299 72.7559 69.9512 74.0235 69.1966C75.9975 68.0184 76.902 65.0399 77.2387 63.0277C77.8197 59.546 78.196 56.8256 78.0903 55.0649L76.3342 49.8027L68.0421 50.0212L65.0777 59.9365L65.0843 59.9299Z"
                  fill="#FFAF99"/>
            <path d="M70.7159 67.5351C66.2793 65.0264 66.0548 59.4267 66.1077 57.6064L65.6455 58.0565L65.0843 59.9297C65.0843 59.9297 64.4175 66.4694 69.072 69.1038C70.8941 70.1297 72.7559 69.951 74.0235 69.1964C74.4328 68.9515 74.7959 68.6338 75.1128 68.2632C73.8716 68.5279 72.2806 68.422 70.7093 67.5417L70.7159 67.5351Z"
                  fill="url(#paint6_linear_321_53971)"/>
            <path d="M71.6792 60.7337C71.3359 61.6405 70.3192 62.0972 69.4147 61.753C68.5102 61.4088 68.0547 60.3895 68.398 59.4827C68.7413 58.5758 69.7514 58.1191 70.6625 58.4633C71.5669 58.8075 72.0225 59.8202 71.6792 60.7337Z"
                  fill="#EA7D6A"/>
            <path d="M77.8652 58.7839C77.2049 58.5324 76.4853 58.7111 76.01 59.1811C76.5381 59.4061 77.0993 59.704 77.0663 59.9489C77.0267 60.2732 76.208 60.6439 75.5544 60.8954C75.6997 61.4183 76.076 61.8684 76.6174 62.0736C76.8418 62.1597 77.1389 62.1928 77.3766 62.1862C77.5813 60.9418 77.7529 59.8099 77.8784 58.7906H77.8652V58.7839Z"
                  fill="#EA7D6A"/>
            <path d="M75.6725 58.3628C75.4811 58.343 75.3424 58.1709 75.3622 57.9789L75.4547 57.1118C75.4745 56.9199 75.6461 56.7809 75.8376 56.8007C76.029 56.8206 76.1677 56.9927 76.1479 57.1846L76.0554 58.0517C76.0356 58.2437 75.864 58.3827 75.6725 58.3628Z"
                  fill="#93372B"/>
            <path d="M70.7541 58.0132C70.5626 57.9933 70.424 57.8213 70.4438 57.6293L70.5362 56.7622C70.556 56.5702 70.7277 56.4312 70.9191 56.4511C71.1106 56.471 71.2492 56.6431 71.2294 56.835L71.137 57.7021C71.1172 57.8941 70.9455 58.0331 70.7541 58.0132Z"
                  fill="#93372B"/>
            <path d="M71.0178 70.6138L67.7762 74.2941L58.4278 69.5283L55.1796 75.5649L62.8247 81.959C63.3265 82.3693 64.0659 82.3098 64.4884 81.82L67.7432 78.0603L70.5557 81.3699C71.0112 81.906 71.8893 81.6743 72.0213 80.9859L72.8664 76.6306L71.0178 70.6205V70.6138Z"
                  fill="#F6F7F8"/>
            <path d="M74.518 148.673C74.3991 148.673 74.3067 148.581 74.3067 148.461C74.3067 148.303 74.1614 132.609 75.1055 124.381C75.2112 123.448 75.33 122.508 75.4422 121.568C76.3599 114.082 77.3106 106.338 74.6566 98.2292C71.6857 89.1478 67.5858 78.2462 67.5396 78.1337C67.5264 78.0542 67.5594 74.288 67.5594 74.288C67.5594 74.1688 67.6386 74.0894 67.7773 74.0762C67.8961 74.0762 67.9886 74.1755 67.9886 74.2946L67.9555 78.0211C68.2262 78.736 72.1808 89.2736 75.0593 98.0968C77.7397 106.298 76.7891 114.089 75.8648 121.621C75.7525 122.561 75.6337 123.501 75.5281 124.434C74.5906 132.635 74.7292 148.303 74.7292 148.461C74.7292 148.581 74.6368 148.68 74.518 148.68V148.673Z"
                  fill="#1D6CE2"/>
            <path d="M72.0419 62.0752C72.3588 62.4127 72.3918 63.1342 72.9134 63.26C73.2567 63.346 73.5868 63.1078 73.9433 63.207C74.4847 63.3593 74.5507 63.902 74.2272 64.3588C73.9037 64.8155 72.5503 65.3384 71.6854 64.6831C71.0582 64.2065 70.7347 63.2997 70.8338 62.5187C70.8536 62.3598 70.9064 62.2076 71.012 62.0884C71.2101 61.87 71.593 61.8104 71.8505 61.9362C71.9231 61.9693 71.9891 62.0222 72.0419 62.0818V62.0752Z"
                  fill="#1A1A1A"/>
            <path d="M70.8283 62.5537C71.6139 62.5736 72.2477 63.2222 72.2477 64.0165C72.2477 64.3276 72.1487 64.6122 71.9836 64.8505C71.878 64.8042 71.7724 64.7512 71.68 64.6784C71.0594 64.2085 70.7425 63.3215 70.8283 62.5537Z"
                  fill="#DD6050"/>
            <path d="M74.7363 61.3959C74.6438 61.3959 74.558 61.3364 74.5316 61.2437C74.4986 61.1312 74.5646 61.012 74.6768 60.9789C75.786 60.6414 76.8291 60.1449 76.8621 59.9265C76.8357 59.8603 76.5122 59.5955 75.5087 59.2116C75.0532 59.0395 74.7165 58.6821 74.6042 58.2453C74.393 57.4377 74.657 56.6236 74.6636 56.5905C74.7033 56.478 74.8221 56.4184 74.9343 56.4515C75.0466 56.4912 75.106 56.6103 75.073 56.7229C75.073 56.7295 74.8353 57.451 75.0202 58.1327C75.0994 58.4306 75.3437 58.6821 75.6672 58.8079C77.1592 59.3771 77.3243 59.7147 77.2913 59.9795C77.212 60.595 75.5285 61.1709 74.8023 61.3893C74.7825 61.3893 74.7627 61.3959 74.7429 61.3959H74.7363Z"
                  fill="#C65347"/>
            <path d="M31.2548 88.9745C31.1294 88.9745 31.0106 88.8885 30.9776 88.7561C30.9247 88.5112 29.6902 82.6798 33.2156 79.41C35.2095 77.5566 37.3485 77.7949 39.065 77.9802C40.3986 78.1259 41.4484 78.2384 42.069 77.3978C42.6829 76.5638 42.7226 75.273 42.7688 73.9095C42.8348 71.9039 42.914 69.627 44.789 68.0384C46.5649 66.5359 48.5786 67.3632 50.3479 68.0913C51.7937 68.6871 53.1604 69.2431 54.2035 68.5083C55.788 67.3897 56.0124 64.3847 56.2699 60.9096C56.402 59.1225 56.5406 57.2758 56.8773 55.4489C56.9037 55.2967 57.049 55.1908 57.2074 55.2238C57.3593 55.2503 57.4583 55.3959 57.4319 55.5482C57.1018 57.342 56.9697 59.1754 56.8377 60.9494C56.567 64.57 56.3359 67.6942 54.5336 68.9651C53.2396 69.8785 51.6617 69.2364 50.1432 68.6076C48.4399 67.906 46.6772 67.1845 45.1587 68.4686C43.4686 69.8983 43.4026 71.9436 43.3365 73.9294C43.2903 75.3789 43.2441 76.7491 42.5245 77.7287C41.7124 78.8341 40.3986 78.6885 39.0122 78.5362C37.3287 78.3509 35.4141 78.1457 33.6052 79.8203C30.324 82.8651 31.5255 88.5708 31.5387 88.6303C31.5717 88.7826 31.4793 88.9348 31.3275 88.9679C31.3077 88.9679 31.2878 88.9745 31.268 88.9745H31.2548Z"
                  fill="#0056D5"/>
            <path d="M72.5895 105.94C59.9202 110.348 58.7054 111.686 54.3283 114.115C52.8098 114.955 51.1461 113.155 51.9185 111.593C54.1236 107.145 60.7323 93.814 60.7323 93.814C63.175 88.8894 61.4981 82.9124 56.8635 79.9802C52.6712 77.3259 47.2113 77.915 43.666 81.3966C39.1238 85.8513 32.9641 92.6425 27.9994 100.85C17.7663 117.768 10.372 144.887 38.2193 151.605C66.0601 158.324 74.174 119.43 74.8672 113.367L72.5961 105.94H72.5895Z"
                  fill="#FFC123"/>
            <path d="M40.855 125.712C40.6173 125.56 40.6239 125.427 40.7098 125.341C46.0838 120.159 50.7514 116.214 54.2175 113.93C58.291 111.243 61.0836 109.747 72.5249 105.729C72.6372 105.689 72.756 105.749 72.7956 105.861C72.8352 105.974 72.7758 106.093 72.6636 106.133C61.2685 110.137 58.489 111.62 54.4486 114.288C51.0089 116.558 46.3611 120.483 41.0068 125.653C40.9672 125.692 40.9144 125.712 40.8616 125.712H40.855Z"
                  fill="#1D6CE2"/>
            <path style="mix-blend-mode:soft-light"
                  d="M74.861 113.36L74.2206 111.262C71.8042 122.706 62.5416 151.665 38.2131 145.793C25.1213 142.643 19.8199 134.971 18.9418 125.976C18.922 126.188 18.9088 126.4 18.889 126.611C18.1099 137.751 22.6785 147.852 38.2131 151.598C66.0538 158.317 74.1677 119.423 74.861 113.36Z"
                  fill="url(#paint7_linear_321_53971)"/>
            <path d="M83.641 102.193C81.7528 101.57 79.8844 101.299 77.2502 102.715C74.6226 104.132 72.5892 105.932 72.5892 105.932C72.5892 105.932 71.348 109.771 74.8603 113.359L81.4689 111.81C81.4689 111.81 85.1924 112.922 85.8724 111.333C86.1761 110.632 85.8989 110.063 85.4961 109.652C85.9913 109.546 86.5789 109.335 86.7769 108.858C86.9882 108.342 86.6911 107.753 86.4204 107.362C87.7804 107.812 91.0616 108.712 91.6228 107.13C92.3292 105.125 85.5357 102.821 83.6476 102.199L83.641 102.193Z"
                  fill="url(#paint8_linear_321_53971)"/>
            <path d="M86.4146 107.582C84.3416 106.113 82.5458 105.795 82.5326 105.795C82.4138 105.775 82.3345 105.663 82.3544 105.55C82.3742 105.431 82.4864 105.358 82.5986 105.372C82.6778 105.385 84.5132 105.709 86.54 107.199C86.6325 107.265 86.6589 107.404 86.5862 107.496C86.5466 107.556 86.4806 107.582 86.4146 107.582Z"
                  fill="#C65347"/>
            <path d="M85.4967 109.873C84.381 109.079 81.4298 108.437 81.3968 108.43C81.2846 108.403 81.2054 108.291 81.2318 108.178C81.2582 108.066 81.3704 107.986 81.4827 108.013C81.6081 108.039 84.5658 108.681 85.6221 109.496C85.7146 109.568 85.7344 109.701 85.6617 109.793C85.6221 109.846 85.5561 109.88 85.4901 109.88L85.4967 109.873Z"
                  fill="#C65347"/>
            <path d="M81.4704 112.023C81.2328 111.857 81.2394 111.725 81.3318 111.645C81.3978 111.586 82.9427 110.269 84.0716 110.983C84.1707 111.05 84.2037 111.182 84.1377 111.281C84.0716 111.381 83.9396 111.407 83.8406 111.348C82.9823 110.798 81.6223 111.957 81.6091 111.97C81.5695 112.003 81.5167 112.023 81.4704 112.023Z"
                  fill="#C65347"/>
            <path d="M73.3286 47.9712C69.1693 47.7329 65.9871 51.0623 65.9871 51.0623L59.9132 55.1992L57.1074 69.4832L43.9033 71.2571C43.9033 71.2571 45.2435 77.1415 54.0572 79.2662C64.1121 81.6888 65.0496 70.8666 65.3467 67.4445C65.591 64.6844 66.3832 57.6549 66.6539 55.4971C67.0764 55.3713 69.8823 54.491 70.767 52.7038C70.9584 52.3265 71.1037 51.9228 71.2159 51.5256C71.546 52.8031 72.1798 54.1071 73.421 53.7827C74.4707 53.5114 74.88 52.214 75.0187 50.8637C75.8439 52.3133 76.8672 54.8617 78.0886 55.0536C78.0886 55.0536 77.4878 48.2029 73.3286 47.9646V47.9712Z"
                  fill="#1A1A1A"/>
            <path d="M53.4777 76.195C51.1934 76.195 49.5297 74.7983 49.5033 74.7719C49.3845 74.6726 49.3713 74.4939 49.4703 74.3747C49.5693 74.2556 49.7476 74.2423 49.8664 74.3416C50.0183 74.474 53.6692 77.5188 57.5116 73.8121C61.3011 70.1518 61.0833 59.0317 61.0766 58.9192C61.0766 58.7603 61.1955 58.6345 61.3539 58.6279C61.5058 58.6279 61.6378 58.7471 61.6444 58.9059C61.6576 59.3693 61.8689 70.3834 57.9077 74.2159C56.3562 75.7184 54.8113 76.1883 53.4777 76.1883V76.195Z"
                  fill="#0056D5"/>
            <path d="M60.7791 55.2789C58.9438 57.1256 60.2311 60.0247 62.225 61.1765C62.6079 59.0584 62.8918 56.9005 63.7962 54.9479C62.8323 54.4978 61.7034 54.3522 60.7857 55.2789H60.7791Z"
                  fill="url(#paint9_linear_321_53971)"/>
            <path d="M62.4554 59.8397C62.6865 58.5291 62.9374 57.2185 63.3731 55.9741C62.8383 55.7954 62.2574 55.7954 61.7622 56.2919C60.6795 57.3774 61.3331 59.0454 62.4488 59.8397H62.4554Z"
                  fill="#DD6050"/>
        </g>
        <path d="M26.8657 143.5C26.8657 134.663 34.0292 127.5 42.8657 127.5H86.8657C95.7023 127.5 102.866 134.663 102.866 143.5C102.866 152.337 95.7023 159.5 86.8657 159.5H42.8657C34.0292 159.5 26.8657 152.337 26.8657 143.5Z"
              fill="#003480"/>
        <path d="M43.8297 148.5V142.382C43.8297 141.962 43.9371 141.617 44.1517 141.346C44.3757 141.075 44.7071 140.94 45.1457 140.94H46.8397L46.9237 142.34H46.2097C45.8177 142.34 45.6217 142.55 45.6217 142.97V146.008L47.2037 143.25H47.9037L49.4857 146.008V140.94H51.2637V148.5H49.4437L47.5537 145.084L45.6497 148.5H43.8297ZM49.3792 152.196C48.8099 152.196 48.3619 152.084 48.0352 151.86C47.7085 151.636 47.5452 151.351 47.5452 151.006V150.348H46.7752L46.8452 149.214H48.8612V150.558C48.8612 150.857 49.0339 151.006 49.3792 151.006C49.7339 151.006 49.9112 150.857 49.9112 150.558V149.214H51.2552V150.698C51.2552 151.099 51.1059 151.449 50.8072 151.748C50.5085 152.047 50.0325 152.196 49.3792 152.196ZM47.7972 139.904V138.658H46.7052V137.37H49.0712V138.616H52.0672L51.9972 139.904H47.7972ZM54.8392 148.64C53.9339 148.64 53.1312 148.491 52.4312 148.192V146.75C52.7205 146.871 53.0332 146.974 53.3692 147.058C53.7052 147.133 54.0459 147.17 54.3912 147.17C55.2685 147.17 55.8939 146.988 56.2672 146.624C56.6499 146.26 56.8412 145.625 56.8412 144.72C56.8412 143.815 56.6499 143.18 56.2672 142.816C55.8939 142.452 55.2685 142.27 54.3912 142.27C54.0459 142.27 53.7052 142.307 53.3692 142.382C53.0332 142.457 52.7205 142.559 52.4312 142.69V141.248C53.1312 140.949 53.9339 140.8 54.8392 140.8C56.1179 140.8 57.0699 141.136 57.6952 141.808C58.3205 142.471 58.6332 143.441 58.6332 144.72C58.6332 145.999 58.3205 146.974 57.6952 147.646C57.0699 148.309 56.1179 148.64 54.8392 148.64ZM56.2002 139.904V137.594H58.0902V139.904H56.2002ZM62.4862 148.5V143.852C62.4862 143.348 62.3882 142.961 62.1922 142.69C61.9962 142.41 61.6042 142.27 61.0162 142.27C60.7082 142.27 60.3815 142.307 60.0362 142.382C59.6908 142.447 59.3828 142.531 59.1122 142.634V141.248C59.3922 141.117 59.7375 141.01 60.1482 140.926C60.5588 140.842 60.9695 140.8 61.3802 140.8C62.4442 140.8 63.2095 141.029 63.6762 141.486C64.1428 141.934 64.3762 142.634 64.3762 143.586V148.5H62.4862ZM69.0705 148.64C68.8652 148.64 68.6272 148.617 68.3565 148.57C68.0952 148.533 67.8852 148.486 67.7265 148.43L66.6625 145.588H65.6265L65.7105 144.244H67.8525L68.9585 147.198C69.5372 147.198 69.9852 147.002 70.3025 146.61C70.6199 146.209 70.7785 145.555 70.7785 144.65C70.7785 144.043 70.6992 143.567 70.5405 143.222C70.3912 142.877 70.1299 142.634 69.7565 142.494C69.3832 142.345 68.8745 142.27 68.2305 142.27C67.8572 142.27 67.4559 142.303 67.0265 142.368C66.6065 142.424 66.2052 142.513 65.8225 142.634V141.234C66.2052 141.113 66.6439 141.01 67.1385 140.926C67.6425 140.842 68.1699 140.8 68.7205 140.8C70.1019 140.8 71.0865 141.131 71.6745 141.794C72.2719 142.457 72.5705 143.409 72.5705 144.65C72.5705 145.518 72.4072 146.251 72.0805 146.848C71.7632 147.436 71.3385 147.884 70.8065 148.192C70.2745 148.491 69.6959 148.64 69.0705 148.64ZM68.7425 139.904V138.658H67.6505V137.37H70.0165V138.616H73.0125L72.9425 139.904H68.7425ZM76.5545 148.5V143.852C76.5545 143.348 76.4565 142.961 76.2605 142.69C76.0645 142.41 75.6725 142.27 75.0845 142.27C74.7765 142.27 74.4499 142.307 74.1045 142.382C73.7592 142.447 73.4512 142.531 73.1805 142.634V141.248C73.4605 141.117 73.8059 141.01 74.2165 140.926C74.6272 140.842 75.0379 140.8 75.4485 140.8C76.5125 140.8 77.2779 141.029 77.7445 141.486C78.2112 141.934 78.4445 142.634 78.4445 143.586V148.5H76.5545ZM82.9569 148.64C82.7049 148.64 82.4342 148.621 82.1449 148.584C81.8649 148.547 81.6176 148.495 81.4029 148.43L79.2749 143.25H81.1089L82.7749 147.296C83.4749 147.296 83.9789 147.063 84.2869 146.596C84.6042 146.12 84.7629 145.415 84.7629 144.482C84.7629 143.922 84.7069 143.483 84.5949 143.166C84.4922 142.849 84.3196 142.625 84.0769 142.494C83.8342 142.354 83.4982 142.284 83.0689 142.284H82.4949V140.94H83.3349C84.4456 140.94 85.2576 141.234 85.7709 141.822C86.2936 142.401 86.5549 143.287 86.5549 144.482C86.5549 145.462 86.4009 146.26 86.0929 146.876C85.7849 147.483 85.3602 147.931 84.8189 148.22C84.2869 148.5 83.6662 148.64 82.9569 148.64Z"
              fill="white" fill-opacity="0.95"/>
        <circle cx="18.8059" cy="25.5597" r="8.0597" fill="#97BDF7"/>
        <circle cx="4.02985" cy="42.1275" r="4.02985" fill="#0056D5"/>
        <circle cx="530.597" cy="82.4702" r="55.9701" fill="#A7D4FE"/>
        <mask id="mask1_321_53971" style="mask-type:alpha" maskUnits="userSpaceOnUse" x="474" y="26" width="113"
              height="113">
            <circle cx="530.597" cy="82.4702" r="55.9701" fill="#E9B10C"/>
        </mask>
        <g mask="url(#mask1_321_53971)">
            <path d="M547.384 44.6953C547.384 44.6953 551.999 44.9816 554.329 47.9215C554.329 47.9215 556.256 44.1514 557.33 45.2669C558.403 46.3824 555.807 48.5301 555.807 48.5301C555.807 48.5301 558.772 48.0857 558.902 49.6894C559.015 51.1091 555.819 50.6613 555.074 50.5353C555.121 54.3608 552.44 60.5284 547.892 65.069L537.668 62.7249L547.377 44.6937L547.384 44.6953Z"
                  fill="#1A1A1A"/>
            <path d="M538.851 54.2136C538.851 55.9036 537.496 57.2689 535.819 57.2689C534.142 57.2689 532.787 55.9036 532.787 54.2136C532.787 52.5235 534.142 51.1582 535.819 51.1582C537.496 51.1582 538.851 52.5235 538.851 54.2136Z"
                  fill="#1A1A1A"/>
            <path d="M531.571 49.3816C531.571 48.5074 531.918 47.6333 532.505 46.9922C532.819 46.6509 533.29 46.5011 533.653 46.2263C534.166 45.8267 534.009 45.552 534.174 45.0025C534.306 44.5779 534.529 44.1866 534.818 43.8536C535.388 43.2126 536.223 42.8379 537.074 42.8379C537.834 42.8379 538.478 43.171 539.073 43.6039C540.205 42.6881 541.238 41.8223 542.601 41.8223C544.03 41.8223 545.005 42.6548 545.955 43.6205C546.319 43.8037 546.567 43.5373 546.74 43.4623C547.104 43.3125 547.484 43.2209 547.88 43.2209C549.558 43.2209 550.912 44.5862 550.912 46.2763C550.912 47.9663 549.632 49.2484 548.029 49.3316C548.426 49.8478 548.657 50.4972 548.657 51.1965C548.657 52.8865 547.302 54.2519 545.625 54.2519C544.997 54.2519 544.41 54.0437 543.906 53.6691C543.287 53.2029 543.088 52.5285 542.295 53.1613C541.816 53.5442 541.229 53.769 540.61 53.769C540.114 53.769 539.618 53.6441 539.181 53.411C538.867 53.2445 538.726 52.8948 538.338 53.0114C537.999 53.1196 537.801 53.5858 537.512 53.7773C537.024 54.0854 536.462 54.2519 535.884 54.2519C534.57 54.2519 533.447 53.411 533.025 52.2288C532.133 51.5961 531.555 50.5555 531.555 49.3733L531.571 49.3816Z"
                  fill="#1A1A1A"/>
            <path d="M538.011 68.1055L540.273 73.0031L549.764 67.0849C549.764 67.0849 546.941 66.4812 543.521 66.4563C540.094 66.4314 538.011 68.1055 538.011 68.1055Z"
                  fill="#1A1A1A"/>
            <path d="M547.989 58.7773V73.0034H539.638V64.3968L547.989 58.7773Z" fill="url(#paint10_linear_321_53971)"/>
            <path d="M551.619 55.0797C550.898 53.7231 549.246 53.5239 547.404 54.6441C547.04 54.8619 546.726 55.1295 546.436 55.4033C544.661 55.8887 544.396 53.0696 544.396 53.0696C540.945 52.6651 539.269 50.2257 538.64 49.0059C538.449 48.645 537.975 48.5641 537.673 48.8379C536.976 49.4664 535.941 50.6426 535.67 52.2295C535.479 53.3559 535.306 59.2243 535.318 60.0582C535.349 62.0558 535.571 64.738 537.297 66.1693C538.406 67.0903 541.087 67.5011 542.862 66.7543C546.109 65.3727 547.391 62.199 547.786 60.2013C548.624 60.276 549.08 60.108 550.004 59.5479C551.847 58.4277 552.34 56.4301 551.619 55.0797Z"
                  fill="#FFAF99"/>
            <path d="M550.003 59.548C551.846 58.4278 552.339 56.4302 551.618 55.0798C550.897 53.7231 549.245 53.524 547.403 54.6442C547.039 54.862 546.725 55.1296 546.435 55.4034C545.788 60.4379 544.451 64.4705 541.554 65.7027C540.081 66.325 537.986 66.1383 536.686 65.5284C536.883 65.7898 537.08 65.9889 537.296 66.1694C538.405 67.0904 541.086 67.5011 542.861 66.7544C546.108 65.3728 547.39 62.199 547.785 60.2014C548.623 60.2761 549.079 60.1081 550.003 59.548Z"
                  fill="url(#paint11_linear_321_53971)"/>
            <path d="M536.582 55.9251C536.761 55.9251 536.909 55.7757 536.909 55.5953V54.78C536.909 54.5996 536.761 54.4502 536.582 54.4502C536.403 54.4502 536.255 54.5996 536.255 54.78V55.5953C536.255 55.7757 536.403 55.9251 536.582 55.9251Z"
                  fill="#93372B"/>
            <path d="M541.677 55.9251C541.856 55.9251 542.004 55.7757 542.004 55.5953V54.78C542.004 54.5996 541.856 54.4502 541.677 54.4502C541.498 54.4502 541.35 54.5996 541.35 54.78V55.5953C541.35 55.7757 541.498 55.9251 541.677 55.9251Z"
                  fill="#93372B"/>
            <path d="M550.995 55.8067C551.445 56.6343 550.841 57.8354 549.651 58.4951C548.462 59.1485 547.137 59.0116 546.687 58.1839C546.237 57.3562 546.841 56.1552 548.031 55.4955C549.22 54.8421 550.545 54.979 550.995 55.8067Z"
                  fill="#DD6050"/>
            <path d="M544.396 57.7911C544.396 58.7059 543.663 59.4464 542.757 59.4464C541.851 59.4464 541.118 58.7059 541.118 57.7911C541.118 56.8763 541.851 56.1357 542.757 56.1357C543.663 56.1357 544.396 56.8763 544.396 57.7911Z"
                  fill="#EA7D6A"/>
            <path d="M541.679 58.4913C540.508 58.4913 539.552 57.1783 539.552 55.5665C539.552 53.9547 540.508 52.6416 541.679 52.6416C542.849 52.6416 543.798 53.9547 543.798 55.5665C543.798 57.1783 542.843 58.4913 541.679 58.4913ZM541.679 53.015C540.711 53.015 539.928 54.16 539.928 55.5665C539.928 56.9729 540.711 58.1179 541.679 58.1179C542.646 58.1179 543.429 56.9729 543.429 55.5665C543.429 54.16 542.646 53.015 541.679 53.015Z"
                  fill="#FBFADC"/>
            <path d="M535.792 58.4913C534.621 58.4913 533.672 57.1783 533.672 55.5665C533.672 53.9547 534.627 52.6416 535.792 52.6416C536.957 52.6416 537.918 53.9547 537.918 55.5665C537.918 56.3444 537.746 56.9729 537.394 57.4956C537.339 57.5828 537.222 57.6014 537.135 57.5454C537.049 57.4894 537.031 57.3712 537.086 57.284C537.394 56.8235 537.548 56.2635 537.548 55.5665C537.548 54.16 536.766 53.015 535.798 53.015C534.831 53.015 534.048 54.16 534.048 55.5665C534.048 56.9729 534.831 58.1179 535.798 58.1179C535.891 58.1179 535.983 58.1055 536.069 58.0868C536.168 58.0619 536.267 58.1242 536.291 58.23C536.316 58.3295 536.254 58.4291 536.149 58.454C536.032 58.4789 535.909 58.4976 535.792 58.4976V58.4913Z"
                  fill="#FBFADC"/>
            <path d="M526.468 79.668C526.468 79.668 519.252 85.7355 514.704 97.8644L506.754 82.8044L494.373 86.2022C494.373 86.2022 485.079 114.885 492.925 131.538C500.77 148.191 527.461 146.448 536.267 131.538C545.074 116.627 526.468 79.668 526.468 79.668Z"
                  fill="#4F8CE8"/>
            <path style="mix-blend-mode:soft-light"
                  d="M538.621 121.909C538.443 122.288 538.252 122.668 538.042 123.023C529.235 137.933 502.545 139.676 494.699 123.023C490.429 113.956 491.236 101.335 492.857 91.708C490.57 101.018 487.23 119.444 492.931 131.542C500.776 148.195 527.467 146.453 536.273 131.542C537.808 128.941 538.51 125.668 538.621 122.04C538.621 121.996 538.621 121.959 538.621 121.915V121.909Z"
                  fill="url(#paint12_linear_321_53971)"/>
            <path d="M577.238 144.525L568.591 119.602C568.591 119.602 575.081 90.3657 568.591 80.5829C565.054 75.2497 558.7 72.8351 552.051 72.2626L549.758 67.085L541.032 71.5656L538.006 68.1056L536.188 74.0984C526.364 77.3718 522.537 83.2215 519.345 91.1249C516.147 99.0469 522.026 108.413 521.847 113.516C521.668 118.619 518.408 144.544 518.408 144.544L577.232 144.519L577.238 144.525Z"
                  fill="#4F8CE8"/>
            <path d="M537.838 144.749C537.74 144.749 537.653 144.68 537.641 144.581C537.623 144.45 535.663 131.481 534.338 125.426C533.623 122.146 530.129 105.475 531.928 99.519C533.487 94.3538 540.229 77.6261 540.568 76.7859L540.833 71.5523C540.833 71.4403 540.932 71.3594 541.043 71.3594C541.154 71.3594 541.24 71.4589 541.234 71.571L540.963 76.8357C540.877 77.0784 533.894 94.3787 532.304 99.631C530.535 105.487 534.005 122.065 534.72 125.333C536.045 131.394 538.005 144.381 538.029 144.512C538.048 144.624 537.974 144.724 537.863 144.742C537.851 144.742 537.844 144.742 537.832 144.742L537.838 144.749Z"
                  fill="#E3EDFD"/>
            <path style="mix-blend-mode:soft-light"
                  d="M545.648 94.6227C545.648 94.6227 547.928 113.809 542.086 116.709C536.897 119.285 525.989 130.611 523.443 144.545L577.238 144.526L568.592 119.602C568.592 119.602 573.374 98.0766 570.625 85.7859C570.607 85.7112 570.588 85.6303 570.57 85.5557L545.642 94.6227H545.648Z"
                  fill="url(#paint13_linear_321_53971)"/>
            <path d="M481.412 107.268H513.255C516.331 107.268 518.426 104.132 517.28 101.251L509.299 81.262C508.639 79.6066 507.043 78.5176 505.275 78.5176H473.432C470.356 78.5176 468.255 81.542 468.255 81.542L477.388 104.524C478.048 106.179 479.644 107.268 481.412 107.268Z"
                  fill="#F6F7F8"/>
            <path d="M479.791 108.412H511.634C514.709 108.412 516.804 105.276 515.658 102.394L507.677 82.4055C507.018 80.7502 505.422 79.6611 503.653 79.6611H471.81C468.735 79.6611 466.64 82.7976 467.786 85.6789L475.767 105.668C476.426 107.323 478.022 108.412 479.791 108.412Z"
                  fill="#D2D2D2"/>
            <path d="M490.102 91.205C491.119 90.6138 492.666 91.4041 493.56 92.9661C494.453 94.5281 494.354 96.2768 493.344 96.8742C492.327 97.4654 490.78 96.6751 489.887 95.1131C488.993 93.5449 489.092 91.8024 490.102 91.205Z"
                  fill="#F6F7F8"/>
            <path d="M512.177 108.411H540.26C540.889 108.411 541.394 107.895 541.394 107.266C541.394 106.638 540.883 106.121 540.26 106.121H512.177C511.548 106.121 511.043 106.631 511.043 107.266C511.043 107.901 511.554 108.411 512.177 108.411Z"
                  fill="#D2D2D2"/>
            <path style="mix-blend-mode:soft-light"
                  d="M540.254 106.122H515.437C516.022 105.033 516.164 103.689 515.653 102.401L507.672 82.4124C507.013 80.757 505.416 79.668 503.648 79.668H471.805C468.73 79.668 466.634 82.8044 467.781 85.6857L475.761 105.674C476.421 107.33 478.017 108.419 479.786 108.419H511.628C511.739 108.419 511.85 108.406 511.961 108.4C512.029 108.413 512.097 108.419 512.171 108.419H540.254C540.883 108.419 541.388 107.902 541.388 107.274C541.388 106.645 540.877 106.129 540.254 106.129V106.122Z"
                  fill="url(#paint14_linear_321_53971)"/>
            <path d="M518.413 113.557C518.413 113.557 534.553 125.225 545.813 118.43C550.675 115.492 548.506 105.803 545.837 95.4725C543.865 87.8554 548.284 80.0454 555.79 77.9233C561.725 76.2493 568.06 78.6078 571.486 83.7792C575.776 90.2451 579.264 100.314 580.484 107.272C583.072 122.002 582.234 134.964 572.99 143.123C565.459 149.769 546.01 155.893 529.882 148.313C514.235 140.957 508.972 116.631 508.972 116.631L518.407 113.569L518.413 113.557Z"
                  fill="#4F8CE8"/>
            <path d="M514.883 108.909C514.883 108.909 512.991 106.426 509.663 106.233C509.065 106.196 507.944 106.084 507.253 106.227C507.253 106.227 505.583 101.653 503.698 101.92C502.748 102.057 502.36 102.972 502.748 103.763C502.052 103.066 501.158 102.481 500.259 102.754C498.983 103.14 499.193 104.136 499.612 104.926C498.921 104.099 498.231 103.184 497.134 103.763C495.458 104.646 497.695 108.797 499.39 109.855C502.872 112.033 504.973 111.392 504.973 111.392L508.985 116.619C508.985 116.619 515.98 117.528 518.42 113.558L514.889 108.915L514.883 108.909Z"
                  fill="url(#paint15_linear_321_53971)"/>
            <path d="M508.978 109.67C506.562 109.67 505.663 109.01 505.336 108.462C505.071 108.027 505.083 107.51 505.361 106.969C506.057 105.625 509.317 105.992 509.687 106.035C509.798 106.048 509.872 106.147 509.859 106.259C509.847 106.371 509.748 106.446 509.638 106.434C508.713 106.315 506.199 106.222 505.712 107.155C505.496 107.566 505.484 107.933 505.675 108.251C506.063 108.892 507.265 109.265 508.978 109.265C509.089 109.265 509.175 109.358 509.175 109.464C509.175 109.57 509.089 109.663 508.978 109.663V109.67Z"
                  fill="#C65347"/>
            <path d="M505.995 110.061C503.388 107.964 502.587 103.975 502.55 103.807C502.532 103.695 502.6 103.589 502.711 103.57C502.821 103.552 502.926 103.62 502.945 103.726C502.951 103.763 503.752 107.74 506.125 109.7C506.211 109.769 506.223 109.899 506.155 109.986C506.118 110.036 506.057 110.061 506.001 110.061H505.995Z"
                  fill="#C65347"/>
            <path d="M502.748 110.242C500.511 108.512 499.463 105.133 499.42 104.99C499.389 104.884 499.444 104.772 499.549 104.741C499.654 104.71 499.765 104.766 499.796 104.872C499.808 104.903 500.856 108.276 502.871 109.881C502.957 109.95 502.969 110.074 502.902 110.161C502.865 110.211 502.803 110.236 502.748 110.236V110.242Z"
                  fill="#C65347"/>
            <path style="mix-blend-mode:soft-light"
                  d="M580.484 107.267C579.56 102.021 577.354 95.0135 574.488 89.1078C574.433 89.002 574.377 88.89 574.322 88.7842C575.647 92.5429 576.651 96.283 577.2 99.4008C579.788 114.131 578.95 127.094 569.712 135.252C562.181 141.899 542.731 148.022 526.604 140.442C519.245 136.982 514.186 129.77 510.889 123.105C510.932 123.223 510.975 123.347 511.012 123.466C513.773 131.232 519.572 143.454 529.882 148.302C546.01 155.888 565.453 149.765 572.99 143.112C582.228 134.954 583.067 121.991 580.478 107.261L580.484 107.267Z"
                  fill="url(#paint16_linear_321_53971)"/>
            <path d="M527.94 114.106C527.996 114.946 528.551 115.594 529.179 115.55C529.808 115.507 530.276 114.791 530.214 113.951C530.159 113.111 529.604 112.463 528.976 112.507C528.347 112.551 527.879 113.266 527.934 114.106H527.94Z"
                  fill="#FBFBFC"/>
            <path d="M528.003 92.9795C527.8 93.7948 528.133 94.5851 528.743 94.7407C529.353 94.8963 530.013 94.3611 530.216 93.5459C530.419 92.7306 530.086 91.9403 529.476 91.7847C528.866 91.6291 528.207 92.1643 528.003 92.9795Z"
                  fill="#FBFBFC"/>
            <path d="M531.627 82.6661C531.307 83.444 531.522 84.2717 532.108 84.5144C532.693 84.7571 533.42 84.3277 533.741 83.5498C534.061 82.7719 533.846 81.9443 533.26 81.7016C532.675 81.4589 531.948 81.8883 531.627 82.6661Z"
                  fill="#FBFBFC"/>
            <path d="M526.802 102.909C526.802 103.75 527.313 104.434 527.942 104.434C528.57 104.434 529.082 103.75 529.082 102.909C529.082 102.069 528.57 101.385 527.942 101.385C527.313 101.385 526.802 102.069 526.802 102.909Z"
                  fill="#FBFBFC"/>
            <path d="M537.592 60.2018C536.261 59.1999 535.657 58.2789 535.959 57.8619C536.008 57.7935 536.126 57.6317 537.574 57.028C537.716 56.972 537.808 56.8413 537.82 56.6857L537.789 53.9974C537.789 53.8853 537.876 53.792 537.987 53.792C538.098 53.792 538.19 53.8791 538.19 53.9911L538.221 56.6982C538.196 57.0218 538.005 57.2832 537.728 57.3952C536.458 57.9241 536.292 58.0797 536.28 58.0984C536.243 58.2104 536.514 58.8763 537.722 59.8346C537.808 59.9031 537.82 60.0276 537.753 60.1147C537.716 60.1645 537.654 60.1894 537.598 60.1894L537.592 60.2018Z"
                  fill="#C65347"/>
            <path d="M539.761 55.4042C538.799 54.4521 537.856 55.2238 537.819 55.2549C537.739 55.3233 537.622 55.3109 537.56 55.23C537.493 55.1491 537.505 55.0309 537.585 54.9624C538.017 54.6015 539.052 54.1658 539.902 55.0869C539.97 55.1615 539.97 55.2798 539.896 55.3545C539.859 55.3856 539.816 55.4042 539.767 55.4042H539.761Z"
                  fill="#FBFADC"/>
            <path d="M540.05 59.56C539.755 59.8774 539.724 60.5557 539.237 60.674C538.916 60.7549 538.608 60.5308 538.275 60.6242C537.77 60.7673 537.709 61.2776 538.01 61.707C538.312 62.1364 539.576 62.628 540.383 62.0119C540.969 61.5639 541.271 60.7113 541.178 59.977C541.16 59.8276 541.11 59.6845 541.012 59.5725C540.827 59.3671 540.469 59.3111 540.229 59.4293C540.161 59.4605 540.1 59.5102 540.05 59.56Z"
                  fill="#1A1A1A"/>
            <path d="M541.184 60.0258C540.457 60.0569 539.878 60.6605 539.878 61.4011C539.878 61.6873 539.964 61.9487 540.112 62.1665C540.204 62.1229 540.297 62.0732 540.383 62.0047C540.956 61.5629 541.258 60.7414 541.184 60.0195V60.0258Z"
                  fill="#DD6050"/>
        </g>
        <path d="M493.433 144C493.433 135.44 500.372 128.5 508.933 128.5H553.933C562.493 128.5 569.433 135.44 569.433 144C569.433 152.56 562.493 159.5 553.933 159.5H508.933C500.372 159.5 493.433 152.56 493.433 144Z"
              fill="#003480"/>
        <path d="M508.33 149L506.566 141.44H508.386L509.38 146.298L510.528 142.644V141.44H511.844L513.188 146.298L514.518 139.2H516.324L514.196 149H512.558L511.312 144.674L509.968 149H508.33ZM519.678 149.14C519.155 149.14 518.651 149.103 518.166 149.028C517.69 148.953 517.303 148.855 517.004 148.734V147.208C517.359 147.357 517.746 147.474 518.166 147.558C518.595 147.633 518.983 147.67 519.328 147.67C519.935 147.67 520.373 147.623 520.644 147.53C520.924 147.437 521.064 147.245 521.064 146.956C521.064 146.732 520.989 146.559 520.84 146.438C520.7 146.317 520.481 146.209 520.182 146.116C519.883 146.013 519.501 145.883 519.034 145.724C518.353 145.481 517.816 145.211 517.424 144.912C517.041 144.604 516.85 144.151 516.85 143.554C516.85 142.882 517.111 142.341 517.634 141.93C518.157 141.51 518.945 141.3 520 141.3C520.439 141.3 520.877 141.333 521.316 141.398C521.755 141.463 522.114 141.543 522.394 141.636V143.148C522.086 143.017 521.731 142.924 521.33 142.868C520.938 142.803 520.583 142.77 520.266 142.77C519.827 142.77 519.445 142.821 519.118 142.924C518.801 143.017 518.642 143.213 518.642 143.512C518.642 143.699 518.721 143.848 518.88 143.96C519.048 144.072 519.281 144.175 519.58 144.268C519.888 144.361 520.252 144.483 520.672 144.632C521.195 144.809 521.615 144.996 521.932 145.192C522.259 145.388 522.492 145.626 522.632 145.906C522.781 146.186 522.856 146.536 522.856 146.956C522.856 147.693 522.571 148.244 522.002 148.608C521.442 148.963 520.667 149.14 519.678 149.14ZM516.387 140.404L516.485 139.116H520.965V137.982H522.505V140.404H516.387ZM529.449 149C528.842 149 528.413 148.874 528.161 148.622C527.918 148.37 527.797 147.973 527.797 147.432V141.44H529.687V146.942C529.687 147.334 529.878 147.53 530.261 147.53H530.737V149H529.449ZM525.865 149C525.258 149 524.829 148.874 524.577 148.622C524.334 148.37 524.213 147.973 524.213 147.432V141.44H526.103V146.942C526.103 147.334 526.294 147.53 526.677 147.53H527.153V149H525.865ZM534.426 149.14C533.95 149.14 533.512 149.065 533.11 148.916C532.709 148.757 532.387 148.505 532.144 148.16C531.911 147.805 531.794 147.339 531.794 146.76C531.794 146.004 532.051 145.425 532.564 145.024C533.078 144.613 533.815 144.408 534.776 144.408H536.918V144.044C536.918 143.577 536.788 143.251 536.526 143.064C536.265 142.868 535.803 142.77 535.14 142.77C534.683 142.77 534.249 142.803 533.838 142.868C533.437 142.924 533.036 143.017 532.634 143.148V141.734C533.017 141.613 533.46 141.51 533.964 141.426C534.468 141.342 534.963 141.3 535.448 141.3C536.578 141.3 537.418 141.538 537.968 142.014C538.528 142.49 538.808 143.232 538.808 144.24V149H536.918V145.794H534.888C534.487 145.794 534.17 145.864 533.936 146.004C533.703 146.144 533.586 146.396 533.586 146.76C533.586 147.105 533.689 147.343 533.894 147.474C534.1 147.605 534.445 147.67 534.93 147.67C535.108 147.67 535.28 147.661 535.448 147.642C535.626 147.623 535.775 147.595 535.896 147.558V148.944C535.719 149 535.5 149.047 535.238 149.084C534.986 149.121 534.716 149.14 534.426 149.14ZM543.086 149.14C542.274 149.14 541.635 148.897 541.168 148.412C540.701 147.917 540.468 147.231 540.468 146.354V141.44H542.358V146.242C542.358 146.755 542.47 147.124 542.694 147.348C542.927 147.563 543.268 147.67 543.716 147.67C544.071 147.67 544.416 147.595 544.752 147.446C545.088 147.297 545.359 147.11 545.564 146.886V141.44H547.454V149H545.718L545.634 148.258C545.298 148.529 544.92 148.743 544.5 148.902C544.08 149.061 543.609 149.14 543.086 149.14ZM552.384 149.14C551.255 149.14 550.406 148.897 549.836 148.412C549.267 147.927 548.982 147.255 548.982 146.396V146.046C548.982 145.719 549.062 145.411 549.22 145.122C549.379 144.823 549.561 144.548 549.766 144.296C549.981 144.035 550.168 143.801 550.326 143.596C550.485 143.391 550.564 143.213 550.564 143.064C550.564 142.887 550.49 142.798 550.34 142.798C550.275 142.798 550.21 142.812 550.144 142.84C550.088 142.868 550.037 142.905 549.99 142.952V143.526H548.8V141.44H550.046V141.832C550.186 141.72 550.345 141.627 550.522 141.552C550.7 141.477 550.919 141.44 551.18 141.44C551.927 141.44 552.3 141.823 552.3 142.588C552.3 142.933 552.226 143.251 552.076 143.54C551.936 143.82 551.773 144.091 551.586 144.352C551.4 144.604 551.232 144.865 551.082 145.136C550.942 145.407 550.872 145.701 550.872 146.018V146.326C550.872 147.222 551.376 147.67 552.384 147.67C553.411 147.67 553.924 147.203 553.924 146.27V145.388C553.924 145.033 553.864 144.781 553.742 144.632C553.621 144.483 553.406 144.408 553.098 144.408H552.706L552.79 143.092H553.042C553.35 143.092 553.574 143.013 553.714 142.854C553.854 142.695 553.924 142.443 553.924 142.098V141.3H555.814V142.056C555.814 142.485 555.749 142.835 555.618 143.106C555.488 143.367 555.231 143.582 554.848 143.75C555.24 143.927 555.497 144.156 555.618 144.436C555.749 144.707 555.814 145.047 555.814 145.458V146.186C555.814 147.091 555.511 147.81 554.904 148.342C554.298 148.874 553.458 149.14 552.384 149.14ZM552.212 140.404V138.206H556.496L556.44 139.494H553.752V140.404H552.212Z"
              fill="white" fill-opacity="0.95"/>
        <circle cx="591.94" cy="117.843" r="8.0597" fill="#0056D5"/>
        <circle cx="577.164" cy="134.41" r="4.02985" fill="#97BDF7"/>
        <circle cx="304.925" cy="82.9627" r="77.4627" fill="#0056D5"/>
        <path d="M282.305 74.4145C281.568 74.0528 280.759 73.8634 279.939 73.8604C277.848 73.8604 275.887 75.1617 275.887 77.798V89.4472C275.885 89.5073 275.896 89.567 275.918 89.6228C275.94 89.6786 275.973 89.7292 276.015 89.7717C276.058 89.8142 276.108 89.8475 276.164 89.8697C276.219 89.8918 276.279 89.9024 276.339 89.9006H278.187C278.247 89.9023 278.306 89.8918 278.362 89.8697C278.418 89.8476 278.469 89.8143 278.511 89.7719C278.554 89.7295 278.587 89.6789 278.61 89.6231C278.633 89.5673 278.644 89.5075 278.642 89.4472V80.9548H281.038C281.098 80.956 281.158 80.9449 281.214 80.9223C281.27 80.8997 281.32 80.8661 281.363 80.8234C281.406 80.7806 281.439 80.7297 281.462 80.6737C281.484 80.6177 281.495 80.5577 281.494 80.4973V79.3932C281.495 79.3328 281.484 79.2728 281.462 79.2168C281.439 79.1607 281.406 79.1098 281.363 79.0671C281.32 79.0244 281.27 78.9907 281.214 78.9682C281.158 78.9456 281.098 78.9345 281.038 78.9356H278.642V77.7644C278.626 77.5653 278.653 77.365 278.723 77.1778C278.792 76.9905 278.902 76.821 279.044 76.6811C279.186 76.5412 279.357 76.4345 279.545 76.3685C279.733 76.3026 279.933 76.2789 280.131 76.2993C280.513 76.3091 280.888 76.3977 281.235 76.5596C281.286 76.5932 281.345 76.615 281.406 76.6234C281.467 76.6318 281.529 76.6266 281.587 76.6081C281.646 76.5897 281.7 76.5585 281.745 76.5167C281.79 76.475 281.826 76.4237 281.849 76.3665L282.497 75.1071C282.561 74.9892 282.577 74.851 282.541 74.7217C282.505 74.5924 282.421 74.4822 282.305 74.4145Z"
              fill="white"/>
        <path d="M294.197 78.4488H292.349C292.289 78.4476 292.229 78.4587 292.174 78.4814C292.118 78.504 292.068 78.5377 292.025 78.5805C291.983 78.6233 291.95 78.6742 291.928 78.7302C291.906 78.7863 291.896 78.8462 291.897 78.9064V80.2707C291.472 79.6278 290.886 79.1088 290.197 78.766C289.509 78.4233 288.742 78.269 287.975 78.3187C284.768 78.3523 282.628 80.6947 282.628 84.1412C282.628 87.6549 284.798 90.0645 288.063 90.0645C288.815 90.0999 289.562 89.9386 290.233 89.5964C290.904 89.2542 291.474 88.7428 291.889 88.1124V89.481C291.887 89.541 291.898 89.6007 291.92 89.6565C291.942 89.7123 291.975 89.763 292.017 89.8054C292.06 89.8479 292.11 89.8812 292.166 89.9034C292.221 89.9255 292.281 89.9361 292.34 89.9343H294.189C294.248 89.9361 294.308 89.9255 294.364 89.9034C294.42 89.8813 294.47 89.848 294.513 89.8056C294.556 89.7632 294.589 89.7126 294.612 89.6568C294.634 89.601 294.645 89.5412 294.644 89.481V78.9064C294.65 78.8456 294.642 78.7843 294.622 78.7268C294.602 78.6693 294.569 78.6169 294.526 78.5734C294.484 78.5298 294.432 78.4961 294.375 78.4746C294.318 78.4531 294.258 78.4443 294.197 78.4488ZM291.83 84.2881C291.832 84.6277 291.799 84.9666 291.734 85.2998C291.585 86.0029 291.196 86.6316 290.634 87.077C290.072 87.5224 289.373 87.7565 288.657 87.7388C286.742 87.7388 285.417 86.3073 285.417 84.2252C285.417 82.143 286.775 80.7115 288.657 80.7115C289.374 80.688 290.076 80.9199 290.64 81.3663C291.203 81.8127 291.59 82.4447 291.734 83.1505C291.814 83.4801 291.846 83.8193 291.83 84.158V84.2881Z"
              fill="white"/>
        <path d="M299.641 81.5088C299.641 80.7909 300.289 80.4971 301.196 80.4971C302.229 80.5387 303.239 80.8173 304.148 81.3115C304.259 81.3714 304.39 81.3847 304.511 81.3486C304.633 81.3124 304.735 81.2297 304.796 81.1184L305.377 79.9136C305.429 79.8054 305.438 79.6815 305.402 79.567C305.366 79.4525 305.289 79.3558 305.185 79.2965C304.01 78.6566 302.695 78.3205 301.359 78.3184C299.059 78.3184 297.048 79.4266 297.048 81.7691C297.015 85.8326 303.011 84.7076 303.011 86.8066C303.011 87.5538 302.3 87.8812 301.338 87.8812C300.111 87.8545 298.918 87.4694 297.905 86.773C297.849 86.736 297.785 86.7117 297.719 86.7017C297.652 86.6917 297.584 86.6962 297.52 86.7149C297.455 86.7336 297.395 86.7661 297.344 86.8102C297.293 86.8543 297.252 86.9089 297.224 86.9703L296.664 88.0659C296.619 88.1647 296.607 88.2755 296.63 88.3816C296.654 88.4876 296.711 88.5832 296.793 88.6536C298.087 89.5534 299.626 90.0299 301.2 90.018C303.634 90.018 305.707 88.8803 305.707 86.5379C305.703 82.4491 299.641 83.4482 299.641 81.5088Z"
              fill="white"/>
        <path d="M313.317 87.6459C313.299 87.5839 313.268 87.5265 313.227 87.4773C313.185 87.4281 313.134 87.3884 313.076 87.3606C313.017 87.3328 312.954 87.3177 312.89 87.3163C312.826 87.3148 312.762 87.327 312.703 87.3521C312.343 87.5055 311.96 87.5936 311.569 87.6124C310.788 87.6124 310.336 87.0582 310.336 85.824V80.9544H313.154C313.214 80.9556 313.274 80.9445 313.33 80.9219C313.386 80.8993 313.436 80.8657 313.479 80.823C313.521 80.7802 313.555 80.7293 313.578 80.6733C313.6 80.6173 313.611 80.5573 313.61 80.4969V79.3928C313.611 79.3324 313.6 79.2724 313.578 79.2164C313.555 79.1603 313.521 79.1094 313.479 79.0667C313.436 79.024 313.386 78.9903 313.33 78.9678C313.274 78.9452 313.214 78.9341 313.154 78.9352H310.336V76.236C310.337 76.1756 310.326 76.1156 310.304 76.0595C310.281 76.0035 310.248 75.9526 310.205 75.9099C310.163 75.8672 310.112 75.8335 310.056 75.8109C310 75.7883 309.94 75.7773 309.88 75.7784H308.036C307.976 75.7773 307.916 75.7883 307.861 75.8109C307.805 75.8335 307.754 75.8672 307.712 75.9099C307.669 75.9526 307.636 76.0035 307.613 76.0595C307.591 76.1156 307.58 76.1756 307.581 76.236V86.29C307.581 88.8088 309.073 90.0681 311.018 90.0681C311.879 90.0528 312.723 89.8297 313.48 89.4175C313.579 89.3691 313.657 89.2859 313.699 89.1837C313.74 89.0814 313.743 88.9674 313.706 88.8633L313.317 87.6459Z"
              fill="white"/>
        <path d="M339.6 78.3525C335.971 78.3525 333.542 80.695 333.542 84.1751C333.542 87.6552 335.971 90.0312 339.6 90.0312C343.163 90.0312 345.63 87.6552 345.63 84.1751C345.63 80.695 343.163 78.3525 339.6 78.3525ZM339.6 87.6887C337.69 87.6887 336.36 86.2572 336.36 84.2087C336.36 82.1601 337.69 80.7286 339.6 80.7286C341.511 80.7286 342.807 82.1601 342.807 84.2087C342.807 86.2572 341.478 87.6887 339.6 87.6887Z"
              fill="white"/>
        <path d="M353.824 78.3521C353.114 78.405 352.43 78.6427 351.839 79.0416C351.248 79.4406 350.771 79.9871 350.454 80.6274V78.8727C350.456 78.8125 350.445 78.7525 350.423 78.6965C350.401 78.6405 350.368 78.5896 350.326 78.5468C350.283 78.504 350.233 78.4703 350.177 78.4476C350.122 78.425 350.062 78.4139 350.002 78.4151H348.154C348.094 78.4139 348.035 78.425 347.979 78.4476C347.924 78.4703 347.873 78.504 347.831 78.5468C347.789 78.5896 347.756 78.6405 347.733 78.6965C347.711 78.7525 347.701 78.8125 347.703 78.8727V89.4136C347.701 89.4738 347.711 89.5338 347.733 89.5898C347.756 89.6458 347.789 89.6967 347.831 89.7395C347.873 89.7823 347.924 89.816 347.979 89.8387C348.035 89.8613 348.094 89.8724 348.154 89.8712H350.002C350.062 89.8724 350.122 89.8613 350.177 89.8387C350.233 89.816 350.283 89.7823 350.326 89.7395C350.368 89.6967 350.401 89.6458 350.423 89.5898C350.445 89.5338 350.456 89.4738 350.454 89.4136V84.4013C350.454 82.4493 351.75 81.085 353.891 81.043C354.01 81.0408 354.123 80.9924 354.208 80.9078C354.292 80.8233 354.34 80.7092 354.342 80.5896V78.8727C354.35 78.8025 354.341 78.7316 354.318 78.6652C354.294 78.5988 354.256 78.5384 354.206 78.4886C354.157 78.4387 354.097 78.4006 354.031 78.377C353.964 78.3534 353.894 78.3449 353.824 78.3521Z"
              fill="white"/>
        <path d="M366.401 89.2204L362.383 82.8731L365.849 79.2293C365.913 79.1651 365.956 79.0832 365.973 78.9941C365.991 78.9051 365.981 78.8128 365.947 78.7291C365.912 78.6454 365.853 78.574 365.777 78.5241C365.702 78.4741 365.613 78.4478 365.523 78.4485H363.612C363.492 78.4513 363.378 78.4975 363.29 78.5786L358.72 83.1964V74.4479C358.721 74.3875 358.71 74.3275 358.688 74.2714C358.665 74.2154 358.632 74.1645 358.589 74.1218C358.546 74.0791 358.496 74.0454 358.44 74.0228C358.384 74.0002 358.324 73.9892 358.264 73.9903H356.42C356.36 73.9892 356.3 74.0002 356.245 74.0228C356.189 74.0454 356.138 74.0791 356.096 74.1218C356.053 74.1645 356.019 74.2154 355.997 74.2714C355.974 74.3275 355.963 74.3875 355.965 74.4479V89.4471C355.963 89.5073 355.974 89.5671 355.997 89.6229C356.02 89.6787 356.053 89.7294 356.096 89.7718C356.138 89.8141 356.189 89.8474 356.245 89.8695C356.301 89.8916 356.36 89.9022 356.42 89.9004H358.264C358.324 89.9022 358.384 89.8916 358.44 89.8695C358.495 89.8474 358.546 89.8141 358.589 89.7718C358.631 89.7294 358.665 89.6787 358.688 89.6229C358.71 89.5671 358.721 89.5073 358.72 89.4471V86.7436L360.468 84.8923L363.42 89.7073C363.462 89.7736 363.519 89.8288 363.587 89.8682C363.654 89.9076 363.73 89.9302 363.808 89.934H366.012C366.094 89.932 366.174 89.9083 366.244 89.8654C366.314 89.8225 366.372 89.7619 366.411 89.6897C366.45 89.6174 366.47 89.536 366.468 89.4536C366.467 89.3713 366.443 89.2908 366.401 89.2204Z"
              fill="white"/>
        <path d="M331.785 79.8462V78.9353C331.786 78.8751 331.775 78.8152 331.753 78.7594C331.73 78.7036 331.697 78.653 331.654 78.6106C331.611 78.5682 331.561 78.535 331.505 78.5128C331.449 78.4907 331.389 78.4802 331.329 78.4819H329.486C329.426 78.4802 329.366 78.4907 329.31 78.5128C329.254 78.535 329.204 78.5682 329.161 78.6106C329.118 78.653 329.085 78.7036 329.062 78.7594C329.04 78.8152 329.029 78.8751 329.03 78.9353V81.7983C329.03 82.9401 329.063 84.0777 329.03 85.2154C329.032 85.6601 328.892 86.0938 328.629 86.4517C328.366 86.8095 327.995 87.0724 327.571 87.201C327.295 87.2737 327.007 87.287 326.726 87.2399C326.445 87.1928 326.177 87.0864 325.94 86.9277C325.703 86.769 325.502 86.5616 325.351 86.3193C325.199 86.077 325.101 85.8052 325.062 85.5218C325.045 85.196 325.045 84.8695 325.062 84.5437V78.9185C325.063 78.8581 325.052 78.7981 325.029 78.742C325.007 78.686 324.973 78.6351 324.931 78.5924C324.888 78.5497 324.838 78.516 324.782 78.4934C324.726 78.4708 324.666 78.4598 324.606 78.4609H322.762C322.702 78.4598 322.642 78.4708 322.586 78.4934C322.531 78.516 322.48 78.5497 322.437 78.5924C322.395 78.6351 322.361 78.686 322.339 78.742C322.316 78.7981 322.305 78.8581 322.306 78.9185V81.7689C322.306 82.9065 322.34 84.0442 322.306 85.1818C322.306 85.6388 322.158 86.0833 321.883 86.4478C321.608 86.8122 321.223 87.0767 320.785 87.201C320.506 87.2684 320.216 87.2751 319.935 87.2205C319.654 87.1659 319.388 87.0514 319.154 86.8847C318.921 86.718 318.726 86.503 318.582 86.2541C318.438 86.0052 318.35 85.7283 318.322 85.4421C318.305 85.1386 318.305 84.8345 318.322 84.5311V78.9059C318.323 78.8455 318.312 78.7855 318.289 78.7294C318.267 78.6734 318.233 78.6225 318.191 78.5798C318.148 78.5371 318.098 78.5034 318.042 78.4808C317.986 78.4582 317.926 78.4472 317.866 78.4483H315.989C315.929 78.4472 315.869 78.4582 315.813 78.4808C315.757 78.5034 315.707 78.5371 315.664 78.5798C315.621 78.6225 315.588 78.6734 315.565 78.7294C315.543 78.7855 315.532 78.8455 315.533 78.9059V85.2825C315.54 86.3859 315.929 87.4525 316.632 88.3007C317.335 89.1488 318.309 89.726 319.388 89.9338C320.216 90.095 321.073 89.9975 321.844 89.6545C322.614 89.3114 323.262 88.7394 323.699 88.0154C324.032 88.563 324.485 89.0268 325.024 89.371C325.564 89.7152 326.174 89.9307 326.81 90.001C328.008 90.0757 329.19 89.6916 330.117 88.9263C330.869 88.2878 331.411 87.4363 331.672 86.4832C331.822 85.8114 331.877 85.1217 331.835 84.4346C331.785 82.9065 331.785 81.3785 331.785 79.8462Z"
              fill="white"/>
        <path d="M267.564 87.4537L262.347 83.3948L262.451 84.1797C262.5 84.499 262.525 84.8218 262.525 85.1451C262.525 85.4258 262.507 85.7062 262.471 85.9846L266.332 88.9899C266.69 89.2469 266.941 89.6299 267.035 90.064C267.128 90.4981 267.059 90.9519 266.839 91.3368C266.619 91.7216 266.266 92.0097 265.847 92.1447C265.429 92.2797 264.975 92.2519 264.576 92.0666L258.765 89.6363C259.552 89.1882 260.207 88.5365 260.663 87.748C261.119 86.9595 261.359 86.0626 261.359 85.1493C261.358 84.8212 261.328 84.4938 261.268 84.1713L259.944 74.0975C259.827 73.195 259.39 72.3662 258.714 71.7656C258.038 71.1651 257.168 70.834 256.268 70.834C255.368 70.834 254.499 71.1651 253.823 71.7656C253.146 72.3662 252.709 73.195 252.593 74.0975L251.725 80.6958L252.344 80.2131C252.593 80.0104 252.859 79.8279 253.137 79.6675C253.373 79.5302 253.617 79.4069 253.867 79.2981L254.511 74.4165C254.553 73.9754 254.756 73.5661 255.081 73.2682C255.405 72.9704 255.828 72.8055 256.266 72.8055C256.705 72.8055 257.127 72.9704 257.452 73.2682C257.776 73.5661 257.98 73.9754 258.022 74.4165L258.852 80.7126C257.925 80.1621 256.849 79.9221 255.778 80.0268C254.708 80.1316 253.698 80.5759 252.892 81.2961L244.96 87.4663C244.243 88.0189 243.75 88.8167 243.573 89.7104C243.396 90.6041 243.547 91.5325 243.997 92.3218C244.448 93.1111 245.168 93.7073 246.022 93.9987C246.876 94.2901 247.806 94.2568 248.637 93.9051L254.718 91.3657L253.996 91.0635C253.7 90.9449 253.413 90.8046 253.137 90.6437C252.899 90.506 252.672 90.3517 252.456 90.182L247.948 92.0666C247.549 92.2519 247.096 92.2797 246.677 92.1447C246.258 92.0097 245.905 91.7216 245.685 91.3368C245.465 90.9519 245.396 90.4981 245.49 90.064C245.584 89.6299 245.834 89.2469 246.193 88.9899L251.173 85.1115C251.173 85.1115 251.173 85.1367 251.173 85.1493C251.174 86.2003 251.493 87.2259 252.086 88.0886C252.68 88.9514 253.52 89.61 254.494 89.9763L263.895 93.8925C264.726 94.2415 265.655 94.2727 266.507 93.9804C267.359 93.688 268.077 93.0921 268.527 92.3038C268.977 91.5155 269.127 90.5886 268.951 89.6962C268.775 88.8037 268.283 88.0067 267.568 87.4537H267.564ZM253.103 85.1367C253.104 84.5076 253.289 83.8929 253.636 83.3702C253.982 82.8475 254.474 82.4404 255.049 82.2002C255.623 81.9601 256.256 81.8977 256.866 82.0209C257.476 82.1441 258.036 82.4475 258.476 82.8926C258.915 83.3378 259.215 83.9047 259.336 84.5217C259.457 85.1388 259.394 85.7783 259.156 86.3594C258.918 86.9405 258.514 87.4372 257.997 87.7866C257.48 88.136 256.872 88.3225 256.25 88.3225C255.836 88.3225 255.427 88.2401 255.045 88.0799C254.663 87.9198 254.316 87.6851 254.023 87.3892C253.731 87.0933 253.5 86.742 253.342 86.3555C253.184 85.969 253.103 85.5549 253.103 85.1367Z"
              fill="white"/>
        <path d="M474.364 84.9389C474.714 84.5892 474.714 84.0222 474.364 83.6724L468.665 77.9734C468.316 77.6236 467.749 77.6236 467.399 77.9734C467.049 78.3231 467.049 78.8901 467.399 79.2398L472.465 84.3057L467.399 89.3715C467.049 89.7212 467.049 90.2882 467.399 90.638C467.749 90.9877 468.316 90.9877 468.665 90.638L474.364 84.9389ZM379.701 85.2012H381.838V83.4101H379.701V85.2012ZM386.113 85.2012H390.387V83.4101H386.113V85.2012ZM394.661 85.2012H398.935V83.4101H394.661V85.2012ZM403.209 85.2012H407.483V83.4101H403.209V85.2012ZM411.757 85.2012H416.031V83.4101H411.757V85.2012ZM420.305 85.2012H424.579V83.4101H420.305V85.2012ZM428.853 85.2012H433.127V83.4101H428.853V85.2012ZM437.402 85.2012H441.676V83.4101H437.402V85.2012ZM445.95 85.2012H450.224V83.4101H445.95V85.2012ZM454.498 85.2012H458.772V83.4101H454.498V85.2012ZM463.046 85.2012H467.32V83.4101H463.046V85.2012ZM471.594 85.2012H473.731V83.4101H471.594V85.2012Z"
              fill="#0056D5"/>
        <path d="M119.367 83.6724C119.017 84.0222 119.017 84.5892 119.367 84.9389L125.066 90.638C125.415 90.9877 125.982 90.9877 126.332 90.638C126.682 90.2882 126.682 89.7212 126.332 89.3715L121.266 84.3057L126.332 79.2398C126.682 78.8901 126.682 78.3231 126.332 77.9734C125.982 77.6236 125.415 77.6236 125.066 77.9734L119.367 83.6724ZM230.149 83.4101H227.854V85.2012H230.149V83.4101ZM223.265 83.4101H218.675V85.2012H223.265V83.4101ZM214.086 83.4101H209.496V85.2012H214.086V83.4101ZM204.907 83.4101H200.317V85.2012H204.907V83.4101ZM195.728 83.4101H191.138V85.2012H195.728V83.4101ZM186.548 83.4101H181.959V85.2012H186.548V83.4101ZM177.369 83.4101H172.78V85.2012H177.369V83.4101ZM168.19 83.4101H163.601V85.2012H168.19V83.4101ZM159.011 83.4101H154.422V85.2012H159.011V83.4101ZM149.832 83.4101H145.242V85.2012H149.832V83.4101ZM140.653 83.4101H136.063V85.2012H140.653V83.4101ZM131.474 83.4101H126.884V85.2012H131.474V83.4101ZM122.295 83.4101H120V85.2012H122.295V83.4101Z"
              fill="#0056D5"/>
        <path d="M144 83.8506C144 77.1779 149.409 71.7686 156.082 71.7686H202.828C209.501 71.7686 214.91 77.1779 214.91 83.8506C214.91 90.5234 209.501 95.9327 202.828 95.9327H156.082C149.409 95.9327 144 90.5234 144 83.8506Z"
              fill="#0056D5"/>
        <path d="M155.366 87.3506C154.9 87.3506 154.57 87.2539 154.377 87.0604C154.191 86.867 154.097 86.5625 154.097 86.147V81.5261C154.097 81.1464 154.162 80.8276 154.291 80.5697C154.42 80.3046 154.592 80.0969 154.807 79.9464H153.141V78.818H156.558V79.8712C156.2 80.0001 155.942 80.2043 155.785 80.4837C155.627 80.756 155.548 81.1249 155.548 81.5906V85.7709C155.548 86.0718 155.695 86.2222 155.989 86.2222H156.354V87.3506H155.366ZM159.467 87.458C159.001 87.458 158.585 87.3578 158.22 87.1572C157.855 86.9566 157.564 86.6449 157.349 86.2222C157.142 85.7924 157.038 85.2407 157.038 84.5673C157.038 83.5786 157.292 82.8121 157.801 82.2676C158.317 81.716 159.072 81.4401 160.068 81.4401C160.763 81.4401 161.326 81.5583 161.755 81.7948C162.185 82.024 162.497 82.3213 162.69 82.6867C162.891 83.0521 162.991 83.4389 162.991 83.8473V87.3506H161.541V83.944C161.541 83.6718 161.498 83.4354 161.412 83.2348C161.326 83.027 161.172 82.8658 160.95 82.7512C160.735 82.6294 160.434 82.5685 160.047 82.5685C158.958 82.5685 158.413 83.2348 158.413 84.5673C158.413 85.2192 158.528 85.6777 158.757 85.9428C158.987 86.2007 159.309 86.3297 159.724 86.3297C159.861 86.3297 159.993 86.3225 160.122 86.3082C160.258 86.2939 160.373 86.2724 160.466 86.2437V87.3076C160.337 87.3578 160.194 87.3936 160.036 87.4151C159.878 87.4437 159.689 87.458 159.467 87.458ZM160.33 80.7524V79.796H159.491V78.8073H161.308V79.7637H163.607L163.554 80.7524H160.33ZM164.274 87.3506V83.7506C164.274 83.0485 164.488 82.4897 164.918 82.0742C165.355 81.6515 166.054 81.4401 167.014 81.4401C167.974 81.4401 168.669 81.6515 169.099 82.0742C169.528 82.4897 169.743 83.0485 169.743 83.7506V87.3506H168.293V83.6431C168.293 83.2849 168.178 83.0163 167.949 82.8372C167.727 82.658 167.415 82.5685 167.014 82.5685C166.154 82.5685 165.724 82.9267 165.724 83.6431V84.6855C165.86 84.5852 166.011 84.5028 166.176 84.4383C166.348 84.3739 166.534 84.3416 166.734 84.3416H167.433L167.476 85.4915H166.702C166.502 85.4915 166.322 85.5201 166.165 85.5775C166.007 85.6276 165.86 85.7028 165.724 85.8031V87.3506H164.274ZM173.031 87.458C172.408 87.458 171.917 87.2718 171.559 86.8992C171.201 86.5195 171.021 85.993 171.021 85.3195V81.5476H172.472V85.2336C172.472 85.6276 172.558 85.9106 172.73 86.0825C172.909 86.2473 173.171 86.3297 173.515 86.3297C173.787 86.3297 174.052 86.2724 174.31 86.1577C174.568 86.0431 174.775 85.8998 174.933 85.7279V81.5476H176.384V87.3506H175.051L174.987 86.781C174.729 86.9888 174.439 87.1536 174.116 87.2754C173.794 87.3972 173.432 87.458 173.031 87.458ZM177.664 87.3506V81.5476H178.997L179.061 82.1172C179.319 81.9094 179.617 81.7446 179.953 81.6228C180.297 81.501 180.67 81.4401 181.071 81.4401C181.68 81.4401 182.156 81.6264 182.5 81.9989C182.851 82.3715 183.027 82.8837 183.027 83.5357V87.3506H181.576V83.6216C181.576 83.2491 181.486 82.9804 181.307 82.8157C181.135 82.6509 180.878 82.5685 180.534 82.5685C180.269 82.5685 180.004 82.6258 179.738 82.7404C179.481 82.8551 179.273 82.9983 179.115 83.1703V87.3506H177.664ZM182.341 80.9351C181.983 80.9351 181.678 80.8204 181.427 80.5912C181.169 80.3548 181.04 80.0575 181.04 79.6992C181.04 79.341 181.169 79.0437 181.427 78.8073C181.678 78.5709 181.983 78.4527 182.341 78.4527C182.699 78.4527 183.003 78.5709 183.254 78.8073C183.505 79.0437 183.63 79.341 183.63 79.6992C183.63 80.0575 183.505 80.3548 183.254 80.5912C183.003 80.8204 182.699 80.9351 182.341 80.9351ZM182.341 80.1721C182.47 80.1721 182.581 80.1255 182.674 80.0324C182.767 79.9321 182.814 79.821 182.814 79.6992C182.814 79.5703 182.767 79.4592 182.674 79.3661C182.581 79.2658 182.47 79.2157 182.341 79.2157C182.212 79.2157 182.101 79.2658 182.008 79.3661C181.907 79.4592 181.857 79.5703 181.857 79.6992C181.857 79.821 181.907 79.9321 182.008 80.0324C182.101 80.1255 182.212 80.1721 182.341 80.1721ZM186.36 87.3506V83.7828C186.36 83.396 186.285 83.0986 186.134 82.8909C185.984 82.676 185.683 82.5685 185.232 82.5685C184.995 82.5685 184.744 82.5972 184.479 82.6545C184.214 82.7046 183.978 82.7691 183.77 82.8479V81.784C183.985 81.6837 184.25 81.6013 184.565 81.5369C184.88 81.4724 185.196 81.4401 185.511 81.4401C186.328 81.4401 186.915 81.6157 187.273 81.9667C187.632 82.3106 187.811 82.8479 187.811 83.5786V87.3506H186.36ZM191.274 87.458C191.081 87.458 190.873 87.4437 190.651 87.4151C190.436 87.3864 190.246 87.347 190.081 87.2969L188.448 83.3207H189.856L191.135 86.4264C191.672 86.4264 192.059 86.2473 192.295 85.8891C192.539 85.5237 192.661 84.9828 192.661 84.2664C192.661 83.8366 192.618 83.4998 192.532 83.2563C192.453 83.0127 192.32 82.8407 192.134 82.7404C191.948 82.633 191.69 82.5792 191.36 82.5792H190.92V81.5476H191.564C192.417 81.5476 193.04 81.7733 193.434 82.2246C193.835 82.6688 194.036 83.3494 194.036 84.2664C194.036 85.0186 193.918 85.6312 193.681 86.104C193.445 86.5697 193.119 86.9136 192.704 87.1357C192.295 87.3506 191.819 87.458 191.274 87.458ZM196.812 87.3506V83.7828C196.812 83.396 196.737 83.0986 196.587 82.8909C196.436 82.676 196.135 82.5685 195.684 82.5685C195.448 82.5685 195.197 82.5972 194.932 82.6545C194.667 82.7046 194.43 82.7691 194.222 82.8479V81.784C194.437 81.6837 194.702 81.6013 195.018 81.5369C195.333 81.4724 195.648 81.4401 195.963 81.4401C196.78 81.4401 197.368 81.6157 197.726 81.9667C198.084 82.3106 198.263 82.8479 198.263 83.5786V87.3506H196.812ZM201.555 87.458C200.931 87.458 200.441 87.2718 200.083 86.8992C199.724 86.5195 199.545 85.993 199.545 85.3195V81.5476H200.996V85.2336C200.996 85.6276 201.082 85.9106 201.254 86.0825C201.433 86.2473 201.694 86.3297 202.038 86.3297C202.311 86.3297 202.576 86.2724 202.834 86.1577C203.091 86.0431 203.299 85.8998 203.457 85.7279V81.5476H204.908V87.3506H203.575L203.511 86.781C203.253 86.9888 202.963 87.1536 202.64 87.2754C202.318 87.3972 201.956 87.458 201.555 87.458Z"
              fill="white" fill-opacity="0.95"/>
        <path d="M394.925 83.8506C394.925 77.1779 400.335 71.7686 407.007 71.7686H438.754C445.426 71.7686 450.836 77.1779 450.836 83.8506C450.836 90.5234 445.426 95.9327 438.754 95.9327H407.007C400.335 95.9327 394.925 90.5234 394.925 83.8506Z"
              fill="#0056D5"/>
        <path d="M406.226 87.3506C405.761 87.3506 405.431 87.2539 405.238 87.0604C405.051 86.867 404.958 86.5625 404.958 86.147V81.5261C404.958 81.1464 405.023 80.8276 405.152 80.5697C405.281 80.3046 405.453 80.0969 405.668 79.9464H404.002V78.818H407.419V79.8712C407.061 80.0001 406.803 80.2043 406.645 80.4837C406.488 80.756 406.409 81.1249 406.409 81.5906V85.7709C406.409 86.0718 406.556 86.2222 406.85 86.2222H407.215V87.3506H406.226ZM410.327 87.458C409.862 87.458 409.446 87.3578 409.081 87.1572C408.715 86.9566 408.425 86.6449 408.21 86.2222C408.003 85.7924 407.899 85.2407 407.899 84.5673C407.899 83.5786 408.153 82.8121 408.662 82.2676C409.177 81.716 409.933 81.4401 410.929 81.4401C411.624 81.4401 412.186 81.5583 412.616 81.7948C413.046 82.024 413.358 82.3213 413.551 82.6867C413.752 83.0521 413.852 83.4389 413.852 83.8473V87.3506H412.401V83.944C412.401 83.6718 412.358 83.4354 412.272 83.2348C412.186 83.027 412.032 82.8658 411.81 82.7512C411.595 82.6294 411.294 82.5685 410.908 82.5685C409.819 82.5685 409.274 83.2348 409.274 84.5673C409.274 85.2192 409.389 85.6777 409.618 85.9428C409.847 86.2007 410.17 86.3297 410.585 86.3297C410.721 86.3297 410.854 86.3225 410.983 86.3082C411.119 86.2939 411.234 86.2724 411.327 86.2437V87.3076C411.198 87.3578 411.054 87.3936 410.897 87.4151C410.739 87.4437 410.549 87.458 410.327 87.458ZM411.19 80.7524V79.796H410.352V78.8073H412.168V79.7637H414.468L414.414 80.7524H411.19ZM417.09 87.458C416.689 87.458 416.302 87.4294 415.93 87.3721C415.564 87.3148 415.267 87.2395 415.038 87.1464V85.9751C415.31 86.0897 415.607 86.1792 415.93 86.2437C416.259 86.301 416.556 86.3297 416.822 86.3297C417.287 86.3297 417.624 86.2939 417.832 86.2222C418.047 86.1506 418.154 86.0037 418.154 85.7816C418.154 85.6097 418.097 85.4772 417.982 85.384C417.875 85.2909 417.706 85.2085 417.477 85.1369C417.248 85.058 416.954 84.9577 416.596 84.836C416.073 84.6497 415.661 84.4419 415.36 84.2127C415.066 83.9763 414.919 83.6288 414.919 83.1703C414.919 82.6545 415.12 82.2389 415.521 81.9237C415.922 81.6013 416.528 81.4401 417.337 81.4401C417.674 81.4401 418.011 81.4652 418.347 81.5154C418.684 81.5655 418.96 81.6264 419.175 81.698V82.8586C418.939 82.7583 418.666 82.6867 418.358 82.6437C418.057 82.5936 417.785 82.5685 417.542 82.5685C417.205 82.5685 416.911 82.6079 416.66 82.6867C416.417 82.7583 416.295 82.9088 416.295 83.138C416.295 83.2813 416.356 83.396 416.478 83.4819C416.607 83.5679 416.786 83.6467 417.015 83.7183C417.251 83.79 417.531 83.8831 417.853 83.9977C418.254 84.1339 418.577 84.2772 418.82 84.4276C419.071 84.578 419.25 84.7607 419.358 84.9757C419.472 85.1906 419.53 85.4592 419.53 85.7816C419.53 86.3476 419.311 86.7703 418.874 87.0497C418.444 87.3219 417.85 87.458 417.09 87.458ZM422.592 87.3506V83.7828C422.592 83.396 422.516 83.0986 422.366 82.8909C422.215 82.676 421.915 82.5685 421.463 82.5685C421.227 82.5685 420.976 82.5972 420.711 82.6545C420.446 82.7046 420.209 82.7691 420.002 82.8479V81.784C420.217 81.6837 420.482 81.6013 420.797 81.5369C421.112 81.4724 421.427 81.4401 421.743 81.4401C422.559 81.4401 423.147 81.6157 423.505 81.9667C423.863 82.3106 424.042 82.8479 424.042 83.5786V87.3506H422.592ZM427.818 87.458C427.309 87.458 426.843 87.4007 426.421 87.2861C425.998 87.1715 425.661 86.978 425.41 86.7058C425.16 86.4264 425.034 86.0539 425.034 85.5882C425.034 85.3375 425.092 85.101 425.206 84.8789C425.328 84.6497 425.514 84.467 425.765 84.3309C425.557 84.2377 425.385 84.0909 425.249 83.8903C425.12 83.6897 425.056 83.4461 425.056 83.1595C425.056 82.5936 425.235 82.1673 425.593 81.8807C425.951 81.587 426.413 81.4401 426.979 81.4401C427.201 81.4401 427.391 81.4545 427.549 81.4831C427.707 81.5046 427.85 81.5404 427.979 81.5906V82.6545C427.771 82.5972 427.524 82.5685 427.237 82.5685C426.972 82.5685 426.772 82.6151 426.635 82.7082C426.499 82.7942 426.431 82.9446 426.431 83.1595C426.431 83.396 426.507 83.5607 426.657 83.6539C426.807 83.7398 427.033 83.7828 427.334 83.7828H427.936L427.99 84.8467H427.323C426.714 84.8467 426.41 85.0939 426.41 85.5882C426.41 85.8318 426.517 86.018 426.732 86.147C426.954 86.2688 427.295 86.3297 427.753 86.3297C428.219 86.3297 428.563 86.233 428.785 86.0395C429.007 85.8461 429.118 85.5667 429.118 85.2013V81.5476H430.569V85.0724C430.569 85.9106 430.329 86.5195 429.849 86.8992C429.376 87.2718 428.699 87.458 427.818 87.458ZM433.27 87.3506C432.805 87.3506 432.475 87.2539 432.282 87.0604C432.096 86.867 432.002 86.5625 432.002 86.147V81.5261C432.002 81.1464 432.067 80.8276 432.196 80.5697C432.325 80.3046 432.497 80.0969 432.712 79.9464H431.046V78.818H434.463V79.8712C434.105 80.0001 433.847 80.2043 433.69 80.4837C433.532 80.756 433.453 81.1249 433.453 81.5906V85.7709C433.453 86.0718 433.6 86.2222 433.894 86.2222H434.259V87.3506H433.27ZM437.371 87.458C436.906 87.458 436.49 87.3578 436.125 87.1572C435.759 86.9566 435.469 86.6449 435.254 86.2222C435.047 85.7924 434.943 85.2407 434.943 84.5673C434.943 83.5786 435.197 82.8121 435.706 82.2676C436.222 81.716 436.977 81.4401 437.973 81.4401C438.668 81.4401 439.231 81.5583 439.66 81.7948C440.09 82.024 440.402 82.3213 440.595 82.6867C440.796 83.0521 440.896 83.4389 440.896 83.8473V87.3506H439.445V83.944C439.445 83.6718 439.402 83.4354 439.316 83.2348C439.231 83.027 439.076 82.8658 438.854 82.7512C438.639 82.6294 438.339 82.5685 437.952 82.5685C436.863 82.5685 436.318 83.2348 436.318 84.5673C436.318 85.2192 436.433 85.6777 436.662 85.9428C436.891 86.2007 437.214 86.3297 437.629 86.3297C437.765 86.3297 437.898 86.3225 438.027 86.3082C438.163 86.2939 438.278 86.2724 438.371 86.2437V87.3076C438.242 87.3578 438.099 87.3936 437.941 87.4151C437.783 87.4437 437.594 87.458 437.371 87.458ZM438.235 80.7524V79.796H437.396V78.8073H439.212V79.7637H441.512L441.458 80.7524H438.235Z"
              fill="white" fill-opacity="0.95"/>
    </g>
    <defs>
        <linearGradient id="paint0_linear_321_53971" x1="91.8079" y1="65.4032" x2="91.8079" y2="162.75"
                        gradientUnits="userSpaceOnUse">
            <stop offset="0.22" stop-color="#FFC123"/>
            <stop offset="0.78" stop-color="#D09F0B"/>
        </linearGradient>
        <linearGradient id="paint1_linear_321_53971" x1="93.7703" y1="123.667" x2="93.7703" y2="152.844"
                        gradientUnits="userSpaceOnUse">
            <stop stop-color="#808080"/>
            <stop offset="1"/>
        </linearGradient>
        <linearGradient id="paint2_linear_321_53971" x1="55.6427" y1="80.7605" x2="55.6427" y2="148.639"
                        gradientUnits="userSpaceOnUse">
            <stop stop-color="#808080"/>
            <stop offset="1"/>
        </linearGradient>
        <linearGradient id="paint3_linear_321_53971" x1="85.9988" y1="107.104" x2="105.125" y2="107.104"
                        gradientUnits="userSpaceOnUse">
            <stop stop-color="#808080"/>
            <stop offset="1"/>
        </linearGradient>
        <linearGradient id="paint4_linear_321_53971" x1="106.623" y1="109.421" x2="97.2987" y2="104.998"
                        gradientUnits="userSpaceOnUse">
            <stop stop-color="#FFAF99"/>
            <stop offset="1" stop-color="#ED6F5F"/>
        </linearGradient>
        <linearGradient id="paint5_linear_321_53971" x1="64.4837" y1="76.8904" x2="65.687" y2="69.8175"
                        gradientUnits="userSpaceOnUse">
            <stop stop-color="#FFAF99"/>
            <stop offset="1" stop-color="#ED6F5F"/>
        </linearGradient>
        <linearGradient id="paint6_linear_321_53971" x1="71.3497" y1="62.5972" x2="63.0521" y2="67.774"
                        gradientUnits="userSpaceOnUse">
            <stop stop-color="#FFAF99"/>
            <stop offset="1" stop-color="#ED6F5F"/>
        </linearGradient>
        <linearGradient id="paint7_linear_321_53971" x1="46.8287" y1="111.268" x2="46.8287" y2="152.373"
                        gradientUnits="userSpaceOnUse">
            <stop stop-color="#808080"/>
            <stop offset="1"/>
        </linearGradient>
        <linearGradient id="paint8_linear_321_53971" x1="92.5933" y1="104.767" x2="48.1387" y2="114.127"
                        gradientUnits="userSpaceOnUse">
            <stop stop-color="#FFAF99"/>
            <stop offset="1" stop-color="#ED6F5F"/>
        </linearGradient>
        <linearGradient id="paint9_linear_321_53971" x1="64.5027" y1="58.3303" x2="60.7651" y2="57.5333"
                        gradientUnits="userSpaceOnUse">
            <stop stop-color="#FFAF99"/>
            <stop offset="1" stop-color="#F58C79"/>
        </linearGradient>
        <linearGradient id="paint10_linear_321_53971" x1="543.816" y1="74.9263" x2="543.816" y2="68.1805"
                        gradientUnits="userSpaceOnUse">
            <stop stop-color="#FFAF99"/>
            <stop offset="1" stop-color="#ED6F5F"/>
        </linearGradient>
        <linearGradient id="paint11_linear_321_53971" x1="536.686" y1="60.5312" x2="551.932" y2="60.5312"
                        gradientUnits="userSpaceOnUse">
            <stop stop-color="#FFAF99"/>
            <stop offset="1" stop-color="#ED6F5F"/>
        </linearGradient>
        <linearGradient id="paint12_linear_321_53971" x1="514.198" y1="91.7018" x2="514.198" y2="143.385"
                        gradientUnits="userSpaceOnUse">
            <stop stop-color="#808080"/>
            <stop offset="1"/>
        </linearGradient>
        <linearGradient id="paint13_linear_321_53971" x1="550.338" y1="79.5628" x2="550.338" y2="165.075"
                        gradientUnits="userSpaceOnUse">
            <stop stop-color="#808080"/>
            <stop offset="1"/>
        </linearGradient>
        <linearGradient id="paint14_linear_321_53971" x1="467.472" y1="94.0434" x2="541.394" y2="94.0434"
                        gradientUnits="userSpaceOnUse">
            <stop stop-color="#808080"/>
            <stop offset="1"/>
        </linearGradient>
        <linearGradient id="paint15_linear_321_53971" x1="499.649" y1="100.558" x2="533.931" y2="140.853"
                        gradientUnits="userSpaceOnUse">
            <stop stop-color="#FFAF99"/>
            <stop offset="1" stop-color="#ED6F5F"/>
        </linearGradient>
        <linearGradient id="paint16_linear_321_53971" x1="546.324" y1="88.7842" x2="546.324" y2="151.806"
                        gradientUnits="userSpaceOnUse">
            <stop stop-color="#808080"/>
            <stop offset="1"/>
        </linearGradient>
        <clipPath id="clip0_321_53971">
            <rect width="600" height="164" fill="white"/>
        </clipPath>
    </defs>
</svg>
