<svg width="104" height="128" viewBox="0 0 104 128" fill="none" xmlns="http://www.w3.org/2000/svg">
    <path fill-rule="evenodd" clip-rule="evenodd"
          d="M141.936 -217.788C141.919 -217.761 141.902 -217.735 141.884 -217.708C140.548 -215.624 139.273 -213.478 138.063 -211.272L137.972 -211.105C137.873 -210.924 137.776 -210.744 137.678 -210.563C137.663 -210.535 137.648 -210.506 137.633 -210.478L137.629 -210.48L9.97951 22.4097L9.98834 22.415C9.78205 22.7771 9.57839 23.1415 9.37726 23.5084C-11.5729 61.7307 3.76013 111.87 43.6245 135.498C79.5298 156.78 123.09 149.295 146.695 119.671L327.887 -63.0068C335.097 -70.1066 341.398 -78.3639 346.524 -87.7153C376.776 -142.909 354.635 -215.311 297.07 -249.431C241.836 -282.168 174.058 -267.765 141.936 -217.788ZM47.7819 44.4265C39.3213 59.864 44.293 84.9817 66.0525 97.8788C84.8135 108.999 103.677 103.511 112.452 92.499L113.938 90.6337L296.993 -93.9223L297.178 -94.1046C301.353 -98.2159 305.057 -103.047 308.118 -108.632C325.882 -141.041 314.103 -188.422 274.642 -211.811C236.008 -234.71 193.517 -221.437 176.477 -190.37C176.474 -190.365 176.471 -190.36 176.468 -190.355L176.415 -190.256C176.413 -190.253 176.412 -190.251 176.41 -190.248C176.343 -190.125 176.276 -190.001 176.208 -189.874L154.649 -149.773L154.328 -149.961L68.5648 6.50946L69.174 6.87543L48.0397 43.9652C47.9542 44.1154 47.8679 44.2697 47.7819 44.4265Z"
          fill="white"/>
</svg>
