<svg width="275" height="180" viewBox="0 0 275 180" fill="none" xmlns="http://www.w3.org/2000/svg">
    <g clip-path="url(#clip0_232_419)">
        <path d="M228.983 0.236084H133.07C131.333 0.236084 129.925 1.61711 129.925 3.32068V63.7766C129.925 65.4802 131.333 66.8612 133.07 66.8612H228.983C230.72 66.8612 232.128 65.4802 232.128 63.7766V3.32068C232.128 1.61711 230.72 0.236084 228.983 0.236084Z"
              fill="white"/>
        <path d="M228.983 0.236084H133.07C131.333 0.236084 129.925 1.61711 129.925 3.32068V63.7766C129.925 65.4802 131.333 66.8612 133.07 66.8612H228.983C230.72 66.8612 232.128 65.4802 232.128 63.7766V3.32068C232.128 1.61711 230.72 0.236084 228.983 0.236084Z"
              stroke="#231F20" stroke-width="0.474643" stroke-linecap="round" stroke-linejoin="round"/>
        <path d="M137.712 55.9191H225.315L209.68 30.0941C207.575 26.6187 203.197 26.0281 200.409 28.8427L183.267 46.1559L160.127 19.4593C157.011 15.8632 151.602 17.0509 149.944 21.6954L137.714 55.9191H137.712Z"
              fill="#D1E1FA"/>
        <path d="M186.676 26.827C189.641 26.1407 191.478 23.2272 190.778 20.3194C190.078 17.4117 187.107 15.6109 184.142 16.2972C181.177 16.9834 179.341 19.897 180.041 22.8047C180.74 25.7124 183.711 27.5133 186.676 26.827Z"
              fill="#D1E1FA"/>
        <path d="M115.465 68.4901V134.292C115.465 135.922 114.117 137.243 112.455 137.243H3.75065C2.08842 137.243 0.740723 135.922 0.740723 134.292V68.4901C0.740723 66.86 2.08842 65.5383 3.75065 65.5383H112.456C114.119 65.5383 115.466 66.86 115.466 68.4901H115.465Z"
              fill="#5F99ED"/>
        <path d="M115.465 68.4901V75.4222H0.740723V68.4901C0.740723 66.86 2.08842 65.5383 3.75065 65.5383H112.456C114.119 65.5383 115.466 66.86 115.466 68.4901H115.465Z"
              fill="white"/>
        <path d="M115.465 68.4901V75.4222H0.740723V68.4901C0.740723 66.86 2.08842 65.5383 3.75065 65.5383H112.456C114.119 65.5383 115.466 66.86 115.466 68.4901H115.465Z"
              stroke="#231F20" stroke-width="0.474643" stroke-linecap="round" stroke-linejoin="round"/>
        <path d="M115.465 68.4901V134.292C115.465 135.922 114.117 137.243 112.455 137.243H3.75065C2.08842 137.243 0.740723 135.922 0.740723 134.292V68.4901C0.740723 66.86 2.08842 65.5383 3.75065 65.5383H112.456C114.119 65.5383 115.466 66.86 115.466 68.4901H115.465Z"
              stroke="#231F20" stroke-width="0.474643" stroke-linecap="round" stroke-linejoin="round"/>
        <path d="M55.0212 119.195C64.2453 119.195 71.723 111.862 71.723 102.816C71.723 93.7699 64.2453 86.4368 55.0212 86.4368C45.797 86.4368 38.3193 93.7699 38.3193 102.816C38.3193 111.862 45.797 119.195 55.0212 119.195Z"
              fill="white"/>
        <path d="M53.8324 94.7543L62.1178 101.353C63.0077 102.062 63.0155 103.391 62.1335 104.11L53.8481 110.863C52.6627 111.829 50.865 111.003 50.865 109.491V96.1397C50.865 94.6369 52.6425 93.807 53.8313 94.7543H53.8324Z"
              fill="#231F20"/>
        <path d="M109.455 71.7022C110.043 71.4635 110.322 70.8028 110.079 70.2264C109.835 69.6501 109.161 69.3764 108.574 69.6151C107.986 69.8538 107.707 70.5146 107.95 71.0909C108.194 71.6673 108.868 71.941 109.455 71.7022Z"
              fill="#231F20"/>
        <path d="M98.8725 71.702C99.4602 71.4633 99.7392 70.8025 99.4958 70.2262C99.2524 69.6498 98.5786 69.3761 97.9909 69.6149C97.4032 69.8536 97.1241 70.5143 97.3675 71.0907C97.611 71.667 98.2847 71.9407 98.8725 71.702Z"
              fill="#231F20"/>
        <path d="M104.841 70.9132C104.987 70.3061 104.603 69.6977 103.984 69.5544C103.365 69.4111 102.745 69.7872 102.599 70.3943C102.452 71.0015 102.836 71.6098 103.455 71.7531C104.074 71.8964 104.694 71.5204 104.841 70.9132Z"
              fill="#231F20"/>
        <path d="M213.564 72.016C210.303 76.8833 203.527 78.1347 197.612 77.6243C191.697 77.1138 185.851 75.2982 179.936 75.8196C176.629 76.1105 173.315 77.1314 170.044 76.5716C164.751 75.667 160.893 70.8865 161.639 65.669C162.011 63.0773 165.059 61.569 167.72 61.7765C170.38 61.9828 172.758 63.3901 175.148 64.5559C177.538 65.7206 180.271 66.6877 182.832 65.9533C185.169 65.2826 186.853 63.3495 188.8 61.9181C193.544 58.4328 200.419 58.019 205.562 60.9082L207.639 63.7919L200.619 67.4385L209.508 66.388L213.563 72.016H213.564Z"
              fill="#231F20"/>
        <path d="M213.26 178.273H146.987L155 153.646L205.496 153.614C211.597 162.781 214.142 170.99 213.26 178.273Z"
              fill="#231F20"/>
        <path d="M206.55 150.929L205.496 153.614L154.948 153.82C150.938 152.544 150.189 143.196 149.05 134.817C135.781 128.828 137.677 123.25 140.441 112.445L149.514 98.076L152.006 94.1297L173.579 91.1636L176.633 90.2657L177.335 90.0593L200.09 106.489L207.563 126.008C207.575 136.549 209.914 145.494 206.55 150.927V150.929Z"
              fill="#0056D5"/>
        <path d="M252.9 170.137C252.59 169.858 227.027 146.148 210.822 131.117L231.33 111.95L270.294 151.214C282.126 161.972 266.635 182.493 252.899 170.136L252.9 170.137Z"
              fill="#F7BBBA"/>
        <path d="M231.33 111.95L210.821 131.117C209.877 130.242 208.966 129.397 208.094 128.587C207.876 128.385 207.66 128.185 207.446 127.987C205.802 126.462 204.306 125.074 203.009 123.87C202.943 123.809 202.877 123.748 202.812 123.687C201.966 122.902 201.206 122.198 200.55 121.59C200.456 121.502 200.365 121.418 200.274 121.333C200.171 121.239 200.072 121.146 199.974 121.056C199.894 120.98 199.814 120.906 199.737 120.835C199.681 120.784 199.629 120.735 199.576 120.686C199.494 120.61 199.416 120.537 199.341 120.466C198.561 119.744 198.047 119.266 197.851 119.084C197.831 119.065 197.815 119.051 197.802 119.039C197.775 119.016 197.763 119.003 197.763 119.003L177.334 90.0603C191.884 74.9063 207.416 81.8186 223.636 104.197L231.331 111.95H231.33Z"
              fill="#0056D5"/>
        <path d="M268.088 148.991L184.502 119.182L184.838 143.061L260.491 173.971L268.088 148.991Z" fill="#F7BBBA"/>
        <path d="M185.646 122.952C185.615 122.616 185.637 119.716 185.332 119.559C182.312 118.013 178.617 118.073 175.402 119.18C172.187 120.286 169.398 122.349 166.94 124.663C162.648 130.214 159.843 140.267 157.663 152.212C156.914 156.231 156.434 160.299 156.231 164.38C156.129 166.407 156.102 168.483 156.744 170.411C157.126 171.558 157.968 172.775 159.198 172.796C160.006 172.81 160.739 172.272 161.172 171.603C161.604 170.934 161.789 170.145 161.968 169.372C163.438 163.016 164.909 156.659 166.379 150.303C165.66 154 165.508 157.43 165.492 161.194C165.483 163.361 165.667 165.72 167.143 167.333C167.413 167.629 167.729 167.895 168.106 168.039C168.944 168.361 169.91 168.012 170.623 167.472C172.708 165.892 173.193 163.053 173.524 160.49C173.909 157.5 174.295 154.51 174.68 151.521C173.951 155.189 173.579 158.674 173.587 162.412C173.59 163.386 173.62 164.377 173.941 165.299C174.263 166.22 174.922 167.074 175.852 167.416C177.035 167.849 178.414 167.351 179.303 166.469C180.19 165.589 180.672 164.394 181.029 163.206C179.812 166.749 185.306 169.095 187.476 166.166C188.133 165.279 188.31 164.145 188.467 163.061C188.822 160.61 189.177 158.159 189.532 155.707L190.579 140.24L185.647 122.955L185.646 122.952Z"
              fill="#F7BBBA"/>
        <path d="M173.586 162.412L174.679 151.52" stroke="#231F20" stroke-width="0.474643" stroke-linecap="round"
              stroke-linejoin="round"/>
        <path d="M181.028 163.205L181.577 150.844" stroke="#231F20" stroke-width="0.474643" stroke-linecap="round"
              stroke-linejoin="round"/>
        <path d="M155.818 136.043C154.886 136.929 153.948 137.819 153.171 138.839C152.313 139.965 151.665 141.227 150.982 142.463C148.741 146.523 146.09 150.365 143.08 153.914C142.104 155.064 141.026 156.568 141.68 157.92C141.982 158.545 142.61 158.968 143.273 159.201C145.149 159.862 147.287 159.166 148.862 157.969C150.437 156.771 151.584 155.129 152.807 153.587C156.718 148.657 161.598 144.567 166.279 140.329C168.579 138.248 170.912 136.018 171.992 133.136C172.502 131.775 172.708 130.32 172.808 128.874C172.937 127.007 172.83 124.571 170.917 123.569C168.847 122.486 168.249 123.956 167.124 125.277C163.816 129.16 159.528 132.522 155.818 136.044V136.043Z"
              fill="#F7BBBA"/>
        <path d="M152.006 94.1306C137.414 82.6397 117.378 81.6484 113.128 108.683L83.1728 162.727C80.9094 173.94 87.9311 182.113 97.1299 178.913C100.254 177.826 102.862 175.652 104.549 172.853L152.005 94.1295L152.006 94.1306Z"
              fill="#F7BBBA"/>
        <path d="M152.006 94.1306L150.117 99.2932L143.282 117.976L142.102 119.725L130.36 137.129L107.305 119.189L113.129 108.683C117.011 83.9975 134.055 82.6792 148.095 91.3852C149.432 92.2129 150.74 93.1328 152.007 94.1306H152.006Z"
              fill="#0056D5"/>
        <path d="M176.632 90.2678C176.392 90.8957 176.145 91.5192 175.885 92.1394C174.337 95.8399 172.313 99.4503 169.251 102.091C166.189 104.731 161.941 106.281 157.963 105.406C154.659 104.68 151.854 102.339 150.199 99.4426C150.171 99.3932 150.142 99.3438 150.116 99.2933C149.896 98.8981 149.696 98.4919 149.514 98.0781C148.592 95.9815 148.156 93.685 148.094 91.3864C149.43 92.2141 150.739 93.134 152.006 94.1318L173.579 91.1658L176.633 90.2678H176.632Z"
              fill="#F7BBBA"/>
        <path d="M152.193 84.1787C149.904 86.2962 146.111 88.0021 142.958 88.2118C137.27 88.5894 132.75 85.0964 130.985 79.9316C130.227 77.7121 129.867 75.3805 129.778 73.0456C129.736 71.938 129.642 70.8052 129.587 69.6767C129.542 68.7404 129.595 66.7151 129.603 66.6284C129.929 62.738 131.836 58.9652 134.892 56.4437C138.822 53.2021 144.512 52.1483 149.376 53.7631C150.41 54.1066 151.408 54.5622 152.329 55.1396C153.538 55.897 154.603 56.8586 155.574 57.8927C157.312 59.7424 158.787 61.8774 159.573 64.2716C161.842 71.1751 157.219 79.5277 152.192 84.1787H152.193Z"
              fill="#F7BBBA"/>
        <path d="M143.282 86.5038L150.859 95.6138C156.381 104.286 163.557 104.763 173.578 91.1658C167.778 88.6509 162.043 83.17 156.357 75.4893L143.282 86.5049V86.5038Z"
              fill="#F7BBBA"/>
        <path d="M141.355 71.6987C141.859 71.6987 142.268 71.1635 142.268 70.5033C142.268 69.8431 141.859 69.3079 141.355 69.3079C140.85 69.3079 140.441 69.8431 140.441 70.5033C140.441 71.1635 140.85 71.6987 141.355 71.6987Z"
              fill="#231F20"/>
        <path d="M134.173 73.0974C134.677 73.0974 135.086 72.5622 135.086 71.902C135.086 71.2418 134.677 70.7065 134.173 70.7065C133.668 70.7065 133.26 71.2418 133.26 71.902C133.26 72.5622 133.668 73.0974 134.173 73.0974Z"
              fill="#231F20"/>
        <path d="M141.717 77.6429C141.094 78.4903 140.365 78.8174 139.289 78.7626C138.585 78.7274 137.791 78.5046 137.273 78.0062L142.133 75.5122C142.33 76.1599 142.17 77.026 141.717 77.6429Z"
              fill="#231F20"/>
        <path d="M142.133 75.5122L137.273 78.0062C137.126 77.8646 137.002 77.7011 136.907 77.5144C136.46 76.6297 137.464 75.8931 138.163 75.544C138.877 75.1873 139.629 74.903 140.402 74.6977C141.381 74.4364 141.936 74.8645 142.134 75.5122H142.133Z"
              fill="white"/>
        <path d="M144.041 66.2464C144.307 66.1476 144.588 66.0159 144.72 65.7689C144.875 65.4802 144.774 65.1092 144.556 64.8622C144.337 64.6163 144.025 64.4714 143.715 64.355C142.098 63.7469 140.262 63.715 138.623 64.2683C138.071 64.4549 137.526 64.7151 137.139 65.1432C136.752 65.5713 136.548 66.1937 136.744 66.7327C137.212 68.017 138.899 67.1795 139.837 67.0499C141.249 66.8556 142.694 66.747 144.04 66.2464H144.041Z"
              fill="#231F20"/>
        <path d="M133.535 68.7285C133.401 68.9766 133.12 69.1072 132.855 69.206C131.806 69.5968 130.696 69.7483 129.588 69.8888C127.36 69.1028 128.359 67.0127 129.603 66.8404C130.599 66.8075 131.599 66.9677 132.528 67.3168C132.84 67.4332 133.152 67.5781 133.37 67.8239C133.588 68.0687 133.69 68.4398 133.536 68.7296L133.535 68.7285Z"
              fill="#231F20"/>
        <path d="M157.728 55.3351C159.495 55.0596 161.386 55.7753 162.505 57.1431C163.432 58.2781 163.814 59.7688 163.839 61.2233C163.863 62.6778 163.558 64.1158 163.24 65.5363C162.705 67.9315 162.133 70.319 161.523 72.6967C161.225 73.8592 160.917 75.0195 160.602 76.1776C160.381 76.9855 160.458 78.0119 159.985 78.7243C159.785 79.024 159.521 79.2501 159.155 79.2424C157.898 79.2128 156.681 78.7342 155.644 78.0349C154.405 77.1985 153.152 75.9624 152.34 74.7154C151.727 73.7747 151.788 72.6978 151.303 71.689C149.759 72.0128 148.024 71.476 147.316 69.9788C146.696 68.667 147.046 67.14 147.184 65.6998C147.425 63.1839 146.957 60.6064 145.847 58.3253C145.684 59.5449 145.625 60.7766 145.671 62.006C141.417 62.6054 137.196 63.4276 133.031 64.4671C131.007 64.972 128.986 65.758 126.944 66.1532C125.034 66.5231 125.148 64.5889 125.715 63.1839C126.119 62.1827 126.745 61.2672 127.019 60.2244C127.385 58.8325 127.095 57.322 127.551 55.9554C128.044 54.4712 129.375 53.3636 130.849 52.7775C132.325 52.1913 133.943 52.0617 135.534 52.0145C137.555 51.9542 139.578 52.1397 141.592 52.0584C143.58 51.9783 145.464 51.2319 147.411 50.9102C149.344 50.5908 151.379 50.7181 153.186 51.4646C154.993 52.211 156.988 53.5557 157.728 55.3351Z"
              fill="#231F20"/>
        <path d="M163.279 76.1356C166.381 73.0941 166.381 68.1628 163.279 65.1212C160.178 62.0797 155.149 62.0797 152.048 65.1212C148.946 68.1628 148.946 73.0941 152.048 76.1356C155.149 79.1771 160.178 79.1771 163.279 76.1356Z"
              fill="#F7BBBA"/>
        <path d="M154.235 74.4267C153.165 73.498 152.491 72.1402 152.491 70.6286C152.491 67.8272 154.807 65.5571 157.662 65.5571C160.518 65.5571 162.834 67.8283 162.834 70.6286"
              stroke="#231F20" stroke-width="0.474643" stroke-linecap="round" stroke-linejoin="round"/>
        <path d="M156.005 65.825L158.552 74.4267" stroke="#231F20" stroke-width="0.474643" stroke-linecap="round"
              stroke-linejoin="round"/>
        <path d="M156.077 69.3254C156.04 69.8754 156.164 70.422 156.241 70.9687C156.346 71.7119 156.067 72.1927 155.749 72.8546C155.579 73.2091 155.442 73.6043 155.526 73.9874C155.681 74.6999 156.709 74.8755 157.315 74.7042C157.548 74.6384 157.762 74.5165 157.958 74.376C159.536 73.2366 160.573 69.5406 159.155 67.9598C157.987 66.6568 156.174 67.8929 156.077 69.3265V69.3254Z"
              fill="white"/>
        <path d="M137.09 75.4891C135.524 75.4122 133.966 75.1773 132.449 74.7898C132.056 74.6899 131.654 74.5736 131.341 74.3222C131.026 74.0708 130.818 73.6504 130.936 73.2695C131.119 72.6723 131.907 72.4703 132.541 72.5252C134.439 72.691 135.602 72.9896 137.444 73.1213L137.091 75.4891H137.09Z"
              fill="#F7BBBA"/>
        <path d="M137.09 75.4891C135.524 75.4122 133.966 75.1773 132.449 74.7898C132.056 74.6899 131.654 74.5736 131.341 74.3222C131.026 74.0708 130.818 73.6504 130.936 73.2695C131.119 72.6723 131.907 72.4703 132.541 72.5252C134.439 72.691 135.602 72.9896 137.444 73.1213"
              stroke="#231F20" stroke-width="0.474643" stroke-linecap="round" stroke-linejoin="round"/>
        <path d="M213.26 129.267L264.103 147.558" stroke="#231F20" stroke-width="0.474643" stroke-linecap="round"
              stroke-linejoin="round"/>
        <path d="M148.094 92.2898L150.859 95.6137" stroke="#231F20" stroke-width="0.474643" stroke-linecap="round"
              stroke-linejoin="round"/>
        <path d="M144.524 87.9977L149.132 84.8735L146.24 90.0614L144.524 87.9977Z" fill="#231F20"/>
        <path d="M138.62 124.887C137.821 120.001 140.185 114.235 142.134 108.585" stroke="#231F20"
              stroke-width="0.474643" stroke-linecap="round" stroke-linejoin="round"/>
        <path d="M90.5416 119.559C83.38 122.946 81.9674 139.775 83.1729 162.727L105.251 167.471L110.718 133.056L90.5416 119.558V119.559Z"
              fill="#F7BBBA"/>
        <path d="M90.2274 122.952C90.2587 122.616 90.2375 119.716 90.5419 119.559C93.5619 118.013 97.2569 118.073 100.472 119.18C103.686 120.286 106.476 122.349 108.934 124.663C113.226 130.214 116.031 140.267 118.21 152.212C118.96 156.231 119.439 160.299 119.643 164.38C119.745 166.407 119.772 168.483 119.129 170.411C118.747 171.558 117.906 172.775 116.675 172.796C115.867 172.81 115.134 172.272 114.702 171.603C114.27 170.934 114.084 170.145 113.905 169.372C112.435 163.016 110.964 156.659 109.495 150.303C110.213 154 110.366 157.43 110.381 161.194C110.39 163.361 110.207 165.72 108.73 167.333C108.46 167.629 108.145 167.895 107.768 168.039C106.929 168.361 105.963 168.012 105.25 167.472C103.166 165.892 102.68 163.053 102.35 160.49C101.965 157.5 101.579 154.51 101.194 151.521C101.922 155.189 102.294 158.674 102.286 162.412C102.284 163.386 102.254 164.377 101.932 165.299C101.61 166.22 100.952 167.074 100.022 167.416C98.8386 167.849 97.4595 167.351 96.5708 166.469C95.6831 165.589 95.2018 164.394 94.8447 163.206C96.0615 166.749 90.5677 169.095 88.3973 166.166C87.7402 165.279 87.5634 164.145 87.4066 163.061C87.0518 160.61 86.697 158.159 86.341 155.707L85.2944 140.24L90.2263 122.955L90.2274 122.952Z"
              fill="#F7BBBA"/>
        <path d="M109.495 150.303C110.213 154 110.366 157.43 110.381 161.194C110.39 163.361 110.207 165.72 108.73 167.333C108.46 167.629 108.145 167.895 107.768 168.039C106.929 168.361 105.963 168.012 105.25 167.472C103.166 165.892 102.68 163.053 102.35 160.49C101.965 157.5 101.579 154.51 101.194 151.521C101.922 155.189 102.294 158.675 102.286 162.412C102.284 163.386 102.254 164.377 101.932 165.299C101.61 166.22 100.952 167.074 100.022 167.416C98.8386 167.849 97.4595 167.351 96.5708 166.469C95.6831 165.589 95.2018 164.394 94.8447 163.206C96.0615 166.749 90.5677 169.095 88.3973 166.166C87.7402 165.28 87.5634 164.146 87.4066 163.061C87.0518 160.61 86.697 158.159 86.341 155.707L85.2944 140.24"
              stroke="#231F20" stroke-width="0.474643" stroke-linecap="round" stroke-linejoin="round"/>
        <path d="M102.287 162.412L101.194 151.52" stroke="#231F20" stroke-width="0.474643" stroke-linecap="round"
              stroke-linejoin="round"/>
        <path d="M94.8459 163.205L94.2952 150.844" stroke="#231F20" stroke-width="0.474643" stroke-linecap="round"
              stroke-linejoin="round"/>
        <path d="M120.054 136.043C120.987 136.929 121.925 137.819 122.701 138.839C123.56 139.965 124.208 141.227 124.891 142.463C127.132 146.523 129.782 150.365 132.792 153.914C133.768 155.064 134.846 156.568 134.193 157.92C133.89 158.545 133.262 158.968 132.6 159.201C130.724 159.862 128.586 159.166 127.011 157.969C125.436 156.771 124.289 155.129 123.065 153.587C119.154 148.657 114.275 144.567 109.594 140.329C107.294 138.248 104.961 136.018 103.881 133.136C103.37 131.775 103.164 130.32 103.065 128.874C102.936 127.007 103.042 124.571 104.955 123.569C107.026 122.486 107.624 123.956 108.749 125.277C112.056 129.16 116.345 132.522 120.054 136.044V136.043Z"
              fill="#F7BBBA"/>
        <path d="M105.747 122L108.749 125.276C112.057 129.159 116.345 132.521 120.054 136.043C120.987 136.929 121.925 137.819 122.702 138.839L123.643 140.24"
              stroke="#231F20" stroke-width="0.474643" stroke-linecap="round" stroke-linejoin="round"/>
        <path d="M166.655 174.286H81.7546V179.764H166.655V174.286Z" fill="white"/>
        <path d="M166.655 174.286H81.7546V179.764H166.655V174.286Z" stroke="#231F20" stroke-width="0.474643"
              stroke-linecap="round" stroke-linejoin="round"/>
        <path d="M138.376 179.765H63.5777L47.9539 123.23H122.751L138.376 179.765Z" fill="white"/>
        <path d="M138.376 179.765H63.5777L47.9539 123.23H122.751L138.376 179.765Z" stroke="#231F20"
              stroke-width="0.474643" stroke-linecap="round" stroke-linejoin="round"/>
        <path d="M142.892 177.779C143.392 177.779 143.797 177.382 143.797 176.892C143.797 176.402 143.392 176.005 142.892 176.005C142.393 176.005 141.988 176.402 141.988 176.892C141.988 177.382 142.393 177.779 142.892 177.779Z"
              stroke="#231F20" stroke-width="0.474643" stroke-linecap="round" stroke-linejoin="round"/>
        <path d="M150.893 176.448H147.382V177.778H150.893V176.448Z" stroke="#231F20" stroke-width="0.474643"
              stroke-linecap="round" stroke-linejoin="round"/>
        <path d="M155.657 176.448H152.146V177.778H155.657V176.448Z" stroke="#231F20" stroke-width="0.474643"
              stroke-linecap="round" stroke-linejoin="round"/>
        <path d="M81.5302 14H99.4868C108.341 14 115.518 21.0777 115.518 29.8089C115.518 38.5401 108.341 45.6178 99.4868 45.6178H84.014L80.2777 54.3325L77.3091 45.0626C70.5035 43.2347 65.5 37.0985 65.5 29.8089C65.5 21.0777 72.6773 14 81.5313 14H81.5302Z"
              fill="white"/>
        <path d="M81.5302 14H99.4868C108.341 14 115.518 21.0777 115.518 29.8089C115.518 38.5401 108.341 45.6178 99.4868 45.6178H84.014L80.2777 54.3325L77.3091 45.0626C70.5035 43.2347 65.5 37.0985 65.5 29.8089C65.5 21.0777 72.6773 14 81.5313 14H81.5302Z"
              stroke="#231F20" stroke-width="0.474643" stroke-linecap="round" stroke-linejoin="round"/>
        <path d="M97.5017 30.4674C98.0263 29.9501 98.0263 29.1114 97.5017 28.5941C96.9772 28.0769 96.1267 28.0769 95.6021 28.5941C95.0776 29.1114 95.0776 29.9501 95.6021 30.4674C96.1267 30.9847 96.9772 30.9847 97.5017 30.4674Z"
              fill="#231F20"/>
        <path d="M91.7282 30.196C92.1068 29.5669 91.8966 28.7542 91.2587 28.3808C90.6207 28.0075 89.7966 28.2148 89.418 28.8438C89.0394 29.4729 89.2496 30.2856 89.8875 30.659C90.5255 31.0323 91.3495 30.8251 91.7282 30.196Z"
              fill="#231F20"/>
        <path d="M85.5408 30.4669C86.0654 29.9496 86.0654 29.1109 85.5408 28.5937C85.0162 28.0764 84.1658 28.0764 83.6412 28.5937C83.1166 29.1109 83.1166 29.9496 83.6412 30.4669C84.1658 30.9842 85.0162 30.9842 85.5408 30.4669Z"
              fill="#231F20"/>
    </g>
    <defs>
        <clipPath id="clip0_232_419">
            <rect width="274" height="180" fill="white" transform="translate(0.5)"/>
        </clipPath>
    </defs>
</svg>
