<svg width="193" height="223" viewBox="0 0 193 223" fill="none" xmlns="http://www.w3.org/2000/svg">
    <mask id="mask0_8_520" style="mask-type:luminance" maskUnits="userSpaceOnUse" x="20" y="12" width="153"
          height="193">
        <path d="M20 12H173V205H20V12Z" fill="white"/>
    </mask>
    <g mask="url(#mask0_8_520)">
        <path d="M162.8 194.734H29.822C24.156 194.734 20 190.793 20 185.418V21.316C20 15.94 24.156 12 29.822 12H163.178C168.467 12 173 15.941 173 21.316V185.776C172.622 190.793 168.467 194.734 162.8 194.734Z"
              fill="#FCFCFC"/>
        <path d="M173 112.606H20V21.796C20 16.146 24.166 12 29.846 12H163.532C168.834 12 173.379 16.145 173.379 21.797V112.606H173Z"
              fill="#EBEFF4" fill-opacity="0.95"/>
        <path d="M29 163C29 158.029 33.0294 154 38 154H78C82.9706 154 87 158.029 87 163V163C87 167.971 82.9706 172 78 172H38C33.0294 172 29 167.971 29 163V163Z"
              fill="url(#paint0_linear_8_520)"/>
        <path d="M37.513 166V162.067C37.513 161.797 37.582 161.575 37.72 161.401C37.864 161.227 38.077 161.14 38.359 161.14H39.448L39.502 162.04H39.043C38.791 162.04 38.665 162.175 38.665 162.445V164.398L39.682 162.625H40.132L41.149 164.398V161.14H42.292V166H41.122L39.907 163.804L38.683 166H37.513ZM41.0355 168.376C40.6695 168.376 40.3815 168.304 40.1715 168.16C39.9615 168.016 39.8565 167.833 39.8565 167.611V167.188H39.3615L39.4065 166.459H40.7025V167.323C40.7025 167.515 40.8135 167.611 41.0355 167.611C41.2635 167.611 41.3775 167.515 41.3775 167.323V166.459H42.2415V167.413C42.2415 167.671 42.1455 167.896 41.9535 168.088C41.7615 168.28 41.4555 168.376 41.0355 168.376ZM39.9735 160.474V159.673H39.2715V158.845H40.7925V159.646H42.7185L42.6735 160.474H39.9735ZM44.3205 166C43.9305 166 43.6545 165.919 43.4925 165.757C43.3365 165.595 43.2585 165.34 43.2585 164.992V161.14H44.4735V164.677C44.4735 164.929 44.5965 165.055 44.8425 165.055H45.1485V166H44.3205ZM48.0521 166.09C47.3261 166.09 46.7801 165.922 46.4141 165.586C46.0481 165.25 45.8651 164.791 45.8651 164.209V163.903C45.8651 163.699 45.9041 163.516 45.9821 163.354C46.0601 163.192 46.1471 163.048 46.2431 162.922C46.3451 162.796 46.4351 162.679 46.5131 162.571C46.5911 162.463 46.6301 162.361 46.6301 162.265C46.6301 162.175 46.6091 162.115 46.5671 162.085C46.5251 162.055 46.4501 162.04 46.3421 162.04H45.7571L45.8561 161.14H47.1161C47.6141 161.14 47.8631 161.371 47.8631 161.833C47.8631 162.037 47.8241 162.223 47.7461 162.391C47.6681 162.553 47.5751 162.709 47.4671 162.859C47.3651 163.009 47.2751 163.168 47.1971 163.336C47.1191 163.498 47.0801 163.684 47.0801 163.894V164.281C47.0801 164.857 47.4041 165.145 48.0521 165.145C48.7121 165.145 49.0421 164.845 49.0421 164.245V163.678C49.0421 163.45 49.0031 163.288 48.9251 163.192C48.8471 163.096 48.7091 163.048 48.5111 163.048H48.2591L48.3131 162.202H48.4751C48.6731 162.202 48.8171 162.151 48.9071 162.049C48.9971 161.947 49.0421 161.785 49.0421 161.563V161.05H50.2571V161.536C50.2571 161.812 50.2151 162.037 50.1311 162.211C50.0471 162.379 49.8821 162.517 49.6361 162.625C49.8881 162.739 50.0531 162.886 50.1311 163.066C50.2151 163.24 50.2571 163.459 50.2571 163.723V164.191C50.2571 164.773 50.0621 165.235 49.6721 165.577C49.2821 165.919 48.7421 166.09 48.0521 166.09ZM46.2762 160.474L46.3392 159.646H49.2192V158.917H50.2092V160.474H46.2762ZM49.1292 158.53V157.27H50.1192V158.53H49.1292ZM53.2782 166.09C52.8522 166.09 52.4622 166.042 52.1082 165.946C51.7542 165.85 51.4722 165.688 51.2622 165.46C51.0522 165.226 50.9472 164.914 50.9472 164.524C50.9472 164.314 50.9952 164.116 51.0912 163.93C51.1932 163.738 51.3492 163.585 51.5592 163.471C51.3852 163.393 51.2412 163.27 51.1272 163.102C51.0192 162.934 50.9652 162.73 50.9652 162.49C50.9652 162.016 51.1152 161.659 51.4152 161.419C51.7152 161.173 52.1022 161.05 52.5762 161.05C52.7622 161.05 52.9212 161.062 53.0532 161.086C53.1852 161.104 53.3052 161.134 53.4132 161.176V162.067C53.2392 162.019 53.0322 161.995 52.7922 161.995C52.5702 161.995 52.4022 162.034 52.2882 162.112C52.1742 162.184 52.1172 162.31 52.1172 162.49C52.1172 162.688 52.1802 162.826 52.3062 162.904C52.4322 162.976 52.6212 163.012 52.8732 163.012H53.3772L53.4222 163.903H52.8642C52.3542 163.903 52.0992 164.11 52.0992 164.524C52.0992 164.728 52.1892 164.884 52.3692 164.992C52.5552 165.094 52.8402 165.145 53.2242 165.145C53.6142 165.145 53.9022 165.064 54.0882 164.902C54.2742 164.74 54.3672 164.506 54.3672 164.2V161.14H55.5822V164.092C55.5822 164.794 55.3812 165.304 54.9792 165.622C54.5832 165.934 54.0162 166.09 53.2782 166.09ZM57.836 166.09C57.254 166.09 56.738 165.994 56.288 165.802V164.875C56.474 164.953 56.675 165.019 56.891 165.073C57.107 165.121 57.326 165.145 57.548 165.145C58.112 165.145 58.514 165.028 58.754 164.794C59 164.56 59.123 164.152 59.123 163.57C59.123 162.988 59 162.58 58.754 162.346C58.514 162.112 58.112 161.995 57.548 161.995C57.326 161.995 57.107 162.019 56.891 162.067C56.675 162.115 56.474 162.181 56.288 162.265V161.338C56.738 161.146 57.254 161.05 57.836 161.05C58.658 161.05 59.27 161.266 59.672 161.698C60.074 162.124 60.275 162.748 60.275 163.57C60.275 164.392 60.074 165.019 59.672 165.451C59.27 165.877 58.658 166.09 57.836 166.09ZM63.0849 166.09C62.3589 166.09 61.8129 165.922 61.4469 165.586C61.0809 165.25 60.8979 164.791 60.8979 164.209V163.903C60.8979 163.699 60.9369 163.516 61.0149 163.354C61.0929 163.192 61.1799 163.048 61.2759 162.922C61.3779 162.796 61.4679 162.679 61.5459 162.571C61.6239 162.463 61.6629 162.361 61.6629 162.265C61.6629 162.175 61.6419 162.115 61.5999 162.085C61.5579 162.055 61.4829 162.04 61.3749 162.04H60.7899L60.8889 161.14H62.1489C62.6469 161.14 62.8959 161.371 62.8959 161.833C62.8959 162.037 62.8569 162.223 62.7789 162.391C62.7009 162.553 62.6079 162.709 62.4999 162.859C62.3979 163.009 62.3079 163.168 62.2299 163.336C62.1519 163.498 62.1129 163.684 62.1129 163.894V164.281C62.1129 164.857 62.4369 165.145 63.0849 165.145C63.7449 165.145 64.0749 164.845 64.0749 164.245V163.678C64.0749 163.45 64.0359 163.288 63.9579 163.192C63.8799 163.096 63.7419 163.048 63.5439 163.048H63.2919L63.3459 162.202H63.5079C63.7059 162.202 63.8499 162.151 63.9399 162.049C64.0299 161.947 64.0749 161.785 64.0749 161.563V161.05H65.2899V161.536C65.2899 161.812 65.2479 162.037 65.1639 162.211C65.0799 162.379 64.9149 162.517 64.6689 162.625C64.9209 162.739 65.0859 162.886 65.1639 163.066C65.2479 163.24 65.2899 163.459 65.2899 163.723V164.191C65.2899 164.773 65.0949 165.235 64.7049 165.577C64.3149 165.919 63.7749 166.09 63.0849 166.09ZM68.032 166V163.012C68.032 162.688 67.969 162.439 67.843 162.265C67.717 162.085 67.465 161.995 67.087 161.995C66.889 161.995 66.679 162.019 66.457 162.067C66.235 162.109 66.037 162.163 65.863 162.229V161.338C66.043 161.254 66.265 161.185 66.529 161.131C66.793 161.077 67.057 161.05 67.321 161.05C68.005 161.05 68.497 161.197 68.797 161.491C69.097 161.779 69.247 162.229 69.247 162.841V166H68.032ZM75.7928 166.639C75.5168 166.639 75.2048 166.612 74.8568 166.558C74.5148 166.504 74.2058 166.402 73.9298 166.252V165.316C74.1098 165.406 74.3108 165.481 74.5328 165.541C74.7548 165.595 74.9738 165.637 75.1898 165.667C75.4058 165.691 75.5918 165.703 75.7478 165.703C76.1198 165.703 76.4198 165.664 76.6478 165.586C76.8758 165.508 76.9898 165.4 76.9898 165.262C76.9898 165.154 76.9418 165.07 76.8458 165.01C76.7198 165.082 76.5608 165.145 76.3688 165.199C76.1828 165.253 75.9668 165.28 75.7208 165.28C75.0068 165.28 74.4578 165.112 74.0738 164.776C73.6898 164.434 73.4978 163.921 73.4978 163.237V163.039C73.4978 162.661 73.4108 162.394 73.2368 162.238C73.0688 162.076 72.7988 161.995 72.4268 161.995C72.1568 161.995 71.9078 162.034 71.6798 162.112C71.4578 162.19 71.2778 162.289 71.1398 162.409V162.535L72.1388 162.805V163.543C71.8988 163.603 71.7368 163.702 71.6528 163.84C71.5748 163.972 71.5358 164.179 71.5358 164.461V164.722C71.5358 164.842 71.5628 164.929 71.6168 164.983C71.6708 165.031 71.7548 165.055 71.8688 165.055H72.3458V166H71.2478C70.9718 166 70.7468 165.91 70.5728 165.73C70.4048 165.55 70.3208 165.322 70.3208 165.046V164.452C70.3208 164.176 70.3658 163.933 70.4558 163.723C70.5518 163.507 70.7378 163.357 71.0138 163.273L70.0958 163.03V161.869C70.3418 161.659 70.6688 161.47 71.0768 161.302C71.4908 161.134 71.9618 161.05 72.4898 161.05C72.9458 161.05 73.3358 161.113 73.6598 161.239C73.9838 161.365 74.2328 161.575 74.4068 161.869C74.5808 162.163 74.6678 162.562 74.6678 163.066V163.255C74.6678 163.621 74.7518 163.894 74.9198 164.074C75.0878 164.248 75.3548 164.335 75.7208 164.335C76.0868 164.335 76.3538 164.248 76.5218 164.074C76.6898 163.894 76.7738 163.621 76.7738 163.255V161.14H77.9888V163.237C77.9888 163.759 77.8688 164.179 77.6288 164.497C77.7368 164.593 77.8268 164.719 77.8988 164.875C77.9708 165.025 78.0068 165.187 78.0068 165.361C78.0068 165.769 77.8088 166.084 77.4128 166.306C77.0168 166.528 76.4768 166.639 75.7928 166.639Z"
              fill="#0056D5"/>
        <path d="M160.679 120.819H32.321C30.0533 120.819 28.215 122.657 28.215 124.925V124.926C28.215 127.194 30.0533 129.032 32.321 129.032H160.679C162.947 129.032 164.785 127.194 164.785 124.926V124.925C164.785 122.657 162.947 120.819 160.679 120.819Z"
              fill="#EBEFF4" fill-opacity="0.95"/>
        <path d="M98.042 135.191H32.321C30.0533 135.191 28.215 137.029 28.215 139.297V139.298C28.215 141.566 30.0533 143.404 32.321 143.404H98.042C100.31 143.404 102.148 141.566 102.148 139.298V139.297C102.148 137.029 100.31 135.191 98.042 135.191Z"
              fill="#EBEFF4" fill-opacity="0.95"/>
        <mask id="mask1_8_520" style="mask-type:luminance" maskUnits="userSpaceOnUse" x="78" y="56" width="36"
              height="21">
            <path d="M78.5299 56.144H113.443V76.676H78.5299V56.144Z" fill="white"/>
        </mask>
        <g mask="url(#mask1_8_520)">
            <path d="M92.1919 76.753C90.4679 76.753 89.9279 75.645 90.9819 74.177L100.373 62.069C100.572 61.749 100.849 61.486 101.177 61.303C101.506 61.12 101.875 61.024 102.251 61.024C102.627 61.024 102.997 61.12 103.325 61.303C103.654 61.486 103.931 61.749 104.129 62.069L112.954 74.177C113.958 75.567 113.391 76.753 111.668 76.753H92.1919ZM92.8349 62.739C94.6539 62.739 96.1279 61.262 96.1279 59.441C96.1279 57.62 94.6539 56.144 92.8349 56.144C91.0159 56.144 89.5419 57.62 89.5419 59.441C89.5419 61.262 91.0159 62.739 92.8349 62.739Z"
                  fill="#D6DCE7" fill-opacity="0.95"/>
            <path d="M92.8348 61.8881C94.1848 61.8881 95.2788 60.7931 95.2788 59.4411C95.2788 58.0891 94.1848 56.9941 92.8348 56.9941C91.4848 56.9941 90.3908 58.0891 90.3908 59.4411C90.3908 60.7931 91.4848 61.8881 92.8348 61.8881ZM80.2798 76.7531C78.5298 76.7531 78.0158 75.5681 79.0698 74.1771L85.0398 66.4481C85.2368 66.1231 85.5138 65.8541 85.8448 65.6681C86.1768 65.4811 86.5498 65.3831 86.9298 65.3831C87.3098 65.3831 87.6838 65.4811 88.0148 65.6681C88.3458 65.8541 88.6238 66.1231 88.8208 66.4481L94.3788 74.1771C95.4078 75.5671 94.8158 76.7531 93.1178 76.7531H80.2798Z"
                  fill="#D6DCE7" fill-opacity="0.95"/>
        </g>
    </g>
    <defs>
        <linearGradient id="paint0_linear_8_520" x1="58" y1="154" x2="58" y2="177.063" gradientUnits="userSpaceOnUse">
            <stop stop-color="#D1E1FA"/>
            <stop offset="1" stop-color="#97BDF7"/>
        </linearGradient>
    </defs>
</svg>
