<svg width="193" height="223" viewBox="0 0 193 223" fill="none" xmlns="http://www.w3.org/2000/svg">
    <mask id="mask0_8_605" style="mask-type:luminance" maskUnits="userSpaceOnUse" x="20" y="12" width="153"
          height="193">
        <path d="M20 12H173V205H20V12Z" fill="white"/>
    </mask>
    <g mask="url(#mask0_8_605)">
        <path d="M162.8 194.734H29.822C24.156 194.734 20 190.793 20 185.418V21.316C20 15.94 24.156 12 29.822 12H163.178C168.467 12 173 15.941 173 21.316V185.776C172.622 190.793 168.467 194.734 162.8 194.734Z"
              fill="#FCFCFC"/>
        <path d="M173 112.606H20V21.796C20 16.146 24.166 12 29.846 12H163.532C168.834 12 173.379 16.145 173.379 21.797V112.606H173Z"
              fill="#EBEFF4" fill-opacity="0.95"/>
        <path d="M28 163C28 158.029 32.0294 154 37 154H86C90.9706 154 95 158.029 95 163V163C95 167.971 90.9706 172 86 172H37C32.0294 172 28 167.971 28 163V163Z"
              fill="url(#paint0_linear_8_605)"/>
        <path d="M36.513 166V160.204H39.231C39.687 160.204 40.059 160.291 40.347 160.465C40.641 160.639 40.86 160.876 41.004 161.176C41.148 161.476 41.22 161.818 41.22 162.202C41.22 162.592 41.136 162.937 40.968 163.237C40.806 163.537 40.572 163.771 40.266 163.939C39.966 164.101 39.609 164.182 39.195 164.182H37.728V166H36.513ZM37.728 163.219H38.943C39.291 163.219 39.552 163.129 39.726 162.949C39.906 162.763 39.996 162.514 39.996 162.202C39.996 161.866 39.912 161.611 39.744 161.437C39.576 161.257 39.324 161.167 38.988 161.167H37.728V163.219ZM41.8469 166V161.734H42.9719L43.0259 162.175C43.2179 162.055 43.4549 161.947 43.7369 161.851C44.0249 161.749 44.3069 161.68 44.5829 161.644V162.562C44.4209 162.586 44.2439 162.622 44.0519 162.67C43.8599 162.718 43.6769 162.772 43.5029 162.832C43.3289 162.892 43.1819 162.955 43.0619 163.021V166H41.8469ZM47.1165 166.09C46.3185 166.09 45.7335 165.898 45.3615 165.514C44.9895 165.124 44.8035 164.575 44.8035 163.867C44.8035 163.159 44.9895 162.613 45.3615 162.229C45.7395 161.839 46.3245 161.644 47.1165 161.644C47.9145 161.644 48.4995 161.839 48.8715 162.229C49.2495 162.613 49.4385 163.159 49.4385 163.867C49.4385 164.575 49.2525 165.124 48.8805 165.514C48.5085 165.898 47.9205 166.09 47.1165 166.09ZM47.1165 165.055C47.5065 165.055 47.7855 164.968 47.9535 164.794C48.1215 164.614 48.2055 164.305 48.2055 163.867C48.2055 163.429 48.1215 163.123 47.9535 162.949C47.7855 162.769 47.5065 162.679 47.1165 162.679C46.7325 162.679 46.4565 162.769 46.2885 162.949C46.1205 163.123 46.0365 163.429 46.0365 163.867C46.0365 164.305 46.1205 164.614 46.2885 164.794C46.4565 164.968 46.7325 165.055 47.1165 165.055ZM50.4634 166V162.67H49.8694V161.734H50.4634V161.302C50.4634 160.858 50.5894 160.495 50.8414 160.213C51.0934 159.931 51.4654 159.79 51.9574 159.79C52.1554 159.79 52.3324 159.805 52.4884 159.835C52.6444 159.865 52.7884 159.907 52.9204 159.961V160.798C52.8304 160.768 52.7434 160.744 52.6594 160.726C52.5754 160.708 52.4824 160.699 52.3804 160.699C52.1224 160.699 51.9394 160.747 51.8314 160.843C51.7294 160.933 51.6784 161.092 51.6784 161.32V161.734H52.7584L52.7044 162.67H51.6784V166H50.4634ZM55.4398 166.09C54.7018 166.09 54.1168 165.907 53.6848 165.541C53.2528 165.169 53.0368 164.608 53.0368 163.858C53.0368 163.18 53.2168 162.643 53.5768 162.247C53.9428 161.845 54.4858 161.644 55.2058 161.644C55.8658 161.644 56.3698 161.818 56.7178 162.166C57.0718 162.508 57.2488 162.958 57.2488 163.516V164.29H54.1618C54.2278 164.632 54.3838 164.866 54.6298 164.992C54.8818 165.118 55.2358 165.181 55.6918 165.181C55.9198 165.181 56.1508 165.16 56.3848 165.118C56.6248 165.076 56.8288 165.022 56.9968 164.956V165.82C56.7988 165.91 56.5678 165.976 56.3038 166.018C56.0398 166.066 55.7518 166.09 55.4398 166.09ZM54.1618 163.543H56.1868V163.309C56.1868 163.063 56.1148 162.871 55.9708 162.733C55.8268 162.589 55.5838 162.517 55.2418 162.517C54.8398 162.517 54.5578 162.598 54.3958 162.76C54.2398 162.922 54.1618 163.183 54.1618 163.543ZM59.5088 166.09C59.1908 166.09 58.8878 166.066 58.5998 166.018C58.3118 165.976 58.0808 165.922 57.9068 165.856V164.848C58.1168 164.932 58.3538 164.998 58.6178 165.046C58.8818 165.088 59.1248 165.109 59.3468 165.109C59.6468 165.109 59.8568 165.091 59.9768 165.055C60.1028 165.019 60.1658 164.938 60.1658 164.812C60.1658 164.668 60.0698 164.563 59.8778 164.497C59.6918 164.431 59.4128 164.338 59.0408 164.218C58.6508 164.086 58.3508 163.927 58.1408 163.741C57.9308 163.555 57.8258 163.279 57.8258 162.913C57.8258 162.505 57.9728 162.193 58.2668 161.977C58.5668 161.755 59.0468 161.644 59.7068 161.644C59.9708 161.644 60.2198 161.665 60.4538 161.707C60.6878 161.743 60.8858 161.788 61.0478 161.842V162.841C60.8858 162.763 60.6998 162.706 60.4898 162.67C60.2798 162.628 60.0848 162.607 59.9048 162.607C59.6468 162.607 59.4398 162.625 59.2838 162.661C59.1338 162.697 59.0588 162.775 59.0588 162.895C59.0588 163.027 59.1398 163.12 59.3018 163.174C59.4698 163.228 59.7278 163.309 60.0758 163.417C60.4178 163.519 60.6848 163.63 60.8768 163.75C61.0688 163.87 61.2038 164.014 61.2818 164.182C61.3598 164.344 61.3988 164.548 61.3988 164.794C61.3988 165.658 60.7688 166.09 59.5088 166.09ZM63.4716 166.09C63.1536 166.09 62.8506 166.066 62.5626 166.018C62.2746 165.976 62.0436 165.922 61.8696 165.856V164.848C62.0796 164.932 62.3166 164.998 62.5806 165.046C62.8446 165.088 63.0876 165.109 63.3096 165.109C63.6096 165.109 63.8196 165.091 63.9396 165.055C64.0656 165.019 64.1286 164.938 64.1286 164.812C64.1286 164.668 64.0326 164.563 63.8406 164.497C63.6546 164.431 63.3756 164.338 63.0036 164.218C62.6136 164.086 62.3136 163.927 62.1036 163.741C61.8936 163.555 61.7886 163.279 61.7886 162.913C61.7886 162.505 61.9356 162.193 62.2296 161.977C62.5296 161.755 63.0096 161.644 63.6696 161.644C63.9336 161.644 64.1826 161.665 64.4166 161.707C64.6506 161.743 64.8486 161.788 65.0106 161.842V162.841C64.8486 162.763 64.6626 162.706 64.4526 162.67C64.2426 162.628 64.0476 162.607 63.8676 162.607C63.6096 162.607 63.4026 162.625 63.2466 162.661C63.0966 162.697 63.0216 162.775 63.0216 162.895C63.0216 163.027 63.1026 163.12 63.2646 163.174C63.4326 163.228 63.6906 163.309 64.0386 163.417C64.3806 163.519 64.6476 163.63 64.8396 163.75C65.0316 163.87 65.1666 164.014 65.2446 164.182C65.3226 164.344 65.3616 164.548 65.3616 164.794C65.3616 165.658 64.7316 166.09 63.4716 166.09ZM66.4569 160.951V159.997H67.7799V160.951H66.4569ZM66.5559 166V162.634H65.9169L66.0249 161.734H67.7709V166H66.5559ZM70.8934 166.09C70.0954 166.09 69.5104 165.898 69.1384 165.514C68.7664 165.124 68.5804 164.575 68.5804 163.867C68.5804 163.159 68.7664 162.613 69.1384 162.229C69.5164 161.839 70.1014 161.644 70.8934 161.644C71.6914 161.644 72.2764 161.839 72.6484 162.229C73.0264 162.613 73.2154 163.159 73.2154 163.867C73.2154 164.575 73.0294 165.124 72.6574 165.514C72.2854 165.898 71.6974 166.09 70.8934 166.09ZM70.8934 165.055C71.2834 165.055 71.5624 164.968 71.7304 164.794C71.8984 164.614 71.9824 164.305 71.9824 163.867C71.9824 163.429 71.8984 163.123 71.7304 162.949C71.5624 162.769 71.2834 162.679 70.8934 162.679C70.5094 162.679 70.2334 162.769 70.0654 162.949C69.8974 163.123 69.8134 163.429 69.8134 163.867C69.8134 164.305 69.8974 164.614 70.0654 164.794C70.2334 164.968 70.5094 165.055 70.8934 165.055ZM74.0152 166V161.734H75.1402L75.1852 162.139C75.3592 162.007 75.5782 161.893 75.8422 161.797C76.1122 161.695 76.3942 161.644 76.6882 161.644C77.2522 161.644 77.6632 161.776 77.9212 162.04C78.1792 162.304 78.3082 162.712 78.3082 163.264V166H77.0932V163.327C77.0932 163.039 77.0332 162.835 76.9132 162.715C76.7992 162.595 76.5832 162.535 76.2652 162.535C76.0792 162.535 75.8902 162.577 75.6982 162.661C75.5122 162.745 75.3562 162.85 75.2302 162.976V166H74.0152ZM80.4616 166.09C80.1916 166.09 79.9396 166.042 79.7056 165.946C79.4776 165.844 79.2916 165.697 79.1476 165.505C79.0096 165.307 78.9406 165.061 78.9406 164.767C78.9406 164.347 79.0876 164.011 79.3816 163.759C79.6816 163.507 80.1226 163.381 80.7046 163.381H81.9646V163.264C81.9646 163 81.8896 162.814 81.7396 162.706C81.5956 162.598 81.3016 162.544 80.8576 162.544C80.3716 162.544 79.9036 162.619 79.4536 162.769V161.914C79.6516 161.836 79.8916 161.773 80.1736 161.725C80.4616 161.671 80.7736 161.644 81.1096 161.644C81.7516 161.644 82.2466 161.776 82.5946 162.04C82.9486 162.298 83.1256 162.715 83.1256 163.291V166H82.0726L82.0096 165.613C81.8416 165.763 81.6346 165.88 81.3886 165.964C81.1426 166.048 80.8336 166.09 80.4616 166.09ZM80.7946 165.289C81.0646 165.289 81.2986 165.244 81.4966 165.154C81.6946 165.064 81.8506 164.95 81.9646 164.812V164.137H80.7316C80.2576 164.137 80.0206 164.332 80.0206 164.722C80.0206 165.1 80.2786 165.289 80.7946 165.289ZM85.247 166.09C84.833 166.09 84.53 165.994 84.338 165.802C84.152 165.61 84.059 165.304 84.059 164.884V159.934H85.274V164.785C85.274 164.935 85.304 165.04 85.364 165.1C85.424 165.154 85.511 165.181 85.625 165.181C85.781 165.181 85.922 165.16 86.048 165.118V165.955C85.82 166.045 85.553 166.09 85.247 166.09Z"
              fill="white"/>
        <path d="M160.679 120.819H32.321C30.0533 120.819 28.215 122.657 28.215 124.925V124.926C28.215 127.194 30.0533 129.032 32.321 129.032H160.679C162.947 129.032 164.785 127.194 164.785 124.926V124.925C164.785 122.657 162.947 120.819 160.679 120.819Z"
              fill="#EBEFF4" fill-opacity="0.95"/>
        <path d="M98.042 135.191H32.321C30.0533 135.191 28.215 137.029 28.215 139.297V139.298C28.215 141.566 30.0533 143.404 32.321 143.404H98.042C100.31 143.404 102.148 141.566 102.148 139.298V139.297C102.148 137.029 100.31 135.191 98.042 135.191Z"
              fill="#EBEFF4" fill-opacity="0.95"/>
        <mask id="mask1_8_605" style="mask-type:luminance" maskUnits="userSpaceOnUse" x="78" y="56" width="36"
              height="21">
            <path d="M78.5299 56.144H113.443V76.676H78.5299V56.144Z" fill="white"/>
        </mask>
        <g mask="url(#mask1_8_605)">
            <path d="M92.1919 76.753C90.4679 76.753 89.9279 75.645 90.9819 74.177L100.373 62.069C100.572 61.749 100.849 61.486 101.177 61.303C101.506 61.12 101.875 61.024 102.251 61.024C102.627 61.024 102.997 61.12 103.325 61.303C103.654 61.486 103.931 61.749 104.129 62.069L112.954 74.177C113.958 75.567 113.391 76.753 111.668 76.753H92.1919ZM92.8349 62.739C94.6539 62.739 96.1279 61.262 96.1279 59.441C96.1279 57.62 94.6539 56.144 92.8349 56.144C91.0159 56.144 89.5419 57.62 89.5419 59.441C89.5419 61.262 91.0159 62.739 92.8349 62.739Z"
                  fill="#D6DCE7" fill-opacity="0.95"/>
            <path d="M92.8348 61.8881C94.1848 61.8881 95.2788 60.7931 95.2788 59.4411C95.2788 58.0891 94.1848 56.9941 92.8348 56.9941C91.4848 56.9941 90.3908 58.0891 90.3908 59.4411C90.3908 60.7931 91.4848 61.8881 92.8348 61.8881ZM80.2798 76.7531C78.5298 76.7531 78.0158 75.5681 79.0698 74.1771L85.0398 66.4481C85.2368 66.1231 85.5138 65.8541 85.8448 65.6681C86.1768 65.4811 86.5498 65.3831 86.9298 65.3831C87.3098 65.3831 87.6838 65.4811 88.0148 65.6681C88.3458 65.8541 88.6238 66.1231 88.8208 66.4481L94.3788 74.1771C95.4078 75.5671 94.8158 76.7531 93.1178 76.7531H80.2798Z"
                  fill="#D6DCE7" fill-opacity="0.95"/>
        </g>
    </g>
    <defs>
        <linearGradient id="paint0_linear_8_605" x1="61.5" y1="154" x2="61.5" y2="172" gradientUnits="userSpaceOnUse">
            <stop stop-color="#1D6CE2"/>
            <stop offset="1" stop-color="#1754B0"/>
        </linearGradient>
    </defs>
</svg>
