<?xml version="1.0" encoding="UTF-8"?>
<svg version="1.1" xmlns="http://www.w3.org/2000/svg" width="512" height="512">
    <path d="M0 0 C1.46049774 0.00273422 1.46049774 0.00273422 2.95050049 0.00552368 C16.9687164 0.04974564 30.60882275 0.45111782 44.375 3.3125 C45.23996094 3.47878906 46.10492188 3.64507812 46.99609375 3.81640625 C89.63891184 12.07577561 129.00699421 31.37326489 161.375 60.3125 C161.90496582 60.78606934 162.43493164 61.25963867 162.98095703 61.74755859 C166.48550831 64.89435139 169.94221185 68.08760597 173.375 71.3125 C174.03113281 71.92609375 174.68726563 72.5396875 175.36328125 73.171875 C180.51502233 78.14596984 184.93138003 83.70872309 189.375 89.3125 C190.17035156 90.3025 190.96570313 91.2925 191.78515625 92.3125 C217.93751165 125.46921049 232.68671111 163.11510053 241.125 204.1875 C241.32383789 205.14841553 241.52267578 206.10933105 241.72753906 207.09936523 C244.93159894 223.37934184 245.75065114 239.3185954 245.6875 255.875 C245.68534485 256.8916272 245.6831897 257.90825439 245.68096924 258.95568848 C245.63000916 273.93559514 245.29820835 288.5730164 242.375 303.3125 C242.17632324 304.33537109 241.97764648 305.35824219 241.77294922 306.41210938 C237.11165658 329.72206415 229.8406514 351.9681366 219.375 373.3125 C218.98586426 374.10994629 218.59672852 374.90739258 218.19580078 375.72900391 C208.08395757 396.22195285 195.23902821 415.10519767 179.66015625 431.83984375 C177.74596117 433.91110099 175.92912389 436.02164701 174.125 438.1875 C141.08598126 476.02375331 92.58796182 498.8171127 44.375 509.3125 C43.48635254 509.5089209 42.59770508 509.7053418 41.68212891 509.90771484 C13.28094409 515.83763255 -20.41687459 514.57747428 -48.625 508.3125 C-49.69234375 508.07644043 -50.7596875 507.84038086 -51.859375 507.59716797 C-92.25876322 498.31703599 -129.78760685 478.86526024 -160.15234375 450.59765625 C-162.22360099 448.68346117 -164.33414701 446.86662389 -166.5 445.0625 C-212.69628806 404.60546565 -239.78609923 339.46124855 -244.625 279.3125 C-244.77192075 275.9136448 -244.81106208 272.51894899 -244.828125 269.1171875 C-244.83522995 268.17526047 -244.8423349 267.23333344 -244.84965515 266.26286316 C-245.08014804 226.72244844 -245.08014804 226.72244844 -241.625 209.3125 C-241.27840332 207.53528564 -241.27840332 207.53528564 -240.92480469 205.72216797 C-229.16228196 146.90215652 -201.39031532 91.96950716 -153.625 54.3125 C-152.87347656 53.68214844 -152.12195313 53.05179688 -151.34765625 52.40234375 C-119.16387811 25.61003614 -78.82951761 8.75647591 -37.625 2.3125 C-35.94591553 2.04651001 -35.94591553 2.04651001 -34.23291016 1.77514648 C-22.81672527 0.14850302 -11.5185687 -0.04470638 0 0 Z " fill="#F5B546" transform="translate(255.625,-0.3125)"/>
    <path d="M0 0 C-4.86100454 5.86370084 -10.11006222 11.22459486 -15.51953125 16.58203125 C-16.41870773 17.47742111 -17.31788422 18.37281097 -18.24430847 19.29533386 C-21.09795876 22.13682862 -23.95473473 24.97514562 -26.8125 27.8125 C-30.59283518 31.56601534 -34.36959849 35.32308055 -38.14453125 39.08203125 C-39.01737259 39.94657425 -39.89021393 40.81111725 -40.789505 41.70185852 C-41.99161873 42.89901741 -41.99161873 42.89901741 -43.21801758 44.12036133 C-43.92606033 44.82316727 -44.63410309 45.52597321 -45.36360168 46.25007629 C-47.0759705 47.91505453 -47.0759705 47.91505453 -48 50 C-50.417397 50.61968806 -52.8053327 51.13830485 -55.25 51.625 C-101.75460586 61.8617693 -142.53347619 93.45718022 -168.0625 133.0625 C-179.21034646 150.87898749 -188.22237633 170.71366075 -192.72616577 191.32292175 C-194.20559843 195.593485 -195.90420838 197.42183369 -199.18408203 200.49780273 C-199.97455933 201.2508242 -199.97455933 201.2508242 -200.78100586 202.01905823 C-201.91955078 203.10200985 -203.06342532 204.17938059 -204.21203995 205.25164604 C-206.03452875 206.95861659 -207.83538156 208.6858061 -209.63131714 210.42066956 C-214.73599831 215.3490013 -219.85806812 220.25752575 -225.03857422 225.10620117 C-228.21413073 228.08126079 -231.34814729 231.09518734 -234.46004868 234.1367054 C-235.64556 235.28042462 -236.84561136 236.40928736 -238.06055069 237.52169609 C-245.45847318 244.12405932 -245.45847318 244.12405932 -248.75415039 253.14930725 C-249.07772427 261.34619555 -247.52947209 269.5911586 -245.75 277.5625 C-245.51966064 278.64184814 -245.28932129 279.72119629 -245.05200195 280.83325195 C-244.38920235 283.89407662 -243.7007518 286.94767158 -243 290 C-242.83483887 290.73637695 -242.66967773 291.47275391 -242.49951172 292.23144531 C-233.9148542 329.85943475 -214.32447362 364.21017149 -189 393 C-188.20335937 393.90878906 -187.40671875 394.81757813 -186.5859375 395.75390625 C-179.14791982 404.12487116 -171.47395463 411.74540791 -162.66796875 418.68261719 C-161.496965 419.60749076 -160.3306927 420.53837139 -159.16796875 421.47363281 C-135.32474887 440.62227082 -108.20866829 454.91004888 -79 464 C-77.14761719 464.61488281 -77.14761719 464.61488281 -75.2578125 465.2421875 C-71.84930821 466.03505301 -70.30075874 465.98615756 -67 465 C-65.1413338 463.60869982 -65.1413338 463.60869982 -63.54931641 461.74951172 C-62.91740387 461.06565399 -62.28549133 460.38179626 -61.63442993 459.67721558 C-60.62816055 458.56468918 -60.62816055 458.56468918 -59.6015625 457.4296875 C-58.13860191 455.8771296 -56.67369396 454.32640482 -55.20703125 452.77734375 C-52.91194124 450.33424666 -50.63158615 447.88228336 -48.38330078 445.39599609 C-35.86401177 431.61735405 -35.86401177 431.61735405 -29.11401367 430.16235352 C-25.27869489 430.44204102 -21.74999572 431.16327296 -18 432 C-15.36809682 432.12157356 -12.73235248 432.17634924 -10.09765625 432.16796875 C-8.78361816 432.17538086 -7.46958008 432.18279297 -6.11572266 432.19042969 C-4.76464811 432.19067597 -3.41357282 432.1896783 -2.0625 432.1875 C-1.01192413 432.18659363 -1.01192413 432.18659363 0.05987549 432.18566895 C10.17368366 432.16203519 20.02894697 431.91497045 30 430 C30.9885498 429.82259277 30.9885498 429.82259277 31.99707031 429.64160156 C71.00552743 422.52776228 104.47858346 404.16129119 133 377 C133.70640625 376.34644531 134.4128125 375.69289063 135.140625 375.01953125 C167.01731727 344.63300955 186.9816374 296.72213261 188.23699951 253.07841492 C188.35318683 247.22778566 188.32472036 241.378337 188.23828125 235.52734375 C188.23111084 234.30249268 188.22394043 233.0776416 188.21655273 231.81567383 C188.054656 228.9630425 187.75678803 226.69085835 187.12915039 223.95581055 C186.01678385 218.4215438 185.38380669 213.68093831 188.40914917 208.6625061 C193.23419883 202.45775791 199.03538198 197.23386522 204.8125 191.9375 C206.53848617 190.28474632 208.26053807 188.62787367 209.97851562 186.96679688 C213.11373252 183.96444131 216.25761514 180.97392422 219.45239258 178.03491211 C220.09050369 177.44665146 220.72861481 176.85839081 221.38606262 176.25230408 C223 175 223 175 225 175 C227.53180164 181.95701368 229.00403786 188.76371596 230.1875 196.0625 C230.36474609 197.11888672 230.54199219 198.17527344 230.72460938 199.26367188 C231.15618309 201.84145002 231.58116655 204.42012674 232 207 C232.13767939 202.46067025 232.13767939 202.46067025 231.5 198 C230.75139172 195.0055669 230.94095972 192.07009479 231 189 C231.33 189 231.66 189 232 189 C232.65140456 192.79073089 233.29508257 196.58273657 233.9375 200.375 C234.11990234 201.43589844 234.30230469 202.49679688 234.49023438 203.58984375 C234.66748047 204.64042969 234.84472656 205.69101563 235.02734375 206.7734375 C235.27085571 208.20308838 235.27085571 208.20308838 235.51928711 209.66162109 C236.64969956 217.51193085 237.16340564 225.26734601 237.203125 233.1953125 C237.21018463 234.13746613 237.21724426 235.07961975 237.22451782 236.05032349 C237.45352121 275.58655794 237.45352121 275.58655794 234 293 C233.80132324 294.02287109 233.60264648 295.04574219 233.39794922 296.09960938 C228.73665658 319.40956415 221.4656514 341.6556366 211 363 C210.61086426 363.79744629 210.22172852 364.59489258 209.82080078 365.41650391 C199.70895757 385.90945285 186.86402821 404.79269767 171.28515625 421.52734375 C169.37096117 423.59860099 167.55412389 425.70914701 165.75 427.875 C132.71098126 465.71125331 84.21296182 488.5046127 36 499 C35.11135254 499.1964209 34.22270508 499.3928418 33.30712891 499.59521484 C4.90594409 505.52513255 -28.79187459 504.26497428 -57 498 C-58.06734375 497.76394043 -59.1346875 497.52788086 -60.234375 497.28466797 C-100.63376322 488.00453599 -138.16260685 468.55276024 -168.52734375 440.28515625 C-170.59860099 438.37096117 -172.70914701 436.55412389 -174.875 434.75 C-221.07128806 394.29296565 -248.16109923 329.14874855 -253 269 C-253.14692071 265.60114566 -253.18612185 262.20644906 -253.203125 258.8046875 C-253.21009399 257.86217133 -253.21706299 256.91965515 -253.22424316 255.94857788 C-253.24153941 252.92400599 -253.24796257 249.89961929 -253.25 246.875 C-253.25100708 245.84354858 -253.25201416 244.81209717 -253.25305176 243.74938965 C-253.23878985 222.18957505 -251.21207426 201.95412598 -246 181 C-245.34 181.99 -244.68 182.98 -244 184 C-243.71503662 182.99924438 -243.71503662 182.99924438 -243.42431641 181.97827148 C-231.10654025 139.20232656 -210.65394827 103.19871417 -180 71 C-179.31550781 70.27425781 -178.63101563 69.54851562 -177.92578125 68.80078125 C-172.67476964 63.37935141 -166.91515691 58.67601337 -161 54 C-160.01128906 53.2059375 -159.02257812 52.411875 -158.00390625 51.59375 C-112.85173836 15.96806947 -57.39328401 -1.8967683 0 0 Z " fill="#FCD735" transform="translate(264,10)"/>
    <path d="M0 0 C1.64912349 2.44916295 3.15457527 4.88268881 4.625 7.4375 C5.07012939 8.20739258 5.51525879 8.97728516 5.97387695 9.77050781 C14.22660331 24.2551857 20.15983739 39.05532785 25 55 C25.32871094 56.07636719 25.65742188 57.15273437 25.99609375 58.26171875 C26.79468946 61.16231768 27.42656851 64.04628683 28 67 C28.20085205 67.99265869 28.20085205 67.99265869 28.40576172 69.00537109 C37.8680774 117.50905225 27.03505955 169.65635509 -0.40625 210.65234375 C-31.01370459 255.09746453 -75.3739998 282.65462958 -128 293 C-129.26328125 293.24878906 -130.5265625 293.49757813 -131.828125 293.75390625 C-180.0397332 301.34670358 -230.42900778 287.98179989 -270 260 C-269.57133833 252.98191123 -266.66836679 247.28876612 -263.6875 241 C-263.14915527 239.85297607 -262.61081055 238.70595215 -262.05615234 237.52416992 C-251.80573704 215.86699698 -240.47204665 194.84485304 -227 175 C-223.28233005 176.23922332 -223.07547745 177.2038266 -221.25 180.5625 C-211.76233222 196.88686956 -197.16057439 204.17441193 -179.45703125 209.203125 C-175.69011776 210.07143048 -171.83584283 210.52051965 -168 211 C-168 220.57 -168 230.14 -168 240 C-160.41 240 -152.82 240 -145 240 C-145 230.43 -145 220.86 -145 211 C-141.16375 210.4121875 -141.16375 210.4121875 -137.25 209.8125 C-119.52591815 206.79246542 -106.25891732 198.42580548 -95.50390625 183.9921875 C-87.88754403 172.10433429 -87.41727486 154.15846229 -89.75 140.6875 C-93.60289477 124.52674692 -102.74981953 112.54675763 -116.67431641 103.63891602 C-126.64059274 97.57813403 -137.45071771 92.93684764 -148 88 C-171.41497577 77.03050078 -171.41497577 77.03050078 -175.37109375 66.65234375 C-177.08675989 59.4167083 -177.33831767 51.71598233 -174 44.9375 C-171.10152994 40.62200014 -167.97542559 37.66644864 -163 36 C-156.89526002 35.07665808 -151.01030369 34.93176272 -145.5 38 C-139.97185851 42.10528651 -137.49842592 47.75393521 -135 54 C-135 57.96 -135 61.92 -135 66 C-119.16 66 -103.32 66 -87 66 C-87.77781611 53.95871552 -87.77781611 53.95871552 -89 42 C-18.14566929 0 -18.14566929 0 0 0 Z " fill="#F29E09" transform="translate(415,140)"/>
    <path d="M0 0 C1.46049774 0.00273422 1.46049774 0.00273422 2.95050049 0.00552368 C16.9687164 0.04974564 30.60882275 0.45111782 44.375 3.3125 C45.23996094 3.47878906 46.10492188 3.64507812 46.99609375 3.81640625 C89.63891184 12.07577561 129.00699421 31.37326489 161.375 60.3125 C161.90496582 60.78606934 162.43493164 61.25963867 162.98095703 61.74755859 C166.48550831 64.89435139 169.94221185 68.08760597 173.375 71.3125 C174.03113281 71.92609375 174.68726563 72.5396875 175.36328125 73.171875 C180.51502233 78.14596984 184.93138003 83.70872309 189.375 89.3125 C190.17035156 90.3025 190.96570313 91.2925 191.78515625 92.3125 C219.46072374 127.40038271 243.84861497 176.41319993 241.375 222.3125 C241.045 222.3125 240.715 222.3125 240.375 222.3125 C240.11021851 220.89771362 240.11021851 220.89771362 239.84008789 219.4543457 C239.18252036 215.94126677 238.52454764 212.42826382 237.86645508 208.9152832 C237.5821655 207.39740014 237.2979845 205.87949673 237.01391602 204.36157227 C236.60461803 202.17458777 236.19492431 199.98767771 235.78515625 197.80078125 C235.65907486 197.12662674 235.53299347 196.45247223 235.40309143 195.75788879 C234.74939779 192.27138562 234.07967076 188.78907068 233.375 185.3125 C226.1918246 191.45390661 219.17427987 197.78455058 212.32641602 204.296875 C210.98405957 205.557053 209.62510649 206.79978232 208.25024414 208.02441406 C199.57130534 215.34601736 199.57130534 215.34601736 195.7199707 225.52270508 C195.80519436 229.15935408 196.36990749 232.68021063 197.03610229 236.25085449 C197.56106711 239.44441803 197.58105288 242.60846956 197.61328125 245.83984375 C197.63132812 247.05003174 197.649375 248.26021973 197.66796875 249.50708008 C197.87910762 289.96920477 187.20545045 329.20053171 163.375 362.3125 C162.9536377 362.90063477 162.53227539 363.48876953 162.09814453 364.09472656 C156.10194253 372.36906388 149.41599094 379.92779205 142.375 387.3125 C141.28445313 388.48232422 141.28445313 388.48232422 140.171875 389.67578125 C109.76018378 421.38278525 62.74036796 442.24711397 18.82299805 443.40625 C15.47226325 443.43983501 12.12348623 443.45309288 8.77270508 443.44287109 C6.70841982 443.43755389 4.64435644 443.44282399 2.58007812 443.44921875 C1.56733574 443.44755707 1.56733574 443.44755707 0.53413391 443.44586182 C-0.83406929 443.44549445 -2.20230567 443.45446457 -3.57038879 443.47259521 C-7.05313557 443.48432382 -9.92300491 443.24487708 -13.35620117 442.46582031 C-18.33196787 441.44158287 -22.3011402 440.79330616 -26.7492981 443.70123291 C-32.56311197 448.5236392 -37.54273052 454.19005871 -42.5625 459.8125 C-44.85879959 462.34297834 -47.16594675 464.86007461 -49.50282288 467.35314941 C-50.94943548 468.90019974 -52.37223609 470.46995498 -53.76707458 472.06384277 C-58.47994672 477.15509199 -58.47994672 477.15509199 -61.73675537 477.60279846 C-63.83666992 477.37133789 -63.83666992 477.37133789 -67.625 476.3125 C-68.43630371 476.10488037 -69.24760742 475.89726074 -70.08349609 475.68334961 C-70.76492676 475.44624268 -71.44635742 475.20913574 -72.1484375 474.96484375 C-73.32418335 474.55818481 -73.32418335 474.55818481 -74.52368164 474.14331055 C-75.74945923 473.70112183 -75.74945923 473.70112183 -77 473.25 C-77.87068115 472.93909424 -78.7413623 472.62818848 -79.63842773 472.30786133 C-121.79714244 456.97359847 -160.9159327 430.92415328 -188.625 395.3125 C-189.40101563 394.3534375 -190.17703125 393.394375 -190.9765625 392.40625 C-211.50708312 366.59645265 -226.54065627 336.28627285 -234.625 304.3125 C-234.89884521 303.23814697 -234.89884521 303.23814697 -235.17822266 302.14208984 C-236.41823022 297.21773546 -237.55805468 292.27706192 -238.625 287.3125 C-238.85316406 286.26578125 -239.08132812 285.2190625 -239.31640625 284.140625 C-239.88480553 281.19925807 -240.26977755 278.28732092 -240.625 275.3125 C-240.86682007 273.52573853 -240.86682007 273.52573853 -241.11352539 271.70288086 C-241.63606363 264.78774308 -241.71112583 259.6858628 -237.17048645 254.15977478 C-234.5043581 251.28391717 -231.68486113 248.60507605 -228.8125 245.9375 C-227.5983271 244.75323143 -226.38768397 243.56533423 -225.18041992 242.37402344 C-222.01865476 239.27287142 -218.8118914 236.22281366 -215.59265137 233.18151855 C-212.3061501 230.05976033 -209.06540378 226.8912454 -205.8203125 223.7265625 C-199.46538465 217.54237753 -193.06184819 211.41129293 -186.625 205.3125 C-185.22515939 208.11218121 -186.06035754 210.1970074 -186.60498047 213.17602539 C-195.16899871 261.35662532 -183.74334688 312.1097363 -156.3125 352.5 C-139.96762105 375.91146736 -119.30747169 395.03268858 -94.625 409.3125 C-93.89684082 409.73418457 -93.16868164 410.15586914 -92.41845703 410.59033203 C-75.35950775 420.32407628 -56.93247864 427.52752365 -37.625 431.3125 C-36.53276123 431.53462158 -36.53276123 431.53462158 -35.41845703 431.76123047 C11.82467869 440.99516127 63.7237749 430.90434971 103.88671875 404.39453125 C128.65329764 387.51172359 149.53559399 366.48884352 164.375 340.3125 C164.72481934 339.71630859 165.07463867 339.12011719 165.43505859 338.50585938 C175.47502454 321.31977399 182.60005039 301.85425041 186.375 282.3125 C186.52163086 281.59400879 186.66826172 280.87551758 186.81933594 280.13525391 C196.06558479 233.23788204 185.93674832 181.77050081 159.5234375 141.9296875 C131.64304307 101.09848822 90.15396998 69.69597627 40.953125 59.96484375 C36.24413463 59.10647583 31.52495862 58.34365493 26.78662109 57.66625977 C25.0322702 57.40891471 23.28410539 57.10826859 21.54125977 56.78198242 C15.07061932 55.82253747 8.46939075 56.07137613 1.9375 56.0625 C1.16087006 56.06016357 0.38424011 56.05782715 -0.41592407 56.05541992 C-13.67942727 56.04036856 -26.53835001 57.05293453 -39.625 59.3125 C-34.74775563 53.4327495 -29.48613122 48.04369183 -24.0703125 42.66015625 C-23.16876434 41.76002304 -22.26721619 40.85988983 -21.33834839 39.93247986 C-18.96301783 37.56177177 -16.58554595 35.19325485 -14.20697021 32.82580566 C-11.77155283 30.40069272 -9.33903088 27.97267915 -6.90625 25.54492188 C-2.14847231 20.79812872 2.6121538 16.05420719 7.375 11.3125 C-5.85304283 11.1450812 -18.87331973 11.04485514 -32 12.875 C-33.29454102 13.04990967 -34.58908203 13.22481934 -35.92285156 13.4050293 C-48.80636776 15.23198609 -61.23376712 18.38289755 -73.625 22.3125 C-74.46885254 22.57901367 -75.31270508 22.84552734 -76.18212891 23.12011719 C-119.12514218 37.04710867 -159.73227372 64.71513953 -187.625 100.3125 C-188.40359375 101.27414063 -189.1821875 102.23578125 -189.984375 103.2265625 C-209.79542893 128.14811124 -223.71273272 156.51346559 -232.36791992 187.06347656 C-232.76974487 188.46098145 -232.76974487 188.46098145 -233.1796875 189.88671875 C-233.41155762 190.71776123 -233.64342773 191.54880371 -233.88232422 192.4050293 C-234.625 194.3125 -234.625 194.3125 -236.625 195.3125 C-236.96617527 188.08106774 -235.84072316 182.1565683 -233.75 175.25 C-233.28352051 173.68995239 -233.28352051 173.68995239 -232.80761719 172.09838867 C-225.57123418 148.67174369 -215.11498634 125.18674357 -200.625 105.3125 C-200.19106934 104.71163574 -199.75713867 104.11077148 -199.31005859 103.49169922 C-185.99350691 85.11348741 -171.49000263 68.39683144 -153.625 54.3125 C-152.87347656 53.68214844 -152.12195313 53.05179688 -151.34765625 52.40234375 C-119.16387811 25.61003614 -78.82951761 8.75647591 -37.625 2.3125 C-35.94591553 2.04651001 -35.94591553 2.04651001 -34.23291016 1.77514648 C-22.81672527 0.14850302 -11.5185687 -0.04470638 0 0 Z " fill="#FDEB99" transform="translate(255.625,-0.3125)"/>
    <path d="M0 0 C7.59 0 15.18 0 23 0 C23 10.23 23 20.46 23 31 C25.97 31.33 28.94 31.66 32 32 C48.73429805 36.51692706 61.82381684 45.79393504 70.7109375 60.91015625 C77.12296719 73.03045628 78 81.73501245 78 96 C62.16 96 46.32 96 30 96 C29.67 92.04 29.34 88.08 29 84 C27.1770464 78.15267132 24.42630889 72.50217617 19.4375 68.75 C13.95270072 65.94969941 7.96788874 66.09103318 2 67 C-2.68198405 68.61243684 -5.88846609 71.23555098 -8.5 75.4375 C-11.55632748 82.64170048 -11.26285663 91.77149019 -8.4375 99 C-2.42002212 110.15184468 11.30908619 114.34233052 22.19723511 119.43087769 C24.74527261 120.62487717 27.28834901 121.82926087 29.83123779 123.03417969 C31.6972271 123.91265543 33.57012494 124.77489248 35.44384766 125.63671875 C53.38911526 134.11931712 68.22232463 146.05753306 75.15234375 165.1796875 C79.22724911 178.73766755 78.33747584 196.75410355 72.78125 209.87890625 C64.25681542 225.00977763 50.96857795 234.77642997 34.51953125 239.75 C29.38572743 241.02240577 25.57531169 241 20 241 C20 250.57 20 260.14 20 270 C12.41 270 4.82 270 -3 270 C-3 260.43 -3 250.86 -3 241 C-5.64 241 -8.28 241 -11 241 C-13.26245117 240.65209961 -13.26245117 240.65209961 -15.04296875 240.15234375 C-16.05496338 239.86870972 -16.05496338 239.86870972 -17.08740234 239.5793457 C-17.78043457 239.36753662 -18.4734668 239.15572754 -19.1875 238.9375 C-19.92436035 238.71344482 -20.6612207 238.48938965 -21.42041016 238.25854492 C-37.97503762 232.97747898 -50.68511317 223.36730392 -59 208 C-59.70769531 206.75863281 -59.70769531 206.75863281 -60.4296875 205.4921875 C-65.72916247 195.23817379 -67 183.39416067 -67 172 C-51.16 172.33 -35.32 172.66 -19 173 C-18.34 176.63 -17.68 180.26 -17 184 C-16.07568447 187.24200186 -16.07568447 187.24200186 -15 189.9375 C-14.505 191.25041016 -14.505 191.25041016 -14 192.58984375 C-13.505 193.78287109 -13.505 193.78287109 -13 195 C-12.71125 195.72316406 -12.4225 196.44632813 -12.125 197.19140625 C-10.70503579 199.47419593 -9.45893594 199.97845676 -7 201 C-6.360625 201.35320312 -5.72125 201.70640625 -5.0625 202.0703125 C1.7691151 205.56375204 8.97583801 206.60119634 16.40234375 204.234375 C20.98418145 202.08423887 24.72765765 199.48936546 27.078125 194.890625 C29.29654582 187.93455973 29.51682097 177.21445539 26.5625 170.375 C20.95292106 162.17772829 11.86844434 158.23595441 3.01196289 154.48846436 C-0.22274937 153.1154171 -3.43449297 151.69035426 -6.6484375 150.26953125 C-7.28380432 149.98948242 -7.91917114 149.70943359 -8.5737915 149.42089844 C-29.09858421 140.34284232 -46.59445348 130.59240092 -56.1796875 109.390625 C-61.17515031 95.59363248 -60.9395832 77.32440623 -55 64 C-47.58475139 49.4448701 -35.54766404 39.25635053 -20.34375 33.65234375 C-13.3813393 31.54091703 -7.39829815 30.73982982 0 30 C0 20.1 0 10.2 0 0 Z " fill="#FDE783" transform="translate(250,110)"/>
    <path d="M0 0 C2.53180164 6.95701368 4.00403786 13.76371596 5.1875 21.0625 C5.36474609 22.11888672 5.54199219 23.17527344 5.72460938 24.26367188 C6.15618309 26.84145002 6.58116655 29.42012674 7 32 C7.66 32 8.32 32 9 32 C11.25869942 53.11096037 10.29530722 74.05920115 7 95 C6.79914795 96.29164063 6.79914795 96.29164063 6.59423828 97.609375 C3.35333439 117.59691319 -2.806288 137.49673137 -11 156 C-11.42418213 156.97743164 -11.42418213 156.97743164 -11.85693359 157.97460938 C-21.53176141 180.1332544 -35.08304955 199.89028648 -51 218 C-52.16015625 219.32837891 -52.16015625 219.32837891 -53.34375 220.68359375 C-61.8802334 230.31719562 -70.84336679 239.08323267 -81 247 C-81.56928223 247.45101074 -82.13856445 247.90202148 -82.72509766 248.36669922 C-132.8799556 287.97817168 -197.47630651 306.17360565 -260.9163208 298.9581604 C-272.10412703 297.60661665 -283.05385834 295.69676019 -294 293 C-288.05430023 285.99964434 -281.91065714 279.22888657 -275.55395508 272.59960938 C-274.22671502 271.200288 -272.91502032 269.78605583 -271.61938477 268.35742188 C-260.86116182 256.52269616 -260.86116182 256.52269616 -254.2434082 255.3137207 C-250.40017188 255.59092204 -246.7784978 256.25632969 -243 257 C-240.36780604 257.11510622 -237.73236484 257.17022961 -235.09765625 257.16796875 C-233.78361816 257.17538086 -232.46958008 257.18279297 -231.11572266 257.19042969 C-229.76464811 257.19067597 -228.41357282 257.1896783 -227.0625 257.1875 C-226.36211609 257.18689575 -225.66173218 257.1862915 -224.94012451 257.18566895 C-214.82631634 257.16203519 -204.97105303 256.91497045 -195 255 C-194.3409668 254.88172852 -193.68193359 254.76345703 -193.00292969 254.64160156 C-153.99447257 247.52776228 -120.52141654 229.16129119 -92 202 C-90.94039063 201.01966797 -90.94039063 201.01966797 -89.859375 200.01953125 C-57.98268273 169.63300955 -38.0183626 121.72213261 -36.76300049 78.07841492 C-36.64681317 72.22778566 -36.67527964 66.378337 -36.76171875 60.52734375 C-36.76888916 59.30249268 -36.77605957 58.0776416 -36.78344727 56.81567383 C-36.945344 53.9630425 -37.24321197 51.69085835 -37.87084961 48.95581055 C-38.98321615 43.4215438 -39.61619331 38.68093831 -36.59085083 33.6625061 C-31.76580117 27.45775791 -25.96461802 22.23386522 -20.1875 16.9375 C-18.46151383 15.28474632 -16.73946193 13.62787367 -15.02148438 11.96679688 C-11.88626748 8.96444131 -8.74238486 5.97392422 -5.54760742 3.03491211 C-4.90949631 2.44665146 -4.27138519 1.85839081 -3.61393738 1.25230408 C-2 0 -2 0 0 0 Z " fill="#FCD735" transform="translate(489,185)"/>
    <path d="M0 0 C0.33 0 0.66 0 1 0 C1.18819772 4.14034988 0.88042529 7.71674846 0.01953125 11.76953125 C-1.73062215 22.05675198 -1.439605 32.53238832 -1.4375 42.9375 C-1.4385675 44.05160248 -1.43963501 45.16570496 -1.44073486 46.31356812 C-1.41616676 64.06721058 -0.34364544 80.72003229 4 98 C4.22993652 98.9492334 4.45987305 99.8984668 4.69677734 100.87646484 C14.21341437 139.38079173 32.87258568 174.29735784 59 204 C59.79664062 204.90878906 60.59328125 205.81757813 61.4140625 206.75390625 C68.85208018 215.12487116 76.52604537 222.74540791 85.33203125 229.68261719 C86.503035 230.60749076 87.6693073 231.53837139 88.83203125 232.47363281 C116.33015956 254.55755049 148.4277377 270.6809794 182.87670898 278.49682617 C184.50124154 278.88180508 186.11954569 279.29315485 187.73461914 279.71606445 C247.23641669 295.24224709 312.60525004 281.21675416 365 251 C370.16882368 247.90005653 375.13349457 244.55336698 380 241 C380.54769043 240.60103516 381.09538086 240.20207031 381.65966797 239.79101562 C398.91351098 227.09970794 414.79626036 212.90922963 428 196 C428.77730469 195.03964844 429.55460937 194.07929688 430.35546875 193.08984375 C468.6591337 144.92100595 488.04346448 79.84411676 481.0625 18.5625 C480.66522394 15.25949661 480.2496214 11.99328515 479.4375 8.76171875 C478.71846995 5.86633883 478.94297742 2.96517424 479 0 C479.33 0 479.66 0 480 0 C480.65140456 3.79073089 481.29508257 7.58273657 481.9375 11.375 C482.11990234 12.43589844 482.30230469 13.49679688 482.49023438 14.58984375 C482.66748047 15.64042969 482.84472656 16.69101563 483.02734375 17.7734375 C483.27085571 19.20308838 483.27085571 19.20308838 483.51928711 20.66162109 C484.64969956 28.51193085 485.16340564 36.26734601 485.203125 44.1953125 C485.21018463 45.13746613 485.21724426 46.07961975 485.22451782 47.05032349 C485.45352121 86.58655794 485.45352121 86.58655794 482 104 C481.70198486 105.53430664 481.70198486 105.53430664 481.39794922 107.09960938 C476.73665658 130.40956415 469.4656514 152.6556366 459 174 C458.61086426 174.79744629 458.22172852 175.59489258 457.82080078 176.41650391 C447.70895757 196.90945285 434.86402821 215.79269767 419.28515625 232.52734375 C417.37096117 234.59860099 415.55412389 236.70914701 413.75 238.875 C380.71098126 276.71125331 332.21296182 299.5046127 284 310 C283.11135254 310.1964209 282.22270508 310.3928418 281.30712891 310.59521484 C252.90594409 316.52513255 219.20812541 315.26497428 191 309 C189.93265625 308.76394043 188.8653125 308.52788086 187.765625 308.28466797 C147.36623678 299.00453599 109.83739315 279.55276024 79.47265625 251.28515625 C77.40139901 249.37096117 75.29085299 247.55412389 73.125 245.75 C26.92871194 205.29296565 -0.16109923 140.14874855 -5 80 C-5.14692069 76.60114623 -5.18616162 73.20644911 -5.203125 69.8046875 C-5.21344254 68.39036942 -5.21344254 68.39036942 -5.22396851 66.94747925 C-5.24103997 63.92327969 -5.24742173 60.89924517 -5.25 57.875 C-5.25167175 56.84620728 -5.25334351 55.81741455 -5.25506592 54.75744629 C-5.25689141 36.04911899 -3.78066373 18.33549111 0 0 Z " fill="#E88102" transform="translate(16,199)"/>
    <path d="M0 0 C0.76341705 0.00149048 1.52683411 0.00298096 2.31338501 0.0045166 C14.01066089 0.04546585 25.25413227 0.66990859 36.6875 3.3125 C37.35620117 3.45703613 38.02490234 3.60157227 38.71386719 3.75048828 C43.42182686 4.7739085 48.05803093 5.98018187 52.6875 7.3125 C53.37070312 7.50650391 54.05390625 7.70050781 54.7578125 7.90039062 C88.09956456 17.58918389 115.62048557 36.72228961 139.6875 61.3125 C135.70860415 61.3125 134.64386675 59.91804315 131.5625 57.4375 C93.98436438 28.22502193 42.92206022 16.653808 -3.91015625 21.9609375 C-52.71074764 28.61504569 -99.03859966 53.64915331 -129.30712891 92.90112305 C-155.07171434 127.06639522 -169.50807482 166.27531194 -169.625 209.1875 C-169.63055908 210.45819336 -169.63611816 211.72888672 -169.6418457 213.03808594 C-169.55324148 224.72172673 -168.03528276 236.0898119 -165.875 247.5625 C-165.64941406 248.78453125 -165.42382812 250.0065625 -165.19140625 251.265625 C-159.65886334 278.10971419 -147.95820216 302.8530639 -131.46655273 324.63110352 C-130.21723093 326.45130222 -129.25691449 328.31952166 -128.3125 330.3125 C-160.70740054 303.43162508 -181.1183325 263.47797996 -188.3125 222.3125 C-188.48982666 221.30630615 -188.66715332 220.3001123 -188.84985352 219.26342773 C-190.35474859 209.88244631 -190.67193677 200.72274119 -190.625 191.25 C-190.62317719 190.48381348 -190.62135437 189.71762695 -190.61947632 188.92822266 C-190.56994893 176.52540268 -189.93029328 164.47390185 -187.3125 152.3125 C-187.14621094 151.53132812 -186.97992188 150.75015625 -186.80859375 149.9453125 C-175.78898351 100.15299956 -144.97860912 56.81034698 -102.25 29.25 C-71.26955674 9.83958717 -36.4771546 -0.17754566 0 0 Z " fill="#E88102" transform="translate(256.3125,54.6875)"/>
    <path d="M0 0 C1.46049774 0.00273422 1.46049774 0.00273422 2.95050049 0.00552368 C16.9687164 0.04974564 30.60882275 0.45111782 44.375 3.3125 C45.23996094 3.47878906 46.10492188 3.64507812 46.99609375 3.81640625 C61.85473568 6.69433546 76.16281913 11.13570703 90.375 16.3125 C91.2817749 16.61712158 92.1885498 16.92174316 93.12280273 17.2355957 C93.86602783 17.59097412 94.60925293 17.94635254 95.375 18.3125 C95.705 19.3025 96.035 20.2925 96.375 21.3125 C91.19430903 26.70198629 85.98933461 32.0667426 80.75228882 37.40152073 C78.32103976 39.8796848 75.89883895 42.36548356 73.49560547 44.87084961 C70.73039119 47.75282495 67.92926259 50.59740823 65.125 53.44140625 C64.26946533 54.34339249 63.41393066 55.24537872 62.5324707 56.17469788 C56.59751646 62.11457071 56.59751646 62.11457071 53.18716431 62.66671753 C51.11572266 62.42553711 51.11572266 62.42553711 47.375 61.3125 C45.92746338 61.08240234 45.92746338 61.08240234 44.45068359 60.84765625 C43.56719238 60.69167969 42.68370117 60.53570312 41.7734375 60.375 C40.78859375 60.20226563 39.80375 60.02953125 38.7890625 59.8515625 C37.78617187 59.67367187 36.78328125 59.49578125 35.75 59.3125 C33.73700752 58.95817224 31.72398749 58.60400092 29.7109375 58.25 C28.82970215 58.09402344 27.9484668 57.93804687 27.04052734 57.77734375 C25.72109131 57.54724609 25.72109131 57.54724609 24.375 57.3125 C23.42826416 57.13235352 22.48152832 56.95220703 21.50610352 56.76660156 C15.04463132 55.82949916 8.45743723 56.07135988 1.9375 56.0625 C1.16087006 56.06016357 0.38424011 56.05782715 -0.41592407 56.05541992 C-13.67942727 56.04036856 -26.53835001 57.05293453 -39.625 59.3125 C-34.74775563 53.4327495 -29.48613122 48.04369183 -24.0703125 42.66015625 C-23.16876434 41.76002304 -22.26721619 40.85988983 -21.33834839 39.93247986 C-18.96301783 37.56177177 -16.58554595 35.19325485 -14.20697021 32.82580566 C-11.77155283 30.40069272 -9.33903088 27.97267915 -6.90625 25.54492188 C-2.14847231 20.79812872 2.6121538 16.05420719 7.375 11.3125 C-5.85304283 11.1450812 -18.87331973 11.04485514 -32 12.875 C-33.29454102 13.04990967 -34.58908203 13.22481934 -35.92285156 13.4050293 C-48.80636776 15.23198609 -61.23376712 18.38289755 -73.625 22.3125 C-74.46885254 22.57901367 -75.31270508 22.84552734 -76.18212891 23.12011719 C-119.12514218 37.04710867 -159.73227372 64.71513953 -187.625 100.3125 C-188.40359375 101.27414063 -189.1821875 102.23578125 -189.984375 103.2265625 C-209.79542893 128.14811124 -223.71273272 156.51346559 -232.36791992 187.06347656 C-232.76974487 188.46098145 -232.76974487 188.46098145 -233.1796875 189.88671875 C-233.41155762 190.71776123 -233.64342773 191.54880371 -233.88232422 192.4050293 C-234.625 194.3125 -234.625 194.3125 -236.625 195.3125 C-236.96617527 188.08106774 -235.84072316 182.1565683 -233.75 175.25 C-233.28352051 173.68995239 -233.28352051 173.68995239 -232.80761719 172.09838867 C-225.57123418 148.67174369 -215.11498634 125.18674357 -200.625 105.3125 C-200.19106934 104.71163574 -199.75713867 104.11077148 -199.31005859 103.49169922 C-185.99350691 85.11348741 -171.49000263 68.39683144 -153.625 54.3125 C-152.87347656 53.68214844 -152.12195313 53.05179688 -151.34765625 52.40234375 C-119.16387811 25.61003614 -78.82951761 8.75647591 -37.625 2.3125 C-35.94591553 2.04651001 -35.94591553 2.04651001 -34.23291016 1.77514648 C-22.81672527 0.14850302 -11.5185687 -0.04470638 0 0 Z " fill="#FDEB99" transform="translate(255.625,-0.3125)"/>
    <path d="M0 0 C6.24646393 1.89762507 11.98650701 4.2519805 17.75 7.3125 C18.55928955 7.74199951 19.3685791 8.17149902 20.20239258 8.61401367 C41.61269971 20.24412692 60.43487037 35.22989746 78 52 C78.67417969 52.63292969 79.34835937 53.26585937 80.04296875 53.91796875 C85.18006525 58.86697934 89.57396286 64.41839652 94 70 C94.79535156 70.99 95.59070313 71.98 96.41015625 73 C101.25818736 79.14647368 105.7641128 85.45616567 110.0625 92 C110.53993652 92.71816895 111.01737305 93.43633789 111.50927734 94.17626953 C113.81516868 97.74909716 115.58509014 100.6646153 116 105 C114.02 106.485 114.02 106.485 112 108 C111.09121094 106.60201172 111.09121094 106.60201172 110.1640625 105.17578125 C93.23381361 78.70446201 93.23381361 78.70446201 71 57 C67.79311983 57.40299796 66.15496075 58.47464153 63.91552734 60.74389648 C63.34168304 61.31796738 62.76783875 61.89203827 62.17660522 62.48350525 C61.56918488 63.10640945 60.96176453 63.72931366 60.3359375 64.37109375 C59.70265533 65.00862076 59.06937317 65.64614777 58.41690063 66.30299377 C56.39578145 68.34089304 54.38533481 70.38896691 52.375 72.4375 C51.01371345 73.81383643 49.65174197 75.18949578 48.2890625 76.56445312 C45.29118313 79.59182779 42.29999907 82.62564163 39.31454468 85.66526794 C38.21480328 86.781898 37.1082179 87.8917821 36 89 C34.6696875 87.576875 34.6696875 87.576875 33.3125 86.125 C12.81645797 65.79194837 -14.63184684 52.22047091 -42 44 C-38.27672318 40.26839059 -34.5360089 36.5546678 -30.7922821 32.84358215 C-27.46285848 29.54081908 -24.13863015 26.23284845 -20.81469727 22.92456055 C-19.05604425 21.17604009 -17.29561145 19.429308 -15.53344727 17.68432617 C-12.99028769 15.16529031 -10.45352237 12.6399698 -7.91796875 10.11328125 C-7.12432419 9.32995926 -6.33067963 8.54663727 -5.51298523 7.73957825 C-4.78835587 7.01509995 -4.0637265 6.29062164 -3.31713867 5.54418945 C-2.67491867 4.90641068 -2.03269867 4.2686319 -1.37101746 3.61152649 C0.21599436 2.09875224 0.21599436 2.09875224 0 0 Z " fill="#FDEB98" transform="translate(351,19)"/>
    <path d="M0 0 C1.39984061 2.79968121 0.56464246 4.8845074 0.02001953 7.86352539 C-4.58337854 33.76193831 -3.8156821 62.29308641 3.44921875 87.58984375 C4.05741345 90.25123475 4.2641992 92.2759089 4 95 C2.55737305 97.04389954 2.55737305 97.04389954 0.51171875 99.0559082 C-0.24906982 99.81631912 -1.0098584 100.57673004 -1.79370117 101.36018372 C-3.04050659 102.5682795 -3.04050659 102.5682795 -4.3125 103.80078125 C-5.15594971 104.63715622 -5.99939941 105.47353119 -6.8684082 106.33525085 C-9.56744479 109.0062791 -12.28333772 111.65941203 -15 114.3125 C-16.83186547 116.11929136 -18.66260939 117.92722059 -20.4921875 119.73632812 C-24.98185674 124.17084205 -29.48549285 128.59078233 -34 133 C-37 132 -37 132 -37.99560547 130.15258789 C-38.28322754 129.35071045 -38.57084961 128.54883301 -38.8671875 127.72265625 C-39.35590332 126.3778418 -39.35590332 126.3778418 -39.85449219 125.00585938 C-40.19125977 124.03455078 -40.52802734 123.06324219 -40.875 122.0625 C-41.22723633 121.06412109 -41.57947266 120.06574219 -41.94238281 119.03710938 C-46.30720208 106.48275294 -49.77750297 93.92503819 -52.3125 80.875 C-52.48426758 80.029375 -52.65603516 79.18375 -52.83300781 78.3125 C-53.33652335 75.54579252 -53.6756618 72.79379311 -54 70 C-54.15957687 68.81511993 -54.31915375 67.63023987 -54.48356628 66.40945435 C-55.00868755 59.48962508 -55.0908224 54.37704029 -50.54559803 48.84684563 C-47.87905756 45.97151863 -45.05978987 43.29250987 -42.1875 40.625 C-40.9733271 39.44073143 -39.76268397 38.25283423 -38.55541992 37.06152344 C-35.39365476 33.96037142 -32.1868914 30.91031366 -28.96765137 27.86901855 C-25.6811501 24.74726033 -22.44040378 21.5787454 -19.1953125 18.4140625 C-12.84038465 12.22987753 -6.43684819 6.09879293 0 0 Z " fill="#FDEB99" transform="translate(69,205)"/>
    <path d="M0 0 C5.70038013 5.3110099 5.79576704 12.91047807 6.1640625 20.28515625 C6.58499811 38.48105477 3.14223229 52.11864491 -9.58984375 65.6796875 C-21.09745953 76.75833219 -35.22308329 82 -51 82 C-51 91.57 -51 101.14 -51 111 C-58.59 111 -66.18 111 -74 111 C-74 101.43 -74 91.86 -74 82 C-76.64 82 -79.28 82 -82 82 C-54.66666667 54.66666667 -27.33333333 27.33333333 0 0 Z " fill="#FCD735" transform="translate(321,269)"/>
    <path d="M0 0 C8.4274814 46.42639307 -2.56115344 97.44492822 -29.31640625 136.2421875 C-30.20647653 137.49796545 -31.10087815 138.75068689 -32 140 C-32.63204346 140.88220215 -32.63204346 140.88220215 -33.27685547 141.78222656 C-39.27305747 150.05656388 -45.95900906 157.61529205 -53 165 C-53.72703125 165.77988281 -54.4540625 166.55976563 -55.203125 167.36328125 C-85.70661256 199.16599143 -132.57920365 219.7554322 -176.56811523 221.10986328 C-179.93191963 221.15977198 -183.29319636 221.18569628 -186.65722656 221.18530273 C-188.7326331 221.18748177 -190.80749988 221.2056848 -192.8828125 221.22460938 C-201.75811468 221.26054337 -210.24350684 220.51462274 -219 219 C-217.54414431 215.62695252 -216.87534107 214.15700697 -214 212 C-209.43256148 211.25513715 -204.95275475 211.42626064 -200.35025024 211.6449585 C-196.49041368 211.82218197 -192.62879475 211.87166889 -188.765625 211.9296875 C-188.00256546 211.94335358 -187.23950592 211.95701965 -186.45332336 211.97109985 C-139.34442205 212.63574087 -94.11603472 188.94015143 -60.7746582 157.10864258 C-48.9644137 145.57135461 -39.13472177 132.3494471 -31 118 C-30.65018066 117.40380859 -30.30036133 116.80761719 -29.93994141 116.19335938 C-19.8961319 99.00069472 -12.7919476 79.54421111 -9 60 C-8.85336914 59.29214355 -8.70673828 58.58428711 -8.55566406 57.85498047 C-6.69456319 48.5714891 -5.89690251 39.47430108 -5.9921875 30.015625 C-5.99943848 29.22916092 -6.00668945 28.44269684 -6.01416016 27.63240051 C-6.06025541 23.66282561 -6.14747445 19.69860764 -6.28613281 15.73120117 C-6.31868319 14.25700581 -6.35092343 12.78280356 -6.3828125 11.30859375 C-6.42809082 9.99689209 -6.47336914 8.68519043 -6.52001953 7.33374023 C-6 4 -6 4 -3.53857422 1.54321289 C-1 0 -1 0 0 0 Z " fill="#FDEA96" transform="translate(451,222)"/>
    <path d="M0 0 C2.04687058 0.01005913 4.09374599 0.01917975 6.140625 0.02734375 C11.09387219 0.04910355 16.04688076 0.08346843 21 0.125 C21 0.455 21 0.785 21 1.125 C20.175 1.310625 19.35 1.49625 18.5 1.6875 C15.04545707 3.10633013 13.96568222 4.07643246 11.47265625 6.671875 C6.51315557 11.08845162 2.35338163 10.97802471 -4.0625 10.8125 C-28.35237484 11.04142694 -51.85346675 14.78459451 -75 22.125 C-75.84385254 22.39151367 -76.68770508 22.65802734 -77.55712891 22.93261719 C-120.50014218 36.85960867 -161.10727372 64.52763953 -189 100.125 C-189.77859375 101.08664063 -190.5571875 102.04828125 -191.359375 103.0390625 C-211.17042893 127.96061124 -225.08773272 156.32596559 -233.74291992 186.87597656 C-234.14474487 188.27348145 -234.14474487 188.27348145 -234.5546875 189.69921875 C-234.78655762 190.53026123 -235.01842773 191.36130371 -235.25732422 192.2175293 C-236 194.125 -236 194.125 -238 195.125 C-238.34117527 187.89356774 -237.21572316 181.9690683 -235.125 175.0625 C-234.65852051 173.50245239 -234.65852051 173.50245239 -234.18261719 171.91088867 C-226.94623418 148.48424369 -216.48998634 124.99924357 -202 105.125 C-201.56606934 104.52413574 -201.13213867 103.92327148 -200.68505859 103.30419922 C-187.36850691 84.92598741 -172.86500263 68.20933144 -155 54.125 C-154.24847656 53.49464844 -153.49695313 52.86429688 -152.72265625 52.21484375 C-120.52763284 25.41317469 -80.21031722 8.59371718 -39 2.125 C-37.8965625 1.94549805 -36.793125 1.76599609 -35.65625 1.58105469 C-23.76553542 -0.14590104 -11.99516134 -0.10367638 0 0 Z " fill="#FDEA94" transform="translate(257,-0.125)"/>
    <path d="M0 0 C1.40424957 2.69872685 2.55100119 5.37695719 3.55859375 8.24609375 C8.32225833 21.46320522 14.21475291 33.70722168 21 46 C16.92935998 50.8887452 12.65719636 55.47950092 8.140625 59.95703125 C7.51017273 60.58606857 6.87972046 61.2151059 6.23016357 61.86320496 C4.23913737 63.84869041 2.24464486 65.83065061 0.25 67.8125 C-1.10309726 69.16057379 -2.45596394 70.50887906 -3.80859375 71.85742188 C-6.27299453 74.31368711 -8.7386315 76.76869473 -11.20605469 79.22192383 C-12.80593084 80.81271295 -14.40466089 82.40466089 -16 84 C-21.9966828 74.77821049 -27.90668124 65.53662676 -33.0625 55.8125 C-33.41948975 55.14355713 -33.77647949 54.47461426 -34.14428711 53.78540039 C-36.47617096 49.30152568 -38.30050142 44.75965489 -40 40 C-39.50982895 39.58047562 -39.0196579 39.16095123 -38.51463318 38.72871399 C-33.64907955 34.52394908 -29.01160516 30.15891737 -24.47265625 25.60546875 C-23.79827011 24.93203934 -23.12388397 24.25860992 -22.42906189 23.56477356 C-21.02040932 22.1567956 -19.61299501 20.74757776 -18.20678711 19.3371582 C-16.04720227 17.17216396 -13.88226118 15.01262744 -11.71679688 12.85351562 C-10.3434288 11.47948763 -8.97037049 10.10514994 -7.59765625 8.73046875 C-6.94982681 8.08466354 -6.30199738 7.43885834 -5.63453674 6.77348328 C-4.74241737 5.87663567 -4.74241737 5.87663567 -3.83227539 4.96166992 C-3.30791397 4.43651291 -2.78355255 3.9113559 -2.24330139 3.37028503 C-0.88748638 1.99982008 -0.88748638 1.99982008 0 0 Z " fill="#FCD735" transform="translate(73,298)"/>
    <path d="M0 0 C3.83531235 1.1673932 6.64282382 2.94175733 9.71484375 5.43505859 C10.2776001 5.88316895 10.84035645 6.3312793 11.42016602 6.79296875 C23.08847163 16.36945383 30.35733447 29.23528948 33.27734375 43.99755859 C33.27734375 48.94755859 33.27734375 53.89755859 33.27734375 58.99755859 C17.43734375 58.99755859 1.59734375 58.99755859 -14.72265625 58.99755859 C-15.05265625 55.03755859 -15.38265625 51.07755859 -15.72265625 46.99755859 C-17.66122098 40.7793942 -20.32692953 35.37928503 -25.97265625 31.87255859 C-26.6378125 31.53998047 -27.30296875 31.20740234 -27.98828125 30.86474609 C-29.72265625 29.99755859 -29.72265625 29.99755859 -31.72265625 27.99755859 C-27.88898543 23.96598161 -24.02963754 19.96153334 -20.14428711 15.97973633 C-18.8266971 14.62193931 -17.51637914 13.25704575 -16.21362305 11.88500977 C-14.33823758 9.91246147 -12.4380724 7.96701738 -10.53125 6.02490234 C-9.66674477 5.09846169 -9.66674477 5.09846169 -8.78477478 4.15330505 C-5.66162277 1.02678344 -4.58832348 -0.00300913 0 0 Z " fill="#FDEB99" transform="translate(294.72265625,147.00244140625)"/>
    <path d="M0 0 C5.40833105 1.41150239 10.37880313 3.70620231 15.48461914 5.95288086 C16.57452148 6.41436523 17.66442383 6.87584961 18.78735352 7.35131836 C27.86415344 11.32480624 36.30003066 15.89571864 41.17211914 24.82788086 C42.43472919 28.61571101 42.3952897 32.19309912 42.42211914 36.14038086 C42.44274414 36.88739258 42.46336914 37.6344043 42.48461914 38.40405273 C42.52491114 44.14062673 41.48732368 48.26030805 37.52368164 52.65600586 C36.95391602 53.12522461 36.38415039 53.59444336 35.79711914 54.07788086 C35.23250977 54.55741211 34.66790039 55.03694336 34.08618164 55.53100586 C28.1985003 59.52021036 22.06446862 59.66799311 15.17211914 58.82788086 C7.53862504 56.27635383 1.78447352 52.12424241 -2.01538086 44.95288086 C-5.17607042 38.10685287 -6.05778223 32.29967541 -5.82788086 24.82788086 C-11.43788086 24.82788086 -17.04788086 24.82788086 -22.82788086 24.82788086 C-21.32847622 21.82907158 -20.32173027 20.03418393 -18.21850586 17.62084961 C-17.71061523 17.03368164 -17.20272461 16.44651367 -16.67944336 15.84155273 C-16.15092773 15.23891602 -15.62241211 14.6362793 -15.07788086 14.01538086 C-14.56483398 13.4243457 -14.05178711 12.83331055 -13.52319336 12.22436523 C-12.48613964 11.02966893 -11.4424805 9.84067481 -10.39233398 8.6574707 C-9.31991942 7.40330798 -8.29384934 6.10845036 -7.31030273 4.78344727 C-6.81594727 4.13424316 -6.3215918 3.48503906 -5.81225586 2.81616211 C-5.38138672 2.219729 -4.95051758 1.6232959 -4.5065918 1.00878906 C-2.82788086 -0.17211914 -2.82788086 -0.17211914 0 0 Z " fill="#F29E0A" transform="translate(236.827880859375,257.172119140625)"/>
    <path d="M0 0 C9.46731743 3.04478597 9.46731743 3.04478597 13.796875 5.19921875 C14.60479492 5.59995605 15.41271484 6.00069336 16.24511719 6.41357422 C17.07172852 6.83396973 17.89833984 7.25436523 18.75 7.6875 C19.6152832 8.12594238 20.48056641 8.56438477 21.37207031 9.01611328 C26.56815974 11.67980907 31.72195029 14.40472619 36.75 17.375 C37.77609375 17.98085938 38.8021875 18.58671875 39.859375 19.2109375 C40.56578125 19.80132812 41.2721875 20.39171875 42 21 C42 25 42 25 40.82312012 26.65789795 C40.27240845 27.19972717 39.72169678 27.7415564 39.15429688 28.29980469 C38.53365356 28.92014587 37.91301025 29.54048706 37.27355957 30.17962646 C36.59547241 30.83706848 35.91738525 31.4945105 35.21875 32.171875 C34.53067261 32.8542926 33.84259521 33.53671021 33.13366699 34.23980713 C30.93164254 36.41942309 28.71612543 38.58473174 26.5 40.75 C25.00560138 42.22433958 23.51209998 43.69958918 22.01953125 45.17578125 C18.35668561 48.79449998 14.68167744 52.40044646 11 56 C9.9385376 55.46528076 8.8770752 54.93056152 7.78344727 54.37963867 C6.3569714 53.66317342 4.93045558 52.94678771 3.50390625 52.23046875 C2.80833618 51.87980347 2.11276611 51.52913818 1.39611816 51.16784668 C-10.75099741 45.07495195 -23.0243283 40.0455758 -36 36 C-24 24 -12 12 0 0 Z " fill="#FCD735" transform="translate(345,27)"/>
    <path d="M0 0 C6.88876587 3.83579008 9.73403956 10.0772864 12.5625 17.1484375 C12.5625 21.1084375 12.5625 25.0684375 12.5625 29.1484375 C28.4025 29.1484375 44.2425 29.1484375 60.5625 29.1484375 C60.5625 29.4784375 60.5625 29.8084375 60.5625 30.1484375 C59.48468262 30.12112549 58.40686523 30.09381348 57.29638672 30.06567383 C53.22915306 29.97766882 49.16427695 29.96429328 45.09619141 29.97143555 C43.34860533 29.96453507 41.60097013 29.93840764 39.85400391 29.89135742 C27.85699266 29.5850654 20.36411426 31.01796261 11.4206543 39.32006836 C10.46510283 40.25998624 9.51228522 41.20269321 8.5625 42.1484375 C7.64259277 43.00928955 6.72268555 43.8701416 5.77490234 44.75708008 C4.33765814 46.1099529 2.9189005 47.48298908 1.52734375 48.8828125 C-0.4375 50.1484375 -0.4375 50.1484375 -2.8515625 50.015625 C-12.20246028 46.87982544 -22.18995667 41.01859742 -26.9375 32.0859375 C-29.54336544 25.24992277 -29.76214255 17.40316495 -27.58984375 10.42578125 C-25.33637746 5.85009886 -22.37815771 2.41258288 -17.875 -0.03515625 C-12.07792766 -1.97680388 -5.77968282 -2.01918406 0 0 Z " fill="#F5B547" transform="translate(267.4375,176.8515625)"/>
    <path d="M0 0 C3.44313596 1.58711394 4.73089038 2.69934059 6.47265625 6.10546875 C6.89740234 6.92466797 7.32214844 7.74386719 7.75976562 8.58789062 C8.18966797 9.44576172 8.61957031 10.30363281 9.0625 11.1875 C9.49626953 12.02603516 9.93003906 12.86457031 10.37695312 13.72851562 C11.61337244 16.13925101 12.81298094 18.56462655 14 21 C14.33370605 21.6595166 14.66741211 22.3190332 15.01123047 22.99853516 C16.83692289 26.82512842 17.22369746 28.96122479 16 33 C14.64039612 34.8540802 14.64039612 34.8540802 12.88891602 36.59692383 C12.23476212 37.25723099 11.58060822 37.91753815 10.90663147 38.59785461 C10.19623215 39.2938829 9.48583282 39.98991119 8.75390625 40.70703125 C8.02759506 41.43242599 7.30128387 42.15782074 6.55296326 42.90519714 C5.0184656 44.43366008 3.47911734 45.95726653 1.93530273 47.47631836 C-0.43564217 49.81067085 -2.79011129 52.16071366 -5.14257812 54.51367188 C-6.63447456 55.99574063 -8.12728221 57.4768928 -9.62109375 58.95703125 C-10.32946884 59.66318069 -11.03784393 60.36933014 -11.76768494 61.09687805 C-12.424991 61.74142441 -13.08229706 62.38597076 -13.75952148 63.05004883 C-14.62769753 63.90678947 -14.62769753 63.90678947 -15.51341248 64.78083801 C-17 66 -17 66 -19 66 C-19.35191406 65.01902344 -19.70382812 64.03804688 -20.06640625 63.02734375 C-22.95717207 55.09284025 -26.03428221 47.39118792 -29.90258789 39.87475586 C-32.0620214 35.51671409 -32.0620214 35.51671409 -31.7613678 33.01190186 C-30.87124757 30.65977384 -29.82638395 29.46412018 -28.04077148 27.70019531 C-27.4202037 27.07985413 -26.79963593 26.45951294 -26.16026306 25.82037354 C-25.48733719 25.16293152 -24.81441132 24.5054895 -24.12109375 23.828125 C-23.4344313 23.1457074 -22.74776886 22.46328979 -22.04029846 21.76019287 C-19.84630585 19.58298804 -17.64211084 17.41644719 -15.4375 15.25 C-13.94788366 13.77543029 -12.4589428 12.30017787 -10.97070312 10.82421875 C-7.32159192 7.20817824 -3.66329621 3.60166712 0 0 Z " fill="#FDD836" transform="translate(462,128)"/>
    <path d="M0 0 C0.79720459 0.31565918 1.59440918 0.63131836 2.41577148 0.95654297 C3.16181641 1.25093262 3.90786133 1.54532227 4.67651367 1.84863281 C5.80814941 2.3777124 5.80814941 2.3777124 6.96264648 2.91748047 C8.23108398 3.50142578 8.23108398 3.50142578 9.52514648 4.09716797 C10.83225586 4.70818359 10.83225586 4.70818359 12.16577148 5.33154297 C18.48603091 8.2822665 24.74213207 10.90825838 31.41577148 12.95654297 C30.07004262 15.95598201 28.58040047 18.03730476 26.2512207 20.34814453 C25.6107077 20.98850647 24.9701947 21.62886841 24.31027222 22.28863525 C23.62063385 22.96795105 22.93099548 23.64726685 22.22045898 24.34716797 C21.51301544 25.05178162 20.8055719 25.75639526 20.07669067 26.48236084 C17.81937287 28.72849687 15.55519515 30.96757306 13.29077148 33.20654297 C11.75776195 34.72952014 10.22520433 36.25295236 8.69311523 37.77685547 C4.93922576 41.50871112 1.17968234 45.23479648 -2.58422852 48.95654297 C-7.66971089 47.33055625 -12.59903221 45.6362745 -17.42407227 43.32763672 C-18.42374023 42.85003906 -19.4234082 42.37244141 -20.45336914 41.88037109 C-21.46592773 41.38988281 -22.47848633 40.89939453 -23.52172852 40.39404297 C-25.08117187 39.65250977 -25.08117187 39.65250977 -26.67211914 38.89599609 C-34.32371395 35.21705754 -34.32371395 35.21705754 -36.58422852 32.95654297 C-36.15972412 32.60785156 -35.73521973 32.25916016 -35.29785156 31.89990234 C-30.70743024 28.0135552 -26.4707303 23.86656514 -22.29125977 19.55029297 C-21.73324677 18.97730469 -21.17523376 18.40431641 -20.60031128 17.81396484 C-18.2684097 15.41903218 -15.93771074 13.02362095 -13.63037109 10.60498047 C-11.92677711 8.82294865 -10.20490053 7.06045654 -8.47875977 5.30029297 C-7.96094437 4.7483728 -7.44312897 4.19645264 -6.90962219 3.62780762 C-3.25430696 -0.05472524 -3.25430696 -0.05472524 0 0 Z " fill="#FCD735" transform="translate(172.584228515625,420.04345703125)"/>
    <path d="M0 0 C1.02897518 2.02174862 1.99486935 3.98625901 2.7890625 6.11328125 C5.18970795 12.42899803 8.64981184 15.96138709 14 20 C12.36221955 24.19625909 9.26676818 26.98676785 6.1171875 30.078125 C5.54292023 30.64956238 4.96865295 31.22099976 4.37698364 31.80975342 C2.5476419 33.62792945 0.71145807 35.43901492 -1.125 37.25 C-2.36894774 38.48391329 -3.6124427 39.71828322 -4.85546875 40.953125 C-7.89842367 43.97406743 -10.94753254 46.98867092 -14 50 C-21.82250741 46.97390361 -27.74060387 41.47697162 -34 36 C-32.65427113 33.00056095 -31.16462899 30.91923821 -28.83544922 28.60839844 C-27.87467972 27.64785553 -27.87467972 27.64785553 -26.89450073 26.66790771 C-26.20486237 25.98859192 -25.515224 25.30927612 -24.8046875 24.609375 C-24.09724396 23.90476135 -23.38980042 23.20014771 -22.66091919 22.47418213 C-20.40360138 20.2280461 -18.13942367 17.98896991 -15.875 15.75 C-14.34199047 14.22702283 -12.80943285 12.70359061 -11.27734375 11.1796875 C-7.52345427 7.44783185 -3.76391086 3.72174649 0 0 Z " fill="#FDF0B0" transform="translate(238,200)"/>
    <path d="M0 0 C2.72739865 0.83720845 4.56679518 1.43842386 6.78491211 3.15527344 C7.34436523 3.58517578 7.90381836 4.01507813 8.48022461 4.45800781 C9.03709961 4.90853516 9.59397461 5.3590625 10.16772461 5.82324219 C10.74780273 6.26216797 11.32788086 6.70109375 11.92553711 7.15332031 C16.01349321 10.36733252 16.01349321 10.36733252 17.13768005 12.95770264 C17.29272461 15.01074219 17.29272461 15.01074219 16.19813538 16.706604 C15.6274382 17.26619812 15.05674103 17.82579224 14.46875 18.40234375 C13.82801041 19.04270569 13.18727081 19.68306763 12.52711487 20.34283447 C11.82199265 21.02215027 11.11687042 21.70146606 10.39038086 22.40136719 C9.67869247 23.10598083 8.96700409 23.81059448 8.23374939 24.53656006 C5.95234357 26.7899215 3.65418935 29.02531125 1.35522461 31.26074219 C-0.19213199 32.78302925 -1.73837122 34.30645299 -3.28344727 35.83105469 C-7.07851081 39.57091551 -10.88747981 43.29615476 -14.70727539 47.01074219 C-16.70727539 44.01074219 -16.70727539 44.01074219 -17.71508789 41.92480469 C-20.30294869 36.62240459 -22.71454784 33.76976893 -27.93774414 30.98339844 C-29.70727539 30.01074219 -29.70727539 30.01074219 -31.70727539 28.01074219 C-27.87360457 23.9791652 -24.01425668 19.97471693 -20.12890625 15.99291992 C-18.81131624 14.63512291 -17.50099828 13.27022934 -16.19824219 11.89819336 C-14.32285672 9.92564507 -12.42269154 7.98020097 -10.51586914 6.03808594 C-9.65136391 5.11164528 -9.65136391 5.11164528 -8.76939392 4.16648865 C-5.65640751 1.05014359 -4.57044428 0.0132433 0 0 Z " fill="#FDF0B0" transform="translate(294.707275390625,146.9892578125)"/>
    <path d="M0 0 C3.71766995 1.23922332 3.92452255 2.2038266 5.75 5.5625 C15.23438035 21.88121325 29.95601996 29.36726397 47.73828125 34.21875 C51.5123525 35.12271916 55.13535774 35.69082862 59 36 C59 40.95 59 45.9 59 51 C41.98156381 51 25.29214336 43.77818615 13 32 C5.57001273 24.25044338 -1.15793201 13.9621942 -2 3 C-1.34 2.01 -0.68 1.02 0 0 Z " fill="#DB6804" transform="translate(188,315)"/>
    <path d="M0 0 C0.33 0 0.66 0 1 0 C1.58502677 16.25074367 -1.41628755 28.61704909 -12.25 41.25 C-21.86015544 51.32233539 -35.95084352 59.47429509 -50.23828125 60.09765625 C-50.92277344 60.08605469 -51.60726563 60.07445312 -52.3125 60.0625 C-54.1378125 60.0315625 -54.1378125 60.0315625 -56 60 C-56 55.05 -56 50.1 -56 45 C-54.36804688 44.76216797 -54.36804688 44.76216797 -52.703125 44.51953125 C-34.42868125 41.6921881 -19.44417262 35.19806978 -8 20 C-3.73064967 13.76875501 -1.68327874 7.32157827 0 0 Z " fill="#DB6905" transform="translate(326,306)"/>
    <path d="M0 0 C22.04717019 0.12708082 44.69229776 7.17490768 65.25 14.625 C65.9085498 14.85880371 66.56709961 15.09260742 67.24560547 15.33349609 C69.03125 16.015625 69.03125 16.015625 71.75 17.375 C72.245 18.86 72.245 18.86 72.75 20.375 C70.77 22.355 68.79 24.335 66.75 26.375 C61.25059413 24.97089637 55.86374863 23.47582204 50.5625 21.4375 C29.91323764 13.84203706 7.47664637 11.90367553 -14.25 9.375 C-13.29270084 8.24911986 -12.33412105 7.1243285 -11.375 6 C-10.84132813 5.37351562 -10.30765625 4.74703125 -9.7578125 4.1015625 C-6.4449103 0.30803201 -5.07004564 0.05583751 0 0 Z " fill="#FEF4C7" transform="translate(279.25,0.625)"/>
    <path d="M0 0 C6.64917299 0.90343694 12.21015957 3.43982738 18.3125 6.125 C19.40240234 6.58648437 20.49230469 7.04796875 21.61523438 7.5234375 C30.6920343 11.49692538 39.12791152 16.06783778 44 25 C45.2062252 28.61867559 45.10816918 31.92506251 45.0625 35.6875 C45.05798828 36.38939453 45.05347656 37.09128906 45.04882812 37.81445312 C45.03706927 39.54300538 45.01913454 41.27151365 45 43 C43.93284562 41.39926843 42.87054492 39.79488368 41.84375 38.16796875 C34.56801865 27.44472516 21.44218471 23.31368053 10 18.25 C7.73246336 17.24407856 5.46584924 16.23627472 3.20166016 15.22283936 C1.80361472 14.59725311 0.40361671 13.97600747 -0.99853516 13.35968018 C-3.74889941 12.13042819 -5.85032448 11.14967552 -8 9 C-7.50628906 8.51789063 -7.01257813 8.03578125 -6.50390625 7.5390625 C-5.86324219 6.90742188 -5.22257813 6.27578125 -4.5625 5.625 C-3.92441406 4.99851562 -3.28632813 4.37203125 -2.62890625 3.7265625 C-0.92117824 2.08276939 -0.92117824 2.08276939 0 0 Z " fill="#DB6905" transform="translate(234,257)"/>
    <path d="M0 0 C6.88876587 3.83579008 9.73403956 10.0772864 12.5625 17.1484375 C12.5625 21.1084375 12.5625 25.0684375 12.5625 29.1484375 C28.4025 29.1484375 44.2425 29.1484375 60.5625 29.1484375 C60.5625 29.4784375 60.5625 29.8084375 60.5625 30.1484375 C59.45849854 30.14207275 58.35449707 30.13570801 57.21704102 30.12915039 C53.08466245 30.11461929 48.95365762 30.14624361 44.8215332 30.19116211 C43.04000547 30.20422718 41.25834194 30.20510492 39.47680664 30.19311523 C26.0207718 29.86535085 26.0207718 29.86535085 14.84350586 36.65014648 C14.42077393 37.14458252 13.99804199 37.63901855 13.5625 38.1484375 C12.14616991 35.38308376 11.07577834 32.75178253 10.1875 29.7734375 C8.33020144 24.20154182 6.25392748 19.85819876 1.0625 16.7734375 C-4.90497862 14.13483221 -11.74720063 13.76088494 -17.87890625 16.06640625 C-22.34185569 18.60609571 -24.61116277 21.2401562 -26.4375 26.1484375 C-27.0975 25.8184375 -27.7575 25.4884375 -28.4375 25.1484375 C-29.06065906 16.96428179 -28.84455028 10.64219887 -23.4375 4.1484375 C-17.23120917 -2.08712829 -8.13599931 -2.84238438 0 0 Z " fill="#E59043" transform="translate(267.4375,176.8515625)"/>
    <path d="M0 0 C3.56078411 3.54050918 6.83427649 7.11068255 10 11 C9.59072266 11.33781494 9.18144531 11.67562988 8.75976562 12.02368164 C1.25784862 18.39418466 -5.5699569 25.46108161 -12.5 32.4375 C-13.81226585 33.75479059 -15.12476395 35.07184986 -16.4375 36.38867188 C-19.62768506 39.5897861 -22.81470651 42.79401865 -26 46 C-30.25188851 42.51005391 -33.15241653 39.70946497 -36 35 C-35.59072266 34.66218506 -35.18144531 34.32437012 -34.75976562 33.97631836 C-27.25784862 27.60581534 -20.4300431 20.53891839 -13.5 13.5625 C-12.18773415 12.24520941 -10.87523605 10.92815014 -9.5625 9.61132812 C-6.37231494 6.4102139 -3.18529349 3.20598135 0 0 Z " fill="#FCD736" transform="translate(108,365)"/>
    <path d="M0 0 C3.25669165 3.08065427 6.10679924 5.89806503 8 10 C7.57784038 13.33065557 6.37107552 15.01932012 4.06005859 17.39160156 C3.4420639 18.0319635 2.82406921 18.67232544 2.18734741 19.33209229 C1.51450714 20.01140808 0.84166687 20.69072388 0.1484375 21.390625 C-0.54381927 22.09523865 -1.23607605 22.79985229 -1.9493103 23.52581787 C-3.41639002 25.0124614 -4.8876672 26.49497266 -6.36279297 27.97363281 C-8.6133828 30.23831008 -10.83595931 32.52823613 -13.05859375 34.8203125 C-14.48793545 36.26205225 -15.91887418 37.70221081 -17.3515625 39.140625 C-18.01225739 39.82803772 -18.67295227 40.51545044 -19.35366821 41.22369385 C-24.61654239 46.41092404 -24.61654239 46.41092404 -28.97802734 46.42871094 C-29.97527832 46.28723633 -30.9725293 46.14576172 -32 46 C-33.05733454 41.56851738 -33.46165766 37.36101357 -32 33 C-27.97330933 26.73943392 -21.99491888 21.82009629 -16.5625 16.8125 C-15.07446574 15.39834093 -13.5894048 13.98104623 -12.10742188 12.56054688 C-10.02850024 10.56853192 -7.94632051 8.5823429 -5.83973694 6.61958313 C-5.21916916 6.04105087 -4.59860138 5.46251862 -3.95922852 4.86645508 C-3.41073746 4.35939529 -2.8622464 3.85233551 -2.2971344 3.32991028 C-0.8782531 2.0101462 -0.8782531 2.0101462 0 0 Z " fill="#FDE168" transform="translate(312,160)"/>
    <path d="M0 0 C4.57189739 1.76068776 7.34811326 3.77275125 11 7 C9.70860488 9.84125159 8.35592715 11.89060018 6.14257812 14.08447266 C5.56858276 14.65831696 4.9945874 15.23216125 4.40319824 15.82339478 C3.78545532 16.43081512 3.1677124 17.03823547 2.53125 17.6640625 C1.89513794 18.29734467 1.25902588 18.93062683 0.6036377 19.58309937 C-1.42625379 21.60181742 -3.46298851 23.61346919 -5.5 25.625 C-6.87155233 26.98651737 -8.2426514 28.34849149 -9.61328125 29.7109375 C-12.62867695 32.70668365 -15.6483954 35.69799256 -18.67199707 38.68545532 C-19.78471451 39.78689625 -20.89290646 40.89290646 -22 42 C-25.3 39.03 -28.6 36.06 -32 33 C-28.08110199 28.33892537 -24.05182926 23.91265945 -19.7265625 19.62890625 C-19.15795502 19.06171371 -18.58934753 18.49452118 -18.00350952 17.91014099 C-16.21303764 16.12520087 -14.41909516 14.34379744 -12.625 12.5625 C-11.39950677 11.34203061 -10.17424428 10.12132947 -8.94921875 8.90039062 C-5.96880226 5.93091244 -2.98527106 2.96459743 0 0 Z " fill="#FCD836" transform="translate(408,65)"/>
    <path d="M0 0 C1.78965246 0.03516112 3.57937147 0.06709167 5.36914062 0.09570312 C9.72692027 0.17234704 14.08146871 0.29286056 18.4375 0.4375 C18.4375 5.0575 18.4375 9.6775 18.4375 14.4375 C2.9275 14.4375 -12.5825 14.4375 -28.5625 14.4375 C-28.5625 7.4375 -28.5625 7.4375 -27.28149414 5.23803711 C-19.26220137 -1.63382108 -9.94534055 -0.34016054 0 0 Z " fill="#DB6704" transform="translate(309.5625,206.5625)"/>
    <path d="M0 0 C1.73402437 3.23477192 2.87655146 6.53141934 4.0625 10 C11.58687349 29.60297304 27.22281842 38.13057156 45 47 C44.01 47.495 44.01 47.495 43 48 C42.731875 48.5775 42.46375 49.155 42.1875 49.75 C40.55850224 52.83652206 38.70272727 54.80010571 36 57 C26.73879063 56.41345674 18.27665942 46.86773676 12.22265625 40.5546875 C2.01425074 28.8213005 -0.83157775 15.19939333 0 0 Z " fill="#E48E43" transform="translate(191,209)"/>
    <path d="M0 0 C6.435 3.465 6.435 3.465 13 7 C7.79076585 13.31925552 2.06288857 19.05202434 -3.75 24.8125 C-4.71768278 25.77515459 -5.68513238 26.73804364 -6.65234375 27.70117188 C-9.09947791 30.13622569 -11.54947685 32.56835831 -14 35 C-14.66 35.66 -15.32 36.32 -16 37 C-19.96 35.02 -23.92 33.04 -28 31 C-25.9624763 26.9249526 -23.57161724 24.33069783 -20.37109375 21.2109375 C-19.54654442 20.39419052 -19.54654442 20.39419052 -18.70533752 19.5609436 C-16.95408824 17.82746221 -15.19628312 16.10083449 -13.4375 14.375 C-11.67604189 12.64115848 -9.91606377 10.90587817 -8.15895081 9.16763306 C-7.06658495 8.08752633 -5.97155704 7.01010397 -4.87364197 5.93563843 C-2.08448055 3.23686511 -2.08448055 3.23686511 0 0 Z " fill="#FDE167" transform="translate(252,220)"/>
    <path d="M0 0 C6.36097589 1.91731543 12.14643632 4.36846388 18 7.5 C18.80800049 7.92780762 19.61600098 8.35561523 20.44848633 8.79638672 C28.94815996 13.37752468 36.99665851 18.60978538 45 24 C44.236875 24.721875 43.47375 25.44375 42.6875 26.1875 C40.02110186 28.73807307 40.02110186 28.73807307 38.77416992 31.22143555 C36.30833245 35.08323495 33.18077895 38.06524254 29.92578125 41.26953125 C29.2419487 41.95053391 28.55811615 42.63153656 27.8535614 43.33317566 C25.677874 45.49770768 23.49532083 47.65516424 21.3125 49.8125 C19.83222319 51.28274103 18.35240024 52.75343918 16.87304688 54.22460938 C13.25393443 57.82172302 9.62865016 61.41250895 6 65 C6 62 6 62 7.13891602 60.50032043 C7.67186279 59.97403549 8.20480957 59.44775055 8.75390625 58.90551758 C9.35452881 58.30512161 9.95515137 57.70472565 10.57397461 57.08613586 C11.55829468 56.12504158 11.55829468 56.12504158 12.5625 55.14453125 C13.22838135 54.48289474 13.8942627 53.82125824 14.58032227 53.13957214 C16.71329379 51.0234226 18.8564491 48.91792734 21 46.8125 C22.44599425 45.38154797 23.89131571 43.94991572 25.3359375 42.51757812 C28.8828599 39.00377176 32.43895178 35.49948754 36 32 C34.78214772 28.34644317 33.98392669 28.14194529 30.6875 26.36328125 C29.33229248 25.62609863 29.33229248 25.62609863 27.94970703 24.87402344 C26.97630371 24.3587207 26.00290039 23.84341797 25 23.3125 C24.01499512 22.78301758 23.02999023 22.25353516 22.01513672 21.70800781 C13.48365477 17.16321255 4.81039493 12.97285713 -4 9 C-4 5.08599736 -2.46033213 3.9216444 0 1 C0 0.67 0 0.34 0 0 Z " fill="#FEEA93" transform="translate(351,19)"/>
    <path d="M0 0 C8.93890192 3.96626774 15.10600389 13.54409492 21 21 C21.7940625 21.98871094 22.588125 22.97742188 23.40625 23.99609375 C28.25644678 30.1432577 32.76309103 36.45461015 37.0625 43 C37.53993652 43.71816895 38.01737305 44.43633789 38.50927734 45.17626953 C40.81516868 48.74909716 42.58509014 51.6646153 43 56 C41.68 56.99 40.36 57.98 39 59 C38.39414062 58.06800781 37.78828125 57.13601562 37.1640625 56.17578125 C25.20874133 37.92450534 11.7136879 21.15690368 -4 6 C-2.84826645 3.53199953 -1.95216435 1.95216435 0 0 Z " fill="#FEF4C6" transform="translate(424,68)"/>
    <path d="M0 0 C7.59 0 15.18 0 23 0 C23 4.95 23 9.9 23 15 C15.41 15 7.82 15 0 15 C0 10.05 0 5.1 0 0 Z " fill="#DB6704" transform="translate(247,380)"/>
    <path d="M0 0 C12.87 0.495 12.87 0.495 26 1 C19.25019628 8.874771 19.25019628 8.874771 16.203125 11.89453125 C15.55472656 12.53970703 14.90632812 13.18488281 14.23828125 13.84960938 C13.58214844 14.49736328 12.92601562 15.14511719 12.25 15.8125 C11.57839844 16.47958984 10.90679687 17.14667969 10.21484375 17.83398438 C8.98065237 19.0595191 7.74542911 20.28401626 6.50878906 21.50708008 C5.33568162 22.66784901 4.16695449 23.83304551 3 25 C2.49279088 22.14694871 1.99406366 19.29283186 1.5 16.4375 C1.35691406 15.63763672 1.21382812 14.83777344 1.06640625 14.01367188 C0.93105469 13.22412109 0.79570312 12.43457031 0.65625 11.62109375 C0.53056641 10.9036499 0.40488281 10.18620605 0.27539062 9.44702148 C-0.07692869 6.31643945 0 3.15034487 0 0 Z " fill="#FDE068" transform="translate(183,282)"/>
    <path d="M0 0 C3.19372069 4.19996145 5 6.58418198 5 12 C2.68781229 13.69724417 0.48299743 15.09542428 -2 16.5 C-8.9598749 20.59745961 -15.34876057 25.11661706 -21.59375 30.24023438 C-24.76122932 32.74070301 -26.34362055 33.93628823 -30.4609375 34.3359375 C-31.29882812 34.22507813 -32.13671875 34.11421875 -33 34 C-29.03627475 29.24914133 -24.90205218 24.76386888 -20.5078125 20.41015625 C-19.91700897 19.82076767 -19.32620544 19.23137909 -18.71749878 18.62413025 C-16.85569596 16.76786273 -14.99042255 14.91512915 -13.125 13.0625 C-11.85132989 11.79385328 -10.57789029 10.5249751 -9.3046875 9.25585938 C-6.20577957 6.16789446 -3.10375699 3.08309071 0 0 Z " fill="#FDF0B1" transform="translate(320,172)"/>
    <path d="M0 0 C2.75582893 0.89542871 4.34976181 1.92525786 6.56176758 3.77758789 C7.2675293 4.36088867 7.97329102 4.94418945 8.70043945 5.54516602 C9.42166992 6.15682617 10.14290039 6.76848633 10.88598633 7.39868164 C11.62655273 8.01420898 12.36711914 8.62973633 13.13012695 9.26391602 C14.95164135 10.77988606 16.7655862 12.3040252 18.57348633 13.83618164 C16.92348633 15.81618164 15.27348633 17.79618164 13.57348633 19.83618164 C9.0609744 18.34046139 5.63325758 15.81368903 1.94848633 12.89868164 C1.37614258 12.45588867 0.80379883 12.0130957 0.21411133 11.55688477 C-2.48484168 9.45107376 -5.09143635 7.3451477 -7.42651367 4.83618164 C-3.1183491 -0.21052543 -3.1183491 -0.21052543 0 0 Z " fill="#FEF5C8" transform="translate(396.426513671875,44.163818359375)"/>
    <path d="M0 0 C0.76054687 0.09796875 1.52109375 0.1959375 2.3046875 0.296875 C3.18511719 0.40515625 4.06554687 0.5134375 4.97265625 0.625 C6.56013672 0.83382813 6.56013672 0.83382813 8.1796875 1.046875 C9.55059093 1.20994142 10.92169883 1.37129475 12.29296875 1.53125 C13.73444687 1.70252118 15.17585334 1.87439654 16.6171875 2.046875 C17.66447021 2.1711084 17.66447021 2.1711084 18.73291016 2.29785156 C21.68929122 2.66496974 24.34431255 3.10175002 27.1796875 4.046875 C26.02795395 6.51487547 25.13185185 8.09471065 23.1796875 10.046875 C14.12955275 10.56699769 4.83230915 7.38102011 -3.8203125 5.046875 C-3.8203125 1.83896788 -3.55515747 0.09154912 0 0 Z " fill="#FEF4C8" transform="translate(209.8203125,429.953125)"/>
    <path d="M0 0 C-9.24 9.24 -18.48 18.48 -28 28 C-29 24 -29 24 -27.8828125 21.73828125 C-9.77042802 -3.25680934 -9.77042802 -3.25680934 0 0 Z " fill="#FDEFAF" transform="translate(225,148)"/>
    <path d="M0 0 C0.99 0.33 1.98 0.66 3 1 C2.61255615 1.49290527 2.2251123 1.98581055 1.82592773 2.49365234 C0.02708138 4.78532965 -1.76820054 7.07976087 -3.5625 9.375 C-4.20421143 10.19468262 -4.84592285 11.01436523 -5.50708008 11.85888672 C-9.45394135 16.92790956 -13.21118054 22.02754945 -16.66796875 27.4453125 C-17.10753906 27.95835937 -17.54710937 28.47140625 -18 29 C-18.99 29 -19.98 29 -21 29 C-21.79467773 25.84350586 -21.79467773 25.84350586 -22 22 C-20.09399414 19.18579102 -20.09399414 19.18579102 -17.28515625 16.50390625 C-16.55056435 15.78629372 -16.55056435 15.78629372 -15.8011322 15.05418396 C-14.23940642 13.53708646 -12.65219554 12.05020871 -11.0625 10.5625 C-9.99623743 9.53638213 -8.93176102 8.50840476 -7.86914062 7.47851562 C-5.26643881 4.963805 -2.64012792 2.47545639 0 0 Z " fill="#FDF0B0" transform="translate(209,283)"/>
    <path d="M0 0 C0.33 0.66 0.66 1.32 1 2 C-3.0977102 12.9272272 -12.88975937 22.52640946 -23 28 C-25.796875 28.68359375 -25.796875 28.68359375 -28 29 C-22.61359076 22.44622903 -16.64114873 16.52753365 -10.625 10.5625 C-9.59221405 9.53474017 -8.55966009 8.50674715 -7.52734375 7.47851562 C-5.02089713 4.98298402 -2.5113292 2.49061918 0 0 Z " fill="#FCE793" transform="translate(322,316)"/>
    <path d="M0 0 C2 1 2 1 2.68603516 2.73071289 C3.34274783 5.17224832 3.99499545 7.61390672 4.625 10.0625 C4.96917969 11.31450195 4.96917969 11.31450195 5.3203125 12.59179688 C6.70482867 17.87850596 7.36561081 22.53411846 7 28 C5.625 30 5.625 30 4 31 C3.34 31 2.68 31 2 31 C1.87882812 30.26136719 1.75765625 29.52273437 1.6328125 28.76171875 C0.76973085 23.53675525 -0.12355883 18.32534095 -1.125 13.125 C-1.80827802 9.36697087 -2.39288216 5.83060105 -2 2 C-1.34 1.34 -0.68 0.68 0 0 Z " fill="#FEF3C6" transform="translate(443,195)"/>
    <path d="M0 0 C3.38998151 1.94137295 6.3405458 4.03396348 9.3125 6.5625 C17.15999715 12.92470335 25.88776437 18.16000506 34.6953125 23.0859375 C35.78585938 23.69695312 36.87640625 24.30796875 38 24.9375 C38.969375 25.46214844 39.93875 25.98679687 40.9375 26.52734375 C41.9584375 27.25630859 41.9584375 27.25630859 43 28 C43 28.99 43 29.98 43 31 C38.01540732 30.46112512 34.50452607 28.1403657 30.375 25.5 C29.66641846 25.05148682 28.95783691 24.60297363 28.2277832 24.14086914 C22.09665574 20.19223121 16.53535073 15.74222585 11 11 C8.01093444 8.61024583 5.0180669 6.22551599 2.01953125 3.84765625 C1.35308594 3.23792969 0.68664062 2.62820313 0 2 C0 1.34 0 0.68 0 0 Z " fill="#FEF2C2" transform="translate(130,388)"/>
    <path d="M0 0 C2.53543785 2.23337888 3.59491022 4.06383452 4.60546875 7.2734375 C4.86650391 8.0984375 5.12753906 8.9234375 5.39648438 9.7734375 C5.78803711 11.06121094 5.78803711 11.06121094 6.1875 12.375 C6.59645508 13.65117187 6.59645508 13.65117187 7.01367188 14.953125 C8.31392998 19.13741423 9.15032867 22.58354797 9 27 C8.01 27.33 7.02 27.66 6 28 C4.8491847 24.60583457 3.7052339 21.20939392 2.5625 17.8125 C2.07426758 16.37293945 2.07426758 16.37293945 1.57617188 14.90429688 C1.10727539 13.50727539 1.10727539 13.50727539 0.62890625 12.08203125 C0.34088135 11.22843018 0.05285645 10.3748291 -0.24389648 9.49536133 C-1.00620582 6.97951897 -1.69055914 4.61351704 -2 2 C-1.34 1.34 -0.68 0.68 0 0 Z " fill="#FEF3C2" transform="translate(482,156)"/>
    <path d="M0 0 C0.99 0.33 1.98 0.66 3 1 C-8.22 12.22 -19.44 23.44 -31 35 C-31.495 33.515 -31.495 33.515 -32 32 C-31.01 30.515 -31.01 30.515 -30 29 C-29.34 29 -28.68 29 -28 29 C-25.97080605 27.17171634 -24.03937243 25.31893359 -22.1171875 23.3828125 C-21.25578659 22.52428177 -21.25578659 22.52428177 -20.37698364 21.64840698 C-19.1624339 20.43522012 -17.95041374 19.21949642 -16.74072266 18.00146484 C-14.88270745 16.13275183 -13.01428942 14.27492373 -11.14453125 12.41796875 C-9.96810817 11.24022409 -8.79230563 10.0618592 -7.6171875 8.8828125 C-7.05474335 8.32441681 -6.49229919 7.76602112 -5.91281128 7.19070435 C-2.95049055 4.58159598 -2.95049055 4.58159598 -2 1 C-1.34 0.67 -0.68 0.34 0 0 Z " fill="#FDE477" transform="translate(226,145)"/>
    <path d="M0 0 C0 3.63 0 7.26 0 11 C-3.63 11 -7.26 11 -11 11 C-1.69230769 0 -1.69230769 0 0 0 Z " fill="#FDEA98" transform="translate(270,369)"/>
    <path d="M0 0 C1.78066193 3.20826159 2.66536056 6.30963805 3.5 9.875 C4.49214882 13.99468392 5.55891189 18.00929448 7 22 C6.34 22 5.68 22 5 22 C4.67 22.99 4.34 23.98 4 25 C3.34 25 2.68 25 2 25 C0.30117812 16.58173087 -0.24911914 8.58077055 0 0 Z " fill="#E79645" transform="translate(183,293)"/>
    <path d="M0 0 C3.63 0 7.26 0 11 0 C7.56530675 4.15358254 4.36729534 7.78875342 0 11 C0 7.37 0 3.74 0 0 Z " fill="#FEF0B2" transform="translate(251,110)"/>
    <path d="M0 0 C4.76460199 8.91394779 4.33097066 21.12604187 4 31 C3.67 31 3.34 31 3 31 C2.29069835 27.52491922 1.61166127 24.04455408 0.9375 20.5625 C0.73833984 19.58861328 0.53917969 18.61472656 0.33398438 17.61132812 C-0.85367964 11.38130112 -1.03011101 6.26488898 0 0 Z " fill="#FCE381" transform="translate(493,191)"/>
    <path d="M0 0 C4.25993762 3.71223136 6.86861137 8.33781101 9.75 13.125 C10.25660156 13.94871094 10.76320313 14.77242187 11.28515625 15.62109375 C15 21.73907092 15 21.73907092 15 24 C11.4843161 22.82810537 11.29259282 22.26719127 9.58984375 19.140625 C8.94112305 17.96113281 8.94112305 17.96113281 8.27929688 16.7578125 C7.61510742 15.51644531 7.61510742 15.51644531 6.9375 14.25 C6.26750977 13.03183594 6.26750977 13.03183594 5.58398438 11.7890625 C3.48417885 7.93471095 1.48955269 4.14045155 0 0 Z " fill="#FDF0BD" transform="translate(414,138)"/>
    <path d="M0 0 C1.90608098 3.21182149 2.22266247 5.53882603 2.125 9.25 C2.10695313 10.14203125 2.08890625 11.0340625 2.0703125 11.953125 C2.03550781 12.96632812 2.03550781 12.96632812 2 14 C-0.3797234 11.6202766 -0.58749232 10.25575205 -1.25 7 C-1.53617187 5.6696875 -1.53617187 5.6696875 -1.828125 4.3125 C-1.88484375 3.549375 -1.9415625 2.78625 -2 2 C-1.34 1.34 -0.68 0.68 0 0 Z " fill="#FDE78D" transform="translate(491,182)"/>
    <path d="M0 0 C1.98 0 3.96 0 6 0 C4.35830472 2.02054804 2.69088222 4.02043058 1 6 C0.67 6 0.34 6 0 6 C0 4.02 0 2.04 0 0 Z " fill="#FEF0AF" transform="translate(184,283)"/>
    <path d="M0 0 C2.17766075 4.35532149 2.03039555 5.46625958 1 10 C0.34 9.67 -0.32 9.34 -1 9 C-0.67 6.03 -0.34 3.06 0 0 Z " fill="#F9D46F" transform="translate(493,191)"/>
</svg>
